G04 #@! TF.GenerationSoftware,KiCad,Pcbnew,(5.0.2)-1*
G04 #@! TF.CreationDate,2021-02-20T21:55:20+01:00*
G04 #@! TF.ProjectId,Radmesser,5261646d-6573-4736-9572-2e6b69636164,rev?*
G04 #@! TF.SameCoordinates,Original*
G04 #@! TF.FileFunction,Copper,L2,Bot*
G04 #@! TF.FilePolarity,Positive*
%FSLAX46Y46*%
G04 Gerber Fmt 4.6, Leading zero omitted, Abs format (unit mm)*
G04 Created by KiCad (PCBNEW (5.0.2)-1) date 20.02.2021 21:55:20*
%MOMM*%
%LPD*%
G01*
G04 APERTURE LIST*
G04 #@! TA.AperFunction,ComponentPad*
%ADD10C,1.600000*%
G04 #@! TD*
G04 #@! TA.AperFunction,ComponentPad*
%ADD11O,1.600000X1.600000*%
G04 #@! TD*
G04 #@! TA.AperFunction,ComponentPad*
%ADD12C,1.530000*%
G04 #@! TD*
G04 #@! TA.AperFunction,ComponentPad*
%ADD13R,1.800000X1.800000*%
G04 #@! TD*
G04 #@! TA.AperFunction,ComponentPad*
%ADD14C,1.800000*%
G04 #@! TD*
G04 #@! TA.AperFunction,ComponentPad*
%ADD15O,1.000000X1.000000*%
G04 #@! TD*
G04 #@! TA.AperFunction,ComponentPad*
%ADD16R,1.000000X1.000000*%
G04 #@! TD*
G04 #@! TA.AperFunction,ComponentPad*
%ADD17C,1.200000*%
G04 #@! TD*
G04 #@! TA.AperFunction,ComponentPad*
%ADD18R,1.200000X1.200000*%
G04 #@! TD*
G04 #@! TA.AperFunction,Conductor*
%ADD19C,1.600000*%
G04 #@! TD*
G04 #@! TA.AperFunction,ComponentPad*
%ADD20O,2.000000X2.000000*%
G04 #@! TD*
G04 #@! TA.AperFunction,ComponentPad*
%ADD21R,2.000000X2.000000*%
G04 #@! TD*
G04 #@! TA.AperFunction,ComponentPad*
%ADD22O,1.700000X1.700000*%
G04 #@! TD*
G04 #@! TA.AperFunction,ComponentPad*
%ADD23R,1.700000X1.700000*%
G04 #@! TD*
G04 #@! TA.AperFunction,ComponentPad*
%ADD24O,2.600000X2.000000*%
G04 #@! TD*
G04 #@! TA.AperFunction,ComponentPad*
%ADD25R,2.600000X2.000000*%
G04 #@! TD*
G04 #@! TA.AperFunction,ComponentPad*
%ADD26R,3.000000X3.000000*%
G04 #@! TD*
G04 #@! TA.AperFunction,ComponentPad*
%ADD27C,3.000000*%
G04 #@! TD*
G04 #@! TA.AperFunction,Conductor*
%ADD28C,0.200000*%
G04 #@! TD*
G04 #@! TA.AperFunction,Conductor*
%ADD29C,0.500000*%
G04 #@! TD*
G04 #@! TA.AperFunction,Conductor*
%ADD30C,1.500000*%
G04 #@! TD*
G04 #@! TA.AperFunction,Conductor*
%ADD31C,0.254000*%
G04 #@! TD*
G04 APERTURE END LIST*
D10*
G04 #@! TO.P,R6,1*
G04 #@! TO.N,Net-(J1-Pad12)*
X188722000Y-124460000D03*
D11*
G04 #@! TO.P,R6,2*
G04 #@! TO.N,Net-(Dgrun1-Pad2)*
X196342000Y-124460000D03*
G04 #@! TD*
D12*
G04 #@! TO.P,Uvorne1,2*
G04 #@! TO.N,Net-(J1-Pad22)*
X165354000Y-125222000D03*
G04 #@! TO.P,Uvorne1,3*
G04 #@! TO.N,Net-(R4-Pad1)*
X167894000Y-125222000D03*
G04 #@! TO.P,Uvorne1,4*
G04 #@! TO.N,GND*
X170434000Y-125222001D03*
G04 #@! TO.P,Uvorne1,1*
G04 #@! TO.N,Net-(D4-Pad1)*
X162814000Y-125221999D03*
G04 #@! TD*
G04 #@! TO.P,Uhinten2,1*
G04 #@! TO.N,Net-(D4-Pad1)*
X207518938Y-115810994D03*
G04 #@! TO.P,Uhinten2,4*
G04 #@! TO.N,GND*
X213981062Y-111773006D03*
G04 #@! TO.P,Uhinten2,3*
G04 #@! TO.N,Net-(R2-Pad1)*
X211827021Y-113119003D03*
G04 #@! TO.P,Uhinten2,2*
G04 #@! TO.N,Net-(J1-Pad22)*
X209672979Y-114464997D03*
G04 #@! TD*
D13*
G04 #@! TO.P,Drot2,1*
G04 #@! TO.N,GND*
X220218000Y-107188000D03*
D14*
G04 #@! TO.P,Drot2,2*
G04 #@! TO.N,Net-(Drot2-Pad2)*
X217678000Y-107188000D03*
G04 #@! TD*
G04 #@! TO.P,Dgrun1,2*
G04 #@! TO.N,Net-(Dgrun1-Pad2)*
X210312000Y-106426000D03*
D13*
G04 #@! TO.P,Dgrun1,1*
G04 #@! TO.N,GND*
X212852000Y-106426000D03*
G04 #@! TD*
D15*
G04 #@! TO.P,U3,3*
G04 #@! TO.N,Net-(GPS1-Pad1)*
X182626000Y-111252000D03*
G04 #@! TO.P,U3,2*
G04 #@! TO.N,Net-(J1-Pad7)*
X182626000Y-112522000D03*
D16*
G04 #@! TO.P,U3,1*
G04 #@! TO.N,GND*
X182626000Y-113792000D03*
G04 #@! TD*
D17*
G04 #@! TO.P,SW1,2*
G04 #@! TO.N,Net-(J1-Pad17)*
X202668000Y-111506000D03*
D18*
G04 #@! TO.P,SW1,1*
G04 #@! TO.N,Net-(J1-Pad31)*
X201168000Y-111506000D03*
G04 #@! TD*
D10*
G04 #@! TO.P,R1,2*
G04 #@! TO.N,GND*
X197123831Y-131875980D03*
D19*
G04 #@! TD*
G04 #@! TO.N,GND*
G04 #@! TO.C,R1*
X197123831Y-131875980D02*
X197123831Y-131875980D01*
D10*
G04 #@! TO.P,R1,1*
G04 #@! TO.N,Net-(J1-Pad16)*
X205740000Y-126492000D03*
G04 #@! TD*
G04 #@! TO.P,R2,1*
G04 #@! TO.N,Net-(R2-Pad1)*
X216916000Y-119634000D03*
G04 #@! TO.P,R2,2*
G04 #@! TO.N,Net-(J1-Pad16)*
X208299831Y-125017980D03*
D19*
G04 #@! TD*
G04 #@! TO.N,Net-(J1-Pad16)*
G04 #@! TO.C,R2*
X208299831Y-125017980D02*
X208299831Y-125017980D01*
D11*
G04 #@! TO.P,R3,2*
G04 #@! TO.N,GND*
X191770000Y-133350000D03*
D10*
G04 #@! TO.P,R3,1*
G04 #@! TO.N,Net-(J1-Pad18)*
X181610000Y-133350000D03*
G04 #@! TD*
G04 #@! TO.P,R4,1*
G04 #@! TO.N,Net-(R4-Pad1)*
X167894000Y-133350000D03*
D11*
G04 #@! TO.P,R4,2*
G04 #@! TO.N,Net-(J1-Pad18)*
X178054000Y-133350000D03*
G04 #@! TD*
G04 #@! TO.P,R7,2*
G04 #@! TO.N,Net-(J1-Pad7)*
X185674000Y-113030000D03*
D10*
G04 #@! TO.P,R7,1*
G04 #@! TO.N,Net-(GPS1-Pad1)*
X195834000Y-113030000D03*
G04 #@! TD*
G04 #@! TO.P,R8,1*
G04 #@! TO.N,Net-(J1-Pad31)*
X192024000Y-107442000D03*
D11*
G04 #@! TO.P,R8,2*
G04 #@! TO.N,GND*
X181864000Y-107442000D03*
G04 #@! TD*
D14*
G04 #@! TO.P,Dgelb3,2*
G04 #@! TO.N,Net-(Dgelb3-Pad2)*
X225298000Y-103124000D03*
D13*
G04 #@! TO.P,Dgelb3,1*
G04 #@! TO.N,GND*
X227838000Y-103124000D03*
G04 #@! TD*
D11*
G04 #@! TO.P,R5,2*
G04 #@! TO.N,Net-(Drot2-Pad2)*
X184658000Y-126492000D03*
D10*
G04 #@! TO.P,R5,1*
G04 #@! TO.N,Net-(J1-Pad38)*
X177038000Y-126492000D03*
G04 #@! TD*
D11*
G04 #@! TO.P,R9,2*
G04 #@! TO.N,Net-(Dgelb3-Pad2)*
X184658000Y-122936000D03*
D10*
G04 #@! TO.P,R9,1*
G04 #@! TO.N,Net-(J1-Pad36)*
X177038000Y-122936000D03*
G04 #@! TD*
D20*
G04 #@! TO.P,D4,2*
G04 #@! TO.N,GND*
X204978000Y-107442000D03*
D21*
G04 #@! TO.P,D4,1*
G04 #@! TO.N,Net-(D4-Pad1)*
X194818000Y-107442000D03*
G04 #@! TD*
D22*
G04 #@! TO.P,J2,2*
G04 #@! TO.N,Net-(J2-Pad2)*
X141478000Y-108966000D03*
D23*
G04 #@! TO.P,J2,1*
G04 #@! TO.N,Net-(J2-Pad1)*
X141478000Y-111506000D03*
G04 #@! TD*
D12*
G04 #@! TO.P,GPS1,2*
G04 #@! TO.N,Net-(GPS1-Pad2)*
X178000000Y-100076000D03*
G04 #@! TO.P,GPS1,3*
G04 #@! TO.N,Net-(GPS1-Pad3)*
X178000000Y-102616000D03*
G04 #@! TO.P,GPS1,4*
G04 #@! TO.N,GND*
X178000000Y-105156000D03*
G04 #@! TO.P,GPS1,1*
G04 #@! TO.N,Net-(GPS1-Pad1)*
X178000000Y-97536000D03*
G04 #@! TD*
D24*
G04 #@! TO.P,U4,6*
G04 #@! TO.N,Net-(SW2-Pad2)*
X185674000Y-103124000D03*
G04 #@! TO.P,U4,5*
G04 #@! TO.N,GND*
X185674000Y-100584000D03*
G04 #@! TO.P,U4,4*
G04 #@! TO.N,Net-(J3-Pad2)*
X185674000Y-98044000D03*
G04 #@! TO.P,U4,3*
G04 #@! TO.N,Net-(J3-Pad1)*
X185674000Y-95504000D03*
G04 #@! TO.P,U4,2*
G04 #@! TO.N,Net-(J2-Pad2)*
X185674000Y-92964000D03*
D25*
G04 #@! TO.P,U4,1*
G04 #@! TO.N,Net-(J2-Pad1)*
X185674000Y-90424000D03*
G04 #@! TD*
D22*
G04 #@! TO.P,J1,40*
G04 #@! TO.N,Net-(J1-Pad40)*
X147066000Y-119380000D03*
G04 #@! TO.P,J1,39*
G04 #@! TO.N,GND*
X147066000Y-116840000D03*
G04 #@! TO.P,J1,38*
G04 #@! TO.N,Net-(J1-Pad38)*
X149606000Y-119380000D03*
G04 #@! TO.P,J1,37*
G04 #@! TO.N,Net-(J1-Pad37)*
X149606000Y-116840000D03*
G04 #@! TO.P,J1,36*
G04 #@! TO.N,Net-(J1-Pad36)*
X152146000Y-119380000D03*
G04 #@! TO.P,J1,35*
G04 #@! TO.N,Net-(J1-Pad35)*
X152146000Y-116840000D03*
G04 #@! TO.P,J1,34*
G04 #@! TO.N,GND*
X154686000Y-119380000D03*
G04 #@! TO.P,J1,33*
G04 #@! TO.N,Net-(J1-Pad33)*
X154686000Y-116840000D03*
G04 #@! TO.P,J1,32*
G04 #@! TO.N,Net-(J1-Pad32)*
X157226000Y-119380000D03*
G04 #@! TO.P,J1,31*
G04 #@! TO.N,Net-(J1-Pad31)*
X157226000Y-116840000D03*
G04 #@! TO.P,J1,30*
G04 #@! TO.N,GND*
X159766000Y-119380000D03*
G04 #@! TO.P,J1,29*
G04 #@! TO.N,Net-(J1-Pad29)*
X159766000Y-116840000D03*
G04 #@! TO.P,J1,28*
G04 #@! TO.N,Net-(J1-Pad28)*
X162306000Y-119380000D03*
G04 #@! TO.P,J1,27*
G04 #@! TO.N,Net-(J1-Pad27)*
X162306000Y-116840000D03*
G04 #@! TO.P,J1,26*
G04 #@! TO.N,Net-(J1-Pad26)*
X164846000Y-119380000D03*
G04 #@! TO.P,J1,25*
G04 #@! TO.N,GND*
X164846000Y-116840000D03*
G04 #@! TO.P,J1,24*
G04 #@! TO.N,Net-(J1-Pad24)*
X167386000Y-119380000D03*
G04 #@! TO.P,J1,23*
G04 #@! TO.N,Net-(J1-Pad23)*
X167386000Y-116840000D03*
G04 #@! TO.P,J1,22*
G04 #@! TO.N,Net-(J1-Pad22)*
X169926000Y-119380000D03*
G04 #@! TO.P,J1,21*
G04 #@! TO.N,Net-(J1-Pad21)*
X169926000Y-116840000D03*
G04 #@! TO.P,J1,20*
G04 #@! TO.N,GND*
X172466000Y-119380000D03*
G04 #@! TO.P,J1,19*
G04 #@! TO.N,Net-(J1-Pad19)*
X172466000Y-116840000D03*
G04 #@! TO.P,J1,18*
G04 #@! TO.N,Net-(J1-Pad18)*
X175006000Y-119380000D03*
G04 #@! TO.P,J1,17*
G04 #@! TO.N,Net-(J1-Pad17)*
X175006000Y-116840000D03*
G04 #@! TO.P,J1,16*
G04 #@! TO.N,Net-(J1-Pad16)*
X177546000Y-119380000D03*
G04 #@! TO.P,J1,15*
G04 #@! TO.N,Net-(J1-Pad15)*
X177546000Y-116840000D03*
G04 #@! TO.P,J1,14*
G04 #@! TO.N,GND*
X180086000Y-119380000D03*
G04 #@! TO.P,J1,13*
G04 #@! TO.N,Net-(J1-Pad13)*
X180086000Y-116840000D03*
G04 #@! TO.P,J1,12*
G04 #@! TO.N,Net-(J1-Pad12)*
X182626000Y-119380000D03*
G04 #@! TO.P,J1,11*
G04 #@! TO.N,Net-(J1-Pad11)*
X182626000Y-116840000D03*
G04 #@! TO.P,J1,10*
G04 #@! TO.N,Net-(GPS1-Pad3)*
X185166000Y-119380000D03*
G04 #@! TO.P,J1,9*
G04 #@! TO.N,GND*
X185166000Y-116840000D03*
G04 #@! TO.P,J1,8*
G04 #@! TO.N,Net-(GPS1-Pad2)*
X187706000Y-119380000D03*
G04 #@! TO.P,J1,7*
G04 #@! TO.N,Net-(J1-Pad7)*
X187706000Y-116840000D03*
G04 #@! TO.P,J1,6*
G04 #@! TO.N,GND*
X190246000Y-119380000D03*
G04 #@! TO.P,J1,5*
G04 #@! TO.N,Net-(J1-Pad5)*
X190246000Y-116840000D03*
G04 #@! TO.P,J1,4*
G04 #@! TO.N,Net-(D4-Pad1)*
X192786000Y-119380000D03*
G04 #@! TO.P,J1,3*
G04 #@! TO.N,Net-(J1-Pad3)*
X192786000Y-116840000D03*
G04 #@! TO.P,J1,2*
G04 #@! TO.N,Net-(D4-Pad1)*
X195326000Y-119380000D03*
D23*
G04 #@! TO.P,J1,1*
G04 #@! TO.N,Net-(GPS1-Pad1)*
X195326000Y-116840000D03*
G04 #@! TD*
D26*
G04 #@! TO.P,J3,1*
G04 #@! TO.N,Net-(J3-Pad1)*
X212852000Y-94996000D03*
D27*
G04 #@! TO.P,J3,2*
G04 #@! TO.N,Net-(J3-Pad2)*
X217932000Y-94996000D03*
G04 #@! TD*
G04 #@! TO.P,SW2,2*
G04 #@! TO.N,Net-(SW2-Pad2)*
X228092000Y-94996000D03*
D26*
G04 #@! TO.P,SW2,1*
G04 #@! TO.N,Net-(D4-Pad1)*
X223012000Y-94996000D03*
G04 #@! TD*
D22*
G04 #@! TO.P,J4,5*
G04 #@! TO.N,Net-(J2-Pad2)*
X138000000Y-101160000D03*
G04 #@! TO.P,J4,4*
G04 #@! TO.N,Net-(J4-Pad4)*
X138000000Y-98620000D03*
G04 #@! TO.P,J4,3*
G04 #@! TO.N,Net-(J4-Pad3)*
X138000000Y-96080000D03*
G04 #@! TO.P,J4,2*
G04 #@! TO.N,Net-(J4-Pad2)*
X138000000Y-93540000D03*
D23*
G04 #@! TO.P,J4,1*
G04 #@! TO.N,Net-(J2-Pad1)*
X138000000Y-91000000D03*
G04 #@! TD*
D28*
G04 #@! TO.N,GND*
X184316001Y-117689999D02*
X185166000Y-116840000D01*
X184015999Y-117990001D02*
X184316001Y-117689999D01*
X181475999Y-117990001D02*
X184015999Y-117990001D01*
X180086000Y-119380000D02*
X181475999Y-117990001D01*
X189396001Y-118530001D02*
X190246000Y-119380000D01*
X189095999Y-118229999D02*
X189396001Y-118530001D01*
X186555999Y-118229999D02*
X189095999Y-118229999D01*
X185166000Y-116840000D02*
X186555999Y-118229999D01*
X173315999Y-118530001D02*
X172466000Y-119380000D01*
X173616001Y-118229999D02*
X173315999Y-118530001D01*
X178935999Y-118229999D02*
X173616001Y-118229999D01*
X180086000Y-119380000D02*
X178935999Y-118229999D01*
X171616001Y-118530001D02*
X172466000Y-119380000D01*
X171315999Y-118229999D02*
X171616001Y-118530001D01*
X166235999Y-118229999D02*
X171315999Y-118229999D01*
X164846000Y-116840000D02*
X166235999Y-118229999D01*
X160615999Y-118530001D02*
X159766000Y-119380000D01*
X161155999Y-117990001D02*
X160615999Y-118530001D01*
X163695999Y-117990001D02*
X161155999Y-117990001D01*
X164846000Y-116840000D02*
X163695999Y-117990001D01*
X158916001Y-118530001D02*
X159766000Y-119380000D01*
X158615999Y-118229999D02*
X158916001Y-118530001D01*
X155836001Y-118229999D02*
X158615999Y-118229999D01*
X154686000Y-119380000D02*
X155836001Y-118229999D01*
X153836001Y-118530001D02*
X154686000Y-119380000D01*
X153535999Y-118229999D02*
X153836001Y-118530001D01*
X148455999Y-118229999D02*
X153535999Y-118229999D01*
X147066000Y-116840000D02*
X148455999Y-118229999D01*
D29*
G04 #@! TO.N,Net-(GPS1-Pad1)*
X180848000Y-101854000D02*
X183388000Y-104394000D01*
X183388000Y-110490000D02*
X182626000Y-111252000D01*
X183388000Y-104394000D02*
X183388000Y-110490000D01*
X180848000Y-100384000D02*
X180848000Y-101854000D01*
X178000000Y-97536000D02*
X180848000Y-100384000D01*
G04 #@! TO.N,Net-(J1-Pad22)*
X165354000Y-123952000D02*
X169926000Y-119380000D01*
X165354000Y-125222000D02*
X165354000Y-123952000D01*
G04 #@! TO.N,Net-(J1-Pad12)*
X187922001Y-123660001D02*
X188722000Y-124460000D01*
X184942001Y-120680001D02*
X187922001Y-123660001D01*
X183926001Y-120680001D02*
X184942001Y-120680001D01*
X182626000Y-119380000D02*
X183926001Y-120680001D01*
G04 #@! TO.N,Net-(J1-Pad17)*
X202668000Y-110657472D02*
X202668000Y-111506000D01*
X184088010Y-104840010D02*
X184404000Y-105156000D01*
X197166528Y-105156000D02*
X202668000Y-110657472D01*
X184088010Y-104104048D02*
X184088010Y-104840010D01*
X181548010Y-101564048D02*
X184088010Y-104104048D01*
X184404000Y-105156000D02*
X197166528Y-105156000D01*
X175006000Y-116840000D02*
X175855999Y-115990001D01*
X175855999Y-96178001D02*
X177800000Y-94234000D01*
X177800000Y-94234000D02*
X179578000Y-94234000D01*
X179578000Y-94234000D02*
X181548010Y-96204010D01*
X175855999Y-115990001D02*
X175855999Y-96178001D01*
X181548010Y-96204010D02*
X181548010Y-101564048D01*
G04 #@! TO.N,Net-(D4-Pad1)*
X198895006Y-115810994D02*
X195326000Y-119380000D01*
X207518938Y-115810994D02*
X198895006Y-115810994D01*
X163578999Y-125986998D02*
X162814000Y-125221999D01*
X165334002Y-127742001D02*
X163578999Y-125986998D01*
X187290001Y-127742001D02*
X165334002Y-127742001D01*
X192786000Y-122246002D02*
X187290001Y-127742001D01*
X192786000Y-119380000D02*
X192786000Y-122246002D01*
D30*
X196528081Y-119380000D02*
X195326000Y-119380000D01*
X197684001Y-118224080D02*
X196528081Y-119380000D01*
X197684001Y-107808001D02*
X197684001Y-118224080D01*
X197318000Y-107442000D02*
X197684001Y-107808001D01*
X194818000Y-107442000D02*
X197318000Y-107442000D01*
X196175999Y-120229999D02*
X195326000Y-119380000D01*
X211494001Y-120229999D02*
X196175999Y-120229999D01*
X217170000Y-114554000D02*
X211494001Y-120229999D01*
X219202000Y-114554000D02*
X217170000Y-114554000D01*
X223012000Y-94996000D02*
X223012000Y-110744000D01*
X223012000Y-110744000D02*
X219202000Y-114554000D01*
G04 #@! TD*
D31*
G04 #@! TO.N,GND*
G36*
X230265000Y-114606781D02*
X194808053Y-135290000D01*
X135710000Y-135290000D01*
X135710000Y-133064561D01*
X166459000Y-133064561D01*
X166459000Y-133635439D01*
X166677466Y-134162862D01*
X167081138Y-134566534D01*
X167608561Y-134785000D01*
X168179439Y-134785000D01*
X168706862Y-134566534D01*
X169110534Y-134162862D01*
X169329000Y-133635439D01*
X169329000Y-133350000D01*
X176590887Y-133350000D01*
X176702260Y-133909909D01*
X177019423Y-134384577D01*
X177494091Y-134701740D01*
X177912667Y-134785000D01*
X178195333Y-134785000D01*
X178613909Y-134701740D01*
X179088577Y-134384577D01*
X179405740Y-133909909D01*
X179517113Y-133350000D01*
X179460336Y-133064561D01*
X180175000Y-133064561D01*
X180175000Y-133635439D01*
X180393466Y-134162862D01*
X180797138Y-134566534D01*
X181324561Y-134785000D01*
X181895439Y-134785000D01*
X182422862Y-134566534D01*
X182826534Y-134162862D01*
X183018655Y-133699039D01*
X190378096Y-133699039D01*
X190538959Y-134087423D01*
X190914866Y-134502389D01*
X191420959Y-134741914D01*
X191643000Y-134620629D01*
X191643000Y-133477000D01*
X191897000Y-133477000D01*
X191897000Y-134620629D01*
X192119041Y-134741914D01*
X192625134Y-134502389D01*
X193001041Y-134087423D01*
X193161904Y-133699039D01*
X193039915Y-133477000D01*
X191897000Y-133477000D01*
X191643000Y-133477000D01*
X190500085Y-133477000D01*
X190378096Y-133699039D01*
X183018655Y-133699039D01*
X183045000Y-133635439D01*
X183045000Y-133064561D01*
X183018656Y-133000961D01*
X190378096Y-133000961D01*
X190500085Y-133223000D01*
X191643000Y-133223000D01*
X191643000Y-132079371D01*
X191897000Y-132079371D01*
X191897000Y-133223000D01*
X193039915Y-133223000D01*
X193161904Y-133000961D01*
X193019290Y-132656635D01*
X196114182Y-132656635D01*
X196128392Y-132909579D01*
X196470624Y-133153703D01*
X197009309Y-133306413D01*
X197565429Y-133241354D01*
X197689460Y-133020834D01*
X197083429Y-132050982D01*
X196114182Y-132656635D01*
X193019290Y-132656635D01*
X193001041Y-132612577D01*
X192625134Y-132197611D01*
X192119041Y-131958086D01*
X191897000Y-132079371D01*
X191643000Y-132079371D01*
X191420959Y-131958086D01*
X190914866Y-132197611D01*
X190538959Y-132612577D01*
X190378096Y-133000961D01*
X183018656Y-133000961D01*
X182826534Y-132537138D01*
X182422862Y-132133466D01*
X181895439Y-131915000D01*
X181324561Y-131915000D01*
X180797138Y-132133466D01*
X180393466Y-132537138D01*
X180175000Y-133064561D01*
X179460336Y-133064561D01*
X179405740Y-132790091D01*
X179088577Y-132315423D01*
X178613909Y-131998260D01*
X178195333Y-131915000D01*
X177912667Y-131915000D01*
X177494091Y-131998260D01*
X177019423Y-132315423D01*
X176702260Y-132790091D01*
X176590887Y-133350000D01*
X169329000Y-133350000D01*
X169329000Y-133064561D01*
X169110534Y-132537138D01*
X168706862Y-132133466D01*
X168179439Y-131915000D01*
X167608561Y-131915000D01*
X167081138Y-132133466D01*
X166677466Y-132537138D01*
X166459000Y-133064561D01*
X135710000Y-133064561D01*
X135710000Y-131902962D01*
X195689074Y-131902962D01*
X195758467Y-132317575D01*
X195979582Y-132441230D01*
X196819515Y-131916382D01*
X197298833Y-131916382D01*
X197904864Y-132886235D01*
X198157437Y-132871426D01*
X198459699Y-132400109D01*
X198558588Y-131848998D01*
X198489195Y-131434385D01*
X198268080Y-131310730D01*
X197298833Y-131916382D01*
X196819515Y-131916382D01*
X196948829Y-131835578D01*
X196342798Y-130865725D01*
X196090225Y-130880534D01*
X195787963Y-131351851D01*
X195689074Y-131902962D01*
X135710000Y-131902962D01*
X135710000Y-130731126D01*
X196558202Y-130731126D01*
X197164233Y-131700978D01*
X198133480Y-131095325D01*
X198119270Y-130842381D01*
X197777038Y-130598257D01*
X197238353Y-130445547D01*
X196682233Y-130510606D01*
X196558202Y-130731126D01*
X135710000Y-130731126D01*
X135710000Y-119380000D01*
X145551908Y-119380000D01*
X145667161Y-119959418D01*
X145995375Y-120450625D01*
X146486582Y-120778839D01*
X146919744Y-120865000D01*
X147212256Y-120865000D01*
X147645418Y-120778839D01*
X148136625Y-120450625D01*
X148336000Y-120152239D01*
X148535375Y-120450625D01*
X149026582Y-120778839D01*
X149459744Y-120865000D01*
X149752256Y-120865000D01*
X150185418Y-120778839D01*
X150676625Y-120450625D01*
X150876000Y-120152239D01*
X151075375Y-120450625D01*
X151566582Y-120778839D01*
X151999744Y-120865000D01*
X152292256Y-120865000D01*
X152725418Y-120778839D01*
X153216625Y-120450625D01*
X153429843Y-120131522D01*
X153490817Y-120261358D01*
X153919076Y-120651645D01*
X154329110Y-120821476D01*
X154559000Y-120700155D01*
X154559000Y-119507000D01*
X154539000Y-119507000D01*
X154539000Y-119253000D01*
X154559000Y-119253000D01*
X154559000Y-119233000D01*
X154813000Y-119233000D01*
X154813000Y-119253000D01*
X154833000Y-119253000D01*
X154833000Y-119507000D01*
X154813000Y-119507000D01*
X154813000Y-120700155D01*
X155042890Y-120821476D01*
X155452924Y-120651645D01*
X155881183Y-120261358D01*
X155942157Y-120131522D01*
X156155375Y-120450625D01*
X156646582Y-120778839D01*
X157079744Y-120865000D01*
X157372256Y-120865000D01*
X157805418Y-120778839D01*
X158296625Y-120450625D01*
X158509843Y-120131522D01*
X158570817Y-120261358D01*
X158999076Y-120651645D01*
X159409110Y-120821476D01*
X159639000Y-120700155D01*
X159639000Y-119507000D01*
X159619000Y-119507000D01*
X159619000Y-119253000D01*
X159639000Y-119253000D01*
X159639000Y-119233000D01*
X159893000Y-119233000D01*
X159893000Y-119253000D01*
X159913000Y-119253000D01*
X159913000Y-119507000D01*
X159893000Y-119507000D01*
X159893000Y-120700155D01*
X160122890Y-120821476D01*
X160532924Y-120651645D01*
X160961183Y-120261358D01*
X161022157Y-120131522D01*
X161235375Y-120450625D01*
X161726582Y-120778839D01*
X162159744Y-120865000D01*
X162452256Y-120865000D01*
X162885418Y-120778839D01*
X163376625Y-120450625D01*
X163576000Y-120152239D01*
X163775375Y-120450625D01*
X164266582Y-120778839D01*
X164699744Y-120865000D01*
X164992256Y-120865000D01*
X165425418Y-120778839D01*
X165916625Y-120450625D01*
X166116000Y-120152239D01*
X166315375Y-120450625D01*
X166806582Y-120778839D01*
X167197770Y-120856651D01*
X164789845Y-123264577D01*
X164715952Y-123313951D01*
X164666578Y-123387844D01*
X164666576Y-123387846D01*
X164520348Y-123606691D01*
X164451663Y-123952000D01*
X164469001Y-124039165D01*
X164469001Y-124127099D01*
X164167137Y-124428963D01*
X164084000Y-124629674D01*
X164000863Y-124428962D01*
X163607037Y-124035136D01*
X163092477Y-123821999D01*
X162535523Y-123821999D01*
X162020963Y-124035136D01*
X161627137Y-124428962D01*
X161414000Y-124943522D01*
X161414000Y-125500476D01*
X161627137Y-126015036D01*
X162020963Y-126408862D01*
X162535523Y-126621999D01*
X162962421Y-126621999D01*
X163014844Y-126674422D01*
X163014847Y-126674424D01*
X164646579Y-128306157D01*
X164695953Y-128380050D01*
X164769846Y-128429424D01*
X164769847Y-128429425D01*
X164825588Y-128466670D01*
X164988692Y-128575653D01*
X165246837Y-128627001D01*
X165246842Y-128627001D01*
X165334001Y-128644338D01*
X165421161Y-128627001D01*
X187202840Y-128627001D01*
X187290001Y-128644338D01*
X187377162Y-128627001D01*
X187377166Y-128627001D01*
X187635311Y-128575653D01*
X187928050Y-128380050D01*
X187977426Y-128306154D01*
X190077019Y-126206561D01*
X204305000Y-126206561D01*
X204305000Y-126777439D01*
X204523466Y-127304862D01*
X204927138Y-127708534D01*
X205454561Y-127927000D01*
X206025439Y-127927000D01*
X206552862Y-127708534D01*
X206956534Y-127304862D01*
X207175000Y-126777439D01*
X207175000Y-126206561D01*
X206956534Y-125679138D01*
X206552862Y-125275466D01*
X206025439Y-125057000D01*
X205454561Y-125057000D01*
X204927138Y-125275466D01*
X204523466Y-125679138D01*
X204305000Y-126206561D01*
X190077019Y-126206561D01*
X191823580Y-124460000D01*
X194878887Y-124460000D01*
X194990260Y-125019909D01*
X195307423Y-125494577D01*
X195782091Y-125811740D01*
X196200667Y-125895000D01*
X196483333Y-125895000D01*
X196901909Y-125811740D01*
X197376577Y-125494577D01*
X197693740Y-125019909D01*
X197694123Y-125017980D01*
X206836718Y-125017980D01*
X206948091Y-125577889D01*
X207265254Y-126052557D01*
X207739922Y-126369720D01*
X208158498Y-126452980D01*
X208441164Y-126452980D01*
X208859740Y-126369720D01*
X209334408Y-126052557D01*
X209651571Y-125577889D01*
X209762944Y-125017980D01*
X209651571Y-124458071D01*
X209334408Y-123983403D01*
X208859740Y-123666240D01*
X208441164Y-123582980D01*
X208158498Y-123582980D01*
X207739922Y-123666240D01*
X207265254Y-123983403D01*
X206948091Y-124458071D01*
X206836718Y-125017980D01*
X197694123Y-125017980D01*
X197805113Y-124460000D01*
X197693740Y-123900091D01*
X197376577Y-123425423D01*
X196901909Y-123108260D01*
X196483333Y-123025000D01*
X196200667Y-123025000D01*
X195782091Y-123108260D01*
X195307423Y-123425423D01*
X194990260Y-123900091D01*
X194878887Y-124460000D01*
X191823580Y-124460000D01*
X193350156Y-122933425D01*
X193424049Y-122884051D01*
X193619652Y-122591312D01*
X193671000Y-122333167D01*
X193671000Y-122333163D01*
X193688337Y-122246003D01*
X193671000Y-122158843D01*
X193671000Y-120574656D01*
X193856625Y-120450625D01*
X194056000Y-120152239D01*
X194255375Y-120450625D01*
X194746582Y-120778839D01*
X194771014Y-120783699D01*
X195100199Y-121112884D01*
X195177470Y-121228528D01*
X195635599Y-121534640D01*
X196039592Y-121614999D01*
X196175998Y-121642132D01*
X196312404Y-121614999D01*
X211357594Y-121614999D01*
X211494001Y-121642132D01*
X211630408Y-121614999D01*
X212034401Y-121534640D01*
X212492530Y-121228528D01*
X212569800Y-121112885D01*
X214334124Y-119348561D01*
X215481000Y-119348561D01*
X215481000Y-119919439D01*
X215699466Y-120446862D01*
X216103138Y-120850534D01*
X216630561Y-121069000D01*
X217201439Y-121069000D01*
X217728862Y-120850534D01*
X218132534Y-120446862D01*
X218351000Y-119919439D01*
X218351000Y-119348561D01*
X218132534Y-118821138D01*
X217728862Y-118417466D01*
X217201439Y-118199000D01*
X216630561Y-118199000D01*
X216103138Y-118417466D01*
X215699466Y-118821138D01*
X215481000Y-119348561D01*
X214334124Y-119348561D01*
X217743686Y-115939000D01*
X219065593Y-115939000D01*
X219202000Y-115966133D01*
X219338407Y-115939000D01*
X219742400Y-115858641D01*
X220200529Y-115552529D01*
X220277799Y-115436886D01*
X223894888Y-111819798D01*
X224010529Y-111742529D01*
X224316641Y-111284400D01*
X224397000Y-110880407D01*
X224424133Y-110744000D01*
X224397000Y-110607593D01*
X224397000Y-104393817D01*
X224428493Y-104425310D01*
X224992670Y-104659000D01*
X225603330Y-104659000D01*
X226167507Y-104425310D01*
X226343861Y-104248956D01*
X226399673Y-104383699D01*
X226578302Y-104562327D01*
X226811691Y-104659000D01*
X227552250Y-104659000D01*
X227711000Y-104500250D01*
X227711000Y-103251000D01*
X227965000Y-103251000D01*
X227965000Y-104500250D01*
X228123750Y-104659000D01*
X228864309Y-104659000D01*
X229097698Y-104562327D01*
X229276327Y-104383699D01*
X229373000Y-104150310D01*
X229373000Y-103409750D01*
X229214250Y-103251000D01*
X227965000Y-103251000D01*
X227711000Y-103251000D01*
X227691000Y-103251000D01*
X227691000Y-102997000D01*
X227711000Y-102997000D01*
X227711000Y-101747750D01*
X227965000Y-101747750D01*
X227965000Y-102997000D01*
X229214250Y-102997000D01*
X229373000Y-102838250D01*
X229373000Y-102097690D01*
X229276327Y-101864301D01*
X229097698Y-101685673D01*
X228864309Y-101589000D01*
X228123750Y-101589000D01*
X227965000Y-101747750D01*
X227711000Y-101747750D01*
X227552250Y-101589000D01*
X226811691Y-101589000D01*
X226578302Y-101685673D01*
X226399673Y-101864301D01*
X226343861Y-101999044D01*
X226167507Y-101822690D01*
X225603330Y-101589000D01*
X224992670Y-101589000D01*
X224428493Y-101822690D01*
X224397000Y-101854183D01*
X224397000Y-97143440D01*
X224512000Y-97143440D01*
X224759765Y-97094157D01*
X224969809Y-96953809D01*
X225110157Y-96743765D01*
X225159440Y-96496000D01*
X225159440Y-94571322D01*
X225957000Y-94571322D01*
X225957000Y-95420678D01*
X226282034Y-96205380D01*
X226882620Y-96805966D01*
X227667322Y-97131000D01*
X228516678Y-97131000D01*
X229301380Y-96805966D01*
X229901966Y-96205380D01*
X230227000Y-95420678D01*
X230227000Y-94571322D01*
X229901966Y-93786620D01*
X229301380Y-93186034D01*
X228516678Y-92861000D01*
X227667322Y-92861000D01*
X226882620Y-93186034D01*
X226282034Y-93786620D01*
X225957000Y-94571322D01*
X225159440Y-94571322D01*
X225159440Y-93496000D01*
X225110157Y-93248235D01*
X224969809Y-93038191D01*
X224759765Y-92897843D01*
X224512000Y-92848560D01*
X221512000Y-92848560D01*
X221264235Y-92897843D01*
X221054191Y-93038191D01*
X220913843Y-93248235D01*
X220864560Y-93496000D01*
X220864560Y-96496000D01*
X220913843Y-96743765D01*
X221054191Y-96953809D01*
X221264235Y-97094157D01*
X221512000Y-97143440D01*
X221627000Y-97143440D01*
X221627001Y-105898975D01*
X221477698Y-105749673D01*
X221244309Y-105653000D01*
X220503750Y-105653000D01*
X220345000Y-105811750D01*
X220345000Y-107061000D01*
X220365000Y-107061000D01*
X220365000Y-107315000D01*
X220345000Y-107315000D01*
X220345000Y-108564250D01*
X220503750Y-108723000D01*
X221244309Y-108723000D01*
X221477698Y-108626327D01*
X221627001Y-108477025D01*
X221627001Y-110170313D01*
X218628315Y-113169000D01*
X217306407Y-113169000D01*
X217170000Y-113141867D01*
X217033593Y-113169000D01*
X216629600Y-113249359D01*
X216171471Y-113555471D01*
X216094202Y-113671112D01*
X210920316Y-118844999D01*
X198934841Y-118844999D01*
X198988642Y-118764480D01*
X199069001Y-118360487D01*
X199096134Y-118224080D01*
X199069001Y-118087673D01*
X199069001Y-116888578D01*
X199261585Y-116695994D01*
X206424038Y-116695994D01*
X206725901Y-116997857D01*
X207240461Y-117210994D01*
X207797415Y-117210994D01*
X208311975Y-116997857D01*
X208705801Y-116604031D01*
X208918938Y-116089471D01*
X208918938Y-115668013D01*
X209394502Y-115864997D01*
X209951456Y-115864997D01*
X210466016Y-115651860D01*
X210859842Y-115258034D01*
X211072979Y-114743474D01*
X211072979Y-114322018D01*
X211548544Y-114519003D01*
X212105498Y-114519003D01*
X212620058Y-114305866D01*
X213013884Y-113912040D01*
X213227021Y-113397480D01*
X213227021Y-112969713D01*
X213330706Y-113043671D01*
X213373239Y-113031527D01*
X213820850Y-113031527D01*
X214008575Y-113200169D01*
X214552633Y-113081004D01*
X215009674Y-112762708D01*
X215251727Y-112423362D01*
X215182445Y-112180708D01*
X214076238Y-111925320D01*
X213820850Y-113031527D01*
X213373239Y-113031527D01*
X213573360Y-112974389D01*
X213757685Y-112175991D01*
X213966921Y-111966755D01*
X213787313Y-111787147D01*
X213729249Y-111845211D01*
X213004243Y-111677830D01*
X214133376Y-111677830D01*
X215239583Y-111933218D01*
X215408225Y-111745493D01*
X215289060Y-111201435D01*
X214970764Y-110744394D01*
X214631418Y-110502341D01*
X214388764Y-110571623D01*
X214133376Y-111677830D01*
X213004243Y-111677830D01*
X212722541Y-111612794D01*
X212553899Y-111800519D01*
X212579003Y-111915135D01*
X212105498Y-111719003D01*
X211548544Y-111719003D01*
X211033984Y-111932140D01*
X210640158Y-112325966D01*
X210427021Y-112840526D01*
X210427021Y-113261982D01*
X209951456Y-113064997D01*
X209394502Y-113064997D01*
X208879942Y-113278134D01*
X208486116Y-113671960D01*
X208272979Y-114186520D01*
X208272979Y-114607978D01*
X207797415Y-114410994D01*
X207240461Y-114410994D01*
X206725901Y-114624131D01*
X206424038Y-114925994D01*
X199069001Y-114925994D01*
X199069001Y-108310051D01*
X201017509Y-110258560D01*
X200568000Y-110258560D01*
X200320235Y-110307843D01*
X200110191Y-110448191D01*
X199969843Y-110658235D01*
X199920560Y-110906000D01*
X199920560Y-112106000D01*
X199969843Y-112353765D01*
X200110191Y-112563809D01*
X200320235Y-112704157D01*
X200568000Y-112753440D01*
X201768000Y-112753440D01*
X202015765Y-112704157D01*
X202137317Y-112622938D01*
X202422343Y-112741000D01*
X202913657Y-112741000D01*
X203367571Y-112552982D01*
X203714982Y-112205571D01*
X203903000Y-111751657D01*
X203903000Y-111260343D01*
X203845966Y-111122650D01*
X212710397Y-111122650D01*
X212779679Y-111365304D01*
X213885886Y-111620692D01*
X214141274Y-110514485D01*
X213953549Y-110345843D01*
X213409491Y-110465008D01*
X212952450Y-110783304D01*
X212710397Y-111122650D01*
X203845966Y-111122650D01*
X203714982Y-110806429D01*
X203569621Y-110661068D01*
X203570337Y-110657471D01*
X203553000Y-110570311D01*
X203553000Y-110570307D01*
X203501652Y-110312162D01*
X203306049Y-110019423D01*
X203232156Y-109970049D01*
X201084541Y-107822434D01*
X203387876Y-107822434D01*
X203584598Y-108297385D01*
X204018006Y-108765505D01*
X204597565Y-109032133D01*
X204851000Y-108913319D01*
X204851000Y-107569000D01*
X205105000Y-107569000D01*
X205105000Y-108913319D01*
X205358435Y-109032133D01*
X205937994Y-108765505D01*
X206371402Y-108297385D01*
X206568124Y-107822434D01*
X206448777Y-107569000D01*
X205105000Y-107569000D01*
X204851000Y-107569000D01*
X203507223Y-107569000D01*
X203387876Y-107822434D01*
X201084541Y-107822434D01*
X200323673Y-107061566D01*
X203387876Y-107061566D01*
X203507223Y-107315000D01*
X204851000Y-107315000D01*
X204851000Y-105970681D01*
X205105000Y-105970681D01*
X205105000Y-107315000D01*
X206448777Y-107315000D01*
X206568124Y-107061566D01*
X206371402Y-106586615D01*
X205940008Y-106120670D01*
X208777000Y-106120670D01*
X208777000Y-106731330D01*
X209010690Y-107295507D01*
X209442493Y-107727310D01*
X210006670Y-107961000D01*
X210617330Y-107961000D01*
X211181507Y-107727310D01*
X211357861Y-107550956D01*
X211413673Y-107685699D01*
X211592302Y-107864327D01*
X211825691Y-107961000D01*
X212566250Y-107961000D01*
X212725000Y-107802250D01*
X212725000Y-106553000D01*
X212979000Y-106553000D01*
X212979000Y-107802250D01*
X213137750Y-107961000D01*
X213878309Y-107961000D01*
X214111698Y-107864327D01*
X214290327Y-107685699D01*
X214387000Y-107452310D01*
X214387000Y-106882670D01*
X216143000Y-106882670D01*
X216143000Y-107493330D01*
X216376690Y-108057507D01*
X216808493Y-108489310D01*
X217372670Y-108723000D01*
X217983330Y-108723000D01*
X218547507Y-108489310D01*
X218723861Y-108312956D01*
X218779673Y-108447699D01*
X218958302Y-108626327D01*
X219191691Y-108723000D01*
X219932250Y-108723000D01*
X220091000Y-108564250D01*
X220091000Y-107315000D01*
X220071000Y-107315000D01*
X220071000Y-107061000D01*
X220091000Y-107061000D01*
X220091000Y-105811750D01*
X219932250Y-105653000D01*
X219191691Y-105653000D01*
X218958302Y-105749673D01*
X218779673Y-105928301D01*
X218723861Y-106063044D01*
X218547507Y-105886690D01*
X217983330Y-105653000D01*
X217372670Y-105653000D01*
X216808493Y-105886690D01*
X216376690Y-106318493D01*
X216143000Y-106882670D01*
X214387000Y-106882670D01*
X214387000Y-106711750D01*
X214228250Y-106553000D01*
X212979000Y-106553000D01*
X212725000Y-106553000D01*
X212705000Y-106553000D01*
X212705000Y-106299000D01*
X212725000Y-106299000D01*
X212725000Y-105049750D01*
X212979000Y-105049750D01*
X212979000Y-106299000D01*
X214228250Y-106299000D01*
X214387000Y-106140250D01*
X214387000Y-105399690D01*
X214290327Y-105166301D01*
X214111698Y-104987673D01*
X213878309Y-104891000D01*
X213137750Y-104891000D01*
X212979000Y-105049750D01*
X212725000Y-105049750D01*
X212566250Y-104891000D01*
X211825691Y-104891000D01*
X211592302Y-104987673D01*
X211413673Y-105166301D01*
X211357861Y-105301044D01*
X211181507Y-105124690D01*
X210617330Y-104891000D01*
X210006670Y-104891000D01*
X209442493Y-105124690D01*
X209010690Y-105556493D01*
X208777000Y-106120670D01*
X205940008Y-106120670D01*
X205937994Y-106118495D01*
X205358435Y-105851867D01*
X205105000Y-105970681D01*
X204851000Y-105970681D01*
X204597565Y-105851867D01*
X204018006Y-106118495D01*
X203584598Y-106586615D01*
X203387876Y-107061566D01*
X200323673Y-107061566D01*
X197853952Y-104591846D01*
X197804577Y-104517951D01*
X197511838Y-104322348D01*
X197253693Y-104271000D01*
X197253689Y-104271000D01*
X197166528Y-104253663D01*
X197079367Y-104271000D01*
X187173996Y-104271000D01*
X187514136Y-103761945D01*
X187641031Y-103124000D01*
X187514136Y-102486055D01*
X187152769Y-101945231D01*
X186986371Y-101834048D01*
X187219922Y-101650317D01*
X187533144Y-101092355D01*
X187564124Y-100964434D01*
X187444777Y-100711000D01*
X185801000Y-100711000D01*
X185801000Y-100731000D01*
X185547000Y-100731000D01*
X185547000Y-100711000D01*
X183903223Y-100711000D01*
X183783876Y-100964434D01*
X183814856Y-101092355D01*
X184128078Y-101650317D01*
X184361629Y-101834048D01*
X184195231Y-101945231D01*
X183833864Y-102486055D01*
X183815237Y-102579697D01*
X182433010Y-101197470D01*
X182433010Y-96291171D01*
X182450347Y-96204010D01*
X182433010Y-96116849D01*
X182433010Y-96116845D01*
X182381662Y-95858700D01*
X182186059Y-95565961D01*
X182112166Y-95516587D01*
X180265425Y-93669847D01*
X180216049Y-93595951D01*
X179923310Y-93400348D01*
X179665165Y-93349000D01*
X179665161Y-93349000D01*
X179578000Y-93331663D01*
X179490839Y-93349000D01*
X177887161Y-93349000D01*
X177800000Y-93331663D01*
X177712839Y-93349000D01*
X177712835Y-93349000D01*
X177454690Y-93400348D01*
X177235845Y-93546576D01*
X177235844Y-93546577D01*
X177161951Y-93595951D01*
X177112577Y-93669844D01*
X175291844Y-95490578D01*
X175217951Y-95539952D01*
X175168577Y-95613845D01*
X175168575Y-95613847D01*
X175022347Y-95832692D01*
X174953662Y-96178001D01*
X174971000Y-96265167D01*
X174970999Y-115355000D01*
X174859744Y-115355000D01*
X174426582Y-115441161D01*
X173935375Y-115769375D01*
X173736000Y-116067761D01*
X173536625Y-115769375D01*
X173045418Y-115441161D01*
X172612256Y-115355000D01*
X172319744Y-115355000D01*
X171886582Y-115441161D01*
X171395375Y-115769375D01*
X171196000Y-116067761D01*
X170996625Y-115769375D01*
X170505418Y-115441161D01*
X170072256Y-115355000D01*
X169779744Y-115355000D01*
X169346582Y-115441161D01*
X168855375Y-115769375D01*
X168656000Y-116067761D01*
X168456625Y-115769375D01*
X167965418Y-115441161D01*
X167532256Y-115355000D01*
X167239744Y-115355000D01*
X166806582Y-115441161D01*
X166315375Y-115769375D01*
X166102157Y-116088478D01*
X166041183Y-115958642D01*
X165612924Y-115568355D01*
X165202890Y-115398524D01*
X164973000Y-115519845D01*
X164973000Y-116713000D01*
X164993000Y-116713000D01*
X164993000Y-116967000D01*
X164973000Y-116967000D01*
X164973000Y-116987000D01*
X164719000Y-116987000D01*
X164719000Y-116967000D01*
X164699000Y-116967000D01*
X164699000Y-116713000D01*
X164719000Y-116713000D01*
X164719000Y-115519845D01*
X164489110Y-115398524D01*
X164079076Y-115568355D01*
X163650817Y-115958642D01*
X163589843Y-116088478D01*
X163376625Y-115769375D01*
X162885418Y-115441161D01*
X162452256Y-115355000D01*
X162159744Y-115355000D01*
X161726582Y-115441161D01*
X161235375Y-115769375D01*
X161036000Y-116067761D01*
X160836625Y-115769375D01*
X160345418Y-115441161D01*
X159912256Y-115355000D01*
X159619744Y-115355000D01*
X159186582Y-115441161D01*
X158695375Y-115769375D01*
X158496000Y-116067761D01*
X158296625Y-115769375D01*
X157805418Y-115441161D01*
X157372256Y-115355000D01*
X157079744Y-115355000D01*
X156646582Y-115441161D01*
X156155375Y-115769375D01*
X155956000Y-116067761D01*
X155756625Y-115769375D01*
X155265418Y-115441161D01*
X154832256Y-115355000D01*
X154539744Y-115355000D01*
X154106582Y-115441161D01*
X153615375Y-115769375D01*
X153416000Y-116067761D01*
X153216625Y-115769375D01*
X152725418Y-115441161D01*
X152292256Y-115355000D01*
X151999744Y-115355000D01*
X151566582Y-115441161D01*
X151075375Y-115769375D01*
X150876000Y-116067761D01*
X150676625Y-115769375D01*
X150185418Y-115441161D01*
X149752256Y-115355000D01*
X149459744Y-115355000D01*
X149026582Y-115441161D01*
X148535375Y-115769375D01*
X148322157Y-116088478D01*
X148261183Y-115958642D01*
X147832924Y-115568355D01*
X147422890Y-115398524D01*
X147193000Y-115519845D01*
X147193000Y-116713000D01*
X147213000Y-116713000D01*
X147213000Y-116967000D01*
X147193000Y-116967000D01*
X147193000Y-116987000D01*
X146939000Y-116987000D01*
X146939000Y-116967000D01*
X145745181Y-116967000D01*
X145624514Y-117196892D01*
X145870817Y-117721358D01*
X146295786Y-118108647D01*
X145995375Y-118309375D01*
X145667161Y-118800582D01*
X145551908Y-119380000D01*
X135710000Y-119380000D01*
X135710000Y-116483108D01*
X145624514Y-116483108D01*
X145745181Y-116713000D01*
X146939000Y-116713000D01*
X146939000Y-115519845D01*
X146709110Y-115398524D01*
X146299076Y-115568355D01*
X145870817Y-115958642D01*
X145624514Y-116483108D01*
X135710000Y-116483108D01*
X135710000Y-108966000D01*
X139963908Y-108966000D01*
X140079161Y-109545418D01*
X140407375Y-110036625D01*
X140425619Y-110048816D01*
X140380235Y-110057843D01*
X140170191Y-110198191D01*
X140029843Y-110408235D01*
X139980560Y-110656000D01*
X139980560Y-112356000D01*
X140029843Y-112603765D01*
X140170191Y-112813809D01*
X140380235Y-112954157D01*
X140628000Y-113003440D01*
X142328000Y-113003440D01*
X142575765Y-112954157D01*
X142785809Y-112813809D01*
X142926157Y-112603765D01*
X142975440Y-112356000D01*
X142975440Y-110656000D01*
X142926157Y-110408235D01*
X142785809Y-110198191D01*
X142575765Y-110057843D01*
X142530381Y-110048816D01*
X142548625Y-110036625D01*
X142876839Y-109545418D01*
X142992092Y-108966000D01*
X142876839Y-108386582D01*
X142548625Y-107895375D01*
X142057418Y-107567161D01*
X141624256Y-107481000D01*
X141331744Y-107481000D01*
X140898582Y-107567161D01*
X140407375Y-107895375D01*
X140079161Y-108386582D01*
X139963908Y-108966000D01*
X135710000Y-108966000D01*
X135710000Y-93540000D01*
X136485908Y-93540000D01*
X136601161Y-94119418D01*
X136929375Y-94610625D01*
X137227761Y-94810000D01*
X136929375Y-95009375D01*
X136601161Y-95500582D01*
X136485908Y-96080000D01*
X136601161Y-96659418D01*
X136929375Y-97150625D01*
X137227761Y-97350000D01*
X136929375Y-97549375D01*
X136601161Y-98040582D01*
X136485908Y-98620000D01*
X136601161Y-99199418D01*
X136929375Y-99690625D01*
X137227761Y-99890000D01*
X136929375Y-100089375D01*
X136601161Y-100580582D01*
X136485908Y-101160000D01*
X136601161Y-101739418D01*
X136929375Y-102230625D01*
X137420582Y-102558839D01*
X137853744Y-102645000D01*
X138146256Y-102645000D01*
X138579418Y-102558839D01*
X139070625Y-102230625D01*
X139398839Y-101739418D01*
X139514092Y-101160000D01*
X139398839Y-100580582D01*
X139070625Y-100089375D01*
X138772239Y-99890000D01*
X139070625Y-99690625D01*
X139398839Y-99199418D01*
X139514092Y-98620000D01*
X139398839Y-98040582D01*
X139070625Y-97549375D01*
X138772239Y-97350000D01*
X139070625Y-97150625D01*
X139398839Y-96659418D01*
X139514092Y-96080000D01*
X139398839Y-95500582D01*
X139070625Y-95009375D01*
X138772239Y-94810000D01*
X139070625Y-94610625D01*
X139398839Y-94119418D01*
X139514092Y-93540000D01*
X139399519Y-92964000D01*
X183706969Y-92964000D01*
X183833864Y-93601945D01*
X184195231Y-94142769D01*
X184331768Y-94234000D01*
X184195231Y-94325231D01*
X183833864Y-94866055D01*
X183706969Y-95504000D01*
X183833864Y-96141945D01*
X184195231Y-96682769D01*
X184331768Y-96774000D01*
X184195231Y-96865231D01*
X183833864Y-97406055D01*
X183706969Y-98044000D01*
X183833864Y-98681945D01*
X184195231Y-99222769D01*
X184361629Y-99333952D01*
X184128078Y-99517683D01*
X183814856Y-100075645D01*
X183783876Y-100203566D01*
X183903223Y-100457000D01*
X185547000Y-100457000D01*
X185547000Y-100437000D01*
X185801000Y-100437000D01*
X185801000Y-100457000D01*
X187444777Y-100457000D01*
X187564124Y-100203566D01*
X187533144Y-100075645D01*
X187219922Y-99517683D01*
X186986371Y-99333952D01*
X187152769Y-99222769D01*
X187514136Y-98681945D01*
X187641031Y-98044000D01*
X187514136Y-97406055D01*
X187152769Y-96865231D01*
X187016232Y-96774000D01*
X187152769Y-96682769D01*
X187514136Y-96141945D01*
X187641031Y-95504000D01*
X187514136Y-94866055D01*
X187152769Y-94325231D01*
X187016232Y-94234000D01*
X187152769Y-94142769D01*
X187514136Y-93601945D01*
X187535209Y-93496000D01*
X210704560Y-93496000D01*
X210704560Y-96496000D01*
X210753843Y-96743765D01*
X210894191Y-96953809D01*
X211104235Y-97094157D01*
X211352000Y-97143440D01*
X214352000Y-97143440D01*
X214599765Y-97094157D01*
X214809809Y-96953809D01*
X214950157Y-96743765D01*
X214999440Y-96496000D01*
X214999440Y-94571322D01*
X215797000Y-94571322D01*
X215797000Y-95420678D01*
X216122034Y-96205380D01*
X216722620Y-96805966D01*
X217507322Y-97131000D01*
X218356678Y-97131000D01*
X219141380Y-96805966D01*
X219741966Y-96205380D01*
X220067000Y-95420678D01*
X220067000Y-94571322D01*
X219741966Y-93786620D01*
X219141380Y-93186034D01*
X218356678Y-92861000D01*
X217507322Y-92861000D01*
X216722620Y-93186034D01*
X216122034Y-93786620D01*
X215797000Y-94571322D01*
X214999440Y-94571322D01*
X214999440Y-93496000D01*
X214950157Y-93248235D01*
X214809809Y-93038191D01*
X214599765Y-92897843D01*
X214352000Y-92848560D01*
X211352000Y-92848560D01*
X211104235Y-92897843D01*
X210894191Y-93038191D01*
X210753843Y-93248235D01*
X210704560Y-93496000D01*
X187535209Y-93496000D01*
X187641031Y-92964000D01*
X187514136Y-92326055D01*
X187283511Y-91980900D01*
X187431809Y-91881809D01*
X187572157Y-91671765D01*
X187621440Y-91424000D01*
X187621440Y-89424000D01*
X187572157Y-89176235D01*
X187431809Y-88966191D01*
X187221765Y-88825843D01*
X186974000Y-88776560D01*
X184374000Y-88776560D01*
X184126235Y-88825843D01*
X183916191Y-88966191D01*
X183775843Y-89176235D01*
X183726560Y-89424000D01*
X183726560Y-91424000D01*
X183775843Y-91671765D01*
X183916191Y-91881809D01*
X184064489Y-91980900D01*
X183833864Y-92326055D01*
X183706969Y-92964000D01*
X139399519Y-92964000D01*
X139398839Y-92960582D01*
X139070625Y-92469375D01*
X139052381Y-92457184D01*
X139097765Y-92448157D01*
X139307809Y-92307809D01*
X139448157Y-92097765D01*
X139497440Y-91850000D01*
X139497440Y-90150000D01*
X139448157Y-89902235D01*
X139307809Y-89692191D01*
X139097765Y-89551843D01*
X138850000Y-89502560D01*
X137150000Y-89502560D01*
X136902235Y-89551843D01*
X136692191Y-89692191D01*
X136551843Y-89902235D01*
X136502560Y-90150000D01*
X136502560Y-91850000D01*
X136551843Y-92097765D01*
X136692191Y-92307809D01*
X136902235Y-92448157D01*
X136947619Y-92457184D01*
X136929375Y-92469375D01*
X136601161Y-92960582D01*
X136485908Y-93540000D01*
X135710000Y-93540000D01*
X135710000Y-88735000D01*
X230265001Y-88735000D01*
X230265000Y-114606781D01*
X230265000Y-114606781D01*
G37*
X230265000Y-114606781D02*
X194808053Y-135290000D01*
X135710000Y-135290000D01*
X135710000Y-133064561D01*
X166459000Y-133064561D01*
X166459000Y-133635439D01*
X166677466Y-134162862D01*
X167081138Y-134566534D01*
X167608561Y-134785000D01*
X168179439Y-134785000D01*
X168706862Y-134566534D01*
X169110534Y-134162862D01*
X169329000Y-133635439D01*
X169329000Y-133350000D01*
X176590887Y-133350000D01*
X176702260Y-133909909D01*
X177019423Y-134384577D01*
X177494091Y-134701740D01*
X177912667Y-134785000D01*
X178195333Y-134785000D01*
X178613909Y-134701740D01*
X179088577Y-134384577D01*
X179405740Y-133909909D01*
X179517113Y-133350000D01*
X179460336Y-133064561D01*
X180175000Y-133064561D01*
X180175000Y-133635439D01*
X180393466Y-134162862D01*
X180797138Y-134566534D01*
X181324561Y-134785000D01*
X181895439Y-134785000D01*
X182422862Y-134566534D01*
X182826534Y-134162862D01*
X183018655Y-133699039D01*
X190378096Y-133699039D01*
X190538959Y-134087423D01*
X190914866Y-134502389D01*
X191420959Y-134741914D01*
X191643000Y-134620629D01*
X191643000Y-133477000D01*
X191897000Y-133477000D01*
X191897000Y-134620629D01*
X192119041Y-134741914D01*
X192625134Y-134502389D01*
X193001041Y-134087423D01*
X193161904Y-133699039D01*
X193039915Y-133477000D01*
X191897000Y-133477000D01*
X191643000Y-133477000D01*
X190500085Y-133477000D01*
X190378096Y-133699039D01*
X183018655Y-133699039D01*
X183045000Y-133635439D01*
X183045000Y-133064561D01*
X183018656Y-133000961D01*
X190378096Y-133000961D01*
X190500085Y-133223000D01*
X191643000Y-133223000D01*
X191643000Y-132079371D01*
X191897000Y-132079371D01*
X191897000Y-133223000D01*
X193039915Y-133223000D01*
X193161904Y-133000961D01*
X193019290Y-132656635D01*
X196114182Y-132656635D01*
X196128392Y-132909579D01*
X196470624Y-133153703D01*
X197009309Y-133306413D01*
X197565429Y-133241354D01*
X197689460Y-133020834D01*
X197083429Y-132050982D01*
X196114182Y-132656635D01*
X193019290Y-132656635D01*
X193001041Y-132612577D01*
X192625134Y-132197611D01*
X192119041Y-131958086D01*
X191897000Y-132079371D01*
X191643000Y-132079371D01*
X191420959Y-131958086D01*
X190914866Y-132197611D01*
X190538959Y-132612577D01*
X190378096Y-133000961D01*
X183018656Y-133000961D01*
X182826534Y-132537138D01*
X182422862Y-132133466D01*
X181895439Y-131915000D01*
X181324561Y-131915000D01*
X180797138Y-132133466D01*
X180393466Y-132537138D01*
X180175000Y-133064561D01*
X179460336Y-133064561D01*
X179405740Y-132790091D01*
X179088577Y-132315423D01*
X178613909Y-131998260D01*
X178195333Y-131915000D01*
X177912667Y-131915000D01*
X177494091Y-131998260D01*
X177019423Y-132315423D01*
X176702260Y-132790091D01*
X176590887Y-133350000D01*
X169329000Y-133350000D01*
X169329000Y-133064561D01*
X169110534Y-132537138D01*
X168706862Y-132133466D01*
X168179439Y-131915000D01*
X167608561Y-131915000D01*
X167081138Y-132133466D01*
X166677466Y-132537138D01*
X166459000Y-133064561D01*
X135710000Y-133064561D01*
X135710000Y-131902962D01*
X195689074Y-131902962D01*
X195758467Y-132317575D01*
X195979582Y-132441230D01*
X196819515Y-131916382D01*
X197298833Y-131916382D01*
X197904864Y-132886235D01*
X198157437Y-132871426D01*
X198459699Y-132400109D01*
X198558588Y-131848998D01*
X198489195Y-131434385D01*
X198268080Y-131310730D01*
X197298833Y-131916382D01*
X196819515Y-131916382D01*
X196948829Y-131835578D01*
X196342798Y-130865725D01*
X196090225Y-130880534D01*
X195787963Y-131351851D01*
X195689074Y-131902962D01*
X135710000Y-131902962D01*
X135710000Y-130731126D01*
X196558202Y-130731126D01*
X197164233Y-131700978D01*
X198133480Y-131095325D01*
X198119270Y-130842381D01*
X197777038Y-130598257D01*
X197238353Y-130445547D01*
X196682233Y-130510606D01*
X196558202Y-130731126D01*
X135710000Y-130731126D01*
X135710000Y-119380000D01*
X145551908Y-119380000D01*
X145667161Y-119959418D01*
X145995375Y-120450625D01*
X146486582Y-120778839D01*
X146919744Y-120865000D01*
X147212256Y-120865000D01*
X147645418Y-120778839D01*
X148136625Y-120450625D01*
X148336000Y-120152239D01*
X148535375Y-120450625D01*
X149026582Y-120778839D01*
X149459744Y-120865000D01*
X149752256Y-120865000D01*
X150185418Y-120778839D01*
X150676625Y-120450625D01*
X150876000Y-120152239D01*
X151075375Y-120450625D01*
X151566582Y-120778839D01*
X151999744Y-120865000D01*
X152292256Y-120865000D01*
X152725418Y-120778839D01*
X153216625Y-120450625D01*
X153429843Y-120131522D01*
X153490817Y-120261358D01*
X153919076Y-120651645D01*
X154329110Y-120821476D01*
X154559000Y-120700155D01*
X154559000Y-119507000D01*
X154539000Y-119507000D01*
X154539000Y-119253000D01*
X154559000Y-119253000D01*
X154559000Y-119233000D01*
X154813000Y-119233000D01*
X154813000Y-119253000D01*
X154833000Y-119253000D01*
X154833000Y-119507000D01*
X154813000Y-119507000D01*
X154813000Y-120700155D01*
X155042890Y-120821476D01*
X155452924Y-120651645D01*
X155881183Y-120261358D01*
X155942157Y-120131522D01*
X156155375Y-120450625D01*
X156646582Y-120778839D01*
X157079744Y-120865000D01*
X157372256Y-120865000D01*
X157805418Y-120778839D01*
X158296625Y-120450625D01*
X158509843Y-120131522D01*
X158570817Y-120261358D01*
X158999076Y-120651645D01*
X159409110Y-120821476D01*
X159639000Y-120700155D01*
X159639000Y-119507000D01*
X159619000Y-119507000D01*
X159619000Y-119253000D01*
X159639000Y-119253000D01*
X159639000Y-119233000D01*
X159893000Y-119233000D01*
X159893000Y-119253000D01*
X159913000Y-119253000D01*
X159913000Y-119507000D01*
X159893000Y-119507000D01*
X159893000Y-120700155D01*
X160122890Y-120821476D01*
X160532924Y-120651645D01*
X160961183Y-120261358D01*
X161022157Y-120131522D01*
X161235375Y-120450625D01*
X161726582Y-120778839D01*
X162159744Y-120865000D01*
X162452256Y-120865000D01*
X162885418Y-120778839D01*
X163376625Y-120450625D01*
X163576000Y-120152239D01*
X163775375Y-120450625D01*
X164266582Y-120778839D01*
X164699744Y-120865000D01*
X164992256Y-120865000D01*
X165425418Y-120778839D01*
X165916625Y-120450625D01*
X166116000Y-120152239D01*
X166315375Y-120450625D01*
X166806582Y-120778839D01*
X167197770Y-120856651D01*
X164789845Y-123264577D01*
X164715952Y-123313951D01*
X164666578Y-123387844D01*
X164666576Y-123387846D01*
X164520348Y-123606691D01*
X164451663Y-123952000D01*
X164469001Y-124039165D01*
X164469001Y-124127099D01*
X164167137Y-124428963D01*
X164084000Y-124629674D01*
X164000863Y-124428962D01*
X163607037Y-124035136D01*
X163092477Y-123821999D01*
X162535523Y-123821999D01*
X162020963Y-124035136D01*
X161627137Y-124428962D01*
X161414000Y-124943522D01*
X161414000Y-125500476D01*
X161627137Y-126015036D01*
X162020963Y-126408862D01*
X162535523Y-126621999D01*
X162962421Y-126621999D01*
X163014844Y-126674422D01*
X163014847Y-126674424D01*
X164646579Y-128306157D01*
X164695953Y-128380050D01*
X164769846Y-128429424D01*
X164769847Y-128429425D01*
X164825588Y-128466670D01*
X164988692Y-128575653D01*
X165246837Y-128627001D01*
X165246842Y-128627001D01*
X165334001Y-128644338D01*
X165421161Y-128627001D01*
X187202840Y-128627001D01*
X187290001Y-128644338D01*
X187377162Y-128627001D01*
X187377166Y-128627001D01*
X187635311Y-128575653D01*
X187928050Y-128380050D01*
X187977426Y-128306154D01*
X190077019Y-126206561D01*
X204305000Y-126206561D01*
X204305000Y-126777439D01*
X204523466Y-127304862D01*
X204927138Y-127708534D01*
X205454561Y-127927000D01*
X206025439Y-127927000D01*
X206552862Y-127708534D01*
X206956534Y-127304862D01*
X207175000Y-126777439D01*
X207175000Y-126206561D01*
X206956534Y-125679138D01*
X206552862Y-125275466D01*
X206025439Y-125057000D01*
X205454561Y-125057000D01*
X204927138Y-125275466D01*
X204523466Y-125679138D01*
X204305000Y-126206561D01*
X190077019Y-126206561D01*
X191823580Y-124460000D01*
X194878887Y-124460000D01*
X194990260Y-125019909D01*
X195307423Y-125494577D01*
X195782091Y-125811740D01*
X196200667Y-125895000D01*
X196483333Y-125895000D01*
X196901909Y-125811740D01*
X197376577Y-125494577D01*
X197693740Y-125019909D01*
X197694123Y-125017980D01*
X206836718Y-125017980D01*
X206948091Y-125577889D01*
X207265254Y-126052557D01*
X207739922Y-126369720D01*
X208158498Y-126452980D01*
X208441164Y-126452980D01*
X208859740Y-126369720D01*
X209334408Y-126052557D01*
X209651571Y-125577889D01*
X209762944Y-125017980D01*
X209651571Y-124458071D01*
X209334408Y-123983403D01*
X208859740Y-123666240D01*
X208441164Y-123582980D01*
X208158498Y-123582980D01*
X207739922Y-123666240D01*
X207265254Y-123983403D01*
X206948091Y-124458071D01*
X206836718Y-125017980D01*
X197694123Y-125017980D01*
X197805113Y-124460000D01*
X197693740Y-123900091D01*
X197376577Y-123425423D01*
X196901909Y-123108260D01*
X196483333Y-123025000D01*
X196200667Y-123025000D01*
X195782091Y-123108260D01*
X195307423Y-123425423D01*
X194990260Y-123900091D01*
X194878887Y-124460000D01*
X191823580Y-124460000D01*
X193350156Y-122933425D01*
X193424049Y-122884051D01*
X193619652Y-122591312D01*
X193671000Y-122333167D01*
X193671000Y-122333163D01*
X193688337Y-122246003D01*
X193671000Y-122158843D01*
X193671000Y-120574656D01*
X193856625Y-120450625D01*
X194056000Y-120152239D01*
X194255375Y-120450625D01*
X194746582Y-120778839D01*
X194771014Y-120783699D01*
X195100199Y-121112884D01*
X195177470Y-121228528D01*
X195635599Y-121534640D01*
X196039592Y-121614999D01*
X196175998Y-121642132D01*
X196312404Y-121614999D01*
X211357594Y-121614999D01*
X211494001Y-121642132D01*
X211630408Y-121614999D01*
X212034401Y-121534640D01*
X212492530Y-121228528D01*
X212569800Y-121112885D01*
X214334124Y-119348561D01*
X215481000Y-119348561D01*
X215481000Y-119919439D01*
X215699466Y-120446862D01*
X216103138Y-120850534D01*
X216630561Y-121069000D01*
X217201439Y-121069000D01*
X217728862Y-120850534D01*
X218132534Y-120446862D01*
X218351000Y-119919439D01*
X218351000Y-119348561D01*
X218132534Y-118821138D01*
X217728862Y-118417466D01*
X217201439Y-118199000D01*
X216630561Y-118199000D01*
X216103138Y-118417466D01*
X215699466Y-118821138D01*
X215481000Y-119348561D01*
X214334124Y-119348561D01*
X217743686Y-115939000D01*
X219065593Y-115939000D01*
X219202000Y-115966133D01*
X219338407Y-115939000D01*
X219742400Y-115858641D01*
X220200529Y-115552529D01*
X220277799Y-115436886D01*
X223894888Y-111819798D01*
X224010529Y-111742529D01*
X224316641Y-111284400D01*
X224397000Y-110880407D01*
X224424133Y-110744000D01*
X224397000Y-110607593D01*
X224397000Y-104393817D01*
X224428493Y-104425310D01*
X224992670Y-104659000D01*
X225603330Y-104659000D01*
X226167507Y-104425310D01*
X226343861Y-104248956D01*
X226399673Y-104383699D01*
X226578302Y-104562327D01*
X226811691Y-104659000D01*
X227552250Y-104659000D01*
X227711000Y-104500250D01*
X227711000Y-103251000D01*
X227965000Y-103251000D01*
X227965000Y-104500250D01*
X228123750Y-104659000D01*
X228864309Y-104659000D01*
X229097698Y-104562327D01*
X229276327Y-104383699D01*
X229373000Y-104150310D01*
X229373000Y-103409750D01*
X229214250Y-103251000D01*
X227965000Y-103251000D01*
X227711000Y-103251000D01*
X227691000Y-103251000D01*
X227691000Y-102997000D01*
X227711000Y-102997000D01*
X227711000Y-101747750D01*
X227965000Y-101747750D01*
X227965000Y-102997000D01*
X229214250Y-102997000D01*
X229373000Y-102838250D01*
X229373000Y-102097690D01*
X229276327Y-101864301D01*
X229097698Y-101685673D01*
X228864309Y-101589000D01*
X228123750Y-101589000D01*
X227965000Y-101747750D01*
X227711000Y-101747750D01*
X227552250Y-101589000D01*
X226811691Y-101589000D01*
X226578302Y-101685673D01*
X226399673Y-101864301D01*
X226343861Y-101999044D01*
X226167507Y-101822690D01*
X225603330Y-101589000D01*
X224992670Y-101589000D01*
X224428493Y-101822690D01*
X224397000Y-101854183D01*
X224397000Y-97143440D01*
X224512000Y-97143440D01*
X224759765Y-97094157D01*
X224969809Y-96953809D01*
X225110157Y-96743765D01*
X225159440Y-96496000D01*
X225159440Y-94571322D01*
X225957000Y-94571322D01*
X225957000Y-95420678D01*
X226282034Y-96205380D01*
X226882620Y-96805966D01*
X227667322Y-97131000D01*
X228516678Y-97131000D01*
X229301380Y-96805966D01*
X229901966Y-96205380D01*
X230227000Y-95420678D01*
X230227000Y-94571322D01*
X229901966Y-93786620D01*
X229301380Y-93186034D01*
X228516678Y-92861000D01*
X227667322Y-92861000D01*
X226882620Y-93186034D01*
X226282034Y-93786620D01*
X225957000Y-94571322D01*
X225159440Y-94571322D01*
X225159440Y-93496000D01*
X225110157Y-93248235D01*
X224969809Y-93038191D01*
X224759765Y-92897843D01*
X224512000Y-92848560D01*
X221512000Y-92848560D01*
X221264235Y-92897843D01*
X221054191Y-93038191D01*
X220913843Y-93248235D01*
X220864560Y-93496000D01*
X220864560Y-96496000D01*
X220913843Y-96743765D01*
X221054191Y-96953809D01*
X221264235Y-97094157D01*
X221512000Y-97143440D01*
X221627000Y-97143440D01*
X221627001Y-105898975D01*
X221477698Y-105749673D01*
X221244309Y-105653000D01*
X220503750Y-105653000D01*
X220345000Y-105811750D01*
X220345000Y-107061000D01*
X220365000Y-107061000D01*
X220365000Y-107315000D01*
X220345000Y-107315000D01*
X220345000Y-108564250D01*
X220503750Y-108723000D01*
X221244309Y-108723000D01*
X221477698Y-108626327D01*
X221627001Y-108477025D01*
X221627001Y-110170313D01*
X218628315Y-113169000D01*
X217306407Y-113169000D01*
X217170000Y-113141867D01*
X217033593Y-113169000D01*
X216629600Y-113249359D01*
X216171471Y-113555471D01*
X216094202Y-113671112D01*
X210920316Y-118844999D01*
X198934841Y-118844999D01*
X198988642Y-118764480D01*
X199069001Y-118360487D01*
X199096134Y-118224080D01*
X199069001Y-118087673D01*
X199069001Y-116888578D01*
X199261585Y-116695994D01*
X206424038Y-116695994D01*
X206725901Y-116997857D01*
X207240461Y-117210994D01*
X207797415Y-117210994D01*
X208311975Y-116997857D01*
X208705801Y-116604031D01*
X208918938Y-116089471D01*
X208918938Y-115668013D01*
X209394502Y-115864997D01*
X209951456Y-115864997D01*
X210466016Y-115651860D01*
X210859842Y-115258034D01*
X211072979Y-114743474D01*
X211072979Y-114322018D01*
X211548544Y-114519003D01*
X212105498Y-114519003D01*
X212620058Y-114305866D01*
X213013884Y-113912040D01*
X213227021Y-113397480D01*
X213227021Y-112969713D01*
X213330706Y-113043671D01*
X213373239Y-113031527D01*
X213820850Y-113031527D01*
X214008575Y-113200169D01*
X214552633Y-113081004D01*
X215009674Y-112762708D01*
X215251727Y-112423362D01*
X215182445Y-112180708D01*
X214076238Y-111925320D01*
X213820850Y-113031527D01*
X213373239Y-113031527D01*
X213573360Y-112974389D01*
X213757685Y-112175991D01*
X213966921Y-111966755D01*
X213787313Y-111787147D01*
X213729249Y-111845211D01*
X213004243Y-111677830D01*
X214133376Y-111677830D01*
X215239583Y-111933218D01*
X215408225Y-111745493D01*
X215289060Y-111201435D01*
X214970764Y-110744394D01*
X214631418Y-110502341D01*
X214388764Y-110571623D01*
X214133376Y-111677830D01*
X213004243Y-111677830D01*
X212722541Y-111612794D01*
X212553899Y-111800519D01*
X212579003Y-111915135D01*
X212105498Y-111719003D01*
X211548544Y-111719003D01*
X211033984Y-111932140D01*
X210640158Y-112325966D01*
X210427021Y-112840526D01*
X210427021Y-113261982D01*
X209951456Y-113064997D01*
X209394502Y-113064997D01*
X208879942Y-113278134D01*
X208486116Y-113671960D01*
X208272979Y-114186520D01*
X208272979Y-114607978D01*
X207797415Y-114410994D01*
X207240461Y-114410994D01*
X206725901Y-114624131D01*
X206424038Y-114925994D01*
X199069001Y-114925994D01*
X199069001Y-108310051D01*
X201017509Y-110258560D01*
X200568000Y-110258560D01*
X200320235Y-110307843D01*
X200110191Y-110448191D01*
X199969843Y-110658235D01*
X199920560Y-110906000D01*
X199920560Y-112106000D01*
X199969843Y-112353765D01*
X200110191Y-112563809D01*
X200320235Y-112704157D01*
X200568000Y-112753440D01*
X201768000Y-112753440D01*
X202015765Y-112704157D01*
X202137317Y-112622938D01*
X202422343Y-112741000D01*
X202913657Y-112741000D01*
X203367571Y-112552982D01*
X203714982Y-112205571D01*
X203903000Y-111751657D01*
X203903000Y-111260343D01*
X203845966Y-111122650D01*
X212710397Y-111122650D01*
X212779679Y-111365304D01*
X213885886Y-111620692D01*
X214141274Y-110514485D01*
X213953549Y-110345843D01*
X213409491Y-110465008D01*
X212952450Y-110783304D01*
X212710397Y-111122650D01*
X203845966Y-111122650D01*
X203714982Y-110806429D01*
X203569621Y-110661068D01*
X203570337Y-110657471D01*
X203553000Y-110570311D01*
X203553000Y-110570307D01*
X203501652Y-110312162D01*
X203306049Y-110019423D01*
X203232156Y-109970049D01*
X201084541Y-107822434D01*
X203387876Y-107822434D01*
X203584598Y-108297385D01*
X204018006Y-108765505D01*
X204597565Y-109032133D01*
X204851000Y-108913319D01*
X204851000Y-107569000D01*
X205105000Y-107569000D01*
X205105000Y-108913319D01*
X205358435Y-109032133D01*
X205937994Y-108765505D01*
X206371402Y-108297385D01*
X206568124Y-107822434D01*
X206448777Y-107569000D01*
X205105000Y-107569000D01*
X204851000Y-107569000D01*
X203507223Y-107569000D01*
X203387876Y-107822434D01*
X201084541Y-107822434D01*
X200323673Y-107061566D01*
X203387876Y-107061566D01*
X203507223Y-107315000D01*
X204851000Y-107315000D01*
X204851000Y-105970681D01*
X205105000Y-105970681D01*
X205105000Y-107315000D01*
X206448777Y-107315000D01*
X206568124Y-107061566D01*
X206371402Y-106586615D01*
X205940008Y-106120670D01*
X208777000Y-106120670D01*
X208777000Y-106731330D01*
X209010690Y-107295507D01*
X209442493Y-107727310D01*
X210006670Y-107961000D01*
X210617330Y-107961000D01*
X211181507Y-107727310D01*
X211357861Y-107550956D01*
X211413673Y-107685699D01*
X211592302Y-107864327D01*
X211825691Y-107961000D01*
X212566250Y-107961000D01*
X212725000Y-107802250D01*
X212725000Y-106553000D01*
X212979000Y-106553000D01*
X212979000Y-107802250D01*
X213137750Y-107961000D01*
X213878309Y-107961000D01*
X214111698Y-107864327D01*
X214290327Y-107685699D01*
X214387000Y-107452310D01*
X214387000Y-106882670D01*
X216143000Y-106882670D01*
X216143000Y-107493330D01*
X216376690Y-108057507D01*
X216808493Y-108489310D01*
X217372670Y-108723000D01*
X217983330Y-108723000D01*
X218547507Y-108489310D01*
X218723861Y-108312956D01*
X218779673Y-108447699D01*
X218958302Y-108626327D01*
X219191691Y-108723000D01*
X219932250Y-108723000D01*
X220091000Y-108564250D01*
X220091000Y-107315000D01*
X220071000Y-107315000D01*
X220071000Y-107061000D01*
X220091000Y-107061000D01*
X220091000Y-105811750D01*
X219932250Y-105653000D01*
X219191691Y-105653000D01*
X218958302Y-105749673D01*
X218779673Y-105928301D01*
X218723861Y-106063044D01*
X218547507Y-105886690D01*
X217983330Y-105653000D01*
X217372670Y-105653000D01*
X216808493Y-105886690D01*
X216376690Y-106318493D01*
X216143000Y-106882670D01*
X214387000Y-106882670D01*
X214387000Y-106711750D01*
X214228250Y-106553000D01*
X212979000Y-106553000D01*
X212725000Y-106553000D01*
X212705000Y-106553000D01*
X212705000Y-106299000D01*
X212725000Y-106299000D01*
X212725000Y-105049750D01*
X212979000Y-105049750D01*
X212979000Y-106299000D01*
X214228250Y-106299000D01*
X214387000Y-106140250D01*
X214387000Y-105399690D01*
X214290327Y-105166301D01*
X214111698Y-104987673D01*
X213878309Y-104891000D01*
X213137750Y-104891000D01*
X212979000Y-105049750D01*
X212725000Y-105049750D01*
X212566250Y-104891000D01*
X211825691Y-104891000D01*
X211592302Y-104987673D01*
X211413673Y-105166301D01*
X211357861Y-105301044D01*
X211181507Y-105124690D01*
X210617330Y-104891000D01*
X210006670Y-104891000D01*
X209442493Y-105124690D01*
X209010690Y-105556493D01*
X208777000Y-106120670D01*
X205940008Y-106120670D01*
X205937994Y-106118495D01*
X205358435Y-105851867D01*
X205105000Y-105970681D01*
X204851000Y-105970681D01*
X204597565Y-105851867D01*
X204018006Y-106118495D01*
X203584598Y-106586615D01*
X203387876Y-107061566D01*
X200323673Y-107061566D01*
X197853952Y-104591846D01*
X197804577Y-104517951D01*
X197511838Y-104322348D01*
X197253693Y-104271000D01*
X197253689Y-104271000D01*
X197166528Y-104253663D01*
X197079367Y-104271000D01*
X187173996Y-104271000D01*
X187514136Y-103761945D01*
X187641031Y-103124000D01*
X187514136Y-102486055D01*
X187152769Y-101945231D01*
X186986371Y-101834048D01*
X187219922Y-101650317D01*
X187533144Y-101092355D01*
X187564124Y-100964434D01*
X187444777Y-100711000D01*
X185801000Y-100711000D01*
X185801000Y-100731000D01*
X185547000Y-100731000D01*
X185547000Y-100711000D01*
X183903223Y-100711000D01*
X183783876Y-100964434D01*
X183814856Y-101092355D01*
X184128078Y-101650317D01*
X184361629Y-101834048D01*
X184195231Y-101945231D01*
X183833864Y-102486055D01*
X183815237Y-102579697D01*
X182433010Y-101197470D01*
X182433010Y-96291171D01*
X182450347Y-96204010D01*
X182433010Y-96116849D01*
X182433010Y-96116845D01*
X182381662Y-95858700D01*
X182186059Y-95565961D01*
X182112166Y-95516587D01*
X180265425Y-93669847D01*
X180216049Y-93595951D01*
X179923310Y-93400348D01*
X179665165Y-93349000D01*
X179665161Y-93349000D01*
X179578000Y-93331663D01*
X179490839Y-93349000D01*
X177887161Y-93349000D01*
X177800000Y-93331663D01*
X177712839Y-93349000D01*
X177712835Y-93349000D01*
X177454690Y-93400348D01*
X177235845Y-93546576D01*
X177235844Y-93546577D01*
X177161951Y-93595951D01*
X177112577Y-93669844D01*
X175291844Y-95490578D01*
X175217951Y-95539952D01*
X175168577Y-95613845D01*
X175168575Y-95613847D01*
X175022347Y-95832692D01*
X174953662Y-96178001D01*
X174971000Y-96265167D01*
X174970999Y-115355000D01*
X174859744Y-115355000D01*
X174426582Y-115441161D01*
X173935375Y-115769375D01*
X173736000Y-116067761D01*
X173536625Y-115769375D01*
X173045418Y-115441161D01*
X172612256Y-115355000D01*
X172319744Y-115355000D01*
X171886582Y-115441161D01*
X171395375Y-115769375D01*
X171196000Y-116067761D01*
X170996625Y-115769375D01*
X170505418Y-115441161D01*
X170072256Y-115355000D01*
X169779744Y-115355000D01*
X169346582Y-115441161D01*
X168855375Y-115769375D01*
X168656000Y-116067761D01*
X168456625Y-115769375D01*
X167965418Y-115441161D01*
X167532256Y-115355000D01*
X167239744Y-115355000D01*
X166806582Y-115441161D01*
X166315375Y-115769375D01*
X166102157Y-116088478D01*
X166041183Y-115958642D01*
X165612924Y-115568355D01*
X165202890Y-115398524D01*
X164973000Y-115519845D01*
X164973000Y-116713000D01*
X164993000Y-116713000D01*
X164993000Y-116967000D01*
X164973000Y-116967000D01*
X164973000Y-116987000D01*
X164719000Y-116987000D01*
X164719000Y-116967000D01*
X164699000Y-116967000D01*
X164699000Y-116713000D01*
X164719000Y-116713000D01*
X164719000Y-115519845D01*
X164489110Y-115398524D01*
X164079076Y-115568355D01*
X163650817Y-115958642D01*
X163589843Y-116088478D01*
X163376625Y-115769375D01*
X162885418Y-115441161D01*
X162452256Y-115355000D01*
X162159744Y-115355000D01*
X161726582Y-115441161D01*
X161235375Y-115769375D01*
X161036000Y-116067761D01*
X160836625Y-115769375D01*
X160345418Y-115441161D01*
X159912256Y-115355000D01*
X159619744Y-115355000D01*
X159186582Y-115441161D01*
X158695375Y-115769375D01*
X158496000Y-116067761D01*
X158296625Y-115769375D01*
X157805418Y-115441161D01*
X157372256Y-115355000D01*
X157079744Y-115355000D01*
X156646582Y-115441161D01*
X156155375Y-115769375D01*
X155956000Y-116067761D01*
X155756625Y-115769375D01*
X155265418Y-115441161D01*
X154832256Y-115355000D01*
X154539744Y-115355000D01*
X154106582Y-115441161D01*
X153615375Y-115769375D01*
X153416000Y-116067761D01*
X153216625Y-115769375D01*
X152725418Y-115441161D01*
X152292256Y-115355000D01*
X151999744Y-115355000D01*
X151566582Y-115441161D01*
X151075375Y-115769375D01*
X150876000Y-116067761D01*
X150676625Y-115769375D01*
X150185418Y-115441161D01*
X149752256Y-115355000D01*
X149459744Y-115355000D01*
X149026582Y-115441161D01*
X148535375Y-115769375D01*
X148322157Y-116088478D01*
X148261183Y-115958642D01*
X147832924Y-115568355D01*
X147422890Y-115398524D01*
X147193000Y-115519845D01*
X147193000Y-116713000D01*
X147213000Y-116713000D01*
X147213000Y-116967000D01*
X147193000Y-116967000D01*
X147193000Y-116987000D01*
X146939000Y-116987000D01*
X146939000Y-116967000D01*
X145745181Y-116967000D01*
X145624514Y-117196892D01*
X145870817Y-117721358D01*
X146295786Y-118108647D01*
X145995375Y-118309375D01*
X145667161Y-118800582D01*
X145551908Y-119380000D01*
X135710000Y-119380000D01*
X135710000Y-116483108D01*
X145624514Y-116483108D01*
X145745181Y-116713000D01*
X146939000Y-116713000D01*
X146939000Y-115519845D01*
X146709110Y-115398524D01*
X146299076Y-115568355D01*
X145870817Y-115958642D01*
X145624514Y-116483108D01*
X135710000Y-116483108D01*
X135710000Y-108966000D01*
X139963908Y-108966000D01*
X140079161Y-109545418D01*
X140407375Y-110036625D01*
X140425619Y-110048816D01*
X140380235Y-110057843D01*
X140170191Y-110198191D01*
X140029843Y-110408235D01*
X139980560Y-110656000D01*
X139980560Y-112356000D01*
X140029843Y-112603765D01*
X140170191Y-112813809D01*
X140380235Y-112954157D01*
X140628000Y-113003440D01*
X142328000Y-113003440D01*
X142575765Y-112954157D01*
X142785809Y-112813809D01*
X142926157Y-112603765D01*
X142975440Y-112356000D01*
X142975440Y-110656000D01*
X142926157Y-110408235D01*
X142785809Y-110198191D01*
X142575765Y-110057843D01*
X142530381Y-110048816D01*
X142548625Y-110036625D01*
X142876839Y-109545418D01*
X142992092Y-108966000D01*
X142876839Y-108386582D01*
X142548625Y-107895375D01*
X142057418Y-107567161D01*
X141624256Y-107481000D01*
X141331744Y-107481000D01*
X140898582Y-107567161D01*
X140407375Y-107895375D01*
X140079161Y-108386582D01*
X139963908Y-108966000D01*
X135710000Y-108966000D01*
X135710000Y-93540000D01*
X136485908Y-93540000D01*
X136601161Y-94119418D01*
X136929375Y-94610625D01*
X137227761Y-94810000D01*
X136929375Y-95009375D01*
X136601161Y-95500582D01*
X136485908Y-96080000D01*
X136601161Y-96659418D01*
X136929375Y-97150625D01*
X137227761Y-97350000D01*
X136929375Y-97549375D01*
X136601161Y-98040582D01*
X136485908Y-98620000D01*
X136601161Y-99199418D01*
X136929375Y-99690625D01*
X137227761Y-99890000D01*
X136929375Y-100089375D01*
X136601161Y-100580582D01*
X136485908Y-101160000D01*
X136601161Y-101739418D01*
X136929375Y-102230625D01*
X137420582Y-102558839D01*
X137853744Y-102645000D01*
X138146256Y-102645000D01*
X138579418Y-102558839D01*
X139070625Y-102230625D01*
X139398839Y-101739418D01*
X139514092Y-101160000D01*
X139398839Y-100580582D01*
X139070625Y-100089375D01*
X138772239Y-99890000D01*
X139070625Y-99690625D01*
X139398839Y-99199418D01*
X139514092Y-98620000D01*
X139398839Y-98040582D01*
X139070625Y-97549375D01*
X138772239Y-97350000D01*
X139070625Y-97150625D01*
X139398839Y-96659418D01*
X139514092Y-96080000D01*
X139398839Y-95500582D01*
X139070625Y-95009375D01*
X138772239Y-94810000D01*
X139070625Y-94610625D01*
X139398839Y-94119418D01*
X139514092Y-93540000D01*
X139399519Y-92964000D01*
X183706969Y-92964000D01*
X183833864Y-93601945D01*
X184195231Y-94142769D01*
X184331768Y-94234000D01*
X184195231Y-94325231D01*
X183833864Y-94866055D01*
X183706969Y-95504000D01*
X183833864Y-96141945D01*
X184195231Y-96682769D01*
X184331768Y-96774000D01*
X184195231Y-96865231D01*
X183833864Y-97406055D01*
X183706969Y-98044000D01*
X183833864Y-98681945D01*
X184195231Y-99222769D01*
X184361629Y-99333952D01*
X184128078Y-99517683D01*
X183814856Y-100075645D01*
X183783876Y-100203566D01*
X183903223Y-100457000D01*
X185547000Y-100457000D01*
X185547000Y-100437000D01*
X185801000Y-100437000D01*
X185801000Y-100457000D01*
X187444777Y-100457000D01*
X187564124Y-100203566D01*
X187533144Y-100075645D01*
X187219922Y-99517683D01*
X186986371Y-99333952D01*
X187152769Y-99222769D01*
X187514136Y-98681945D01*
X187641031Y-98044000D01*
X187514136Y-97406055D01*
X187152769Y-96865231D01*
X187016232Y-96774000D01*
X187152769Y-96682769D01*
X187514136Y-96141945D01*
X187641031Y-95504000D01*
X187514136Y-94866055D01*
X187152769Y-94325231D01*
X187016232Y-94234000D01*
X187152769Y-94142769D01*
X187514136Y-93601945D01*
X187535209Y-93496000D01*
X210704560Y-93496000D01*
X210704560Y-96496000D01*
X210753843Y-96743765D01*
X210894191Y-96953809D01*
X211104235Y-97094157D01*
X211352000Y-97143440D01*
X214352000Y-97143440D01*
X214599765Y-97094157D01*
X214809809Y-96953809D01*
X214950157Y-96743765D01*
X214999440Y-96496000D01*
X214999440Y-94571322D01*
X215797000Y-94571322D01*
X215797000Y-95420678D01*
X216122034Y-96205380D01*
X216722620Y-96805966D01*
X217507322Y-97131000D01*
X218356678Y-97131000D01*
X219141380Y-96805966D01*
X219741966Y-96205380D01*
X220067000Y-95420678D01*
X220067000Y-94571322D01*
X219741966Y-93786620D01*
X219141380Y-93186034D01*
X218356678Y-92861000D01*
X217507322Y-92861000D01*
X216722620Y-93186034D01*
X216122034Y-93786620D01*
X215797000Y-94571322D01*
X214999440Y-94571322D01*
X214999440Y-93496000D01*
X214950157Y-93248235D01*
X214809809Y-93038191D01*
X214599765Y-92897843D01*
X214352000Y-92848560D01*
X211352000Y-92848560D01*
X211104235Y-92897843D01*
X210894191Y-93038191D01*
X210753843Y-93248235D01*
X210704560Y-93496000D01*
X187535209Y-93496000D01*
X187641031Y-92964000D01*
X187514136Y-92326055D01*
X187283511Y-91980900D01*
X187431809Y-91881809D01*
X187572157Y-91671765D01*
X187621440Y-91424000D01*
X187621440Y-89424000D01*
X187572157Y-89176235D01*
X187431809Y-88966191D01*
X187221765Y-88825843D01*
X186974000Y-88776560D01*
X184374000Y-88776560D01*
X184126235Y-88825843D01*
X183916191Y-88966191D01*
X183775843Y-89176235D01*
X183726560Y-89424000D01*
X183726560Y-91424000D01*
X183775843Y-91671765D01*
X183916191Y-91881809D01*
X184064489Y-91980900D01*
X183833864Y-92326055D01*
X183706969Y-92964000D01*
X139399519Y-92964000D01*
X139398839Y-92960582D01*
X139070625Y-92469375D01*
X139052381Y-92457184D01*
X139097765Y-92448157D01*
X139307809Y-92307809D01*
X139448157Y-92097765D01*
X139497440Y-91850000D01*
X139497440Y-90150000D01*
X139448157Y-89902235D01*
X139307809Y-89692191D01*
X139097765Y-89551843D01*
X138850000Y-89502560D01*
X137150000Y-89502560D01*
X136902235Y-89551843D01*
X136692191Y-89692191D01*
X136551843Y-89902235D01*
X136502560Y-90150000D01*
X136502560Y-91850000D01*
X136551843Y-92097765D01*
X136692191Y-92307809D01*
X136902235Y-92448157D01*
X136947619Y-92457184D01*
X136929375Y-92469375D01*
X136601161Y-92960582D01*
X136485908Y-93540000D01*
X135710000Y-93540000D01*
X135710000Y-88735000D01*
X230265001Y-88735000D01*
X230265000Y-114606781D01*
G36*
X172593000Y-119253000D02*
X172613000Y-119253000D01*
X172613000Y-119507000D01*
X172593000Y-119507000D01*
X172593000Y-120700155D01*
X172822890Y-120821476D01*
X173232924Y-120651645D01*
X173661183Y-120261358D01*
X173722157Y-120131522D01*
X173935375Y-120450625D01*
X174426582Y-120778839D01*
X174859744Y-120865000D01*
X175152256Y-120865000D01*
X175585418Y-120778839D01*
X176076625Y-120450625D01*
X176276000Y-120152239D01*
X176475375Y-120450625D01*
X176966582Y-120778839D01*
X177399744Y-120865000D01*
X177692256Y-120865000D01*
X178125418Y-120778839D01*
X178616625Y-120450625D01*
X178829843Y-120131522D01*
X178890817Y-120261358D01*
X179319076Y-120651645D01*
X179729110Y-120821476D01*
X179959000Y-120700155D01*
X179959000Y-119507000D01*
X179939000Y-119507000D01*
X179939000Y-119253000D01*
X179959000Y-119253000D01*
X179959000Y-119233000D01*
X180213000Y-119233000D01*
X180213000Y-119253000D01*
X180233000Y-119253000D01*
X180233000Y-119507000D01*
X180213000Y-119507000D01*
X180213000Y-120700155D01*
X180442890Y-120821476D01*
X180852924Y-120651645D01*
X181281183Y-120261358D01*
X181342157Y-120131522D01*
X181555375Y-120450625D01*
X182046582Y-120778839D01*
X182479744Y-120865000D01*
X182772256Y-120865000D01*
X182844960Y-120850538D01*
X183238578Y-121244157D01*
X183287952Y-121318050D01*
X183361845Y-121367424D01*
X183361846Y-121367425D01*
X183417587Y-121404670D01*
X183580691Y-121513653D01*
X183838836Y-121565001D01*
X183838841Y-121565001D01*
X183926000Y-121582338D01*
X184013160Y-121565001D01*
X184194912Y-121565001D01*
X184098091Y-121584260D01*
X183623423Y-121901423D01*
X183306260Y-122376091D01*
X183194887Y-122936000D01*
X183306260Y-123495909D01*
X183623423Y-123970577D01*
X184098091Y-124287740D01*
X184516667Y-124371000D01*
X184799333Y-124371000D01*
X185217909Y-124287740D01*
X185692577Y-123970577D01*
X186009740Y-123495909D01*
X186092130Y-123081708D01*
X187287000Y-124276579D01*
X187287000Y-124745439D01*
X187505466Y-125272862D01*
X187909138Y-125676534D01*
X188046848Y-125733576D01*
X186923423Y-126857001D01*
X186048510Y-126857001D01*
X186121113Y-126492000D01*
X186009740Y-125932091D01*
X185692577Y-125457423D01*
X185217909Y-125140260D01*
X184799333Y-125057000D01*
X184516667Y-125057000D01*
X184098091Y-125140260D01*
X183623423Y-125457423D01*
X183306260Y-125932091D01*
X183194887Y-126492000D01*
X183267490Y-126857001D01*
X178440044Y-126857001D01*
X178473000Y-126777439D01*
X178473000Y-126206561D01*
X178254534Y-125679138D01*
X177850862Y-125275466D01*
X177323439Y-125057000D01*
X176752561Y-125057000D01*
X176225138Y-125275466D01*
X175821466Y-125679138D01*
X175603000Y-126206561D01*
X175603000Y-126777439D01*
X175635956Y-126857001D01*
X165700581Y-126857001D01*
X165465580Y-126622000D01*
X165632477Y-126622000D01*
X166147037Y-126408863D01*
X166540863Y-126015037D01*
X166624000Y-125814326D01*
X166707137Y-126015037D01*
X167100963Y-126408863D01*
X167615523Y-126622000D01*
X168172477Y-126622000D01*
X168687037Y-126408863D01*
X168891512Y-126204388D01*
X169631218Y-126204388D01*
X169701051Y-126446884D01*
X170225586Y-126634133D01*
X170781850Y-126606397D01*
X171166949Y-126446884D01*
X171236782Y-126204388D01*
X170434000Y-125401606D01*
X169631218Y-126204388D01*
X168891512Y-126204388D01*
X169080863Y-126015037D01*
X169157434Y-125830177D01*
X169209117Y-125954950D01*
X169451613Y-126024783D01*
X170254395Y-125222001D01*
X170613605Y-125222001D01*
X171416387Y-126024783D01*
X171658883Y-125954950D01*
X171846132Y-125430415D01*
X171818396Y-124874151D01*
X171658883Y-124489052D01*
X171416387Y-124419219D01*
X170613605Y-125222001D01*
X170254395Y-125222001D01*
X169451613Y-124419219D01*
X169209117Y-124489052D01*
X169161270Y-124623084D01*
X169080863Y-124428963D01*
X168891514Y-124239614D01*
X169631218Y-124239614D01*
X170434000Y-125042396D01*
X171236782Y-124239614D01*
X171166949Y-123997118D01*
X170642414Y-123809869D01*
X170086150Y-123837605D01*
X169701051Y-123997118D01*
X169631218Y-124239614D01*
X168891514Y-124239614D01*
X168687037Y-124035137D01*
X168172477Y-123822000D01*
X167615523Y-123822000D01*
X167100963Y-124035137D01*
X166707137Y-124428963D01*
X166624000Y-124629674D01*
X166540863Y-124428963D01*
X166334739Y-124222839D01*
X167907017Y-122650561D01*
X175603000Y-122650561D01*
X175603000Y-123221439D01*
X175821466Y-123748862D01*
X176225138Y-124152534D01*
X176752561Y-124371000D01*
X177323439Y-124371000D01*
X177850862Y-124152534D01*
X178254534Y-123748862D01*
X178473000Y-123221439D01*
X178473000Y-122650561D01*
X178254534Y-122123138D01*
X177850862Y-121719466D01*
X177323439Y-121501000D01*
X176752561Y-121501000D01*
X176225138Y-121719466D01*
X175821466Y-122123138D01*
X175603000Y-122650561D01*
X167907017Y-122650561D01*
X169707040Y-120850538D01*
X169779744Y-120865000D01*
X170072256Y-120865000D01*
X170505418Y-120778839D01*
X170996625Y-120450625D01*
X171209843Y-120131522D01*
X171270817Y-120261358D01*
X171699076Y-120651645D01*
X172109110Y-120821476D01*
X172339000Y-120700155D01*
X172339000Y-119507000D01*
X172319000Y-119507000D01*
X172319000Y-119253000D01*
X172339000Y-119253000D01*
X172339000Y-119233000D01*
X172593000Y-119233000D01*
X172593000Y-119253000D01*
X172593000Y-119253000D01*
G37*
X172593000Y-119253000D02*
X172613000Y-119253000D01*
X172613000Y-119507000D01*
X172593000Y-119507000D01*
X172593000Y-120700155D01*
X172822890Y-120821476D01*
X173232924Y-120651645D01*
X173661183Y-120261358D01*
X173722157Y-120131522D01*
X173935375Y-120450625D01*
X174426582Y-120778839D01*
X174859744Y-120865000D01*
X175152256Y-120865000D01*
X175585418Y-120778839D01*
X176076625Y-120450625D01*
X176276000Y-120152239D01*
X176475375Y-120450625D01*
X176966582Y-120778839D01*
X177399744Y-120865000D01*
X177692256Y-120865000D01*
X178125418Y-120778839D01*
X178616625Y-120450625D01*
X178829843Y-120131522D01*
X178890817Y-120261358D01*
X179319076Y-120651645D01*
X179729110Y-120821476D01*
X179959000Y-120700155D01*
X179959000Y-119507000D01*
X179939000Y-119507000D01*
X179939000Y-119253000D01*
X179959000Y-119253000D01*
X179959000Y-119233000D01*
X180213000Y-119233000D01*
X180213000Y-119253000D01*
X180233000Y-119253000D01*
X180233000Y-119507000D01*
X180213000Y-119507000D01*
X180213000Y-120700155D01*
X180442890Y-120821476D01*
X180852924Y-120651645D01*
X181281183Y-120261358D01*
X181342157Y-120131522D01*
X181555375Y-120450625D01*
X182046582Y-120778839D01*
X182479744Y-120865000D01*
X182772256Y-120865000D01*
X182844960Y-120850538D01*
X183238578Y-121244157D01*
X183287952Y-121318050D01*
X183361845Y-121367424D01*
X183361846Y-121367425D01*
X183417587Y-121404670D01*
X183580691Y-121513653D01*
X183838836Y-121565001D01*
X183838841Y-121565001D01*
X183926000Y-121582338D01*
X184013160Y-121565001D01*
X184194912Y-121565001D01*
X184098091Y-121584260D01*
X183623423Y-121901423D01*
X183306260Y-122376091D01*
X183194887Y-122936000D01*
X183306260Y-123495909D01*
X183623423Y-123970577D01*
X184098091Y-124287740D01*
X184516667Y-124371000D01*
X184799333Y-124371000D01*
X185217909Y-124287740D01*
X185692577Y-123970577D01*
X186009740Y-123495909D01*
X186092130Y-123081708D01*
X187287000Y-124276579D01*
X187287000Y-124745439D01*
X187505466Y-125272862D01*
X187909138Y-125676534D01*
X188046848Y-125733576D01*
X186923423Y-126857001D01*
X186048510Y-126857001D01*
X186121113Y-126492000D01*
X186009740Y-125932091D01*
X185692577Y-125457423D01*
X185217909Y-125140260D01*
X184799333Y-125057000D01*
X184516667Y-125057000D01*
X184098091Y-125140260D01*
X183623423Y-125457423D01*
X183306260Y-125932091D01*
X183194887Y-126492000D01*
X183267490Y-126857001D01*
X178440044Y-126857001D01*
X178473000Y-126777439D01*
X178473000Y-126206561D01*
X178254534Y-125679138D01*
X177850862Y-125275466D01*
X177323439Y-125057000D01*
X176752561Y-125057000D01*
X176225138Y-125275466D01*
X175821466Y-125679138D01*
X175603000Y-126206561D01*
X175603000Y-126777439D01*
X175635956Y-126857001D01*
X165700581Y-126857001D01*
X165465580Y-126622000D01*
X165632477Y-126622000D01*
X166147037Y-126408863D01*
X166540863Y-126015037D01*
X166624000Y-125814326D01*
X166707137Y-126015037D01*
X167100963Y-126408863D01*
X167615523Y-126622000D01*
X168172477Y-126622000D01*
X168687037Y-126408863D01*
X168891512Y-126204388D01*
X169631218Y-126204388D01*
X169701051Y-126446884D01*
X170225586Y-126634133D01*
X170781850Y-126606397D01*
X171166949Y-126446884D01*
X171236782Y-126204388D01*
X170434000Y-125401606D01*
X169631218Y-126204388D01*
X168891512Y-126204388D01*
X169080863Y-126015037D01*
X169157434Y-125830177D01*
X169209117Y-125954950D01*
X169451613Y-126024783D01*
X170254395Y-125222001D01*
X170613605Y-125222001D01*
X171416387Y-126024783D01*
X171658883Y-125954950D01*
X171846132Y-125430415D01*
X171818396Y-124874151D01*
X171658883Y-124489052D01*
X171416387Y-124419219D01*
X170613605Y-125222001D01*
X170254395Y-125222001D01*
X169451613Y-124419219D01*
X169209117Y-124489052D01*
X169161270Y-124623084D01*
X169080863Y-124428963D01*
X168891514Y-124239614D01*
X169631218Y-124239614D01*
X170434000Y-125042396D01*
X171236782Y-124239614D01*
X171166949Y-123997118D01*
X170642414Y-123809869D01*
X170086150Y-123837605D01*
X169701051Y-123997118D01*
X169631218Y-124239614D01*
X168891514Y-124239614D01*
X168687037Y-124035137D01*
X168172477Y-123822000D01*
X167615523Y-123822000D01*
X167100963Y-124035137D01*
X166707137Y-124428963D01*
X166624000Y-124629674D01*
X166540863Y-124428963D01*
X166334739Y-124222839D01*
X167907017Y-122650561D01*
X175603000Y-122650561D01*
X175603000Y-123221439D01*
X175821466Y-123748862D01*
X176225138Y-124152534D01*
X176752561Y-124371000D01*
X177323439Y-124371000D01*
X177850862Y-124152534D01*
X178254534Y-123748862D01*
X178473000Y-123221439D01*
X178473000Y-122650561D01*
X178254534Y-122123138D01*
X177850862Y-121719466D01*
X177323439Y-121501000D01*
X176752561Y-121501000D01*
X176225138Y-121719466D01*
X175821466Y-122123138D01*
X175603000Y-122650561D01*
X167907017Y-122650561D01*
X169707040Y-120850538D01*
X169779744Y-120865000D01*
X170072256Y-120865000D01*
X170505418Y-120778839D01*
X170996625Y-120450625D01*
X171209843Y-120131522D01*
X171270817Y-120261358D01*
X171699076Y-120651645D01*
X172109110Y-120821476D01*
X172339000Y-120700155D01*
X172339000Y-119507000D01*
X172319000Y-119507000D01*
X172319000Y-119253000D01*
X172339000Y-119253000D01*
X172339000Y-119233000D01*
X172593000Y-119233000D01*
X172593000Y-119253000D01*
G36*
X190373000Y-119253000D02*
X190393000Y-119253000D01*
X190393000Y-119507000D01*
X190373000Y-119507000D01*
X190373000Y-120700155D01*
X190602890Y-120821476D01*
X191012924Y-120651645D01*
X191441183Y-120261358D01*
X191502157Y-120131522D01*
X191715375Y-120450625D01*
X191901000Y-120574656D01*
X191901001Y-121879422D01*
X189995575Y-123784848D01*
X189938534Y-123647138D01*
X189534862Y-123243466D01*
X189007439Y-123025000D01*
X188538579Y-123025000D01*
X186073320Y-120559742D01*
X186236625Y-120450625D01*
X186436000Y-120152239D01*
X186635375Y-120450625D01*
X187126582Y-120778839D01*
X187559744Y-120865000D01*
X187852256Y-120865000D01*
X188285418Y-120778839D01*
X188776625Y-120450625D01*
X188989843Y-120131522D01*
X189050817Y-120261358D01*
X189479076Y-120651645D01*
X189889110Y-120821476D01*
X190119000Y-120700155D01*
X190119000Y-119507000D01*
X190099000Y-119507000D01*
X190099000Y-119253000D01*
X190119000Y-119253000D01*
X190119000Y-119233000D01*
X190373000Y-119233000D01*
X190373000Y-119253000D01*
X190373000Y-119253000D01*
G37*
X190373000Y-119253000D02*
X190393000Y-119253000D01*
X190393000Y-119507000D01*
X190373000Y-119507000D01*
X190373000Y-120700155D01*
X190602890Y-120821476D01*
X191012924Y-120651645D01*
X191441183Y-120261358D01*
X191502157Y-120131522D01*
X191715375Y-120450625D01*
X191901000Y-120574656D01*
X191901001Y-121879422D01*
X189995575Y-123784848D01*
X189938534Y-123647138D01*
X189534862Y-123243466D01*
X189007439Y-123025000D01*
X188538579Y-123025000D01*
X186073320Y-120559742D01*
X186236625Y-120450625D01*
X186436000Y-120152239D01*
X186635375Y-120450625D01*
X187126582Y-120778839D01*
X187559744Y-120865000D01*
X187852256Y-120865000D01*
X188285418Y-120778839D01*
X188776625Y-120450625D01*
X188989843Y-120131522D01*
X189050817Y-120261358D01*
X189479076Y-120651645D01*
X189889110Y-120821476D01*
X190119000Y-120700155D01*
X190119000Y-119507000D01*
X190099000Y-119507000D01*
X190099000Y-119253000D01*
X190119000Y-119253000D01*
X190119000Y-119233000D01*
X190373000Y-119233000D01*
X190373000Y-119253000D01*
G36*
X173935375Y-117910625D02*
X174233761Y-118110000D01*
X173935375Y-118309375D01*
X173722157Y-118628478D01*
X173661183Y-118498642D01*
X173236214Y-118111353D01*
X173536625Y-117910625D01*
X173736000Y-117612239D01*
X173935375Y-117910625D01*
X173935375Y-117910625D01*
G37*
X173935375Y-117910625D02*
X174233761Y-118110000D01*
X173935375Y-118309375D01*
X173722157Y-118628478D01*
X173661183Y-118498642D01*
X173236214Y-118111353D01*
X173536625Y-117910625D01*
X173736000Y-117612239D01*
X173935375Y-117910625D01*
G36*
X179015375Y-117910625D02*
X179315786Y-118111353D01*
X178890817Y-118498642D01*
X178829843Y-118628478D01*
X178616625Y-118309375D01*
X178318239Y-118110000D01*
X178616625Y-117910625D01*
X178816000Y-117612239D01*
X179015375Y-117910625D01*
X179015375Y-117910625D01*
G37*
X179015375Y-117910625D02*
X179315786Y-118111353D01*
X178890817Y-118498642D01*
X178829843Y-118628478D01*
X178616625Y-118309375D01*
X178318239Y-118110000D01*
X178616625Y-117910625D01*
X178816000Y-117612239D01*
X179015375Y-117910625D01*
G36*
X189175375Y-117910625D02*
X189475786Y-118111353D01*
X189050817Y-118498642D01*
X188989843Y-118628478D01*
X188776625Y-118309375D01*
X188478239Y-118110000D01*
X188776625Y-117910625D01*
X188976000Y-117612239D01*
X189175375Y-117910625D01*
X189175375Y-117910625D01*
G37*
X189175375Y-117910625D02*
X189475786Y-118111353D01*
X189050817Y-118498642D01*
X188989843Y-118628478D01*
X188776625Y-118309375D01*
X188478239Y-118110000D01*
X188776625Y-117910625D01*
X188976000Y-117612239D01*
X189175375Y-117910625D01*
G36*
X181555375Y-117910625D02*
X181853761Y-118110000D01*
X181555375Y-118309375D01*
X181342157Y-118628478D01*
X181281183Y-118498642D01*
X180856214Y-118111353D01*
X181156625Y-117910625D01*
X181356000Y-117612239D01*
X181555375Y-117910625D01*
X181555375Y-117910625D01*
G37*
X181555375Y-117910625D02*
X181853761Y-118110000D01*
X181555375Y-118309375D01*
X181342157Y-118628478D01*
X181281183Y-118498642D01*
X180856214Y-118111353D01*
X181156625Y-117910625D01*
X181356000Y-117612239D01*
X181555375Y-117910625D01*
G36*
X153615375Y-117910625D02*
X153915786Y-118111353D01*
X153490817Y-118498642D01*
X153429843Y-118628478D01*
X153216625Y-118309375D01*
X152918239Y-118110000D01*
X153216625Y-117910625D01*
X153416000Y-117612239D01*
X153615375Y-117910625D01*
X153615375Y-117910625D01*
G37*
X153615375Y-117910625D02*
X153915786Y-118111353D01*
X153490817Y-118498642D01*
X153429843Y-118628478D01*
X153216625Y-118309375D01*
X152918239Y-118110000D01*
X153216625Y-117910625D01*
X153416000Y-117612239D01*
X153615375Y-117910625D01*
G36*
X156155375Y-117910625D02*
X156453761Y-118110000D01*
X156155375Y-118309375D01*
X155942157Y-118628478D01*
X155881183Y-118498642D01*
X155456214Y-118111353D01*
X155756625Y-117910625D01*
X155956000Y-117612239D01*
X156155375Y-117910625D01*
X156155375Y-117910625D01*
G37*
X156155375Y-117910625D02*
X156453761Y-118110000D01*
X156155375Y-118309375D01*
X155942157Y-118628478D01*
X155881183Y-118498642D01*
X155456214Y-118111353D01*
X155756625Y-117910625D01*
X155956000Y-117612239D01*
X156155375Y-117910625D01*
G36*
X171395375Y-117910625D02*
X171695786Y-118111353D01*
X171270817Y-118498642D01*
X171209843Y-118628478D01*
X170996625Y-118309375D01*
X170698239Y-118110000D01*
X170996625Y-117910625D01*
X171196000Y-117612239D01*
X171395375Y-117910625D01*
X171395375Y-117910625D01*
G37*
X171395375Y-117910625D02*
X171695786Y-118111353D01*
X171270817Y-118498642D01*
X171209843Y-118628478D01*
X170996625Y-118309375D01*
X170698239Y-118110000D01*
X170996625Y-117910625D01*
X171196000Y-117612239D01*
X171395375Y-117910625D01*
G36*
X158695375Y-117910625D02*
X158995786Y-118111353D01*
X158570817Y-118498642D01*
X158509843Y-118628478D01*
X158296625Y-118309375D01*
X157998239Y-118110000D01*
X158296625Y-117910625D01*
X158496000Y-117612239D01*
X158695375Y-117910625D01*
X158695375Y-117910625D01*
G37*
X158695375Y-117910625D02*
X158995786Y-118111353D01*
X158570817Y-118498642D01*
X158509843Y-118628478D01*
X158296625Y-118309375D01*
X157998239Y-118110000D01*
X158296625Y-117910625D01*
X158496000Y-117612239D01*
X158695375Y-117910625D01*
G36*
X161235375Y-117910625D02*
X161533761Y-118110000D01*
X161235375Y-118309375D01*
X161022157Y-118628478D01*
X160961183Y-118498642D01*
X160536214Y-118111353D01*
X160836625Y-117910625D01*
X161036000Y-117612239D01*
X161235375Y-117910625D01*
X161235375Y-117910625D01*
G37*
X161235375Y-117910625D02*
X161533761Y-118110000D01*
X161235375Y-118309375D01*
X161022157Y-118628478D01*
X160961183Y-118498642D01*
X160536214Y-118111353D01*
X160836625Y-117910625D01*
X161036000Y-117612239D01*
X161235375Y-117910625D01*
G36*
X148535375Y-117910625D02*
X148833761Y-118110000D01*
X148535375Y-118309375D01*
X148336000Y-118607761D01*
X148136625Y-118309375D01*
X147836214Y-118108647D01*
X148261183Y-117721358D01*
X148322157Y-117591522D01*
X148535375Y-117910625D01*
X148535375Y-117910625D01*
G37*
X148535375Y-117910625D02*
X148833761Y-118110000D01*
X148535375Y-118309375D01*
X148336000Y-118607761D01*
X148136625Y-118309375D01*
X147836214Y-118108647D01*
X148261183Y-117721358D01*
X148322157Y-117591522D01*
X148535375Y-117910625D01*
G36*
X183970817Y-117721358D02*
X184395786Y-118108647D01*
X184095375Y-118309375D01*
X183896000Y-118607761D01*
X183696625Y-118309375D01*
X183398239Y-118110000D01*
X183696625Y-117910625D01*
X183909843Y-117591522D01*
X183970817Y-117721358D01*
X183970817Y-117721358D01*
G37*
X183970817Y-117721358D02*
X184395786Y-118108647D01*
X184095375Y-118309375D01*
X183896000Y-118607761D01*
X183696625Y-118309375D01*
X183398239Y-118110000D01*
X183696625Y-117910625D01*
X183909843Y-117591522D01*
X183970817Y-117721358D01*
G36*
X163650817Y-117721358D02*
X164075786Y-118108647D01*
X163775375Y-118309375D01*
X163576000Y-118607761D01*
X163376625Y-118309375D01*
X163078239Y-118110000D01*
X163376625Y-117910625D01*
X163589843Y-117591522D01*
X163650817Y-117721358D01*
X163650817Y-117721358D01*
G37*
X163650817Y-117721358D02*
X164075786Y-118108647D01*
X163775375Y-118309375D01*
X163576000Y-118607761D01*
X163376625Y-118309375D01*
X163078239Y-118110000D01*
X163376625Y-117910625D01*
X163589843Y-117591522D01*
X163650817Y-117721358D01*
G36*
X166315375Y-117910625D02*
X166613761Y-118110000D01*
X166315375Y-118309375D01*
X166116000Y-118607761D01*
X165916625Y-118309375D01*
X165616214Y-118108647D01*
X166041183Y-117721358D01*
X166102157Y-117591522D01*
X166315375Y-117910625D01*
X166315375Y-117910625D01*
G37*
X166315375Y-117910625D02*
X166613761Y-118110000D01*
X166315375Y-118309375D01*
X166116000Y-118607761D01*
X165916625Y-118309375D01*
X165616214Y-118108647D01*
X166041183Y-117721358D01*
X166102157Y-117591522D01*
X166315375Y-117910625D01*
G36*
X186635375Y-117910625D02*
X186933761Y-118110000D01*
X186635375Y-118309375D01*
X186436000Y-118607761D01*
X186236625Y-118309375D01*
X185936214Y-118108647D01*
X186361183Y-117721358D01*
X186422157Y-117591522D01*
X186635375Y-117910625D01*
X186635375Y-117910625D01*
G37*
X186635375Y-117910625D02*
X186933761Y-118110000D01*
X186635375Y-118309375D01*
X186436000Y-118607761D01*
X186236625Y-118309375D01*
X185936214Y-118108647D01*
X186361183Y-117721358D01*
X186422157Y-117591522D01*
X186635375Y-117910625D01*
G36*
X179963000Y-100750579D02*
X179963001Y-101766835D01*
X179945663Y-101854000D01*
X180014348Y-102199309D01*
X180160576Y-102418154D01*
X180160578Y-102418156D01*
X180209952Y-102492049D01*
X180283845Y-102541423D01*
X182503000Y-104760579D01*
X182503000Y-106187319D01*
X182213041Y-106050086D01*
X181991000Y-106171371D01*
X181991000Y-107315000D01*
X182011000Y-107315000D01*
X182011000Y-107569000D01*
X181991000Y-107569000D01*
X181991000Y-108712629D01*
X182213041Y-108833914D01*
X182503001Y-108696681D01*
X182503001Y-110119231D01*
X182183145Y-110182854D01*
X181807711Y-110433711D01*
X181556854Y-110809145D01*
X181468765Y-111252000D01*
X181556854Y-111694855D01*
X181685241Y-111887000D01*
X181556854Y-112079145D01*
X181468765Y-112522000D01*
X181556854Y-112964855D01*
X181567555Y-112980870D01*
X181491000Y-113165690D01*
X181491000Y-113506250D01*
X181649750Y-113665000D01*
X182499000Y-113665000D01*
X182499000Y-113653973D01*
X182514217Y-113657000D01*
X182737783Y-113657000D01*
X182753000Y-113653973D01*
X182753000Y-113665000D01*
X183602250Y-113665000D01*
X183761000Y-113506250D01*
X183761000Y-113165690D01*
X183704796Y-113030000D01*
X184210887Y-113030000D01*
X184322260Y-113589909D01*
X184639423Y-114064577D01*
X185114091Y-114381740D01*
X185532667Y-114465000D01*
X185815333Y-114465000D01*
X186233909Y-114381740D01*
X186708577Y-114064577D01*
X187025740Y-113589909D01*
X187137113Y-113030000D01*
X187025740Y-112470091D01*
X186708577Y-111995423D01*
X186233909Y-111678260D01*
X185815333Y-111595000D01*
X185532667Y-111595000D01*
X185114091Y-111678260D01*
X184639423Y-111995423D01*
X184322260Y-112470091D01*
X184210887Y-113030000D01*
X183704796Y-113030000D01*
X183684445Y-112980870D01*
X183695146Y-112964855D01*
X183783235Y-112522000D01*
X183695146Y-112079145D01*
X183566759Y-111887000D01*
X183695146Y-111694855D01*
X183759809Y-111369769D01*
X183952156Y-111177423D01*
X184026049Y-111128049D01*
X184173957Y-110906691D01*
X184221652Y-110835310D01*
X184273000Y-110577165D01*
X184273000Y-110577161D01*
X184290337Y-110490000D01*
X184273000Y-110402839D01*
X184273000Y-106032281D01*
X184316835Y-106041000D01*
X184316840Y-106041000D01*
X184403999Y-106058337D01*
X184491159Y-106041000D01*
X191656478Y-106041000D01*
X191211138Y-106225466D01*
X190807466Y-106629138D01*
X190589000Y-107156561D01*
X190589000Y-107727439D01*
X190807466Y-108254862D01*
X191211138Y-108658534D01*
X191738561Y-108877000D01*
X192309439Y-108877000D01*
X192836862Y-108658534D01*
X193170560Y-108324836D01*
X193170560Y-108442000D01*
X193219843Y-108689765D01*
X193360191Y-108899809D01*
X193570235Y-109040157D01*
X193818000Y-109089440D01*
X195818000Y-109089440D01*
X196065765Y-109040157D01*
X196275809Y-108899809D01*
X196299001Y-108865100D01*
X196299001Y-111669377D01*
X196119439Y-111595000D01*
X195548561Y-111595000D01*
X195021138Y-111813466D01*
X194617466Y-112217138D01*
X194399000Y-112744561D01*
X194399000Y-113315439D01*
X194617466Y-113842862D01*
X195021138Y-114246534D01*
X195548561Y-114465000D01*
X196119439Y-114465000D01*
X196299002Y-114390623D01*
X196299002Y-115367026D01*
X196176000Y-115342560D01*
X194476000Y-115342560D01*
X194228235Y-115391843D01*
X194018191Y-115532191D01*
X193877843Y-115742235D01*
X193868816Y-115787619D01*
X193856625Y-115769375D01*
X193365418Y-115441161D01*
X192932256Y-115355000D01*
X192639744Y-115355000D01*
X192206582Y-115441161D01*
X191715375Y-115769375D01*
X191516000Y-116067761D01*
X191316625Y-115769375D01*
X190825418Y-115441161D01*
X190392256Y-115355000D01*
X190099744Y-115355000D01*
X189666582Y-115441161D01*
X189175375Y-115769375D01*
X188976000Y-116067761D01*
X188776625Y-115769375D01*
X188285418Y-115441161D01*
X187852256Y-115355000D01*
X187559744Y-115355000D01*
X187126582Y-115441161D01*
X186635375Y-115769375D01*
X186422157Y-116088478D01*
X186361183Y-115958642D01*
X185932924Y-115568355D01*
X185522890Y-115398524D01*
X185293000Y-115519845D01*
X185293000Y-116713000D01*
X185313000Y-116713000D01*
X185313000Y-116967000D01*
X185293000Y-116967000D01*
X185293000Y-116987000D01*
X185039000Y-116987000D01*
X185039000Y-116967000D01*
X185019000Y-116967000D01*
X185019000Y-116713000D01*
X185039000Y-116713000D01*
X185039000Y-115519845D01*
X184809110Y-115398524D01*
X184399076Y-115568355D01*
X183970817Y-115958642D01*
X183909843Y-116088478D01*
X183696625Y-115769375D01*
X183205418Y-115441161D01*
X182772256Y-115355000D01*
X182479744Y-115355000D01*
X182046582Y-115441161D01*
X181555375Y-115769375D01*
X181356000Y-116067761D01*
X181156625Y-115769375D01*
X180665418Y-115441161D01*
X180232256Y-115355000D01*
X179939744Y-115355000D01*
X179506582Y-115441161D01*
X179015375Y-115769375D01*
X178816000Y-116067761D01*
X178616625Y-115769375D01*
X178125418Y-115441161D01*
X177692256Y-115355000D01*
X177399744Y-115355000D01*
X176966582Y-115441161D01*
X176740999Y-115591891D01*
X176740999Y-114077750D01*
X181491000Y-114077750D01*
X181491000Y-114418310D01*
X181587673Y-114651699D01*
X181766302Y-114830327D01*
X181999691Y-114927000D01*
X182340250Y-114927000D01*
X182499000Y-114768250D01*
X182499000Y-113919000D01*
X182753000Y-113919000D01*
X182753000Y-114768250D01*
X182911750Y-114927000D01*
X183252309Y-114927000D01*
X183485698Y-114830327D01*
X183664327Y-114651699D01*
X183761000Y-114418310D01*
X183761000Y-114077750D01*
X183602250Y-113919000D01*
X182753000Y-113919000D01*
X182499000Y-113919000D01*
X181649750Y-113919000D01*
X181491000Y-114077750D01*
X176740999Y-114077750D01*
X176740999Y-107791039D01*
X180472096Y-107791039D01*
X180632959Y-108179423D01*
X181008866Y-108594389D01*
X181514959Y-108833914D01*
X181737000Y-108712629D01*
X181737000Y-107569000D01*
X180594085Y-107569000D01*
X180472096Y-107791039D01*
X176740999Y-107791039D01*
X176740999Y-107092961D01*
X180472096Y-107092961D01*
X180594085Y-107315000D01*
X181737000Y-107315000D01*
X181737000Y-106171371D01*
X181514959Y-106050086D01*
X181008866Y-106289611D01*
X180632959Y-106704577D01*
X180472096Y-107092961D01*
X176740999Y-107092961D01*
X176740999Y-106138387D01*
X177197218Y-106138387D01*
X177267051Y-106380883D01*
X177791586Y-106568132D01*
X178347850Y-106540396D01*
X178732949Y-106380883D01*
X178802782Y-106138387D01*
X178000000Y-105335605D01*
X177197218Y-106138387D01*
X176740999Y-106138387D01*
X176740999Y-105806581D01*
X176775117Y-105888949D01*
X177017613Y-105958782D01*
X177820395Y-105156000D01*
X178179605Y-105156000D01*
X178982387Y-105958782D01*
X179224883Y-105888949D01*
X179412132Y-105364414D01*
X179384396Y-104808150D01*
X179224883Y-104423051D01*
X178982387Y-104353218D01*
X178179605Y-105156000D01*
X177820395Y-105156000D01*
X177017613Y-104353218D01*
X176775117Y-104423051D01*
X176740999Y-104518625D01*
X176740999Y-103234880D01*
X176813137Y-103409037D01*
X177206963Y-103802863D01*
X177391824Y-103879435D01*
X177267051Y-103931117D01*
X177197218Y-104173613D01*
X178000000Y-104976395D01*
X178802782Y-104173613D01*
X178732949Y-103931117D01*
X178598917Y-103883270D01*
X178793037Y-103802863D01*
X179186863Y-103409037D01*
X179400000Y-102894477D01*
X179400000Y-102337523D01*
X179186863Y-101822963D01*
X178793037Y-101429137D01*
X178592326Y-101346000D01*
X178793037Y-101262863D01*
X179186863Y-100869037D01*
X179400000Y-100354477D01*
X179400000Y-100187579D01*
X179963000Y-100750579D01*
X179963000Y-100750579D01*
G37*
X179963000Y-100750579D02*
X179963001Y-101766835D01*
X179945663Y-101854000D01*
X180014348Y-102199309D01*
X180160576Y-102418154D01*
X180160578Y-102418156D01*
X180209952Y-102492049D01*
X180283845Y-102541423D01*
X182503000Y-104760579D01*
X182503000Y-106187319D01*
X182213041Y-106050086D01*
X181991000Y-106171371D01*
X181991000Y-107315000D01*
X182011000Y-107315000D01*
X182011000Y-107569000D01*
X181991000Y-107569000D01*
X181991000Y-108712629D01*
X182213041Y-108833914D01*
X182503001Y-108696681D01*
X182503001Y-110119231D01*
X182183145Y-110182854D01*
X181807711Y-110433711D01*
X181556854Y-110809145D01*
X181468765Y-111252000D01*
X181556854Y-111694855D01*
X181685241Y-111887000D01*
X181556854Y-112079145D01*
X181468765Y-112522000D01*
X181556854Y-112964855D01*
X181567555Y-112980870D01*
X181491000Y-113165690D01*
X181491000Y-113506250D01*
X181649750Y-113665000D01*
X182499000Y-113665000D01*
X182499000Y-113653973D01*
X182514217Y-113657000D01*
X182737783Y-113657000D01*
X182753000Y-113653973D01*
X182753000Y-113665000D01*
X183602250Y-113665000D01*
X183761000Y-113506250D01*
X183761000Y-113165690D01*
X183704796Y-113030000D01*
X184210887Y-113030000D01*
X184322260Y-113589909D01*
X184639423Y-114064577D01*
X185114091Y-114381740D01*
X185532667Y-114465000D01*
X185815333Y-114465000D01*
X186233909Y-114381740D01*
X186708577Y-114064577D01*
X187025740Y-113589909D01*
X187137113Y-113030000D01*
X187025740Y-112470091D01*
X186708577Y-111995423D01*
X186233909Y-111678260D01*
X185815333Y-111595000D01*
X185532667Y-111595000D01*
X185114091Y-111678260D01*
X184639423Y-111995423D01*
X184322260Y-112470091D01*
X184210887Y-113030000D01*
X183704796Y-113030000D01*
X183684445Y-112980870D01*
X183695146Y-112964855D01*
X183783235Y-112522000D01*
X183695146Y-112079145D01*
X183566759Y-111887000D01*
X183695146Y-111694855D01*
X183759809Y-111369769D01*
X183952156Y-111177423D01*
X184026049Y-111128049D01*
X184173957Y-110906691D01*
X184221652Y-110835310D01*
X184273000Y-110577165D01*
X184273000Y-110577161D01*
X184290337Y-110490000D01*
X184273000Y-110402839D01*
X184273000Y-106032281D01*
X184316835Y-106041000D01*
X184316840Y-106041000D01*
X184403999Y-106058337D01*
X184491159Y-106041000D01*
X191656478Y-106041000D01*
X191211138Y-106225466D01*
X190807466Y-106629138D01*
X190589000Y-107156561D01*
X190589000Y-107727439D01*
X190807466Y-108254862D01*
X191211138Y-108658534D01*
X191738561Y-108877000D01*
X192309439Y-108877000D01*
X192836862Y-108658534D01*
X193170560Y-108324836D01*
X193170560Y-108442000D01*
X193219843Y-108689765D01*
X193360191Y-108899809D01*
X193570235Y-109040157D01*
X193818000Y-109089440D01*
X195818000Y-109089440D01*
X196065765Y-109040157D01*
X196275809Y-108899809D01*
X196299001Y-108865100D01*
X196299001Y-111669377D01*
X196119439Y-111595000D01*
X195548561Y-111595000D01*
X195021138Y-111813466D01*
X194617466Y-112217138D01*
X194399000Y-112744561D01*
X194399000Y-113315439D01*
X194617466Y-113842862D01*
X195021138Y-114246534D01*
X195548561Y-114465000D01*
X196119439Y-114465000D01*
X196299002Y-114390623D01*
X196299002Y-115367026D01*
X196176000Y-115342560D01*
X194476000Y-115342560D01*
X194228235Y-115391843D01*
X194018191Y-115532191D01*
X193877843Y-115742235D01*
X193868816Y-115787619D01*
X193856625Y-115769375D01*
X193365418Y-115441161D01*
X192932256Y-115355000D01*
X192639744Y-115355000D01*
X192206582Y-115441161D01*
X191715375Y-115769375D01*
X191516000Y-116067761D01*
X191316625Y-115769375D01*
X190825418Y-115441161D01*
X190392256Y-115355000D01*
X190099744Y-115355000D01*
X189666582Y-115441161D01*
X189175375Y-115769375D01*
X188976000Y-116067761D01*
X188776625Y-115769375D01*
X188285418Y-115441161D01*
X187852256Y-115355000D01*
X187559744Y-115355000D01*
X187126582Y-115441161D01*
X186635375Y-115769375D01*
X186422157Y-116088478D01*
X186361183Y-115958642D01*
X185932924Y-115568355D01*
X185522890Y-115398524D01*
X185293000Y-115519845D01*
X185293000Y-116713000D01*
X185313000Y-116713000D01*
X185313000Y-116967000D01*
X185293000Y-116967000D01*
X185293000Y-116987000D01*
X185039000Y-116987000D01*
X185039000Y-116967000D01*
X185019000Y-116967000D01*
X185019000Y-116713000D01*
X185039000Y-116713000D01*
X185039000Y-115519845D01*
X184809110Y-115398524D01*
X184399076Y-115568355D01*
X183970817Y-115958642D01*
X183909843Y-116088478D01*
X183696625Y-115769375D01*
X183205418Y-115441161D01*
X182772256Y-115355000D01*
X182479744Y-115355000D01*
X182046582Y-115441161D01*
X181555375Y-115769375D01*
X181356000Y-116067761D01*
X181156625Y-115769375D01*
X180665418Y-115441161D01*
X180232256Y-115355000D01*
X179939744Y-115355000D01*
X179506582Y-115441161D01*
X179015375Y-115769375D01*
X178816000Y-116067761D01*
X178616625Y-115769375D01*
X178125418Y-115441161D01*
X177692256Y-115355000D01*
X177399744Y-115355000D01*
X176966582Y-115441161D01*
X176740999Y-115591891D01*
X176740999Y-114077750D01*
X181491000Y-114077750D01*
X181491000Y-114418310D01*
X181587673Y-114651699D01*
X181766302Y-114830327D01*
X181999691Y-114927000D01*
X182340250Y-114927000D01*
X182499000Y-114768250D01*
X182499000Y-113919000D01*
X182753000Y-113919000D01*
X182753000Y-114768250D01*
X182911750Y-114927000D01*
X183252309Y-114927000D01*
X183485698Y-114830327D01*
X183664327Y-114651699D01*
X183761000Y-114418310D01*
X183761000Y-114077750D01*
X183602250Y-113919000D01*
X182753000Y-113919000D01*
X182499000Y-113919000D01*
X181649750Y-113919000D01*
X181491000Y-114077750D01*
X176740999Y-114077750D01*
X176740999Y-107791039D01*
X180472096Y-107791039D01*
X180632959Y-108179423D01*
X181008866Y-108594389D01*
X181514959Y-108833914D01*
X181737000Y-108712629D01*
X181737000Y-107569000D01*
X180594085Y-107569000D01*
X180472096Y-107791039D01*
X176740999Y-107791039D01*
X176740999Y-107092961D01*
X180472096Y-107092961D01*
X180594085Y-107315000D01*
X181737000Y-107315000D01*
X181737000Y-106171371D01*
X181514959Y-106050086D01*
X181008866Y-106289611D01*
X180632959Y-106704577D01*
X180472096Y-107092961D01*
X176740999Y-107092961D01*
X176740999Y-106138387D01*
X177197218Y-106138387D01*
X177267051Y-106380883D01*
X177791586Y-106568132D01*
X178347850Y-106540396D01*
X178732949Y-106380883D01*
X178802782Y-106138387D01*
X178000000Y-105335605D01*
X177197218Y-106138387D01*
X176740999Y-106138387D01*
X176740999Y-105806581D01*
X176775117Y-105888949D01*
X177017613Y-105958782D01*
X177820395Y-105156000D01*
X178179605Y-105156000D01*
X178982387Y-105958782D01*
X179224883Y-105888949D01*
X179412132Y-105364414D01*
X179384396Y-104808150D01*
X179224883Y-104423051D01*
X178982387Y-104353218D01*
X178179605Y-105156000D01*
X177820395Y-105156000D01*
X177017613Y-104353218D01*
X176775117Y-104423051D01*
X176740999Y-104518625D01*
X176740999Y-103234880D01*
X176813137Y-103409037D01*
X177206963Y-103802863D01*
X177391824Y-103879435D01*
X177267051Y-103931117D01*
X177197218Y-104173613D01*
X178000000Y-104976395D01*
X178802782Y-104173613D01*
X178732949Y-103931117D01*
X178598917Y-103883270D01*
X178793037Y-103802863D01*
X179186863Y-103409037D01*
X179400000Y-102894477D01*
X179400000Y-102337523D01*
X179186863Y-101822963D01*
X178793037Y-101429137D01*
X178592326Y-101346000D01*
X178793037Y-101262863D01*
X179186863Y-100869037D01*
X179400000Y-100354477D01*
X179400000Y-100187579D01*
X179963000Y-100750579D01*
G04 #@! TD*
M02*
