G04 #@! TF.GenerationSoftware,KiCad,Pcbnew,(5.0.2)-1*
G04 #@! TF.CreationDate,2020-10-18T11:15:27+02:00*
G04 #@! TF.ProjectId,Radmesser,5261646d-6573-4736-9572-2e6b69636164,rev?*
G04 #@! TF.SameCoordinates,Original*
G04 #@! TF.FileFunction,Copper,L2,Bot*
G04 #@! TF.FilePolarity,Positive*
%FSLAX46Y46*%
G04 Gerber Fmt 4.6, Leading zero omitted, Abs format (unit mm)*
G04 Created by KiCad (PCBNEW (5.0.2)-1) date 18.10.2020 11:15:27*
%MOMM*%
%LPD*%
G01*
G04 APERTURE LIST*
G04 #@! TA.AperFunction,ComponentPad*
%ADD10C,1.530000*%
G04 #@! TD*
G04 #@! TA.AperFunction,ComponentPad*
%ADD11R,1.800000X1.800000*%
G04 #@! TD*
G04 #@! TA.AperFunction,ComponentPad*
%ADD12C,1.800000*%
G04 #@! TD*
G04 #@! TA.AperFunction,ComponentPad*
%ADD13O,1.700000X1.700000*%
G04 #@! TD*
G04 #@! TA.AperFunction,ComponentPad*
%ADD14R,1.700000X1.700000*%
G04 #@! TD*
G04 #@! TA.AperFunction,ComponentPad*
%ADD15O,1.600000X1.600000*%
G04 #@! TD*
G04 #@! TA.AperFunction,ComponentPad*
%ADD16C,1.600000*%
G04 #@! TD*
G04 #@! TA.AperFunction,ComponentPad*
%ADD17O,1.800000X1.800000*%
G04 #@! TD*
G04 #@! TA.AperFunction,ComponentPad*
%ADD18C,2.000000*%
G04 #@! TD*
G04 #@! TA.AperFunction,Conductor*
%ADD19C,0.500000*%
G04 #@! TD*
G04 #@! TA.AperFunction,Conductor*
%ADD20C,1.000000*%
G04 #@! TD*
G04 #@! TA.AperFunction,Conductor*
%ADD21C,0.254000*%
G04 #@! TD*
G04 APERTURE END LIST*
D10*
G04 #@! TO.P,Uvorne1,2*
G04 #@! TO.N,Net-(J1-Pad35)*
X147509198Y-106649941D03*
G04 #@! TO.P,Uvorne1,3*
G04 #@! TO.N,Net-(R4-Pad1)*
X149950802Y-107350059D03*
G04 #@! TO.P,Uvorne1,4*
G04 #@! TO.N,GND*
X152392407Y-108050179D03*
G04 #@! TO.P,Uvorne1,1*
G04 #@! TO.N,Net-(J1-Pad2)*
X145067593Y-105949821D03*
G04 #@! TD*
G04 #@! TO.P,Uhinten2,1*
G04 #@! TO.N,Net-(J1-Pad2)*
X190067593Y-108050180D03*
G04 #@! TO.P,Uhinten2,4*
G04 #@! TO.N,GND*
X197392407Y-105949820D03*
G04 #@! TO.P,Uhinten2,3*
G04 #@! TO.N,Net-(R2-Pad1)*
X194950802Y-106649941D03*
G04 #@! TO.P,Uhinten2,2*
G04 #@! TO.N,Net-(J1-Pad35)*
X192509198Y-107350059D03*
G04 #@! TD*
D11*
G04 #@! TO.P,Drot2,1*
G04 #@! TO.N,Net-(Drot2-Pad1)*
X178308000Y-90424000D03*
D12*
G04 #@! TO.P,Drot2,2*
G04 #@! TO.N,Net-(Drot2-Pad2)*
X175768000Y-90424000D03*
G04 #@! TD*
G04 #@! TO.P,Dgrun1,2*
G04 #@! TO.N,Net-(Dgrun1-Pad2)*
X168656000Y-90424000D03*
D11*
G04 #@! TO.P,Dgrun1,1*
G04 #@! TO.N,Net-(Dgrun1-Pad1)*
X171196000Y-90424000D03*
G04 #@! TD*
D10*
G04 #@! TO.P,GPS1,2*
G04 #@! TO.N,Net-(GPS1-Pad2)*
X201930000Y-90678000D03*
G04 #@! TO.P,GPS1,3*
G04 #@! TO.N,Net-(GPS1-Pad3)*
X201930000Y-88138000D03*
G04 #@! TO.P,GPS1,4*
G04 #@! TO.N,GND*
X201930000Y-85598000D03*
G04 #@! TO.P,GPS1,1*
G04 #@! TO.N,Net-(GPS1-Pad1)*
X201930000Y-93218000D03*
G04 #@! TD*
D13*
G04 #@! TO.P,J1,40*
G04 #@! TO.N,Net-(Dgrun1-Pad2)*
X147320000Y-85090000D03*
G04 #@! TO.P,J1,39*
G04 #@! TO.N,GND*
X147320000Y-82550000D03*
G04 #@! TO.P,J1,38*
G04 #@! TO.N,Net-(Drot2-Pad2)*
X149860000Y-85090000D03*
G04 #@! TO.P,J1,37*
G04 #@! TO.N,Net-(J1-Pad37)*
X149860000Y-82550000D03*
G04 #@! TO.P,J1,36*
G04 #@! TO.N,Net-(J1-Pad36)*
X152400000Y-85090000D03*
G04 #@! TO.P,J1,35*
G04 #@! TO.N,Net-(J1-Pad35)*
X152400000Y-82550000D03*
G04 #@! TO.P,J1,34*
G04 #@! TO.N,GND*
X154940000Y-85090000D03*
G04 #@! TO.P,J1,33*
G04 #@! TO.N,Net-(J1-Pad33)*
X154940000Y-82550000D03*
G04 #@! TO.P,J1,32*
G04 #@! TO.N,Net-(J1-Pad32)*
X157480000Y-85090000D03*
G04 #@! TO.P,J1,31*
G04 #@! TO.N,Net-(J1-Pad31)*
X157480000Y-82550000D03*
G04 #@! TO.P,J1,30*
G04 #@! TO.N,Net-(J1-Pad30)*
X160020000Y-85090000D03*
G04 #@! TO.P,J1,29*
G04 #@! TO.N,Net-(J1-Pad29)*
X160020000Y-82550000D03*
G04 #@! TO.P,J1,28*
G04 #@! TO.N,Net-(J1-Pad28)*
X162560000Y-85090000D03*
G04 #@! TO.P,J1,27*
G04 #@! TO.N,Net-(J1-Pad27)*
X162560000Y-82550000D03*
G04 #@! TO.P,J1,26*
G04 #@! TO.N,Net-(J1-Pad26)*
X165100000Y-85090000D03*
G04 #@! TO.P,J1,25*
G04 #@! TO.N,Net-(J1-Pad25)*
X165100000Y-82550000D03*
G04 #@! TO.P,J1,24*
G04 #@! TO.N,Net-(J1-Pad24)*
X167640000Y-85090000D03*
G04 #@! TO.P,J1,23*
G04 #@! TO.N,Net-(J1-Pad23)*
X167640000Y-82550000D03*
G04 #@! TO.P,J1,22*
G04 #@! TO.N,Net-(J1-Pad22)*
X170180000Y-85090000D03*
G04 #@! TO.P,J1,21*
G04 #@! TO.N,Net-(J1-Pad21)*
X170180000Y-82550000D03*
G04 #@! TO.P,J1,20*
G04 #@! TO.N,Net-(J1-Pad20)*
X172720000Y-85090000D03*
G04 #@! TO.P,J1,19*
G04 #@! TO.N,Net-(J1-Pad19)*
X172720000Y-82550000D03*
G04 #@! TO.P,J1,18*
G04 #@! TO.N,Net-(J1-Pad18)*
X175260000Y-85090000D03*
G04 #@! TO.P,J1,17*
G04 #@! TO.N,Net-(J1-Pad17)*
X175260000Y-82550000D03*
G04 #@! TO.P,J1,16*
G04 #@! TO.N,Net-(J1-Pad16)*
X177800000Y-85090000D03*
G04 #@! TO.P,J1,15*
G04 #@! TO.N,Net-(J1-Pad15)*
X177800000Y-82550000D03*
G04 #@! TO.P,J1,14*
G04 #@! TO.N,Net-(J1-Pad14)*
X180340000Y-85090000D03*
G04 #@! TO.P,J1,13*
G04 #@! TO.N,Net-(J1-Pad13)*
X180340000Y-82550000D03*
G04 #@! TO.P,J1,12*
G04 #@! TO.N,Net-(J1-Pad12)*
X182880000Y-85090000D03*
G04 #@! TO.P,J1,11*
G04 #@! TO.N,Net-(J1-Pad11)*
X182880000Y-82550000D03*
G04 #@! TO.P,J1,10*
G04 #@! TO.N,Net-(GPS1-Pad3)*
X185420000Y-85090000D03*
G04 #@! TO.P,J1,9*
G04 #@! TO.N,Net-(J1-Pad9)*
X185420000Y-82550000D03*
G04 #@! TO.P,J1,8*
G04 #@! TO.N,Net-(GPS1-Pad2)*
X187960000Y-85090000D03*
G04 #@! TO.P,J1,7*
G04 #@! TO.N,Net-(J1-Pad7)*
X187960000Y-82550000D03*
G04 #@! TO.P,J1,6*
G04 #@! TO.N,GND*
X190500000Y-85090000D03*
G04 #@! TO.P,J1,5*
G04 #@! TO.N,Net-(J1-Pad5)*
X190500000Y-82550000D03*
G04 #@! TO.P,J1,4*
G04 #@! TO.N,Net-(J1-Pad4)*
X193040000Y-85090000D03*
G04 #@! TO.P,J1,3*
G04 #@! TO.N,Net-(J1-Pad3)*
X193040000Y-82550000D03*
G04 #@! TO.P,J1,2*
G04 #@! TO.N,Net-(J1-Pad2)*
X195580000Y-85090000D03*
D14*
G04 #@! TO.P,J1,1*
G04 #@! TO.N,Net-(GPS1-Pad1)*
X195580000Y-82550000D03*
G04 #@! TD*
D15*
G04 #@! TO.P,R1,2*
G04 #@! TO.N,GND*
X154940000Y-100330000D03*
D16*
G04 #@! TO.P,R1,1*
G04 #@! TO.N,Net-(J1-Pad16)*
X170180000Y-100330000D03*
G04 #@! TD*
G04 #@! TO.P,R2,1*
G04 #@! TO.N,Net-(R2-Pad1)*
X189230000Y-100330000D03*
D15*
G04 #@! TO.P,R2,2*
G04 #@! TO.N,Net-(J1-Pad16)*
X173990000Y-100330000D03*
G04 #@! TD*
G04 #@! TO.P,R3,2*
G04 #@! TO.N,GND*
X186690000Y-104140000D03*
D16*
G04 #@! TO.P,R3,1*
G04 #@! TO.N,Net-(J1-Pad18)*
X171450000Y-104140000D03*
G04 #@! TD*
G04 #@! TO.P,R4,1*
G04 #@! TO.N,Net-(R4-Pad1)*
X152400000Y-104140000D03*
D15*
G04 #@! TO.P,R4,2*
G04 #@! TO.N,Net-(J1-Pad18)*
X167640000Y-104140000D03*
G04 #@! TD*
G04 #@! TO.P,R5,2*
G04 #@! TO.N,GND*
X197612000Y-90170000D03*
D16*
G04 #@! TO.P,R5,1*
G04 #@! TO.N,Net-(Drot2-Pad1)*
X182372000Y-90170000D03*
G04 #@! TD*
G04 #@! TO.P,R6,1*
G04 #@! TO.N,Net-(Dgrun1-Pad1)*
X182372000Y-93726000D03*
D15*
G04 #@! TO.P,R6,2*
G04 #@! TO.N,GND*
X197612000Y-93726000D03*
G04 #@! TD*
G04 #@! TO.P,R7,2*
G04 #@! TO.N,Net-(J1-Pad26)*
X175514000Y-96774000D03*
D16*
G04 #@! TO.P,R7,1*
G04 #@! TO.N,Net-(GPS1-Pad1)*
X160274000Y-96774000D03*
G04 #@! TD*
D17*
G04 #@! TO.P,U3,3*
G04 #@! TO.N,Net-(GPS1-Pad1)*
X158242000Y-91186000D03*
G04 #@! TO.P,U3,2*
G04 #@! TO.N,Net-(J1-Pad26)*
X160782000Y-91186000D03*
D11*
G04 #@! TO.P,U3,1*
G04 #@! TO.N,GND*
X163322000Y-91186000D03*
G04 #@! TD*
D18*
G04 #@! TO.P,SW1,1*
G04 #@! TO.N,Net-(J1-Pad31)*
X153058000Y-90678000D03*
G04 #@! TO.P,SW1,2*
G04 #@! TO.N,Net-(J1-Pad17)*
X153058000Y-95178000D03*
G04 #@! TO.P,SW1,1*
G04 #@! TO.N,Net-(J1-Pad31)*
X146558000Y-90678000D03*
G04 #@! TO.P,SW1,2*
G04 #@! TO.N,Net-(J1-Pad17)*
X146558000Y-95178000D03*
G04 #@! TD*
D19*
G04 #@! TO.N,GND*
X146019999Y-85714001D02*
X148189998Y-87884000D01*
X147320000Y-82550000D02*
X146019999Y-83850001D01*
X146019999Y-83850001D02*
X146019999Y-85714001D01*
X152146000Y-87884000D02*
X154940000Y-85090000D01*
X148189998Y-87884000D02*
X152146000Y-87884000D01*
D20*
G04 #@! TO.N,Net-(GPS1-Pad1)*
X199390000Y-90678000D02*
X201930000Y-93218000D01*
X195580000Y-82550000D02*
X199390000Y-82550000D01*
X199390000Y-82550000D02*
X199390000Y-90678000D01*
X195995248Y-109515181D02*
X164379181Y-109515181D01*
X201930000Y-93218000D02*
X201930000Y-103580429D01*
X201930000Y-103580429D02*
X195995248Y-109515181D01*
X160274000Y-105410000D02*
X160274000Y-96774000D01*
X164379181Y-109515181D02*
X160274000Y-105410000D01*
X158242000Y-94742000D02*
X160274000Y-96774000D01*
X158242000Y-91186000D02*
X158242000Y-94742000D01*
D19*
G04 #@! TO.N,Net-(J1-Pad31)*
X146558000Y-90678000D02*
X153058000Y-90678000D01*
X156179999Y-81249999D02*
X145064001Y-81249999D01*
X157480000Y-82550000D02*
X156179999Y-81249999D01*
X145288000Y-89408000D02*
X146558000Y-90678000D01*
X145064001Y-81249999D02*
X145034000Y-81280000D01*
X145064001Y-81503999D02*
X144955000Y-81613000D01*
X145064001Y-81249999D02*
X145064001Y-81503999D01*
X144955000Y-89075000D02*
X146558000Y-90678000D01*
X144955000Y-81613000D02*
X144955000Y-89075000D01*
G04 #@! TO.N,Net-(J1-Pad26)*
X165100000Y-86292081D02*
X161544000Y-89848081D01*
X161681999Y-89986080D02*
X161544000Y-89848081D01*
X161681999Y-90286001D02*
X161681999Y-89986080D01*
X160782000Y-91186000D02*
X161681999Y-90286001D01*
X165100000Y-86292081D02*
X165100000Y-85090000D01*
X165100000Y-88866002D02*
X165100000Y-86292081D01*
X172207999Y-95974001D02*
X165100000Y-88866002D01*
X174714001Y-95974001D02*
X172207999Y-95974001D01*
X175514000Y-96774000D02*
X174714001Y-95974001D01*
G04 #@! TO.N,Net-(J1-Pad18)*
X176109999Y-85939999D02*
X175260000Y-85090000D01*
X182310010Y-87314010D02*
X177484010Y-87314010D01*
X184658000Y-89662000D02*
X182310010Y-87314010D01*
X171450000Y-104140000D02*
X171450000Y-103008630D01*
X171450000Y-103008630D02*
X171958000Y-102500630D01*
X184658000Y-94742000D02*
X184658000Y-89662000D01*
X171958000Y-102500630D02*
X171958000Y-98806000D01*
X171958000Y-98806000D02*
X172212000Y-98552000D01*
X172212000Y-98552000D02*
X180848000Y-98552000D01*
X177484010Y-87314010D02*
X176109999Y-85939999D01*
X180848000Y-98552000D02*
X184658000Y-94742000D01*
G04 #@! TO.N,Net-(J1-Pad16)*
X186182000Y-95504000D02*
X181356000Y-100330000D01*
X181356000Y-100330000D02*
X173990000Y-100330000D01*
X177800000Y-85090000D02*
X178649999Y-85939999D01*
X178649999Y-85939999D02*
X179265997Y-85939999D01*
X179265997Y-85939999D02*
X179939998Y-86614000D01*
X179939998Y-86614000D02*
X185420000Y-86614000D01*
X185420000Y-86614000D02*
X186182000Y-87376000D01*
X186182000Y-87376000D02*
X186182000Y-95504000D01*
G04 #@! TO.N,Net-(R4-Pad1)*
X149950802Y-106589198D02*
X152400000Y-104140000D01*
X149950802Y-107350059D02*
X149950802Y-106589198D01*
G04 #@! TO.N,Net-(J1-Pad17)*
X175260000Y-82550000D02*
X173245010Y-80535010D01*
X173245010Y-80535010D02*
X144254990Y-80535010D01*
X144254990Y-91460777D02*
X144254990Y-80535010D01*
X146558000Y-93763787D02*
X144254990Y-91460777D01*
X146558000Y-95178000D02*
X146558000Y-93763787D01*
X147972213Y-95178000D02*
X153058000Y-95178000D01*
X146558000Y-95178000D02*
X147972213Y-95178000D01*
D20*
G04 #@! TO.N,Net-(J1-Pad2)*
X195580000Y-85090000D02*
X193040000Y-87630000D01*
X193040000Y-87630000D02*
X193040000Y-96520000D01*
X190768257Y-107027146D02*
X190768257Y-106411743D01*
X190003258Y-107792145D02*
X190768257Y-107027146D01*
X190768257Y-106411743D02*
X193040000Y-104140000D01*
X193040000Y-104140000D02*
X193040000Y-96520000D01*
G04 #@! TD*
D21*
G04 #@! TO.N,GND*
G36*
X155067000Y-84963000D02*
X155087000Y-84963000D01*
X155087000Y-85217000D01*
X155067000Y-85217000D01*
X155067000Y-86410155D01*
X155296890Y-86531476D01*
X155706924Y-86361645D01*
X156135183Y-85971358D01*
X156196157Y-85841522D01*
X156409375Y-86160625D01*
X156900582Y-86488839D01*
X157333744Y-86575000D01*
X157626256Y-86575000D01*
X158059418Y-86488839D01*
X158550625Y-86160625D01*
X158750000Y-85862239D01*
X158949375Y-86160625D01*
X159440582Y-86488839D01*
X159873744Y-86575000D01*
X160166256Y-86575000D01*
X160599418Y-86488839D01*
X161090625Y-86160625D01*
X161290000Y-85862239D01*
X161489375Y-86160625D01*
X161980582Y-86488839D01*
X162413744Y-86575000D01*
X162706256Y-86575000D01*
X163139418Y-86488839D01*
X163630625Y-86160625D01*
X163830000Y-85862239D01*
X164009549Y-86130953D01*
X160979846Y-89160657D01*
X160905951Y-89210032D01*
X160764368Y-89421926D01*
X160710348Y-89502772D01*
X160680864Y-89651000D01*
X160630818Y-89651000D01*
X160183073Y-89740062D01*
X159675327Y-90079327D01*
X159512000Y-90323763D01*
X159348673Y-90079327D01*
X158840927Y-89740062D01*
X158393182Y-89651000D01*
X158090818Y-89651000D01*
X157643073Y-89740062D01*
X157135327Y-90079327D01*
X156796062Y-90587073D01*
X156676928Y-91186000D01*
X156796062Y-91784927D01*
X157107000Y-92250279D01*
X157107001Y-94630212D01*
X157084765Y-94742000D01*
X157172854Y-95184854D01*
X157172855Y-95184855D01*
X157423712Y-95560289D01*
X157518480Y-95623611D01*
X158839000Y-96944132D01*
X158839000Y-97059439D01*
X159057466Y-97586862D01*
X159139001Y-97668397D01*
X159139000Y-105298217D01*
X159116765Y-105410000D01*
X159171836Y-105686860D01*
X159204854Y-105852854D01*
X159455711Y-106228289D01*
X159550482Y-106291613D01*
X163045639Y-109786771D01*
X144220000Y-109789883D01*
X144220000Y-108773233D01*
X151349941Y-108773233D01*
X151350228Y-109025584D01*
X151802830Y-109350161D01*
X152345190Y-109476827D01*
X152759339Y-109429640D01*
X152893308Y-109215787D01*
X152342901Y-108222827D01*
X151349941Y-108773233D01*
X144220000Y-108773233D01*
X144220000Y-107082128D01*
X144274556Y-107136684D01*
X144789116Y-107349821D01*
X145346070Y-107349821D01*
X145860630Y-107136684D01*
X146109198Y-106888116D01*
X146109198Y-106928418D01*
X146322335Y-107442978D01*
X146716161Y-107836804D01*
X147230721Y-108049941D01*
X147787675Y-108049941D01*
X148302235Y-107836804D01*
X148550802Y-107588237D01*
X148550802Y-107628536D01*
X148763939Y-108143096D01*
X149157765Y-108536922D01*
X149672325Y-108750059D01*
X150229279Y-108750059D01*
X150743839Y-108536922D01*
X150997676Y-108283085D01*
X151012946Y-108417111D01*
X151226799Y-108551080D01*
X152041136Y-108099685D01*
X152565055Y-108099685D01*
X153115461Y-109092645D01*
X153367812Y-109092358D01*
X153692389Y-108639756D01*
X153819055Y-108097396D01*
X153771868Y-107683247D01*
X153558015Y-107549278D01*
X152565055Y-108099685D01*
X152041136Y-108099685D01*
X152219759Y-108000673D01*
X151669353Y-107007713D01*
X151417002Y-107008000D01*
X151350802Y-107100312D01*
X151350802Y-107071582D01*
X151273340Y-106884571D01*
X151891506Y-106884571D01*
X152441913Y-107877531D01*
X153434873Y-107327125D01*
X153434586Y-107074774D01*
X152981984Y-106750197D01*
X152439624Y-106623531D01*
X152025475Y-106670718D01*
X151891506Y-106884571D01*
X151273340Y-106884571D01*
X151166044Y-106625535D01*
X152216579Y-105575000D01*
X152685439Y-105575000D01*
X153212862Y-105356534D01*
X153616534Y-104952862D01*
X153835000Y-104425439D01*
X153835000Y-103854561D01*
X153616534Y-103327138D01*
X153212862Y-102923466D01*
X152685439Y-102705000D01*
X152114561Y-102705000D01*
X151587138Y-102923466D01*
X151183466Y-103327138D01*
X150965000Y-103854561D01*
X150965000Y-104323421D01*
X149386647Y-105901775D01*
X149312754Y-105951149D01*
X149263380Y-106025042D01*
X149263378Y-106025044D01*
X149176158Y-106155577D01*
X149157765Y-106163196D01*
X148909198Y-106411763D01*
X148909198Y-106371464D01*
X148696061Y-105856904D01*
X148302235Y-105463078D01*
X147787675Y-105249941D01*
X147230721Y-105249941D01*
X146716161Y-105463078D01*
X146467593Y-105711646D01*
X146467593Y-105671344D01*
X146254456Y-105156784D01*
X145860630Y-104762958D01*
X145346070Y-104549821D01*
X144789116Y-104549821D01*
X144274556Y-104762958D01*
X144220000Y-104817514D01*
X144220000Y-100679039D01*
X153548096Y-100679039D01*
X153708959Y-101067423D01*
X154084866Y-101482389D01*
X154590959Y-101721914D01*
X154813000Y-101600629D01*
X154813000Y-100457000D01*
X155067000Y-100457000D01*
X155067000Y-101600629D01*
X155289041Y-101721914D01*
X155795134Y-101482389D01*
X156171041Y-101067423D01*
X156331904Y-100679039D01*
X156209915Y-100457000D01*
X155067000Y-100457000D01*
X154813000Y-100457000D01*
X153670085Y-100457000D01*
X153548096Y-100679039D01*
X144220000Y-100679039D01*
X144220000Y-99980961D01*
X153548096Y-99980961D01*
X153670085Y-100203000D01*
X154813000Y-100203000D01*
X154813000Y-99059371D01*
X155067000Y-99059371D01*
X155067000Y-100203000D01*
X156209915Y-100203000D01*
X156331904Y-99980961D01*
X156171041Y-99592577D01*
X155795134Y-99177611D01*
X155289041Y-98938086D01*
X155067000Y-99059371D01*
X154813000Y-99059371D01*
X154590959Y-98938086D01*
X154084866Y-99177611D01*
X153708959Y-99592577D01*
X153548096Y-99980961D01*
X144220000Y-99980961D01*
X144220000Y-92677365D01*
X145483198Y-93940563D01*
X145171914Y-94251847D01*
X144923000Y-94852778D01*
X144923000Y-95503222D01*
X145171914Y-96104153D01*
X145631847Y-96564086D01*
X146232778Y-96813000D01*
X146883222Y-96813000D01*
X147484153Y-96564086D01*
X147944086Y-96104153D01*
X147961132Y-96063000D01*
X151654868Y-96063000D01*
X151671914Y-96104153D01*
X152131847Y-96564086D01*
X152732778Y-96813000D01*
X153383222Y-96813000D01*
X153984153Y-96564086D01*
X154444086Y-96104153D01*
X154693000Y-95503222D01*
X154693000Y-94852778D01*
X154444086Y-94251847D01*
X153984153Y-93791914D01*
X153383222Y-93543000D01*
X152732778Y-93543000D01*
X152131847Y-93791914D01*
X151671914Y-94251847D01*
X151654868Y-94293000D01*
X147961132Y-94293000D01*
X147944086Y-94251847D01*
X147484153Y-93791914D01*
X147456981Y-93780659D01*
X147460337Y-93763787D01*
X147443000Y-93676626D01*
X147443000Y-93676622D01*
X147391652Y-93418477D01*
X147196049Y-93125738D01*
X147122156Y-93076364D01*
X146358792Y-92313000D01*
X146883222Y-92313000D01*
X147484153Y-92064086D01*
X147944086Y-91604153D01*
X147961132Y-91563000D01*
X151654868Y-91563000D01*
X151671914Y-91604153D01*
X152131847Y-92064086D01*
X152732778Y-92313000D01*
X153383222Y-92313000D01*
X153984153Y-92064086D01*
X154444086Y-91604153D01*
X154693000Y-91003222D01*
X154693000Y-90352778D01*
X154444086Y-89751847D01*
X153984153Y-89291914D01*
X153383222Y-89043000D01*
X152732778Y-89043000D01*
X152131847Y-89291914D01*
X151671914Y-89751847D01*
X151654868Y-89793000D01*
X147961132Y-89793000D01*
X147944086Y-89751847D01*
X147484153Y-89291914D01*
X146883222Y-89043000D01*
X146232778Y-89043000D01*
X146191625Y-89060046D01*
X145840000Y-88708422D01*
X145840000Y-85261393D01*
X145921161Y-85669418D01*
X146249375Y-86160625D01*
X146740582Y-86488839D01*
X147173744Y-86575000D01*
X147466256Y-86575000D01*
X147899418Y-86488839D01*
X148390625Y-86160625D01*
X148590000Y-85862239D01*
X148789375Y-86160625D01*
X149280582Y-86488839D01*
X149713744Y-86575000D01*
X150006256Y-86575000D01*
X150439418Y-86488839D01*
X150930625Y-86160625D01*
X151130000Y-85862239D01*
X151329375Y-86160625D01*
X151820582Y-86488839D01*
X152253744Y-86575000D01*
X152546256Y-86575000D01*
X152979418Y-86488839D01*
X153470625Y-86160625D01*
X153683843Y-85841522D01*
X153744817Y-85971358D01*
X154173076Y-86361645D01*
X154583110Y-86531476D01*
X154813000Y-86410155D01*
X154813000Y-85217000D01*
X154793000Y-85217000D01*
X154793000Y-84963000D01*
X154813000Y-84963000D01*
X154813000Y-84943000D01*
X155067000Y-84943000D01*
X155067000Y-84963000D01*
X155067000Y-84963000D01*
G37*
X155067000Y-84963000D02*
X155087000Y-84963000D01*
X155087000Y-85217000D01*
X155067000Y-85217000D01*
X155067000Y-86410155D01*
X155296890Y-86531476D01*
X155706924Y-86361645D01*
X156135183Y-85971358D01*
X156196157Y-85841522D01*
X156409375Y-86160625D01*
X156900582Y-86488839D01*
X157333744Y-86575000D01*
X157626256Y-86575000D01*
X158059418Y-86488839D01*
X158550625Y-86160625D01*
X158750000Y-85862239D01*
X158949375Y-86160625D01*
X159440582Y-86488839D01*
X159873744Y-86575000D01*
X160166256Y-86575000D01*
X160599418Y-86488839D01*
X161090625Y-86160625D01*
X161290000Y-85862239D01*
X161489375Y-86160625D01*
X161980582Y-86488839D01*
X162413744Y-86575000D01*
X162706256Y-86575000D01*
X163139418Y-86488839D01*
X163630625Y-86160625D01*
X163830000Y-85862239D01*
X164009549Y-86130953D01*
X160979846Y-89160657D01*
X160905951Y-89210032D01*
X160764368Y-89421926D01*
X160710348Y-89502772D01*
X160680864Y-89651000D01*
X160630818Y-89651000D01*
X160183073Y-89740062D01*
X159675327Y-90079327D01*
X159512000Y-90323763D01*
X159348673Y-90079327D01*
X158840927Y-89740062D01*
X158393182Y-89651000D01*
X158090818Y-89651000D01*
X157643073Y-89740062D01*
X157135327Y-90079327D01*
X156796062Y-90587073D01*
X156676928Y-91186000D01*
X156796062Y-91784927D01*
X157107000Y-92250279D01*
X157107001Y-94630212D01*
X157084765Y-94742000D01*
X157172854Y-95184854D01*
X157172855Y-95184855D01*
X157423712Y-95560289D01*
X157518480Y-95623611D01*
X158839000Y-96944132D01*
X158839000Y-97059439D01*
X159057466Y-97586862D01*
X159139001Y-97668397D01*
X159139000Y-105298217D01*
X159116765Y-105410000D01*
X159171836Y-105686860D01*
X159204854Y-105852854D01*
X159455711Y-106228289D01*
X159550482Y-106291613D01*
X163045639Y-109786771D01*
X144220000Y-109789883D01*
X144220000Y-108773233D01*
X151349941Y-108773233D01*
X151350228Y-109025584D01*
X151802830Y-109350161D01*
X152345190Y-109476827D01*
X152759339Y-109429640D01*
X152893308Y-109215787D01*
X152342901Y-108222827D01*
X151349941Y-108773233D01*
X144220000Y-108773233D01*
X144220000Y-107082128D01*
X144274556Y-107136684D01*
X144789116Y-107349821D01*
X145346070Y-107349821D01*
X145860630Y-107136684D01*
X146109198Y-106888116D01*
X146109198Y-106928418D01*
X146322335Y-107442978D01*
X146716161Y-107836804D01*
X147230721Y-108049941D01*
X147787675Y-108049941D01*
X148302235Y-107836804D01*
X148550802Y-107588237D01*
X148550802Y-107628536D01*
X148763939Y-108143096D01*
X149157765Y-108536922D01*
X149672325Y-108750059D01*
X150229279Y-108750059D01*
X150743839Y-108536922D01*
X150997676Y-108283085D01*
X151012946Y-108417111D01*
X151226799Y-108551080D01*
X152041136Y-108099685D01*
X152565055Y-108099685D01*
X153115461Y-109092645D01*
X153367812Y-109092358D01*
X153692389Y-108639756D01*
X153819055Y-108097396D01*
X153771868Y-107683247D01*
X153558015Y-107549278D01*
X152565055Y-108099685D01*
X152041136Y-108099685D01*
X152219759Y-108000673D01*
X151669353Y-107007713D01*
X151417002Y-107008000D01*
X151350802Y-107100312D01*
X151350802Y-107071582D01*
X151273340Y-106884571D01*
X151891506Y-106884571D01*
X152441913Y-107877531D01*
X153434873Y-107327125D01*
X153434586Y-107074774D01*
X152981984Y-106750197D01*
X152439624Y-106623531D01*
X152025475Y-106670718D01*
X151891506Y-106884571D01*
X151273340Y-106884571D01*
X151166044Y-106625535D01*
X152216579Y-105575000D01*
X152685439Y-105575000D01*
X153212862Y-105356534D01*
X153616534Y-104952862D01*
X153835000Y-104425439D01*
X153835000Y-103854561D01*
X153616534Y-103327138D01*
X153212862Y-102923466D01*
X152685439Y-102705000D01*
X152114561Y-102705000D01*
X151587138Y-102923466D01*
X151183466Y-103327138D01*
X150965000Y-103854561D01*
X150965000Y-104323421D01*
X149386647Y-105901775D01*
X149312754Y-105951149D01*
X149263380Y-106025042D01*
X149263378Y-106025044D01*
X149176158Y-106155577D01*
X149157765Y-106163196D01*
X148909198Y-106411763D01*
X148909198Y-106371464D01*
X148696061Y-105856904D01*
X148302235Y-105463078D01*
X147787675Y-105249941D01*
X147230721Y-105249941D01*
X146716161Y-105463078D01*
X146467593Y-105711646D01*
X146467593Y-105671344D01*
X146254456Y-105156784D01*
X145860630Y-104762958D01*
X145346070Y-104549821D01*
X144789116Y-104549821D01*
X144274556Y-104762958D01*
X144220000Y-104817514D01*
X144220000Y-100679039D01*
X153548096Y-100679039D01*
X153708959Y-101067423D01*
X154084866Y-101482389D01*
X154590959Y-101721914D01*
X154813000Y-101600629D01*
X154813000Y-100457000D01*
X155067000Y-100457000D01*
X155067000Y-101600629D01*
X155289041Y-101721914D01*
X155795134Y-101482389D01*
X156171041Y-101067423D01*
X156331904Y-100679039D01*
X156209915Y-100457000D01*
X155067000Y-100457000D01*
X154813000Y-100457000D01*
X153670085Y-100457000D01*
X153548096Y-100679039D01*
X144220000Y-100679039D01*
X144220000Y-99980961D01*
X153548096Y-99980961D01*
X153670085Y-100203000D01*
X154813000Y-100203000D01*
X154813000Y-99059371D01*
X155067000Y-99059371D01*
X155067000Y-100203000D01*
X156209915Y-100203000D01*
X156331904Y-99980961D01*
X156171041Y-99592577D01*
X155795134Y-99177611D01*
X155289041Y-98938086D01*
X155067000Y-99059371D01*
X154813000Y-99059371D01*
X154590959Y-98938086D01*
X154084866Y-99177611D01*
X153708959Y-99592577D01*
X153548096Y-99980961D01*
X144220000Y-99980961D01*
X144220000Y-92677365D01*
X145483198Y-93940563D01*
X145171914Y-94251847D01*
X144923000Y-94852778D01*
X144923000Y-95503222D01*
X145171914Y-96104153D01*
X145631847Y-96564086D01*
X146232778Y-96813000D01*
X146883222Y-96813000D01*
X147484153Y-96564086D01*
X147944086Y-96104153D01*
X147961132Y-96063000D01*
X151654868Y-96063000D01*
X151671914Y-96104153D01*
X152131847Y-96564086D01*
X152732778Y-96813000D01*
X153383222Y-96813000D01*
X153984153Y-96564086D01*
X154444086Y-96104153D01*
X154693000Y-95503222D01*
X154693000Y-94852778D01*
X154444086Y-94251847D01*
X153984153Y-93791914D01*
X153383222Y-93543000D01*
X152732778Y-93543000D01*
X152131847Y-93791914D01*
X151671914Y-94251847D01*
X151654868Y-94293000D01*
X147961132Y-94293000D01*
X147944086Y-94251847D01*
X147484153Y-93791914D01*
X147456981Y-93780659D01*
X147460337Y-93763787D01*
X147443000Y-93676626D01*
X147443000Y-93676622D01*
X147391652Y-93418477D01*
X147196049Y-93125738D01*
X147122156Y-93076364D01*
X146358792Y-92313000D01*
X146883222Y-92313000D01*
X147484153Y-92064086D01*
X147944086Y-91604153D01*
X147961132Y-91563000D01*
X151654868Y-91563000D01*
X151671914Y-91604153D01*
X152131847Y-92064086D01*
X152732778Y-92313000D01*
X153383222Y-92313000D01*
X153984153Y-92064086D01*
X154444086Y-91604153D01*
X154693000Y-91003222D01*
X154693000Y-90352778D01*
X154444086Y-89751847D01*
X153984153Y-89291914D01*
X153383222Y-89043000D01*
X152732778Y-89043000D01*
X152131847Y-89291914D01*
X151671914Y-89751847D01*
X151654868Y-89793000D01*
X147961132Y-89793000D01*
X147944086Y-89751847D01*
X147484153Y-89291914D01*
X146883222Y-89043000D01*
X146232778Y-89043000D01*
X146191625Y-89060046D01*
X145840000Y-88708422D01*
X145840000Y-85261393D01*
X145921161Y-85669418D01*
X146249375Y-86160625D01*
X146740582Y-86488839D01*
X147173744Y-86575000D01*
X147466256Y-86575000D01*
X147899418Y-86488839D01*
X148390625Y-86160625D01*
X148590000Y-85862239D01*
X148789375Y-86160625D01*
X149280582Y-86488839D01*
X149713744Y-86575000D01*
X150006256Y-86575000D01*
X150439418Y-86488839D01*
X150930625Y-86160625D01*
X151130000Y-85862239D01*
X151329375Y-86160625D01*
X151820582Y-86488839D01*
X152253744Y-86575000D01*
X152546256Y-86575000D01*
X152979418Y-86488839D01*
X153470625Y-86160625D01*
X153683843Y-85841522D01*
X153744817Y-85971358D01*
X154173076Y-86361645D01*
X154583110Y-86531476D01*
X154813000Y-86410155D01*
X154813000Y-85217000D01*
X154793000Y-85217000D01*
X154793000Y-84963000D01*
X154813000Y-84963000D01*
X154813000Y-84943000D01*
X155067000Y-84943000D01*
X155067000Y-84963000D01*
G36*
X190627000Y-84963000D02*
X190647000Y-84963000D01*
X190647000Y-85217000D01*
X190627000Y-85217000D01*
X190627000Y-86410155D01*
X190856890Y-86531476D01*
X191266924Y-86361645D01*
X191695183Y-85971358D01*
X191756157Y-85841522D01*
X191969375Y-86160625D01*
X192460582Y-86488839D01*
X192556876Y-86507993D01*
X192316482Y-86748387D01*
X192221711Y-86811711D01*
X192075394Y-87030691D01*
X191970854Y-87187146D01*
X191882765Y-87630000D01*
X191905000Y-87741783D01*
X191905001Y-96408217D01*
X191905000Y-103669868D01*
X190044737Y-105530132D01*
X189949969Y-105593454D01*
X189699111Y-105968888D01*
X189699111Y-105968889D01*
X189611022Y-106411743D01*
X189633257Y-106523526D01*
X189633257Y-106557014D01*
X189364006Y-106826266D01*
X189274556Y-106863317D01*
X188880730Y-107257143D01*
X188667593Y-107771703D01*
X188667593Y-108328657D01*
X188688935Y-108380181D01*
X164849313Y-108380181D01*
X161409000Y-104939869D01*
X161409000Y-104140000D01*
X166176887Y-104140000D01*
X166288260Y-104699909D01*
X166605423Y-105174577D01*
X167080091Y-105491740D01*
X167498667Y-105575000D01*
X167781333Y-105575000D01*
X168199909Y-105491740D01*
X168674577Y-105174577D01*
X168991740Y-104699909D01*
X169103113Y-104140000D01*
X168991740Y-103580091D01*
X168674577Y-103105423D01*
X168199909Y-102788260D01*
X167781333Y-102705000D01*
X167498667Y-102705000D01*
X167080091Y-102788260D01*
X166605423Y-103105423D01*
X166288260Y-103580091D01*
X166176887Y-104140000D01*
X161409000Y-104140000D01*
X161409000Y-97668396D01*
X161490534Y-97586862D01*
X161709000Y-97059439D01*
X161709000Y-96488561D01*
X161490534Y-95961138D01*
X161086862Y-95557466D01*
X160559439Y-95339000D01*
X160444132Y-95339000D01*
X159377000Y-94271869D01*
X159377000Y-92250279D01*
X159512000Y-92048237D01*
X159675327Y-92292673D01*
X160183073Y-92631938D01*
X160630818Y-92721000D01*
X160933182Y-92721000D01*
X161380927Y-92631938D01*
X161835112Y-92328462D01*
X161883673Y-92445699D01*
X162062302Y-92624327D01*
X162295691Y-92721000D01*
X163036250Y-92721000D01*
X163195000Y-92562250D01*
X163195000Y-91313000D01*
X163449000Y-91313000D01*
X163449000Y-92562250D01*
X163607750Y-92721000D01*
X164348309Y-92721000D01*
X164581698Y-92624327D01*
X164760327Y-92445699D01*
X164857000Y-92212310D01*
X164857000Y-91471750D01*
X164698250Y-91313000D01*
X163449000Y-91313000D01*
X163195000Y-91313000D01*
X163175000Y-91313000D01*
X163175000Y-91059000D01*
X163195000Y-91059000D01*
X163195000Y-89809750D01*
X163449000Y-89809750D01*
X163449000Y-91059000D01*
X164698250Y-91059000D01*
X164857000Y-90900250D01*
X164857000Y-90159690D01*
X164760327Y-89926301D01*
X164581698Y-89747673D01*
X164348309Y-89651000D01*
X163607750Y-89651000D01*
X163449000Y-89809750D01*
X163195000Y-89809750D01*
X163036250Y-89651000D01*
X162992659Y-89651000D01*
X164215000Y-88428659D01*
X164215000Y-88778841D01*
X164197663Y-88866002D01*
X164215000Y-88953163D01*
X164215000Y-88953166D01*
X164266348Y-89211311D01*
X164461951Y-89504051D01*
X164535847Y-89553427D01*
X171520576Y-96538157D01*
X171569950Y-96612050D01*
X171643843Y-96661424D01*
X171643844Y-96661425D01*
X171812324Y-96774000D01*
X171862689Y-96807653D01*
X172120834Y-96859001D01*
X172120838Y-96859001D01*
X172207999Y-96876338D01*
X172295160Y-96859001D01*
X174067795Y-96859001D01*
X174162260Y-97333909D01*
X174384824Y-97667000D01*
X172299159Y-97667000D01*
X172211999Y-97649663D01*
X172124840Y-97667000D01*
X172124835Y-97667000D01*
X171866690Y-97718348D01*
X171573951Y-97913951D01*
X171524576Y-97987846D01*
X171393845Y-98118577D01*
X171319952Y-98167951D01*
X171270578Y-98241844D01*
X171270576Y-98241846D01*
X171124348Y-98460691D01*
X171055663Y-98806000D01*
X171073001Y-98893165D01*
X171073001Y-99193605D01*
X170992862Y-99113466D01*
X170465439Y-98895000D01*
X169894561Y-98895000D01*
X169367138Y-99113466D01*
X168963466Y-99517138D01*
X168745000Y-100044561D01*
X168745000Y-100615439D01*
X168963466Y-101142862D01*
X169367138Y-101546534D01*
X169894561Y-101765000D01*
X170465439Y-101765000D01*
X170992862Y-101546534D01*
X171073000Y-101466396D01*
X171073000Y-102134052D01*
X170885845Y-102321207D01*
X170811952Y-102370581D01*
X170762578Y-102444474D01*
X170762576Y-102444476D01*
X170616348Y-102663321D01*
X170547663Y-103008630D01*
X170548378Y-103012226D01*
X170233466Y-103327138D01*
X170015000Y-103854561D01*
X170015000Y-104425439D01*
X170233466Y-104952862D01*
X170637138Y-105356534D01*
X171164561Y-105575000D01*
X171735439Y-105575000D01*
X172262862Y-105356534D01*
X172666534Y-104952862D01*
X172858655Y-104489039D01*
X185298096Y-104489039D01*
X185458959Y-104877423D01*
X185834866Y-105292389D01*
X186340959Y-105531914D01*
X186563000Y-105410629D01*
X186563000Y-104267000D01*
X186817000Y-104267000D01*
X186817000Y-105410629D01*
X187039041Y-105531914D01*
X187545134Y-105292389D01*
X187921041Y-104877423D01*
X188081904Y-104489039D01*
X187959915Y-104267000D01*
X186817000Y-104267000D01*
X186563000Y-104267000D01*
X185420085Y-104267000D01*
X185298096Y-104489039D01*
X172858655Y-104489039D01*
X172885000Y-104425439D01*
X172885000Y-103854561D01*
X172858656Y-103790961D01*
X185298096Y-103790961D01*
X185420085Y-104013000D01*
X186563000Y-104013000D01*
X186563000Y-102869371D01*
X186817000Y-102869371D01*
X186817000Y-104013000D01*
X187959915Y-104013000D01*
X188081904Y-103790961D01*
X187921041Y-103402577D01*
X187545134Y-102987611D01*
X187039041Y-102748086D01*
X186817000Y-102869371D01*
X186563000Y-102869371D01*
X186340959Y-102748086D01*
X185834866Y-102987611D01*
X185458959Y-103402577D01*
X185298096Y-103790961D01*
X172858656Y-103790961D01*
X172666534Y-103327138D01*
X172525329Y-103185933D01*
X172596049Y-103138679D01*
X172791652Y-102845940D01*
X172843000Y-102587795D01*
X172843000Y-102587791D01*
X172860337Y-102500631D01*
X172843000Y-102413471D01*
X172843000Y-101196324D01*
X172955423Y-101364577D01*
X173430091Y-101681740D01*
X173848667Y-101765000D01*
X174131333Y-101765000D01*
X174549909Y-101681740D01*
X175024577Y-101364577D01*
X175124521Y-101215000D01*
X181268839Y-101215000D01*
X181356000Y-101232337D01*
X181443161Y-101215000D01*
X181443165Y-101215000D01*
X181701310Y-101163652D01*
X181994049Y-100968049D01*
X182043425Y-100894153D01*
X182893017Y-100044561D01*
X187795000Y-100044561D01*
X187795000Y-100615439D01*
X188013466Y-101142862D01*
X188417138Y-101546534D01*
X188944561Y-101765000D01*
X189515439Y-101765000D01*
X190042862Y-101546534D01*
X190446534Y-101142862D01*
X190665000Y-100615439D01*
X190665000Y-100044561D01*
X190446534Y-99517138D01*
X190042862Y-99113466D01*
X189515439Y-98895000D01*
X188944561Y-98895000D01*
X188417138Y-99113466D01*
X188013466Y-99517138D01*
X187795000Y-100044561D01*
X182893017Y-100044561D01*
X186746156Y-96191423D01*
X186820049Y-96142049D01*
X186881237Y-96050476D01*
X187015652Y-95849310D01*
X187023243Y-95811146D01*
X187067000Y-95591165D01*
X187067000Y-95591161D01*
X187084337Y-95504000D01*
X187067000Y-95416839D01*
X187067000Y-87463161D01*
X187084337Y-87376000D01*
X187067000Y-87288839D01*
X187067000Y-87288835D01*
X187015652Y-87030690D01*
X186967957Y-86959310D01*
X186869424Y-86811845D01*
X186869423Y-86811844D01*
X186820049Y-86737951D01*
X186746156Y-86688577D01*
X186327320Y-86269742D01*
X186490625Y-86160625D01*
X186690000Y-85862239D01*
X186889375Y-86160625D01*
X187380582Y-86488839D01*
X187813744Y-86575000D01*
X188106256Y-86575000D01*
X188539418Y-86488839D01*
X189030625Y-86160625D01*
X189243843Y-85841522D01*
X189304817Y-85971358D01*
X189733076Y-86361645D01*
X190143110Y-86531476D01*
X190373000Y-86410155D01*
X190373000Y-85217000D01*
X190353000Y-85217000D01*
X190353000Y-84963000D01*
X190373000Y-84963000D01*
X190373000Y-84943000D01*
X190627000Y-84943000D01*
X190627000Y-84963000D01*
X190627000Y-84963000D01*
G37*
X190627000Y-84963000D02*
X190647000Y-84963000D01*
X190647000Y-85217000D01*
X190627000Y-85217000D01*
X190627000Y-86410155D01*
X190856890Y-86531476D01*
X191266924Y-86361645D01*
X191695183Y-85971358D01*
X191756157Y-85841522D01*
X191969375Y-86160625D01*
X192460582Y-86488839D01*
X192556876Y-86507993D01*
X192316482Y-86748387D01*
X192221711Y-86811711D01*
X192075394Y-87030691D01*
X191970854Y-87187146D01*
X191882765Y-87630000D01*
X191905000Y-87741783D01*
X191905001Y-96408217D01*
X191905000Y-103669868D01*
X190044737Y-105530132D01*
X189949969Y-105593454D01*
X189699111Y-105968888D01*
X189699111Y-105968889D01*
X189611022Y-106411743D01*
X189633257Y-106523526D01*
X189633257Y-106557014D01*
X189364006Y-106826266D01*
X189274556Y-106863317D01*
X188880730Y-107257143D01*
X188667593Y-107771703D01*
X188667593Y-108328657D01*
X188688935Y-108380181D01*
X164849313Y-108380181D01*
X161409000Y-104939869D01*
X161409000Y-104140000D01*
X166176887Y-104140000D01*
X166288260Y-104699909D01*
X166605423Y-105174577D01*
X167080091Y-105491740D01*
X167498667Y-105575000D01*
X167781333Y-105575000D01*
X168199909Y-105491740D01*
X168674577Y-105174577D01*
X168991740Y-104699909D01*
X169103113Y-104140000D01*
X168991740Y-103580091D01*
X168674577Y-103105423D01*
X168199909Y-102788260D01*
X167781333Y-102705000D01*
X167498667Y-102705000D01*
X167080091Y-102788260D01*
X166605423Y-103105423D01*
X166288260Y-103580091D01*
X166176887Y-104140000D01*
X161409000Y-104140000D01*
X161409000Y-97668396D01*
X161490534Y-97586862D01*
X161709000Y-97059439D01*
X161709000Y-96488561D01*
X161490534Y-95961138D01*
X161086862Y-95557466D01*
X160559439Y-95339000D01*
X160444132Y-95339000D01*
X159377000Y-94271869D01*
X159377000Y-92250279D01*
X159512000Y-92048237D01*
X159675327Y-92292673D01*
X160183073Y-92631938D01*
X160630818Y-92721000D01*
X160933182Y-92721000D01*
X161380927Y-92631938D01*
X161835112Y-92328462D01*
X161883673Y-92445699D01*
X162062302Y-92624327D01*
X162295691Y-92721000D01*
X163036250Y-92721000D01*
X163195000Y-92562250D01*
X163195000Y-91313000D01*
X163449000Y-91313000D01*
X163449000Y-92562250D01*
X163607750Y-92721000D01*
X164348309Y-92721000D01*
X164581698Y-92624327D01*
X164760327Y-92445699D01*
X164857000Y-92212310D01*
X164857000Y-91471750D01*
X164698250Y-91313000D01*
X163449000Y-91313000D01*
X163195000Y-91313000D01*
X163175000Y-91313000D01*
X163175000Y-91059000D01*
X163195000Y-91059000D01*
X163195000Y-89809750D01*
X163449000Y-89809750D01*
X163449000Y-91059000D01*
X164698250Y-91059000D01*
X164857000Y-90900250D01*
X164857000Y-90159690D01*
X164760327Y-89926301D01*
X164581698Y-89747673D01*
X164348309Y-89651000D01*
X163607750Y-89651000D01*
X163449000Y-89809750D01*
X163195000Y-89809750D01*
X163036250Y-89651000D01*
X162992659Y-89651000D01*
X164215000Y-88428659D01*
X164215000Y-88778841D01*
X164197663Y-88866002D01*
X164215000Y-88953163D01*
X164215000Y-88953166D01*
X164266348Y-89211311D01*
X164461951Y-89504051D01*
X164535847Y-89553427D01*
X171520576Y-96538157D01*
X171569950Y-96612050D01*
X171643843Y-96661424D01*
X171643844Y-96661425D01*
X171812324Y-96774000D01*
X171862689Y-96807653D01*
X172120834Y-96859001D01*
X172120838Y-96859001D01*
X172207999Y-96876338D01*
X172295160Y-96859001D01*
X174067795Y-96859001D01*
X174162260Y-97333909D01*
X174384824Y-97667000D01*
X172299159Y-97667000D01*
X172211999Y-97649663D01*
X172124840Y-97667000D01*
X172124835Y-97667000D01*
X171866690Y-97718348D01*
X171573951Y-97913951D01*
X171524576Y-97987846D01*
X171393845Y-98118577D01*
X171319952Y-98167951D01*
X171270578Y-98241844D01*
X171270576Y-98241846D01*
X171124348Y-98460691D01*
X171055663Y-98806000D01*
X171073001Y-98893165D01*
X171073001Y-99193605D01*
X170992862Y-99113466D01*
X170465439Y-98895000D01*
X169894561Y-98895000D01*
X169367138Y-99113466D01*
X168963466Y-99517138D01*
X168745000Y-100044561D01*
X168745000Y-100615439D01*
X168963466Y-101142862D01*
X169367138Y-101546534D01*
X169894561Y-101765000D01*
X170465439Y-101765000D01*
X170992862Y-101546534D01*
X171073000Y-101466396D01*
X171073000Y-102134052D01*
X170885845Y-102321207D01*
X170811952Y-102370581D01*
X170762578Y-102444474D01*
X170762576Y-102444476D01*
X170616348Y-102663321D01*
X170547663Y-103008630D01*
X170548378Y-103012226D01*
X170233466Y-103327138D01*
X170015000Y-103854561D01*
X170015000Y-104425439D01*
X170233466Y-104952862D01*
X170637138Y-105356534D01*
X171164561Y-105575000D01*
X171735439Y-105575000D01*
X172262862Y-105356534D01*
X172666534Y-104952862D01*
X172858655Y-104489039D01*
X185298096Y-104489039D01*
X185458959Y-104877423D01*
X185834866Y-105292389D01*
X186340959Y-105531914D01*
X186563000Y-105410629D01*
X186563000Y-104267000D01*
X186817000Y-104267000D01*
X186817000Y-105410629D01*
X187039041Y-105531914D01*
X187545134Y-105292389D01*
X187921041Y-104877423D01*
X188081904Y-104489039D01*
X187959915Y-104267000D01*
X186817000Y-104267000D01*
X186563000Y-104267000D01*
X185420085Y-104267000D01*
X185298096Y-104489039D01*
X172858655Y-104489039D01*
X172885000Y-104425439D01*
X172885000Y-103854561D01*
X172858656Y-103790961D01*
X185298096Y-103790961D01*
X185420085Y-104013000D01*
X186563000Y-104013000D01*
X186563000Y-102869371D01*
X186817000Y-102869371D01*
X186817000Y-104013000D01*
X187959915Y-104013000D01*
X188081904Y-103790961D01*
X187921041Y-103402577D01*
X187545134Y-102987611D01*
X187039041Y-102748086D01*
X186817000Y-102869371D01*
X186563000Y-102869371D01*
X186340959Y-102748086D01*
X185834866Y-102987611D01*
X185458959Y-103402577D01*
X185298096Y-103790961D01*
X172858656Y-103790961D01*
X172666534Y-103327138D01*
X172525329Y-103185933D01*
X172596049Y-103138679D01*
X172791652Y-102845940D01*
X172843000Y-102587795D01*
X172843000Y-102587791D01*
X172860337Y-102500631D01*
X172843000Y-102413471D01*
X172843000Y-101196324D01*
X172955423Y-101364577D01*
X173430091Y-101681740D01*
X173848667Y-101765000D01*
X174131333Y-101765000D01*
X174549909Y-101681740D01*
X175024577Y-101364577D01*
X175124521Y-101215000D01*
X181268839Y-101215000D01*
X181356000Y-101232337D01*
X181443161Y-101215000D01*
X181443165Y-101215000D01*
X181701310Y-101163652D01*
X181994049Y-100968049D01*
X182043425Y-100894153D01*
X182893017Y-100044561D01*
X187795000Y-100044561D01*
X187795000Y-100615439D01*
X188013466Y-101142862D01*
X188417138Y-101546534D01*
X188944561Y-101765000D01*
X189515439Y-101765000D01*
X190042862Y-101546534D01*
X190446534Y-101142862D01*
X190665000Y-100615439D01*
X190665000Y-100044561D01*
X190446534Y-99517138D01*
X190042862Y-99113466D01*
X189515439Y-98895000D01*
X188944561Y-98895000D01*
X188417138Y-99113466D01*
X188013466Y-99517138D01*
X187795000Y-100044561D01*
X182893017Y-100044561D01*
X186746156Y-96191423D01*
X186820049Y-96142049D01*
X186881237Y-96050476D01*
X187015652Y-95849310D01*
X187023243Y-95811146D01*
X187067000Y-95591165D01*
X187067000Y-95591161D01*
X187084337Y-95504000D01*
X187067000Y-95416839D01*
X187067000Y-87463161D01*
X187084337Y-87376000D01*
X187067000Y-87288839D01*
X187067000Y-87288835D01*
X187015652Y-87030690D01*
X186967957Y-86959310D01*
X186869424Y-86811845D01*
X186869423Y-86811844D01*
X186820049Y-86737951D01*
X186746156Y-86688577D01*
X186327320Y-86269742D01*
X186490625Y-86160625D01*
X186690000Y-85862239D01*
X186889375Y-86160625D01*
X187380582Y-86488839D01*
X187813744Y-86575000D01*
X188106256Y-86575000D01*
X188539418Y-86488839D01*
X189030625Y-86160625D01*
X189243843Y-85841522D01*
X189304817Y-85971358D01*
X189733076Y-86361645D01*
X190143110Y-86531476D01*
X190373000Y-86410155D01*
X190373000Y-85217000D01*
X190353000Y-85217000D01*
X190353000Y-84963000D01*
X190373000Y-84963000D01*
X190373000Y-84943000D01*
X190627000Y-84943000D01*
X190627000Y-84963000D01*
G36*
X198255001Y-88917212D02*
X197961041Y-88778086D01*
X197739000Y-88899371D01*
X197739000Y-90043000D01*
X197759000Y-90043000D01*
X197759000Y-90297000D01*
X197739000Y-90297000D01*
X197739000Y-91440629D01*
X197961041Y-91561914D01*
X198458307Y-91326567D01*
X198571712Y-91496289D01*
X198666480Y-91559611D01*
X200530000Y-93423132D01*
X200530000Y-93496477D01*
X200743137Y-94011037D01*
X200795000Y-94062900D01*
X200795001Y-103110296D01*
X198638533Y-105266765D01*
X198627294Y-105233854D01*
X198367812Y-104907641D01*
X198115461Y-104907354D01*
X197565055Y-105900314D01*
X197848093Y-106057205D01*
X197763747Y-106141552D01*
X197586156Y-105963961D01*
X197406548Y-106143569D01*
X197421776Y-106158797D01*
X197017912Y-106887386D01*
X195525117Y-108380181D01*
X193458976Y-108380181D01*
X193696061Y-108143096D01*
X193909198Y-107628536D01*
X193909198Y-107588237D01*
X194157765Y-107836804D01*
X194672325Y-108049941D01*
X195229279Y-108049941D01*
X195743839Y-107836804D01*
X196137665Y-107442978D01*
X196350802Y-106928418D01*
X196350802Y-106908774D01*
X196417002Y-106991999D01*
X196669353Y-106992286D01*
X197219759Y-105999326D01*
X196226799Y-105448919D01*
X196012946Y-105582888D01*
X196004003Y-105723242D01*
X195743839Y-105463078D01*
X195229279Y-105249941D01*
X194672325Y-105249941D01*
X194157765Y-105463078D01*
X193763939Y-105856904D01*
X193550802Y-106371464D01*
X193550802Y-106411763D01*
X193302235Y-106163196D01*
X192821190Y-105963941D01*
X193558365Y-105226766D01*
X196349941Y-105226766D01*
X197342901Y-105777172D01*
X197893308Y-104784212D01*
X197759339Y-104570359D01*
X197203511Y-104534945D01*
X196676441Y-104714933D01*
X196350228Y-104974415D01*
X196349941Y-105226766D01*
X193558365Y-105226766D01*
X193763521Y-105021610D01*
X193858289Y-104958289D01*
X194109146Y-104582855D01*
X194175000Y-104251783D01*
X194175000Y-104251782D01*
X194197235Y-104140000D01*
X194175000Y-104028217D01*
X194175000Y-94075039D01*
X196220096Y-94075039D01*
X196380959Y-94463423D01*
X196756866Y-94878389D01*
X197262959Y-95117914D01*
X197485000Y-94996629D01*
X197485000Y-93853000D01*
X197739000Y-93853000D01*
X197739000Y-94996629D01*
X197961041Y-95117914D01*
X198467134Y-94878389D01*
X198843041Y-94463423D01*
X199003904Y-94075039D01*
X198881915Y-93853000D01*
X197739000Y-93853000D01*
X197485000Y-93853000D01*
X196342085Y-93853000D01*
X196220096Y-94075039D01*
X194175000Y-94075039D01*
X194175000Y-93376961D01*
X196220096Y-93376961D01*
X196342085Y-93599000D01*
X197485000Y-93599000D01*
X197485000Y-92455371D01*
X197739000Y-92455371D01*
X197739000Y-93599000D01*
X198881915Y-93599000D01*
X199003904Y-93376961D01*
X198843041Y-92988577D01*
X198467134Y-92573611D01*
X197961041Y-92334086D01*
X197739000Y-92455371D01*
X197485000Y-92455371D01*
X197262959Y-92334086D01*
X196756866Y-92573611D01*
X196380959Y-92988577D01*
X196220096Y-93376961D01*
X194175000Y-93376961D01*
X194175000Y-90519039D01*
X196220096Y-90519039D01*
X196380959Y-90907423D01*
X196756866Y-91322389D01*
X197262959Y-91561914D01*
X197485000Y-91440629D01*
X197485000Y-90297000D01*
X196342085Y-90297000D01*
X196220096Y-90519039D01*
X194175000Y-90519039D01*
X194175000Y-89820961D01*
X196220096Y-89820961D01*
X196342085Y-90043000D01*
X197485000Y-90043000D01*
X197485000Y-88899371D01*
X197262959Y-88778086D01*
X196756866Y-89017611D01*
X196380959Y-89432577D01*
X196220096Y-89820961D01*
X194175000Y-89820961D01*
X194175000Y-88100131D01*
X195700132Y-86575000D01*
X195726256Y-86575000D01*
X196159418Y-86488839D01*
X196650625Y-86160625D01*
X196978839Y-85669418D01*
X197094092Y-85090000D01*
X196978839Y-84510582D01*
X196650625Y-84019375D01*
X196632381Y-84007184D01*
X196677765Y-83998157D01*
X196887809Y-83857809D01*
X197003277Y-83685000D01*
X198255000Y-83685000D01*
X198255001Y-88917212D01*
X198255001Y-88917212D01*
G37*
X198255001Y-88917212D02*
X197961041Y-88778086D01*
X197739000Y-88899371D01*
X197739000Y-90043000D01*
X197759000Y-90043000D01*
X197759000Y-90297000D01*
X197739000Y-90297000D01*
X197739000Y-91440629D01*
X197961041Y-91561914D01*
X198458307Y-91326567D01*
X198571712Y-91496289D01*
X198666480Y-91559611D01*
X200530000Y-93423132D01*
X200530000Y-93496477D01*
X200743137Y-94011037D01*
X200795000Y-94062900D01*
X200795001Y-103110296D01*
X198638533Y-105266765D01*
X198627294Y-105233854D01*
X198367812Y-104907641D01*
X198115461Y-104907354D01*
X197565055Y-105900314D01*
X197848093Y-106057205D01*
X197763747Y-106141552D01*
X197586156Y-105963961D01*
X197406548Y-106143569D01*
X197421776Y-106158797D01*
X197017912Y-106887386D01*
X195525117Y-108380181D01*
X193458976Y-108380181D01*
X193696061Y-108143096D01*
X193909198Y-107628536D01*
X193909198Y-107588237D01*
X194157765Y-107836804D01*
X194672325Y-108049941D01*
X195229279Y-108049941D01*
X195743839Y-107836804D01*
X196137665Y-107442978D01*
X196350802Y-106928418D01*
X196350802Y-106908774D01*
X196417002Y-106991999D01*
X196669353Y-106992286D01*
X197219759Y-105999326D01*
X196226799Y-105448919D01*
X196012946Y-105582888D01*
X196004003Y-105723242D01*
X195743839Y-105463078D01*
X195229279Y-105249941D01*
X194672325Y-105249941D01*
X194157765Y-105463078D01*
X193763939Y-105856904D01*
X193550802Y-106371464D01*
X193550802Y-106411763D01*
X193302235Y-106163196D01*
X192821190Y-105963941D01*
X193558365Y-105226766D01*
X196349941Y-105226766D01*
X197342901Y-105777172D01*
X197893308Y-104784212D01*
X197759339Y-104570359D01*
X197203511Y-104534945D01*
X196676441Y-104714933D01*
X196350228Y-104974415D01*
X196349941Y-105226766D01*
X193558365Y-105226766D01*
X193763521Y-105021610D01*
X193858289Y-104958289D01*
X194109146Y-104582855D01*
X194175000Y-104251783D01*
X194175000Y-104251782D01*
X194197235Y-104140000D01*
X194175000Y-104028217D01*
X194175000Y-94075039D01*
X196220096Y-94075039D01*
X196380959Y-94463423D01*
X196756866Y-94878389D01*
X197262959Y-95117914D01*
X197485000Y-94996629D01*
X197485000Y-93853000D01*
X197739000Y-93853000D01*
X197739000Y-94996629D01*
X197961041Y-95117914D01*
X198467134Y-94878389D01*
X198843041Y-94463423D01*
X199003904Y-94075039D01*
X198881915Y-93853000D01*
X197739000Y-93853000D01*
X197485000Y-93853000D01*
X196342085Y-93853000D01*
X196220096Y-94075039D01*
X194175000Y-94075039D01*
X194175000Y-93376961D01*
X196220096Y-93376961D01*
X196342085Y-93599000D01*
X197485000Y-93599000D01*
X197485000Y-92455371D01*
X197739000Y-92455371D01*
X197739000Y-93599000D01*
X198881915Y-93599000D01*
X199003904Y-93376961D01*
X198843041Y-92988577D01*
X198467134Y-92573611D01*
X197961041Y-92334086D01*
X197739000Y-92455371D01*
X197485000Y-92455371D01*
X197262959Y-92334086D01*
X196756866Y-92573611D01*
X196380959Y-92988577D01*
X196220096Y-93376961D01*
X194175000Y-93376961D01*
X194175000Y-90519039D01*
X196220096Y-90519039D01*
X196380959Y-90907423D01*
X196756866Y-91322389D01*
X197262959Y-91561914D01*
X197485000Y-91440629D01*
X197485000Y-90297000D01*
X196342085Y-90297000D01*
X196220096Y-90519039D01*
X194175000Y-90519039D01*
X194175000Y-89820961D01*
X196220096Y-89820961D01*
X196342085Y-90043000D01*
X197485000Y-90043000D01*
X197485000Y-88899371D01*
X197262959Y-88778086D01*
X196756866Y-89017611D01*
X196380959Y-89432577D01*
X196220096Y-89820961D01*
X194175000Y-89820961D01*
X194175000Y-88100131D01*
X195700132Y-86575000D01*
X195726256Y-86575000D01*
X196159418Y-86488839D01*
X196650625Y-86160625D01*
X196978839Y-85669418D01*
X197094092Y-85090000D01*
X196978839Y-84510582D01*
X196650625Y-84019375D01*
X196632381Y-84007184D01*
X196677765Y-83998157D01*
X196887809Y-83857809D01*
X197003277Y-83685000D01*
X198255000Y-83685000D01*
X198255001Y-88917212D01*
G36*
X203290000Y-85191253D02*
X203154883Y-84865051D01*
X202912387Y-84795218D01*
X202109605Y-85598000D01*
X202912387Y-86400782D01*
X203154883Y-86330949D01*
X203290000Y-85952449D01*
X203290000Y-87762955D01*
X203116863Y-87344963D01*
X202723037Y-86951137D01*
X202538176Y-86874565D01*
X202662949Y-86822883D01*
X202732782Y-86580387D01*
X201930000Y-85777605D01*
X201127218Y-86580387D01*
X201197051Y-86822883D01*
X201331083Y-86870730D01*
X201136963Y-86951137D01*
X200743137Y-87344963D01*
X200530000Y-87859523D01*
X200530000Y-88416477D01*
X200743137Y-88931037D01*
X201136963Y-89324863D01*
X201337674Y-89408000D01*
X201136963Y-89491137D01*
X200743137Y-89884963D01*
X200584670Y-90267538D01*
X200525000Y-90207869D01*
X200525000Y-85532623D01*
X200545604Y-85945850D01*
X200705117Y-86330949D01*
X200947613Y-86400782D01*
X201750395Y-85598000D01*
X200947613Y-84795218D01*
X200705117Y-84865051D01*
X200525000Y-85369607D01*
X200525000Y-84615613D01*
X201127218Y-84615613D01*
X201930000Y-85418395D01*
X202732782Y-84615613D01*
X202662949Y-84373117D01*
X202138414Y-84185868D01*
X201582150Y-84213604D01*
X201197051Y-84373117D01*
X201127218Y-84615613D01*
X200525000Y-84615613D01*
X200525000Y-82661783D01*
X200547235Y-82550000D01*
X200459146Y-82107145D01*
X200208289Y-81731711D01*
X199832855Y-81480854D01*
X199501783Y-81415000D01*
X199390000Y-81392765D01*
X199278217Y-81415000D01*
X197003277Y-81415000D01*
X196887809Y-81242191D01*
X196677765Y-81101843D01*
X196430000Y-81052560D01*
X194730000Y-81052560D01*
X194482235Y-81101843D01*
X194272191Y-81242191D01*
X194131843Y-81452235D01*
X194122816Y-81497619D01*
X194110625Y-81479375D01*
X193619418Y-81151161D01*
X193186256Y-81065000D01*
X192893744Y-81065000D01*
X192460582Y-81151161D01*
X191969375Y-81479375D01*
X191770000Y-81777761D01*
X191570625Y-81479375D01*
X191079418Y-81151161D01*
X190646256Y-81065000D01*
X190353744Y-81065000D01*
X189920582Y-81151161D01*
X189429375Y-81479375D01*
X189230000Y-81777761D01*
X189030625Y-81479375D01*
X188539418Y-81151161D01*
X188106256Y-81065000D01*
X187813744Y-81065000D01*
X187380582Y-81151161D01*
X186889375Y-81479375D01*
X186690000Y-81777761D01*
X186490625Y-81479375D01*
X185999418Y-81151161D01*
X185566256Y-81065000D01*
X185273744Y-81065000D01*
X184840582Y-81151161D01*
X184349375Y-81479375D01*
X184150000Y-81777761D01*
X183950625Y-81479375D01*
X183459418Y-81151161D01*
X183026256Y-81065000D01*
X182733744Y-81065000D01*
X182300582Y-81151161D01*
X181809375Y-81479375D01*
X181610000Y-81777761D01*
X181410625Y-81479375D01*
X180919418Y-81151161D01*
X180486256Y-81065000D01*
X180193744Y-81065000D01*
X179760582Y-81151161D01*
X179269375Y-81479375D01*
X179070000Y-81777761D01*
X178870625Y-81479375D01*
X178379418Y-81151161D01*
X177946256Y-81065000D01*
X177653744Y-81065000D01*
X177220582Y-81151161D01*
X176729375Y-81479375D01*
X176530000Y-81777761D01*
X176330625Y-81479375D01*
X175839418Y-81151161D01*
X175406256Y-81065000D01*
X175113744Y-81065000D01*
X175041040Y-81079462D01*
X174681578Y-80720000D01*
X203290000Y-80720000D01*
X203290000Y-85191253D01*
X203290000Y-85191253D01*
G37*
X203290000Y-85191253D02*
X203154883Y-84865051D01*
X202912387Y-84795218D01*
X202109605Y-85598000D01*
X202912387Y-86400782D01*
X203154883Y-86330949D01*
X203290000Y-85952449D01*
X203290000Y-87762955D01*
X203116863Y-87344963D01*
X202723037Y-86951137D01*
X202538176Y-86874565D01*
X202662949Y-86822883D01*
X202732782Y-86580387D01*
X201930000Y-85777605D01*
X201127218Y-86580387D01*
X201197051Y-86822883D01*
X201331083Y-86870730D01*
X201136963Y-86951137D01*
X200743137Y-87344963D01*
X200530000Y-87859523D01*
X200530000Y-88416477D01*
X200743137Y-88931037D01*
X201136963Y-89324863D01*
X201337674Y-89408000D01*
X201136963Y-89491137D01*
X200743137Y-89884963D01*
X200584670Y-90267538D01*
X200525000Y-90207869D01*
X200525000Y-85532623D01*
X200545604Y-85945850D01*
X200705117Y-86330949D01*
X200947613Y-86400782D01*
X201750395Y-85598000D01*
X200947613Y-84795218D01*
X200705117Y-84865051D01*
X200525000Y-85369607D01*
X200525000Y-84615613D01*
X201127218Y-84615613D01*
X201930000Y-85418395D01*
X202732782Y-84615613D01*
X202662949Y-84373117D01*
X202138414Y-84185868D01*
X201582150Y-84213604D01*
X201197051Y-84373117D01*
X201127218Y-84615613D01*
X200525000Y-84615613D01*
X200525000Y-82661783D01*
X200547235Y-82550000D01*
X200459146Y-82107145D01*
X200208289Y-81731711D01*
X199832855Y-81480854D01*
X199501783Y-81415000D01*
X199390000Y-81392765D01*
X199278217Y-81415000D01*
X197003277Y-81415000D01*
X196887809Y-81242191D01*
X196677765Y-81101843D01*
X196430000Y-81052560D01*
X194730000Y-81052560D01*
X194482235Y-81101843D01*
X194272191Y-81242191D01*
X194131843Y-81452235D01*
X194122816Y-81497619D01*
X194110625Y-81479375D01*
X193619418Y-81151161D01*
X193186256Y-81065000D01*
X192893744Y-81065000D01*
X192460582Y-81151161D01*
X191969375Y-81479375D01*
X191770000Y-81777761D01*
X191570625Y-81479375D01*
X191079418Y-81151161D01*
X190646256Y-81065000D01*
X190353744Y-81065000D01*
X189920582Y-81151161D01*
X189429375Y-81479375D01*
X189230000Y-81777761D01*
X189030625Y-81479375D01*
X188539418Y-81151161D01*
X188106256Y-81065000D01*
X187813744Y-81065000D01*
X187380582Y-81151161D01*
X186889375Y-81479375D01*
X186690000Y-81777761D01*
X186490625Y-81479375D01*
X185999418Y-81151161D01*
X185566256Y-81065000D01*
X185273744Y-81065000D01*
X184840582Y-81151161D01*
X184349375Y-81479375D01*
X184150000Y-81777761D01*
X183950625Y-81479375D01*
X183459418Y-81151161D01*
X183026256Y-81065000D01*
X182733744Y-81065000D01*
X182300582Y-81151161D01*
X181809375Y-81479375D01*
X181610000Y-81777761D01*
X181410625Y-81479375D01*
X180919418Y-81151161D01*
X180486256Y-81065000D01*
X180193744Y-81065000D01*
X179760582Y-81151161D01*
X179269375Y-81479375D01*
X179070000Y-81777761D01*
X178870625Y-81479375D01*
X178379418Y-81151161D01*
X177946256Y-81065000D01*
X177653744Y-81065000D01*
X177220582Y-81151161D01*
X176729375Y-81479375D01*
X176530000Y-81777761D01*
X176330625Y-81479375D01*
X175839418Y-81151161D01*
X175406256Y-81065000D01*
X175113744Y-81065000D01*
X175041040Y-81079462D01*
X174681578Y-80720000D01*
X203290000Y-80720000D01*
X203290000Y-85191253D01*
G36*
X145878514Y-82906892D02*
X146124817Y-83431358D01*
X146549786Y-83818647D01*
X146249375Y-84019375D01*
X145921161Y-84510582D01*
X145840000Y-84918607D01*
X145840000Y-82677002D01*
X145999180Y-82677002D01*
X145878514Y-82906892D01*
X145878514Y-82906892D01*
G37*
X145878514Y-82906892D02*
X146124817Y-83431358D01*
X146549786Y-83818647D01*
X146249375Y-84019375D01*
X145921161Y-84510582D01*
X145840000Y-84918607D01*
X145840000Y-82677002D01*
X145999180Y-82677002D01*
X145878514Y-82906892D01*
G36*
X147447000Y-82423000D02*
X147467000Y-82423000D01*
X147467000Y-82677000D01*
X147447000Y-82677000D01*
X147447000Y-82697000D01*
X147193000Y-82697000D01*
X147193000Y-82677000D01*
X147173000Y-82677000D01*
X147173000Y-82423000D01*
X147193000Y-82423000D01*
X147193000Y-82403000D01*
X147447000Y-82403000D01*
X147447000Y-82423000D01*
X147447000Y-82423000D01*
G37*
X147447000Y-82423000D02*
X147467000Y-82423000D01*
X147467000Y-82677000D01*
X147447000Y-82677000D01*
X147447000Y-82697000D01*
X147193000Y-82697000D01*
X147193000Y-82677000D01*
X147173000Y-82677000D01*
X147173000Y-82423000D01*
X147193000Y-82423000D01*
X147193000Y-82403000D01*
X147447000Y-82403000D01*
X147447000Y-82423000D01*
G04 #@! TD*
M02*
