M48
;DRILL file {KiCad (5.0.2)-1} date 02.01.2021 21:04:46
;FORMAT={-:-/ absolute / inch / decimal}
FMAT,2
INCH,TZ
T1C0.0236
T2C0.0256
T3C0.0315
T4C0.0354
T5C0.0394
T6C0.0402
%
G90
G05
T1
X5.78Y-3.47
X5.8391Y-3.47
T2
X7.31Y-3.47
X7.36Y-3.47
X7.41Y-3.47
T3
X5.7Y-3.23
X6.1Y-3.23
X6.22Y-3.23
X6.62Y-3.23
X5.95Y-3.49
X6.35Y-3.49
X6.71Y-3.87
X7.11Y-3.87
X6.46Y-3.49
X6.86Y-3.49
X6.44Y-3.36
X6.84Y-3.36
X5.95Y-3.36
X6.35Y-3.36
X6.71Y-4.01
X7.11Y-4.01
T4
X6.18Y-3.94
X6.28Y-3.94
X6.46Y-3.93
X6.56Y-3.93
T5
X5.76Y-3.62
X5.76Y-3.72
X5.86Y-3.62
X5.86Y-3.72
X5.96Y-3.62
X5.96Y-3.72
X6.06Y-3.62
X6.06Y-3.72
X6.16Y-3.62
X6.16Y-3.72
X6.26Y-3.62
X6.26Y-3.72
X6.36Y-3.62
X6.36Y-3.72
X6.46Y-3.62
X6.46Y-3.72
X6.56Y-3.62
X6.56Y-3.72
X6.66Y-3.62
X6.66Y-3.72
X6.76Y-3.62
X6.76Y-3.72
X6.86Y-3.62
X6.86Y-3.72
X6.96Y-3.62
X6.96Y-3.72
X7.06Y-3.62
X7.06Y-3.72
X7.16Y-3.62
X7.16Y-3.72
X7.26Y-3.62
X7.26Y-3.72
X7.36Y-3.62
X7.36Y-3.72
X7.46Y-3.62
X7.46Y-3.72
X7.56Y-3.62
X7.56Y-3.72
X7.66Y-3.62
X7.66Y-3.72
T6
X7.483Y-4.0039
X7.5791Y-3.9764
X7.6752Y-3.9488
X7.7714Y-3.9213
X7.28Y-3.33
X7.38Y-3.33
X7.48Y-3.33
X7.58Y-3.33
X5.7113Y-3.9213
X5.8074Y-3.9488
X5.9036Y-3.9764
X5.9997Y-4.0039
T0
M30
