G04 #@! TF.GenerationSoftware,KiCad,Pcbnew,(5.0.2)-1*
G04 #@! TF.CreationDate,2021-01-02T20:32:08+01:00*
G04 #@! TF.ProjectId,Radmesser,5261646d-6573-4736-9572-2e6b69636164,rev?*
G04 #@! TF.SameCoordinates,Original*
G04 #@! TF.FileFunction,Soldermask,Top*
G04 #@! TF.FilePolarity,Negative*
%FSLAX46Y46*%
G04 Gerber Fmt 4.6, Leading zero omitted, Abs format (unit mm)*
G04 Created by KiCad (PCBNEW (5.0.2)-1) date 02.01.2021 20:32:08*
%MOMM*%
%LPD*%
G01*
G04 APERTURE LIST*
%ADD10C,0.100000*%
G04 APERTURE END LIST*
D10*
G36*
X180760821Y-101015313D02*
X180760824Y-101015314D01*
X180760825Y-101015314D01*
X180921239Y-101063975D01*
X180921241Y-101063976D01*
X180921244Y-101063977D01*
X181069078Y-101142995D01*
X181198659Y-101249341D01*
X181305005Y-101378922D01*
X181384023Y-101526756D01*
X181384024Y-101526759D01*
X181384025Y-101526761D01*
X181412251Y-101619810D01*
X181432687Y-101687179D01*
X181449117Y-101854000D01*
X181432687Y-102020821D01*
X181432686Y-102020824D01*
X181432686Y-102020825D01*
X181407993Y-102102228D01*
X181384023Y-102181244D01*
X181305005Y-102329078D01*
X181198659Y-102458659D01*
X181069078Y-102565005D01*
X180921244Y-102644023D01*
X180921241Y-102644024D01*
X180921239Y-102644025D01*
X180760825Y-102692686D01*
X180760824Y-102692686D01*
X180760821Y-102692687D01*
X180635804Y-102705000D01*
X180552196Y-102705000D01*
X180427179Y-102692687D01*
X180427176Y-102692686D01*
X180427175Y-102692686D01*
X180266761Y-102644025D01*
X180266759Y-102644024D01*
X180266756Y-102644023D01*
X180118922Y-102565005D01*
X179989341Y-102458659D01*
X179882995Y-102329078D01*
X179803977Y-102181244D01*
X179780008Y-102102228D01*
X179755314Y-102020825D01*
X179755314Y-102020824D01*
X179755313Y-102020821D01*
X179738883Y-101854000D01*
X179755313Y-101687179D01*
X179775749Y-101619810D01*
X179803975Y-101526761D01*
X179803976Y-101526759D01*
X179803977Y-101526756D01*
X179882995Y-101378922D01*
X179989341Y-101249341D01*
X180118922Y-101142995D01*
X180266756Y-101063977D01*
X180266759Y-101063976D01*
X180266761Y-101063975D01*
X180427175Y-101015314D01*
X180427176Y-101015314D01*
X180427179Y-101015313D01*
X180552196Y-101003000D01*
X180635804Y-101003000D01*
X180760821Y-101015313D01*
X180760821Y-101015313D01*
G37*
G36*
X170682228Y-101035703D02*
X170837100Y-101099853D01*
X170976481Y-101192985D01*
X171095015Y-101311519D01*
X171188147Y-101450900D01*
X171252297Y-101605772D01*
X171285000Y-101770184D01*
X171285000Y-101937816D01*
X171252297Y-102102228D01*
X171188147Y-102257100D01*
X171095015Y-102396481D01*
X170976481Y-102515015D01*
X170837100Y-102608147D01*
X170682228Y-102672297D01*
X170517816Y-102705000D01*
X170350184Y-102705000D01*
X170185772Y-102672297D01*
X170030900Y-102608147D01*
X169891519Y-102515015D01*
X169772985Y-102396481D01*
X169679853Y-102257100D01*
X169615703Y-102102228D01*
X169583000Y-101937816D01*
X169583000Y-101770184D01*
X169615703Y-101605772D01*
X169679853Y-101450900D01*
X169772985Y-101311519D01*
X169891519Y-101192985D01*
X170030900Y-101099853D01*
X170185772Y-101035703D01*
X170350184Y-101003000D01*
X170517816Y-101003000D01*
X170682228Y-101035703D01*
X170682228Y-101035703D01*
G37*
G36*
X190305609Y-100915538D02*
X190313402Y-100918766D01*
X190454114Y-100977050D01*
X190587763Y-101066352D01*
X190701421Y-101180010D01*
X190790723Y-101313659D01*
X190820927Y-101386580D01*
X190852235Y-101462164D01*
X190883593Y-101619810D01*
X190883593Y-101780550D01*
X190852235Y-101938196D01*
X190852234Y-101938198D01*
X190790723Y-102086701D01*
X190701421Y-102220350D01*
X190587763Y-102334008D01*
X190454114Y-102423310D01*
X190331090Y-102474267D01*
X190305609Y-102484822D01*
X190147963Y-102516180D01*
X189987223Y-102516180D01*
X189829577Y-102484822D01*
X189804096Y-102474267D01*
X189681072Y-102423310D01*
X189547423Y-102334008D01*
X189433765Y-102220350D01*
X189344463Y-102086701D01*
X189282952Y-101938198D01*
X189282951Y-101938196D01*
X189251593Y-101780550D01*
X189251593Y-101619810D01*
X189282951Y-101462164D01*
X189314259Y-101386580D01*
X189344463Y-101313659D01*
X189433765Y-101180010D01*
X189547423Y-101066352D01*
X189681072Y-100977050D01*
X189821784Y-100918766D01*
X189829577Y-100915538D01*
X189987223Y-100884180D01*
X190147963Y-100884180D01*
X190305609Y-100915538D01*
X190305609Y-100915538D01*
G37*
G36*
X152630423Y-100915537D02*
X152638216Y-100918765D01*
X152778928Y-100977049D01*
X152912577Y-101066351D01*
X153026235Y-101180009D01*
X153115537Y-101313658D01*
X153166494Y-101436682D01*
X153177049Y-101462163D01*
X153208407Y-101619809D01*
X153208407Y-101780549D01*
X153177049Y-101938195D01*
X153177048Y-101938197D01*
X153115537Y-102086700D01*
X153026235Y-102220349D01*
X152912577Y-102334007D01*
X152778928Y-102423309D01*
X152693584Y-102458659D01*
X152630423Y-102484821D01*
X152472777Y-102516179D01*
X152312037Y-102516179D01*
X152154391Y-102484821D01*
X152091230Y-102458659D01*
X152005886Y-102423309D01*
X151872237Y-102334007D01*
X151758579Y-102220349D01*
X151669277Y-102086700D01*
X151607766Y-101938197D01*
X151607765Y-101938195D01*
X151576407Y-101780549D01*
X151576407Y-101619809D01*
X151607765Y-101462163D01*
X151618320Y-101436682D01*
X151669277Y-101313658D01*
X151758579Y-101180009D01*
X151872237Y-101066351D01*
X152005886Y-100977049D01*
X152146598Y-100918765D01*
X152154391Y-100915537D01*
X152312037Y-100884179D01*
X152472777Y-100884179D01*
X152630423Y-100915537D01*
X152630423Y-100915537D01*
G37*
G36*
X150188818Y-100215417D02*
X150198849Y-100219572D01*
X150337323Y-100276929D01*
X150470972Y-100366231D01*
X150584630Y-100479889D01*
X150673932Y-100613538D01*
X150724844Y-100736453D01*
X150735444Y-100762043D01*
X150766802Y-100919689D01*
X150766802Y-101080429D01*
X150735444Y-101238075D01*
X150735443Y-101238077D01*
X150673932Y-101386580D01*
X150584630Y-101520229D01*
X150470972Y-101633887D01*
X150337323Y-101723189D01*
X150223865Y-101770184D01*
X150188818Y-101784701D01*
X150031172Y-101816059D01*
X149870432Y-101816059D01*
X149712786Y-101784701D01*
X149677739Y-101770184D01*
X149564281Y-101723189D01*
X149430632Y-101633887D01*
X149316974Y-101520229D01*
X149227672Y-101386580D01*
X149166161Y-101238077D01*
X149166160Y-101238075D01*
X149134802Y-101080429D01*
X149134802Y-100919689D01*
X149166160Y-100762043D01*
X149176760Y-100736453D01*
X149227672Y-100613538D01*
X149316974Y-100479889D01*
X149430632Y-100366231D01*
X149564281Y-100276929D01*
X149702755Y-100219572D01*
X149712786Y-100215417D01*
X149870432Y-100184059D01*
X150031172Y-100184059D01*
X150188818Y-100215417D01*
X150188818Y-100215417D01*
G37*
G36*
X192747214Y-100215417D02*
X192757245Y-100219572D01*
X192895719Y-100276929D01*
X193029368Y-100366231D01*
X193143026Y-100479889D01*
X193232328Y-100613538D01*
X193283240Y-100736453D01*
X193293840Y-100762043D01*
X193325198Y-100919689D01*
X193325198Y-101080429D01*
X193293840Y-101238075D01*
X193293839Y-101238077D01*
X193232328Y-101386580D01*
X193143026Y-101520229D01*
X193029368Y-101633887D01*
X192895719Y-101723189D01*
X192782261Y-101770184D01*
X192747214Y-101784701D01*
X192589568Y-101816059D01*
X192428828Y-101816059D01*
X192271182Y-101784701D01*
X192236135Y-101770184D01*
X192122677Y-101723189D01*
X191989028Y-101633887D01*
X191875370Y-101520229D01*
X191786068Y-101386580D01*
X191724557Y-101238077D01*
X191724556Y-101238075D01*
X191693198Y-101080429D01*
X191693198Y-100919689D01*
X191724556Y-100762043D01*
X191735156Y-100736453D01*
X191786068Y-100613538D01*
X191875370Y-100479889D01*
X191989028Y-100366231D01*
X192122677Y-100276929D01*
X192261151Y-100219572D01*
X192271182Y-100215417D01*
X192428828Y-100184059D01*
X192589568Y-100184059D01*
X192747214Y-100215417D01*
X192747214Y-100215417D01*
G37*
G36*
X147747214Y-99515299D02*
X147747217Y-99515300D01*
X147747216Y-99515300D01*
X147895719Y-99576811D01*
X148029368Y-99666113D01*
X148143026Y-99779771D01*
X148232328Y-99913420D01*
X148283285Y-100036444D01*
X148293840Y-100061925D01*
X148325198Y-100219571D01*
X148325198Y-100380311D01*
X148293840Y-100537957D01*
X148284424Y-100560690D01*
X148232328Y-100686462D01*
X148143026Y-100820111D01*
X148029368Y-100933769D01*
X147895719Y-101023071D01*
X147772695Y-101074028D01*
X147747214Y-101084583D01*
X147589568Y-101115941D01*
X147428828Y-101115941D01*
X147271182Y-101084583D01*
X147245701Y-101074028D01*
X147122677Y-101023071D01*
X146989028Y-100933769D01*
X146875370Y-100820111D01*
X146786068Y-100686462D01*
X146733972Y-100560690D01*
X146724556Y-100537957D01*
X146693198Y-100380311D01*
X146693198Y-100219571D01*
X146724556Y-100061925D01*
X146735111Y-100036444D01*
X146786068Y-99913420D01*
X146875370Y-99779771D01*
X146989028Y-99666113D01*
X147122677Y-99576811D01*
X147271180Y-99515300D01*
X147271179Y-99515300D01*
X147271182Y-99515299D01*
X147428828Y-99483941D01*
X147589568Y-99483941D01*
X147747214Y-99515299D01*
X147747214Y-99515299D01*
G37*
G36*
X195188818Y-99515299D02*
X195188821Y-99515300D01*
X195188820Y-99515300D01*
X195337323Y-99576811D01*
X195470972Y-99666113D01*
X195584630Y-99779771D01*
X195673932Y-99913420D01*
X195724889Y-100036444D01*
X195735444Y-100061925D01*
X195766802Y-100219571D01*
X195766802Y-100380311D01*
X195735444Y-100537957D01*
X195726028Y-100560690D01*
X195673932Y-100686462D01*
X195584630Y-100820111D01*
X195470972Y-100933769D01*
X195337323Y-101023071D01*
X195214299Y-101074028D01*
X195188818Y-101084583D01*
X195031172Y-101115941D01*
X194870432Y-101115941D01*
X194712786Y-101084583D01*
X194687305Y-101074028D01*
X194564281Y-101023071D01*
X194430632Y-100933769D01*
X194316974Y-100820111D01*
X194227672Y-100686462D01*
X194175576Y-100560690D01*
X194166160Y-100537957D01*
X194134802Y-100380311D01*
X194134802Y-100219571D01*
X194166160Y-100061925D01*
X194176715Y-100036444D01*
X194227672Y-99913420D01*
X194316974Y-99779771D01*
X194430632Y-99666113D01*
X194564281Y-99576811D01*
X194712784Y-99515300D01*
X194712783Y-99515300D01*
X194712786Y-99515299D01*
X194870432Y-99483941D01*
X195031172Y-99483941D01*
X195188818Y-99515299D01*
X195188818Y-99515299D01*
G37*
G36*
X157249396Y-99161546D02*
X157422466Y-99233234D01*
X157578230Y-99337312D01*
X157710688Y-99469770D01*
X157814766Y-99625534D01*
X157886454Y-99798604D01*
X157923000Y-99982333D01*
X157923000Y-100169667D01*
X157886454Y-100353396D01*
X157814766Y-100526466D01*
X157710688Y-100682230D01*
X157578230Y-100814688D01*
X157422466Y-100918766D01*
X157249396Y-100990454D01*
X157065667Y-101027000D01*
X156878333Y-101027000D01*
X156694604Y-100990454D01*
X156521534Y-100918766D01*
X156365770Y-100814688D01*
X156233312Y-100682230D01*
X156129234Y-100526466D01*
X156057546Y-100353396D01*
X156021000Y-100169667D01*
X156021000Y-99982333D01*
X156057546Y-99798604D01*
X156129234Y-99625534D01*
X156233312Y-99469770D01*
X156365770Y-99337312D01*
X156521534Y-99233234D01*
X156694604Y-99161546D01*
X156878333Y-99125000D01*
X157065667Y-99125000D01*
X157249396Y-99161546D01*
X157249396Y-99161546D01*
G37*
G36*
X160463000Y-101027000D02*
X158561000Y-101027000D01*
X158561000Y-99125000D01*
X160463000Y-99125000D01*
X160463000Y-101027000D01*
X160463000Y-101027000D01*
G37*
G36*
X164361396Y-98907546D02*
X164534466Y-98979234D01*
X164690230Y-99083312D01*
X164822688Y-99215770D01*
X164926766Y-99371534D01*
X164998454Y-99544604D01*
X165035000Y-99728333D01*
X165035000Y-99915667D01*
X164998454Y-100099396D01*
X164926766Y-100272466D01*
X164822688Y-100428230D01*
X164690230Y-100560688D01*
X164534466Y-100664766D01*
X164361396Y-100736454D01*
X164177667Y-100773000D01*
X163990333Y-100773000D01*
X163806604Y-100736454D01*
X163633534Y-100664766D01*
X163477770Y-100560688D01*
X163345312Y-100428230D01*
X163241234Y-100272466D01*
X163169546Y-100099396D01*
X163133000Y-99915667D01*
X163133000Y-99728333D01*
X163169546Y-99544604D01*
X163241234Y-99371534D01*
X163345312Y-99215770D01*
X163477770Y-99083312D01*
X163633534Y-98979234D01*
X163806604Y-98907546D01*
X163990333Y-98871000D01*
X164177667Y-98871000D01*
X164361396Y-98907546D01*
X164361396Y-98907546D01*
G37*
G36*
X167575000Y-100773000D02*
X165673000Y-100773000D01*
X165673000Y-98871000D01*
X167575000Y-98871000D01*
X167575000Y-100773000D01*
X167575000Y-100773000D01*
G37*
G36*
X145305609Y-98815179D02*
X145305612Y-98815180D01*
X145305611Y-98815180D01*
X145454114Y-98876691D01*
X145587763Y-98965993D01*
X145701421Y-99079651D01*
X145790723Y-99213300D01*
X145798980Y-99233235D01*
X145852235Y-99361805D01*
X145883593Y-99519451D01*
X145883593Y-99680191D01*
X145852235Y-99837837D01*
X145852234Y-99837839D01*
X145790723Y-99986342D01*
X145701421Y-100119991D01*
X145587763Y-100233649D01*
X145454114Y-100322951D01*
X145349625Y-100366231D01*
X145305609Y-100384463D01*
X145147963Y-100415821D01*
X144987223Y-100415821D01*
X144829577Y-100384463D01*
X144785561Y-100366231D01*
X144681072Y-100322951D01*
X144547423Y-100233649D01*
X144433765Y-100119991D01*
X144344463Y-99986342D01*
X144282952Y-99837839D01*
X144282951Y-99837837D01*
X144251593Y-99680191D01*
X144251593Y-99519451D01*
X144282951Y-99361805D01*
X144336206Y-99233235D01*
X144344463Y-99213300D01*
X144433765Y-99079651D01*
X144547423Y-98965993D01*
X144681072Y-98876691D01*
X144829575Y-98815180D01*
X144829574Y-98815180D01*
X144829577Y-98815179D01*
X144987223Y-98783821D01*
X145147963Y-98783821D01*
X145305609Y-98815179D01*
X145305609Y-98815179D01*
G37*
G36*
X197630423Y-98815178D02*
X197655904Y-98825733D01*
X197778928Y-98876690D01*
X197912577Y-98965992D01*
X198026235Y-99079650D01*
X198115537Y-99213299D01*
X198166494Y-99336323D01*
X198177049Y-99361804D01*
X198208407Y-99519450D01*
X198208407Y-99680190D01*
X198177049Y-99837836D01*
X198177048Y-99837838D01*
X198115537Y-99986341D01*
X198026235Y-100119990D01*
X197912577Y-100233648D01*
X197778928Y-100322950D01*
X197655904Y-100373907D01*
X197630423Y-100384462D01*
X197472777Y-100415820D01*
X197312037Y-100415820D01*
X197154391Y-100384462D01*
X197128910Y-100373907D01*
X197005886Y-100322950D01*
X196872237Y-100233648D01*
X196758579Y-100119990D01*
X196669277Y-99986341D01*
X196607766Y-99837838D01*
X196607765Y-99837836D01*
X196576407Y-99680190D01*
X196576407Y-99519450D01*
X196607765Y-99361804D01*
X196618320Y-99336323D01*
X196669277Y-99213299D01*
X196758579Y-99079650D01*
X196872237Y-98965992D01*
X197005886Y-98876690D01*
X197128910Y-98825733D01*
X197154391Y-98815178D01*
X197312037Y-98783820D01*
X197472777Y-98783820D01*
X197630423Y-98815178D01*
X197630423Y-98815178D01*
G37*
G36*
X180760821Y-97459313D02*
X180760824Y-97459314D01*
X180760825Y-97459314D01*
X180921239Y-97507975D01*
X180921241Y-97507976D01*
X180921244Y-97507977D01*
X181069078Y-97586995D01*
X181198659Y-97693341D01*
X181305005Y-97822922D01*
X181384023Y-97970756D01*
X181384024Y-97970759D01*
X181384025Y-97970761D01*
X181432686Y-98131175D01*
X181432687Y-98131179D01*
X181449117Y-98298000D01*
X181432687Y-98464821D01*
X181432686Y-98464824D01*
X181432686Y-98464825D01*
X181407993Y-98546228D01*
X181384023Y-98625244D01*
X181305005Y-98773078D01*
X181198659Y-98902659D01*
X181069078Y-99009005D01*
X180921244Y-99088023D01*
X180921241Y-99088024D01*
X180921239Y-99088025D01*
X180760825Y-99136686D01*
X180760824Y-99136686D01*
X180760821Y-99136687D01*
X180635804Y-99149000D01*
X180552196Y-99149000D01*
X180427179Y-99136687D01*
X180427176Y-99136686D01*
X180427175Y-99136686D01*
X180266761Y-99088025D01*
X180266759Y-99088024D01*
X180266756Y-99088023D01*
X180118922Y-99009005D01*
X179989341Y-98902659D01*
X179882995Y-98773078D01*
X179803977Y-98625244D01*
X179780008Y-98546228D01*
X179755314Y-98464825D01*
X179755314Y-98464824D01*
X179755313Y-98464821D01*
X179738883Y-98298000D01*
X179755313Y-98131179D01*
X179755314Y-98131175D01*
X179803975Y-97970761D01*
X179803976Y-97970759D01*
X179803977Y-97970756D01*
X179882995Y-97822922D01*
X179989341Y-97693341D01*
X180118922Y-97586995D01*
X180266756Y-97507977D01*
X180266759Y-97507976D01*
X180266761Y-97507975D01*
X180427175Y-97459314D01*
X180427176Y-97459314D01*
X180427179Y-97459313D01*
X180552196Y-97447000D01*
X180635804Y-97447000D01*
X180760821Y-97459313D01*
X180760821Y-97459313D01*
G37*
G36*
X170682228Y-97479703D02*
X170837100Y-97543853D01*
X170976481Y-97636985D01*
X171095015Y-97755519D01*
X171188147Y-97894900D01*
X171252297Y-98049772D01*
X171285000Y-98214184D01*
X171285000Y-98381816D01*
X171252297Y-98546228D01*
X171188147Y-98701100D01*
X171095015Y-98840481D01*
X170976481Y-98959015D01*
X170837100Y-99052147D01*
X170682228Y-99116297D01*
X170517816Y-99149000D01*
X170350184Y-99149000D01*
X170185772Y-99116297D01*
X170030900Y-99052147D01*
X169891519Y-98959015D01*
X169772985Y-98840481D01*
X169679853Y-98701100D01*
X169615703Y-98546228D01*
X169583000Y-98381816D01*
X169583000Y-98214184D01*
X169615703Y-98049772D01*
X169679853Y-97894900D01*
X169772985Y-97755519D01*
X169891519Y-97636985D01*
X170030900Y-97543853D01*
X170185772Y-97479703D01*
X170350184Y-97447000D01*
X170517816Y-97447000D01*
X170682228Y-97479703D01*
X170682228Y-97479703D01*
G37*
G36*
X171814442Y-93593518D02*
X171880627Y-93600037D01*
X171993853Y-93634384D01*
X172050467Y-93651557D01*
X172189087Y-93725652D01*
X172206991Y-93735222D01*
X172242729Y-93764552D01*
X172344186Y-93847814D01*
X172427448Y-93949271D01*
X172456778Y-93985009D01*
X172456779Y-93985011D01*
X172540443Y-94141533D01*
X172540443Y-94141534D01*
X172591963Y-94311373D01*
X172609359Y-94488000D01*
X172591963Y-94664627D01*
X172557616Y-94777853D01*
X172540443Y-94834467D01*
X172466348Y-94973087D01*
X172456778Y-94990991D01*
X172427448Y-95026729D01*
X172344186Y-95128186D01*
X172242729Y-95211448D01*
X172206991Y-95240778D01*
X172206989Y-95240779D01*
X172050467Y-95324443D01*
X171993853Y-95341616D01*
X171880627Y-95375963D01*
X171814443Y-95382481D01*
X171748260Y-95389000D01*
X171659740Y-95389000D01*
X171593557Y-95382481D01*
X171527373Y-95375963D01*
X171414147Y-95341616D01*
X171357533Y-95324443D01*
X171201011Y-95240779D01*
X171201009Y-95240778D01*
X171165271Y-95211448D01*
X171063814Y-95128186D01*
X170980552Y-95026729D01*
X170951222Y-94990991D01*
X170941652Y-94973087D01*
X170867557Y-94834467D01*
X170850384Y-94777853D01*
X170816037Y-94664627D01*
X170798641Y-94488000D01*
X170816037Y-94311373D01*
X170867557Y-94141534D01*
X170867557Y-94141533D01*
X170951221Y-93985011D01*
X170951222Y-93985009D01*
X170980552Y-93949271D01*
X171063814Y-93847814D01*
X171165271Y-93764552D01*
X171201009Y-93735222D01*
X171218913Y-93725652D01*
X171357533Y-93651557D01*
X171414147Y-93634384D01*
X171527373Y-93600037D01*
X171593557Y-93593519D01*
X171659740Y-93587000D01*
X171748260Y-93587000D01*
X171814442Y-93593518D01*
X171814442Y-93593518D01*
G37*
G36*
X151494442Y-93593518D02*
X151560627Y-93600037D01*
X151673853Y-93634384D01*
X151730467Y-93651557D01*
X151869087Y-93725652D01*
X151886991Y-93735222D01*
X151922729Y-93764552D01*
X152024186Y-93847814D01*
X152107448Y-93949271D01*
X152136778Y-93985009D01*
X152136779Y-93985011D01*
X152220443Y-94141533D01*
X152220443Y-94141534D01*
X152271963Y-94311373D01*
X152289359Y-94488000D01*
X152271963Y-94664627D01*
X152237616Y-94777853D01*
X152220443Y-94834467D01*
X152146348Y-94973087D01*
X152136778Y-94990991D01*
X152107448Y-95026729D01*
X152024186Y-95128186D01*
X151922729Y-95211448D01*
X151886991Y-95240778D01*
X151886989Y-95240779D01*
X151730467Y-95324443D01*
X151673853Y-95341616D01*
X151560627Y-95375963D01*
X151494443Y-95382481D01*
X151428260Y-95389000D01*
X151339740Y-95389000D01*
X151273557Y-95382481D01*
X151207373Y-95375963D01*
X151094147Y-95341616D01*
X151037533Y-95324443D01*
X150881011Y-95240779D01*
X150881009Y-95240778D01*
X150845271Y-95211448D01*
X150743814Y-95128186D01*
X150660552Y-95026729D01*
X150631222Y-94990991D01*
X150621652Y-94973087D01*
X150547557Y-94834467D01*
X150530384Y-94777853D01*
X150496037Y-94664627D01*
X150478641Y-94488000D01*
X150496037Y-94311373D01*
X150547557Y-94141534D01*
X150547557Y-94141533D01*
X150631221Y-93985011D01*
X150631222Y-93985009D01*
X150660552Y-93949271D01*
X150743814Y-93847814D01*
X150845271Y-93764552D01*
X150881009Y-93735222D01*
X150898913Y-93725652D01*
X151037533Y-93651557D01*
X151094147Y-93634384D01*
X151207373Y-93600037D01*
X151273557Y-93593519D01*
X151339740Y-93587000D01*
X151428260Y-93587000D01*
X151494442Y-93593518D01*
X151494442Y-93593518D01*
G37*
G36*
X154034442Y-93593518D02*
X154100627Y-93600037D01*
X154213853Y-93634384D01*
X154270467Y-93651557D01*
X154409087Y-93725652D01*
X154426991Y-93735222D01*
X154462729Y-93764552D01*
X154564186Y-93847814D01*
X154647448Y-93949271D01*
X154676778Y-93985009D01*
X154676779Y-93985011D01*
X154760443Y-94141533D01*
X154760443Y-94141534D01*
X154811963Y-94311373D01*
X154829359Y-94488000D01*
X154811963Y-94664627D01*
X154777616Y-94777853D01*
X154760443Y-94834467D01*
X154686348Y-94973087D01*
X154676778Y-94990991D01*
X154647448Y-95026729D01*
X154564186Y-95128186D01*
X154462729Y-95211448D01*
X154426991Y-95240778D01*
X154426989Y-95240779D01*
X154270467Y-95324443D01*
X154213853Y-95341616D01*
X154100627Y-95375963D01*
X154034443Y-95382481D01*
X153968260Y-95389000D01*
X153879740Y-95389000D01*
X153813557Y-95382481D01*
X153747373Y-95375963D01*
X153634147Y-95341616D01*
X153577533Y-95324443D01*
X153421011Y-95240779D01*
X153421009Y-95240778D01*
X153385271Y-95211448D01*
X153283814Y-95128186D01*
X153200552Y-95026729D01*
X153171222Y-94990991D01*
X153161652Y-94973087D01*
X153087557Y-94834467D01*
X153070384Y-94777853D01*
X153036037Y-94664627D01*
X153018641Y-94488000D01*
X153036037Y-94311373D01*
X153087557Y-94141534D01*
X153087557Y-94141533D01*
X153171221Y-93985011D01*
X153171222Y-93985009D01*
X153200552Y-93949271D01*
X153283814Y-93847814D01*
X153385271Y-93764552D01*
X153421009Y-93735222D01*
X153438913Y-93725652D01*
X153577533Y-93651557D01*
X153634147Y-93634384D01*
X153747373Y-93600037D01*
X153813557Y-93593519D01*
X153879740Y-93587000D01*
X153968260Y-93587000D01*
X154034442Y-93593518D01*
X154034442Y-93593518D01*
G37*
G36*
X156574442Y-93593518D02*
X156640627Y-93600037D01*
X156753853Y-93634384D01*
X156810467Y-93651557D01*
X156949087Y-93725652D01*
X156966991Y-93735222D01*
X157002729Y-93764552D01*
X157104186Y-93847814D01*
X157187448Y-93949271D01*
X157216778Y-93985009D01*
X157216779Y-93985011D01*
X157300443Y-94141533D01*
X157300443Y-94141534D01*
X157351963Y-94311373D01*
X157369359Y-94488000D01*
X157351963Y-94664627D01*
X157317616Y-94777853D01*
X157300443Y-94834467D01*
X157226348Y-94973087D01*
X157216778Y-94990991D01*
X157187448Y-95026729D01*
X157104186Y-95128186D01*
X157002729Y-95211448D01*
X156966991Y-95240778D01*
X156966989Y-95240779D01*
X156810467Y-95324443D01*
X156753853Y-95341616D01*
X156640627Y-95375963D01*
X156574443Y-95382481D01*
X156508260Y-95389000D01*
X156419740Y-95389000D01*
X156353557Y-95382481D01*
X156287373Y-95375963D01*
X156174147Y-95341616D01*
X156117533Y-95324443D01*
X155961011Y-95240779D01*
X155961009Y-95240778D01*
X155925271Y-95211448D01*
X155823814Y-95128186D01*
X155740552Y-95026729D01*
X155711222Y-94990991D01*
X155701652Y-94973087D01*
X155627557Y-94834467D01*
X155610384Y-94777853D01*
X155576037Y-94664627D01*
X155558641Y-94488000D01*
X155576037Y-94311373D01*
X155627557Y-94141534D01*
X155627557Y-94141533D01*
X155711221Y-93985011D01*
X155711222Y-93985009D01*
X155740552Y-93949271D01*
X155823814Y-93847814D01*
X155925271Y-93764552D01*
X155961009Y-93735222D01*
X155978913Y-93725652D01*
X156117533Y-93651557D01*
X156174147Y-93634384D01*
X156287373Y-93600037D01*
X156353557Y-93593519D01*
X156419740Y-93587000D01*
X156508260Y-93587000D01*
X156574442Y-93593518D01*
X156574442Y-93593518D01*
G37*
G36*
X159114442Y-93593518D02*
X159180627Y-93600037D01*
X159293853Y-93634384D01*
X159350467Y-93651557D01*
X159489087Y-93725652D01*
X159506991Y-93735222D01*
X159542729Y-93764552D01*
X159644186Y-93847814D01*
X159727448Y-93949271D01*
X159756778Y-93985009D01*
X159756779Y-93985011D01*
X159840443Y-94141533D01*
X159840443Y-94141534D01*
X159891963Y-94311373D01*
X159909359Y-94488000D01*
X159891963Y-94664627D01*
X159857616Y-94777853D01*
X159840443Y-94834467D01*
X159766348Y-94973087D01*
X159756778Y-94990991D01*
X159727448Y-95026729D01*
X159644186Y-95128186D01*
X159542729Y-95211448D01*
X159506991Y-95240778D01*
X159506989Y-95240779D01*
X159350467Y-95324443D01*
X159293853Y-95341616D01*
X159180627Y-95375963D01*
X159114443Y-95382481D01*
X159048260Y-95389000D01*
X158959740Y-95389000D01*
X158893557Y-95382481D01*
X158827373Y-95375963D01*
X158714147Y-95341616D01*
X158657533Y-95324443D01*
X158501011Y-95240779D01*
X158501009Y-95240778D01*
X158465271Y-95211448D01*
X158363814Y-95128186D01*
X158280552Y-95026729D01*
X158251222Y-94990991D01*
X158241652Y-94973087D01*
X158167557Y-94834467D01*
X158150384Y-94777853D01*
X158116037Y-94664627D01*
X158098641Y-94488000D01*
X158116037Y-94311373D01*
X158167557Y-94141534D01*
X158167557Y-94141533D01*
X158251221Y-93985011D01*
X158251222Y-93985009D01*
X158280552Y-93949271D01*
X158363814Y-93847814D01*
X158465271Y-93764552D01*
X158501009Y-93735222D01*
X158518913Y-93725652D01*
X158657533Y-93651557D01*
X158714147Y-93634384D01*
X158827373Y-93600037D01*
X158893557Y-93593519D01*
X158959740Y-93587000D01*
X159048260Y-93587000D01*
X159114442Y-93593518D01*
X159114442Y-93593518D01*
G37*
G36*
X161654442Y-93593518D02*
X161720627Y-93600037D01*
X161833853Y-93634384D01*
X161890467Y-93651557D01*
X162029087Y-93725652D01*
X162046991Y-93735222D01*
X162082729Y-93764552D01*
X162184186Y-93847814D01*
X162267448Y-93949271D01*
X162296778Y-93985009D01*
X162296779Y-93985011D01*
X162380443Y-94141533D01*
X162380443Y-94141534D01*
X162431963Y-94311373D01*
X162449359Y-94488000D01*
X162431963Y-94664627D01*
X162397616Y-94777853D01*
X162380443Y-94834467D01*
X162306348Y-94973087D01*
X162296778Y-94990991D01*
X162267448Y-95026729D01*
X162184186Y-95128186D01*
X162082729Y-95211448D01*
X162046991Y-95240778D01*
X162046989Y-95240779D01*
X161890467Y-95324443D01*
X161833853Y-95341616D01*
X161720627Y-95375963D01*
X161654443Y-95382481D01*
X161588260Y-95389000D01*
X161499740Y-95389000D01*
X161433557Y-95382481D01*
X161367373Y-95375963D01*
X161254147Y-95341616D01*
X161197533Y-95324443D01*
X161041011Y-95240779D01*
X161041009Y-95240778D01*
X161005271Y-95211448D01*
X160903814Y-95128186D01*
X160820552Y-95026729D01*
X160791222Y-94990991D01*
X160781652Y-94973087D01*
X160707557Y-94834467D01*
X160690384Y-94777853D01*
X160656037Y-94664627D01*
X160638641Y-94488000D01*
X160656037Y-94311373D01*
X160707557Y-94141534D01*
X160707557Y-94141533D01*
X160791221Y-93985011D01*
X160791222Y-93985009D01*
X160820552Y-93949271D01*
X160903814Y-93847814D01*
X161005271Y-93764552D01*
X161041009Y-93735222D01*
X161058913Y-93725652D01*
X161197533Y-93651557D01*
X161254147Y-93634384D01*
X161367373Y-93600037D01*
X161433557Y-93593519D01*
X161499740Y-93587000D01*
X161588260Y-93587000D01*
X161654442Y-93593518D01*
X161654442Y-93593518D01*
G37*
G36*
X164194442Y-93593518D02*
X164260627Y-93600037D01*
X164373853Y-93634384D01*
X164430467Y-93651557D01*
X164569087Y-93725652D01*
X164586991Y-93735222D01*
X164622729Y-93764552D01*
X164724186Y-93847814D01*
X164807448Y-93949271D01*
X164836778Y-93985009D01*
X164836779Y-93985011D01*
X164920443Y-94141533D01*
X164920443Y-94141534D01*
X164971963Y-94311373D01*
X164989359Y-94488000D01*
X164971963Y-94664627D01*
X164937616Y-94777853D01*
X164920443Y-94834467D01*
X164846348Y-94973087D01*
X164836778Y-94990991D01*
X164807448Y-95026729D01*
X164724186Y-95128186D01*
X164622729Y-95211448D01*
X164586991Y-95240778D01*
X164586989Y-95240779D01*
X164430467Y-95324443D01*
X164373853Y-95341616D01*
X164260627Y-95375963D01*
X164194443Y-95382481D01*
X164128260Y-95389000D01*
X164039740Y-95389000D01*
X163973557Y-95382481D01*
X163907373Y-95375963D01*
X163794147Y-95341616D01*
X163737533Y-95324443D01*
X163581011Y-95240779D01*
X163581009Y-95240778D01*
X163545271Y-95211448D01*
X163443814Y-95128186D01*
X163360552Y-95026729D01*
X163331222Y-94990991D01*
X163321652Y-94973087D01*
X163247557Y-94834467D01*
X163230384Y-94777853D01*
X163196037Y-94664627D01*
X163178641Y-94488000D01*
X163196037Y-94311373D01*
X163247557Y-94141534D01*
X163247557Y-94141533D01*
X163331221Y-93985011D01*
X163331222Y-93985009D01*
X163360552Y-93949271D01*
X163443814Y-93847814D01*
X163545271Y-93764552D01*
X163581009Y-93735222D01*
X163598913Y-93725652D01*
X163737533Y-93651557D01*
X163794147Y-93634384D01*
X163907373Y-93600037D01*
X163973557Y-93593519D01*
X164039740Y-93587000D01*
X164128260Y-93587000D01*
X164194442Y-93593518D01*
X164194442Y-93593518D01*
G37*
G36*
X166734442Y-93593518D02*
X166800627Y-93600037D01*
X166913853Y-93634384D01*
X166970467Y-93651557D01*
X167109087Y-93725652D01*
X167126991Y-93735222D01*
X167162729Y-93764552D01*
X167264186Y-93847814D01*
X167347448Y-93949271D01*
X167376778Y-93985009D01*
X167376779Y-93985011D01*
X167460443Y-94141533D01*
X167460443Y-94141534D01*
X167511963Y-94311373D01*
X167529359Y-94488000D01*
X167511963Y-94664627D01*
X167477616Y-94777853D01*
X167460443Y-94834467D01*
X167386348Y-94973087D01*
X167376778Y-94990991D01*
X167347448Y-95026729D01*
X167264186Y-95128186D01*
X167162729Y-95211448D01*
X167126991Y-95240778D01*
X167126989Y-95240779D01*
X166970467Y-95324443D01*
X166913853Y-95341616D01*
X166800627Y-95375963D01*
X166734443Y-95382481D01*
X166668260Y-95389000D01*
X166579740Y-95389000D01*
X166513557Y-95382481D01*
X166447373Y-95375963D01*
X166334147Y-95341616D01*
X166277533Y-95324443D01*
X166121011Y-95240779D01*
X166121009Y-95240778D01*
X166085271Y-95211448D01*
X165983814Y-95128186D01*
X165900552Y-95026729D01*
X165871222Y-94990991D01*
X165861652Y-94973087D01*
X165787557Y-94834467D01*
X165770384Y-94777853D01*
X165736037Y-94664627D01*
X165718641Y-94488000D01*
X165736037Y-94311373D01*
X165787557Y-94141534D01*
X165787557Y-94141533D01*
X165871221Y-93985011D01*
X165871222Y-93985009D01*
X165900552Y-93949271D01*
X165983814Y-93847814D01*
X166085271Y-93764552D01*
X166121009Y-93735222D01*
X166138913Y-93725652D01*
X166277533Y-93651557D01*
X166334147Y-93634384D01*
X166447373Y-93600037D01*
X166513557Y-93593519D01*
X166579740Y-93587000D01*
X166668260Y-93587000D01*
X166734442Y-93593518D01*
X166734442Y-93593518D01*
G37*
G36*
X148954442Y-93593518D02*
X149020627Y-93600037D01*
X149133853Y-93634384D01*
X149190467Y-93651557D01*
X149329087Y-93725652D01*
X149346991Y-93735222D01*
X149382729Y-93764552D01*
X149484186Y-93847814D01*
X149567448Y-93949271D01*
X149596778Y-93985009D01*
X149596779Y-93985011D01*
X149680443Y-94141533D01*
X149680443Y-94141534D01*
X149731963Y-94311373D01*
X149749359Y-94488000D01*
X149731963Y-94664627D01*
X149697616Y-94777853D01*
X149680443Y-94834467D01*
X149606348Y-94973087D01*
X149596778Y-94990991D01*
X149567448Y-95026729D01*
X149484186Y-95128186D01*
X149382729Y-95211448D01*
X149346991Y-95240778D01*
X149346989Y-95240779D01*
X149190467Y-95324443D01*
X149133853Y-95341616D01*
X149020627Y-95375963D01*
X148954443Y-95382481D01*
X148888260Y-95389000D01*
X148799740Y-95389000D01*
X148733557Y-95382481D01*
X148667373Y-95375963D01*
X148554147Y-95341616D01*
X148497533Y-95324443D01*
X148341011Y-95240779D01*
X148341009Y-95240778D01*
X148305271Y-95211448D01*
X148203814Y-95128186D01*
X148120552Y-95026729D01*
X148091222Y-94990991D01*
X148081652Y-94973087D01*
X148007557Y-94834467D01*
X147990384Y-94777853D01*
X147956037Y-94664627D01*
X147938641Y-94488000D01*
X147956037Y-94311373D01*
X148007557Y-94141534D01*
X148007557Y-94141533D01*
X148091221Y-93985011D01*
X148091222Y-93985009D01*
X148120552Y-93949271D01*
X148203814Y-93847814D01*
X148305271Y-93764552D01*
X148341009Y-93735222D01*
X148358913Y-93725652D01*
X148497533Y-93651557D01*
X148554147Y-93634384D01*
X148667373Y-93600037D01*
X148733557Y-93593519D01*
X148799740Y-93587000D01*
X148888260Y-93587000D01*
X148954442Y-93593518D01*
X148954442Y-93593518D01*
G37*
G36*
X189594442Y-93593518D02*
X189660627Y-93600037D01*
X189773853Y-93634384D01*
X189830467Y-93651557D01*
X189969087Y-93725652D01*
X189986991Y-93735222D01*
X190022729Y-93764552D01*
X190124186Y-93847814D01*
X190207448Y-93949271D01*
X190236778Y-93985009D01*
X190236779Y-93985011D01*
X190320443Y-94141533D01*
X190320443Y-94141534D01*
X190371963Y-94311373D01*
X190389359Y-94488000D01*
X190371963Y-94664627D01*
X190337616Y-94777853D01*
X190320443Y-94834467D01*
X190246348Y-94973087D01*
X190236778Y-94990991D01*
X190207448Y-95026729D01*
X190124186Y-95128186D01*
X190022729Y-95211448D01*
X189986991Y-95240778D01*
X189986989Y-95240779D01*
X189830467Y-95324443D01*
X189773853Y-95341616D01*
X189660627Y-95375963D01*
X189594443Y-95382481D01*
X189528260Y-95389000D01*
X189439740Y-95389000D01*
X189373557Y-95382481D01*
X189307373Y-95375963D01*
X189194147Y-95341616D01*
X189137533Y-95324443D01*
X188981011Y-95240779D01*
X188981009Y-95240778D01*
X188945271Y-95211448D01*
X188843814Y-95128186D01*
X188760552Y-95026729D01*
X188731222Y-94990991D01*
X188721652Y-94973087D01*
X188647557Y-94834467D01*
X188630384Y-94777853D01*
X188596037Y-94664627D01*
X188578641Y-94488000D01*
X188596037Y-94311373D01*
X188647557Y-94141534D01*
X188647557Y-94141533D01*
X188731221Y-93985011D01*
X188731222Y-93985009D01*
X188760552Y-93949271D01*
X188843814Y-93847814D01*
X188945271Y-93764552D01*
X188981009Y-93735222D01*
X188998913Y-93725652D01*
X189137533Y-93651557D01*
X189194147Y-93634384D01*
X189307373Y-93600037D01*
X189373557Y-93593519D01*
X189439740Y-93587000D01*
X189528260Y-93587000D01*
X189594442Y-93593518D01*
X189594442Y-93593518D01*
G37*
G36*
X192134442Y-93593518D02*
X192200627Y-93600037D01*
X192313853Y-93634384D01*
X192370467Y-93651557D01*
X192509087Y-93725652D01*
X192526991Y-93735222D01*
X192562729Y-93764552D01*
X192664186Y-93847814D01*
X192747448Y-93949271D01*
X192776778Y-93985009D01*
X192776779Y-93985011D01*
X192860443Y-94141533D01*
X192860443Y-94141534D01*
X192911963Y-94311373D01*
X192929359Y-94488000D01*
X192911963Y-94664627D01*
X192877616Y-94777853D01*
X192860443Y-94834467D01*
X192786348Y-94973087D01*
X192776778Y-94990991D01*
X192747448Y-95026729D01*
X192664186Y-95128186D01*
X192562729Y-95211448D01*
X192526991Y-95240778D01*
X192526989Y-95240779D01*
X192370467Y-95324443D01*
X192313853Y-95341616D01*
X192200627Y-95375963D01*
X192134443Y-95382481D01*
X192068260Y-95389000D01*
X191979740Y-95389000D01*
X191913557Y-95382481D01*
X191847373Y-95375963D01*
X191734147Y-95341616D01*
X191677533Y-95324443D01*
X191521011Y-95240779D01*
X191521009Y-95240778D01*
X191485271Y-95211448D01*
X191383814Y-95128186D01*
X191300552Y-95026729D01*
X191271222Y-94990991D01*
X191261652Y-94973087D01*
X191187557Y-94834467D01*
X191170384Y-94777853D01*
X191136037Y-94664627D01*
X191118641Y-94488000D01*
X191136037Y-94311373D01*
X191187557Y-94141534D01*
X191187557Y-94141533D01*
X191271221Y-93985011D01*
X191271222Y-93985009D01*
X191300552Y-93949271D01*
X191383814Y-93847814D01*
X191485271Y-93764552D01*
X191521009Y-93735222D01*
X191538913Y-93725652D01*
X191677533Y-93651557D01*
X191734147Y-93634384D01*
X191847373Y-93600037D01*
X191913557Y-93593519D01*
X191979740Y-93587000D01*
X192068260Y-93587000D01*
X192134442Y-93593518D01*
X192134442Y-93593518D01*
G37*
G36*
X169274442Y-93593518D02*
X169340627Y-93600037D01*
X169453853Y-93634384D01*
X169510467Y-93651557D01*
X169649087Y-93725652D01*
X169666991Y-93735222D01*
X169702729Y-93764552D01*
X169804186Y-93847814D01*
X169887448Y-93949271D01*
X169916778Y-93985009D01*
X169916779Y-93985011D01*
X170000443Y-94141533D01*
X170000443Y-94141534D01*
X170051963Y-94311373D01*
X170069359Y-94488000D01*
X170051963Y-94664627D01*
X170017616Y-94777853D01*
X170000443Y-94834467D01*
X169926348Y-94973087D01*
X169916778Y-94990991D01*
X169887448Y-95026729D01*
X169804186Y-95128186D01*
X169702729Y-95211448D01*
X169666991Y-95240778D01*
X169666989Y-95240779D01*
X169510467Y-95324443D01*
X169453853Y-95341616D01*
X169340627Y-95375963D01*
X169274443Y-95382481D01*
X169208260Y-95389000D01*
X169119740Y-95389000D01*
X169053557Y-95382481D01*
X168987373Y-95375963D01*
X168874147Y-95341616D01*
X168817533Y-95324443D01*
X168661011Y-95240779D01*
X168661009Y-95240778D01*
X168625271Y-95211448D01*
X168523814Y-95128186D01*
X168440552Y-95026729D01*
X168411222Y-94990991D01*
X168401652Y-94973087D01*
X168327557Y-94834467D01*
X168310384Y-94777853D01*
X168276037Y-94664627D01*
X168258641Y-94488000D01*
X168276037Y-94311373D01*
X168327557Y-94141534D01*
X168327557Y-94141533D01*
X168411221Y-93985011D01*
X168411222Y-93985009D01*
X168440552Y-93949271D01*
X168523814Y-93847814D01*
X168625271Y-93764552D01*
X168661009Y-93735222D01*
X168678913Y-93725652D01*
X168817533Y-93651557D01*
X168874147Y-93634384D01*
X168987373Y-93600037D01*
X169053557Y-93593519D01*
X169119740Y-93587000D01*
X169208260Y-93587000D01*
X169274442Y-93593518D01*
X169274442Y-93593518D01*
G37*
G36*
X187054442Y-93593518D02*
X187120627Y-93600037D01*
X187233853Y-93634384D01*
X187290467Y-93651557D01*
X187429087Y-93725652D01*
X187446991Y-93735222D01*
X187482729Y-93764552D01*
X187584186Y-93847814D01*
X187667448Y-93949271D01*
X187696778Y-93985009D01*
X187696779Y-93985011D01*
X187780443Y-94141533D01*
X187780443Y-94141534D01*
X187831963Y-94311373D01*
X187849359Y-94488000D01*
X187831963Y-94664627D01*
X187797616Y-94777853D01*
X187780443Y-94834467D01*
X187706348Y-94973087D01*
X187696778Y-94990991D01*
X187667448Y-95026729D01*
X187584186Y-95128186D01*
X187482729Y-95211448D01*
X187446991Y-95240778D01*
X187446989Y-95240779D01*
X187290467Y-95324443D01*
X187233853Y-95341616D01*
X187120627Y-95375963D01*
X187054443Y-95382481D01*
X186988260Y-95389000D01*
X186899740Y-95389000D01*
X186833557Y-95382481D01*
X186767373Y-95375963D01*
X186654147Y-95341616D01*
X186597533Y-95324443D01*
X186441011Y-95240779D01*
X186441009Y-95240778D01*
X186405271Y-95211448D01*
X186303814Y-95128186D01*
X186220552Y-95026729D01*
X186191222Y-94990991D01*
X186181652Y-94973087D01*
X186107557Y-94834467D01*
X186090384Y-94777853D01*
X186056037Y-94664627D01*
X186038641Y-94488000D01*
X186056037Y-94311373D01*
X186107557Y-94141534D01*
X186107557Y-94141533D01*
X186191221Y-93985011D01*
X186191222Y-93985009D01*
X186220552Y-93949271D01*
X186303814Y-93847814D01*
X186405271Y-93764552D01*
X186441009Y-93735222D01*
X186458913Y-93725652D01*
X186597533Y-93651557D01*
X186654147Y-93634384D01*
X186767373Y-93600037D01*
X186833557Y-93593519D01*
X186899740Y-93587000D01*
X186988260Y-93587000D01*
X187054442Y-93593518D01*
X187054442Y-93593518D01*
G37*
G36*
X174354442Y-93593518D02*
X174420627Y-93600037D01*
X174533853Y-93634384D01*
X174590467Y-93651557D01*
X174729087Y-93725652D01*
X174746991Y-93735222D01*
X174782729Y-93764552D01*
X174884186Y-93847814D01*
X174967448Y-93949271D01*
X174996778Y-93985009D01*
X174996779Y-93985011D01*
X175080443Y-94141533D01*
X175080443Y-94141534D01*
X175131963Y-94311373D01*
X175149359Y-94488000D01*
X175131963Y-94664627D01*
X175097616Y-94777853D01*
X175080443Y-94834467D01*
X175006348Y-94973087D01*
X174996778Y-94990991D01*
X174967448Y-95026729D01*
X174884186Y-95128186D01*
X174782729Y-95211448D01*
X174746991Y-95240778D01*
X174746989Y-95240779D01*
X174590467Y-95324443D01*
X174533853Y-95341616D01*
X174420627Y-95375963D01*
X174354443Y-95382481D01*
X174288260Y-95389000D01*
X174199740Y-95389000D01*
X174133557Y-95382481D01*
X174067373Y-95375963D01*
X173954147Y-95341616D01*
X173897533Y-95324443D01*
X173741011Y-95240779D01*
X173741009Y-95240778D01*
X173705271Y-95211448D01*
X173603814Y-95128186D01*
X173520552Y-95026729D01*
X173491222Y-94990991D01*
X173481652Y-94973087D01*
X173407557Y-94834467D01*
X173390384Y-94777853D01*
X173356037Y-94664627D01*
X173338641Y-94488000D01*
X173356037Y-94311373D01*
X173407557Y-94141534D01*
X173407557Y-94141533D01*
X173491221Y-93985011D01*
X173491222Y-93985009D01*
X173520552Y-93949271D01*
X173603814Y-93847814D01*
X173705271Y-93764552D01*
X173741009Y-93735222D01*
X173758913Y-93725652D01*
X173897533Y-93651557D01*
X173954147Y-93634384D01*
X174067373Y-93600037D01*
X174133557Y-93593519D01*
X174199740Y-93587000D01*
X174288260Y-93587000D01*
X174354442Y-93593518D01*
X174354442Y-93593518D01*
G37*
G36*
X176894442Y-93593518D02*
X176960627Y-93600037D01*
X177073853Y-93634384D01*
X177130467Y-93651557D01*
X177269087Y-93725652D01*
X177286991Y-93735222D01*
X177322729Y-93764552D01*
X177424186Y-93847814D01*
X177507448Y-93949271D01*
X177536778Y-93985009D01*
X177536779Y-93985011D01*
X177620443Y-94141533D01*
X177620443Y-94141534D01*
X177671963Y-94311373D01*
X177689359Y-94488000D01*
X177671963Y-94664627D01*
X177637616Y-94777853D01*
X177620443Y-94834467D01*
X177546348Y-94973087D01*
X177536778Y-94990991D01*
X177507448Y-95026729D01*
X177424186Y-95128186D01*
X177322729Y-95211448D01*
X177286991Y-95240778D01*
X177286989Y-95240779D01*
X177130467Y-95324443D01*
X177073853Y-95341616D01*
X176960627Y-95375963D01*
X176894443Y-95382481D01*
X176828260Y-95389000D01*
X176739740Y-95389000D01*
X176673557Y-95382481D01*
X176607373Y-95375963D01*
X176494147Y-95341616D01*
X176437533Y-95324443D01*
X176281011Y-95240779D01*
X176281009Y-95240778D01*
X176245271Y-95211448D01*
X176143814Y-95128186D01*
X176060552Y-95026729D01*
X176031222Y-94990991D01*
X176021652Y-94973087D01*
X175947557Y-94834467D01*
X175930384Y-94777853D01*
X175896037Y-94664627D01*
X175878641Y-94488000D01*
X175896037Y-94311373D01*
X175947557Y-94141534D01*
X175947557Y-94141533D01*
X176031221Y-93985011D01*
X176031222Y-93985009D01*
X176060552Y-93949271D01*
X176143814Y-93847814D01*
X176245271Y-93764552D01*
X176281009Y-93735222D01*
X176298913Y-93725652D01*
X176437533Y-93651557D01*
X176494147Y-93634384D01*
X176607373Y-93600037D01*
X176673557Y-93593519D01*
X176739740Y-93587000D01*
X176828260Y-93587000D01*
X176894442Y-93593518D01*
X176894442Y-93593518D01*
G37*
G36*
X179434442Y-93593518D02*
X179500627Y-93600037D01*
X179613853Y-93634384D01*
X179670467Y-93651557D01*
X179809087Y-93725652D01*
X179826991Y-93735222D01*
X179862729Y-93764552D01*
X179964186Y-93847814D01*
X180047448Y-93949271D01*
X180076778Y-93985009D01*
X180076779Y-93985011D01*
X180160443Y-94141533D01*
X180160443Y-94141534D01*
X180211963Y-94311373D01*
X180229359Y-94488000D01*
X180211963Y-94664627D01*
X180177616Y-94777853D01*
X180160443Y-94834467D01*
X180086348Y-94973087D01*
X180076778Y-94990991D01*
X180047448Y-95026729D01*
X179964186Y-95128186D01*
X179862729Y-95211448D01*
X179826991Y-95240778D01*
X179826989Y-95240779D01*
X179670467Y-95324443D01*
X179613853Y-95341616D01*
X179500627Y-95375963D01*
X179434443Y-95382481D01*
X179368260Y-95389000D01*
X179279740Y-95389000D01*
X179213557Y-95382481D01*
X179147373Y-95375963D01*
X179034147Y-95341616D01*
X178977533Y-95324443D01*
X178821011Y-95240779D01*
X178821009Y-95240778D01*
X178785271Y-95211448D01*
X178683814Y-95128186D01*
X178600552Y-95026729D01*
X178571222Y-94990991D01*
X178561652Y-94973087D01*
X178487557Y-94834467D01*
X178470384Y-94777853D01*
X178436037Y-94664627D01*
X178418641Y-94488000D01*
X178436037Y-94311373D01*
X178487557Y-94141534D01*
X178487557Y-94141533D01*
X178571221Y-93985011D01*
X178571222Y-93985009D01*
X178600552Y-93949271D01*
X178683814Y-93847814D01*
X178785271Y-93764552D01*
X178821009Y-93735222D01*
X178838913Y-93725652D01*
X178977533Y-93651557D01*
X179034147Y-93634384D01*
X179147373Y-93600037D01*
X179213557Y-93593519D01*
X179279740Y-93587000D01*
X179368260Y-93587000D01*
X179434442Y-93593518D01*
X179434442Y-93593518D01*
G37*
G36*
X181974442Y-93593518D02*
X182040627Y-93600037D01*
X182153853Y-93634384D01*
X182210467Y-93651557D01*
X182349087Y-93725652D01*
X182366991Y-93735222D01*
X182402729Y-93764552D01*
X182504186Y-93847814D01*
X182587448Y-93949271D01*
X182616778Y-93985009D01*
X182616779Y-93985011D01*
X182700443Y-94141533D01*
X182700443Y-94141534D01*
X182751963Y-94311373D01*
X182769359Y-94488000D01*
X182751963Y-94664627D01*
X182717616Y-94777853D01*
X182700443Y-94834467D01*
X182626348Y-94973087D01*
X182616778Y-94990991D01*
X182587448Y-95026729D01*
X182504186Y-95128186D01*
X182402729Y-95211448D01*
X182366991Y-95240778D01*
X182366989Y-95240779D01*
X182210467Y-95324443D01*
X182153853Y-95341616D01*
X182040627Y-95375963D01*
X181974443Y-95382481D01*
X181908260Y-95389000D01*
X181819740Y-95389000D01*
X181753557Y-95382481D01*
X181687373Y-95375963D01*
X181574147Y-95341616D01*
X181517533Y-95324443D01*
X181361011Y-95240779D01*
X181361009Y-95240778D01*
X181325271Y-95211448D01*
X181223814Y-95128186D01*
X181140552Y-95026729D01*
X181111222Y-94990991D01*
X181101652Y-94973087D01*
X181027557Y-94834467D01*
X181010384Y-94777853D01*
X180976037Y-94664627D01*
X180958641Y-94488000D01*
X180976037Y-94311373D01*
X181027557Y-94141534D01*
X181027557Y-94141533D01*
X181111221Y-93985011D01*
X181111222Y-93985009D01*
X181140552Y-93949271D01*
X181223814Y-93847814D01*
X181325271Y-93764552D01*
X181361009Y-93735222D01*
X181378913Y-93725652D01*
X181517533Y-93651557D01*
X181574147Y-93634384D01*
X181687373Y-93600037D01*
X181753557Y-93593519D01*
X181819740Y-93587000D01*
X181908260Y-93587000D01*
X181974442Y-93593518D01*
X181974442Y-93593518D01*
G37*
G36*
X194674442Y-93593518D02*
X194740627Y-93600037D01*
X194853853Y-93634384D01*
X194910467Y-93651557D01*
X195049087Y-93725652D01*
X195066991Y-93735222D01*
X195102729Y-93764552D01*
X195204186Y-93847814D01*
X195287448Y-93949271D01*
X195316778Y-93985009D01*
X195316779Y-93985011D01*
X195400443Y-94141533D01*
X195400443Y-94141534D01*
X195451963Y-94311373D01*
X195469359Y-94488000D01*
X195451963Y-94664627D01*
X195417616Y-94777853D01*
X195400443Y-94834467D01*
X195326348Y-94973087D01*
X195316778Y-94990991D01*
X195287448Y-95026729D01*
X195204186Y-95128186D01*
X195102729Y-95211448D01*
X195066991Y-95240778D01*
X195066989Y-95240779D01*
X194910467Y-95324443D01*
X194853853Y-95341616D01*
X194740627Y-95375963D01*
X194674443Y-95382481D01*
X194608260Y-95389000D01*
X194519740Y-95389000D01*
X194453557Y-95382481D01*
X194387373Y-95375963D01*
X194274147Y-95341616D01*
X194217533Y-95324443D01*
X194061011Y-95240779D01*
X194061009Y-95240778D01*
X194025271Y-95211448D01*
X193923814Y-95128186D01*
X193840552Y-95026729D01*
X193811222Y-94990991D01*
X193801652Y-94973087D01*
X193727557Y-94834467D01*
X193710384Y-94777853D01*
X193676037Y-94664627D01*
X193658641Y-94488000D01*
X193676037Y-94311373D01*
X193727557Y-94141534D01*
X193727557Y-94141533D01*
X193811221Y-93985011D01*
X193811222Y-93985009D01*
X193840552Y-93949271D01*
X193923814Y-93847814D01*
X194025271Y-93764552D01*
X194061009Y-93735222D01*
X194078913Y-93725652D01*
X194217533Y-93651557D01*
X194274147Y-93634384D01*
X194387373Y-93600037D01*
X194453557Y-93593519D01*
X194519740Y-93587000D01*
X194608260Y-93587000D01*
X194674442Y-93593518D01*
X194674442Y-93593518D01*
G37*
G36*
X146414442Y-93593518D02*
X146480627Y-93600037D01*
X146593853Y-93634384D01*
X146650467Y-93651557D01*
X146789087Y-93725652D01*
X146806991Y-93735222D01*
X146842729Y-93764552D01*
X146944186Y-93847814D01*
X147027448Y-93949271D01*
X147056778Y-93985009D01*
X147056779Y-93985011D01*
X147140443Y-94141533D01*
X147140443Y-94141534D01*
X147191963Y-94311373D01*
X147209359Y-94488000D01*
X147191963Y-94664627D01*
X147157616Y-94777853D01*
X147140443Y-94834467D01*
X147066348Y-94973087D01*
X147056778Y-94990991D01*
X147027448Y-95026729D01*
X146944186Y-95128186D01*
X146842729Y-95211448D01*
X146806991Y-95240778D01*
X146806989Y-95240779D01*
X146650467Y-95324443D01*
X146593853Y-95341616D01*
X146480627Y-95375963D01*
X146414443Y-95382481D01*
X146348260Y-95389000D01*
X146259740Y-95389000D01*
X146193557Y-95382481D01*
X146127373Y-95375963D01*
X146014147Y-95341616D01*
X145957533Y-95324443D01*
X145801011Y-95240779D01*
X145801009Y-95240778D01*
X145765271Y-95211448D01*
X145663814Y-95128186D01*
X145580552Y-95026729D01*
X145551222Y-94990991D01*
X145541652Y-94973087D01*
X145467557Y-94834467D01*
X145450384Y-94777853D01*
X145416037Y-94664627D01*
X145398641Y-94488000D01*
X145416037Y-94311373D01*
X145467557Y-94141534D01*
X145467557Y-94141533D01*
X145551221Y-93985011D01*
X145551222Y-93985009D01*
X145580552Y-93949271D01*
X145663814Y-93847814D01*
X145765271Y-93764552D01*
X145801009Y-93735222D01*
X145818913Y-93725652D01*
X145957533Y-93651557D01*
X146014147Y-93634384D01*
X146127373Y-93600037D01*
X146193557Y-93593519D01*
X146259740Y-93587000D01*
X146348260Y-93587000D01*
X146414442Y-93593518D01*
X146414442Y-93593518D01*
G37*
G36*
X184514442Y-93593518D02*
X184580627Y-93600037D01*
X184693853Y-93634384D01*
X184750467Y-93651557D01*
X184889087Y-93725652D01*
X184906991Y-93735222D01*
X184942729Y-93764552D01*
X185044186Y-93847814D01*
X185127448Y-93949271D01*
X185156778Y-93985009D01*
X185156779Y-93985011D01*
X185240443Y-94141533D01*
X185240443Y-94141534D01*
X185291963Y-94311373D01*
X185309359Y-94488000D01*
X185291963Y-94664627D01*
X185257616Y-94777853D01*
X185240443Y-94834467D01*
X185166348Y-94973087D01*
X185156778Y-94990991D01*
X185127448Y-95026729D01*
X185044186Y-95128186D01*
X184942729Y-95211448D01*
X184906991Y-95240778D01*
X184906989Y-95240779D01*
X184750467Y-95324443D01*
X184693853Y-95341616D01*
X184580627Y-95375963D01*
X184514443Y-95382481D01*
X184448260Y-95389000D01*
X184359740Y-95389000D01*
X184293557Y-95382481D01*
X184227373Y-95375963D01*
X184114147Y-95341616D01*
X184057533Y-95324443D01*
X183901011Y-95240779D01*
X183901009Y-95240778D01*
X183865271Y-95211448D01*
X183763814Y-95128186D01*
X183680552Y-95026729D01*
X183651222Y-94990991D01*
X183641652Y-94973087D01*
X183567557Y-94834467D01*
X183550384Y-94777853D01*
X183516037Y-94664627D01*
X183498641Y-94488000D01*
X183516037Y-94311373D01*
X183567557Y-94141534D01*
X183567557Y-94141533D01*
X183651221Y-93985011D01*
X183651222Y-93985009D01*
X183680552Y-93949271D01*
X183763814Y-93847814D01*
X183865271Y-93764552D01*
X183901009Y-93735222D01*
X183918913Y-93725652D01*
X184057533Y-93651557D01*
X184114147Y-93634384D01*
X184227373Y-93600037D01*
X184293557Y-93593519D01*
X184359740Y-93587000D01*
X184448260Y-93587000D01*
X184514442Y-93593518D01*
X184514442Y-93593518D01*
G37*
G36*
X164194442Y-91053518D02*
X164260627Y-91060037D01*
X164373853Y-91094384D01*
X164430467Y-91111557D01*
X164569087Y-91185652D01*
X164586991Y-91195222D01*
X164622729Y-91224552D01*
X164724186Y-91307814D01*
X164807448Y-91409271D01*
X164836778Y-91445009D01*
X164836779Y-91445011D01*
X164920443Y-91601533D01*
X164920443Y-91601534D01*
X164971963Y-91771373D01*
X164989359Y-91948000D01*
X164971963Y-92124627D01*
X164937616Y-92237853D01*
X164920443Y-92294467D01*
X164846348Y-92433087D01*
X164836778Y-92450991D01*
X164807448Y-92486729D01*
X164724186Y-92588186D01*
X164622729Y-92671448D01*
X164586991Y-92700778D01*
X164586989Y-92700779D01*
X164430467Y-92784443D01*
X164373853Y-92801616D01*
X164260627Y-92835963D01*
X164194442Y-92842482D01*
X164128260Y-92849000D01*
X164039740Y-92849000D01*
X163973558Y-92842482D01*
X163907373Y-92835963D01*
X163794147Y-92801616D01*
X163737533Y-92784443D01*
X163581011Y-92700779D01*
X163581009Y-92700778D01*
X163545271Y-92671448D01*
X163443814Y-92588186D01*
X163360552Y-92486729D01*
X163331222Y-92450991D01*
X163321652Y-92433087D01*
X163247557Y-92294467D01*
X163230384Y-92237853D01*
X163196037Y-92124627D01*
X163178641Y-91948000D01*
X163196037Y-91771373D01*
X163247557Y-91601534D01*
X163247557Y-91601533D01*
X163331221Y-91445011D01*
X163331222Y-91445009D01*
X163360552Y-91409271D01*
X163443814Y-91307814D01*
X163545271Y-91224552D01*
X163581009Y-91195222D01*
X163598913Y-91185652D01*
X163737533Y-91111557D01*
X163794147Y-91094384D01*
X163907373Y-91060037D01*
X163973558Y-91053518D01*
X164039740Y-91047000D01*
X164128260Y-91047000D01*
X164194442Y-91053518D01*
X164194442Y-91053518D01*
G37*
G36*
X179434442Y-91053518D02*
X179500627Y-91060037D01*
X179613853Y-91094384D01*
X179670467Y-91111557D01*
X179809087Y-91185652D01*
X179826991Y-91195222D01*
X179862729Y-91224552D01*
X179964186Y-91307814D01*
X180047448Y-91409271D01*
X180076778Y-91445009D01*
X180076779Y-91445011D01*
X180160443Y-91601533D01*
X180160443Y-91601534D01*
X180211963Y-91771373D01*
X180229359Y-91948000D01*
X180211963Y-92124627D01*
X180177616Y-92237853D01*
X180160443Y-92294467D01*
X180086348Y-92433087D01*
X180076778Y-92450991D01*
X180047448Y-92486729D01*
X179964186Y-92588186D01*
X179862729Y-92671448D01*
X179826991Y-92700778D01*
X179826989Y-92700779D01*
X179670467Y-92784443D01*
X179613853Y-92801616D01*
X179500627Y-92835963D01*
X179434442Y-92842482D01*
X179368260Y-92849000D01*
X179279740Y-92849000D01*
X179213558Y-92842482D01*
X179147373Y-92835963D01*
X179034147Y-92801616D01*
X178977533Y-92784443D01*
X178821011Y-92700779D01*
X178821009Y-92700778D01*
X178785271Y-92671448D01*
X178683814Y-92588186D01*
X178600552Y-92486729D01*
X178571222Y-92450991D01*
X178561652Y-92433087D01*
X178487557Y-92294467D01*
X178470384Y-92237853D01*
X178436037Y-92124627D01*
X178418641Y-91948000D01*
X178436037Y-91771373D01*
X178487557Y-91601534D01*
X178487557Y-91601533D01*
X178571221Y-91445011D01*
X178571222Y-91445009D01*
X178600552Y-91409271D01*
X178683814Y-91307814D01*
X178785271Y-91224552D01*
X178821009Y-91195222D01*
X178838913Y-91185652D01*
X178977533Y-91111557D01*
X179034147Y-91094384D01*
X179147373Y-91060037D01*
X179213558Y-91053518D01*
X179279740Y-91047000D01*
X179368260Y-91047000D01*
X179434442Y-91053518D01*
X179434442Y-91053518D01*
G37*
G36*
X195465000Y-92849000D02*
X193663000Y-92849000D01*
X193663000Y-91047000D01*
X195465000Y-91047000D01*
X195465000Y-92849000D01*
X195465000Y-92849000D01*
G37*
G36*
X192134442Y-91053518D02*
X192200627Y-91060037D01*
X192313853Y-91094384D01*
X192370467Y-91111557D01*
X192509087Y-91185652D01*
X192526991Y-91195222D01*
X192562729Y-91224552D01*
X192664186Y-91307814D01*
X192747448Y-91409271D01*
X192776778Y-91445009D01*
X192776779Y-91445011D01*
X192860443Y-91601533D01*
X192860443Y-91601534D01*
X192911963Y-91771373D01*
X192929359Y-91948000D01*
X192911963Y-92124627D01*
X192877616Y-92237853D01*
X192860443Y-92294467D01*
X192786348Y-92433087D01*
X192776778Y-92450991D01*
X192747448Y-92486729D01*
X192664186Y-92588186D01*
X192562729Y-92671448D01*
X192526991Y-92700778D01*
X192526989Y-92700779D01*
X192370467Y-92784443D01*
X192313853Y-92801616D01*
X192200627Y-92835963D01*
X192134442Y-92842482D01*
X192068260Y-92849000D01*
X191979740Y-92849000D01*
X191913558Y-92842482D01*
X191847373Y-92835963D01*
X191734147Y-92801616D01*
X191677533Y-92784443D01*
X191521011Y-92700779D01*
X191521009Y-92700778D01*
X191485271Y-92671448D01*
X191383814Y-92588186D01*
X191300552Y-92486729D01*
X191271222Y-92450991D01*
X191261652Y-92433087D01*
X191187557Y-92294467D01*
X191170384Y-92237853D01*
X191136037Y-92124627D01*
X191118641Y-91948000D01*
X191136037Y-91771373D01*
X191187557Y-91601534D01*
X191187557Y-91601533D01*
X191271221Y-91445011D01*
X191271222Y-91445009D01*
X191300552Y-91409271D01*
X191383814Y-91307814D01*
X191485271Y-91224552D01*
X191521009Y-91195222D01*
X191538913Y-91185652D01*
X191677533Y-91111557D01*
X191734147Y-91094384D01*
X191847373Y-91060037D01*
X191913558Y-91053518D01*
X191979740Y-91047000D01*
X192068260Y-91047000D01*
X192134442Y-91053518D01*
X192134442Y-91053518D01*
G37*
G36*
X189594442Y-91053518D02*
X189660627Y-91060037D01*
X189773853Y-91094384D01*
X189830467Y-91111557D01*
X189969087Y-91185652D01*
X189986991Y-91195222D01*
X190022729Y-91224552D01*
X190124186Y-91307814D01*
X190207448Y-91409271D01*
X190236778Y-91445009D01*
X190236779Y-91445011D01*
X190320443Y-91601533D01*
X190320443Y-91601534D01*
X190371963Y-91771373D01*
X190389359Y-91948000D01*
X190371963Y-92124627D01*
X190337616Y-92237853D01*
X190320443Y-92294467D01*
X190246348Y-92433087D01*
X190236778Y-92450991D01*
X190207448Y-92486729D01*
X190124186Y-92588186D01*
X190022729Y-92671448D01*
X189986991Y-92700778D01*
X189986989Y-92700779D01*
X189830467Y-92784443D01*
X189773853Y-92801616D01*
X189660627Y-92835963D01*
X189594442Y-92842482D01*
X189528260Y-92849000D01*
X189439740Y-92849000D01*
X189373558Y-92842482D01*
X189307373Y-92835963D01*
X189194147Y-92801616D01*
X189137533Y-92784443D01*
X188981011Y-92700779D01*
X188981009Y-92700778D01*
X188945271Y-92671448D01*
X188843814Y-92588186D01*
X188760552Y-92486729D01*
X188731222Y-92450991D01*
X188721652Y-92433087D01*
X188647557Y-92294467D01*
X188630384Y-92237853D01*
X188596037Y-92124627D01*
X188578641Y-91948000D01*
X188596037Y-91771373D01*
X188647557Y-91601534D01*
X188647557Y-91601533D01*
X188731221Y-91445011D01*
X188731222Y-91445009D01*
X188760552Y-91409271D01*
X188843814Y-91307814D01*
X188945271Y-91224552D01*
X188981009Y-91195222D01*
X188998913Y-91185652D01*
X189137533Y-91111557D01*
X189194147Y-91094384D01*
X189307373Y-91060037D01*
X189373558Y-91053518D01*
X189439740Y-91047000D01*
X189528260Y-91047000D01*
X189594442Y-91053518D01*
X189594442Y-91053518D01*
G37*
G36*
X187054442Y-91053518D02*
X187120627Y-91060037D01*
X187233853Y-91094384D01*
X187290467Y-91111557D01*
X187429087Y-91185652D01*
X187446991Y-91195222D01*
X187482729Y-91224552D01*
X187584186Y-91307814D01*
X187667448Y-91409271D01*
X187696778Y-91445009D01*
X187696779Y-91445011D01*
X187780443Y-91601533D01*
X187780443Y-91601534D01*
X187831963Y-91771373D01*
X187849359Y-91948000D01*
X187831963Y-92124627D01*
X187797616Y-92237853D01*
X187780443Y-92294467D01*
X187706348Y-92433087D01*
X187696778Y-92450991D01*
X187667448Y-92486729D01*
X187584186Y-92588186D01*
X187482729Y-92671448D01*
X187446991Y-92700778D01*
X187446989Y-92700779D01*
X187290467Y-92784443D01*
X187233853Y-92801616D01*
X187120627Y-92835963D01*
X187054442Y-92842482D01*
X186988260Y-92849000D01*
X186899740Y-92849000D01*
X186833558Y-92842482D01*
X186767373Y-92835963D01*
X186654147Y-92801616D01*
X186597533Y-92784443D01*
X186441011Y-92700779D01*
X186441009Y-92700778D01*
X186405271Y-92671448D01*
X186303814Y-92588186D01*
X186220552Y-92486729D01*
X186191222Y-92450991D01*
X186181652Y-92433087D01*
X186107557Y-92294467D01*
X186090384Y-92237853D01*
X186056037Y-92124627D01*
X186038641Y-91948000D01*
X186056037Y-91771373D01*
X186107557Y-91601534D01*
X186107557Y-91601533D01*
X186191221Y-91445011D01*
X186191222Y-91445009D01*
X186220552Y-91409271D01*
X186303814Y-91307814D01*
X186405271Y-91224552D01*
X186441009Y-91195222D01*
X186458913Y-91185652D01*
X186597533Y-91111557D01*
X186654147Y-91094384D01*
X186767373Y-91060037D01*
X186833558Y-91053518D01*
X186899740Y-91047000D01*
X186988260Y-91047000D01*
X187054442Y-91053518D01*
X187054442Y-91053518D01*
G37*
G36*
X184514442Y-91053518D02*
X184580627Y-91060037D01*
X184693853Y-91094384D01*
X184750467Y-91111557D01*
X184889087Y-91185652D01*
X184906991Y-91195222D01*
X184942729Y-91224552D01*
X185044186Y-91307814D01*
X185127448Y-91409271D01*
X185156778Y-91445009D01*
X185156779Y-91445011D01*
X185240443Y-91601533D01*
X185240443Y-91601534D01*
X185291963Y-91771373D01*
X185309359Y-91948000D01*
X185291963Y-92124627D01*
X185257616Y-92237853D01*
X185240443Y-92294467D01*
X185166348Y-92433087D01*
X185156778Y-92450991D01*
X185127448Y-92486729D01*
X185044186Y-92588186D01*
X184942729Y-92671448D01*
X184906991Y-92700778D01*
X184906989Y-92700779D01*
X184750467Y-92784443D01*
X184693853Y-92801616D01*
X184580627Y-92835963D01*
X184514442Y-92842482D01*
X184448260Y-92849000D01*
X184359740Y-92849000D01*
X184293558Y-92842482D01*
X184227373Y-92835963D01*
X184114147Y-92801616D01*
X184057533Y-92784443D01*
X183901011Y-92700779D01*
X183901009Y-92700778D01*
X183865271Y-92671448D01*
X183763814Y-92588186D01*
X183680552Y-92486729D01*
X183651222Y-92450991D01*
X183641652Y-92433087D01*
X183567557Y-92294467D01*
X183550384Y-92237853D01*
X183516037Y-92124627D01*
X183498641Y-91948000D01*
X183516037Y-91771373D01*
X183567557Y-91601534D01*
X183567557Y-91601533D01*
X183651221Y-91445011D01*
X183651222Y-91445009D01*
X183680552Y-91409271D01*
X183763814Y-91307814D01*
X183865271Y-91224552D01*
X183901009Y-91195222D01*
X183918913Y-91185652D01*
X184057533Y-91111557D01*
X184114147Y-91094384D01*
X184227373Y-91060037D01*
X184293558Y-91053518D01*
X184359740Y-91047000D01*
X184448260Y-91047000D01*
X184514442Y-91053518D01*
X184514442Y-91053518D01*
G37*
G36*
X181974442Y-91053518D02*
X182040627Y-91060037D01*
X182153853Y-91094384D01*
X182210467Y-91111557D01*
X182349087Y-91185652D01*
X182366991Y-91195222D01*
X182402729Y-91224552D01*
X182504186Y-91307814D01*
X182587448Y-91409271D01*
X182616778Y-91445009D01*
X182616779Y-91445011D01*
X182700443Y-91601533D01*
X182700443Y-91601534D01*
X182751963Y-91771373D01*
X182769359Y-91948000D01*
X182751963Y-92124627D01*
X182717616Y-92237853D01*
X182700443Y-92294467D01*
X182626348Y-92433087D01*
X182616778Y-92450991D01*
X182587448Y-92486729D01*
X182504186Y-92588186D01*
X182402729Y-92671448D01*
X182366991Y-92700778D01*
X182366989Y-92700779D01*
X182210467Y-92784443D01*
X182153853Y-92801616D01*
X182040627Y-92835963D01*
X181974442Y-92842482D01*
X181908260Y-92849000D01*
X181819740Y-92849000D01*
X181753558Y-92842482D01*
X181687373Y-92835963D01*
X181574147Y-92801616D01*
X181517533Y-92784443D01*
X181361011Y-92700779D01*
X181361009Y-92700778D01*
X181325271Y-92671448D01*
X181223814Y-92588186D01*
X181140552Y-92486729D01*
X181111222Y-92450991D01*
X181101652Y-92433087D01*
X181027557Y-92294467D01*
X181010384Y-92237853D01*
X180976037Y-92124627D01*
X180958641Y-91948000D01*
X180976037Y-91771373D01*
X181027557Y-91601534D01*
X181027557Y-91601533D01*
X181111221Y-91445011D01*
X181111222Y-91445009D01*
X181140552Y-91409271D01*
X181223814Y-91307814D01*
X181325271Y-91224552D01*
X181361009Y-91195222D01*
X181378913Y-91185652D01*
X181517533Y-91111557D01*
X181574147Y-91094384D01*
X181687373Y-91060037D01*
X181753558Y-91053518D01*
X181819740Y-91047000D01*
X181908260Y-91047000D01*
X181974442Y-91053518D01*
X181974442Y-91053518D01*
G37*
G36*
X176894442Y-91053518D02*
X176960627Y-91060037D01*
X177073853Y-91094384D01*
X177130467Y-91111557D01*
X177269087Y-91185652D01*
X177286991Y-91195222D01*
X177322729Y-91224552D01*
X177424186Y-91307814D01*
X177507448Y-91409271D01*
X177536778Y-91445009D01*
X177536779Y-91445011D01*
X177620443Y-91601533D01*
X177620443Y-91601534D01*
X177671963Y-91771373D01*
X177689359Y-91948000D01*
X177671963Y-92124627D01*
X177637616Y-92237853D01*
X177620443Y-92294467D01*
X177546348Y-92433087D01*
X177536778Y-92450991D01*
X177507448Y-92486729D01*
X177424186Y-92588186D01*
X177322729Y-92671448D01*
X177286991Y-92700778D01*
X177286989Y-92700779D01*
X177130467Y-92784443D01*
X177073853Y-92801616D01*
X176960627Y-92835963D01*
X176894442Y-92842482D01*
X176828260Y-92849000D01*
X176739740Y-92849000D01*
X176673558Y-92842482D01*
X176607373Y-92835963D01*
X176494147Y-92801616D01*
X176437533Y-92784443D01*
X176281011Y-92700779D01*
X176281009Y-92700778D01*
X176245271Y-92671448D01*
X176143814Y-92588186D01*
X176060552Y-92486729D01*
X176031222Y-92450991D01*
X176021652Y-92433087D01*
X175947557Y-92294467D01*
X175930384Y-92237853D01*
X175896037Y-92124627D01*
X175878641Y-91948000D01*
X175896037Y-91771373D01*
X175947557Y-91601534D01*
X175947557Y-91601533D01*
X176031221Y-91445011D01*
X176031222Y-91445009D01*
X176060552Y-91409271D01*
X176143814Y-91307814D01*
X176245271Y-91224552D01*
X176281009Y-91195222D01*
X176298913Y-91185652D01*
X176437533Y-91111557D01*
X176494147Y-91094384D01*
X176607373Y-91060037D01*
X176673558Y-91053518D01*
X176739740Y-91047000D01*
X176828260Y-91047000D01*
X176894442Y-91053518D01*
X176894442Y-91053518D01*
G37*
G36*
X171814442Y-91053518D02*
X171880627Y-91060037D01*
X171993853Y-91094384D01*
X172050467Y-91111557D01*
X172189087Y-91185652D01*
X172206991Y-91195222D01*
X172242729Y-91224552D01*
X172344186Y-91307814D01*
X172427448Y-91409271D01*
X172456778Y-91445009D01*
X172456779Y-91445011D01*
X172540443Y-91601533D01*
X172540443Y-91601534D01*
X172591963Y-91771373D01*
X172609359Y-91948000D01*
X172591963Y-92124627D01*
X172557616Y-92237853D01*
X172540443Y-92294467D01*
X172466348Y-92433087D01*
X172456778Y-92450991D01*
X172427448Y-92486729D01*
X172344186Y-92588186D01*
X172242729Y-92671448D01*
X172206991Y-92700778D01*
X172206989Y-92700779D01*
X172050467Y-92784443D01*
X171993853Y-92801616D01*
X171880627Y-92835963D01*
X171814442Y-92842482D01*
X171748260Y-92849000D01*
X171659740Y-92849000D01*
X171593558Y-92842482D01*
X171527373Y-92835963D01*
X171414147Y-92801616D01*
X171357533Y-92784443D01*
X171201011Y-92700779D01*
X171201009Y-92700778D01*
X171165271Y-92671448D01*
X171063814Y-92588186D01*
X170980552Y-92486729D01*
X170951222Y-92450991D01*
X170941652Y-92433087D01*
X170867557Y-92294467D01*
X170850384Y-92237853D01*
X170816037Y-92124627D01*
X170798641Y-91948000D01*
X170816037Y-91771373D01*
X170867557Y-91601534D01*
X170867557Y-91601533D01*
X170951221Y-91445011D01*
X170951222Y-91445009D01*
X170980552Y-91409271D01*
X171063814Y-91307814D01*
X171165271Y-91224552D01*
X171201009Y-91195222D01*
X171218913Y-91185652D01*
X171357533Y-91111557D01*
X171414147Y-91094384D01*
X171527373Y-91060037D01*
X171593558Y-91053518D01*
X171659740Y-91047000D01*
X171748260Y-91047000D01*
X171814442Y-91053518D01*
X171814442Y-91053518D01*
G37*
G36*
X169274442Y-91053518D02*
X169340627Y-91060037D01*
X169453853Y-91094384D01*
X169510467Y-91111557D01*
X169649087Y-91185652D01*
X169666991Y-91195222D01*
X169702729Y-91224552D01*
X169804186Y-91307814D01*
X169887448Y-91409271D01*
X169916778Y-91445009D01*
X169916779Y-91445011D01*
X170000443Y-91601533D01*
X170000443Y-91601534D01*
X170051963Y-91771373D01*
X170069359Y-91948000D01*
X170051963Y-92124627D01*
X170017616Y-92237853D01*
X170000443Y-92294467D01*
X169926348Y-92433087D01*
X169916778Y-92450991D01*
X169887448Y-92486729D01*
X169804186Y-92588186D01*
X169702729Y-92671448D01*
X169666991Y-92700778D01*
X169666989Y-92700779D01*
X169510467Y-92784443D01*
X169453853Y-92801616D01*
X169340627Y-92835963D01*
X169274442Y-92842482D01*
X169208260Y-92849000D01*
X169119740Y-92849000D01*
X169053558Y-92842482D01*
X168987373Y-92835963D01*
X168874147Y-92801616D01*
X168817533Y-92784443D01*
X168661011Y-92700779D01*
X168661009Y-92700778D01*
X168625271Y-92671448D01*
X168523814Y-92588186D01*
X168440552Y-92486729D01*
X168411222Y-92450991D01*
X168401652Y-92433087D01*
X168327557Y-92294467D01*
X168310384Y-92237853D01*
X168276037Y-92124627D01*
X168258641Y-91948000D01*
X168276037Y-91771373D01*
X168327557Y-91601534D01*
X168327557Y-91601533D01*
X168411221Y-91445011D01*
X168411222Y-91445009D01*
X168440552Y-91409271D01*
X168523814Y-91307814D01*
X168625271Y-91224552D01*
X168661009Y-91195222D01*
X168678913Y-91185652D01*
X168817533Y-91111557D01*
X168874147Y-91094384D01*
X168987373Y-91060037D01*
X169053558Y-91053518D01*
X169119740Y-91047000D01*
X169208260Y-91047000D01*
X169274442Y-91053518D01*
X169274442Y-91053518D01*
G37*
G36*
X159114442Y-91053518D02*
X159180627Y-91060037D01*
X159293853Y-91094384D01*
X159350467Y-91111557D01*
X159489087Y-91185652D01*
X159506991Y-91195222D01*
X159542729Y-91224552D01*
X159644186Y-91307814D01*
X159727448Y-91409271D01*
X159756778Y-91445009D01*
X159756779Y-91445011D01*
X159840443Y-91601533D01*
X159840443Y-91601534D01*
X159891963Y-91771373D01*
X159909359Y-91948000D01*
X159891963Y-92124627D01*
X159857616Y-92237853D01*
X159840443Y-92294467D01*
X159766348Y-92433087D01*
X159756778Y-92450991D01*
X159727448Y-92486729D01*
X159644186Y-92588186D01*
X159542729Y-92671448D01*
X159506991Y-92700778D01*
X159506989Y-92700779D01*
X159350467Y-92784443D01*
X159293853Y-92801616D01*
X159180627Y-92835963D01*
X159114442Y-92842482D01*
X159048260Y-92849000D01*
X158959740Y-92849000D01*
X158893558Y-92842482D01*
X158827373Y-92835963D01*
X158714147Y-92801616D01*
X158657533Y-92784443D01*
X158501011Y-92700779D01*
X158501009Y-92700778D01*
X158465271Y-92671448D01*
X158363814Y-92588186D01*
X158280552Y-92486729D01*
X158251222Y-92450991D01*
X158241652Y-92433087D01*
X158167557Y-92294467D01*
X158150384Y-92237853D01*
X158116037Y-92124627D01*
X158098641Y-91948000D01*
X158116037Y-91771373D01*
X158167557Y-91601534D01*
X158167557Y-91601533D01*
X158251221Y-91445011D01*
X158251222Y-91445009D01*
X158280552Y-91409271D01*
X158363814Y-91307814D01*
X158465271Y-91224552D01*
X158501009Y-91195222D01*
X158518913Y-91185652D01*
X158657533Y-91111557D01*
X158714147Y-91094384D01*
X158827373Y-91060037D01*
X158893558Y-91053518D01*
X158959740Y-91047000D01*
X159048260Y-91047000D01*
X159114442Y-91053518D01*
X159114442Y-91053518D01*
G37*
G36*
X161654442Y-91053518D02*
X161720627Y-91060037D01*
X161833853Y-91094384D01*
X161890467Y-91111557D01*
X162029087Y-91185652D01*
X162046991Y-91195222D01*
X162082729Y-91224552D01*
X162184186Y-91307814D01*
X162267448Y-91409271D01*
X162296778Y-91445009D01*
X162296779Y-91445011D01*
X162380443Y-91601533D01*
X162380443Y-91601534D01*
X162431963Y-91771373D01*
X162449359Y-91948000D01*
X162431963Y-92124627D01*
X162397616Y-92237853D01*
X162380443Y-92294467D01*
X162306348Y-92433087D01*
X162296778Y-92450991D01*
X162267448Y-92486729D01*
X162184186Y-92588186D01*
X162082729Y-92671448D01*
X162046991Y-92700778D01*
X162046989Y-92700779D01*
X161890467Y-92784443D01*
X161833853Y-92801616D01*
X161720627Y-92835963D01*
X161654442Y-92842482D01*
X161588260Y-92849000D01*
X161499740Y-92849000D01*
X161433558Y-92842482D01*
X161367373Y-92835963D01*
X161254147Y-92801616D01*
X161197533Y-92784443D01*
X161041011Y-92700779D01*
X161041009Y-92700778D01*
X161005271Y-92671448D01*
X160903814Y-92588186D01*
X160820552Y-92486729D01*
X160791222Y-92450991D01*
X160781652Y-92433087D01*
X160707557Y-92294467D01*
X160690384Y-92237853D01*
X160656037Y-92124627D01*
X160638641Y-91948000D01*
X160656037Y-91771373D01*
X160707557Y-91601534D01*
X160707557Y-91601533D01*
X160791221Y-91445011D01*
X160791222Y-91445009D01*
X160820552Y-91409271D01*
X160903814Y-91307814D01*
X161005271Y-91224552D01*
X161041009Y-91195222D01*
X161058913Y-91185652D01*
X161197533Y-91111557D01*
X161254147Y-91094384D01*
X161367373Y-91060037D01*
X161433558Y-91053518D01*
X161499740Y-91047000D01*
X161588260Y-91047000D01*
X161654442Y-91053518D01*
X161654442Y-91053518D01*
G37*
G36*
X146414442Y-91053518D02*
X146480627Y-91060037D01*
X146593853Y-91094384D01*
X146650467Y-91111557D01*
X146789087Y-91185652D01*
X146806991Y-91195222D01*
X146842729Y-91224552D01*
X146944186Y-91307814D01*
X147027448Y-91409271D01*
X147056778Y-91445009D01*
X147056779Y-91445011D01*
X147140443Y-91601533D01*
X147140443Y-91601534D01*
X147191963Y-91771373D01*
X147209359Y-91948000D01*
X147191963Y-92124627D01*
X147157616Y-92237853D01*
X147140443Y-92294467D01*
X147066348Y-92433087D01*
X147056778Y-92450991D01*
X147027448Y-92486729D01*
X146944186Y-92588186D01*
X146842729Y-92671448D01*
X146806991Y-92700778D01*
X146806989Y-92700779D01*
X146650467Y-92784443D01*
X146593853Y-92801616D01*
X146480627Y-92835963D01*
X146414442Y-92842482D01*
X146348260Y-92849000D01*
X146259740Y-92849000D01*
X146193558Y-92842482D01*
X146127373Y-92835963D01*
X146014147Y-92801616D01*
X145957533Y-92784443D01*
X145801011Y-92700779D01*
X145801009Y-92700778D01*
X145765271Y-92671448D01*
X145663814Y-92588186D01*
X145580552Y-92486729D01*
X145551222Y-92450991D01*
X145541652Y-92433087D01*
X145467557Y-92294467D01*
X145450384Y-92237853D01*
X145416037Y-92124627D01*
X145398641Y-91948000D01*
X145416037Y-91771373D01*
X145467557Y-91601534D01*
X145467557Y-91601533D01*
X145551221Y-91445011D01*
X145551222Y-91445009D01*
X145580552Y-91409271D01*
X145663814Y-91307814D01*
X145765271Y-91224552D01*
X145801009Y-91195222D01*
X145818913Y-91185652D01*
X145957533Y-91111557D01*
X146014147Y-91094384D01*
X146127373Y-91060037D01*
X146193558Y-91053518D01*
X146259740Y-91047000D01*
X146348260Y-91047000D01*
X146414442Y-91053518D01*
X146414442Y-91053518D01*
G37*
G36*
X148954442Y-91053518D02*
X149020627Y-91060037D01*
X149133853Y-91094384D01*
X149190467Y-91111557D01*
X149329087Y-91185652D01*
X149346991Y-91195222D01*
X149382729Y-91224552D01*
X149484186Y-91307814D01*
X149567448Y-91409271D01*
X149596778Y-91445009D01*
X149596779Y-91445011D01*
X149680443Y-91601533D01*
X149680443Y-91601534D01*
X149731963Y-91771373D01*
X149749359Y-91948000D01*
X149731963Y-92124627D01*
X149697616Y-92237853D01*
X149680443Y-92294467D01*
X149606348Y-92433087D01*
X149596778Y-92450991D01*
X149567448Y-92486729D01*
X149484186Y-92588186D01*
X149382729Y-92671448D01*
X149346991Y-92700778D01*
X149346989Y-92700779D01*
X149190467Y-92784443D01*
X149133853Y-92801616D01*
X149020627Y-92835963D01*
X148954442Y-92842482D01*
X148888260Y-92849000D01*
X148799740Y-92849000D01*
X148733558Y-92842482D01*
X148667373Y-92835963D01*
X148554147Y-92801616D01*
X148497533Y-92784443D01*
X148341011Y-92700779D01*
X148341009Y-92700778D01*
X148305271Y-92671448D01*
X148203814Y-92588186D01*
X148120552Y-92486729D01*
X148091222Y-92450991D01*
X148081652Y-92433087D01*
X148007557Y-92294467D01*
X147990384Y-92237853D01*
X147956037Y-92124627D01*
X147938641Y-91948000D01*
X147956037Y-91771373D01*
X148007557Y-91601534D01*
X148007557Y-91601533D01*
X148091221Y-91445011D01*
X148091222Y-91445009D01*
X148120552Y-91409271D01*
X148203814Y-91307814D01*
X148305271Y-91224552D01*
X148341009Y-91195222D01*
X148358913Y-91185652D01*
X148497533Y-91111557D01*
X148554147Y-91094384D01*
X148667373Y-91060037D01*
X148733558Y-91053518D01*
X148799740Y-91047000D01*
X148888260Y-91047000D01*
X148954442Y-91053518D01*
X148954442Y-91053518D01*
G37*
G36*
X151494442Y-91053518D02*
X151560627Y-91060037D01*
X151673853Y-91094384D01*
X151730467Y-91111557D01*
X151869087Y-91185652D01*
X151886991Y-91195222D01*
X151922729Y-91224552D01*
X152024186Y-91307814D01*
X152107448Y-91409271D01*
X152136778Y-91445009D01*
X152136779Y-91445011D01*
X152220443Y-91601533D01*
X152220443Y-91601534D01*
X152271963Y-91771373D01*
X152289359Y-91948000D01*
X152271963Y-92124627D01*
X152237616Y-92237853D01*
X152220443Y-92294467D01*
X152146348Y-92433087D01*
X152136778Y-92450991D01*
X152107448Y-92486729D01*
X152024186Y-92588186D01*
X151922729Y-92671448D01*
X151886991Y-92700778D01*
X151886989Y-92700779D01*
X151730467Y-92784443D01*
X151673853Y-92801616D01*
X151560627Y-92835963D01*
X151494442Y-92842482D01*
X151428260Y-92849000D01*
X151339740Y-92849000D01*
X151273558Y-92842482D01*
X151207373Y-92835963D01*
X151094147Y-92801616D01*
X151037533Y-92784443D01*
X150881011Y-92700779D01*
X150881009Y-92700778D01*
X150845271Y-92671448D01*
X150743814Y-92588186D01*
X150660552Y-92486729D01*
X150631222Y-92450991D01*
X150621652Y-92433087D01*
X150547557Y-92294467D01*
X150530384Y-92237853D01*
X150496037Y-92124627D01*
X150478641Y-91948000D01*
X150496037Y-91771373D01*
X150547557Y-91601534D01*
X150547557Y-91601533D01*
X150631221Y-91445011D01*
X150631222Y-91445009D01*
X150660552Y-91409271D01*
X150743814Y-91307814D01*
X150845271Y-91224552D01*
X150881009Y-91195222D01*
X150898913Y-91185652D01*
X151037533Y-91111557D01*
X151094147Y-91094384D01*
X151207373Y-91060037D01*
X151273558Y-91053518D01*
X151339740Y-91047000D01*
X151428260Y-91047000D01*
X151494442Y-91053518D01*
X151494442Y-91053518D01*
G37*
G36*
X174354442Y-91053518D02*
X174420627Y-91060037D01*
X174533853Y-91094384D01*
X174590467Y-91111557D01*
X174729087Y-91185652D01*
X174746991Y-91195222D01*
X174782729Y-91224552D01*
X174884186Y-91307814D01*
X174967448Y-91409271D01*
X174996778Y-91445009D01*
X174996779Y-91445011D01*
X175080443Y-91601533D01*
X175080443Y-91601534D01*
X175131963Y-91771373D01*
X175149359Y-91948000D01*
X175131963Y-92124627D01*
X175097616Y-92237853D01*
X175080443Y-92294467D01*
X175006348Y-92433087D01*
X174996778Y-92450991D01*
X174967448Y-92486729D01*
X174884186Y-92588186D01*
X174782729Y-92671448D01*
X174746991Y-92700778D01*
X174746989Y-92700779D01*
X174590467Y-92784443D01*
X174533853Y-92801616D01*
X174420627Y-92835963D01*
X174354442Y-92842482D01*
X174288260Y-92849000D01*
X174199740Y-92849000D01*
X174133558Y-92842482D01*
X174067373Y-92835963D01*
X173954147Y-92801616D01*
X173897533Y-92784443D01*
X173741011Y-92700779D01*
X173741009Y-92700778D01*
X173705271Y-92671448D01*
X173603814Y-92588186D01*
X173520552Y-92486729D01*
X173491222Y-92450991D01*
X173481652Y-92433087D01*
X173407557Y-92294467D01*
X173390384Y-92237853D01*
X173356037Y-92124627D01*
X173338641Y-91948000D01*
X173356037Y-91771373D01*
X173407557Y-91601534D01*
X173407557Y-91601533D01*
X173491221Y-91445011D01*
X173491222Y-91445009D01*
X173520552Y-91409271D01*
X173603814Y-91307814D01*
X173705271Y-91224552D01*
X173741009Y-91195222D01*
X173758913Y-91185652D01*
X173897533Y-91111557D01*
X173954147Y-91094384D01*
X174067373Y-91060037D01*
X174133558Y-91053518D01*
X174199740Y-91047000D01*
X174288260Y-91047000D01*
X174354442Y-91053518D01*
X174354442Y-91053518D01*
G37*
G36*
X154034442Y-91053518D02*
X154100627Y-91060037D01*
X154213853Y-91094384D01*
X154270467Y-91111557D01*
X154409087Y-91185652D01*
X154426991Y-91195222D01*
X154462729Y-91224552D01*
X154564186Y-91307814D01*
X154647448Y-91409271D01*
X154676778Y-91445009D01*
X154676779Y-91445011D01*
X154760443Y-91601533D01*
X154760443Y-91601534D01*
X154811963Y-91771373D01*
X154829359Y-91948000D01*
X154811963Y-92124627D01*
X154777616Y-92237853D01*
X154760443Y-92294467D01*
X154686348Y-92433087D01*
X154676778Y-92450991D01*
X154647448Y-92486729D01*
X154564186Y-92588186D01*
X154462729Y-92671448D01*
X154426991Y-92700778D01*
X154426989Y-92700779D01*
X154270467Y-92784443D01*
X154213853Y-92801616D01*
X154100627Y-92835963D01*
X154034442Y-92842482D01*
X153968260Y-92849000D01*
X153879740Y-92849000D01*
X153813558Y-92842482D01*
X153747373Y-92835963D01*
X153634147Y-92801616D01*
X153577533Y-92784443D01*
X153421011Y-92700779D01*
X153421009Y-92700778D01*
X153385271Y-92671448D01*
X153283814Y-92588186D01*
X153200552Y-92486729D01*
X153171222Y-92450991D01*
X153161652Y-92433087D01*
X153087557Y-92294467D01*
X153070384Y-92237853D01*
X153036037Y-92124627D01*
X153018641Y-91948000D01*
X153036037Y-91771373D01*
X153087557Y-91601534D01*
X153087557Y-91601533D01*
X153171221Y-91445011D01*
X153171222Y-91445009D01*
X153200552Y-91409271D01*
X153283814Y-91307814D01*
X153385271Y-91224552D01*
X153421009Y-91195222D01*
X153438913Y-91185652D01*
X153577533Y-91111557D01*
X153634147Y-91094384D01*
X153747373Y-91060037D01*
X153813558Y-91053518D01*
X153879740Y-91047000D01*
X153968260Y-91047000D01*
X154034442Y-91053518D01*
X154034442Y-91053518D01*
G37*
G36*
X156574442Y-91053518D02*
X156640627Y-91060037D01*
X156753853Y-91094384D01*
X156810467Y-91111557D01*
X156949087Y-91185652D01*
X156966991Y-91195222D01*
X157002729Y-91224552D01*
X157104186Y-91307814D01*
X157187448Y-91409271D01*
X157216778Y-91445009D01*
X157216779Y-91445011D01*
X157300443Y-91601533D01*
X157300443Y-91601534D01*
X157351963Y-91771373D01*
X157369359Y-91948000D01*
X157351963Y-92124627D01*
X157317616Y-92237853D01*
X157300443Y-92294467D01*
X157226348Y-92433087D01*
X157216778Y-92450991D01*
X157187448Y-92486729D01*
X157104186Y-92588186D01*
X157002729Y-92671448D01*
X156966991Y-92700778D01*
X156966989Y-92700779D01*
X156810467Y-92784443D01*
X156753853Y-92801616D01*
X156640627Y-92835963D01*
X156574442Y-92842482D01*
X156508260Y-92849000D01*
X156419740Y-92849000D01*
X156353558Y-92842482D01*
X156287373Y-92835963D01*
X156174147Y-92801616D01*
X156117533Y-92784443D01*
X155961011Y-92700779D01*
X155961009Y-92700778D01*
X155925271Y-92671448D01*
X155823814Y-92588186D01*
X155740552Y-92486729D01*
X155711222Y-92450991D01*
X155701652Y-92433087D01*
X155627557Y-92294467D01*
X155610384Y-92237853D01*
X155576037Y-92124627D01*
X155558641Y-91948000D01*
X155576037Y-91771373D01*
X155627557Y-91601534D01*
X155627557Y-91601533D01*
X155711221Y-91445011D01*
X155711222Y-91445009D01*
X155740552Y-91409271D01*
X155823814Y-91307814D01*
X155925271Y-91224552D01*
X155961009Y-91195222D01*
X155978913Y-91185652D01*
X156117533Y-91111557D01*
X156174147Y-91094384D01*
X156287373Y-91060037D01*
X156353558Y-91053518D01*
X156419740Y-91047000D01*
X156508260Y-91047000D01*
X156574442Y-91053518D01*
X156574442Y-91053518D01*
G37*
G36*
X166734442Y-91053518D02*
X166800627Y-91060037D01*
X166913853Y-91094384D01*
X166970467Y-91111557D01*
X167109087Y-91185652D01*
X167126991Y-91195222D01*
X167162729Y-91224552D01*
X167264186Y-91307814D01*
X167347448Y-91409271D01*
X167376778Y-91445009D01*
X167376779Y-91445011D01*
X167460443Y-91601533D01*
X167460443Y-91601534D01*
X167511963Y-91771373D01*
X167529359Y-91948000D01*
X167511963Y-92124627D01*
X167477616Y-92237853D01*
X167460443Y-92294467D01*
X167386348Y-92433087D01*
X167376778Y-92450991D01*
X167347448Y-92486729D01*
X167264186Y-92588186D01*
X167162729Y-92671448D01*
X167126991Y-92700778D01*
X167126989Y-92700779D01*
X166970467Y-92784443D01*
X166913853Y-92801616D01*
X166800627Y-92835963D01*
X166734442Y-92842482D01*
X166668260Y-92849000D01*
X166579740Y-92849000D01*
X166513558Y-92842482D01*
X166447373Y-92835963D01*
X166334147Y-92801616D01*
X166277533Y-92784443D01*
X166121011Y-92700779D01*
X166121009Y-92700778D01*
X166085271Y-92671448D01*
X165983814Y-92588186D01*
X165900552Y-92486729D01*
X165871222Y-92450991D01*
X165861652Y-92433087D01*
X165787557Y-92294467D01*
X165770384Y-92237853D01*
X165736037Y-92124627D01*
X165718641Y-91948000D01*
X165736037Y-91771373D01*
X165787557Y-91601534D01*
X165787557Y-91601533D01*
X165871221Y-91445011D01*
X165871222Y-91445009D01*
X165900552Y-91409271D01*
X165983814Y-91307814D01*
X166085271Y-91224552D01*
X166121009Y-91195222D01*
X166138913Y-91185652D01*
X166277533Y-91111557D01*
X166334147Y-91094384D01*
X166447373Y-91060037D01*
X166513558Y-91053518D01*
X166579740Y-91047000D01*
X166668260Y-91047000D01*
X166734442Y-91053518D01*
X166734442Y-91053518D01*
G37*
G36*
X161538228Y-87827703D02*
X161693100Y-87891853D01*
X161832481Y-87984985D01*
X161951015Y-88103519D01*
X162044147Y-88242900D01*
X162108297Y-88397772D01*
X162141000Y-88562184D01*
X162141000Y-88729816D01*
X162108297Y-88894228D01*
X162044147Y-89049100D01*
X161951015Y-89188481D01*
X161832481Y-89307015D01*
X161693100Y-89400147D01*
X161538228Y-89464297D01*
X161373816Y-89497000D01*
X161206184Y-89497000D01*
X161041772Y-89464297D01*
X160886900Y-89400147D01*
X160747519Y-89307015D01*
X160628985Y-89188481D01*
X160535853Y-89049100D01*
X160471703Y-88894228D01*
X160439000Y-88729816D01*
X160439000Y-88562184D01*
X160471703Y-88397772D01*
X160535853Y-88242900D01*
X160628985Y-88103519D01*
X160747519Y-87984985D01*
X160886900Y-87891853D01*
X161041772Y-87827703D01*
X161206184Y-87795000D01*
X161373816Y-87795000D01*
X161538228Y-87827703D01*
X161538228Y-87827703D01*
G37*
G36*
X174492228Y-87827703D02*
X174647100Y-87891853D01*
X174786481Y-87984985D01*
X174905015Y-88103519D01*
X174998147Y-88242900D01*
X175062297Y-88397772D01*
X175095000Y-88562184D01*
X175095000Y-88729816D01*
X175062297Y-88894228D01*
X174998147Y-89049100D01*
X174905015Y-89188481D01*
X174786481Y-89307015D01*
X174647100Y-89400147D01*
X174492228Y-89464297D01*
X174327816Y-89497000D01*
X174160184Y-89497000D01*
X173995772Y-89464297D01*
X173840900Y-89400147D01*
X173701519Y-89307015D01*
X173582985Y-89188481D01*
X173489853Y-89049100D01*
X173425703Y-88894228D01*
X173393000Y-88729816D01*
X173393000Y-88562184D01*
X173425703Y-88397772D01*
X173489853Y-88242900D01*
X173582985Y-88103519D01*
X173701519Y-87984985D01*
X173840900Y-87891853D01*
X173995772Y-87827703D01*
X174160184Y-87795000D01*
X174327816Y-87795000D01*
X174492228Y-87827703D01*
X174492228Y-87827703D01*
G37*
G36*
X164250821Y-87807313D02*
X164250824Y-87807314D01*
X164250825Y-87807314D01*
X164411239Y-87855975D01*
X164411241Y-87855976D01*
X164411244Y-87855977D01*
X164559078Y-87934995D01*
X164688659Y-88041341D01*
X164795005Y-88170922D01*
X164874023Y-88318756D01*
X164874024Y-88318759D01*
X164874025Y-88318761D01*
X164904097Y-88417896D01*
X164922687Y-88479179D01*
X164939117Y-88646000D01*
X164922687Y-88812821D01*
X164922686Y-88812824D01*
X164922686Y-88812825D01*
X164897993Y-88894228D01*
X164874023Y-88973244D01*
X164795005Y-89121078D01*
X164688659Y-89250659D01*
X164559078Y-89357005D01*
X164411244Y-89436023D01*
X164411241Y-89436024D01*
X164411239Y-89436025D01*
X164250825Y-89484686D01*
X164250824Y-89484686D01*
X164250821Y-89484687D01*
X164125804Y-89497000D01*
X164042196Y-89497000D01*
X163917179Y-89484687D01*
X163917176Y-89484686D01*
X163917175Y-89484686D01*
X163756761Y-89436025D01*
X163756759Y-89436024D01*
X163756756Y-89436023D01*
X163608922Y-89357005D01*
X163479341Y-89250659D01*
X163372995Y-89121078D01*
X163293977Y-88973244D01*
X163270008Y-88894228D01*
X163245314Y-88812825D01*
X163245314Y-88812824D01*
X163245313Y-88812821D01*
X163228883Y-88646000D01*
X163245313Y-88479179D01*
X163263903Y-88417896D01*
X163293975Y-88318761D01*
X163293976Y-88318759D01*
X163293977Y-88318756D01*
X163372995Y-88170922D01*
X163479341Y-88041341D01*
X163608922Y-87934995D01*
X163756756Y-87855977D01*
X163756759Y-87855976D01*
X163756761Y-87855975D01*
X163917175Y-87807314D01*
X163917176Y-87807314D01*
X163917179Y-87807313D01*
X164042196Y-87795000D01*
X164125804Y-87795000D01*
X164250821Y-87807313D01*
X164250821Y-87807313D01*
G37*
G36*
X151296821Y-87807313D02*
X151296824Y-87807314D01*
X151296825Y-87807314D01*
X151457239Y-87855975D01*
X151457241Y-87855976D01*
X151457244Y-87855977D01*
X151605078Y-87934995D01*
X151734659Y-88041341D01*
X151841005Y-88170922D01*
X151920023Y-88318756D01*
X151920024Y-88318759D01*
X151920025Y-88318761D01*
X151950097Y-88417896D01*
X151968687Y-88479179D01*
X151985117Y-88646000D01*
X151968687Y-88812821D01*
X151968686Y-88812824D01*
X151968686Y-88812825D01*
X151943993Y-88894228D01*
X151920023Y-88973244D01*
X151841005Y-89121078D01*
X151734659Y-89250659D01*
X151605078Y-89357005D01*
X151457244Y-89436023D01*
X151457241Y-89436024D01*
X151457239Y-89436025D01*
X151296825Y-89484686D01*
X151296824Y-89484686D01*
X151296821Y-89484687D01*
X151171804Y-89497000D01*
X151088196Y-89497000D01*
X150963179Y-89484687D01*
X150963176Y-89484686D01*
X150963175Y-89484686D01*
X150802761Y-89436025D01*
X150802759Y-89436024D01*
X150802756Y-89436023D01*
X150654922Y-89357005D01*
X150525341Y-89250659D01*
X150418995Y-89121078D01*
X150339977Y-88973244D01*
X150316008Y-88894228D01*
X150291314Y-88812825D01*
X150291314Y-88812824D01*
X150291313Y-88812821D01*
X150274883Y-88646000D01*
X150291313Y-88479179D01*
X150309903Y-88417896D01*
X150339975Y-88318761D01*
X150339976Y-88318759D01*
X150339977Y-88318756D01*
X150418995Y-88170922D01*
X150525341Y-88041341D01*
X150654922Y-87934995D01*
X150802756Y-87855977D01*
X150802759Y-87855976D01*
X150802761Y-87855975D01*
X150963175Y-87807314D01*
X150963176Y-87807314D01*
X150963179Y-87807313D01*
X151088196Y-87795000D01*
X151171804Y-87795000D01*
X151296821Y-87807313D01*
X151296821Y-87807313D01*
G37*
G36*
X147463000Y-87858104D02*
X147465402Y-87882490D01*
X147472515Y-87905939D01*
X147484066Y-87927550D01*
X147499612Y-87946492D01*
X147518554Y-87962038D01*
X147540165Y-87973589D01*
X147563614Y-87980702D01*
X147588000Y-87983104D01*
X147612386Y-87980702D01*
X147635835Y-87973589D01*
X147657446Y-87962038D01*
X147676388Y-87946492D01*
X147691934Y-87927550D01*
X147703485Y-87905939D01*
X147735089Y-87829639D01*
X147790641Y-87746500D01*
X147806335Y-87723012D01*
X147806336Y-87723011D01*
X147806338Y-87723008D01*
X147897008Y-87632338D01*
X147905777Y-87626479D01*
X148003636Y-87561091D01*
X148003639Y-87561089D01*
X148122110Y-87512017D01*
X148247881Y-87487000D01*
X148376119Y-87487000D01*
X148501890Y-87512017D01*
X148620361Y-87561089D01*
X148620364Y-87561091D01*
X148718224Y-87626479D01*
X148726992Y-87632338D01*
X148817662Y-87723008D01*
X148817664Y-87723011D01*
X148817665Y-87723012D01*
X148833359Y-87746500D01*
X148888911Y-87829639D01*
X148937983Y-87948110D01*
X148963000Y-88073881D01*
X148963000Y-88202119D01*
X148937983Y-88327890D01*
X148888911Y-88446361D01*
X148888909Y-88446364D01*
X148833359Y-88529501D01*
X148817662Y-88552992D01*
X148726992Y-88643662D01*
X148726989Y-88643664D01*
X148726988Y-88643665D01*
X148671072Y-88681027D01*
X148620361Y-88714911D01*
X148501890Y-88763983D01*
X148376119Y-88789000D01*
X148247881Y-88789000D01*
X148122110Y-88763983D01*
X148003639Y-88714911D01*
X147952928Y-88681027D01*
X147897012Y-88643665D01*
X147897011Y-88643664D01*
X147897008Y-88643662D01*
X147806338Y-88552992D01*
X147790642Y-88529501D01*
X147735091Y-88446364D01*
X147735089Y-88446361D01*
X147703485Y-88370061D01*
X147691934Y-88348450D01*
X147676389Y-88329508D01*
X147657447Y-88313963D01*
X147635836Y-88302411D01*
X147612387Y-88295298D01*
X147588001Y-88292896D01*
X147563614Y-88295298D01*
X147540165Y-88302411D01*
X147518554Y-88313962D01*
X147499612Y-88329507D01*
X147484067Y-88348449D01*
X147472515Y-88370060D01*
X147465402Y-88393509D01*
X147463000Y-88417896D01*
X147463000Y-88789000D01*
X146161000Y-88789000D01*
X146161000Y-87487000D01*
X147463000Y-87487000D01*
X147463000Y-87858104D01*
X147463000Y-87858104D01*
G37*
G36*
X186225000Y-87815262D02*
X186227402Y-87839648D01*
X186234515Y-87863097D01*
X186246066Y-87884708D01*
X186261612Y-87903650D01*
X186280554Y-87919196D01*
X186302165Y-87930747D01*
X186325614Y-87937860D01*
X186350000Y-87940262D01*
X186374386Y-87937860D01*
X186397835Y-87930747D01*
X186419446Y-87919196D01*
X186438388Y-87903650D01*
X186460236Y-87874192D01*
X186483644Y-87830400D01*
X186552499Y-87746499D01*
X186636400Y-87677644D01*
X186732121Y-87626479D01*
X186835985Y-87594973D01*
X186916933Y-87587000D01*
X186971067Y-87587000D01*
X187052015Y-87594973D01*
X187155879Y-87626479D01*
X187251600Y-87677644D01*
X187335501Y-87746499D01*
X187404356Y-87830400D01*
X187455521Y-87926121D01*
X187459383Y-87938854D01*
X187468760Y-87961493D01*
X187482374Y-87981867D01*
X187499701Y-87999194D01*
X187520076Y-88012808D01*
X187542715Y-88022186D01*
X187566748Y-88026966D01*
X187591252Y-88026966D01*
X187615286Y-88022185D01*
X187637925Y-88012808D01*
X187658299Y-87999194D01*
X187675626Y-87981867D01*
X187689240Y-87961492D01*
X187698617Y-87938854D01*
X187702479Y-87926121D01*
X187753644Y-87830400D01*
X187822499Y-87746499D01*
X187906400Y-87677644D01*
X188002121Y-87626479D01*
X188105985Y-87594973D01*
X188186933Y-87587000D01*
X188241067Y-87587000D01*
X188322015Y-87594973D01*
X188425879Y-87626479D01*
X188521600Y-87677644D01*
X188605501Y-87746499D01*
X188674356Y-87830400D01*
X188725521Y-87926121D01*
X188757027Y-88029985D01*
X188767666Y-88138000D01*
X188757027Y-88246015D01*
X188725521Y-88349879D01*
X188674356Y-88445600D01*
X188605501Y-88529501D01*
X188521600Y-88598356D01*
X188425879Y-88649521D01*
X188322015Y-88681027D01*
X188241067Y-88689000D01*
X188186933Y-88689000D01*
X188105985Y-88681027D01*
X188002121Y-88649521D01*
X187906400Y-88598356D01*
X187822499Y-88529501D01*
X187753644Y-88445600D01*
X187702479Y-88349879D01*
X187698615Y-88337142D01*
X187689240Y-88314507D01*
X187675626Y-88294133D01*
X187658299Y-88276806D01*
X187637924Y-88263192D01*
X187615285Y-88253814D01*
X187591252Y-88249034D01*
X187566748Y-88249034D01*
X187542714Y-88253815D01*
X187520075Y-88263192D01*
X187499701Y-88276806D01*
X187482374Y-88294133D01*
X187468760Y-88314508D01*
X187459385Y-88337142D01*
X187455521Y-88349879D01*
X187404356Y-88445600D01*
X187335501Y-88529501D01*
X187251600Y-88598356D01*
X187155879Y-88649521D01*
X187052015Y-88681027D01*
X186971067Y-88689000D01*
X186916933Y-88689000D01*
X186835985Y-88681027D01*
X186732121Y-88649521D01*
X186636400Y-88598356D01*
X186552499Y-88529501D01*
X186483644Y-88445600D01*
X186460234Y-88401805D01*
X186446626Y-88381439D01*
X186429299Y-88364111D01*
X186408924Y-88350498D01*
X186386285Y-88341120D01*
X186362252Y-88336340D01*
X186337748Y-88336340D01*
X186313714Y-88341121D01*
X186291075Y-88350498D01*
X186270701Y-88364112D01*
X186253373Y-88381439D01*
X186239760Y-88401814D01*
X186230382Y-88424453D01*
X186225000Y-88460738D01*
X186225000Y-88689000D01*
X185123000Y-88689000D01*
X185123000Y-87587000D01*
X186225000Y-87587000D01*
X186225000Y-87815262D01*
X186225000Y-87815262D01*
G37*
G36*
X173984228Y-84525703D02*
X174139100Y-84589853D01*
X174278481Y-84682985D01*
X174397015Y-84801519D01*
X174490147Y-84940900D01*
X174554297Y-85095772D01*
X174587000Y-85260184D01*
X174587000Y-85427816D01*
X174554297Y-85592228D01*
X174490147Y-85747100D01*
X174397015Y-85886481D01*
X174278481Y-86005015D01*
X174139100Y-86098147D01*
X173984228Y-86162297D01*
X173819816Y-86195000D01*
X173652184Y-86195000D01*
X173487772Y-86162297D01*
X173332900Y-86098147D01*
X173193519Y-86005015D01*
X173074985Y-85886481D01*
X172981853Y-85747100D01*
X172917703Y-85592228D01*
X172885000Y-85427816D01*
X172885000Y-85260184D01*
X172917703Y-85095772D01*
X172981853Y-84940900D01*
X173074985Y-84801519D01*
X173193519Y-84682985D01*
X173332900Y-84589853D01*
X173487772Y-84525703D01*
X173652184Y-84493000D01*
X173819816Y-84493000D01*
X173984228Y-84525703D01*
X173984228Y-84525703D01*
G37*
G36*
X163742821Y-84505313D02*
X163742824Y-84505314D01*
X163742825Y-84505314D01*
X163903239Y-84553975D01*
X163903241Y-84553976D01*
X163903244Y-84553977D01*
X164051078Y-84632995D01*
X164180659Y-84739341D01*
X164287005Y-84868922D01*
X164366023Y-85016756D01*
X164366024Y-85016759D01*
X164366025Y-85016761D01*
X164391934Y-85102173D01*
X164414687Y-85177179D01*
X164431117Y-85344000D01*
X164414687Y-85510821D01*
X164414686Y-85510824D01*
X164414686Y-85510825D01*
X164389993Y-85592228D01*
X164366023Y-85671244D01*
X164287005Y-85819078D01*
X164180659Y-85948659D01*
X164051078Y-86055005D01*
X163903244Y-86134023D01*
X163903241Y-86134024D01*
X163903239Y-86134025D01*
X163742825Y-86182686D01*
X163742824Y-86182686D01*
X163742821Y-86182687D01*
X163617804Y-86195000D01*
X163534196Y-86195000D01*
X163409179Y-86182687D01*
X163409176Y-86182686D01*
X163409175Y-86182686D01*
X163248761Y-86134025D01*
X163248759Y-86134024D01*
X163248756Y-86134023D01*
X163100922Y-86055005D01*
X162971341Y-85948659D01*
X162864995Y-85819078D01*
X162785977Y-85671244D01*
X162762008Y-85592228D01*
X162737314Y-85510825D01*
X162737314Y-85510824D01*
X162737313Y-85510821D01*
X162720883Y-85344000D01*
X162737313Y-85177179D01*
X162760066Y-85102173D01*
X162785975Y-85016761D01*
X162785976Y-85016759D01*
X162785977Y-85016756D01*
X162864995Y-84868922D01*
X162971341Y-84739341D01*
X163100922Y-84632995D01*
X163248756Y-84553977D01*
X163248759Y-84553976D01*
X163248761Y-84553975D01*
X163409175Y-84505314D01*
X163409176Y-84505314D01*
X163409179Y-84505313D01*
X163534196Y-84493000D01*
X163617804Y-84493000D01*
X163742821Y-84505313D01*
X163742821Y-84505313D01*
G37*
G36*
X161538228Y-84525703D02*
X161693100Y-84589853D01*
X161832481Y-84682985D01*
X161951015Y-84801519D01*
X162044147Y-84940900D01*
X162108297Y-85095772D01*
X162141000Y-85260184D01*
X162141000Y-85427816D01*
X162108297Y-85592228D01*
X162044147Y-85747100D01*
X161951015Y-85886481D01*
X161832481Y-86005015D01*
X161693100Y-86098147D01*
X161538228Y-86162297D01*
X161373816Y-86195000D01*
X161206184Y-86195000D01*
X161041772Y-86162297D01*
X160886900Y-86098147D01*
X160747519Y-86005015D01*
X160628985Y-85886481D01*
X160535853Y-85747100D01*
X160471703Y-85592228D01*
X160439000Y-85427816D01*
X160439000Y-85260184D01*
X160471703Y-85095772D01*
X160535853Y-84940900D01*
X160628985Y-84801519D01*
X160747519Y-84682985D01*
X160886900Y-84589853D01*
X161041772Y-84525703D01*
X161206184Y-84493000D01*
X161373816Y-84493000D01*
X161538228Y-84525703D01*
X161538228Y-84525703D01*
G37*
G36*
X151296821Y-84505313D02*
X151296824Y-84505314D01*
X151296825Y-84505314D01*
X151457239Y-84553975D01*
X151457241Y-84553976D01*
X151457244Y-84553977D01*
X151605078Y-84632995D01*
X151734659Y-84739341D01*
X151841005Y-84868922D01*
X151920023Y-85016756D01*
X151920024Y-85016759D01*
X151920025Y-85016761D01*
X151945934Y-85102173D01*
X151968687Y-85177179D01*
X151985117Y-85344000D01*
X151968687Y-85510821D01*
X151968686Y-85510824D01*
X151968686Y-85510825D01*
X151943993Y-85592228D01*
X151920023Y-85671244D01*
X151841005Y-85819078D01*
X151734659Y-85948659D01*
X151605078Y-86055005D01*
X151457244Y-86134023D01*
X151457241Y-86134024D01*
X151457239Y-86134025D01*
X151296825Y-86182686D01*
X151296824Y-86182686D01*
X151296821Y-86182687D01*
X151171804Y-86195000D01*
X151088196Y-86195000D01*
X150963179Y-86182687D01*
X150963176Y-86182686D01*
X150963175Y-86182686D01*
X150802761Y-86134025D01*
X150802759Y-86134024D01*
X150802756Y-86134023D01*
X150654922Y-86055005D01*
X150525341Y-85948659D01*
X150418995Y-85819078D01*
X150339977Y-85671244D01*
X150316008Y-85592228D01*
X150291314Y-85510825D01*
X150291314Y-85510824D01*
X150291313Y-85510821D01*
X150274883Y-85344000D01*
X150291313Y-85177179D01*
X150314066Y-85102173D01*
X150339975Y-85016761D01*
X150339976Y-85016759D01*
X150339977Y-85016756D01*
X150418995Y-84868922D01*
X150525341Y-84739341D01*
X150654922Y-84632995D01*
X150802756Y-84553977D01*
X150802759Y-84553976D01*
X150802761Y-84553975D01*
X150963175Y-84505314D01*
X150963176Y-84505314D01*
X150963179Y-84505313D01*
X151088196Y-84493000D01*
X151171804Y-84493000D01*
X151296821Y-84505313D01*
X151296821Y-84505313D01*
G37*
G36*
X187690016Y-83797358D02*
X187690019Y-83797359D01*
X187690018Y-83797359D01*
X187838521Y-83858870D01*
X187972170Y-83948172D01*
X188085828Y-84061830D01*
X188175130Y-84195479D01*
X188226087Y-84318503D01*
X188236642Y-84343984D01*
X188268000Y-84501630D01*
X188268000Y-84662370D01*
X188236642Y-84820016D01*
X188236641Y-84820018D01*
X188175130Y-84968521D01*
X188085828Y-85102170D01*
X187972170Y-85215828D01*
X187838521Y-85305130D01*
X187744679Y-85344000D01*
X187690016Y-85366642D01*
X187532370Y-85398000D01*
X187371630Y-85398000D01*
X187213984Y-85366642D01*
X187159321Y-85344000D01*
X187065479Y-85305130D01*
X186931830Y-85215828D01*
X186818172Y-85102170D01*
X186728870Y-84968521D01*
X186667359Y-84820018D01*
X186667358Y-84820016D01*
X186636000Y-84662370D01*
X186636000Y-84501630D01*
X186667358Y-84343984D01*
X186677913Y-84318503D01*
X186728870Y-84195479D01*
X186818172Y-84061830D01*
X186931830Y-83948172D01*
X187065479Y-83858870D01*
X187213982Y-83797359D01*
X187213981Y-83797359D01*
X187213984Y-83797358D01*
X187371630Y-83766000D01*
X187532370Y-83766000D01*
X187690016Y-83797358D01*
X187690016Y-83797358D01*
G37*
G36*
X185150016Y-83797358D02*
X185150019Y-83797359D01*
X185150018Y-83797359D01*
X185298521Y-83858870D01*
X185432170Y-83948172D01*
X185545828Y-84061830D01*
X185635130Y-84195479D01*
X185686087Y-84318503D01*
X185696642Y-84343984D01*
X185728000Y-84501630D01*
X185728000Y-84662370D01*
X185696642Y-84820016D01*
X185696641Y-84820018D01*
X185635130Y-84968521D01*
X185545828Y-85102170D01*
X185432170Y-85215828D01*
X185298521Y-85305130D01*
X185204679Y-85344000D01*
X185150016Y-85366642D01*
X184992370Y-85398000D01*
X184831630Y-85398000D01*
X184673984Y-85366642D01*
X184619321Y-85344000D01*
X184525479Y-85305130D01*
X184391830Y-85215828D01*
X184278172Y-85102170D01*
X184188870Y-84968521D01*
X184127359Y-84820018D01*
X184127358Y-84820016D01*
X184096000Y-84662370D01*
X184096000Y-84501630D01*
X184127358Y-84343984D01*
X184137913Y-84318503D01*
X184188870Y-84195479D01*
X184278172Y-84061830D01*
X184391830Y-83948172D01*
X184525479Y-83858870D01*
X184673982Y-83797359D01*
X184673981Y-83797359D01*
X184673984Y-83797358D01*
X184831630Y-83766000D01*
X184992370Y-83766000D01*
X185150016Y-83797358D01*
X185150016Y-83797358D01*
G37*
G36*
X190230016Y-83797358D02*
X190230019Y-83797359D01*
X190230018Y-83797359D01*
X190378521Y-83858870D01*
X190512170Y-83948172D01*
X190625828Y-84061830D01*
X190715130Y-84195479D01*
X190766087Y-84318503D01*
X190776642Y-84343984D01*
X190808000Y-84501630D01*
X190808000Y-84662370D01*
X190776642Y-84820016D01*
X190776641Y-84820018D01*
X190715130Y-84968521D01*
X190625828Y-85102170D01*
X190512170Y-85215828D01*
X190378521Y-85305130D01*
X190284679Y-85344000D01*
X190230016Y-85366642D01*
X190072370Y-85398000D01*
X189911630Y-85398000D01*
X189753984Y-85366642D01*
X189699321Y-85344000D01*
X189605479Y-85305130D01*
X189471830Y-85215828D01*
X189358172Y-85102170D01*
X189268870Y-84968521D01*
X189207359Y-84820018D01*
X189207358Y-84820016D01*
X189176000Y-84662370D01*
X189176000Y-84501630D01*
X189207358Y-84343984D01*
X189217913Y-84318503D01*
X189268870Y-84195479D01*
X189358172Y-84061830D01*
X189471830Y-83948172D01*
X189605479Y-83858870D01*
X189753982Y-83797359D01*
X189753981Y-83797359D01*
X189753984Y-83797358D01*
X189911630Y-83766000D01*
X190072370Y-83766000D01*
X190230016Y-83797358D01*
X190230016Y-83797358D01*
G37*
G36*
X192770016Y-83797358D02*
X192770019Y-83797359D01*
X192770018Y-83797359D01*
X192918521Y-83858870D01*
X193052170Y-83948172D01*
X193165828Y-84061830D01*
X193255130Y-84195479D01*
X193306087Y-84318503D01*
X193316642Y-84343984D01*
X193348000Y-84501630D01*
X193348000Y-84662370D01*
X193316642Y-84820016D01*
X193316641Y-84820018D01*
X193255130Y-84968521D01*
X193165828Y-85102170D01*
X193052170Y-85215828D01*
X192918521Y-85305130D01*
X192824679Y-85344000D01*
X192770016Y-85366642D01*
X192612370Y-85398000D01*
X192451630Y-85398000D01*
X192293984Y-85366642D01*
X192239321Y-85344000D01*
X192145479Y-85305130D01*
X192011830Y-85215828D01*
X191898172Y-85102170D01*
X191808870Y-84968521D01*
X191747359Y-84820018D01*
X191747358Y-84820016D01*
X191716000Y-84662370D01*
X191716000Y-84501630D01*
X191747358Y-84343984D01*
X191757913Y-84318503D01*
X191808870Y-84195479D01*
X191898172Y-84061830D01*
X192011830Y-83948172D01*
X192145479Y-83858870D01*
X192293982Y-83797359D01*
X192293981Y-83797359D01*
X192293984Y-83797358D01*
X192451630Y-83766000D01*
X192612370Y-83766000D01*
X192770016Y-83797358D01*
X192770016Y-83797358D01*
G37*
G36*
X168314821Y-81203313D02*
X168314824Y-81203314D01*
X168314825Y-81203314D01*
X168475239Y-81251975D01*
X168475241Y-81251976D01*
X168475244Y-81251977D01*
X168623078Y-81330995D01*
X168752659Y-81437341D01*
X168859005Y-81566922D01*
X168938023Y-81714756D01*
X168938024Y-81714759D01*
X168938025Y-81714761D01*
X168986686Y-81875175D01*
X168986687Y-81875179D01*
X169003117Y-82042000D01*
X168986687Y-82208821D01*
X168986686Y-82208824D01*
X168986686Y-82208825D01*
X168961993Y-82290228D01*
X168938023Y-82369244D01*
X168859005Y-82517078D01*
X168752659Y-82646659D01*
X168623078Y-82753005D01*
X168475244Y-82832023D01*
X168475241Y-82832024D01*
X168475239Y-82832025D01*
X168314825Y-82880686D01*
X168314824Y-82880686D01*
X168314821Y-82880687D01*
X168189804Y-82893000D01*
X168106196Y-82893000D01*
X167981179Y-82880687D01*
X167981176Y-82880686D01*
X167981175Y-82880686D01*
X167820761Y-82832025D01*
X167820759Y-82832024D01*
X167820756Y-82832023D01*
X167672922Y-82753005D01*
X167543341Y-82646659D01*
X167436995Y-82517078D01*
X167357977Y-82369244D01*
X167334008Y-82290228D01*
X167309314Y-82208825D01*
X167309314Y-82208824D01*
X167309313Y-82208821D01*
X167292883Y-82042000D01*
X167309313Y-81875179D01*
X167309314Y-81875175D01*
X167357975Y-81714761D01*
X167357976Y-81714759D01*
X167357977Y-81714756D01*
X167436995Y-81566922D01*
X167543341Y-81437341D01*
X167672922Y-81330995D01*
X167820756Y-81251977D01*
X167820759Y-81251976D01*
X167820761Y-81251975D01*
X167981175Y-81203314D01*
X167981176Y-81203314D01*
X167981179Y-81203313D01*
X168106196Y-81191000D01*
X168189804Y-81191000D01*
X168314821Y-81203313D01*
X168314821Y-81203313D01*
G37*
G36*
X158236228Y-81223703D02*
X158391100Y-81287853D01*
X158530481Y-81380985D01*
X158649015Y-81499519D01*
X158742147Y-81638900D01*
X158806297Y-81793772D01*
X158839000Y-81958184D01*
X158839000Y-82125816D01*
X158806297Y-82290228D01*
X158742147Y-82445100D01*
X158649015Y-82584481D01*
X158530481Y-82703015D01*
X158391100Y-82796147D01*
X158236228Y-82860297D01*
X158071816Y-82893000D01*
X157904184Y-82893000D01*
X157739772Y-82860297D01*
X157584900Y-82796147D01*
X157445519Y-82703015D01*
X157326985Y-82584481D01*
X157233853Y-82445100D01*
X157169703Y-82290228D01*
X157137000Y-82125816D01*
X157137000Y-81958184D01*
X157169703Y-81793772D01*
X157233853Y-81638900D01*
X157326985Y-81499519D01*
X157445519Y-81380985D01*
X157584900Y-81287853D01*
X157739772Y-81223703D01*
X157904184Y-81191000D01*
X158071816Y-81191000D01*
X158236228Y-81223703D01*
X158236228Y-81223703D01*
G37*
G36*
X145028228Y-81223703D02*
X145183100Y-81287853D01*
X145322481Y-81380985D01*
X145441015Y-81499519D01*
X145534147Y-81638900D01*
X145598297Y-81793772D01*
X145631000Y-81958184D01*
X145631000Y-82125816D01*
X145598297Y-82290228D01*
X145534147Y-82445100D01*
X145441015Y-82584481D01*
X145322481Y-82703015D01*
X145183100Y-82796147D01*
X145028228Y-82860297D01*
X144863816Y-82893000D01*
X144696184Y-82893000D01*
X144531772Y-82860297D01*
X144376900Y-82796147D01*
X144237519Y-82703015D01*
X144118985Y-82584481D01*
X144025853Y-82445100D01*
X143961703Y-82290228D01*
X143929000Y-82125816D01*
X143929000Y-81958184D01*
X143961703Y-81793772D01*
X144025853Y-81638900D01*
X144118985Y-81499519D01*
X144237519Y-81380985D01*
X144376900Y-81287853D01*
X144531772Y-81223703D01*
X144696184Y-81191000D01*
X144863816Y-81191000D01*
X145028228Y-81223703D01*
X145028228Y-81223703D01*
G37*
G36*
X155106821Y-81203313D02*
X155106824Y-81203314D01*
X155106825Y-81203314D01*
X155267239Y-81251975D01*
X155267241Y-81251976D01*
X155267244Y-81251977D01*
X155415078Y-81330995D01*
X155544659Y-81437341D01*
X155651005Y-81566922D01*
X155730023Y-81714756D01*
X155730024Y-81714759D01*
X155730025Y-81714761D01*
X155778686Y-81875175D01*
X155778687Y-81875179D01*
X155795117Y-82042000D01*
X155778687Y-82208821D01*
X155778686Y-82208824D01*
X155778686Y-82208825D01*
X155753993Y-82290228D01*
X155730023Y-82369244D01*
X155651005Y-82517078D01*
X155544659Y-82646659D01*
X155415078Y-82753005D01*
X155267244Y-82832023D01*
X155267241Y-82832024D01*
X155267239Y-82832025D01*
X155106825Y-82880686D01*
X155106824Y-82880686D01*
X155106821Y-82880687D01*
X154981804Y-82893000D01*
X154898196Y-82893000D01*
X154773179Y-82880687D01*
X154773176Y-82880686D01*
X154773175Y-82880686D01*
X154612761Y-82832025D01*
X154612759Y-82832024D01*
X154612756Y-82832023D01*
X154464922Y-82753005D01*
X154335341Y-82646659D01*
X154228995Y-82517078D01*
X154149977Y-82369244D01*
X154126008Y-82290228D01*
X154101314Y-82208825D01*
X154101314Y-82208824D01*
X154101313Y-82208821D01*
X154084883Y-82042000D01*
X154101313Y-81875179D01*
X154101314Y-81875175D01*
X154149975Y-81714761D01*
X154149976Y-81714759D01*
X154149977Y-81714756D01*
X154228995Y-81566922D01*
X154335341Y-81437341D01*
X154464922Y-81330995D01*
X154612756Y-81251977D01*
X154612759Y-81251976D01*
X154612761Y-81251975D01*
X154773175Y-81203314D01*
X154773176Y-81203314D01*
X154773179Y-81203313D01*
X154898196Y-81191000D01*
X154981804Y-81191000D01*
X155106821Y-81203313D01*
X155106821Y-81203313D01*
G37*
M02*
