G04 #@! TF.GenerationSoftware,KiCad,Pcbnew,(5.0.2)-1*
G04 #@! TF.CreationDate,2021-01-02T20:32:08+01:00*
G04 #@! TF.ProjectId,Radmesser,5261646d-6573-4736-9572-2e6b69636164,rev?*
G04 #@! TF.SameCoordinates,Original*
G04 #@! TF.FileFunction,Legend,Top*
G04 #@! TF.FilePolarity,Positive*
%FSLAX46Y46*%
G04 Gerber Fmt 4.6, Leading zero omitted, Abs format (unit mm)*
G04 Created by KiCad (PCBNEW (5.0.2)-1) date 02.01.2021 20:32:08*
%MOMM*%
%LPD*%
G01*
G04 APERTURE LIST*
%ADD10C,0.127000*%
%ADD11C,0.120000*%
%ADD12C,0.015000*%
%ADD13C,0.150000*%
G04 APERTURE END LIST*
D10*
G04 #@! TO.C,Uvorne1*
X122751342Y-113247310D02*
X138131529Y-117657507D01*
X148705408Y-120689519D02*
X164085595Y-125099716D01*
X168850652Y-112109942D02*
X167889390Y-111834305D01*
X167889390Y-111834305D02*
X152509203Y-107424107D01*
X152509203Y-107424107D02*
X141935324Y-104392096D01*
X141935324Y-104392096D02*
X126555137Y-99981898D01*
X126555137Y-99981898D02*
X125593876Y-99706261D01*
X125593876Y-99706261D02*
X125924640Y-98552747D01*
X125924640Y-98552747D02*
X169181417Y-110956428D01*
X169181417Y-110956428D02*
X168850652Y-112109942D01*
X126555137Y-99981898D02*
X122751342Y-113247310D01*
X167889390Y-111834305D02*
X164085595Y-125099716D01*
X141935324Y-104392096D02*
X138131529Y-117657507D01*
X152509203Y-107424107D02*
X148705408Y-120689519D01*
G04 #@! TO.C,Uhinten2*
X200524676Y-104392096D02*
X204328471Y-117657507D01*
X189950797Y-107424107D02*
X193754593Y-120689518D01*
X215904863Y-99981898D02*
X219708658Y-113247310D01*
X174570610Y-111834305D02*
X178374405Y-125099716D01*
X216535360Y-98552747D02*
X216866124Y-99706261D01*
X173278583Y-110956428D02*
X216535360Y-98552747D01*
X173609348Y-112109942D02*
X173278583Y-110956428D01*
X174570610Y-111834305D02*
X173609348Y-112109942D01*
X189950797Y-107424107D02*
X174570610Y-111834305D01*
X200524676Y-104392096D02*
X189950797Y-107424107D01*
X215904863Y-99981898D02*
X200524676Y-104392096D01*
X216866124Y-99706261D02*
X215904863Y-99981898D01*
X204328471Y-117657507D02*
X219708658Y-113247310D01*
X178374405Y-125099716D02*
X193754593Y-120689518D01*
D11*
G04 #@! TO.C,Drot2*
X162364000Y-99821538D02*
G75*
G03X167914000Y-101366830I2990000J-462D01*
G01*
X162364000Y-99822462D02*
G75*
G02X167914000Y-98277170I2990000J462D01*
G01*
X167854000Y-99822000D02*
G75*
G03X167854000Y-99822000I-2500000J0D01*
G01*
X167914000Y-101367000D02*
X167914000Y-98277000D01*
G04 #@! TO.C,Dgrun1*
X160802000Y-101621000D02*
X160802000Y-98531000D01*
X160742000Y-100076000D02*
G75*
G03X160742000Y-100076000I-2500000J0D01*
G01*
X155252000Y-100076462D02*
G75*
G02X160802000Y-98531170I2990000J462D01*
G01*
X155252000Y-100075538D02*
G75*
G03X160802000Y-101620830I2990000J-462D01*
G01*
D10*
G04 #@! TO.C,GPS1*
X200722000Y-80312000D02*
X176722000Y-80312000D01*
X200722000Y-54312000D02*
X176722000Y-54312000D01*
X200722000Y-80312000D02*
X200722000Y-54312000D01*
X176722000Y-80312000D02*
X176722000Y-54312000D01*
D11*
G04 #@! TO.C,U3*
X184914000Y-89248000D02*
X184914000Y-88138000D01*
X185674000Y-89248000D02*
X184914000Y-89248000D01*
X186434000Y-87574529D02*
X186434000Y-87028000D01*
X186434000Y-89248000D02*
X186434000Y-88701471D01*
X186434000Y-87028000D02*
X188909000Y-87028000D01*
X186434000Y-89248000D02*
X188909000Y-89248000D01*
X188909000Y-87830470D02*
X188909000Y-87028000D01*
X188909000Y-89248000D02*
X188909000Y-88445530D01*
G04 #@! TO.C,SW1*
X145562000Y-87688000D02*
X145562000Y-88588000D01*
X145112000Y-88138000D02*
X146012000Y-88138000D01*
X149643000Y-87973000D02*
X149643000Y-88303000D01*
X149603000Y-87723000D02*
X149603000Y-88553000D01*
X149563000Y-87571000D02*
X149563000Y-88705000D01*
X149523000Y-87452000D02*
X149523000Y-88824000D01*
X149483000Y-87352000D02*
X149483000Y-88924000D01*
X149443000Y-87264000D02*
X149443000Y-89012000D01*
X149403000Y-87186000D02*
X149403000Y-89090000D01*
X149363000Y-87115000D02*
X149363000Y-89161000D01*
X149323000Y-87050000D02*
X149323000Y-89226000D01*
X149283000Y-86990000D02*
X149283000Y-89286000D01*
X149243000Y-86934000D02*
X149243000Y-89342000D01*
X149203000Y-86882000D02*
X149203000Y-89394000D01*
X149163000Y-86833000D02*
X149163000Y-89443000D01*
X149123000Y-86787000D02*
X149123000Y-89489000D01*
X149083000Y-88918000D02*
X149083000Y-89533000D01*
X149083000Y-86743000D02*
X149083000Y-87358000D01*
X149043000Y-88918000D02*
X149043000Y-89574000D01*
X149043000Y-86702000D02*
X149043000Y-87358000D01*
X149003000Y-88918000D02*
X149003000Y-89613000D01*
X149003000Y-86663000D02*
X149003000Y-87358000D01*
X148963000Y-88918000D02*
X148963000Y-89650000D01*
X148963000Y-86626000D02*
X148963000Y-87358000D01*
X148923000Y-88918000D02*
X148923000Y-89685000D01*
X148923000Y-86591000D02*
X148923000Y-87358000D01*
X148883000Y-88918000D02*
X148883000Y-89719000D01*
X148883000Y-86557000D02*
X148883000Y-87358000D01*
X148843000Y-88918000D02*
X148843000Y-89751000D01*
X148843000Y-86525000D02*
X148843000Y-87358000D01*
X148803000Y-88918000D02*
X148803000Y-89781000D01*
X148803000Y-86495000D02*
X148803000Y-87358000D01*
X148763000Y-88918000D02*
X148763000Y-89810000D01*
X148763000Y-86466000D02*
X148763000Y-87358000D01*
X148723000Y-88918000D02*
X148723000Y-89837000D01*
X148723000Y-86439000D02*
X148723000Y-87358000D01*
X148683000Y-88918000D02*
X148683000Y-89863000D01*
X148683000Y-86413000D02*
X148683000Y-87358000D01*
X148643000Y-88918000D02*
X148643000Y-89888000D01*
X148643000Y-86388000D02*
X148643000Y-87358000D01*
X148603000Y-88918000D02*
X148603000Y-89911000D01*
X148603000Y-86365000D02*
X148603000Y-87358000D01*
X148563000Y-88918000D02*
X148563000Y-89934000D01*
X148563000Y-86342000D02*
X148563000Y-87358000D01*
X148523000Y-88918000D02*
X148523000Y-89955000D01*
X148523000Y-86321000D02*
X148523000Y-87358000D01*
X148483000Y-88918000D02*
X148483000Y-89975000D01*
X148483000Y-86301000D02*
X148483000Y-87358000D01*
X148443000Y-88918000D02*
X148443000Y-89994000D01*
X148443000Y-86282000D02*
X148443000Y-87358000D01*
X148403000Y-88918000D02*
X148403000Y-90012000D01*
X148403000Y-86264000D02*
X148403000Y-87358000D01*
X148363000Y-88918000D02*
X148363000Y-90029000D01*
X148363000Y-86247000D02*
X148363000Y-87358000D01*
X148323000Y-88918000D02*
X148323000Y-90045000D01*
X148323000Y-86231000D02*
X148323000Y-87358000D01*
X148283000Y-88918000D02*
X148283000Y-90061000D01*
X148283000Y-86215000D02*
X148283000Y-87358000D01*
X148242000Y-88918000D02*
X148242000Y-90075000D01*
X148242000Y-86201000D02*
X148242000Y-87358000D01*
X148202000Y-88918000D02*
X148202000Y-90088000D01*
X148202000Y-86188000D02*
X148202000Y-87358000D01*
X148162000Y-88918000D02*
X148162000Y-90101000D01*
X148162000Y-86175000D02*
X148162000Y-87358000D01*
X148122000Y-88918000D02*
X148122000Y-90112000D01*
X148122000Y-86164000D02*
X148122000Y-87358000D01*
X148082000Y-88918000D02*
X148082000Y-90123000D01*
X148082000Y-86153000D02*
X148082000Y-87358000D01*
X148042000Y-88918000D02*
X148042000Y-90133000D01*
X148042000Y-86143000D02*
X148042000Y-87358000D01*
X148002000Y-88918000D02*
X148002000Y-90142000D01*
X148002000Y-86134000D02*
X148002000Y-87358000D01*
X147962000Y-88918000D02*
X147962000Y-90150000D01*
X147962000Y-86126000D02*
X147962000Y-87358000D01*
X147922000Y-88918000D02*
X147922000Y-90157000D01*
X147922000Y-86119000D02*
X147922000Y-87358000D01*
X147882000Y-88918000D02*
X147882000Y-90164000D01*
X147882000Y-86112000D02*
X147882000Y-87358000D01*
X147842000Y-88918000D02*
X147842000Y-90170000D01*
X147842000Y-86106000D02*
X147842000Y-87358000D01*
X147802000Y-88918000D02*
X147802000Y-90175000D01*
X147802000Y-86101000D02*
X147802000Y-87358000D01*
X147762000Y-88918000D02*
X147762000Y-90179000D01*
X147762000Y-86097000D02*
X147762000Y-87358000D01*
X147722000Y-88918000D02*
X147722000Y-90182000D01*
X147722000Y-86094000D02*
X147722000Y-87358000D01*
X147682000Y-88918000D02*
X147682000Y-90185000D01*
X147682000Y-86091000D02*
X147682000Y-87358000D01*
X147642000Y-88918000D02*
X147642000Y-90187000D01*
X147642000Y-86089000D02*
X147642000Y-87358000D01*
X147602000Y-88918000D02*
X147602000Y-90188000D01*
X147602000Y-86088000D02*
X147602000Y-87358000D01*
X147562000Y-86088000D02*
X147562000Y-87358000D01*
X147562000Y-88918000D02*
X147562000Y-90188000D01*
X149408436Y-89117170D02*
G75*
G03X149407996Y-87158000I-1846436J979170D01*
G01*
X149408436Y-89117170D02*
G75*
G02X145716004Y-89118000I-1846436J979170D01*
G01*
X149408436Y-87158830D02*
G75*
G03X145716004Y-87158000I-1846436J-979170D01*
G01*
G04 #@! TO.C,R1*
X152110000Y-85344000D02*
X153000000Y-85344000D01*
X160310000Y-85344000D02*
X159420000Y-85344000D01*
X153000000Y-86654000D02*
X159420000Y-86654000D01*
X153000000Y-84034000D02*
X153000000Y-86654000D01*
X159420000Y-84034000D02*
X153000000Y-84034000D01*
X159420000Y-86654000D02*
X159420000Y-84034000D01*
G04 #@! TO.C,R2*
X171866000Y-86654000D02*
X171866000Y-84034000D01*
X171866000Y-84034000D02*
X165446000Y-84034000D01*
X165446000Y-84034000D02*
X165446000Y-86654000D01*
X165446000Y-86654000D02*
X171866000Y-86654000D01*
X172756000Y-85344000D02*
X171866000Y-85344000D01*
X164556000Y-85344000D02*
X165446000Y-85344000D01*
G04 #@! TO.C,R3*
X167168000Y-82042000D02*
X166278000Y-82042000D01*
X158968000Y-82042000D02*
X159858000Y-82042000D01*
X166278000Y-80732000D02*
X159858000Y-80732000D01*
X166278000Y-83352000D02*
X166278000Y-80732000D01*
X159858000Y-83352000D02*
X166278000Y-83352000D01*
X159858000Y-80732000D02*
X159858000Y-83352000D01*
G04 #@! TO.C,R4*
X146650000Y-80732000D02*
X146650000Y-83352000D01*
X146650000Y-83352000D02*
X153070000Y-83352000D01*
X153070000Y-83352000D02*
X153070000Y-80732000D01*
X153070000Y-80732000D02*
X146650000Y-80732000D01*
X145760000Y-82042000D02*
X146650000Y-82042000D01*
X153960000Y-82042000D02*
X153070000Y-82042000D01*
G04 #@! TO.C,R5*
X179614000Y-98298000D02*
X178724000Y-98298000D01*
X171414000Y-98298000D02*
X172304000Y-98298000D01*
X178724000Y-96988000D02*
X172304000Y-96988000D01*
X178724000Y-99608000D02*
X178724000Y-96988000D01*
X172304000Y-99608000D02*
X178724000Y-99608000D01*
X172304000Y-96988000D02*
X172304000Y-99608000D01*
G04 #@! TO.C,R6*
X172304000Y-100544000D02*
X172304000Y-103164000D01*
X172304000Y-103164000D02*
X178724000Y-103164000D01*
X178724000Y-103164000D02*
X178724000Y-100544000D01*
X178724000Y-100544000D02*
X172304000Y-100544000D01*
X171414000Y-101854000D02*
X172304000Y-101854000D01*
X179614000Y-101854000D02*
X178724000Y-101854000D01*
G04 #@! TO.C,R7*
X165064000Y-88646000D02*
X165954000Y-88646000D01*
X173264000Y-88646000D02*
X172374000Y-88646000D01*
X165954000Y-89956000D02*
X172374000Y-89956000D01*
X165954000Y-87336000D02*
X165954000Y-89956000D01*
X172374000Y-87336000D02*
X165954000Y-87336000D01*
X172374000Y-89956000D02*
X172374000Y-87336000D01*
G04 #@! TO.C,R8*
X159420000Y-89956000D02*
X159420000Y-87336000D01*
X159420000Y-87336000D02*
X153000000Y-87336000D01*
X153000000Y-87336000D02*
X153000000Y-89956000D01*
X153000000Y-89956000D02*
X159420000Y-89956000D01*
X160310000Y-88646000D02*
X159420000Y-88646000D01*
X152110000Y-88646000D02*
X153000000Y-88646000D01*
G04 #@! TO.C,Uvorne1*
D12*
X126557388Y-97172493D02*
X126334137Y-97951062D01*
X126353671Y-98055791D01*
X126386336Y-98114722D01*
X126464800Y-98186785D01*
X126647993Y-98239314D01*
X126752722Y-98219781D01*
X126811652Y-98187115D01*
X126883715Y-98108651D01*
X127106966Y-97330082D01*
X127381425Y-97755729D02*
X127426562Y-98462565D01*
X127839407Y-97887053D01*
X128159333Y-98672684D02*
X128080869Y-98600621D01*
X128048203Y-98541690D01*
X128028670Y-98436962D01*
X128107464Y-98162173D01*
X128179527Y-98083709D01*
X128238458Y-98051043D01*
X128343186Y-98031509D01*
X128480581Y-98070907D01*
X128559045Y-98142970D01*
X128591711Y-98201900D01*
X128611244Y-98306629D01*
X128532449Y-98581418D01*
X128460386Y-98659882D01*
X128401456Y-98692548D01*
X128296727Y-98712081D01*
X128159333Y-98672684D01*
X128892103Y-98882802D02*
X129075957Y-98241628D01*
X129023427Y-98424821D02*
X129095490Y-98346357D01*
X129154421Y-98313691D01*
X129259150Y-98294158D01*
X129350746Y-98320423D01*
X129671333Y-98412349D02*
X129487480Y-99053524D01*
X129645068Y-98503946D02*
X129703999Y-98471280D01*
X129808728Y-98451747D01*
X129946122Y-98491144D01*
X130024586Y-98563207D01*
X130044120Y-98667936D01*
X129899663Y-99171716D01*
X130737162Y-99362301D02*
X130632434Y-99381834D01*
X130449241Y-99329305D01*
X130370777Y-99257242D01*
X130351244Y-99152513D01*
X130456303Y-98786127D01*
X130528366Y-98707664D01*
X130633095Y-98688130D01*
X130816288Y-98740660D01*
X130894751Y-98812723D01*
X130914285Y-98917452D01*
X130888020Y-99009048D01*
X130403773Y-98969320D01*
X131685792Y-99683880D02*
X131136214Y-99526291D01*
X131411003Y-99605085D02*
X131686783Y-98643324D01*
X131555790Y-98754453D01*
X131437929Y-98819785D01*
X131333200Y-98839318D01*
G04 #@! TO.C,Uhinten2*
X172808972Y-109529395D02*
X173032223Y-110307964D01*
X173104286Y-110386428D01*
X173163216Y-110419094D01*
X173267945Y-110438627D01*
X173451138Y-110386097D01*
X173529602Y-110314034D01*
X173562268Y-110255104D01*
X173581801Y-110150375D01*
X173358550Y-109371806D01*
X174092312Y-110202244D02*
X173816532Y-109240482D01*
X174504496Y-110084052D02*
X174360039Y-109580272D01*
X174287976Y-109501808D01*
X174183247Y-109482275D01*
X174045853Y-109521672D01*
X173967389Y-109593735D01*
X173934723Y-109652666D01*
X174962477Y-109952728D02*
X174778624Y-109311553D01*
X174686697Y-108990966D02*
X174654031Y-109049897D01*
X174712962Y-109082563D01*
X174745627Y-109023632D01*
X174686697Y-108990966D01*
X174712962Y-109082563D01*
X175236605Y-109180229D02*
X175420459Y-109821404D01*
X175262870Y-109271826D02*
X175295536Y-109212895D01*
X175374000Y-109140832D01*
X175511394Y-109101435D01*
X175616123Y-109120968D01*
X175688186Y-109199432D01*
X175832643Y-109703212D01*
X175969376Y-108970111D02*
X176335761Y-108865051D01*
X176014844Y-108610126D02*
X176251227Y-109434493D01*
X176323290Y-109512957D01*
X176428019Y-109532491D01*
X176519615Y-109506226D01*
X177193455Y-109263441D02*
X177114991Y-109335504D01*
X176931799Y-109388034D01*
X176827070Y-109368501D01*
X176755007Y-109290037D01*
X176649948Y-108923651D01*
X176669481Y-108818923D01*
X176747945Y-108746860D01*
X176931138Y-108694330D01*
X177035866Y-108713863D01*
X177107929Y-108792327D01*
X177134194Y-108883924D01*
X176702477Y-109106844D01*
X177480716Y-108536741D02*
X177664569Y-109177915D01*
X177506980Y-108628337D02*
X177539646Y-108569407D01*
X177618110Y-108497344D01*
X177755505Y-108457947D01*
X177860233Y-108477480D01*
X177932296Y-108555944D01*
X178076753Y-109059724D01*
X178239421Y-108071367D02*
X178272086Y-108012436D01*
X178350550Y-107940373D01*
X178579541Y-107874711D01*
X178684270Y-107894244D01*
X178743200Y-107926910D01*
X178815263Y-108005374D01*
X178841528Y-108096970D01*
X178835127Y-108247497D01*
X178443138Y-108954664D01*
X179038515Y-108783943D01*
G04 #@! TO.C,Drot2*
D13*
X167378285Y-102814380D02*
X167378285Y-101814380D01*
X167616380Y-101814380D01*
X167759238Y-101862000D01*
X167854476Y-101957238D01*
X167902095Y-102052476D01*
X167949714Y-102242952D01*
X167949714Y-102385809D01*
X167902095Y-102576285D01*
X167854476Y-102671523D01*
X167759238Y-102766761D01*
X167616380Y-102814380D01*
X167378285Y-102814380D01*
X168378285Y-102814380D02*
X168378285Y-102147714D01*
X168378285Y-102338190D02*
X168425904Y-102242952D01*
X168473523Y-102195333D01*
X168568761Y-102147714D01*
X168664000Y-102147714D01*
X169140190Y-102814380D02*
X169044952Y-102766761D01*
X168997333Y-102719142D01*
X168949714Y-102623904D01*
X168949714Y-102338190D01*
X168997333Y-102242952D01*
X169044952Y-102195333D01*
X169140190Y-102147714D01*
X169283047Y-102147714D01*
X169378285Y-102195333D01*
X169425904Y-102242952D01*
X169473523Y-102338190D01*
X169473523Y-102623904D01*
X169425904Y-102719142D01*
X169378285Y-102766761D01*
X169283047Y-102814380D01*
X169140190Y-102814380D01*
X169759238Y-102147714D02*
X170140190Y-102147714D01*
X169902095Y-101814380D02*
X169902095Y-102671523D01*
X169949714Y-102766761D01*
X170044952Y-102814380D01*
X170140190Y-102814380D01*
X170425904Y-101909619D02*
X170473523Y-101862000D01*
X170568761Y-101814380D01*
X170806857Y-101814380D01*
X170902095Y-101862000D01*
X170949714Y-101909619D01*
X170997333Y-102004857D01*
X170997333Y-102100095D01*
X170949714Y-102242952D01*
X170378285Y-102814380D01*
X170997333Y-102814380D01*
G04 #@! TO.C,Dgrun1*
X159647238Y-103068380D02*
X159647238Y-102068380D01*
X159885333Y-102068380D01*
X160028190Y-102116000D01*
X160123428Y-102211238D01*
X160171047Y-102306476D01*
X160218666Y-102496952D01*
X160218666Y-102639809D01*
X160171047Y-102830285D01*
X160123428Y-102925523D01*
X160028190Y-103020761D01*
X159885333Y-103068380D01*
X159647238Y-103068380D01*
X161075809Y-102401714D02*
X161075809Y-103211238D01*
X161028190Y-103306476D01*
X160980571Y-103354095D01*
X160885333Y-103401714D01*
X160742476Y-103401714D01*
X160647238Y-103354095D01*
X161075809Y-103020761D02*
X160980571Y-103068380D01*
X160790095Y-103068380D01*
X160694857Y-103020761D01*
X160647238Y-102973142D01*
X160599619Y-102877904D01*
X160599619Y-102592190D01*
X160647238Y-102496952D01*
X160694857Y-102449333D01*
X160790095Y-102401714D01*
X160980571Y-102401714D01*
X161075809Y-102449333D01*
X161552000Y-103068380D02*
X161552000Y-102401714D01*
X161552000Y-102592190D02*
X161599619Y-102496952D01*
X161647238Y-102449333D01*
X161742476Y-102401714D01*
X161837714Y-102401714D01*
X162599619Y-102401714D02*
X162599619Y-103068380D01*
X162171047Y-102401714D02*
X162171047Y-102925523D01*
X162218666Y-103020761D01*
X162313904Y-103068380D01*
X162456761Y-103068380D01*
X162552000Y-103020761D01*
X162599619Y-102973142D01*
X163075809Y-102401714D02*
X163075809Y-103068380D01*
X163075809Y-102496952D02*
X163123428Y-102449333D01*
X163218666Y-102401714D01*
X163361523Y-102401714D01*
X163456761Y-102449333D01*
X163504380Y-102544571D01*
X163504380Y-103068380D01*
X164504380Y-103068380D02*
X163932952Y-103068380D01*
X164218666Y-103068380D02*
X164218666Y-102068380D01*
X164123428Y-102211238D01*
X164028190Y-102306476D01*
X163932952Y-102354095D01*
G04 #@! TO.C,GPS1*
D12*
X197530904Y-80765030D02*
X197435617Y-80717386D01*
X197292685Y-80717386D01*
X197149754Y-80765030D01*
X197054466Y-80860317D01*
X197006822Y-80955605D01*
X196959179Y-81146180D01*
X196959179Y-81289111D01*
X197006822Y-81479687D01*
X197054466Y-81574974D01*
X197149754Y-81670262D01*
X197292685Y-81717906D01*
X197387973Y-81717906D01*
X197530904Y-81670262D01*
X197578548Y-81622618D01*
X197578548Y-81289111D01*
X197387973Y-81289111D01*
X198007342Y-81717906D02*
X198007342Y-80717386D01*
X198388493Y-80717386D01*
X198483780Y-80765030D01*
X198531424Y-80812673D01*
X198579068Y-80907961D01*
X198579068Y-81050892D01*
X198531424Y-81146180D01*
X198483780Y-81193824D01*
X198388493Y-81241468D01*
X198007342Y-81241468D01*
X198960219Y-81670262D02*
X199103150Y-81717906D01*
X199341369Y-81717906D01*
X199436657Y-81670262D01*
X199484300Y-81622618D01*
X199531944Y-81527330D01*
X199531944Y-81432043D01*
X199484300Y-81336755D01*
X199436657Y-81289111D01*
X199341369Y-81241468D01*
X199150794Y-81193824D01*
X199055506Y-81146180D01*
X199007862Y-81098536D01*
X198960219Y-81003249D01*
X198960219Y-80907961D01*
X199007862Y-80812673D01*
X199055506Y-80765030D01*
X199150794Y-80717386D01*
X199389013Y-80717386D01*
X199531944Y-80765030D01*
X200484820Y-81717906D02*
X199913095Y-81717906D01*
X200198958Y-81717906D02*
X200198958Y-80717386D01*
X200103670Y-80860317D01*
X200008382Y-80955605D01*
X199913095Y-81003249D01*
G04 #@! TO.C,U3*
D13*
X183431380Y-88899904D02*
X184240904Y-88899904D01*
X184336142Y-88852285D01*
X184383761Y-88804666D01*
X184431380Y-88709428D01*
X184431380Y-88518952D01*
X184383761Y-88423714D01*
X184336142Y-88376095D01*
X184240904Y-88328476D01*
X183431380Y-88328476D01*
X183431380Y-87947523D02*
X183431380Y-87328476D01*
X183812333Y-87661809D01*
X183812333Y-87518952D01*
X183859952Y-87423714D01*
X183907571Y-87376095D01*
X184002809Y-87328476D01*
X184240904Y-87328476D01*
X184336142Y-87376095D01*
X184383761Y-87423714D01*
X184431380Y-87518952D01*
X184431380Y-87804666D01*
X184383761Y-87899904D01*
X184336142Y-87947523D01*
G04 #@! TO.C,SW1*
X146228666Y-85232761D02*
X146371523Y-85280380D01*
X146609619Y-85280380D01*
X146704857Y-85232761D01*
X146752476Y-85185142D01*
X146800095Y-85089904D01*
X146800095Y-84994666D01*
X146752476Y-84899428D01*
X146704857Y-84851809D01*
X146609619Y-84804190D01*
X146419142Y-84756571D01*
X146323904Y-84708952D01*
X146276285Y-84661333D01*
X146228666Y-84566095D01*
X146228666Y-84470857D01*
X146276285Y-84375619D01*
X146323904Y-84328000D01*
X146419142Y-84280380D01*
X146657238Y-84280380D01*
X146800095Y-84328000D01*
X147133428Y-84280380D02*
X147371523Y-85280380D01*
X147562000Y-84566095D01*
X147752476Y-85280380D01*
X147990571Y-84280380D01*
X148895333Y-85280380D02*
X148323904Y-85280380D01*
X148609619Y-85280380D02*
X148609619Y-84280380D01*
X148514380Y-84423238D01*
X148419142Y-84518476D01*
X148323904Y-84566095D01*
G04 #@! TO.C,R1*
X156043333Y-85796380D02*
X155710000Y-85320190D01*
X155471904Y-85796380D02*
X155471904Y-84796380D01*
X155852857Y-84796380D01*
X155948095Y-84844000D01*
X155995714Y-84891619D01*
X156043333Y-84986857D01*
X156043333Y-85129714D01*
X155995714Y-85224952D01*
X155948095Y-85272571D01*
X155852857Y-85320190D01*
X155471904Y-85320190D01*
X156995714Y-85796380D02*
X156424285Y-85796380D01*
X156710000Y-85796380D02*
X156710000Y-84796380D01*
X156614761Y-84939238D01*
X156519523Y-85034476D01*
X156424285Y-85082095D01*
G04 #@! TO.C,R2*
X168235333Y-85796380D02*
X167902000Y-85320190D01*
X167663904Y-85796380D02*
X167663904Y-84796380D01*
X168044857Y-84796380D01*
X168140095Y-84844000D01*
X168187714Y-84891619D01*
X168235333Y-84986857D01*
X168235333Y-85129714D01*
X168187714Y-85224952D01*
X168140095Y-85272571D01*
X168044857Y-85320190D01*
X167663904Y-85320190D01*
X168616285Y-84891619D02*
X168663904Y-84844000D01*
X168759142Y-84796380D01*
X168997238Y-84796380D01*
X169092476Y-84844000D01*
X169140095Y-84891619D01*
X169187714Y-84986857D01*
X169187714Y-85082095D01*
X169140095Y-85224952D01*
X168568666Y-85796380D01*
X169187714Y-85796380D01*
G04 #@! TO.C,R3*
X162393333Y-82494380D02*
X162060000Y-82018190D01*
X161821904Y-82494380D02*
X161821904Y-81494380D01*
X162202857Y-81494380D01*
X162298095Y-81542000D01*
X162345714Y-81589619D01*
X162393333Y-81684857D01*
X162393333Y-81827714D01*
X162345714Y-81922952D01*
X162298095Y-81970571D01*
X162202857Y-82018190D01*
X161821904Y-82018190D01*
X162726666Y-81494380D02*
X163345714Y-81494380D01*
X163012380Y-81875333D01*
X163155238Y-81875333D01*
X163250476Y-81922952D01*
X163298095Y-81970571D01*
X163345714Y-82065809D01*
X163345714Y-82303904D01*
X163298095Y-82399142D01*
X163250476Y-82446761D01*
X163155238Y-82494380D01*
X162869523Y-82494380D01*
X162774285Y-82446761D01*
X162726666Y-82399142D01*
G04 #@! TO.C,R4*
X149947333Y-82494380D02*
X149614000Y-82018190D01*
X149375904Y-82494380D02*
X149375904Y-81494380D01*
X149756857Y-81494380D01*
X149852095Y-81542000D01*
X149899714Y-81589619D01*
X149947333Y-81684857D01*
X149947333Y-81827714D01*
X149899714Y-81922952D01*
X149852095Y-81970571D01*
X149756857Y-82018190D01*
X149375904Y-82018190D01*
X150804476Y-81827714D02*
X150804476Y-82494380D01*
X150566380Y-81446761D02*
X150328285Y-82161047D01*
X150947333Y-82161047D01*
G04 #@! TO.C,R5*
X175601333Y-98750380D02*
X175268000Y-98274190D01*
X175029904Y-98750380D02*
X175029904Y-97750380D01*
X175410857Y-97750380D01*
X175506095Y-97798000D01*
X175553714Y-97845619D01*
X175601333Y-97940857D01*
X175601333Y-98083714D01*
X175553714Y-98178952D01*
X175506095Y-98226571D01*
X175410857Y-98274190D01*
X175029904Y-98274190D01*
X176506095Y-97750380D02*
X176029904Y-97750380D01*
X175982285Y-98226571D01*
X176029904Y-98178952D01*
X176125142Y-98131333D01*
X176363238Y-98131333D01*
X176458476Y-98178952D01*
X176506095Y-98226571D01*
X176553714Y-98321809D01*
X176553714Y-98559904D01*
X176506095Y-98655142D01*
X176458476Y-98702761D01*
X176363238Y-98750380D01*
X176125142Y-98750380D01*
X176029904Y-98702761D01*
X175982285Y-98655142D01*
G04 #@! TO.C,R6*
X175601333Y-102306380D02*
X175268000Y-101830190D01*
X175029904Y-102306380D02*
X175029904Y-101306380D01*
X175410857Y-101306380D01*
X175506095Y-101354000D01*
X175553714Y-101401619D01*
X175601333Y-101496857D01*
X175601333Y-101639714D01*
X175553714Y-101734952D01*
X175506095Y-101782571D01*
X175410857Y-101830190D01*
X175029904Y-101830190D01*
X176458476Y-101306380D02*
X176268000Y-101306380D01*
X176172761Y-101354000D01*
X176125142Y-101401619D01*
X176029904Y-101544476D01*
X175982285Y-101734952D01*
X175982285Y-102115904D01*
X176029904Y-102211142D01*
X176077523Y-102258761D01*
X176172761Y-102306380D01*
X176363238Y-102306380D01*
X176458476Y-102258761D01*
X176506095Y-102211142D01*
X176553714Y-102115904D01*
X176553714Y-101877809D01*
X176506095Y-101782571D01*
X176458476Y-101734952D01*
X176363238Y-101687333D01*
X176172761Y-101687333D01*
X176077523Y-101734952D01*
X176029904Y-101782571D01*
X175982285Y-101877809D01*
G04 #@! TO.C,R7*
X168997333Y-89098380D02*
X168664000Y-88622190D01*
X168425904Y-89098380D02*
X168425904Y-88098380D01*
X168806857Y-88098380D01*
X168902095Y-88146000D01*
X168949714Y-88193619D01*
X168997333Y-88288857D01*
X168997333Y-88431714D01*
X168949714Y-88526952D01*
X168902095Y-88574571D01*
X168806857Y-88622190D01*
X168425904Y-88622190D01*
X169330666Y-88098380D02*
X169997333Y-88098380D01*
X169568761Y-89098380D01*
G04 #@! TO.C,R8*
X155789333Y-89098380D02*
X155456000Y-88622190D01*
X155217904Y-89098380D02*
X155217904Y-88098380D01*
X155598857Y-88098380D01*
X155694095Y-88146000D01*
X155741714Y-88193619D01*
X155789333Y-88288857D01*
X155789333Y-88431714D01*
X155741714Y-88526952D01*
X155694095Y-88574571D01*
X155598857Y-88622190D01*
X155217904Y-88622190D01*
X156360761Y-88526952D02*
X156265523Y-88479333D01*
X156217904Y-88431714D01*
X156170285Y-88336476D01*
X156170285Y-88288857D01*
X156217904Y-88193619D01*
X156265523Y-88146000D01*
X156360761Y-88098380D01*
X156551238Y-88098380D01*
X156646476Y-88146000D01*
X156694095Y-88193619D01*
X156741714Y-88288857D01*
X156741714Y-88336476D01*
X156694095Y-88431714D01*
X156646476Y-88479333D01*
X156551238Y-88526952D01*
X156360761Y-88526952D01*
X156265523Y-88574571D01*
X156217904Y-88622190D01*
X156170285Y-88717428D01*
X156170285Y-88907904D01*
X156217904Y-89003142D01*
X156265523Y-89050761D01*
X156360761Y-89098380D01*
X156551238Y-89098380D01*
X156646476Y-89050761D01*
X156694095Y-89003142D01*
X156741714Y-88907904D01*
X156741714Y-88717428D01*
X156694095Y-88622190D01*
X156646476Y-88574571D01*
X156551238Y-88526952D01*
G04 #@! TD*
M02*
