G04 #@! TF.GenerationSoftware,KiCad,Pcbnew,(5.0.2)-1*
G04 #@! TF.CreationDate,2021-01-02T20:32:08+01:00*
G04 #@! TF.ProjectId,Radmesser,5261646d-6573-4736-9572-2e6b69636164,rev?*
G04 #@! TF.SameCoordinates,Original*
G04 #@! TF.FileFunction,Copper,L2,Bot*
G04 #@! TF.FilePolarity,Positive*
%FSLAX46Y46*%
G04 Gerber Fmt 4.6, Leading zero omitted, Abs format (unit mm)*
G04 Created by KiCad (PCBNEW (5.0.2)-1) date 02.01.2021 20:32:08*
%MOMM*%
%LPD*%
G01*
G04 APERTURE LIST*
G04 #@! TA.AperFunction,ComponentPad*
%ADD10C,1.530000*%
G04 #@! TD*
G04 #@! TA.AperFunction,ComponentPad*
%ADD11R,1.800000X1.800000*%
G04 #@! TD*
G04 #@! TA.AperFunction,ComponentPad*
%ADD12C,1.800000*%
G04 #@! TD*
G04 #@! TA.AperFunction,ComponentPad*
%ADD13O,1.700000X1.700000*%
G04 #@! TD*
G04 #@! TA.AperFunction,ComponentPad*
%ADD14R,1.700000X1.700000*%
G04 #@! TD*
G04 #@! TA.AperFunction,ComponentPad*
%ADD15O,1.000000X1.000000*%
G04 #@! TD*
G04 #@! TA.AperFunction,ComponentPad*
%ADD16R,1.000000X1.000000*%
G04 #@! TD*
G04 #@! TA.AperFunction,ComponentPad*
%ADD17C,1.200000*%
G04 #@! TD*
G04 #@! TA.AperFunction,ComponentPad*
%ADD18R,1.200000X1.200000*%
G04 #@! TD*
G04 #@! TA.AperFunction,ComponentPad*
%ADD19O,1.600000X1.600000*%
G04 #@! TD*
G04 #@! TA.AperFunction,ComponentPad*
%ADD20C,1.600000*%
G04 #@! TD*
G04 #@! TA.AperFunction,Conductor*
%ADD21C,0.500000*%
G04 #@! TD*
G04 #@! TA.AperFunction,Conductor*
%ADD22C,0.254000*%
G04 #@! TD*
G04 APERTURE END LIST*
D10*
G04 #@! TO.P,Uvorne1,2*
G04 #@! TO.N,Net-(J1-Pad16)*
X147509198Y-100299941D03*
G04 #@! TO.P,Uvorne1,3*
G04 #@! TO.N,Net-(R4-Pad1)*
X149950802Y-101000059D03*
G04 #@! TO.P,Uvorne1,4*
G04 #@! TO.N,GND*
X152392407Y-101700179D03*
G04 #@! TO.P,Uvorne1,1*
G04 #@! TO.N,Net-(J1-Pad2)*
X145067593Y-99599821D03*
G04 #@! TD*
G04 #@! TO.P,Uhinten2,1*
G04 #@! TO.N,Net-(J1-Pad2)*
X190067593Y-101700180D03*
G04 #@! TO.P,Uhinten2,4*
G04 #@! TO.N,GND*
X197392407Y-99599820D03*
G04 #@! TO.P,Uhinten2,3*
G04 #@! TO.N,Net-(R2-Pad1)*
X194950802Y-100299941D03*
G04 #@! TO.P,Uhinten2,2*
G04 #@! TO.N,Net-(J1-Pad16)*
X192509198Y-101000059D03*
G04 #@! TD*
D11*
G04 #@! TO.P,Drot2,1*
G04 #@! TO.N,Net-(Drot2-Pad1)*
X166624000Y-99822000D03*
D12*
G04 #@! TO.P,Drot2,2*
G04 #@! TO.N,Net-(Drot2-Pad2)*
X164084000Y-99822000D03*
G04 #@! TD*
G04 #@! TO.P,Dgrun1,2*
G04 #@! TO.N,Net-(Dgrun1-Pad2)*
X156972000Y-100076000D03*
D11*
G04 #@! TO.P,Dgrun1,1*
G04 #@! TO.N,Net-(Dgrun1-Pad1)*
X159512000Y-100076000D03*
G04 #@! TD*
D10*
G04 #@! TO.P,GPS1,2*
G04 #@! TO.N,Net-(GPS1-Pad2)*
X189992000Y-84582000D03*
G04 #@! TO.P,GPS1,3*
G04 #@! TO.N,Net-(GPS1-Pad3)*
X187452000Y-84582000D03*
G04 #@! TO.P,GPS1,4*
G04 #@! TO.N,GND*
X184912000Y-84582000D03*
G04 #@! TO.P,GPS1,1*
G04 #@! TO.N,Net-(GPS1-Pad1)*
X192532000Y-84582000D03*
G04 #@! TD*
D13*
G04 #@! TO.P,J1,40*
G04 #@! TO.N,Net-(Dgrun1-Pad2)*
X146304000Y-94488000D03*
G04 #@! TO.P,J1,39*
G04 #@! TO.N,GND*
X146304000Y-91948000D03*
G04 #@! TO.P,J1,38*
G04 #@! TO.N,Net-(Drot2-Pad2)*
X148844000Y-94488000D03*
G04 #@! TO.P,J1,37*
G04 #@! TO.N,Net-(J1-Pad37)*
X148844000Y-91948000D03*
G04 #@! TO.P,J1,36*
G04 #@! TO.N,Net-(J1-Pad36)*
X151384000Y-94488000D03*
G04 #@! TO.P,J1,35*
G04 #@! TO.N,Net-(J1-Pad35)*
X151384000Y-91948000D03*
G04 #@! TO.P,J1,34*
G04 #@! TO.N,GND*
X153924000Y-94488000D03*
G04 #@! TO.P,J1,33*
G04 #@! TO.N,Net-(J1-Pad33)*
X153924000Y-91948000D03*
G04 #@! TO.P,J1,32*
G04 #@! TO.N,Net-(J1-Pad32)*
X156464000Y-94488000D03*
G04 #@! TO.P,J1,31*
G04 #@! TO.N,GND*
X156464000Y-91948000D03*
G04 #@! TO.P,J1,30*
G04 #@! TO.N,Net-(J1-Pad30)*
X159004000Y-94488000D03*
G04 #@! TO.P,J1,29*
G04 #@! TO.N,Net-(J1-Pad29)*
X159004000Y-91948000D03*
G04 #@! TO.P,J1,28*
G04 #@! TO.N,Net-(J1-Pad28)*
X161544000Y-94488000D03*
G04 #@! TO.P,J1,27*
G04 #@! TO.N,Net-(J1-Pad27)*
X161544000Y-91948000D03*
G04 #@! TO.P,J1,26*
G04 #@! TO.N,Net-(J1-Pad26)*
X164084000Y-94488000D03*
G04 #@! TO.P,J1,25*
G04 #@! TO.N,Net-(J1-Pad25)*
X164084000Y-91948000D03*
G04 #@! TO.P,J1,24*
G04 #@! TO.N,Net-(J1-Pad24)*
X166624000Y-94488000D03*
G04 #@! TO.P,J1,23*
G04 #@! TO.N,Net-(J1-Pad23)*
X166624000Y-91948000D03*
G04 #@! TO.P,J1,22*
G04 #@! TO.N,Net-(J1-Pad22)*
X169164000Y-94488000D03*
G04 #@! TO.P,J1,21*
G04 #@! TO.N,Net-(J1-Pad21)*
X169164000Y-91948000D03*
G04 #@! TO.P,J1,20*
G04 #@! TO.N,Net-(J1-Pad20)*
X171704000Y-94488000D03*
G04 #@! TO.P,J1,19*
G04 #@! TO.N,Net-(J1-Pad19)*
X171704000Y-91948000D03*
G04 #@! TO.P,J1,18*
G04 #@! TO.N,Net-(J1-Pad18)*
X174244000Y-94488000D03*
G04 #@! TO.P,J1,17*
G04 #@! TO.N,Net-(J1-Pad17)*
X174244000Y-91948000D03*
G04 #@! TO.P,J1,16*
G04 #@! TO.N,Net-(J1-Pad16)*
X176784000Y-94488000D03*
G04 #@! TO.P,J1,15*
G04 #@! TO.N,Net-(J1-Pad15)*
X176784000Y-91948000D03*
G04 #@! TO.P,J1,14*
G04 #@! TO.N,Net-(J1-Pad14)*
X179324000Y-94488000D03*
G04 #@! TO.P,J1,13*
G04 #@! TO.N,Net-(J1-Pad13)*
X179324000Y-91948000D03*
G04 #@! TO.P,J1,12*
G04 #@! TO.N,Net-(J1-Pad12)*
X181864000Y-94488000D03*
G04 #@! TO.P,J1,11*
G04 #@! TO.N,Net-(J1-Pad11)*
X181864000Y-91948000D03*
G04 #@! TO.P,J1,10*
G04 #@! TO.N,Net-(GPS1-Pad3)*
X184404000Y-94488000D03*
G04 #@! TO.P,J1,9*
G04 #@! TO.N,Net-(J1-Pad9)*
X184404000Y-91948000D03*
G04 #@! TO.P,J1,8*
G04 #@! TO.N,Net-(GPS1-Pad2)*
X186944000Y-94488000D03*
G04 #@! TO.P,J1,7*
G04 #@! TO.N,Net-(J1-Pad7)*
X186944000Y-91948000D03*
G04 #@! TO.P,J1,6*
G04 #@! TO.N,GND*
X189484000Y-94488000D03*
G04 #@! TO.P,J1,5*
G04 #@! TO.N,Net-(J1-Pad5)*
X189484000Y-91948000D03*
G04 #@! TO.P,J1,4*
G04 #@! TO.N,Net-(J1-Pad4)*
X192024000Y-94488000D03*
G04 #@! TO.P,J1,3*
G04 #@! TO.N,Net-(J1-Pad3)*
X192024000Y-91948000D03*
G04 #@! TO.P,J1,2*
G04 #@! TO.N,Net-(J1-Pad2)*
X194564000Y-94488000D03*
D14*
G04 #@! TO.P,J1,1*
G04 #@! TO.N,Net-(GPS1-Pad1)*
X194564000Y-91948000D03*
G04 #@! TD*
D15*
G04 #@! TO.P,U3,3*
G04 #@! TO.N,Net-(GPS1-Pad1)*
X188214000Y-88138000D03*
G04 #@! TO.P,U3,2*
G04 #@! TO.N,Net-(J1-Pad7)*
X186944000Y-88138000D03*
D16*
G04 #@! TO.P,U3,1*
G04 #@! TO.N,GND*
X185674000Y-88138000D03*
G04 #@! TD*
D17*
G04 #@! TO.P,SW1,2*
G04 #@! TO.N,Net-(R8-Pad2)*
X148312000Y-88138000D03*
D18*
G04 #@! TO.P,SW1,1*
G04 #@! TO.N,GND*
X146812000Y-88138000D03*
G04 #@! TD*
D19*
G04 #@! TO.P,R1,2*
G04 #@! TO.N,GND*
X151130000Y-85344000D03*
D20*
G04 #@! TO.P,R1,1*
G04 #@! TO.N,Net-(J1-Pad13)*
X161290000Y-85344000D03*
G04 #@! TD*
G04 #@! TO.P,R2,1*
G04 #@! TO.N,Net-(R2-Pad1)*
X173736000Y-85344000D03*
D19*
G04 #@! TO.P,R2,2*
G04 #@! TO.N,Net-(J1-Pad13)*
X163576000Y-85344000D03*
G04 #@! TD*
G04 #@! TO.P,R3,2*
G04 #@! TO.N,GND*
X168148000Y-82042000D03*
D20*
G04 #@! TO.P,R3,1*
G04 #@! TO.N,Net-(J1-Pad11)*
X157988000Y-82042000D03*
G04 #@! TD*
G04 #@! TO.P,R4,1*
G04 #@! TO.N,Net-(R4-Pad1)*
X144780000Y-82042000D03*
D19*
G04 #@! TO.P,R4,2*
G04 #@! TO.N,Net-(J1-Pad11)*
X154940000Y-82042000D03*
G04 #@! TD*
G04 #@! TO.P,R5,2*
G04 #@! TO.N,GND*
X180594000Y-98298000D03*
D20*
G04 #@! TO.P,R5,1*
G04 #@! TO.N,Net-(Drot2-Pad1)*
X170434000Y-98298000D03*
G04 #@! TD*
G04 #@! TO.P,R6,1*
G04 #@! TO.N,Net-(Dgrun1-Pad1)*
X170434000Y-101854000D03*
D19*
G04 #@! TO.P,R6,2*
G04 #@! TO.N,GND*
X180594000Y-101854000D03*
G04 #@! TD*
G04 #@! TO.P,R7,2*
G04 #@! TO.N,Net-(J1-Pad7)*
X164084000Y-88646000D03*
D20*
G04 #@! TO.P,R7,1*
G04 #@! TO.N,Net-(GPS1-Pad1)*
X174244000Y-88646000D03*
G04 #@! TD*
G04 #@! TO.P,R8,1*
G04 #@! TO.N,Net-(J1-Pad17)*
X161290000Y-88646000D03*
D19*
G04 #@! TO.P,R8,2*
G04 #@! TO.N,Net-(R8-Pad2)*
X151130000Y-88646000D03*
G04 #@! TD*
D21*
G04 #@! TO.N,Net-(GPS1-Pad1)*
X191767001Y-85346999D02*
X192532000Y-84582000D01*
X191316999Y-85797001D02*
X191767001Y-85346999D01*
X190418997Y-85797001D02*
X191316999Y-85797001D01*
X188214000Y-88001998D02*
X190418997Y-85797001D01*
X188214000Y-88138000D02*
X188214000Y-88001998D01*
X175043999Y-87846001D02*
X174244000Y-88646000D01*
X175702001Y-87187999D02*
X175043999Y-87846001D01*
X187971105Y-87187999D02*
X175702001Y-87187999D01*
X188214000Y-87430894D02*
X187971105Y-87187999D01*
X188214000Y-88138000D02*
X188214000Y-87430894D01*
G04 #@! TO.N,Net-(J1-Pad7)*
X164883999Y-89445999D02*
X164084000Y-88646000D01*
X165334001Y-89896001D02*
X164883999Y-89445999D01*
X185893105Y-89896001D02*
X165334001Y-89896001D01*
X186944000Y-88845106D02*
X185893105Y-89896001D01*
X186944000Y-88138000D02*
X186944000Y-88845106D01*
G04 #@! TO.N,Net-(J1-Pad2)*
X190067593Y-98984407D02*
X190067593Y-101700180D01*
X194564000Y-94488000D02*
X190067593Y-98984407D01*
X189302594Y-100935181D02*
X190067593Y-101700180D01*
X188189413Y-99822000D02*
X189302594Y-100935181D01*
X169234002Y-99822000D02*
X188189413Y-99822000D01*
X167456002Y-98044000D02*
X169234002Y-99822000D01*
X146623414Y-98044000D02*
X167456002Y-98044000D01*
X145067593Y-99599821D02*
X146623414Y-98044000D01*
G04 #@! TD*
D22*
G04 #@! TO.N,GND*
G36*
X153905423Y-81007423D02*
X153588260Y-81482091D01*
X153476887Y-82042000D01*
X153588260Y-82601909D01*
X153905423Y-83076577D01*
X154380091Y-83393740D01*
X154798667Y-83477000D01*
X155081333Y-83477000D01*
X155499909Y-83393740D01*
X155974577Y-83076577D01*
X156291740Y-82601909D01*
X156403113Y-82042000D01*
X156291740Y-81482091D01*
X155974577Y-81007423D01*
X155753943Y-80860000D01*
X157140604Y-80860000D01*
X156771466Y-81229138D01*
X156553000Y-81756561D01*
X156553000Y-82327439D01*
X156771466Y-82854862D01*
X157175138Y-83258534D01*
X157702561Y-83477000D01*
X158273439Y-83477000D01*
X158800862Y-83258534D01*
X159204534Y-82854862D01*
X159396655Y-82391039D01*
X166756096Y-82391039D01*
X166916959Y-82779423D01*
X167292866Y-83194389D01*
X167798959Y-83433914D01*
X168021000Y-83312629D01*
X168021000Y-82169000D01*
X168275000Y-82169000D01*
X168275000Y-83312629D01*
X168497041Y-83433914D01*
X169003134Y-83194389D01*
X169379041Y-82779423D01*
X169539904Y-82391039D01*
X169417915Y-82169000D01*
X168275000Y-82169000D01*
X168021000Y-82169000D01*
X166878085Y-82169000D01*
X166756096Y-82391039D01*
X159396655Y-82391039D01*
X159423000Y-82327439D01*
X159423000Y-81756561D01*
X159204534Y-81229138D01*
X158835396Y-80860000D01*
X167355431Y-80860000D01*
X167292866Y-80889611D01*
X166916959Y-81304577D01*
X166756096Y-81692961D01*
X166878085Y-81915000D01*
X168021000Y-81915000D01*
X168021000Y-81895000D01*
X168275000Y-81895000D01*
X168275000Y-81915000D01*
X169417915Y-81915000D01*
X169539904Y-81692961D01*
X169379041Y-81304577D01*
X169003134Y-80889611D01*
X168940569Y-80860000D01*
X199290000Y-80860000D01*
X199290001Y-103430126D01*
X144220000Y-103439875D01*
X144220000Y-102423233D01*
X151349941Y-102423233D01*
X151350228Y-102675584D01*
X151802830Y-103000161D01*
X152345190Y-103126827D01*
X152759339Y-103079640D01*
X152893308Y-102865787D01*
X152342901Y-101872827D01*
X151349941Y-102423233D01*
X144220000Y-102423233D01*
X144220000Y-100732128D01*
X144274556Y-100786684D01*
X144789116Y-100999821D01*
X145346070Y-100999821D01*
X145860630Y-100786684D01*
X146109198Y-100538116D01*
X146109198Y-100578418D01*
X146322335Y-101092978D01*
X146716161Y-101486804D01*
X147230721Y-101699941D01*
X147787675Y-101699941D01*
X148302235Y-101486804D01*
X148550802Y-101238237D01*
X148550802Y-101278536D01*
X148763939Y-101793096D01*
X149157765Y-102186922D01*
X149672325Y-102400059D01*
X150229279Y-102400059D01*
X150743839Y-102186922D01*
X150997676Y-101933085D01*
X151012946Y-102067111D01*
X151226799Y-102201080D01*
X152041136Y-101749685D01*
X152565055Y-101749685D01*
X153115461Y-102742645D01*
X153367812Y-102742358D01*
X153692389Y-102289756D01*
X153819055Y-101747396D01*
X153771868Y-101333247D01*
X153558015Y-101199278D01*
X152565055Y-101749685D01*
X152041136Y-101749685D01*
X152219759Y-101650673D01*
X151669353Y-100657713D01*
X151417002Y-100658000D01*
X151350802Y-100750312D01*
X151350802Y-100721582D01*
X151273340Y-100534571D01*
X151891506Y-100534571D01*
X152441913Y-101527531D01*
X153434873Y-100977125D01*
X153434586Y-100724774D01*
X152981984Y-100400197D01*
X152439624Y-100273531D01*
X152025475Y-100320718D01*
X151891506Y-100534571D01*
X151273340Y-100534571D01*
X151137665Y-100207022D01*
X150743839Y-99813196D01*
X150229279Y-99600059D01*
X149672325Y-99600059D01*
X149157765Y-99813196D01*
X148909198Y-100061763D01*
X148909198Y-100021464D01*
X148696061Y-99506904D01*
X148302235Y-99113078D01*
X147857830Y-98929000D01*
X155948183Y-98929000D01*
X155670690Y-99206493D01*
X155437000Y-99770670D01*
X155437000Y-100381330D01*
X155670690Y-100945507D01*
X156102493Y-101377310D01*
X156666670Y-101611000D01*
X157277330Y-101611000D01*
X157841507Y-101377310D01*
X158010725Y-101208092D01*
X158013843Y-101223765D01*
X158154191Y-101433809D01*
X158364235Y-101574157D01*
X158612000Y-101623440D01*
X160412000Y-101623440D01*
X160659765Y-101574157D01*
X160869809Y-101433809D01*
X161010157Y-101223765D01*
X161059440Y-100976000D01*
X161059440Y-99176000D01*
X161010309Y-98929000D01*
X162806183Y-98929000D01*
X162782690Y-98952493D01*
X162549000Y-99516670D01*
X162549000Y-100127330D01*
X162782690Y-100691507D01*
X163214493Y-101123310D01*
X163778670Y-101357000D01*
X164389330Y-101357000D01*
X164953507Y-101123310D01*
X165122725Y-100954092D01*
X165125843Y-100969765D01*
X165266191Y-101179809D01*
X165476235Y-101320157D01*
X165724000Y-101369440D01*
X167524000Y-101369440D01*
X167771765Y-101320157D01*
X167981809Y-101179809D01*
X168122157Y-100969765D01*
X168171440Y-100722000D01*
X168171440Y-100011017D01*
X168546579Y-100386156D01*
X168595953Y-100460049D01*
X168669846Y-100509423D01*
X168669847Y-100509424D01*
X168707482Y-100534571D01*
X168888692Y-100655652D01*
X169146837Y-100707000D01*
X169146841Y-100707000D01*
X169234002Y-100724337D01*
X169321163Y-100707000D01*
X169551604Y-100707000D01*
X169217466Y-101041138D01*
X168999000Y-101568561D01*
X168999000Y-102139439D01*
X169217466Y-102666862D01*
X169621138Y-103070534D01*
X170148561Y-103289000D01*
X170719439Y-103289000D01*
X171246862Y-103070534D01*
X171650534Y-102666862D01*
X171842655Y-102203039D01*
X179202096Y-102203039D01*
X179362959Y-102591423D01*
X179738866Y-103006389D01*
X180244959Y-103245914D01*
X180467000Y-103124629D01*
X180467000Y-101981000D01*
X180721000Y-101981000D01*
X180721000Y-103124629D01*
X180943041Y-103245914D01*
X181449134Y-103006389D01*
X181825041Y-102591423D01*
X181985904Y-102203039D01*
X181863915Y-101981000D01*
X180721000Y-101981000D01*
X180467000Y-101981000D01*
X179324085Y-101981000D01*
X179202096Y-102203039D01*
X171842655Y-102203039D01*
X171869000Y-102139439D01*
X171869000Y-101568561D01*
X171650534Y-101041138D01*
X171316396Y-100707000D01*
X179733984Y-100707000D01*
X179362959Y-101116577D01*
X179202096Y-101504961D01*
X179324085Y-101727000D01*
X180467000Y-101727000D01*
X180467000Y-101707000D01*
X180721000Y-101707000D01*
X180721000Y-101727000D01*
X181863915Y-101727000D01*
X181985904Y-101504961D01*
X181825041Y-101116577D01*
X181454016Y-100707000D01*
X187822835Y-100707000D01*
X188667593Y-101551759D01*
X188667593Y-101978657D01*
X188880730Y-102493217D01*
X189274556Y-102887043D01*
X189789116Y-103100180D01*
X190346070Y-103100180D01*
X190860630Y-102887043D01*
X191254456Y-102493217D01*
X191467593Y-101978657D01*
X191467593Y-101938354D01*
X191716161Y-102186922D01*
X192230721Y-102400059D01*
X192787675Y-102400059D01*
X193302235Y-102186922D01*
X193696061Y-101793096D01*
X193909198Y-101278536D01*
X193909198Y-101238237D01*
X194157765Y-101486804D01*
X194672325Y-101699941D01*
X195229279Y-101699941D01*
X195743839Y-101486804D01*
X196137665Y-101092978D01*
X196273340Y-100765428D01*
X196891506Y-100765428D01*
X197025475Y-100979281D01*
X197581303Y-101014695D01*
X198108373Y-100834707D01*
X198434586Y-100575225D01*
X198434873Y-100322874D01*
X197441913Y-99772468D01*
X196891506Y-100765428D01*
X196273340Y-100765428D01*
X196350802Y-100578418D01*
X196350802Y-100558774D01*
X196417002Y-100641999D01*
X196669353Y-100642286D01*
X197219759Y-99649326D01*
X197041137Y-99550314D01*
X197565055Y-99550314D01*
X198558015Y-100100721D01*
X198771868Y-99966752D01*
X198807282Y-99410924D01*
X198627294Y-98883854D01*
X198367812Y-98557641D01*
X198115461Y-98557354D01*
X197565055Y-99550314D01*
X197041137Y-99550314D01*
X196226799Y-99098919D01*
X196012946Y-99232888D01*
X196004003Y-99373242D01*
X195743839Y-99113078D01*
X195229279Y-98899941D01*
X194672325Y-98899941D01*
X194157765Y-99113078D01*
X193763939Y-99506904D01*
X193550802Y-100021464D01*
X193550802Y-100061763D01*
X193302235Y-99813196D01*
X192787675Y-99600059D01*
X192230721Y-99600059D01*
X191716161Y-99813196D01*
X191322335Y-100207022D01*
X191109198Y-100721582D01*
X191109198Y-100761885D01*
X190952593Y-100605280D01*
X190952593Y-99350985D01*
X191426812Y-98876766D01*
X196349941Y-98876766D01*
X197342901Y-99427172D01*
X197893308Y-98434212D01*
X197759339Y-98220359D01*
X197203511Y-98184945D01*
X196676441Y-98364933D01*
X196350228Y-98624415D01*
X196349941Y-98876766D01*
X191426812Y-98876766D01*
X194345040Y-95958538D01*
X194417744Y-95973000D01*
X194710256Y-95973000D01*
X195143418Y-95886839D01*
X195634625Y-95558625D01*
X195962839Y-95067418D01*
X196078092Y-94488000D01*
X195962839Y-93908582D01*
X195634625Y-93417375D01*
X195616381Y-93405184D01*
X195661765Y-93396157D01*
X195871809Y-93255809D01*
X196012157Y-93045765D01*
X196061440Y-92798000D01*
X196061440Y-91098000D01*
X196012157Y-90850235D01*
X195871809Y-90640191D01*
X195661765Y-90499843D01*
X195414000Y-90450560D01*
X193714000Y-90450560D01*
X193466235Y-90499843D01*
X193256191Y-90640191D01*
X193115843Y-90850235D01*
X193106816Y-90895619D01*
X193094625Y-90877375D01*
X192603418Y-90549161D01*
X192170256Y-90463000D01*
X191877744Y-90463000D01*
X191444582Y-90549161D01*
X190953375Y-90877375D01*
X190754000Y-91175761D01*
X190554625Y-90877375D01*
X190063418Y-90549161D01*
X189630256Y-90463000D01*
X189337744Y-90463000D01*
X188904582Y-90549161D01*
X188413375Y-90877375D01*
X188214000Y-91175761D01*
X188014625Y-90877375D01*
X187523418Y-90549161D01*
X187090256Y-90463000D01*
X186797744Y-90463000D01*
X186545042Y-90513265D01*
X186580530Y-90460154D01*
X187508156Y-89532529D01*
X187582049Y-89483155D01*
X187683151Y-89331847D01*
X187767915Y-89204988D01*
X187771145Y-89207146D01*
X188102217Y-89273000D01*
X188325783Y-89273000D01*
X188656855Y-89207146D01*
X189032289Y-88956289D01*
X189283146Y-88580855D01*
X189371235Y-88138000D01*
X189364323Y-88103253D01*
X190785576Y-86682001D01*
X191229838Y-86682001D01*
X191316999Y-86699338D01*
X191404160Y-86682001D01*
X191404164Y-86682001D01*
X191662309Y-86630653D01*
X191955048Y-86435050D01*
X192004424Y-86361154D01*
X192383578Y-85982000D01*
X192810477Y-85982000D01*
X193325037Y-85768863D01*
X193718863Y-85375037D01*
X193932000Y-84860477D01*
X193932000Y-84303523D01*
X193718863Y-83788963D01*
X193325037Y-83395137D01*
X192810477Y-83182000D01*
X192253523Y-83182000D01*
X191738963Y-83395137D01*
X191345137Y-83788963D01*
X191262000Y-83989674D01*
X191178863Y-83788963D01*
X190785037Y-83395137D01*
X190270477Y-83182000D01*
X189713523Y-83182000D01*
X189198963Y-83395137D01*
X188805137Y-83788963D01*
X188722000Y-83989674D01*
X188638863Y-83788963D01*
X188245037Y-83395137D01*
X187730477Y-83182000D01*
X187173523Y-83182000D01*
X186658963Y-83395137D01*
X186265137Y-83788963D01*
X186188565Y-83973824D01*
X186136883Y-83849051D01*
X185894387Y-83779218D01*
X185091605Y-84582000D01*
X185894387Y-85384782D01*
X186136883Y-85314949D01*
X186184730Y-85180917D01*
X186265137Y-85375037D01*
X186658963Y-85768863D01*
X187173523Y-85982000D01*
X187730477Y-85982000D01*
X188245037Y-85768863D01*
X188638863Y-85375037D01*
X188722000Y-85174326D01*
X188805137Y-85375037D01*
X189197260Y-85767160D01*
X188492449Y-86471970D01*
X188316415Y-86354347D01*
X188058270Y-86302999D01*
X188058266Y-86302999D01*
X187971105Y-86285662D01*
X187883944Y-86302999D01*
X175789160Y-86302999D01*
X175702000Y-86285662D01*
X175614840Y-86302999D01*
X175614836Y-86302999D01*
X175356691Y-86354347D01*
X175248881Y-86426384D01*
X175137846Y-86500575D01*
X175137845Y-86500576D01*
X175063952Y-86549950D01*
X175014578Y-86623843D01*
X174479847Y-87158575D01*
X174479844Y-87158577D01*
X174427421Y-87211000D01*
X173958561Y-87211000D01*
X173431138Y-87429466D01*
X173027466Y-87833138D01*
X172809000Y-88360561D01*
X172809000Y-88931439D01*
X172841956Y-89011001D01*
X165700579Y-89011001D01*
X165571425Y-88881847D01*
X165571423Y-88881844D01*
X165512017Y-88822438D01*
X165547113Y-88646000D01*
X165435740Y-88086091D01*
X165118577Y-87611423D01*
X164643909Y-87294260D01*
X164225333Y-87211000D01*
X163942667Y-87211000D01*
X163524091Y-87294260D01*
X163049423Y-87611423D01*
X162732260Y-88086091D01*
X162693021Y-88283357D01*
X162506534Y-87833138D01*
X162102862Y-87429466D01*
X161575439Y-87211000D01*
X161004561Y-87211000D01*
X160477138Y-87429466D01*
X160073466Y-87833138D01*
X159855000Y-88360561D01*
X159855000Y-88931439D01*
X160073466Y-89458862D01*
X160477138Y-89862534D01*
X161004561Y-90081000D01*
X161575439Y-90081000D01*
X162102862Y-89862534D01*
X162506534Y-89458862D01*
X162693021Y-89008643D01*
X162732260Y-89205909D01*
X163049423Y-89680577D01*
X163524091Y-89997740D01*
X163942667Y-90081000D01*
X164225333Y-90081000D01*
X164260438Y-90074017D01*
X164319844Y-90133423D01*
X164319847Y-90133425D01*
X164646576Y-90460154D01*
X164695952Y-90534050D01*
X164988691Y-90729653D01*
X165246836Y-90781001D01*
X165246840Y-90781001D01*
X165334001Y-90798338D01*
X165421162Y-90781001D01*
X165697609Y-90781001D01*
X165553375Y-90877375D01*
X165354000Y-91175761D01*
X165154625Y-90877375D01*
X164663418Y-90549161D01*
X164230256Y-90463000D01*
X163937744Y-90463000D01*
X163504582Y-90549161D01*
X163013375Y-90877375D01*
X162814000Y-91175761D01*
X162614625Y-90877375D01*
X162123418Y-90549161D01*
X161690256Y-90463000D01*
X161397744Y-90463000D01*
X160964582Y-90549161D01*
X160473375Y-90877375D01*
X160274000Y-91175761D01*
X160074625Y-90877375D01*
X159583418Y-90549161D01*
X159150256Y-90463000D01*
X158857744Y-90463000D01*
X158424582Y-90549161D01*
X157933375Y-90877375D01*
X157720157Y-91196478D01*
X157659183Y-91066642D01*
X157230924Y-90676355D01*
X156820890Y-90506524D01*
X156591000Y-90627845D01*
X156591000Y-91821000D01*
X156611000Y-91821000D01*
X156611000Y-92075000D01*
X156591000Y-92075000D01*
X156591000Y-92095000D01*
X156337000Y-92095000D01*
X156337000Y-92075000D01*
X156317000Y-92075000D01*
X156317000Y-91821000D01*
X156337000Y-91821000D01*
X156337000Y-90627845D01*
X156107110Y-90506524D01*
X155697076Y-90676355D01*
X155268817Y-91066642D01*
X155207843Y-91196478D01*
X154994625Y-90877375D01*
X154503418Y-90549161D01*
X154070256Y-90463000D01*
X153777744Y-90463000D01*
X153344582Y-90549161D01*
X152853375Y-90877375D01*
X152654000Y-91175761D01*
X152454625Y-90877375D01*
X151963418Y-90549161D01*
X151530256Y-90463000D01*
X151237744Y-90463000D01*
X150804582Y-90549161D01*
X150313375Y-90877375D01*
X150114000Y-91175761D01*
X149914625Y-90877375D01*
X149423418Y-90549161D01*
X148990256Y-90463000D01*
X148697744Y-90463000D01*
X148264582Y-90549161D01*
X147773375Y-90877375D01*
X147560157Y-91196478D01*
X147499183Y-91066642D01*
X147070924Y-90676355D01*
X146660890Y-90506524D01*
X146431000Y-90627845D01*
X146431000Y-91821000D01*
X146451000Y-91821000D01*
X146451000Y-92075000D01*
X146431000Y-92075000D01*
X146431000Y-92095000D01*
X146177000Y-92095000D01*
X146177000Y-92075000D01*
X144983181Y-92075000D01*
X144862514Y-92304892D01*
X145108817Y-92829358D01*
X145533786Y-93216647D01*
X145233375Y-93417375D01*
X144905161Y-93908582D01*
X144789908Y-94488000D01*
X144905161Y-95067418D01*
X145233375Y-95558625D01*
X145724582Y-95886839D01*
X146157744Y-95973000D01*
X146450256Y-95973000D01*
X146883418Y-95886839D01*
X147374625Y-95558625D01*
X147574000Y-95260239D01*
X147773375Y-95558625D01*
X148264582Y-95886839D01*
X148697744Y-95973000D01*
X148990256Y-95973000D01*
X149423418Y-95886839D01*
X149914625Y-95558625D01*
X150114000Y-95260239D01*
X150313375Y-95558625D01*
X150804582Y-95886839D01*
X151237744Y-95973000D01*
X151530256Y-95973000D01*
X151963418Y-95886839D01*
X152454625Y-95558625D01*
X152667843Y-95239522D01*
X152728817Y-95369358D01*
X153157076Y-95759645D01*
X153567110Y-95929476D01*
X153797000Y-95808155D01*
X153797000Y-94615000D01*
X153777000Y-94615000D01*
X153777000Y-94361000D01*
X153797000Y-94361000D01*
X153797000Y-94341000D01*
X154051000Y-94341000D01*
X154051000Y-94361000D01*
X154071000Y-94361000D01*
X154071000Y-94615000D01*
X154051000Y-94615000D01*
X154051000Y-95808155D01*
X154280890Y-95929476D01*
X154690924Y-95759645D01*
X155119183Y-95369358D01*
X155180157Y-95239522D01*
X155393375Y-95558625D01*
X155884582Y-95886839D01*
X156317744Y-95973000D01*
X156610256Y-95973000D01*
X157043418Y-95886839D01*
X157534625Y-95558625D01*
X157734000Y-95260239D01*
X157933375Y-95558625D01*
X158424582Y-95886839D01*
X158857744Y-95973000D01*
X159150256Y-95973000D01*
X159583418Y-95886839D01*
X160074625Y-95558625D01*
X160274000Y-95260239D01*
X160473375Y-95558625D01*
X160964582Y-95886839D01*
X161397744Y-95973000D01*
X161690256Y-95973000D01*
X162123418Y-95886839D01*
X162614625Y-95558625D01*
X162814000Y-95260239D01*
X163013375Y-95558625D01*
X163504582Y-95886839D01*
X163937744Y-95973000D01*
X164230256Y-95973000D01*
X164663418Y-95886839D01*
X165154625Y-95558625D01*
X165354000Y-95260239D01*
X165553375Y-95558625D01*
X166044582Y-95886839D01*
X166477744Y-95973000D01*
X166770256Y-95973000D01*
X167203418Y-95886839D01*
X167694625Y-95558625D01*
X167894000Y-95260239D01*
X168093375Y-95558625D01*
X168584582Y-95886839D01*
X169017744Y-95973000D01*
X169310256Y-95973000D01*
X169743418Y-95886839D01*
X170234625Y-95558625D01*
X170434000Y-95260239D01*
X170633375Y-95558625D01*
X171124582Y-95886839D01*
X171557744Y-95973000D01*
X171850256Y-95973000D01*
X172283418Y-95886839D01*
X172774625Y-95558625D01*
X172974000Y-95260239D01*
X173173375Y-95558625D01*
X173664582Y-95886839D01*
X174097744Y-95973000D01*
X174390256Y-95973000D01*
X174823418Y-95886839D01*
X175314625Y-95558625D01*
X175514000Y-95260239D01*
X175713375Y-95558625D01*
X176204582Y-95886839D01*
X176637744Y-95973000D01*
X176930256Y-95973000D01*
X177363418Y-95886839D01*
X177854625Y-95558625D01*
X178054000Y-95260239D01*
X178253375Y-95558625D01*
X178744582Y-95886839D01*
X179177744Y-95973000D01*
X179470256Y-95973000D01*
X179903418Y-95886839D01*
X180394625Y-95558625D01*
X180594000Y-95260239D01*
X180793375Y-95558625D01*
X181284582Y-95886839D01*
X181717744Y-95973000D01*
X182010256Y-95973000D01*
X182443418Y-95886839D01*
X182934625Y-95558625D01*
X183134000Y-95260239D01*
X183333375Y-95558625D01*
X183824582Y-95886839D01*
X184257744Y-95973000D01*
X184550256Y-95973000D01*
X184983418Y-95886839D01*
X185474625Y-95558625D01*
X185674000Y-95260239D01*
X185873375Y-95558625D01*
X186364582Y-95886839D01*
X186797744Y-95973000D01*
X187090256Y-95973000D01*
X187523418Y-95886839D01*
X188014625Y-95558625D01*
X188227843Y-95239522D01*
X188288817Y-95369358D01*
X188717076Y-95759645D01*
X189127110Y-95929476D01*
X189357000Y-95808155D01*
X189357000Y-94615000D01*
X189337000Y-94615000D01*
X189337000Y-94361000D01*
X189357000Y-94361000D01*
X189357000Y-94341000D01*
X189611000Y-94341000D01*
X189611000Y-94361000D01*
X189631000Y-94361000D01*
X189631000Y-94615000D01*
X189611000Y-94615000D01*
X189611000Y-95808155D01*
X189840890Y-95929476D01*
X190250924Y-95759645D01*
X190679183Y-95369358D01*
X190740157Y-95239522D01*
X190953375Y-95558625D01*
X191444582Y-95886839D01*
X191835770Y-95964651D01*
X189503440Y-98296982D01*
X189429544Y-98346358D01*
X189233941Y-98639098D01*
X189182593Y-98897243D01*
X189182593Y-98897246D01*
X189165256Y-98984407D01*
X189182593Y-99071568D01*
X189182593Y-99563602D01*
X188876838Y-99257847D01*
X188827462Y-99183951D01*
X188534723Y-98988348D01*
X188276578Y-98937000D01*
X188276574Y-98937000D01*
X188189413Y-98919663D01*
X188102252Y-98937000D01*
X181865806Y-98937000D01*
X181985904Y-98647039D01*
X181863915Y-98425000D01*
X180721000Y-98425000D01*
X180721000Y-98445000D01*
X180467000Y-98445000D01*
X180467000Y-98425000D01*
X179324085Y-98425000D01*
X179202096Y-98647039D01*
X179322194Y-98937000D01*
X171722550Y-98937000D01*
X171869000Y-98583439D01*
X171869000Y-98012561D01*
X171842656Y-97948961D01*
X179202096Y-97948961D01*
X179324085Y-98171000D01*
X180467000Y-98171000D01*
X180467000Y-97027371D01*
X180721000Y-97027371D01*
X180721000Y-98171000D01*
X181863915Y-98171000D01*
X181985904Y-97948961D01*
X181825041Y-97560577D01*
X181449134Y-97145611D01*
X180943041Y-96906086D01*
X180721000Y-97027371D01*
X180467000Y-97027371D01*
X180244959Y-96906086D01*
X179738866Y-97145611D01*
X179362959Y-97560577D01*
X179202096Y-97948961D01*
X171842656Y-97948961D01*
X171650534Y-97485138D01*
X171246862Y-97081466D01*
X170719439Y-96863000D01*
X170148561Y-96863000D01*
X169621138Y-97081466D01*
X169217466Y-97485138D01*
X168999000Y-98012561D01*
X168999000Y-98335419D01*
X168143427Y-97479847D01*
X168094051Y-97405951D01*
X167801312Y-97210348D01*
X167543167Y-97159000D01*
X167543163Y-97159000D01*
X167456002Y-97141663D01*
X167368841Y-97159000D01*
X146710573Y-97159000D01*
X146623413Y-97141663D01*
X146536253Y-97159000D01*
X146536249Y-97159000D01*
X146278104Y-97210348D01*
X146278102Y-97210349D01*
X146278103Y-97210349D01*
X146059259Y-97356576D01*
X146059258Y-97356577D01*
X145985365Y-97405951D01*
X145935991Y-97479844D01*
X145216015Y-98199821D01*
X144789116Y-98199821D01*
X144274556Y-98412958D01*
X144220000Y-98467514D01*
X144220000Y-91591108D01*
X144862514Y-91591108D01*
X144983181Y-91821000D01*
X146177000Y-91821000D01*
X146177000Y-90627845D01*
X145947110Y-90506524D01*
X145537076Y-90676355D01*
X145108817Y-91066642D01*
X144862514Y-91591108D01*
X144220000Y-91591108D01*
X144220000Y-88423750D01*
X145577000Y-88423750D01*
X145577000Y-88864310D01*
X145673673Y-89097699D01*
X145852302Y-89276327D01*
X146085691Y-89373000D01*
X146526250Y-89373000D01*
X146685000Y-89214250D01*
X146685000Y-88265000D01*
X145735750Y-88265000D01*
X145577000Y-88423750D01*
X144220000Y-88423750D01*
X144220000Y-87411690D01*
X145577000Y-87411690D01*
X145577000Y-87852250D01*
X145735750Y-88011000D01*
X146685000Y-88011000D01*
X146685000Y-87061750D01*
X146939000Y-87061750D01*
X146939000Y-88011000D01*
X146959000Y-88011000D01*
X146959000Y-88265000D01*
X146939000Y-88265000D01*
X146939000Y-89214250D01*
X147097750Y-89373000D01*
X147538309Y-89373000D01*
X147771698Y-89276327D01*
X147789640Y-89258385D01*
X148066343Y-89373000D01*
X148557657Y-89373000D01*
X149011571Y-89184982D01*
X149358982Y-88837571D01*
X149438333Y-88646000D01*
X149666887Y-88646000D01*
X149778260Y-89205909D01*
X150095423Y-89680577D01*
X150570091Y-89997740D01*
X150988667Y-90081000D01*
X151271333Y-90081000D01*
X151689909Y-89997740D01*
X152164577Y-89680577D01*
X152481740Y-89205909D01*
X152593113Y-88646000D01*
X152481740Y-88086091D01*
X152164577Y-87611423D01*
X151689909Y-87294260D01*
X151271333Y-87211000D01*
X150988667Y-87211000D01*
X150570091Y-87294260D01*
X150095423Y-87611423D01*
X149778260Y-88086091D01*
X149666887Y-88646000D01*
X149438333Y-88646000D01*
X149547000Y-88383657D01*
X149547000Y-87892343D01*
X149358982Y-87438429D01*
X149011571Y-87091018D01*
X148557657Y-86903000D01*
X148066343Y-86903000D01*
X147789640Y-87017615D01*
X147771698Y-86999673D01*
X147538309Y-86903000D01*
X147097750Y-86903000D01*
X146939000Y-87061750D01*
X146685000Y-87061750D01*
X146526250Y-86903000D01*
X146085691Y-86903000D01*
X145852302Y-86999673D01*
X145673673Y-87178301D01*
X145577000Y-87411690D01*
X144220000Y-87411690D01*
X144220000Y-85693039D01*
X149738096Y-85693039D01*
X149898959Y-86081423D01*
X150274866Y-86496389D01*
X150780959Y-86735914D01*
X151003000Y-86614629D01*
X151003000Y-85471000D01*
X151257000Y-85471000D01*
X151257000Y-86614629D01*
X151479041Y-86735914D01*
X151985134Y-86496389D01*
X152361041Y-86081423D01*
X152521904Y-85693039D01*
X152399915Y-85471000D01*
X151257000Y-85471000D01*
X151003000Y-85471000D01*
X149860085Y-85471000D01*
X149738096Y-85693039D01*
X144220000Y-85693039D01*
X144220000Y-84994961D01*
X149738096Y-84994961D01*
X149860085Y-85217000D01*
X151003000Y-85217000D01*
X151003000Y-84073371D01*
X151257000Y-84073371D01*
X151257000Y-85217000D01*
X152399915Y-85217000D01*
X152486961Y-85058561D01*
X159855000Y-85058561D01*
X159855000Y-85629439D01*
X160073466Y-86156862D01*
X160477138Y-86560534D01*
X161004561Y-86779000D01*
X161575439Y-86779000D01*
X162102862Y-86560534D01*
X162438642Y-86224754D01*
X162541423Y-86378577D01*
X163016091Y-86695740D01*
X163434667Y-86779000D01*
X163717333Y-86779000D01*
X164135909Y-86695740D01*
X164610577Y-86378577D01*
X164927740Y-85903909D01*
X165039113Y-85344000D01*
X164982336Y-85058561D01*
X172301000Y-85058561D01*
X172301000Y-85629439D01*
X172519466Y-86156862D01*
X172923138Y-86560534D01*
X173450561Y-86779000D01*
X174021439Y-86779000D01*
X174548862Y-86560534D01*
X174952534Y-86156862D01*
X175171000Y-85629439D01*
X175171000Y-85564387D01*
X184109218Y-85564387D01*
X184179051Y-85806883D01*
X184703586Y-85994132D01*
X185259850Y-85966396D01*
X185644949Y-85806883D01*
X185714782Y-85564387D01*
X184912000Y-84761605D01*
X184109218Y-85564387D01*
X175171000Y-85564387D01*
X175171000Y-85058561D01*
X174952534Y-84531138D01*
X174794982Y-84373586D01*
X183499868Y-84373586D01*
X183527604Y-84929850D01*
X183687117Y-85314949D01*
X183929613Y-85384782D01*
X184732395Y-84582000D01*
X183929613Y-83779218D01*
X183687117Y-83849051D01*
X183499868Y-84373586D01*
X174794982Y-84373586D01*
X174548862Y-84127466D01*
X174021439Y-83909000D01*
X173450561Y-83909000D01*
X172923138Y-84127466D01*
X172519466Y-84531138D01*
X172301000Y-85058561D01*
X164982336Y-85058561D01*
X164927740Y-84784091D01*
X164610577Y-84309423D01*
X164135909Y-83992260D01*
X163717333Y-83909000D01*
X163434667Y-83909000D01*
X163016091Y-83992260D01*
X162541423Y-84309423D01*
X162438642Y-84463246D01*
X162102862Y-84127466D01*
X161575439Y-83909000D01*
X161004561Y-83909000D01*
X160477138Y-84127466D01*
X160073466Y-84531138D01*
X159855000Y-85058561D01*
X152486961Y-85058561D01*
X152521904Y-84994961D01*
X152361041Y-84606577D01*
X151985134Y-84191611D01*
X151479041Y-83952086D01*
X151257000Y-84073371D01*
X151003000Y-84073371D01*
X150780959Y-83952086D01*
X150274866Y-84191611D01*
X149898959Y-84606577D01*
X149738096Y-84994961D01*
X144220000Y-84994961D01*
X144220000Y-83599613D01*
X184109218Y-83599613D01*
X184912000Y-84402395D01*
X185714782Y-83599613D01*
X185644949Y-83357117D01*
X185120414Y-83169868D01*
X184564150Y-83197604D01*
X184179051Y-83357117D01*
X184109218Y-83599613D01*
X144220000Y-83599613D01*
X144220000Y-83363273D01*
X144494561Y-83477000D01*
X145065439Y-83477000D01*
X145592862Y-83258534D01*
X145996534Y-82854862D01*
X146215000Y-82327439D01*
X146215000Y-81756561D01*
X145996534Y-81229138D01*
X145627396Y-80860000D01*
X154126057Y-80860000D01*
X153905423Y-81007423D01*
X153905423Y-81007423D01*
G37*
X153905423Y-81007423D02*
X153588260Y-81482091D01*
X153476887Y-82042000D01*
X153588260Y-82601909D01*
X153905423Y-83076577D01*
X154380091Y-83393740D01*
X154798667Y-83477000D01*
X155081333Y-83477000D01*
X155499909Y-83393740D01*
X155974577Y-83076577D01*
X156291740Y-82601909D01*
X156403113Y-82042000D01*
X156291740Y-81482091D01*
X155974577Y-81007423D01*
X155753943Y-80860000D01*
X157140604Y-80860000D01*
X156771466Y-81229138D01*
X156553000Y-81756561D01*
X156553000Y-82327439D01*
X156771466Y-82854862D01*
X157175138Y-83258534D01*
X157702561Y-83477000D01*
X158273439Y-83477000D01*
X158800862Y-83258534D01*
X159204534Y-82854862D01*
X159396655Y-82391039D01*
X166756096Y-82391039D01*
X166916959Y-82779423D01*
X167292866Y-83194389D01*
X167798959Y-83433914D01*
X168021000Y-83312629D01*
X168021000Y-82169000D01*
X168275000Y-82169000D01*
X168275000Y-83312629D01*
X168497041Y-83433914D01*
X169003134Y-83194389D01*
X169379041Y-82779423D01*
X169539904Y-82391039D01*
X169417915Y-82169000D01*
X168275000Y-82169000D01*
X168021000Y-82169000D01*
X166878085Y-82169000D01*
X166756096Y-82391039D01*
X159396655Y-82391039D01*
X159423000Y-82327439D01*
X159423000Y-81756561D01*
X159204534Y-81229138D01*
X158835396Y-80860000D01*
X167355431Y-80860000D01*
X167292866Y-80889611D01*
X166916959Y-81304577D01*
X166756096Y-81692961D01*
X166878085Y-81915000D01*
X168021000Y-81915000D01*
X168021000Y-81895000D01*
X168275000Y-81895000D01*
X168275000Y-81915000D01*
X169417915Y-81915000D01*
X169539904Y-81692961D01*
X169379041Y-81304577D01*
X169003134Y-80889611D01*
X168940569Y-80860000D01*
X199290000Y-80860000D01*
X199290001Y-103430126D01*
X144220000Y-103439875D01*
X144220000Y-102423233D01*
X151349941Y-102423233D01*
X151350228Y-102675584D01*
X151802830Y-103000161D01*
X152345190Y-103126827D01*
X152759339Y-103079640D01*
X152893308Y-102865787D01*
X152342901Y-101872827D01*
X151349941Y-102423233D01*
X144220000Y-102423233D01*
X144220000Y-100732128D01*
X144274556Y-100786684D01*
X144789116Y-100999821D01*
X145346070Y-100999821D01*
X145860630Y-100786684D01*
X146109198Y-100538116D01*
X146109198Y-100578418D01*
X146322335Y-101092978D01*
X146716161Y-101486804D01*
X147230721Y-101699941D01*
X147787675Y-101699941D01*
X148302235Y-101486804D01*
X148550802Y-101238237D01*
X148550802Y-101278536D01*
X148763939Y-101793096D01*
X149157765Y-102186922D01*
X149672325Y-102400059D01*
X150229279Y-102400059D01*
X150743839Y-102186922D01*
X150997676Y-101933085D01*
X151012946Y-102067111D01*
X151226799Y-102201080D01*
X152041136Y-101749685D01*
X152565055Y-101749685D01*
X153115461Y-102742645D01*
X153367812Y-102742358D01*
X153692389Y-102289756D01*
X153819055Y-101747396D01*
X153771868Y-101333247D01*
X153558015Y-101199278D01*
X152565055Y-101749685D01*
X152041136Y-101749685D01*
X152219759Y-101650673D01*
X151669353Y-100657713D01*
X151417002Y-100658000D01*
X151350802Y-100750312D01*
X151350802Y-100721582D01*
X151273340Y-100534571D01*
X151891506Y-100534571D01*
X152441913Y-101527531D01*
X153434873Y-100977125D01*
X153434586Y-100724774D01*
X152981984Y-100400197D01*
X152439624Y-100273531D01*
X152025475Y-100320718D01*
X151891506Y-100534571D01*
X151273340Y-100534571D01*
X151137665Y-100207022D01*
X150743839Y-99813196D01*
X150229279Y-99600059D01*
X149672325Y-99600059D01*
X149157765Y-99813196D01*
X148909198Y-100061763D01*
X148909198Y-100021464D01*
X148696061Y-99506904D01*
X148302235Y-99113078D01*
X147857830Y-98929000D01*
X155948183Y-98929000D01*
X155670690Y-99206493D01*
X155437000Y-99770670D01*
X155437000Y-100381330D01*
X155670690Y-100945507D01*
X156102493Y-101377310D01*
X156666670Y-101611000D01*
X157277330Y-101611000D01*
X157841507Y-101377310D01*
X158010725Y-101208092D01*
X158013843Y-101223765D01*
X158154191Y-101433809D01*
X158364235Y-101574157D01*
X158612000Y-101623440D01*
X160412000Y-101623440D01*
X160659765Y-101574157D01*
X160869809Y-101433809D01*
X161010157Y-101223765D01*
X161059440Y-100976000D01*
X161059440Y-99176000D01*
X161010309Y-98929000D01*
X162806183Y-98929000D01*
X162782690Y-98952493D01*
X162549000Y-99516670D01*
X162549000Y-100127330D01*
X162782690Y-100691507D01*
X163214493Y-101123310D01*
X163778670Y-101357000D01*
X164389330Y-101357000D01*
X164953507Y-101123310D01*
X165122725Y-100954092D01*
X165125843Y-100969765D01*
X165266191Y-101179809D01*
X165476235Y-101320157D01*
X165724000Y-101369440D01*
X167524000Y-101369440D01*
X167771765Y-101320157D01*
X167981809Y-101179809D01*
X168122157Y-100969765D01*
X168171440Y-100722000D01*
X168171440Y-100011017D01*
X168546579Y-100386156D01*
X168595953Y-100460049D01*
X168669846Y-100509423D01*
X168669847Y-100509424D01*
X168707482Y-100534571D01*
X168888692Y-100655652D01*
X169146837Y-100707000D01*
X169146841Y-100707000D01*
X169234002Y-100724337D01*
X169321163Y-100707000D01*
X169551604Y-100707000D01*
X169217466Y-101041138D01*
X168999000Y-101568561D01*
X168999000Y-102139439D01*
X169217466Y-102666862D01*
X169621138Y-103070534D01*
X170148561Y-103289000D01*
X170719439Y-103289000D01*
X171246862Y-103070534D01*
X171650534Y-102666862D01*
X171842655Y-102203039D01*
X179202096Y-102203039D01*
X179362959Y-102591423D01*
X179738866Y-103006389D01*
X180244959Y-103245914D01*
X180467000Y-103124629D01*
X180467000Y-101981000D01*
X180721000Y-101981000D01*
X180721000Y-103124629D01*
X180943041Y-103245914D01*
X181449134Y-103006389D01*
X181825041Y-102591423D01*
X181985904Y-102203039D01*
X181863915Y-101981000D01*
X180721000Y-101981000D01*
X180467000Y-101981000D01*
X179324085Y-101981000D01*
X179202096Y-102203039D01*
X171842655Y-102203039D01*
X171869000Y-102139439D01*
X171869000Y-101568561D01*
X171650534Y-101041138D01*
X171316396Y-100707000D01*
X179733984Y-100707000D01*
X179362959Y-101116577D01*
X179202096Y-101504961D01*
X179324085Y-101727000D01*
X180467000Y-101727000D01*
X180467000Y-101707000D01*
X180721000Y-101707000D01*
X180721000Y-101727000D01*
X181863915Y-101727000D01*
X181985904Y-101504961D01*
X181825041Y-101116577D01*
X181454016Y-100707000D01*
X187822835Y-100707000D01*
X188667593Y-101551759D01*
X188667593Y-101978657D01*
X188880730Y-102493217D01*
X189274556Y-102887043D01*
X189789116Y-103100180D01*
X190346070Y-103100180D01*
X190860630Y-102887043D01*
X191254456Y-102493217D01*
X191467593Y-101978657D01*
X191467593Y-101938354D01*
X191716161Y-102186922D01*
X192230721Y-102400059D01*
X192787675Y-102400059D01*
X193302235Y-102186922D01*
X193696061Y-101793096D01*
X193909198Y-101278536D01*
X193909198Y-101238237D01*
X194157765Y-101486804D01*
X194672325Y-101699941D01*
X195229279Y-101699941D01*
X195743839Y-101486804D01*
X196137665Y-101092978D01*
X196273340Y-100765428D01*
X196891506Y-100765428D01*
X197025475Y-100979281D01*
X197581303Y-101014695D01*
X198108373Y-100834707D01*
X198434586Y-100575225D01*
X198434873Y-100322874D01*
X197441913Y-99772468D01*
X196891506Y-100765428D01*
X196273340Y-100765428D01*
X196350802Y-100578418D01*
X196350802Y-100558774D01*
X196417002Y-100641999D01*
X196669353Y-100642286D01*
X197219759Y-99649326D01*
X197041137Y-99550314D01*
X197565055Y-99550314D01*
X198558015Y-100100721D01*
X198771868Y-99966752D01*
X198807282Y-99410924D01*
X198627294Y-98883854D01*
X198367812Y-98557641D01*
X198115461Y-98557354D01*
X197565055Y-99550314D01*
X197041137Y-99550314D01*
X196226799Y-99098919D01*
X196012946Y-99232888D01*
X196004003Y-99373242D01*
X195743839Y-99113078D01*
X195229279Y-98899941D01*
X194672325Y-98899941D01*
X194157765Y-99113078D01*
X193763939Y-99506904D01*
X193550802Y-100021464D01*
X193550802Y-100061763D01*
X193302235Y-99813196D01*
X192787675Y-99600059D01*
X192230721Y-99600059D01*
X191716161Y-99813196D01*
X191322335Y-100207022D01*
X191109198Y-100721582D01*
X191109198Y-100761885D01*
X190952593Y-100605280D01*
X190952593Y-99350985D01*
X191426812Y-98876766D01*
X196349941Y-98876766D01*
X197342901Y-99427172D01*
X197893308Y-98434212D01*
X197759339Y-98220359D01*
X197203511Y-98184945D01*
X196676441Y-98364933D01*
X196350228Y-98624415D01*
X196349941Y-98876766D01*
X191426812Y-98876766D01*
X194345040Y-95958538D01*
X194417744Y-95973000D01*
X194710256Y-95973000D01*
X195143418Y-95886839D01*
X195634625Y-95558625D01*
X195962839Y-95067418D01*
X196078092Y-94488000D01*
X195962839Y-93908582D01*
X195634625Y-93417375D01*
X195616381Y-93405184D01*
X195661765Y-93396157D01*
X195871809Y-93255809D01*
X196012157Y-93045765D01*
X196061440Y-92798000D01*
X196061440Y-91098000D01*
X196012157Y-90850235D01*
X195871809Y-90640191D01*
X195661765Y-90499843D01*
X195414000Y-90450560D01*
X193714000Y-90450560D01*
X193466235Y-90499843D01*
X193256191Y-90640191D01*
X193115843Y-90850235D01*
X193106816Y-90895619D01*
X193094625Y-90877375D01*
X192603418Y-90549161D01*
X192170256Y-90463000D01*
X191877744Y-90463000D01*
X191444582Y-90549161D01*
X190953375Y-90877375D01*
X190754000Y-91175761D01*
X190554625Y-90877375D01*
X190063418Y-90549161D01*
X189630256Y-90463000D01*
X189337744Y-90463000D01*
X188904582Y-90549161D01*
X188413375Y-90877375D01*
X188214000Y-91175761D01*
X188014625Y-90877375D01*
X187523418Y-90549161D01*
X187090256Y-90463000D01*
X186797744Y-90463000D01*
X186545042Y-90513265D01*
X186580530Y-90460154D01*
X187508156Y-89532529D01*
X187582049Y-89483155D01*
X187683151Y-89331847D01*
X187767915Y-89204988D01*
X187771145Y-89207146D01*
X188102217Y-89273000D01*
X188325783Y-89273000D01*
X188656855Y-89207146D01*
X189032289Y-88956289D01*
X189283146Y-88580855D01*
X189371235Y-88138000D01*
X189364323Y-88103253D01*
X190785576Y-86682001D01*
X191229838Y-86682001D01*
X191316999Y-86699338D01*
X191404160Y-86682001D01*
X191404164Y-86682001D01*
X191662309Y-86630653D01*
X191955048Y-86435050D01*
X192004424Y-86361154D01*
X192383578Y-85982000D01*
X192810477Y-85982000D01*
X193325037Y-85768863D01*
X193718863Y-85375037D01*
X193932000Y-84860477D01*
X193932000Y-84303523D01*
X193718863Y-83788963D01*
X193325037Y-83395137D01*
X192810477Y-83182000D01*
X192253523Y-83182000D01*
X191738963Y-83395137D01*
X191345137Y-83788963D01*
X191262000Y-83989674D01*
X191178863Y-83788963D01*
X190785037Y-83395137D01*
X190270477Y-83182000D01*
X189713523Y-83182000D01*
X189198963Y-83395137D01*
X188805137Y-83788963D01*
X188722000Y-83989674D01*
X188638863Y-83788963D01*
X188245037Y-83395137D01*
X187730477Y-83182000D01*
X187173523Y-83182000D01*
X186658963Y-83395137D01*
X186265137Y-83788963D01*
X186188565Y-83973824D01*
X186136883Y-83849051D01*
X185894387Y-83779218D01*
X185091605Y-84582000D01*
X185894387Y-85384782D01*
X186136883Y-85314949D01*
X186184730Y-85180917D01*
X186265137Y-85375037D01*
X186658963Y-85768863D01*
X187173523Y-85982000D01*
X187730477Y-85982000D01*
X188245037Y-85768863D01*
X188638863Y-85375037D01*
X188722000Y-85174326D01*
X188805137Y-85375037D01*
X189197260Y-85767160D01*
X188492449Y-86471970D01*
X188316415Y-86354347D01*
X188058270Y-86302999D01*
X188058266Y-86302999D01*
X187971105Y-86285662D01*
X187883944Y-86302999D01*
X175789160Y-86302999D01*
X175702000Y-86285662D01*
X175614840Y-86302999D01*
X175614836Y-86302999D01*
X175356691Y-86354347D01*
X175248881Y-86426384D01*
X175137846Y-86500575D01*
X175137845Y-86500576D01*
X175063952Y-86549950D01*
X175014578Y-86623843D01*
X174479847Y-87158575D01*
X174479844Y-87158577D01*
X174427421Y-87211000D01*
X173958561Y-87211000D01*
X173431138Y-87429466D01*
X173027466Y-87833138D01*
X172809000Y-88360561D01*
X172809000Y-88931439D01*
X172841956Y-89011001D01*
X165700579Y-89011001D01*
X165571425Y-88881847D01*
X165571423Y-88881844D01*
X165512017Y-88822438D01*
X165547113Y-88646000D01*
X165435740Y-88086091D01*
X165118577Y-87611423D01*
X164643909Y-87294260D01*
X164225333Y-87211000D01*
X163942667Y-87211000D01*
X163524091Y-87294260D01*
X163049423Y-87611423D01*
X162732260Y-88086091D01*
X162693021Y-88283357D01*
X162506534Y-87833138D01*
X162102862Y-87429466D01*
X161575439Y-87211000D01*
X161004561Y-87211000D01*
X160477138Y-87429466D01*
X160073466Y-87833138D01*
X159855000Y-88360561D01*
X159855000Y-88931439D01*
X160073466Y-89458862D01*
X160477138Y-89862534D01*
X161004561Y-90081000D01*
X161575439Y-90081000D01*
X162102862Y-89862534D01*
X162506534Y-89458862D01*
X162693021Y-89008643D01*
X162732260Y-89205909D01*
X163049423Y-89680577D01*
X163524091Y-89997740D01*
X163942667Y-90081000D01*
X164225333Y-90081000D01*
X164260438Y-90074017D01*
X164319844Y-90133423D01*
X164319847Y-90133425D01*
X164646576Y-90460154D01*
X164695952Y-90534050D01*
X164988691Y-90729653D01*
X165246836Y-90781001D01*
X165246840Y-90781001D01*
X165334001Y-90798338D01*
X165421162Y-90781001D01*
X165697609Y-90781001D01*
X165553375Y-90877375D01*
X165354000Y-91175761D01*
X165154625Y-90877375D01*
X164663418Y-90549161D01*
X164230256Y-90463000D01*
X163937744Y-90463000D01*
X163504582Y-90549161D01*
X163013375Y-90877375D01*
X162814000Y-91175761D01*
X162614625Y-90877375D01*
X162123418Y-90549161D01*
X161690256Y-90463000D01*
X161397744Y-90463000D01*
X160964582Y-90549161D01*
X160473375Y-90877375D01*
X160274000Y-91175761D01*
X160074625Y-90877375D01*
X159583418Y-90549161D01*
X159150256Y-90463000D01*
X158857744Y-90463000D01*
X158424582Y-90549161D01*
X157933375Y-90877375D01*
X157720157Y-91196478D01*
X157659183Y-91066642D01*
X157230924Y-90676355D01*
X156820890Y-90506524D01*
X156591000Y-90627845D01*
X156591000Y-91821000D01*
X156611000Y-91821000D01*
X156611000Y-92075000D01*
X156591000Y-92075000D01*
X156591000Y-92095000D01*
X156337000Y-92095000D01*
X156337000Y-92075000D01*
X156317000Y-92075000D01*
X156317000Y-91821000D01*
X156337000Y-91821000D01*
X156337000Y-90627845D01*
X156107110Y-90506524D01*
X155697076Y-90676355D01*
X155268817Y-91066642D01*
X155207843Y-91196478D01*
X154994625Y-90877375D01*
X154503418Y-90549161D01*
X154070256Y-90463000D01*
X153777744Y-90463000D01*
X153344582Y-90549161D01*
X152853375Y-90877375D01*
X152654000Y-91175761D01*
X152454625Y-90877375D01*
X151963418Y-90549161D01*
X151530256Y-90463000D01*
X151237744Y-90463000D01*
X150804582Y-90549161D01*
X150313375Y-90877375D01*
X150114000Y-91175761D01*
X149914625Y-90877375D01*
X149423418Y-90549161D01*
X148990256Y-90463000D01*
X148697744Y-90463000D01*
X148264582Y-90549161D01*
X147773375Y-90877375D01*
X147560157Y-91196478D01*
X147499183Y-91066642D01*
X147070924Y-90676355D01*
X146660890Y-90506524D01*
X146431000Y-90627845D01*
X146431000Y-91821000D01*
X146451000Y-91821000D01*
X146451000Y-92075000D01*
X146431000Y-92075000D01*
X146431000Y-92095000D01*
X146177000Y-92095000D01*
X146177000Y-92075000D01*
X144983181Y-92075000D01*
X144862514Y-92304892D01*
X145108817Y-92829358D01*
X145533786Y-93216647D01*
X145233375Y-93417375D01*
X144905161Y-93908582D01*
X144789908Y-94488000D01*
X144905161Y-95067418D01*
X145233375Y-95558625D01*
X145724582Y-95886839D01*
X146157744Y-95973000D01*
X146450256Y-95973000D01*
X146883418Y-95886839D01*
X147374625Y-95558625D01*
X147574000Y-95260239D01*
X147773375Y-95558625D01*
X148264582Y-95886839D01*
X148697744Y-95973000D01*
X148990256Y-95973000D01*
X149423418Y-95886839D01*
X149914625Y-95558625D01*
X150114000Y-95260239D01*
X150313375Y-95558625D01*
X150804582Y-95886839D01*
X151237744Y-95973000D01*
X151530256Y-95973000D01*
X151963418Y-95886839D01*
X152454625Y-95558625D01*
X152667843Y-95239522D01*
X152728817Y-95369358D01*
X153157076Y-95759645D01*
X153567110Y-95929476D01*
X153797000Y-95808155D01*
X153797000Y-94615000D01*
X153777000Y-94615000D01*
X153777000Y-94361000D01*
X153797000Y-94361000D01*
X153797000Y-94341000D01*
X154051000Y-94341000D01*
X154051000Y-94361000D01*
X154071000Y-94361000D01*
X154071000Y-94615000D01*
X154051000Y-94615000D01*
X154051000Y-95808155D01*
X154280890Y-95929476D01*
X154690924Y-95759645D01*
X155119183Y-95369358D01*
X155180157Y-95239522D01*
X155393375Y-95558625D01*
X155884582Y-95886839D01*
X156317744Y-95973000D01*
X156610256Y-95973000D01*
X157043418Y-95886839D01*
X157534625Y-95558625D01*
X157734000Y-95260239D01*
X157933375Y-95558625D01*
X158424582Y-95886839D01*
X158857744Y-95973000D01*
X159150256Y-95973000D01*
X159583418Y-95886839D01*
X160074625Y-95558625D01*
X160274000Y-95260239D01*
X160473375Y-95558625D01*
X160964582Y-95886839D01*
X161397744Y-95973000D01*
X161690256Y-95973000D01*
X162123418Y-95886839D01*
X162614625Y-95558625D01*
X162814000Y-95260239D01*
X163013375Y-95558625D01*
X163504582Y-95886839D01*
X163937744Y-95973000D01*
X164230256Y-95973000D01*
X164663418Y-95886839D01*
X165154625Y-95558625D01*
X165354000Y-95260239D01*
X165553375Y-95558625D01*
X166044582Y-95886839D01*
X166477744Y-95973000D01*
X166770256Y-95973000D01*
X167203418Y-95886839D01*
X167694625Y-95558625D01*
X167894000Y-95260239D01*
X168093375Y-95558625D01*
X168584582Y-95886839D01*
X169017744Y-95973000D01*
X169310256Y-95973000D01*
X169743418Y-95886839D01*
X170234625Y-95558625D01*
X170434000Y-95260239D01*
X170633375Y-95558625D01*
X171124582Y-95886839D01*
X171557744Y-95973000D01*
X171850256Y-95973000D01*
X172283418Y-95886839D01*
X172774625Y-95558625D01*
X172974000Y-95260239D01*
X173173375Y-95558625D01*
X173664582Y-95886839D01*
X174097744Y-95973000D01*
X174390256Y-95973000D01*
X174823418Y-95886839D01*
X175314625Y-95558625D01*
X175514000Y-95260239D01*
X175713375Y-95558625D01*
X176204582Y-95886839D01*
X176637744Y-95973000D01*
X176930256Y-95973000D01*
X177363418Y-95886839D01*
X177854625Y-95558625D01*
X178054000Y-95260239D01*
X178253375Y-95558625D01*
X178744582Y-95886839D01*
X179177744Y-95973000D01*
X179470256Y-95973000D01*
X179903418Y-95886839D01*
X180394625Y-95558625D01*
X180594000Y-95260239D01*
X180793375Y-95558625D01*
X181284582Y-95886839D01*
X181717744Y-95973000D01*
X182010256Y-95973000D01*
X182443418Y-95886839D01*
X182934625Y-95558625D01*
X183134000Y-95260239D01*
X183333375Y-95558625D01*
X183824582Y-95886839D01*
X184257744Y-95973000D01*
X184550256Y-95973000D01*
X184983418Y-95886839D01*
X185474625Y-95558625D01*
X185674000Y-95260239D01*
X185873375Y-95558625D01*
X186364582Y-95886839D01*
X186797744Y-95973000D01*
X187090256Y-95973000D01*
X187523418Y-95886839D01*
X188014625Y-95558625D01*
X188227843Y-95239522D01*
X188288817Y-95369358D01*
X188717076Y-95759645D01*
X189127110Y-95929476D01*
X189357000Y-95808155D01*
X189357000Y-94615000D01*
X189337000Y-94615000D01*
X189337000Y-94361000D01*
X189357000Y-94361000D01*
X189357000Y-94341000D01*
X189611000Y-94341000D01*
X189611000Y-94361000D01*
X189631000Y-94361000D01*
X189631000Y-94615000D01*
X189611000Y-94615000D01*
X189611000Y-95808155D01*
X189840890Y-95929476D01*
X190250924Y-95759645D01*
X190679183Y-95369358D01*
X190740157Y-95239522D01*
X190953375Y-95558625D01*
X191444582Y-95886839D01*
X191835770Y-95964651D01*
X189503440Y-98296982D01*
X189429544Y-98346358D01*
X189233941Y-98639098D01*
X189182593Y-98897243D01*
X189182593Y-98897246D01*
X189165256Y-98984407D01*
X189182593Y-99071568D01*
X189182593Y-99563602D01*
X188876838Y-99257847D01*
X188827462Y-99183951D01*
X188534723Y-98988348D01*
X188276578Y-98937000D01*
X188276574Y-98937000D01*
X188189413Y-98919663D01*
X188102252Y-98937000D01*
X181865806Y-98937000D01*
X181985904Y-98647039D01*
X181863915Y-98425000D01*
X180721000Y-98425000D01*
X180721000Y-98445000D01*
X180467000Y-98445000D01*
X180467000Y-98425000D01*
X179324085Y-98425000D01*
X179202096Y-98647039D01*
X179322194Y-98937000D01*
X171722550Y-98937000D01*
X171869000Y-98583439D01*
X171869000Y-98012561D01*
X171842656Y-97948961D01*
X179202096Y-97948961D01*
X179324085Y-98171000D01*
X180467000Y-98171000D01*
X180467000Y-97027371D01*
X180721000Y-97027371D01*
X180721000Y-98171000D01*
X181863915Y-98171000D01*
X181985904Y-97948961D01*
X181825041Y-97560577D01*
X181449134Y-97145611D01*
X180943041Y-96906086D01*
X180721000Y-97027371D01*
X180467000Y-97027371D01*
X180244959Y-96906086D01*
X179738866Y-97145611D01*
X179362959Y-97560577D01*
X179202096Y-97948961D01*
X171842656Y-97948961D01*
X171650534Y-97485138D01*
X171246862Y-97081466D01*
X170719439Y-96863000D01*
X170148561Y-96863000D01*
X169621138Y-97081466D01*
X169217466Y-97485138D01*
X168999000Y-98012561D01*
X168999000Y-98335419D01*
X168143427Y-97479847D01*
X168094051Y-97405951D01*
X167801312Y-97210348D01*
X167543167Y-97159000D01*
X167543163Y-97159000D01*
X167456002Y-97141663D01*
X167368841Y-97159000D01*
X146710573Y-97159000D01*
X146623413Y-97141663D01*
X146536253Y-97159000D01*
X146536249Y-97159000D01*
X146278104Y-97210348D01*
X146278102Y-97210349D01*
X146278103Y-97210349D01*
X146059259Y-97356576D01*
X146059258Y-97356577D01*
X145985365Y-97405951D01*
X145935991Y-97479844D01*
X145216015Y-98199821D01*
X144789116Y-98199821D01*
X144274556Y-98412958D01*
X144220000Y-98467514D01*
X144220000Y-91591108D01*
X144862514Y-91591108D01*
X144983181Y-91821000D01*
X146177000Y-91821000D01*
X146177000Y-90627845D01*
X145947110Y-90506524D01*
X145537076Y-90676355D01*
X145108817Y-91066642D01*
X144862514Y-91591108D01*
X144220000Y-91591108D01*
X144220000Y-88423750D01*
X145577000Y-88423750D01*
X145577000Y-88864310D01*
X145673673Y-89097699D01*
X145852302Y-89276327D01*
X146085691Y-89373000D01*
X146526250Y-89373000D01*
X146685000Y-89214250D01*
X146685000Y-88265000D01*
X145735750Y-88265000D01*
X145577000Y-88423750D01*
X144220000Y-88423750D01*
X144220000Y-87411690D01*
X145577000Y-87411690D01*
X145577000Y-87852250D01*
X145735750Y-88011000D01*
X146685000Y-88011000D01*
X146685000Y-87061750D01*
X146939000Y-87061750D01*
X146939000Y-88011000D01*
X146959000Y-88011000D01*
X146959000Y-88265000D01*
X146939000Y-88265000D01*
X146939000Y-89214250D01*
X147097750Y-89373000D01*
X147538309Y-89373000D01*
X147771698Y-89276327D01*
X147789640Y-89258385D01*
X148066343Y-89373000D01*
X148557657Y-89373000D01*
X149011571Y-89184982D01*
X149358982Y-88837571D01*
X149438333Y-88646000D01*
X149666887Y-88646000D01*
X149778260Y-89205909D01*
X150095423Y-89680577D01*
X150570091Y-89997740D01*
X150988667Y-90081000D01*
X151271333Y-90081000D01*
X151689909Y-89997740D01*
X152164577Y-89680577D01*
X152481740Y-89205909D01*
X152593113Y-88646000D01*
X152481740Y-88086091D01*
X152164577Y-87611423D01*
X151689909Y-87294260D01*
X151271333Y-87211000D01*
X150988667Y-87211000D01*
X150570091Y-87294260D01*
X150095423Y-87611423D01*
X149778260Y-88086091D01*
X149666887Y-88646000D01*
X149438333Y-88646000D01*
X149547000Y-88383657D01*
X149547000Y-87892343D01*
X149358982Y-87438429D01*
X149011571Y-87091018D01*
X148557657Y-86903000D01*
X148066343Y-86903000D01*
X147789640Y-87017615D01*
X147771698Y-86999673D01*
X147538309Y-86903000D01*
X147097750Y-86903000D01*
X146939000Y-87061750D01*
X146685000Y-87061750D01*
X146526250Y-86903000D01*
X146085691Y-86903000D01*
X145852302Y-86999673D01*
X145673673Y-87178301D01*
X145577000Y-87411690D01*
X144220000Y-87411690D01*
X144220000Y-85693039D01*
X149738096Y-85693039D01*
X149898959Y-86081423D01*
X150274866Y-86496389D01*
X150780959Y-86735914D01*
X151003000Y-86614629D01*
X151003000Y-85471000D01*
X151257000Y-85471000D01*
X151257000Y-86614629D01*
X151479041Y-86735914D01*
X151985134Y-86496389D01*
X152361041Y-86081423D01*
X152521904Y-85693039D01*
X152399915Y-85471000D01*
X151257000Y-85471000D01*
X151003000Y-85471000D01*
X149860085Y-85471000D01*
X149738096Y-85693039D01*
X144220000Y-85693039D01*
X144220000Y-84994961D01*
X149738096Y-84994961D01*
X149860085Y-85217000D01*
X151003000Y-85217000D01*
X151003000Y-84073371D01*
X151257000Y-84073371D01*
X151257000Y-85217000D01*
X152399915Y-85217000D01*
X152486961Y-85058561D01*
X159855000Y-85058561D01*
X159855000Y-85629439D01*
X160073466Y-86156862D01*
X160477138Y-86560534D01*
X161004561Y-86779000D01*
X161575439Y-86779000D01*
X162102862Y-86560534D01*
X162438642Y-86224754D01*
X162541423Y-86378577D01*
X163016091Y-86695740D01*
X163434667Y-86779000D01*
X163717333Y-86779000D01*
X164135909Y-86695740D01*
X164610577Y-86378577D01*
X164927740Y-85903909D01*
X165039113Y-85344000D01*
X164982336Y-85058561D01*
X172301000Y-85058561D01*
X172301000Y-85629439D01*
X172519466Y-86156862D01*
X172923138Y-86560534D01*
X173450561Y-86779000D01*
X174021439Y-86779000D01*
X174548862Y-86560534D01*
X174952534Y-86156862D01*
X175171000Y-85629439D01*
X175171000Y-85564387D01*
X184109218Y-85564387D01*
X184179051Y-85806883D01*
X184703586Y-85994132D01*
X185259850Y-85966396D01*
X185644949Y-85806883D01*
X185714782Y-85564387D01*
X184912000Y-84761605D01*
X184109218Y-85564387D01*
X175171000Y-85564387D01*
X175171000Y-85058561D01*
X174952534Y-84531138D01*
X174794982Y-84373586D01*
X183499868Y-84373586D01*
X183527604Y-84929850D01*
X183687117Y-85314949D01*
X183929613Y-85384782D01*
X184732395Y-84582000D01*
X183929613Y-83779218D01*
X183687117Y-83849051D01*
X183499868Y-84373586D01*
X174794982Y-84373586D01*
X174548862Y-84127466D01*
X174021439Y-83909000D01*
X173450561Y-83909000D01*
X172923138Y-84127466D01*
X172519466Y-84531138D01*
X172301000Y-85058561D01*
X164982336Y-85058561D01*
X164927740Y-84784091D01*
X164610577Y-84309423D01*
X164135909Y-83992260D01*
X163717333Y-83909000D01*
X163434667Y-83909000D01*
X163016091Y-83992260D01*
X162541423Y-84309423D01*
X162438642Y-84463246D01*
X162102862Y-84127466D01*
X161575439Y-83909000D01*
X161004561Y-83909000D01*
X160477138Y-84127466D01*
X160073466Y-84531138D01*
X159855000Y-85058561D01*
X152486961Y-85058561D01*
X152521904Y-84994961D01*
X152361041Y-84606577D01*
X151985134Y-84191611D01*
X151479041Y-83952086D01*
X151257000Y-84073371D01*
X151003000Y-84073371D01*
X150780959Y-83952086D01*
X150274866Y-84191611D01*
X149898959Y-84606577D01*
X149738096Y-84994961D01*
X144220000Y-84994961D01*
X144220000Y-83599613D01*
X184109218Y-83599613D01*
X184912000Y-84402395D01*
X185714782Y-83599613D01*
X185644949Y-83357117D01*
X185120414Y-83169868D01*
X184564150Y-83197604D01*
X184179051Y-83357117D01*
X184109218Y-83599613D01*
X144220000Y-83599613D01*
X144220000Y-83363273D01*
X144494561Y-83477000D01*
X145065439Y-83477000D01*
X145592862Y-83258534D01*
X145996534Y-82854862D01*
X146215000Y-82327439D01*
X146215000Y-81756561D01*
X145996534Y-81229138D01*
X145627396Y-80860000D01*
X154126057Y-80860000D01*
X153905423Y-81007423D01*
G36*
X185786765Y-88138000D02*
X185812027Y-88265000D01*
X185801000Y-88265000D01*
X185801000Y-88285000D01*
X185547000Y-88285000D01*
X185547000Y-88265000D01*
X184697750Y-88265000D01*
X184539000Y-88423750D01*
X184539000Y-88764309D01*
X184635673Y-88997698D01*
X184648976Y-89011001D01*
X175646044Y-89011001D01*
X175679000Y-88931439D01*
X175679000Y-88462579D01*
X175731423Y-88410156D01*
X175731425Y-88410153D01*
X176068580Y-88072999D01*
X185799694Y-88072999D01*
X185786765Y-88138000D01*
X185786765Y-88138000D01*
G37*
X185786765Y-88138000D02*
X185812027Y-88265000D01*
X185801000Y-88265000D01*
X185801000Y-88285000D01*
X185547000Y-88285000D01*
X185547000Y-88265000D01*
X184697750Y-88265000D01*
X184539000Y-88423750D01*
X184539000Y-88764309D01*
X184635673Y-88997698D01*
X184648976Y-89011001D01*
X175646044Y-89011001D01*
X175679000Y-88931439D01*
X175679000Y-88462579D01*
X175731423Y-88410156D01*
X175731425Y-88410153D01*
X176068580Y-88072999D01*
X185799694Y-88072999D01*
X185786765Y-88138000D01*
G04 #@! TD*
M02*
