M48
;DRILL file {KiCad (5.0.2)-1} date 21.03.2021 08:53:42
;FORMAT={-:-/ absolute / inch / decimal}
FMAT,2
INCH,TZ
T1C0.0236
T2C0.0256
T3C0.0315
T4C0.0354
T5C0.0394
T6C0.0402
T7C0.0472
T8C0.0598
%
G90
G05
T1
X7.92Y-4.39
X7.9791Y-4.39
T2
X7.19Y-4.38
X7.19Y-4.43
X7.19Y-4.48
T3
X7.16Y-4.23
X7.56Y-4.23
X7.15Y-5.25
X7.55Y-5.25
X6.61Y-5.25
X7.01Y-5.25
X7.43Y-4.9
X7.73Y-4.9
X7.7608Y-5.192
X8.1Y-4.98
X8.2008Y-4.922
X8.54Y-4.71
X7.31Y-4.45
X7.71Y-4.45
X6.97Y-4.98
X7.27Y-4.98
X6.97Y-4.84
X7.27Y-4.84
T4
X8.57Y-4.22
X8.67Y-4.22
X8.28Y-4.19
X8.38Y-4.19
X8.87Y-4.06
X8.97Y-4.06
T5
X5.57Y-4.29
X5.57Y-4.39
X5.79Y-4.6
X5.79Y-4.7
X5.89Y-4.6
X5.89Y-4.7
X5.99Y-4.6
X5.99Y-4.7
X6.09Y-4.6
X6.09Y-4.7
X6.19Y-4.6
X6.19Y-4.7
X6.29Y-4.6
X6.29Y-4.7
X6.39Y-4.6
X6.39Y-4.7
X6.49Y-4.6
X6.49Y-4.7
X6.59Y-4.6
X6.59Y-4.7
X6.69Y-4.6
X6.69Y-4.7
X6.79Y-4.6
X6.79Y-4.7
X6.89Y-4.6
X6.89Y-4.7
X6.99Y-4.6
X6.99Y-4.7
X7.09Y-4.6
X7.09Y-4.7
X7.19Y-4.6
X7.19Y-4.7
X7.29Y-4.6
X7.29Y-4.7
X7.39Y-4.6
X7.39Y-4.7
X7.49Y-4.6
X7.49Y-4.7
X7.59Y-4.6
X7.59Y-4.7
X7.69Y-4.6
X7.69Y-4.7
X7.67Y-4.23
X8.07Y-4.23
X5.44Y-3.66
X5.44Y-3.76
X5.44Y-3.86
X5.44Y-3.96
X5.44Y-4.06
T6
X7.0079Y-3.84
X7.0079Y-3.94
X7.0079Y-4.04
X7.0079Y-4.14
X8.17Y-4.5595
X8.2548Y-4.5065
X8.3396Y-4.4535
X8.4245Y-4.4005
X6.41Y-4.93
X6.51Y-4.93
X6.61Y-4.93
X6.71Y-4.93
T7
X7.31Y-3.56
X7.31Y-3.66
X7.31Y-3.76
X7.31Y-3.86
X7.31Y-3.96
X7.31Y-4.06
T8
X8.78Y-3.74
X8.98Y-3.74
X8.38Y-3.74
X8.58Y-3.74
T0
M30
