G04 #@! TF.GenerationSoftware,KiCad,Pcbnew,(5.0.2)-1*
G04 #@! TF.CreationDate,2020-12-29T21:20:42+01:00*
G04 #@! TF.ProjectId,Radmesser,5261646d-6573-4736-9572-2e6b69636164,rev?*
G04 #@! TF.SameCoordinates,Original*
G04 #@! TF.FileFunction,Copper,L1,Top*
G04 #@! TF.FilePolarity,Positive*
%FSLAX46Y46*%
G04 Gerber Fmt 4.6, Leading zero omitted, Abs format (unit mm)*
G04 Created by KiCad (PCBNEW (5.0.2)-1) date 29.12.2020 21:20:42*
%MOMM*%
%LPD*%
G01*
G04 APERTURE LIST*
G04 #@! TA.AperFunction,ComponentPad*
%ADD10C,1.530000*%
G04 #@! TD*
G04 #@! TA.AperFunction,ComponentPad*
%ADD11R,1.800000X1.800000*%
G04 #@! TD*
G04 #@! TA.AperFunction,ComponentPad*
%ADD12C,1.800000*%
G04 #@! TD*
G04 #@! TA.AperFunction,ComponentPad*
%ADD13O,1.700000X1.700000*%
G04 #@! TD*
G04 #@! TA.AperFunction,ComponentPad*
%ADD14R,1.700000X1.700000*%
G04 #@! TD*
G04 #@! TA.AperFunction,ComponentPad*
%ADD15O,1.600000X1.600000*%
G04 #@! TD*
G04 #@! TA.AperFunction,ComponentPad*
%ADD16C,1.600000*%
G04 #@! TD*
G04 #@! TA.AperFunction,ComponentPad*
%ADD17O,1.800000X1.800000*%
G04 #@! TD*
G04 #@! TA.AperFunction,ComponentPad*
%ADD18C,2.000000*%
G04 #@! TD*
G04 #@! TA.AperFunction,Conductor*
%ADD19C,0.500000*%
G04 #@! TD*
G04 #@! TA.AperFunction,Conductor*
%ADD20C,0.600000*%
G04 #@! TD*
G04 #@! TA.AperFunction,Conductor*
%ADD21C,0.254000*%
G04 #@! TD*
G04 APERTURE END LIST*
D10*
G04 #@! TO.P,Uvorne1,2*
G04 #@! TO.N,Net-(J1-Pad35)*
X147509198Y-106649941D03*
G04 #@! TO.P,Uvorne1,3*
G04 #@! TO.N,Net-(R4-Pad1)*
X149950802Y-107350059D03*
G04 #@! TO.P,Uvorne1,4*
G04 #@! TO.N,GND*
X152392407Y-108050179D03*
G04 #@! TO.P,Uvorne1,1*
G04 #@! TO.N,Net-(J1-Pad2)*
X145067593Y-105949821D03*
G04 #@! TD*
G04 #@! TO.P,Uhinten2,1*
G04 #@! TO.N,Net-(J1-Pad2)*
X190067593Y-108050180D03*
G04 #@! TO.P,Uhinten2,4*
G04 #@! TO.N,GND*
X197392407Y-105949820D03*
G04 #@! TO.P,Uhinten2,3*
G04 #@! TO.N,Net-(R2-Pad1)*
X194950802Y-106649941D03*
G04 #@! TO.P,Uhinten2,2*
G04 #@! TO.N,Net-(J1-Pad35)*
X192509198Y-107350059D03*
G04 #@! TD*
D11*
G04 #@! TO.P,Drot2,1*
G04 #@! TO.N,Net-(Drot2-Pad1)*
X178308000Y-90424000D03*
D12*
G04 #@! TO.P,Drot2,2*
G04 #@! TO.N,Net-(Drot2-Pad2)*
X175768000Y-90424000D03*
G04 #@! TD*
G04 #@! TO.P,Dgrun1,2*
G04 #@! TO.N,Net-(Dgrun1-Pad2)*
X168656000Y-90424000D03*
D11*
G04 #@! TO.P,Dgrun1,1*
G04 #@! TO.N,Net-(Dgrun1-Pad1)*
X171196000Y-90424000D03*
G04 #@! TD*
D10*
G04 #@! TO.P,GPS1,2*
G04 #@! TO.N,Net-(GPS1-Pad2)*
X201930000Y-90678000D03*
G04 #@! TO.P,GPS1,3*
G04 #@! TO.N,Net-(GPS1-Pad3)*
X201930000Y-88138000D03*
G04 #@! TO.P,GPS1,4*
G04 #@! TO.N,GND*
X201930000Y-85598000D03*
G04 #@! TO.P,GPS1,1*
G04 #@! TO.N,Net-(GPS1-Pad1)*
X201930000Y-93218000D03*
G04 #@! TD*
D13*
G04 #@! TO.P,J1,40*
G04 #@! TO.N,Net-(Dgrun1-Pad2)*
X147320000Y-85090000D03*
G04 #@! TO.P,J1,39*
G04 #@! TO.N,GND*
X147320000Y-82550000D03*
G04 #@! TO.P,J1,38*
G04 #@! TO.N,Net-(Drot2-Pad2)*
X149860000Y-85090000D03*
G04 #@! TO.P,J1,37*
G04 #@! TO.N,Net-(J1-Pad37)*
X149860000Y-82550000D03*
G04 #@! TO.P,J1,36*
G04 #@! TO.N,Net-(J1-Pad36)*
X152400000Y-85090000D03*
G04 #@! TO.P,J1,35*
G04 #@! TO.N,Net-(J1-Pad35)*
X152400000Y-82550000D03*
G04 #@! TO.P,J1,34*
G04 #@! TO.N,GND*
X154940000Y-85090000D03*
G04 #@! TO.P,J1,33*
G04 #@! TO.N,Net-(J1-Pad33)*
X154940000Y-82550000D03*
G04 #@! TO.P,J1,32*
G04 #@! TO.N,Net-(J1-Pad32)*
X157480000Y-85090000D03*
G04 #@! TO.P,J1,31*
G04 #@! TO.N,Net-(J1-Pad31)*
X157480000Y-82550000D03*
G04 #@! TO.P,J1,30*
G04 #@! TO.N,Net-(J1-Pad30)*
X160020000Y-85090000D03*
G04 #@! TO.P,J1,29*
G04 #@! TO.N,Net-(J1-Pad29)*
X160020000Y-82550000D03*
G04 #@! TO.P,J1,28*
G04 #@! TO.N,Net-(J1-Pad28)*
X162560000Y-85090000D03*
G04 #@! TO.P,J1,27*
G04 #@! TO.N,Net-(J1-Pad27)*
X162560000Y-82550000D03*
G04 #@! TO.P,J1,26*
G04 #@! TO.N,Net-(J1-Pad26)*
X165100000Y-85090000D03*
G04 #@! TO.P,J1,25*
G04 #@! TO.N,Net-(J1-Pad25)*
X165100000Y-82550000D03*
G04 #@! TO.P,J1,24*
G04 #@! TO.N,Net-(J1-Pad24)*
X167640000Y-85090000D03*
G04 #@! TO.P,J1,23*
G04 #@! TO.N,Net-(J1-Pad23)*
X167640000Y-82550000D03*
G04 #@! TO.P,J1,22*
G04 #@! TO.N,Net-(J1-Pad22)*
X170180000Y-85090000D03*
G04 #@! TO.P,J1,21*
G04 #@! TO.N,Net-(J1-Pad21)*
X170180000Y-82550000D03*
G04 #@! TO.P,J1,20*
G04 #@! TO.N,Net-(J1-Pad20)*
X172720000Y-85090000D03*
G04 #@! TO.P,J1,19*
G04 #@! TO.N,Net-(J1-Pad19)*
X172720000Y-82550000D03*
G04 #@! TO.P,J1,18*
G04 #@! TO.N,Net-(J1-Pad18)*
X175260000Y-85090000D03*
G04 #@! TO.P,J1,17*
G04 #@! TO.N,Net-(J1-Pad17)*
X175260000Y-82550000D03*
G04 #@! TO.P,J1,16*
G04 #@! TO.N,Net-(J1-Pad16)*
X177800000Y-85090000D03*
G04 #@! TO.P,J1,15*
G04 #@! TO.N,Net-(J1-Pad15)*
X177800000Y-82550000D03*
G04 #@! TO.P,J1,14*
G04 #@! TO.N,Net-(J1-Pad14)*
X180340000Y-85090000D03*
G04 #@! TO.P,J1,13*
G04 #@! TO.N,Net-(J1-Pad13)*
X180340000Y-82550000D03*
G04 #@! TO.P,J1,12*
G04 #@! TO.N,Net-(J1-Pad12)*
X182880000Y-85090000D03*
G04 #@! TO.P,J1,11*
G04 #@! TO.N,Net-(J1-Pad11)*
X182880000Y-82550000D03*
G04 #@! TO.P,J1,10*
G04 #@! TO.N,Net-(GPS1-Pad3)*
X185420000Y-85090000D03*
G04 #@! TO.P,J1,9*
G04 #@! TO.N,Net-(J1-Pad9)*
X185420000Y-82550000D03*
G04 #@! TO.P,J1,8*
G04 #@! TO.N,Net-(GPS1-Pad2)*
X187960000Y-85090000D03*
G04 #@! TO.P,J1,7*
G04 #@! TO.N,Net-(J1-Pad7)*
X187960000Y-82550000D03*
G04 #@! TO.P,J1,6*
G04 #@! TO.N,GND*
X190500000Y-85090000D03*
G04 #@! TO.P,J1,5*
G04 #@! TO.N,Net-(J1-Pad5)*
X190500000Y-82550000D03*
G04 #@! TO.P,J1,4*
G04 #@! TO.N,Net-(J1-Pad4)*
X193040000Y-85090000D03*
G04 #@! TO.P,J1,3*
G04 #@! TO.N,Net-(J1-Pad3)*
X193040000Y-82550000D03*
G04 #@! TO.P,J1,2*
G04 #@! TO.N,Net-(J1-Pad2)*
X195580000Y-85090000D03*
D14*
G04 #@! TO.P,J1,1*
G04 #@! TO.N,Net-(GPS1-Pad1)*
X195580000Y-82550000D03*
G04 #@! TD*
D15*
G04 #@! TO.P,R1,2*
G04 #@! TO.N,GND*
X154940000Y-100330000D03*
D16*
G04 #@! TO.P,R1,1*
G04 #@! TO.N,Net-(J1-Pad16)*
X170180000Y-100330000D03*
G04 #@! TD*
G04 #@! TO.P,R2,1*
G04 #@! TO.N,Net-(R2-Pad1)*
X189230000Y-100330000D03*
D15*
G04 #@! TO.P,R2,2*
G04 #@! TO.N,Net-(J1-Pad16)*
X173990000Y-100330000D03*
G04 #@! TD*
G04 #@! TO.P,R3,2*
G04 #@! TO.N,GND*
X186690000Y-104140000D03*
D16*
G04 #@! TO.P,R3,1*
G04 #@! TO.N,Net-(J1-Pad18)*
X171450000Y-104140000D03*
G04 #@! TD*
G04 #@! TO.P,R4,1*
G04 #@! TO.N,Net-(R4-Pad1)*
X152400000Y-104140000D03*
D15*
G04 #@! TO.P,R4,2*
G04 #@! TO.N,Net-(J1-Pad18)*
X167640000Y-104140000D03*
G04 #@! TD*
G04 #@! TO.P,R5,2*
G04 #@! TO.N,GND*
X197612000Y-90170000D03*
D16*
G04 #@! TO.P,R5,1*
G04 #@! TO.N,Net-(Drot2-Pad1)*
X182372000Y-90170000D03*
G04 #@! TD*
G04 #@! TO.P,R6,1*
G04 #@! TO.N,Net-(Dgrun1-Pad1)*
X182372000Y-93726000D03*
D15*
G04 #@! TO.P,R6,2*
G04 #@! TO.N,GND*
X197612000Y-93726000D03*
G04 #@! TD*
G04 #@! TO.P,R7,2*
G04 #@! TO.N,Net-(J1-Pad7)*
X175514000Y-96774000D03*
D16*
G04 #@! TO.P,R7,1*
G04 #@! TO.N,Net-(GPS1-Pad1)*
X160274000Y-96774000D03*
G04 #@! TD*
D17*
G04 #@! TO.P,U3,3*
G04 #@! TO.N,Net-(GPS1-Pad1)*
X158242000Y-91186000D03*
G04 #@! TO.P,U3,2*
G04 #@! TO.N,Net-(J1-Pad7)*
X160782000Y-91186000D03*
D11*
G04 #@! TO.P,U3,1*
G04 #@! TO.N,GND*
X163322000Y-91186000D03*
G04 #@! TD*
D18*
G04 #@! TO.P,SW1,1*
G04 #@! TO.N,Net-(J1-Pad31)*
X153058000Y-90678000D03*
G04 #@! TO.P,SW1,2*
G04 #@! TO.N,Net-(J1-Pad17)*
X153058000Y-95178000D03*
G04 #@! TO.P,SW1,1*
G04 #@! TO.N,Net-(J1-Pad31)*
X146558000Y-90678000D03*
G04 #@! TO.P,SW1,2*
G04 #@! TO.N,Net-(J1-Pad17)*
X146558000Y-95178000D03*
G04 #@! TD*
D19*
G04 #@! TO.N,Net-(Dgrun1-Pad2)*
X148169999Y-85939999D02*
X147320000Y-85090000D01*
X150560010Y-88330010D02*
X148169999Y-85939999D01*
X166562010Y-88330010D02*
X150560010Y-88330010D01*
X168656000Y-90424000D02*
X166562010Y-88330010D01*
G04 #@! TO.N,Net-(Dgrun1-Pad1)*
X181240630Y-93726000D02*
X182372000Y-93726000D01*
X175898000Y-93726000D02*
X181240630Y-93726000D01*
X172596000Y-90424000D02*
X175898000Y-93726000D01*
X171196000Y-90424000D02*
X172596000Y-90424000D01*
G04 #@! TO.N,Net-(Drot2-Pad1)*
X182118000Y-90424000D02*
X182372000Y-90170000D01*
X178308000Y-90424000D02*
X182118000Y-90424000D01*
G04 #@! TO.N,Net-(Drot2-Pad2)*
X152400000Y-87630000D02*
X149860000Y-85090000D01*
X175768000Y-90424000D02*
X172974000Y-87630000D01*
X172974000Y-87630000D02*
X152400000Y-87630000D01*
G04 #@! TO.N,Net-(GPS1-Pad2)*
X190307990Y-87437990D02*
X187960000Y-85090000D01*
X201930000Y-90678000D02*
X203145001Y-89462999D01*
X203145001Y-89462999D02*
X203145001Y-87554799D01*
X203145001Y-87554799D02*
X202458202Y-86868000D01*
X202458202Y-86868000D02*
X199434674Y-86868000D01*
X199434674Y-86868000D02*
X198864684Y-87437990D01*
X198864684Y-87437990D02*
X190307990Y-87437990D01*
D20*
G04 #@! TO.N,GND*
X196627408Y-105184821D02*
X197392407Y-105949820D01*
D19*
X163322000Y-91186000D02*
X163322000Y-91948000D01*
X191965997Y-85939999D02*
X192639998Y-86614000D01*
X190500000Y-85090000D02*
X191349999Y-85939999D01*
X191349999Y-85939999D02*
X191965997Y-85939999D01*
X200848127Y-85598000D02*
X201930000Y-85598000D01*
X199714712Y-85598000D02*
X200848127Y-85598000D01*
X198698712Y-86614000D02*
X199714712Y-85598000D01*
X192639998Y-86614000D02*
X198698712Y-86614000D01*
G04 #@! TO.N,Net-(J1-Pad35)*
X152400000Y-80535010D02*
X144254990Y-80535010D01*
X152400000Y-82550000D02*
X152400000Y-80535010D01*
X144254990Y-80535010D02*
X144254990Y-103503189D01*
X144362446Y-103503189D02*
X147509198Y-106649941D01*
X144254990Y-103503189D02*
X144362446Y-103503189D01*
X192509198Y-107350059D02*
X191044081Y-105884942D01*
X191044081Y-105884942D02*
X183167058Y-105884942D01*
X183167058Y-105884942D02*
X181356000Y-107696000D01*
X152217569Y-106077139D02*
X148082000Y-106077139D01*
X153836430Y-107696000D02*
X152217569Y-106077139D01*
X181356000Y-107696000D02*
X153836430Y-107696000D01*
X148274197Y-105884942D02*
X148082000Y-106077139D01*
X148082000Y-106077139D02*
X147509198Y-106649941D01*
G04 #@! TO.N,Net-(J1-Pad18)*
X167640000Y-104140000D02*
X171450000Y-104140000D01*
G04 #@! TO.N,Net-(J1-Pad16)*
X170180000Y-100330000D02*
X173990000Y-100330000D01*
G04 #@! TO.N,Net-(J1-Pad7)*
X204470000Y-95758000D02*
X204253999Y-95974001D01*
X189974990Y-80535010D02*
X200169010Y-80535010D01*
X187960000Y-82550000D02*
X189974990Y-80535010D01*
X200169010Y-80535010D02*
X203845011Y-84211011D01*
X176313999Y-95974001D02*
X175514000Y-96774000D01*
X203845011Y-84211011D02*
X204353011Y-84211011D01*
X204253999Y-95974001D02*
X176313999Y-95974001D01*
X204353011Y-84211011D02*
X204470000Y-84328000D01*
X204470000Y-84328000D02*
X204470000Y-95758000D01*
G04 #@! TO.N,Net-(R2-Pad1)*
X194950802Y-106050802D02*
X194950802Y-106649941D01*
X189230000Y-100330000D02*
X194950802Y-106050802D01*
G04 #@! TO.N,Net-(R4-Pad1)*
X152400000Y-104140000D02*
X152400000Y-104836295D01*
G04 #@! TO.N,Net-(GPS1-Pad3)*
X186035998Y-85090000D02*
X185420000Y-85090000D01*
X188036009Y-87090011D02*
X186035998Y-85090000D01*
X188182011Y-87090011D02*
X188036009Y-87090011D01*
X201930000Y-88138000D02*
X189230000Y-88138000D01*
X189230000Y-88138000D02*
X188182011Y-87090011D01*
G04 #@! TO.N,Net-(J1-Pad2)*
X145067593Y-107031694D02*
X145034000Y-107065287D01*
X145067593Y-105949821D02*
X145067593Y-107031694D01*
X189302594Y-108815179D02*
X190067593Y-108050180D01*
X188142783Y-109974990D02*
X189302594Y-108815179D01*
X147943703Y-109974990D02*
X188142783Y-109974990D01*
X145034000Y-107065287D02*
X147943703Y-109974990D01*
G04 #@! TD*
D21*
G04 #@! TO.N,GND*
G36*
X146124817Y-81668642D02*
X145878514Y-82193108D01*
X145999181Y-82423000D01*
X147193000Y-82423000D01*
X147193000Y-82403000D01*
X147447000Y-82403000D01*
X147447000Y-82423000D01*
X147467000Y-82423000D01*
X147467000Y-82677000D01*
X147447000Y-82677000D01*
X147447000Y-82697000D01*
X147193000Y-82697000D01*
X147193000Y-82677000D01*
X145999181Y-82677000D01*
X145878514Y-82906892D01*
X146124817Y-83431358D01*
X146549786Y-83818647D01*
X146249375Y-84019375D01*
X145921161Y-84510582D01*
X145805908Y-85090000D01*
X145921161Y-85669418D01*
X146249375Y-86160625D01*
X146740582Y-86488839D01*
X147173744Y-86575000D01*
X147466256Y-86575000D01*
X147538959Y-86560538D01*
X147605844Y-86627423D01*
X147605847Y-86627425D01*
X149872587Y-88894166D01*
X149921961Y-88968059D01*
X149995854Y-89017433D01*
X149995855Y-89017434D01*
X150068825Y-89066191D01*
X150214700Y-89163662D01*
X150472845Y-89215010D01*
X150472849Y-89215010D01*
X150560010Y-89232347D01*
X150647171Y-89215010D01*
X152317510Y-89215010D01*
X152131847Y-89291914D01*
X151671914Y-89751847D01*
X151423000Y-90352778D01*
X151423000Y-91003222D01*
X151671914Y-91604153D01*
X152131847Y-92064086D01*
X152732778Y-92313000D01*
X153383222Y-92313000D01*
X153984153Y-92064086D01*
X154444086Y-91604153D01*
X154617290Y-91186000D01*
X156676928Y-91186000D01*
X156796062Y-91784927D01*
X157135327Y-92292673D01*
X157643073Y-92631938D01*
X158090818Y-92721000D01*
X158393182Y-92721000D01*
X158840927Y-92631938D01*
X159348673Y-92292673D01*
X159512000Y-92048237D01*
X159675327Y-92292673D01*
X160183073Y-92631938D01*
X160630818Y-92721000D01*
X160933182Y-92721000D01*
X161380927Y-92631938D01*
X161835112Y-92328462D01*
X161883673Y-92445699D01*
X162062302Y-92624327D01*
X162295691Y-92721000D01*
X163036250Y-92721000D01*
X163195000Y-92562250D01*
X163195000Y-91313000D01*
X163449000Y-91313000D01*
X163449000Y-92562250D01*
X163607750Y-92721000D01*
X164348309Y-92721000D01*
X164581698Y-92624327D01*
X164760327Y-92445699D01*
X164857000Y-92212310D01*
X164857000Y-91471750D01*
X164698250Y-91313000D01*
X163449000Y-91313000D01*
X163195000Y-91313000D01*
X163175000Y-91313000D01*
X163175000Y-91059000D01*
X163195000Y-91059000D01*
X163195000Y-89809750D01*
X163449000Y-89809750D01*
X163449000Y-91059000D01*
X164698250Y-91059000D01*
X164857000Y-90900250D01*
X164857000Y-90159690D01*
X164760327Y-89926301D01*
X164581698Y-89747673D01*
X164348309Y-89651000D01*
X163607750Y-89651000D01*
X163449000Y-89809750D01*
X163195000Y-89809750D01*
X163036250Y-89651000D01*
X162295691Y-89651000D01*
X162062302Y-89747673D01*
X161883673Y-89926301D01*
X161835112Y-90043538D01*
X161380927Y-89740062D01*
X160933182Y-89651000D01*
X160630818Y-89651000D01*
X160183073Y-89740062D01*
X159675327Y-90079327D01*
X159512000Y-90323763D01*
X159348673Y-90079327D01*
X158840927Y-89740062D01*
X158393182Y-89651000D01*
X158090818Y-89651000D01*
X157643073Y-89740062D01*
X157135327Y-90079327D01*
X156796062Y-90587073D01*
X156676928Y-91186000D01*
X154617290Y-91186000D01*
X154693000Y-91003222D01*
X154693000Y-90352778D01*
X154444086Y-89751847D01*
X153984153Y-89291914D01*
X153798490Y-89215010D01*
X166195432Y-89215010D01*
X167121000Y-90140579D01*
X167121000Y-90729330D01*
X167354690Y-91293507D01*
X167786493Y-91725310D01*
X168350670Y-91959000D01*
X168961330Y-91959000D01*
X169525507Y-91725310D01*
X169694725Y-91556092D01*
X169697843Y-91571765D01*
X169838191Y-91781809D01*
X170048235Y-91922157D01*
X170296000Y-91971440D01*
X172096000Y-91971440D01*
X172343765Y-91922157D01*
X172553809Y-91781809D01*
X172613259Y-91692837D01*
X175210577Y-94290156D01*
X175259951Y-94364049D01*
X175333844Y-94413423D01*
X175333845Y-94413424D01*
X175408674Y-94463423D01*
X175552690Y-94559652D01*
X175810835Y-94611000D01*
X175810839Y-94611000D01*
X175897999Y-94628337D01*
X175985159Y-94611000D01*
X181227604Y-94611000D01*
X181559138Y-94942534D01*
X181912740Y-95089001D01*
X176401158Y-95089001D01*
X176313998Y-95071664D01*
X176226838Y-95089001D01*
X176226834Y-95089001D01*
X175968689Y-95140349D01*
X175968687Y-95140350D01*
X175968688Y-95140350D01*
X175749844Y-95286577D01*
X175749843Y-95286578D01*
X175675950Y-95335952D01*
X175671734Y-95342262D01*
X175655333Y-95339000D01*
X175372667Y-95339000D01*
X174954091Y-95422260D01*
X174479423Y-95739423D01*
X174162260Y-96214091D01*
X174050887Y-96774000D01*
X174162260Y-97333909D01*
X174479423Y-97808577D01*
X174954091Y-98125740D01*
X175372667Y-98209000D01*
X175655333Y-98209000D01*
X176073909Y-98125740D01*
X176548577Y-97808577D01*
X176865740Y-97333909D01*
X176960205Y-96859001D01*
X204166838Y-96859001D01*
X204253999Y-96876338D01*
X204290001Y-96869177D01*
X204290001Y-109780116D01*
X189586845Y-109782507D01*
X189919172Y-109450180D01*
X190346070Y-109450180D01*
X190860630Y-109237043D01*
X191254456Y-108843217D01*
X191467593Y-108328657D01*
X191467593Y-108288354D01*
X191716161Y-108536922D01*
X192230721Y-108750059D01*
X192787675Y-108750059D01*
X193302235Y-108536922D01*
X193696061Y-108143096D01*
X193909198Y-107628536D01*
X193909198Y-107588237D01*
X194157765Y-107836804D01*
X194672325Y-108049941D01*
X195229279Y-108049941D01*
X195743839Y-107836804D01*
X196137665Y-107442978D01*
X196273340Y-107115428D01*
X196891506Y-107115428D01*
X197025475Y-107329281D01*
X197581303Y-107364695D01*
X198108373Y-107184707D01*
X198434586Y-106925225D01*
X198434873Y-106672874D01*
X197441913Y-106122468D01*
X196891506Y-107115428D01*
X196273340Y-107115428D01*
X196350802Y-106928418D01*
X196350802Y-106908774D01*
X196417002Y-106991999D01*
X196669353Y-106992286D01*
X197219759Y-105999326D01*
X197041137Y-105900314D01*
X197565055Y-105900314D01*
X198558015Y-106450721D01*
X198771868Y-106316752D01*
X198807282Y-105760924D01*
X198627294Y-105233854D01*
X198367812Y-104907641D01*
X198115461Y-104907354D01*
X197565055Y-105900314D01*
X197041137Y-105900314D01*
X196226799Y-105448919D01*
X196012946Y-105582888D01*
X196004003Y-105723242D01*
X195743839Y-105463078D01*
X195534226Y-105376254D01*
X195514958Y-105363379D01*
X195378345Y-105226766D01*
X196349941Y-105226766D01*
X197342901Y-105777172D01*
X197893308Y-104784212D01*
X197759339Y-104570359D01*
X197203511Y-104534945D01*
X196676441Y-104714933D01*
X196350228Y-104974415D01*
X196349941Y-105226766D01*
X195378345Y-105226766D01*
X190665000Y-100513422D01*
X190665000Y-100044561D01*
X190446534Y-99517138D01*
X190042862Y-99113466D01*
X189515439Y-98895000D01*
X188944561Y-98895000D01*
X188417138Y-99113466D01*
X188013466Y-99517138D01*
X187795000Y-100044561D01*
X187795000Y-100615439D01*
X188013466Y-101142862D01*
X188417138Y-101546534D01*
X188944561Y-101765000D01*
X189413422Y-101765000D01*
X193688193Y-106039772D01*
X193550802Y-106371464D01*
X193550802Y-106411763D01*
X193302235Y-106163196D01*
X192787675Y-105950059D01*
X192360776Y-105950059D01*
X191731506Y-105320789D01*
X191682130Y-105246893D01*
X191389391Y-105051290D01*
X191131246Y-104999942D01*
X191131242Y-104999942D01*
X191044081Y-104982605D01*
X190956920Y-104999942D01*
X187810054Y-104999942D01*
X187921041Y-104877423D01*
X188081904Y-104489039D01*
X187959915Y-104267000D01*
X186817000Y-104267000D01*
X186817000Y-104287000D01*
X186563000Y-104287000D01*
X186563000Y-104267000D01*
X185420085Y-104267000D01*
X185298096Y-104489039D01*
X185458959Y-104877423D01*
X185569946Y-104999942D01*
X183254219Y-104999942D01*
X183167058Y-104982605D01*
X183079897Y-104999942D01*
X183079893Y-104999942D01*
X182840887Y-105047483D01*
X182821748Y-105051290D01*
X182602903Y-105197518D01*
X182602902Y-105197519D01*
X182529009Y-105246893D01*
X182479635Y-105320786D01*
X180989422Y-106811000D01*
X154203009Y-106811000D01*
X152935124Y-105543116D01*
X153038049Y-105474344D01*
X153079993Y-105411570D01*
X153212862Y-105356534D01*
X153616534Y-104952862D01*
X153835000Y-104425439D01*
X153835000Y-104140000D01*
X166176887Y-104140000D01*
X166288260Y-104699909D01*
X166605423Y-105174577D01*
X167080091Y-105491740D01*
X167498667Y-105575000D01*
X167781333Y-105575000D01*
X168199909Y-105491740D01*
X168674577Y-105174577D01*
X168774521Y-105025000D01*
X170305604Y-105025000D01*
X170637138Y-105356534D01*
X171164561Y-105575000D01*
X171735439Y-105575000D01*
X172262862Y-105356534D01*
X172666534Y-104952862D01*
X172885000Y-104425439D01*
X172885000Y-103854561D01*
X172858656Y-103790961D01*
X185298096Y-103790961D01*
X185420085Y-104013000D01*
X186563000Y-104013000D01*
X186563000Y-102869371D01*
X186817000Y-102869371D01*
X186817000Y-104013000D01*
X187959915Y-104013000D01*
X188081904Y-103790961D01*
X187921041Y-103402577D01*
X187545134Y-102987611D01*
X187039041Y-102748086D01*
X186817000Y-102869371D01*
X186563000Y-102869371D01*
X186340959Y-102748086D01*
X185834866Y-102987611D01*
X185458959Y-103402577D01*
X185298096Y-103790961D01*
X172858656Y-103790961D01*
X172666534Y-103327138D01*
X172262862Y-102923466D01*
X171735439Y-102705000D01*
X171164561Y-102705000D01*
X170637138Y-102923466D01*
X170305604Y-103255000D01*
X168774521Y-103255000D01*
X168674577Y-103105423D01*
X168199909Y-102788260D01*
X167781333Y-102705000D01*
X167498667Y-102705000D01*
X167080091Y-102788260D01*
X166605423Y-103105423D01*
X166288260Y-103580091D01*
X166176887Y-104140000D01*
X153835000Y-104140000D01*
X153835000Y-103854561D01*
X153616534Y-103327138D01*
X153212862Y-102923466D01*
X152685439Y-102705000D01*
X152114561Y-102705000D01*
X151587138Y-102923466D01*
X151183466Y-103327138D01*
X150965000Y-103854561D01*
X150965000Y-104425439D01*
X151183466Y-104952862D01*
X151422743Y-105192139D01*
X148830301Y-105192139D01*
X148619507Y-105051290D01*
X148274197Y-104982605D01*
X147928888Y-105051290D01*
X147710043Y-105197518D01*
X147657620Y-105249941D01*
X147360777Y-105249941D01*
X145139990Y-103029155D01*
X145139990Y-100679039D01*
X153548096Y-100679039D01*
X153708959Y-101067423D01*
X154084866Y-101482389D01*
X154590959Y-101721914D01*
X154813000Y-101600629D01*
X154813000Y-100457000D01*
X155067000Y-100457000D01*
X155067000Y-101600629D01*
X155289041Y-101721914D01*
X155795134Y-101482389D01*
X156171041Y-101067423D01*
X156331904Y-100679039D01*
X156209915Y-100457000D01*
X155067000Y-100457000D01*
X154813000Y-100457000D01*
X153670085Y-100457000D01*
X153548096Y-100679039D01*
X145139990Y-100679039D01*
X145139990Y-99980961D01*
X153548096Y-99980961D01*
X153670085Y-100203000D01*
X154813000Y-100203000D01*
X154813000Y-99059371D01*
X155067000Y-99059371D01*
X155067000Y-100203000D01*
X156209915Y-100203000D01*
X156296961Y-100044561D01*
X168745000Y-100044561D01*
X168745000Y-100615439D01*
X168963466Y-101142862D01*
X169367138Y-101546534D01*
X169894561Y-101765000D01*
X170465439Y-101765000D01*
X170992862Y-101546534D01*
X171324396Y-101215000D01*
X172855479Y-101215000D01*
X172955423Y-101364577D01*
X173430091Y-101681740D01*
X173848667Y-101765000D01*
X174131333Y-101765000D01*
X174549909Y-101681740D01*
X175024577Y-101364577D01*
X175341740Y-100889909D01*
X175453113Y-100330000D01*
X175341740Y-99770091D01*
X175024577Y-99295423D01*
X174549909Y-98978260D01*
X174131333Y-98895000D01*
X173848667Y-98895000D01*
X173430091Y-98978260D01*
X172955423Y-99295423D01*
X172855479Y-99445000D01*
X171324396Y-99445000D01*
X170992862Y-99113466D01*
X170465439Y-98895000D01*
X169894561Y-98895000D01*
X169367138Y-99113466D01*
X168963466Y-99517138D01*
X168745000Y-100044561D01*
X156296961Y-100044561D01*
X156331904Y-99980961D01*
X156171041Y-99592577D01*
X155795134Y-99177611D01*
X155289041Y-98938086D01*
X155067000Y-99059371D01*
X154813000Y-99059371D01*
X154590959Y-98938086D01*
X154084866Y-99177611D01*
X153708959Y-99592577D01*
X153548096Y-99980961D01*
X145139990Y-99980961D01*
X145139990Y-96027082D01*
X145171914Y-96104153D01*
X145631847Y-96564086D01*
X146232778Y-96813000D01*
X146883222Y-96813000D01*
X147484153Y-96564086D01*
X147944086Y-96104153D01*
X148193000Y-95503222D01*
X148193000Y-94852778D01*
X151423000Y-94852778D01*
X151423000Y-95503222D01*
X151671914Y-96104153D01*
X152131847Y-96564086D01*
X152732778Y-96813000D01*
X153383222Y-96813000D01*
X153984153Y-96564086D01*
X154059678Y-96488561D01*
X158839000Y-96488561D01*
X158839000Y-97059439D01*
X159057466Y-97586862D01*
X159461138Y-97990534D01*
X159988561Y-98209000D01*
X160559439Y-98209000D01*
X161086862Y-97990534D01*
X161490534Y-97586862D01*
X161709000Y-97059439D01*
X161709000Y-96488561D01*
X161490534Y-95961138D01*
X161086862Y-95557466D01*
X160559439Y-95339000D01*
X159988561Y-95339000D01*
X159461138Y-95557466D01*
X159057466Y-95961138D01*
X158839000Y-96488561D01*
X154059678Y-96488561D01*
X154444086Y-96104153D01*
X154693000Y-95503222D01*
X154693000Y-94852778D01*
X154444086Y-94251847D01*
X153984153Y-93791914D01*
X153383222Y-93543000D01*
X152732778Y-93543000D01*
X152131847Y-93791914D01*
X151671914Y-94251847D01*
X151423000Y-94852778D01*
X148193000Y-94852778D01*
X147944086Y-94251847D01*
X147484153Y-93791914D01*
X146883222Y-93543000D01*
X146232778Y-93543000D01*
X145631847Y-93791914D01*
X145171914Y-94251847D01*
X145139990Y-94328918D01*
X145139990Y-91527082D01*
X145171914Y-91604153D01*
X145631847Y-92064086D01*
X146232778Y-92313000D01*
X146883222Y-92313000D01*
X147484153Y-92064086D01*
X147944086Y-91604153D01*
X148193000Y-91003222D01*
X148193000Y-90352778D01*
X147944086Y-89751847D01*
X147484153Y-89291914D01*
X146883222Y-89043000D01*
X146232778Y-89043000D01*
X145631847Y-89291914D01*
X145171914Y-89751847D01*
X145139990Y-89828918D01*
X145139990Y-81420010D01*
X146397639Y-81420010D01*
X146124817Y-81668642D01*
X146124817Y-81668642D01*
G37*
X146124817Y-81668642D02*
X145878514Y-82193108D01*
X145999181Y-82423000D01*
X147193000Y-82423000D01*
X147193000Y-82403000D01*
X147447000Y-82403000D01*
X147447000Y-82423000D01*
X147467000Y-82423000D01*
X147467000Y-82677000D01*
X147447000Y-82677000D01*
X147447000Y-82697000D01*
X147193000Y-82697000D01*
X147193000Y-82677000D01*
X145999181Y-82677000D01*
X145878514Y-82906892D01*
X146124817Y-83431358D01*
X146549786Y-83818647D01*
X146249375Y-84019375D01*
X145921161Y-84510582D01*
X145805908Y-85090000D01*
X145921161Y-85669418D01*
X146249375Y-86160625D01*
X146740582Y-86488839D01*
X147173744Y-86575000D01*
X147466256Y-86575000D01*
X147538959Y-86560538D01*
X147605844Y-86627423D01*
X147605847Y-86627425D01*
X149872587Y-88894166D01*
X149921961Y-88968059D01*
X149995854Y-89017433D01*
X149995855Y-89017434D01*
X150068825Y-89066191D01*
X150214700Y-89163662D01*
X150472845Y-89215010D01*
X150472849Y-89215010D01*
X150560010Y-89232347D01*
X150647171Y-89215010D01*
X152317510Y-89215010D01*
X152131847Y-89291914D01*
X151671914Y-89751847D01*
X151423000Y-90352778D01*
X151423000Y-91003222D01*
X151671914Y-91604153D01*
X152131847Y-92064086D01*
X152732778Y-92313000D01*
X153383222Y-92313000D01*
X153984153Y-92064086D01*
X154444086Y-91604153D01*
X154617290Y-91186000D01*
X156676928Y-91186000D01*
X156796062Y-91784927D01*
X157135327Y-92292673D01*
X157643073Y-92631938D01*
X158090818Y-92721000D01*
X158393182Y-92721000D01*
X158840927Y-92631938D01*
X159348673Y-92292673D01*
X159512000Y-92048237D01*
X159675327Y-92292673D01*
X160183073Y-92631938D01*
X160630818Y-92721000D01*
X160933182Y-92721000D01*
X161380927Y-92631938D01*
X161835112Y-92328462D01*
X161883673Y-92445699D01*
X162062302Y-92624327D01*
X162295691Y-92721000D01*
X163036250Y-92721000D01*
X163195000Y-92562250D01*
X163195000Y-91313000D01*
X163449000Y-91313000D01*
X163449000Y-92562250D01*
X163607750Y-92721000D01*
X164348309Y-92721000D01*
X164581698Y-92624327D01*
X164760327Y-92445699D01*
X164857000Y-92212310D01*
X164857000Y-91471750D01*
X164698250Y-91313000D01*
X163449000Y-91313000D01*
X163195000Y-91313000D01*
X163175000Y-91313000D01*
X163175000Y-91059000D01*
X163195000Y-91059000D01*
X163195000Y-89809750D01*
X163449000Y-89809750D01*
X163449000Y-91059000D01*
X164698250Y-91059000D01*
X164857000Y-90900250D01*
X164857000Y-90159690D01*
X164760327Y-89926301D01*
X164581698Y-89747673D01*
X164348309Y-89651000D01*
X163607750Y-89651000D01*
X163449000Y-89809750D01*
X163195000Y-89809750D01*
X163036250Y-89651000D01*
X162295691Y-89651000D01*
X162062302Y-89747673D01*
X161883673Y-89926301D01*
X161835112Y-90043538D01*
X161380927Y-89740062D01*
X160933182Y-89651000D01*
X160630818Y-89651000D01*
X160183073Y-89740062D01*
X159675327Y-90079327D01*
X159512000Y-90323763D01*
X159348673Y-90079327D01*
X158840927Y-89740062D01*
X158393182Y-89651000D01*
X158090818Y-89651000D01*
X157643073Y-89740062D01*
X157135327Y-90079327D01*
X156796062Y-90587073D01*
X156676928Y-91186000D01*
X154617290Y-91186000D01*
X154693000Y-91003222D01*
X154693000Y-90352778D01*
X154444086Y-89751847D01*
X153984153Y-89291914D01*
X153798490Y-89215010D01*
X166195432Y-89215010D01*
X167121000Y-90140579D01*
X167121000Y-90729330D01*
X167354690Y-91293507D01*
X167786493Y-91725310D01*
X168350670Y-91959000D01*
X168961330Y-91959000D01*
X169525507Y-91725310D01*
X169694725Y-91556092D01*
X169697843Y-91571765D01*
X169838191Y-91781809D01*
X170048235Y-91922157D01*
X170296000Y-91971440D01*
X172096000Y-91971440D01*
X172343765Y-91922157D01*
X172553809Y-91781809D01*
X172613259Y-91692837D01*
X175210577Y-94290156D01*
X175259951Y-94364049D01*
X175333844Y-94413423D01*
X175333845Y-94413424D01*
X175408674Y-94463423D01*
X175552690Y-94559652D01*
X175810835Y-94611000D01*
X175810839Y-94611000D01*
X175897999Y-94628337D01*
X175985159Y-94611000D01*
X181227604Y-94611000D01*
X181559138Y-94942534D01*
X181912740Y-95089001D01*
X176401158Y-95089001D01*
X176313998Y-95071664D01*
X176226838Y-95089001D01*
X176226834Y-95089001D01*
X175968689Y-95140349D01*
X175968687Y-95140350D01*
X175968688Y-95140350D01*
X175749844Y-95286577D01*
X175749843Y-95286578D01*
X175675950Y-95335952D01*
X175671734Y-95342262D01*
X175655333Y-95339000D01*
X175372667Y-95339000D01*
X174954091Y-95422260D01*
X174479423Y-95739423D01*
X174162260Y-96214091D01*
X174050887Y-96774000D01*
X174162260Y-97333909D01*
X174479423Y-97808577D01*
X174954091Y-98125740D01*
X175372667Y-98209000D01*
X175655333Y-98209000D01*
X176073909Y-98125740D01*
X176548577Y-97808577D01*
X176865740Y-97333909D01*
X176960205Y-96859001D01*
X204166838Y-96859001D01*
X204253999Y-96876338D01*
X204290001Y-96869177D01*
X204290001Y-109780116D01*
X189586845Y-109782507D01*
X189919172Y-109450180D01*
X190346070Y-109450180D01*
X190860630Y-109237043D01*
X191254456Y-108843217D01*
X191467593Y-108328657D01*
X191467593Y-108288354D01*
X191716161Y-108536922D01*
X192230721Y-108750059D01*
X192787675Y-108750059D01*
X193302235Y-108536922D01*
X193696061Y-108143096D01*
X193909198Y-107628536D01*
X193909198Y-107588237D01*
X194157765Y-107836804D01*
X194672325Y-108049941D01*
X195229279Y-108049941D01*
X195743839Y-107836804D01*
X196137665Y-107442978D01*
X196273340Y-107115428D01*
X196891506Y-107115428D01*
X197025475Y-107329281D01*
X197581303Y-107364695D01*
X198108373Y-107184707D01*
X198434586Y-106925225D01*
X198434873Y-106672874D01*
X197441913Y-106122468D01*
X196891506Y-107115428D01*
X196273340Y-107115428D01*
X196350802Y-106928418D01*
X196350802Y-106908774D01*
X196417002Y-106991999D01*
X196669353Y-106992286D01*
X197219759Y-105999326D01*
X197041137Y-105900314D01*
X197565055Y-105900314D01*
X198558015Y-106450721D01*
X198771868Y-106316752D01*
X198807282Y-105760924D01*
X198627294Y-105233854D01*
X198367812Y-104907641D01*
X198115461Y-104907354D01*
X197565055Y-105900314D01*
X197041137Y-105900314D01*
X196226799Y-105448919D01*
X196012946Y-105582888D01*
X196004003Y-105723242D01*
X195743839Y-105463078D01*
X195534226Y-105376254D01*
X195514958Y-105363379D01*
X195378345Y-105226766D01*
X196349941Y-105226766D01*
X197342901Y-105777172D01*
X197893308Y-104784212D01*
X197759339Y-104570359D01*
X197203511Y-104534945D01*
X196676441Y-104714933D01*
X196350228Y-104974415D01*
X196349941Y-105226766D01*
X195378345Y-105226766D01*
X190665000Y-100513422D01*
X190665000Y-100044561D01*
X190446534Y-99517138D01*
X190042862Y-99113466D01*
X189515439Y-98895000D01*
X188944561Y-98895000D01*
X188417138Y-99113466D01*
X188013466Y-99517138D01*
X187795000Y-100044561D01*
X187795000Y-100615439D01*
X188013466Y-101142862D01*
X188417138Y-101546534D01*
X188944561Y-101765000D01*
X189413422Y-101765000D01*
X193688193Y-106039772D01*
X193550802Y-106371464D01*
X193550802Y-106411763D01*
X193302235Y-106163196D01*
X192787675Y-105950059D01*
X192360776Y-105950059D01*
X191731506Y-105320789D01*
X191682130Y-105246893D01*
X191389391Y-105051290D01*
X191131246Y-104999942D01*
X191131242Y-104999942D01*
X191044081Y-104982605D01*
X190956920Y-104999942D01*
X187810054Y-104999942D01*
X187921041Y-104877423D01*
X188081904Y-104489039D01*
X187959915Y-104267000D01*
X186817000Y-104267000D01*
X186817000Y-104287000D01*
X186563000Y-104287000D01*
X186563000Y-104267000D01*
X185420085Y-104267000D01*
X185298096Y-104489039D01*
X185458959Y-104877423D01*
X185569946Y-104999942D01*
X183254219Y-104999942D01*
X183167058Y-104982605D01*
X183079897Y-104999942D01*
X183079893Y-104999942D01*
X182840887Y-105047483D01*
X182821748Y-105051290D01*
X182602903Y-105197518D01*
X182602902Y-105197519D01*
X182529009Y-105246893D01*
X182479635Y-105320786D01*
X180989422Y-106811000D01*
X154203009Y-106811000D01*
X152935124Y-105543116D01*
X153038049Y-105474344D01*
X153079993Y-105411570D01*
X153212862Y-105356534D01*
X153616534Y-104952862D01*
X153835000Y-104425439D01*
X153835000Y-104140000D01*
X166176887Y-104140000D01*
X166288260Y-104699909D01*
X166605423Y-105174577D01*
X167080091Y-105491740D01*
X167498667Y-105575000D01*
X167781333Y-105575000D01*
X168199909Y-105491740D01*
X168674577Y-105174577D01*
X168774521Y-105025000D01*
X170305604Y-105025000D01*
X170637138Y-105356534D01*
X171164561Y-105575000D01*
X171735439Y-105575000D01*
X172262862Y-105356534D01*
X172666534Y-104952862D01*
X172885000Y-104425439D01*
X172885000Y-103854561D01*
X172858656Y-103790961D01*
X185298096Y-103790961D01*
X185420085Y-104013000D01*
X186563000Y-104013000D01*
X186563000Y-102869371D01*
X186817000Y-102869371D01*
X186817000Y-104013000D01*
X187959915Y-104013000D01*
X188081904Y-103790961D01*
X187921041Y-103402577D01*
X187545134Y-102987611D01*
X187039041Y-102748086D01*
X186817000Y-102869371D01*
X186563000Y-102869371D01*
X186340959Y-102748086D01*
X185834866Y-102987611D01*
X185458959Y-103402577D01*
X185298096Y-103790961D01*
X172858656Y-103790961D01*
X172666534Y-103327138D01*
X172262862Y-102923466D01*
X171735439Y-102705000D01*
X171164561Y-102705000D01*
X170637138Y-102923466D01*
X170305604Y-103255000D01*
X168774521Y-103255000D01*
X168674577Y-103105423D01*
X168199909Y-102788260D01*
X167781333Y-102705000D01*
X167498667Y-102705000D01*
X167080091Y-102788260D01*
X166605423Y-103105423D01*
X166288260Y-103580091D01*
X166176887Y-104140000D01*
X153835000Y-104140000D01*
X153835000Y-103854561D01*
X153616534Y-103327138D01*
X153212862Y-102923466D01*
X152685439Y-102705000D01*
X152114561Y-102705000D01*
X151587138Y-102923466D01*
X151183466Y-103327138D01*
X150965000Y-103854561D01*
X150965000Y-104425439D01*
X151183466Y-104952862D01*
X151422743Y-105192139D01*
X148830301Y-105192139D01*
X148619507Y-105051290D01*
X148274197Y-104982605D01*
X147928888Y-105051290D01*
X147710043Y-105197518D01*
X147657620Y-105249941D01*
X147360777Y-105249941D01*
X145139990Y-103029155D01*
X145139990Y-100679039D01*
X153548096Y-100679039D01*
X153708959Y-101067423D01*
X154084866Y-101482389D01*
X154590959Y-101721914D01*
X154813000Y-101600629D01*
X154813000Y-100457000D01*
X155067000Y-100457000D01*
X155067000Y-101600629D01*
X155289041Y-101721914D01*
X155795134Y-101482389D01*
X156171041Y-101067423D01*
X156331904Y-100679039D01*
X156209915Y-100457000D01*
X155067000Y-100457000D01*
X154813000Y-100457000D01*
X153670085Y-100457000D01*
X153548096Y-100679039D01*
X145139990Y-100679039D01*
X145139990Y-99980961D01*
X153548096Y-99980961D01*
X153670085Y-100203000D01*
X154813000Y-100203000D01*
X154813000Y-99059371D01*
X155067000Y-99059371D01*
X155067000Y-100203000D01*
X156209915Y-100203000D01*
X156296961Y-100044561D01*
X168745000Y-100044561D01*
X168745000Y-100615439D01*
X168963466Y-101142862D01*
X169367138Y-101546534D01*
X169894561Y-101765000D01*
X170465439Y-101765000D01*
X170992862Y-101546534D01*
X171324396Y-101215000D01*
X172855479Y-101215000D01*
X172955423Y-101364577D01*
X173430091Y-101681740D01*
X173848667Y-101765000D01*
X174131333Y-101765000D01*
X174549909Y-101681740D01*
X175024577Y-101364577D01*
X175341740Y-100889909D01*
X175453113Y-100330000D01*
X175341740Y-99770091D01*
X175024577Y-99295423D01*
X174549909Y-98978260D01*
X174131333Y-98895000D01*
X173848667Y-98895000D01*
X173430091Y-98978260D01*
X172955423Y-99295423D01*
X172855479Y-99445000D01*
X171324396Y-99445000D01*
X170992862Y-99113466D01*
X170465439Y-98895000D01*
X169894561Y-98895000D01*
X169367138Y-99113466D01*
X168963466Y-99517138D01*
X168745000Y-100044561D01*
X156296961Y-100044561D01*
X156331904Y-99980961D01*
X156171041Y-99592577D01*
X155795134Y-99177611D01*
X155289041Y-98938086D01*
X155067000Y-99059371D01*
X154813000Y-99059371D01*
X154590959Y-98938086D01*
X154084866Y-99177611D01*
X153708959Y-99592577D01*
X153548096Y-99980961D01*
X145139990Y-99980961D01*
X145139990Y-96027082D01*
X145171914Y-96104153D01*
X145631847Y-96564086D01*
X146232778Y-96813000D01*
X146883222Y-96813000D01*
X147484153Y-96564086D01*
X147944086Y-96104153D01*
X148193000Y-95503222D01*
X148193000Y-94852778D01*
X151423000Y-94852778D01*
X151423000Y-95503222D01*
X151671914Y-96104153D01*
X152131847Y-96564086D01*
X152732778Y-96813000D01*
X153383222Y-96813000D01*
X153984153Y-96564086D01*
X154059678Y-96488561D01*
X158839000Y-96488561D01*
X158839000Y-97059439D01*
X159057466Y-97586862D01*
X159461138Y-97990534D01*
X159988561Y-98209000D01*
X160559439Y-98209000D01*
X161086862Y-97990534D01*
X161490534Y-97586862D01*
X161709000Y-97059439D01*
X161709000Y-96488561D01*
X161490534Y-95961138D01*
X161086862Y-95557466D01*
X160559439Y-95339000D01*
X159988561Y-95339000D01*
X159461138Y-95557466D01*
X159057466Y-95961138D01*
X158839000Y-96488561D01*
X154059678Y-96488561D01*
X154444086Y-96104153D01*
X154693000Y-95503222D01*
X154693000Y-94852778D01*
X154444086Y-94251847D01*
X153984153Y-93791914D01*
X153383222Y-93543000D01*
X152732778Y-93543000D01*
X152131847Y-93791914D01*
X151671914Y-94251847D01*
X151423000Y-94852778D01*
X148193000Y-94852778D01*
X147944086Y-94251847D01*
X147484153Y-93791914D01*
X146883222Y-93543000D01*
X146232778Y-93543000D01*
X145631847Y-93791914D01*
X145171914Y-94251847D01*
X145139990Y-94328918D01*
X145139990Y-91527082D01*
X145171914Y-91604153D01*
X145631847Y-92064086D01*
X146232778Y-92313000D01*
X146883222Y-92313000D01*
X147484153Y-92064086D01*
X147944086Y-91604153D01*
X148193000Y-91003222D01*
X148193000Y-90352778D01*
X147944086Y-89751847D01*
X147484153Y-89291914D01*
X146883222Y-89043000D01*
X146232778Y-89043000D01*
X145631847Y-89291914D01*
X145171914Y-89751847D01*
X145139990Y-89828918D01*
X145139990Y-81420010D01*
X146397639Y-81420010D01*
X146124817Y-81668642D01*
G36*
X152038367Y-107149516D02*
X152421776Y-107841202D01*
X152406548Y-107856430D01*
X152586156Y-108036038D01*
X152755523Y-107866671D01*
X152837511Y-107948660D01*
X152565055Y-108099685D01*
X153113989Y-109089990D01*
X152823578Y-109089990D01*
X152342901Y-108222827D01*
X151349941Y-108773233D01*
X151350228Y-109025584D01*
X151440038Y-109089990D01*
X148310282Y-109089990D01*
X147270233Y-108049941D01*
X147787675Y-108049941D01*
X148302235Y-107836804D01*
X148550802Y-107588237D01*
X148550802Y-107628536D01*
X148763939Y-108143096D01*
X149157765Y-108536922D01*
X149672325Y-108750059D01*
X150229279Y-108750059D01*
X150743839Y-108536922D01*
X150997676Y-108283085D01*
X151012946Y-108417111D01*
X151226799Y-108551080D01*
X152219759Y-108000673D01*
X151669353Y-107007713D01*
X151417002Y-107008000D01*
X151350802Y-107100312D01*
X151350802Y-107071582D01*
X151305469Y-106962139D01*
X151850991Y-106962139D01*
X152038367Y-107149516D01*
X152038367Y-107149516D01*
G37*
X152038367Y-107149516D02*
X152421776Y-107841202D01*
X152406548Y-107856430D01*
X152586156Y-108036038D01*
X152755523Y-107866671D01*
X152837511Y-107948660D01*
X152565055Y-108099685D01*
X153113989Y-109089990D01*
X152823578Y-109089990D01*
X152342901Y-108222827D01*
X151349941Y-108773233D01*
X151350228Y-109025584D01*
X151440038Y-109089990D01*
X148310282Y-109089990D01*
X147270233Y-108049941D01*
X147787675Y-108049941D01*
X148302235Y-107836804D01*
X148550802Y-107588237D01*
X148550802Y-107628536D01*
X148763939Y-108143096D01*
X149157765Y-108536922D01*
X149672325Y-108750059D01*
X150229279Y-108750059D01*
X150743839Y-108536922D01*
X150997676Y-108283085D01*
X151012946Y-108417111D01*
X151226799Y-108551080D01*
X152219759Y-108000673D01*
X151669353Y-107007713D01*
X151417002Y-107008000D01*
X151350802Y-107100312D01*
X151350802Y-107071582D01*
X151305469Y-106962139D01*
X151850991Y-106962139D01*
X152038367Y-107149516D01*
G36*
X155067000Y-84963000D02*
X155087000Y-84963000D01*
X155087000Y-85217000D01*
X155067000Y-85217000D01*
X155067000Y-86410155D01*
X155296890Y-86531476D01*
X155706924Y-86361645D01*
X156135183Y-85971358D01*
X156196157Y-85841522D01*
X156409375Y-86160625D01*
X156900582Y-86488839D01*
X157333744Y-86575000D01*
X157626256Y-86575000D01*
X158059418Y-86488839D01*
X158550625Y-86160625D01*
X158750000Y-85862239D01*
X158949375Y-86160625D01*
X159440582Y-86488839D01*
X159873744Y-86575000D01*
X160166256Y-86575000D01*
X160599418Y-86488839D01*
X161090625Y-86160625D01*
X161290000Y-85862239D01*
X161489375Y-86160625D01*
X161980582Y-86488839D01*
X162413744Y-86575000D01*
X162706256Y-86575000D01*
X163139418Y-86488839D01*
X163630625Y-86160625D01*
X163830000Y-85862239D01*
X164029375Y-86160625D01*
X164520582Y-86488839D01*
X164953744Y-86575000D01*
X165246256Y-86575000D01*
X165679418Y-86488839D01*
X166170625Y-86160625D01*
X166370000Y-85862239D01*
X166569375Y-86160625D01*
X167060582Y-86488839D01*
X167493744Y-86575000D01*
X167786256Y-86575000D01*
X168219418Y-86488839D01*
X168710625Y-86160625D01*
X168910000Y-85862239D01*
X169109375Y-86160625D01*
X169600582Y-86488839D01*
X170033744Y-86575000D01*
X170326256Y-86575000D01*
X170759418Y-86488839D01*
X171250625Y-86160625D01*
X171450000Y-85862239D01*
X171649375Y-86160625D01*
X172140582Y-86488839D01*
X172573744Y-86575000D01*
X172866256Y-86575000D01*
X173299418Y-86488839D01*
X173790625Y-86160625D01*
X173990000Y-85862239D01*
X174189375Y-86160625D01*
X174680582Y-86488839D01*
X175113744Y-86575000D01*
X175406256Y-86575000D01*
X175839418Y-86488839D01*
X176330625Y-86160625D01*
X176530000Y-85862239D01*
X176729375Y-86160625D01*
X177220582Y-86488839D01*
X177653744Y-86575000D01*
X177946256Y-86575000D01*
X178379418Y-86488839D01*
X178870625Y-86160625D01*
X179070000Y-85862239D01*
X179269375Y-86160625D01*
X179760582Y-86488839D01*
X180193744Y-86575000D01*
X180486256Y-86575000D01*
X180919418Y-86488839D01*
X181410625Y-86160625D01*
X181610000Y-85862239D01*
X181809375Y-86160625D01*
X182300582Y-86488839D01*
X182733744Y-86575000D01*
X183026256Y-86575000D01*
X183459418Y-86488839D01*
X183950625Y-86160625D01*
X184150000Y-85862239D01*
X184349375Y-86160625D01*
X184840582Y-86488839D01*
X185273744Y-86575000D01*
X185566256Y-86575000D01*
X185999418Y-86488839D01*
X186109622Y-86415203D01*
X187348586Y-87654167D01*
X187397960Y-87728060D01*
X187471853Y-87777434D01*
X187471854Y-87777435D01*
X187494685Y-87792690D01*
X187690699Y-87923663D01*
X187782307Y-87941885D01*
X188542577Y-88702156D01*
X188591951Y-88776049D01*
X188665844Y-88825423D01*
X188665845Y-88825424D01*
X188760993Y-88889000D01*
X188884690Y-88971652D01*
X189142835Y-89023000D01*
X189142839Y-89023000D01*
X189229999Y-89040337D01*
X189317159Y-89023000D01*
X196751984Y-89023000D01*
X196380959Y-89432577D01*
X196220096Y-89820961D01*
X196342085Y-90043000D01*
X197485000Y-90043000D01*
X197485000Y-90023000D01*
X197739000Y-90023000D01*
X197739000Y-90043000D01*
X198881915Y-90043000D01*
X199003904Y-89820961D01*
X198843041Y-89432577D01*
X198472016Y-89023000D01*
X200835100Y-89023000D01*
X201136963Y-89324863D01*
X201337674Y-89408000D01*
X201136963Y-89491137D01*
X200743137Y-89884963D01*
X200530000Y-90399523D01*
X200530000Y-90956477D01*
X200743137Y-91471037D01*
X201136963Y-91864863D01*
X201337674Y-91948000D01*
X201136963Y-92031137D01*
X200743137Y-92424963D01*
X200530000Y-92939523D01*
X200530000Y-93496477D01*
X200743137Y-94011037D01*
X201136963Y-94404863D01*
X201651523Y-94618000D01*
X202208477Y-94618000D01*
X202723037Y-94404863D01*
X203116863Y-94011037D01*
X203330000Y-93496477D01*
X203330000Y-92939523D01*
X203116863Y-92424963D01*
X202723037Y-92031137D01*
X202522326Y-91948000D01*
X202723037Y-91864863D01*
X203116863Y-91471037D01*
X203330000Y-90956477D01*
X203330000Y-90529579D01*
X203585001Y-90274578D01*
X203585001Y-95089001D01*
X198022131Y-95089001D01*
X198467134Y-94878389D01*
X198843041Y-94463423D01*
X199003904Y-94075039D01*
X198881915Y-93853000D01*
X197739000Y-93853000D01*
X197739000Y-93873000D01*
X197485000Y-93873000D01*
X197485000Y-93853000D01*
X196342085Y-93853000D01*
X196220096Y-94075039D01*
X196380959Y-94463423D01*
X196756866Y-94878389D01*
X197201869Y-95089001D01*
X182831260Y-95089001D01*
X183184862Y-94942534D01*
X183588534Y-94538862D01*
X183807000Y-94011439D01*
X183807000Y-93440561D01*
X183780656Y-93376961D01*
X196220096Y-93376961D01*
X196342085Y-93599000D01*
X197485000Y-93599000D01*
X197485000Y-92455371D01*
X197739000Y-92455371D01*
X197739000Y-93599000D01*
X198881915Y-93599000D01*
X199003904Y-93376961D01*
X198843041Y-92988577D01*
X198467134Y-92573611D01*
X197961041Y-92334086D01*
X197739000Y-92455371D01*
X197485000Y-92455371D01*
X197262959Y-92334086D01*
X196756866Y-92573611D01*
X196380959Y-92988577D01*
X196220096Y-93376961D01*
X183780656Y-93376961D01*
X183588534Y-92913138D01*
X183184862Y-92509466D01*
X182657439Y-92291000D01*
X182086561Y-92291000D01*
X181559138Y-92509466D01*
X181227604Y-92841000D01*
X176264579Y-92841000D01*
X175325945Y-91902367D01*
X175462670Y-91959000D01*
X176073330Y-91959000D01*
X176637507Y-91725310D01*
X176806725Y-91556092D01*
X176809843Y-91571765D01*
X176950191Y-91781809D01*
X177160235Y-91922157D01*
X177408000Y-91971440D01*
X179208000Y-91971440D01*
X179455765Y-91922157D01*
X179665809Y-91781809D01*
X179806157Y-91571765D01*
X179855440Y-91324000D01*
X179855440Y-91309000D01*
X181481604Y-91309000D01*
X181559138Y-91386534D01*
X182086561Y-91605000D01*
X182657439Y-91605000D01*
X183184862Y-91386534D01*
X183588534Y-90982862D01*
X183780655Y-90519039D01*
X196220096Y-90519039D01*
X196380959Y-90907423D01*
X196756866Y-91322389D01*
X197262959Y-91561914D01*
X197485000Y-91440629D01*
X197485000Y-90297000D01*
X197739000Y-90297000D01*
X197739000Y-91440629D01*
X197961041Y-91561914D01*
X198467134Y-91322389D01*
X198843041Y-90907423D01*
X199003904Y-90519039D01*
X198881915Y-90297000D01*
X197739000Y-90297000D01*
X197485000Y-90297000D01*
X196342085Y-90297000D01*
X196220096Y-90519039D01*
X183780655Y-90519039D01*
X183807000Y-90455439D01*
X183807000Y-89884561D01*
X183588534Y-89357138D01*
X183184862Y-88953466D01*
X182657439Y-88735000D01*
X182086561Y-88735000D01*
X181559138Y-88953466D01*
X181155466Y-89357138D01*
X181080136Y-89539000D01*
X179855440Y-89539000D01*
X179855440Y-89524000D01*
X179806157Y-89276235D01*
X179665809Y-89066191D01*
X179455765Y-88925843D01*
X179208000Y-88876560D01*
X177408000Y-88876560D01*
X177160235Y-88925843D01*
X176950191Y-89066191D01*
X176809843Y-89276235D01*
X176806725Y-89291908D01*
X176637507Y-89122690D01*
X176073330Y-88889000D01*
X175484579Y-88889000D01*
X173661425Y-87065847D01*
X173612049Y-86991951D01*
X173319310Y-86796348D01*
X173061165Y-86745000D01*
X173061161Y-86745000D01*
X172974000Y-86727663D01*
X172886839Y-86745000D01*
X152766579Y-86745000D01*
X152588230Y-86566651D01*
X152979418Y-86488839D01*
X153470625Y-86160625D01*
X153683843Y-85841522D01*
X153744817Y-85971358D01*
X154173076Y-86361645D01*
X154583110Y-86531476D01*
X154813000Y-86410155D01*
X154813000Y-85217000D01*
X154793000Y-85217000D01*
X154793000Y-84963000D01*
X154813000Y-84963000D01*
X154813000Y-84943000D01*
X155067000Y-84943000D01*
X155067000Y-84963000D01*
X155067000Y-84963000D01*
G37*
X155067000Y-84963000D02*
X155087000Y-84963000D01*
X155087000Y-85217000D01*
X155067000Y-85217000D01*
X155067000Y-86410155D01*
X155296890Y-86531476D01*
X155706924Y-86361645D01*
X156135183Y-85971358D01*
X156196157Y-85841522D01*
X156409375Y-86160625D01*
X156900582Y-86488839D01*
X157333744Y-86575000D01*
X157626256Y-86575000D01*
X158059418Y-86488839D01*
X158550625Y-86160625D01*
X158750000Y-85862239D01*
X158949375Y-86160625D01*
X159440582Y-86488839D01*
X159873744Y-86575000D01*
X160166256Y-86575000D01*
X160599418Y-86488839D01*
X161090625Y-86160625D01*
X161290000Y-85862239D01*
X161489375Y-86160625D01*
X161980582Y-86488839D01*
X162413744Y-86575000D01*
X162706256Y-86575000D01*
X163139418Y-86488839D01*
X163630625Y-86160625D01*
X163830000Y-85862239D01*
X164029375Y-86160625D01*
X164520582Y-86488839D01*
X164953744Y-86575000D01*
X165246256Y-86575000D01*
X165679418Y-86488839D01*
X166170625Y-86160625D01*
X166370000Y-85862239D01*
X166569375Y-86160625D01*
X167060582Y-86488839D01*
X167493744Y-86575000D01*
X167786256Y-86575000D01*
X168219418Y-86488839D01*
X168710625Y-86160625D01*
X168910000Y-85862239D01*
X169109375Y-86160625D01*
X169600582Y-86488839D01*
X170033744Y-86575000D01*
X170326256Y-86575000D01*
X170759418Y-86488839D01*
X171250625Y-86160625D01*
X171450000Y-85862239D01*
X171649375Y-86160625D01*
X172140582Y-86488839D01*
X172573744Y-86575000D01*
X172866256Y-86575000D01*
X173299418Y-86488839D01*
X173790625Y-86160625D01*
X173990000Y-85862239D01*
X174189375Y-86160625D01*
X174680582Y-86488839D01*
X175113744Y-86575000D01*
X175406256Y-86575000D01*
X175839418Y-86488839D01*
X176330625Y-86160625D01*
X176530000Y-85862239D01*
X176729375Y-86160625D01*
X177220582Y-86488839D01*
X177653744Y-86575000D01*
X177946256Y-86575000D01*
X178379418Y-86488839D01*
X178870625Y-86160625D01*
X179070000Y-85862239D01*
X179269375Y-86160625D01*
X179760582Y-86488839D01*
X180193744Y-86575000D01*
X180486256Y-86575000D01*
X180919418Y-86488839D01*
X181410625Y-86160625D01*
X181610000Y-85862239D01*
X181809375Y-86160625D01*
X182300582Y-86488839D01*
X182733744Y-86575000D01*
X183026256Y-86575000D01*
X183459418Y-86488839D01*
X183950625Y-86160625D01*
X184150000Y-85862239D01*
X184349375Y-86160625D01*
X184840582Y-86488839D01*
X185273744Y-86575000D01*
X185566256Y-86575000D01*
X185999418Y-86488839D01*
X186109622Y-86415203D01*
X187348586Y-87654167D01*
X187397960Y-87728060D01*
X187471853Y-87777434D01*
X187471854Y-87777435D01*
X187494685Y-87792690D01*
X187690699Y-87923663D01*
X187782307Y-87941885D01*
X188542577Y-88702156D01*
X188591951Y-88776049D01*
X188665844Y-88825423D01*
X188665845Y-88825424D01*
X188760993Y-88889000D01*
X188884690Y-88971652D01*
X189142835Y-89023000D01*
X189142839Y-89023000D01*
X189229999Y-89040337D01*
X189317159Y-89023000D01*
X196751984Y-89023000D01*
X196380959Y-89432577D01*
X196220096Y-89820961D01*
X196342085Y-90043000D01*
X197485000Y-90043000D01*
X197485000Y-90023000D01*
X197739000Y-90023000D01*
X197739000Y-90043000D01*
X198881915Y-90043000D01*
X199003904Y-89820961D01*
X198843041Y-89432577D01*
X198472016Y-89023000D01*
X200835100Y-89023000D01*
X201136963Y-89324863D01*
X201337674Y-89408000D01*
X201136963Y-89491137D01*
X200743137Y-89884963D01*
X200530000Y-90399523D01*
X200530000Y-90956477D01*
X200743137Y-91471037D01*
X201136963Y-91864863D01*
X201337674Y-91948000D01*
X201136963Y-92031137D01*
X200743137Y-92424963D01*
X200530000Y-92939523D01*
X200530000Y-93496477D01*
X200743137Y-94011037D01*
X201136963Y-94404863D01*
X201651523Y-94618000D01*
X202208477Y-94618000D01*
X202723037Y-94404863D01*
X203116863Y-94011037D01*
X203330000Y-93496477D01*
X203330000Y-92939523D01*
X203116863Y-92424963D01*
X202723037Y-92031137D01*
X202522326Y-91948000D01*
X202723037Y-91864863D01*
X203116863Y-91471037D01*
X203330000Y-90956477D01*
X203330000Y-90529579D01*
X203585001Y-90274578D01*
X203585001Y-95089001D01*
X198022131Y-95089001D01*
X198467134Y-94878389D01*
X198843041Y-94463423D01*
X199003904Y-94075039D01*
X198881915Y-93853000D01*
X197739000Y-93853000D01*
X197739000Y-93873000D01*
X197485000Y-93873000D01*
X197485000Y-93853000D01*
X196342085Y-93853000D01*
X196220096Y-94075039D01*
X196380959Y-94463423D01*
X196756866Y-94878389D01*
X197201869Y-95089001D01*
X182831260Y-95089001D01*
X183184862Y-94942534D01*
X183588534Y-94538862D01*
X183807000Y-94011439D01*
X183807000Y-93440561D01*
X183780656Y-93376961D01*
X196220096Y-93376961D01*
X196342085Y-93599000D01*
X197485000Y-93599000D01*
X197485000Y-92455371D01*
X197739000Y-92455371D01*
X197739000Y-93599000D01*
X198881915Y-93599000D01*
X199003904Y-93376961D01*
X198843041Y-92988577D01*
X198467134Y-92573611D01*
X197961041Y-92334086D01*
X197739000Y-92455371D01*
X197485000Y-92455371D01*
X197262959Y-92334086D01*
X196756866Y-92573611D01*
X196380959Y-92988577D01*
X196220096Y-93376961D01*
X183780656Y-93376961D01*
X183588534Y-92913138D01*
X183184862Y-92509466D01*
X182657439Y-92291000D01*
X182086561Y-92291000D01*
X181559138Y-92509466D01*
X181227604Y-92841000D01*
X176264579Y-92841000D01*
X175325945Y-91902367D01*
X175462670Y-91959000D01*
X176073330Y-91959000D01*
X176637507Y-91725310D01*
X176806725Y-91556092D01*
X176809843Y-91571765D01*
X176950191Y-91781809D01*
X177160235Y-91922157D01*
X177408000Y-91971440D01*
X179208000Y-91971440D01*
X179455765Y-91922157D01*
X179665809Y-91781809D01*
X179806157Y-91571765D01*
X179855440Y-91324000D01*
X179855440Y-91309000D01*
X181481604Y-91309000D01*
X181559138Y-91386534D01*
X182086561Y-91605000D01*
X182657439Y-91605000D01*
X183184862Y-91386534D01*
X183588534Y-90982862D01*
X183780655Y-90519039D01*
X196220096Y-90519039D01*
X196380959Y-90907423D01*
X196756866Y-91322389D01*
X197262959Y-91561914D01*
X197485000Y-91440629D01*
X197485000Y-90297000D01*
X197739000Y-90297000D01*
X197739000Y-91440629D01*
X197961041Y-91561914D01*
X198467134Y-91322389D01*
X198843041Y-90907423D01*
X199003904Y-90519039D01*
X198881915Y-90297000D01*
X197739000Y-90297000D01*
X197485000Y-90297000D01*
X196342085Y-90297000D01*
X196220096Y-90519039D01*
X183780655Y-90519039D01*
X183807000Y-90455439D01*
X183807000Y-89884561D01*
X183588534Y-89357138D01*
X183184862Y-88953466D01*
X182657439Y-88735000D01*
X182086561Y-88735000D01*
X181559138Y-88953466D01*
X181155466Y-89357138D01*
X181080136Y-89539000D01*
X179855440Y-89539000D01*
X179855440Y-89524000D01*
X179806157Y-89276235D01*
X179665809Y-89066191D01*
X179455765Y-88925843D01*
X179208000Y-88876560D01*
X177408000Y-88876560D01*
X177160235Y-88925843D01*
X176950191Y-89066191D01*
X176809843Y-89276235D01*
X176806725Y-89291908D01*
X176637507Y-89122690D01*
X176073330Y-88889000D01*
X175484579Y-88889000D01*
X173661425Y-87065847D01*
X173612049Y-86991951D01*
X173319310Y-86796348D01*
X173061165Y-86745000D01*
X173061161Y-86745000D01*
X172974000Y-86727663D01*
X172886839Y-86745000D01*
X152766579Y-86745000D01*
X152588230Y-86566651D01*
X152979418Y-86488839D01*
X153470625Y-86160625D01*
X153683843Y-85841522D01*
X153744817Y-85971358D01*
X154173076Y-86361645D01*
X154583110Y-86531476D01*
X154813000Y-86410155D01*
X154813000Y-85217000D01*
X154793000Y-85217000D01*
X154793000Y-84963000D01*
X154813000Y-84963000D01*
X154813000Y-84943000D01*
X155067000Y-84943000D01*
X155067000Y-84963000D01*
G36*
X203157588Y-84775167D02*
X203206962Y-84849060D01*
X203280855Y-84898434D01*
X203280856Y-84898435D01*
X203377484Y-84963000D01*
X203499701Y-85044663D01*
X203585000Y-85061630D01*
X203585000Y-86743220D01*
X203159578Y-86317798D01*
X203342132Y-85806414D01*
X203314396Y-85250150D01*
X203154883Y-84865051D01*
X202912387Y-84795218D01*
X202109605Y-85598000D01*
X202123748Y-85612143D01*
X201944143Y-85791748D01*
X201930000Y-85777605D01*
X201915858Y-85791748D01*
X201736253Y-85612143D01*
X201750395Y-85598000D01*
X200947613Y-84795218D01*
X200705117Y-84865051D01*
X200517868Y-85389586D01*
X200545604Y-85945850D01*
X200560992Y-85983000D01*
X199521835Y-85983000D01*
X199434674Y-85965663D01*
X199347513Y-85983000D01*
X199347509Y-85983000D01*
X199089364Y-86034348D01*
X198870519Y-86180576D01*
X198870518Y-86180577D01*
X198796625Y-86229951D01*
X198747251Y-86303845D01*
X198498106Y-86552990D01*
X195836908Y-86552990D01*
X196159418Y-86488839D01*
X196650625Y-86160625D01*
X196978839Y-85669418D01*
X197094092Y-85090000D01*
X196999731Y-84615613D01*
X201127218Y-84615613D01*
X201930000Y-85418395D01*
X202732782Y-84615613D01*
X202662949Y-84373117D01*
X202138414Y-84185868D01*
X201582150Y-84213604D01*
X201197051Y-84373117D01*
X201127218Y-84615613D01*
X196999731Y-84615613D01*
X196978839Y-84510582D01*
X196650625Y-84019375D01*
X196632381Y-84007184D01*
X196677765Y-83998157D01*
X196887809Y-83857809D01*
X197028157Y-83647765D01*
X197077440Y-83400000D01*
X197077440Y-81700000D01*
X197028157Y-81452235D01*
X197006625Y-81420010D01*
X199802432Y-81420010D01*
X203157588Y-84775167D01*
X203157588Y-84775167D01*
G37*
X203157588Y-84775167D02*
X203206962Y-84849060D01*
X203280855Y-84898434D01*
X203280856Y-84898435D01*
X203377484Y-84963000D01*
X203499701Y-85044663D01*
X203585000Y-85061630D01*
X203585000Y-86743220D01*
X203159578Y-86317798D01*
X203342132Y-85806414D01*
X203314396Y-85250150D01*
X203154883Y-84865051D01*
X202912387Y-84795218D01*
X202109605Y-85598000D01*
X202123748Y-85612143D01*
X201944143Y-85791748D01*
X201930000Y-85777605D01*
X201915858Y-85791748D01*
X201736253Y-85612143D01*
X201750395Y-85598000D01*
X200947613Y-84795218D01*
X200705117Y-84865051D01*
X200517868Y-85389586D01*
X200545604Y-85945850D01*
X200560992Y-85983000D01*
X199521835Y-85983000D01*
X199434674Y-85965663D01*
X199347513Y-85983000D01*
X199347509Y-85983000D01*
X199089364Y-86034348D01*
X198870519Y-86180576D01*
X198870518Y-86180577D01*
X198796625Y-86229951D01*
X198747251Y-86303845D01*
X198498106Y-86552990D01*
X195836908Y-86552990D01*
X196159418Y-86488839D01*
X196650625Y-86160625D01*
X196978839Y-85669418D01*
X197094092Y-85090000D01*
X196999731Y-84615613D01*
X201127218Y-84615613D01*
X201930000Y-85418395D01*
X202732782Y-84615613D01*
X202662949Y-84373117D01*
X202138414Y-84185868D01*
X201582150Y-84213604D01*
X201197051Y-84373117D01*
X201127218Y-84615613D01*
X196999731Y-84615613D01*
X196978839Y-84510582D01*
X196650625Y-84019375D01*
X196632381Y-84007184D01*
X196677765Y-83998157D01*
X196887809Y-83857809D01*
X197028157Y-83647765D01*
X197077440Y-83400000D01*
X197077440Y-81700000D01*
X197028157Y-81452235D01*
X197006625Y-81420010D01*
X199802432Y-81420010D01*
X203157588Y-84775167D01*
G36*
X191969375Y-86160625D02*
X192460582Y-86488839D01*
X192783092Y-86552990D01*
X190674569Y-86552990D01*
X190627002Y-86505423D01*
X190627002Y-86410156D01*
X190856890Y-86531476D01*
X191266924Y-86361645D01*
X191695183Y-85971358D01*
X191756157Y-85841522D01*
X191969375Y-86160625D01*
X191969375Y-86160625D01*
G37*
X191969375Y-86160625D02*
X192460582Y-86488839D01*
X192783092Y-86552990D01*
X190674569Y-86552990D01*
X190627002Y-86505423D01*
X190627002Y-86410156D01*
X190856890Y-86531476D01*
X191266924Y-86361645D01*
X191695183Y-85971358D01*
X191756157Y-85841522D01*
X191969375Y-86160625D01*
G36*
X190627000Y-84963000D02*
X190647000Y-84963000D01*
X190647000Y-85217000D01*
X190627000Y-85217000D01*
X190627000Y-85237000D01*
X190373000Y-85237000D01*
X190373000Y-85217000D01*
X190353000Y-85217000D01*
X190353000Y-84963000D01*
X190373000Y-84963000D01*
X190373000Y-84943000D01*
X190627000Y-84943000D01*
X190627000Y-84963000D01*
X190627000Y-84963000D01*
G37*
X190627000Y-84963000D02*
X190647000Y-84963000D01*
X190647000Y-85217000D01*
X190627000Y-85217000D01*
X190627000Y-85237000D01*
X190373000Y-85237000D01*
X190373000Y-85217000D01*
X190353000Y-85217000D01*
X190353000Y-84963000D01*
X190373000Y-84963000D01*
X190373000Y-84943000D01*
X190627000Y-84943000D01*
X190627000Y-84963000D01*
G04 #@! TD*
M02*
