G04 #@! TF.GenerationSoftware,KiCad,Pcbnew,(5.0.2)-1*
G04 #@! TF.CreationDate,2021-01-03T19:43:25+01:00*
G04 #@! TF.ProjectId,Radmesser,5261646d-6573-4736-9572-2e6b69636164,rev?*
G04 #@! TF.SameCoordinates,Original*
G04 #@! TF.FileFunction,Copper,L2,Bot*
G04 #@! TF.FilePolarity,Positive*
%FSLAX46Y46*%
G04 Gerber Fmt 4.6, Leading zero omitted, Abs format (unit mm)*
G04 Created by KiCad (PCBNEW (5.0.2)-1) date 03.01.2021 19:43:25*
%MOMM*%
%LPD*%
G01*
G04 APERTURE LIST*
G04 #@! TA.AperFunction,ComponentPad*
%ADD10C,1.600000*%
G04 #@! TD*
G04 #@! TA.AperFunction,Conductor*
%ADD11C,1.600000*%
G04 #@! TD*
G04 #@! TA.AperFunction,ComponentPad*
%ADD12C,1.530000*%
G04 #@! TD*
G04 #@! TA.AperFunction,ComponentPad*
%ADD13R,1.800000X1.800000*%
G04 #@! TD*
G04 #@! TA.AperFunction,ComponentPad*
%ADD14C,1.800000*%
G04 #@! TD*
G04 #@! TA.AperFunction,ComponentPad*
%ADD15O,1.700000X1.700000*%
G04 #@! TD*
G04 #@! TA.AperFunction,ComponentPad*
%ADD16R,1.700000X1.700000*%
G04 #@! TD*
G04 #@! TA.AperFunction,ComponentPad*
%ADD17O,1.000000X1.000000*%
G04 #@! TD*
G04 #@! TA.AperFunction,ComponentPad*
%ADD18R,1.000000X1.000000*%
G04 #@! TD*
G04 #@! TA.AperFunction,ComponentPad*
%ADD19C,1.200000*%
G04 #@! TD*
G04 #@! TA.AperFunction,ComponentPad*
%ADD20R,1.200000X1.200000*%
G04 #@! TD*
G04 #@! TA.AperFunction,ComponentPad*
%ADD21O,1.600000X1.600000*%
G04 #@! TD*
G04 #@! TA.AperFunction,Conductor*
%ADD22C,0.500000*%
G04 #@! TD*
G04 #@! TA.AperFunction,Conductor*
%ADD23C,0.254000*%
G04 #@! TD*
G04 APERTURE END LIST*
D10*
G04 #@! TO.P,R6,1*
G04 #@! TO.N,Net-(J1-Pad40)*
X149606000Y-97790000D03*
G04 #@! TO.P,R6,2*
G04 #@! TO.N,Net-(Dgrun1-Pad2)*
X156966355Y-99762201D03*
D11*
G04 #@! TD*
G04 #@! TO.N,Net-(Dgrun1-Pad2)*
G04 #@! TO.C,R6*
X156966355Y-99762201D02*
X156966355Y-99762201D01*
D12*
G04 #@! TO.P,Uvorne1,2*
G04 #@! TO.N,Net-(J1-Pad16)*
X147509198Y-100299941D03*
G04 #@! TO.P,Uvorne1,3*
G04 #@! TO.N,Net-(R4-Pad1)*
X149950802Y-101000059D03*
G04 #@! TO.P,Uvorne1,4*
G04 #@! TO.N,GND*
X152392407Y-101700179D03*
G04 #@! TO.P,Uvorne1,1*
G04 #@! TO.N,Net-(J1-Pad2)*
X145067593Y-99599821D03*
G04 #@! TD*
G04 #@! TO.P,Uhinten2,1*
G04 #@! TO.N,Net-(J1-Pad2)*
X190067593Y-101700180D03*
G04 #@! TO.P,Uhinten2,4*
G04 #@! TO.N,GND*
X197392407Y-99599820D03*
G04 #@! TO.P,Uhinten2,3*
G04 #@! TO.N,Net-(R2-Pad1)*
X194950802Y-100299941D03*
G04 #@! TO.P,Uhinten2,2*
G04 #@! TO.N,Net-(J1-Pad16)*
X192509198Y-101000059D03*
G04 #@! TD*
D13*
G04 #@! TO.P,Drot2,1*
G04 #@! TO.N,GND*
X186182000Y-99822000D03*
D14*
G04 #@! TO.P,Drot2,2*
G04 #@! TO.N,Net-(Drot2-Pad2)*
X183642000Y-99822000D03*
G04 #@! TD*
G04 #@! TO.P,Dgrun1,2*
G04 #@! TO.N,Net-(Dgrun1-Pad2)*
X177038000Y-99822000D03*
D13*
G04 #@! TO.P,Dgrun1,1*
G04 #@! TO.N,GND*
X179578000Y-99822000D03*
G04 #@! TD*
D12*
G04 #@! TO.P,GPS1,2*
G04 #@! TO.N,Net-(GPS1-Pad2)*
X189992000Y-84582000D03*
G04 #@! TO.P,GPS1,3*
G04 #@! TO.N,Net-(GPS1-Pad3)*
X187452000Y-84582000D03*
G04 #@! TO.P,GPS1,4*
G04 #@! TO.N,GND*
X184912000Y-84582000D03*
G04 #@! TO.P,GPS1,1*
G04 #@! TO.N,Net-(GPS1-Pad1)*
X192532000Y-84582000D03*
G04 #@! TD*
D15*
G04 #@! TO.P,J1,40*
G04 #@! TO.N,Net-(J1-Pad40)*
X146304000Y-94488000D03*
G04 #@! TO.P,J1,39*
G04 #@! TO.N,GND*
X146304000Y-91948000D03*
G04 #@! TO.P,J1,38*
G04 #@! TO.N,Net-(J1-Pad38)*
X148844000Y-94488000D03*
G04 #@! TO.P,J1,37*
G04 #@! TO.N,Net-(J1-Pad37)*
X148844000Y-91948000D03*
G04 #@! TO.P,J1,36*
G04 #@! TO.N,Net-(J1-Pad36)*
X151384000Y-94488000D03*
G04 #@! TO.P,J1,35*
G04 #@! TO.N,Net-(J1-Pad35)*
X151384000Y-91948000D03*
G04 #@! TO.P,J1,34*
G04 #@! TO.N,GND*
X153924000Y-94488000D03*
G04 #@! TO.P,J1,33*
G04 #@! TO.N,Net-(J1-Pad33)*
X153924000Y-91948000D03*
G04 #@! TO.P,J1,32*
G04 #@! TO.N,Net-(J1-Pad32)*
X156464000Y-94488000D03*
G04 #@! TO.P,J1,31*
G04 #@! TO.N,Net-(J1-Pad31)*
X156464000Y-91948000D03*
G04 #@! TO.P,J1,30*
G04 #@! TO.N,Net-(J1-Pad30)*
X159004000Y-94488000D03*
G04 #@! TO.P,J1,29*
G04 #@! TO.N,Net-(J1-Pad29)*
X159004000Y-91948000D03*
G04 #@! TO.P,J1,28*
G04 #@! TO.N,Net-(J1-Pad28)*
X161544000Y-94488000D03*
G04 #@! TO.P,J1,27*
G04 #@! TO.N,Net-(J1-Pad27)*
X161544000Y-91948000D03*
G04 #@! TO.P,J1,26*
G04 #@! TO.N,Net-(J1-Pad26)*
X164084000Y-94488000D03*
G04 #@! TO.P,J1,25*
G04 #@! TO.N,Net-(J1-Pad25)*
X164084000Y-91948000D03*
G04 #@! TO.P,J1,24*
G04 #@! TO.N,Net-(J1-Pad24)*
X166624000Y-94488000D03*
G04 #@! TO.P,J1,23*
G04 #@! TO.N,Net-(J1-Pad23)*
X166624000Y-91948000D03*
G04 #@! TO.P,J1,22*
G04 #@! TO.N,Net-(J1-Pad22)*
X169164000Y-94488000D03*
G04 #@! TO.P,J1,21*
G04 #@! TO.N,Net-(J1-Pad21)*
X169164000Y-91948000D03*
G04 #@! TO.P,J1,20*
G04 #@! TO.N,Net-(J1-Pad20)*
X171704000Y-94488000D03*
G04 #@! TO.P,J1,19*
G04 #@! TO.N,Net-(J1-Pad19)*
X171704000Y-91948000D03*
G04 #@! TO.P,J1,18*
G04 #@! TO.N,Net-(J1-Pad18)*
X174244000Y-94488000D03*
G04 #@! TO.P,J1,17*
G04 #@! TO.N,Net-(J1-Pad17)*
X174244000Y-91948000D03*
G04 #@! TO.P,J1,16*
G04 #@! TO.N,Net-(J1-Pad16)*
X176784000Y-94488000D03*
G04 #@! TO.P,J1,15*
G04 #@! TO.N,Net-(J1-Pad15)*
X176784000Y-91948000D03*
G04 #@! TO.P,J1,14*
G04 #@! TO.N,Net-(J1-Pad14)*
X179324000Y-94488000D03*
G04 #@! TO.P,J1,13*
G04 #@! TO.N,Net-(J1-Pad13)*
X179324000Y-91948000D03*
G04 #@! TO.P,J1,12*
G04 #@! TO.N,Net-(J1-Pad12)*
X181864000Y-94488000D03*
G04 #@! TO.P,J1,11*
G04 #@! TO.N,Net-(J1-Pad11)*
X181864000Y-91948000D03*
G04 #@! TO.P,J1,10*
G04 #@! TO.N,Net-(GPS1-Pad3)*
X184404000Y-94488000D03*
G04 #@! TO.P,J1,9*
G04 #@! TO.N,Net-(J1-Pad9)*
X184404000Y-91948000D03*
G04 #@! TO.P,J1,8*
G04 #@! TO.N,Net-(GPS1-Pad2)*
X186944000Y-94488000D03*
G04 #@! TO.P,J1,7*
G04 #@! TO.N,Net-(J1-Pad7)*
X186944000Y-91948000D03*
G04 #@! TO.P,J1,6*
G04 #@! TO.N,GND*
X189484000Y-94488000D03*
G04 #@! TO.P,J1,5*
G04 #@! TO.N,Net-(J1-Pad5)*
X189484000Y-91948000D03*
G04 #@! TO.P,J1,4*
G04 #@! TO.N,Net-(J1-Pad4)*
X192024000Y-94488000D03*
G04 #@! TO.P,J1,3*
G04 #@! TO.N,Net-(J1-Pad3)*
X192024000Y-91948000D03*
G04 #@! TO.P,J1,2*
G04 #@! TO.N,Net-(J1-Pad2)*
X194564000Y-94488000D03*
D16*
G04 #@! TO.P,J1,1*
G04 #@! TO.N,Net-(GPS1-Pad1)*
X194564000Y-91948000D03*
G04 #@! TD*
D17*
G04 #@! TO.P,U3,3*
G04 #@! TO.N,Net-(GPS1-Pad1)*
X180848000Y-88646000D03*
G04 #@! TO.P,U3,2*
G04 #@! TO.N,Net-(J1-Pad7)*
X179578000Y-88646000D03*
D18*
G04 #@! TO.P,U3,1*
G04 #@! TO.N,GND*
X178308000Y-88646000D03*
G04 #@! TD*
D19*
G04 #@! TO.P,SW1,2*
G04 #@! TO.N,Net-(J1-Pad17)*
X148312000Y-88138000D03*
D20*
G04 #@! TO.P,SW1,1*
G04 #@! TO.N,Net-(J1-Pad31)*
X146812000Y-88138000D03*
G04 #@! TD*
D21*
G04 #@! TO.P,R1,2*
G04 #@! TO.N,GND*
X151130000Y-85344000D03*
D10*
G04 #@! TO.P,R1,1*
G04 #@! TO.N,Net-(J1-Pad13)*
X161290000Y-85344000D03*
G04 #@! TD*
G04 #@! TO.P,R2,1*
G04 #@! TO.N,Net-(R2-Pad1)*
X173736000Y-85344000D03*
D21*
G04 #@! TO.P,R2,2*
G04 #@! TO.N,Net-(J1-Pad13)*
X163576000Y-85344000D03*
G04 #@! TD*
G04 #@! TO.P,R3,2*
G04 #@! TO.N,GND*
X168148000Y-82042000D03*
D10*
G04 #@! TO.P,R3,1*
G04 #@! TO.N,Net-(J1-Pad11)*
X157988000Y-82042000D03*
G04 #@! TD*
G04 #@! TO.P,R4,1*
G04 #@! TO.N,Net-(R4-Pad1)*
X144780000Y-82042000D03*
D21*
G04 #@! TO.P,R4,2*
G04 #@! TO.N,Net-(J1-Pad11)*
X154940000Y-82042000D03*
G04 #@! TD*
G04 #@! TO.P,R7,2*
G04 #@! TO.N,Net-(J1-Pad7)*
X164084000Y-88646000D03*
D10*
G04 #@! TO.P,R7,1*
G04 #@! TO.N,Net-(GPS1-Pad1)*
X174244000Y-88646000D03*
G04 #@! TD*
G04 #@! TO.P,R8,1*
G04 #@! TO.N,Net-(J1-Pad31)*
X161290000Y-88646000D03*
D21*
G04 #@! TO.P,R8,2*
G04 #@! TO.N,GND*
X151130000Y-88646000D03*
G04 #@! TD*
D14*
G04 #@! TO.P,Dgelb3,2*
G04 #@! TO.N,Net-(Dgelb3-Pad2)*
X170434000Y-99822000D03*
D13*
G04 #@! TO.P,Dgelb3,1*
G04 #@! TO.N,GND*
X172974000Y-99822000D03*
G04 #@! TD*
D21*
G04 #@! TO.P,R5,2*
G04 #@! TO.N,Net-(Drot2-Pad2)*
X167386000Y-101346000D03*
D10*
G04 #@! TO.P,R5,1*
G04 #@! TO.N,Net-(J1-Pad38)*
X159766000Y-101346000D03*
G04 #@! TD*
D21*
G04 #@! TO.P,R9,2*
G04 #@! TO.N,Net-(Dgelb3-Pad2)*
X167386000Y-97790000D03*
D10*
G04 #@! TO.P,R9,1*
G04 #@! TO.N,Net-(J1-Pad36)*
X159766000Y-97790000D03*
G04 #@! TD*
D22*
G04 #@! TO.N,Net-(GPS1-Pad1)*
X194564000Y-86614000D02*
X192532000Y-84582000D01*
X194564000Y-91948000D02*
X194564000Y-86614000D01*
X188468000Y-88646000D02*
X192532000Y-84582000D01*
X180848000Y-88646000D02*
X188468000Y-88646000D01*
X175043999Y-89445999D02*
X174244000Y-88646000D01*
X175194001Y-89596001D02*
X175043999Y-89445999D01*
X180605105Y-89596001D02*
X175194001Y-89596001D01*
X180848000Y-89353106D02*
X180605105Y-89596001D01*
X180848000Y-88646000D02*
X180848000Y-89353106D01*
G04 #@! TO.N,Net-(J1-Pad7)*
X164084000Y-88646000D02*
X165862000Y-86868000D01*
X179578000Y-87938894D02*
X179578000Y-88646000D01*
X178507106Y-86868000D02*
X179578000Y-87938894D01*
X165862000Y-86868000D02*
X178507106Y-86868000D01*
G04 #@! TO.N,Net-(J1-Pad2)*
X190067593Y-98984407D02*
X190067593Y-101700180D01*
X194564000Y-94488000D02*
X190067593Y-98984407D01*
X145832592Y-100421537D02*
X148535055Y-103124000D01*
X145067593Y-99599821D02*
X145832592Y-100364820D01*
X145832592Y-100364820D02*
X145832592Y-100421537D01*
X188643773Y-103124000D02*
X190067593Y-101700180D01*
X148535055Y-103124000D02*
X188643773Y-103124000D01*
G04 #@! TD*
D23*
G04 #@! TO.N,GND*
G36*
X153905423Y-81007423D02*
X153588260Y-81482091D01*
X153476887Y-82042000D01*
X153588260Y-82601909D01*
X153905423Y-83076577D01*
X154380091Y-83393740D01*
X154798667Y-83477000D01*
X155081333Y-83477000D01*
X155499909Y-83393740D01*
X155974577Y-83076577D01*
X156291740Y-82601909D01*
X156403113Y-82042000D01*
X156291740Y-81482091D01*
X155974577Y-81007423D01*
X155753943Y-80860000D01*
X157140604Y-80860000D01*
X156771466Y-81229138D01*
X156553000Y-81756561D01*
X156553000Y-82327439D01*
X156771466Y-82854862D01*
X157175138Y-83258534D01*
X157702561Y-83477000D01*
X158273439Y-83477000D01*
X158800862Y-83258534D01*
X159204534Y-82854862D01*
X159396655Y-82391039D01*
X166756096Y-82391039D01*
X166916959Y-82779423D01*
X167292866Y-83194389D01*
X167798959Y-83433914D01*
X168021000Y-83312629D01*
X168021000Y-82169000D01*
X168275000Y-82169000D01*
X168275000Y-83312629D01*
X168497041Y-83433914D01*
X169003134Y-83194389D01*
X169379041Y-82779423D01*
X169539904Y-82391039D01*
X169417915Y-82169000D01*
X168275000Y-82169000D01*
X168021000Y-82169000D01*
X166878085Y-82169000D01*
X166756096Y-82391039D01*
X159396655Y-82391039D01*
X159423000Y-82327439D01*
X159423000Y-81756561D01*
X159204534Y-81229138D01*
X158835396Y-80860000D01*
X167355431Y-80860000D01*
X167292866Y-80889611D01*
X166916959Y-81304577D01*
X166756096Y-81692961D01*
X166878085Y-81915000D01*
X168021000Y-81915000D01*
X168021000Y-81895000D01*
X168275000Y-81895000D01*
X168275000Y-81915000D01*
X169417915Y-81915000D01*
X169539904Y-81692961D01*
X169379041Y-81304577D01*
X169003134Y-80889611D01*
X168940569Y-80860000D01*
X199513890Y-80860000D01*
X200025000Y-82177449D01*
X200025000Y-103322055D01*
X199759183Y-103430043D01*
X189587508Y-103431844D01*
X189919171Y-103100180D01*
X190346070Y-103100180D01*
X190860630Y-102887043D01*
X191254456Y-102493217D01*
X191467593Y-101978657D01*
X191467593Y-101938354D01*
X191716161Y-102186922D01*
X192230721Y-102400059D01*
X192787675Y-102400059D01*
X193302235Y-102186922D01*
X193696061Y-101793096D01*
X193909198Y-101278536D01*
X193909198Y-101238237D01*
X194157765Y-101486804D01*
X194672325Y-101699941D01*
X195229279Y-101699941D01*
X195743839Y-101486804D01*
X196137665Y-101092978D01*
X196273340Y-100765428D01*
X196891506Y-100765428D01*
X197025475Y-100979281D01*
X197581303Y-101014695D01*
X198108373Y-100834707D01*
X198434586Y-100575225D01*
X198434873Y-100322874D01*
X197441913Y-99772468D01*
X196891506Y-100765428D01*
X196273340Y-100765428D01*
X196350802Y-100578418D01*
X196350802Y-100558774D01*
X196417002Y-100641999D01*
X196669353Y-100642286D01*
X197219759Y-99649326D01*
X197041137Y-99550314D01*
X197565055Y-99550314D01*
X198558015Y-100100721D01*
X198771868Y-99966752D01*
X198807282Y-99410924D01*
X198627294Y-98883854D01*
X198367812Y-98557641D01*
X198115461Y-98557354D01*
X197565055Y-99550314D01*
X197041137Y-99550314D01*
X196226799Y-99098919D01*
X196012946Y-99232888D01*
X196004003Y-99373242D01*
X195743839Y-99113078D01*
X195229279Y-98899941D01*
X194672325Y-98899941D01*
X194157765Y-99113078D01*
X193763939Y-99506904D01*
X193550802Y-100021464D01*
X193550802Y-100061763D01*
X193302235Y-99813196D01*
X192787675Y-99600059D01*
X192230721Y-99600059D01*
X191716161Y-99813196D01*
X191322335Y-100207022D01*
X191109198Y-100721582D01*
X191109198Y-100761885D01*
X190952593Y-100605280D01*
X190952593Y-99350985D01*
X191426812Y-98876766D01*
X196349941Y-98876766D01*
X197342901Y-99427172D01*
X197893308Y-98434212D01*
X197759339Y-98220359D01*
X197203511Y-98184945D01*
X196676441Y-98364933D01*
X196350228Y-98624415D01*
X196349941Y-98876766D01*
X191426812Y-98876766D01*
X194345040Y-95958538D01*
X194417744Y-95973000D01*
X194710256Y-95973000D01*
X195143418Y-95886839D01*
X195634625Y-95558625D01*
X195962839Y-95067418D01*
X196078092Y-94488000D01*
X195962839Y-93908582D01*
X195634625Y-93417375D01*
X195616381Y-93405184D01*
X195661765Y-93396157D01*
X195871809Y-93255809D01*
X196012157Y-93045765D01*
X196061440Y-92798000D01*
X196061440Y-91098000D01*
X196012157Y-90850235D01*
X195871809Y-90640191D01*
X195661765Y-90499843D01*
X195449000Y-90457522D01*
X195449000Y-86701161D01*
X195466337Y-86614000D01*
X195449000Y-86526839D01*
X195449000Y-86526835D01*
X195397652Y-86268690D01*
X195202049Y-85975951D01*
X195128156Y-85926577D01*
X193932000Y-84730422D01*
X193932000Y-84303523D01*
X193718863Y-83788963D01*
X193325037Y-83395137D01*
X192810477Y-83182000D01*
X192253523Y-83182000D01*
X191738963Y-83395137D01*
X191345137Y-83788963D01*
X191262000Y-83989674D01*
X191178863Y-83788963D01*
X190785037Y-83395137D01*
X190270477Y-83182000D01*
X189713523Y-83182000D01*
X189198963Y-83395137D01*
X188805137Y-83788963D01*
X188722000Y-83989674D01*
X188638863Y-83788963D01*
X188245037Y-83395137D01*
X187730477Y-83182000D01*
X187173523Y-83182000D01*
X186658963Y-83395137D01*
X186265137Y-83788963D01*
X186188565Y-83973824D01*
X186136883Y-83849051D01*
X185894387Y-83779218D01*
X185091605Y-84582000D01*
X185894387Y-85384782D01*
X186136883Y-85314949D01*
X186184730Y-85180917D01*
X186265137Y-85375037D01*
X186658963Y-85768863D01*
X187173523Y-85982000D01*
X187730477Y-85982000D01*
X188245037Y-85768863D01*
X188638863Y-85375037D01*
X188722000Y-85174326D01*
X188805137Y-85375037D01*
X189198963Y-85768863D01*
X189713523Y-85982000D01*
X189880421Y-85982000D01*
X188101422Y-87761000D01*
X181566449Y-87761000D01*
X181290855Y-87576854D01*
X180959783Y-87511000D01*
X180736217Y-87511000D01*
X180405145Y-87576854D01*
X180401915Y-87579012D01*
X180303788Y-87432155D01*
X180265424Y-87374739D01*
X180265423Y-87374738D01*
X180216049Y-87300845D01*
X180142156Y-87251471D01*
X179194531Y-86303847D01*
X179145155Y-86229951D01*
X178852416Y-86034348D01*
X178594271Y-85983000D01*
X178594267Y-85983000D01*
X178507106Y-85965663D01*
X178419945Y-85983000D01*
X175024550Y-85983000D01*
X175171000Y-85629439D01*
X175171000Y-85564387D01*
X184109218Y-85564387D01*
X184179051Y-85806883D01*
X184703586Y-85994132D01*
X185259850Y-85966396D01*
X185644949Y-85806883D01*
X185714782Y-85564387D01*
X184912000Y-84761605D01*
X184109218Y-85564387D01*
X175171000Y-85564387D01*
X175171000Y-85058561D01*
X174952534Y-84531138D01*
X174794982Y-84373586D01*
X183499868Y-84373586D01*
X183527604Y-84929850D01*
X183687117Y-85314949D01*
X183929613Y-85384782D01*
X184732395Y-84582000D01*
X183929613Y-83779218D01*
X183687117Y-83849051D01*
X183499868Y-84373586D01*
X174794982Y-84373586D01*
X174548862Y-84127466D01*
X174021439Y-83909000D01*
X173450561Y-83909000D01*
X172923138Y-84127466D01*
X172519466Y-84531138D01*
X172301000Y-85058561D01*
X172301000Y-85629439D01*
X172447450Y-85983000D01*
X165949161Y-85983000D01*
X165862000Y-85965663D01*
X165774839Y-85983000D01*
X165774835Y-85983000D01*
X165516690Y-86034348D01*
X165297845Y-86180576D01*
X165297844Y-86180577D01*
X165223951Y-86229951D01*
X165174577Y-86303844D01*
X164260439Y-87217983D01*
X164225333Y-87211000D01*
X163942667Y-87211000D01*
X163524091Y-87294260D01*
X163049423Y-87611423D01*
X162732260Y-88086091D01*
X162693021Y-88283357D01*
X162506534Y-87833138D01*
X162102862Y-87429466D01*
X161575439Y-87211000D01*
X161004561Y-87211000D01*
X160477138Y-87429466D01*
X160073466Y-87833138D01*
X159855000Y-88360561D01*
X159855000Y-88931439D01*
X160073466Y-89458862D01*
X160477138Y-89862534D01*
X161004561Y-90081000D01*
X161575439Y-90081000D01*
X162102862Y-89862534D01*
X162506534Y-89458862D01*
X162693021Y-89008643D01*
X162732260Y-89205909D01*
X163049423Y-89680577D01*
X163524091Y-89997740D01*
X163942667Y-90081000D01*
X164225333Y-90081000D01*
X164643909Y-89997740D01*
X165118577Y-89680577D01*
X165435740Y-89205909D01*
X165547113Y-88646000D01*
X165512017Y-88469561D01*
X166228579Y-87753000D01*
X173107604Y-87753000D01*
X173027466Y-87833138D01*
X172809000Y-88360561D01*
X172809000Y-88931439D01*
X173027466Y-89458862D01*
X173431138Y-89862534D01*
X173958561Y-90081000D01*
X174427421Y-90081000D01*
X174479844Y-90133423D01*
X174479847Y-90133425D01*
X174506576Y-90160154D01*
X174555952Y-90234050D01*
X174848691Y-90429653D01*
X175106836Y-90481001D01*
X175106840Y-90481001D01*
X175194001Y-90498338D01*
X175281162Y-90481001D01*
X176547247Y-90481001D01*
X176204582Y-90549161D01*
X175713375Y-90877375D01*
X175514000Y-91175761D01*
X175314625Y-90877375D01*
X174823418Y-90549161D01*
X174390256Y-90463000D01*
X174097744Y-90463000D01*
X173664582Y-90549161D01*
X173173375Y-90877375D01*
X172974000Y-91175761D01*
X172774625Y-90877375D01*
X172283418Y-90549161D01*
X171850256Y-90463000D01*
X171557744Y-90463000D01*
X171124582Y-90549161D01*
X170633375Y-90877375D01*
X170434000Y-91175761D01*
X170234625Y-90877375D01*
X169743418Y-90549161D01*
X169310256Y-90463000D01*
X169017744Y-90463000D01*
X168584582Y-90549161D01*
X168093375Y-90877375D01*
X167894000Y-91175761D01*
X167694625Y-90877375D01*
X167203418Y-90549161D01*
X166770256Y-90463000D01*
X166477744Y-90463000D01*
X166044582Y-90549161D01*
X165553375Y-90877375D01*
X165354000Y-91175761D01*
X165154625Y-90877375D01*
X164663418Y-90549161D01*
X164230256Y-90463000D01*
X163937744Y-90463000D01*
X163504582Y-90549161D01*
X163013375Y-90877375D01*
X162814000Y-91175761D01*
X162614625Y-90877375D01*
X162123418Y-90549161D01*
X161690256Y-90463000D01*
X161397744Y-90463000D01*
X160964582Y-90549161D01*
X160473375Y-90877375D01*
X160274000Y-91175761D01*
X160074625Y-90877375D01*
X159583418Y-90549161D01*
X159150256Y-90463000D01*
X158857744Y-90463000D01*
X158424582Y-90549161D01*
X157933375Y-90877375D01*
X157734000Y-91175761D01*
X157534625Y-90877375D01*
X157043418Y-90549161D01*
X156610256Y-90463000D01*
X156317744Y-90463000D01*
X155884582Y-90549161D01*
X155393375Y-90877375D01*
X155194000Y-91175761D01*
X154994625Y-90877375D01*
X154503418Y-90549161D01*
X154070256Y-90463000D01*
X153777744Y-90463000D01*
X153344582Y-90549161D01*
X152853375Y-90877375D01*
X152654000Y-91175761D01*
X152454625Y-90877375D01*
X151963418Y-90549161D01*
X151530256Y-90463000D01*
X151237744Y-90463000D01*
X150804582Y-90549161D01*
X150313375Y-90877375D01*
X150114000Y-91175761D01*
X149914625Y-90877375D01*
X149423418Y-90549161D01*
X148990256Y-90463000D01*
X148697744Y-90463000D01*
X148264582Y-90549161D01*
X147773375Y-90877375D01*
X147560157Y-91196478D01*
X147499183Y-91066642D01*
X147070924Y-90676355D01*
X146660890Y-90506524D01*
X146431000Y-90627845D01*
X146431000Y-91821000D01*
X146451000Y-91821000D01*
X146451000Y-92075000D01*
X146431000Y-92075000D01*
X146431000Y-92095000D01*
X146177000Y-92095000D01*
X146177000Y-92075000D01*
X144983181Y-92075000D01*
X144862514Y-92304892D01*
X145108817Y-92829358D01*
X145533786Y-93216647D01*
X145233375Y-93417375D01*
X144905161Y-93908582D01*
X144789908Y-94488000D01*
X144905161Y-95067418D01*
X145233375Y-95558625D01*
X145724582Y-95886839D01*
X146157744Y-95973000D01*
X146450256Y-95973000D01*
X146883418Y-95886839D01*
X147374625Y-95558625D01*
X147574000Y-95260239D01*
X147773375Y-95558625D01*
X148264582Y-95886839D01*
X148697744Y-95973000D01*
X148990256Y-95973000D01*
X149423418Y-95886839D01*
X149914625Y-95558625D01*
X150114000Y-95260239D01*
X150313375Y-95558625D01*
X150804582Y-95886839D01*
X151237744Y-95973000D01*
X151530256Y-95973000D01*
X151963418Y-95886839D01*
X152454625Y-95558625D01*
X152667843Y-95239522D01*
X152728817Y-95369358D01*
X153157076Y-95759645D01*
X153567110Y-95929476D01*
X153797000Y-95808155D01*
X153797000Y-94615000D01*
X153777000Y-94615000D01*
X153777000Y-94361000D01*
X153797000Y-94361000D01*
X153797000Y-94341000D01*
X154051000Y-94341000D01*
X154051000Y-94361000D01*
X154071000Y-94361000D01*
X154071000Y-94615000D01*
X154051000Y-94615000D01*
X154051000Y-95808155D01*
X154280890Y-95929476D01*
X154690924Y-95759645D01*
X155119183Y-95369358D01*
X155180157Y-95239522D01*
X155393375Y-95558625D01*
X155884582Y-95886839D01*
X156317744Y-95973000D01*
X156610256Y-95973000D01*
X157043418Y-95886839D01*
X157534625Y-95558625D01*
X157734000Y-95260239D01*
X157933375Y-95558625D01*
X158424582Y-95886839D01*
X158857744Y-95973000D01*
X159150256Y-95973000D01*
X159583418Y-95886839D01*
X160074625Y-95558625D01*
X160274000Y-95260239D01*
X160473375Y-95558625D01*
X160964582Y-95886839D01*
X161397744Y-95973000D01*
X161690256Y-95973000D01*
X162123418Y-95886839D01*
X162614625Y-95558625D01*
X162814000Y-95260239D01*
X163013375Y-95558625D01*
X163504582Y-95886839D01*
X163937744Y-95973000D01*
X164230256Y-95973000D01*
X164663418Y-95886839D01*
X165154625Y-95558625D01*
X165354000Y-95260239D01*
X165553375Y-95558625D01*
X166044582Y-95886839D01*
X166477744Y-95973000D01*
X166770256Y-95973000D01*
X167203418Y-95886839D01*
X167694625Y-95558625D01*
X167894000Y-95260239D01*
X168093375Y-95558625D01*
X168584582Y-95886839D01*
X169017744Y-95973000D01*
X169310256Y-95973000D01*
X169743418Y-95886839D01*
X170234625Y-95558625D01*
X170434000Y-95260239D01*
X170633375Y-95558625D01*
X171124582Y-95886839D01*
X171557744Y-95973000D01*
X171850256Y-95973000D01*
X172283418Y-95886839D01*
X172774625Y-95558625D01*
X172974000Y-95260239D01*
X173173375Y-95558625D01*
X173664582Y-95886839D01*
X174097744Y-95973000D01*
X174390256Y-95973000D01*
X174823418Y-95886839D01*
X175314625Y-95558625D01*
X175514000Y-95260239D01*
X175713375Y-95558625D01*
X176204582Y-95886839D01*
X176637744Y-95973000D01*
X176930256Y-95973000D01*
X177363418Y-95886839D01*
X177854625Y-95558625D01*
X178054000Y-95260239D01*
X178253375Y-95558625D01*
X178744582Y-95886839D01*
X179177744Y-95973000D01*
X179470256Y-95973000D01*
X179903418Y-95886839D01*
X180394625Y-95558625D01*
X180594000Y-95260239D01*
X180793375Y-95558625D01*
X181284582Y-95886839D01*
X181717744Y-95973000D01*
X182010256Y-95973000D01*
X182443418Y-95886839D01*
X182934625Y-95558625D01*
X183134000Y-95260239D01*
X183333375Y-95558625D01*
X183824582Y-95886839D01*
X184257744Y-95973000D01*
X184550256Y-95973000D01*
X184983418Y-95886839D01*
X185474625Y-95558625D01*
X185674000Y-95260239D01*
X185873375Y-95558625D01*
X186364582Y-95886839D01*
X186797744Y-95973000D01*
X187090256Y-95973000D01*
X187523418Y-95886839D01*
X188014625Y-95558625D01*
X188227843Y-95239522D01*
X188288817Y-95369358D01*
X188717076Y-95759645D01*
X189127110Y-95929476D01*
X189357000Y-95808155D01*
X189357000Y-94615000D01*
X189337000Y-94615000D01*
X189337000Y-94361000D01*
X189357000Y-94361000D01*
X189357000Y-94341000D01*
X189611000Y-94341000D01*
X189611000Y-94361000D01*
X189631000Y-94361000D01*
X189631000Y-94615000D01*
X189611000Y-94615000D01*
X189611000Y-95808155D01*
X189840890Y-95929476D01*
X190250924Y-95759645D01*
X190679183Y-95369358D01*
X190740157Y-95239522D01*
X190953375Y-95558625D01*
X191444582Y-95886839D01*
X191835770Y-95964651D01*
X189503440Y-98296982D01*
X189429544Y-98346358D01*
X189233941Y-98639098D01*
X189182593Y-98897243D01*
X189182593Y-98897246D01*
X189165256Y-98984407D01*
X189182593Y-99071568D01*
X189182594Y-100605279D01*
X188880730Y-100907143D01*
X188667593Y-101421703D01*
X188667593Y-101848602D01*
X188277195Y-102239000D01*
X168515176Y-102239000D01*
X168737740Y-101905909D01*
X168849113Y-101346000D01*
X168737740Y-100786091D01*
X168420577Y-100311423D01*
X167945909Y-99994260D01*
X167527333Y-99911000D01*
X167244667Y-99911000D01*
X166826091Y-99994260D01*
X166351423Y-100311423D01*
X166034260Y-100786091D01*
X165922887Y-101346000D01*
X166034260Y-101905909D01*
X166256824Y-102239000D01*
X160902396Y-102239000D01*
X160982534Y-102158862D01*
X161201000Y-101631439D01*
X161201000Y-101060561D01*
X160982534Y-100533138D01*
X160578862Y-100129466D01*
X160051439Y-99911000D01*
X159480561Y-99911000D01*
X158953138Y-100129466D01*
X158549466Y-100533138D01*
X158331000Y-101060561D01*
X158331000Y-101631439D01*
X158549466Y-102158862D01*
X158629604Y-102239000D01*
X153704243Y-102239000D01*
X153819055Y-101747396D01*
X153771868Y-101333247D01*
X153558015Y-101199278D01*
X152601384Y-101729548D01*
X152586156Y-101714320D01*
X152406548Y-101893928D01*
X152751620Y-102239000D01*
X152545874Y-102239000D01*
X152363038Y-101909156D01*
X152378266Y-101893928D01*
X152198658Y-101714320D01*
X151673978Y-102239000D01*
X150618111Y-102239000D01*
X150743839Y-102186922D01*
X150997676Y-101933085D01*
X151012946Y-102067111D01*
X151226799Y-102201080D01*
X152219759Y-101650673D01*
X151669353Y-100657713D01*
X151417002Y-100658000D01*
X151350802Y-100750312D01*
X151350802Y-100721582D01*
X151273340Y-100534571D01*
X151891506Y-100534571D01*
X152441913Y-101527531D01*
X153434873Y-100977125D01*
X153434586Y-100724774D01*
X152981984Y-100400197D01*
X152439624Y-100273531D01*
X152025475Y-100320718D01*
X151891506Y-100534571D01*
X151273340Y-100534571D01*
X151137665Y-100207022D01*
X150743839Y-99813196D01*
X150620726Y-99762201D01*
X155503242Y-99762201D01*
X155614615Y-100322110D01*
X155931778Y-100796778D01*
X156406446Y-101113941D01*
X156825022Y-101197201D01*
X157107688Y-101197201D01*
X157526264Y-101113941D01*
X158000932Y-100796778D01*
X158318095Y-100322110D01*
X158429468Y-99762201D01*
X158380629Y-99516670D01*
X168899000Y-99516670D01*
X168899000Y-100127330D01*
X169132690Y-100691507D01*
X169564493Y-101123310D01*
X170128670Y-101357000D01*
X170739330Y-101357000D01*
X171303507Y-101123310D01*
X171479861Y-100946956D01*
X171535673Y-101081699D01*
X171714302Y-101260327D01*
X171947691Y-101357000D01*
X172688250Y-101357000D01*
X172847000Y-101198250D01*
X172847000Y-99949000D01*
X173101000Y-99949000D01*
X173101000Y-101198250D01*
X173259750Y-101357000D01*
X174000309Y-101357000D01*
X174233698Y-101260327D01*
X174412327Y-101081699D01*
X174509000Y-100848310D01*
X174509000Y-100107750D01*
X174350250Y-99949000D01*
X173101000Y-99949000D01*
X172847000Y-99949000D01*
X172827000Y-99949000D01*
X172827000Y-99695000D01*
X172847000Y-99695000D01*
X172847000Y-98445750D01*
X173101000Y-98445750D01*
X173101000Y-99695000D01*
X174350250Y-99695000D01*
X174509000Y-99536250D01*
X174509000Y-99516670D01*
X175503000Y-99516670D01*
X175503000Y-100127330D01*
X175736690Y-100691507D01*
X176168493Y-101123310D01*
X176732670Y-101357000D01*
X177343330Y-101357000D01*
X177907507Y-101123310D01*
X178083861Y-100946956D01*
X178139673Y-101081699D01*
X178318302Y-101260327D01*
X178551691Y-101357000D01*
X179292250Y-101357000D01*
X179451000Y-101198250D01*
X179451000Y-99949000D01*
X179705000Y-99949000D01*
X179705000Y-101198250D01*
X179863750Y-101357000D01*
X180604309Y-101357000D01*
X180837698Y-101260327D01*
X181016327Y-101081699D01*
X181113000Y-100848310D01*
X181113000Y-100107750D01*
X180954250Y-99949000D01*
X179705000Y-99949000D01*
X179451000Y-99949000D01*
X179431000Y-99949000D01*
X179431000Y-99695000D01*
X179451000Y-99695000D01*
X179451000Y-98445750D01*
X179705000Y-98445750D01*
X179705000Y-99695000D01*
X180954250Y-99695000D01*
X181113000Y-99536250D01*
X181113000Y-99516670D01*
X182107000Y-99516670D01*
X182107000Y-100127330D01*
X182340690Y-100691507D01*
X182772493Y-101123310D01*
X183336670Y-101357000D01*
X183947330Y-101357000D01*
X184511507Y-101123310D01*
X184687861Y-100946956D01*
X184743673Y-101081699D01*
X184922302Y-101260327D01*
X185155691Y-101357000D01*
X185896250Y-101357000D01*
X186055000Y-101198250D01*
X186055000Y-99949000D01*
X186309000Y-99949000D01*
X186309000Y-101198250D01*
X186467750Y-101357000D01*
X187208309Y-101357000D01*
X187441698Y-101260327D01*
X187620327Y-101081699D01*
X187717000Y-100848310D01*
X187717000Y-100107750D01*
X187558250Y-99949000D01*
X186309000Y-99949000D01*
X186055000Y-99949000D01*
X186035000Y-99949000D01*
X186035000Y-99695000D01*
X186055000Y-99695000D01*
X186055000Y-98445750D01*
X186309000Y-98445750D01*
X186309000Y-99695000D01*
X187558250Y-99695000D01*
X187717000Y-99536250D01*
X187717000Y-98795690D01*
X187620327Y-98562301D01*
X187441698Y-98383673D01*
X187208309Y-98287000D01*
X186467750Y-98287000D01*
X186309000Y-98445750D01*
X186055000Y-98445750D01*
X185896250Y-98287000D01*
X185155691Y-98287000D01*
X184922302Y-98383673D01*
X184743673Y-98562301D01*
X184687861Y-98697044D01*
X184511507Y-98520690D01*
X183947330Y-98287000D01*
X183336670Y-98287000D01*
X182772493Y-98520690D01*
X182340690Y-98952493D01*
X182107000Y-99516670D01*
X181113000Y-99516670D01*
X181113000Y-98795690D01*
X181016327Y-98562301D01*
X180837698Y-98383673D01*
X180604309Y-98287000D01*
X179863750Y-98287000D01*
X179705000Y-98445750D01*
X179451000Y-98445750D01*
X179292250Y-98287000D01*
X178551691Y-98287000D01*
X178318302Y-98383673D01*
X178139673Y-98562301D01*
X178083861Y-98697044D01*
X177907507Y-98520690D01*
X177343330Y-98287000D01*
X176732670Y-98287000D01*
X176168493Y-98520690D01*
X175736690Y-98952493D01*
X175503000Y-99516670D01*
X174509000Y-99516670D01*
X174509000Y-98795690D01*
X174412327Y-98562301D01*
X174233698Y-98383673D01*
X174000309Y-98287000D01*
X173259750Y-98287000D01*
X173101000Y-98445750D01*
X172847000Y-98445750D01*
X172688250Y-98287000D01*
X171947691Y-98287000D01*
X171714302Y-98383673D01*
X171535673Y-98562301D01*
X171479861Y-98697044D01*
X171303507Y-98520690D01*
X170739330Y-98287000D01*
X170128670Y-98287000D01*
X169564493Y-98520690D01*
X169132690Y-98952493D01*
X168899000Y-99516670D01*
X158380629Y-99516670D01*
X158318095Y-99202292D01*
X158000932Y-98727624D01*
X157526264Y-98410461D01*
X157107688Y-98327201D01*
X156825022Y-98327201D01*
X156406446Y-98410461D01*
X155931778Y-98727624D01*
X155614615Y-99202292D01*
X155503242Y-99762201D01*
X150620726Y-99762201D01*
X150229279Y-99600059D01*
X149672325Y-99600059D01*
X149157765Y-99813196D01*
X148909198Y-100061763D01*
X148909198Y-100021464D01*
X148696061Y-99506904D01*
X148302235Y-99113078D01*
X147787675Y-98899941D01*
X147230721Y-98899941D01*
X146716161Y-99113078D01*
X146467593Y-99361646D01*
X146467593Y-99321344D01*
X146254456Y-98806784D01*
X145860630Y-98412958D01*
X145346070Y-98199821D01*
X144789116Y-98199821D01*
X144274556Y-98412958D01*
X144220000Y-98467514D01*
X144220000Y-97504561D01*
X148171000Y-97504561D01*
X148171000Y-98075439D01*
X148389466Y-98602862D01*
X148793138Y-99006534D01*
X149320561Y-99225000D01*
X149891439Y-99225000D01*
X150418862Y-99006534D01*
X150822534Y-98602862D01*
X151041000Y-98075439D01*
X151041000Y-97504561D01*
X158331000Y-97504561D01*
X158331000Y-98075439D01*
X158549466Y-98602862D01*
X158953138Y-99006534D01*
X159480561Y-99225000D01*
X160051439Y-99225000D01*
X160578862Y-99006534D01*
X160982534Y-98602862D01*
X161201000Y-98075439D01*
X161201000Y-97790000D01*
X165922887Y-97790000D01*
X166034260Y-98349909D01*
X166351423Y-98824577D01*
X166826091Y-99141740D01*
X167244667Y-99225000D01*
X167527333Y-99225000D01*
X167945909Y-99141740D01*
X168420577Y-98824577D01*
X168737740Y-98349909D01*
X168849113Y-97790000D01*
X168737740Y-97230091D01*
X168420577Y-96755423D01*
X167945909Y-96438260D01*
X167527333Y-96355000D01*
X167244667Y-96355000D01*
X166826091Y-96438260D01*
X166351423Y-96755423D01*
X166034260Y-97230091D01*
X165922887Y-97790000D01*
X161201000Y-97790000D01*
X161201000Y-97504561D01*
X160982534Y-96977138D01*
X160578862Y-96573466D01*
X160051439Y-96355000D01*
X159480561Y-96355000D01*
X158953138Y-96573466D01*
X158549466Y-96977138D01*
X158331000Y-97504561D01*
X151041000Y-97504561D01*
X150822534Y-96977138D01*
X150418862Y-96573466D01*
X149891439Y-96355000D01*
X149320561Y-96355000D01*
X148793138Y-96573466D01*
X148389466Y-96977138D01*
X148171000Y-97504561D01*
X144220000Y-97504561D01*
X144220000Y-91591108D01*
X144862514Y-91591108D01*
X144983181Y-91821000D01*
X146177000Y-91821000D01*
X146177000Y-90627845D01*
X145947110Y-90506524D01*
X145537076Y-90676355D01*
X145108817Y-91066642D01*
X144862514Y-91591108D01*
X144220000Y-91591108D01*
X144220000Y-87538000D01*
X145564560Y-87538000D01*
X145564560Y-88738000D01*
X145613843Y-88985765D01*
X145754191Y-89195809D01*
X145964235Y-89336157D01*
X146212000Y-89385440D01*
X147412000Y-89385440D01*
X147659765Y-89336157D01*
X147781317Y-89254938D01*
X148066343Y-89373000D01*
X148557657Y-89373000D01*
X149011571Y-89184982D01*
X149201514Y-88995039D01*
X149738096Y-88995039D01*
X149898959Y-89383423D01*
X150274866Y-89798389D01*
X150780959Y-90037914D01*
X151003000Y-89916629D01*
X151003000Y-88773000D01*
X151257000Y-88773000D01*
X151257000Y-89916629D01*
X151479041Y-90037914D01*
X151985134Y-89798389D01*
X152361041Y-89383423D01*
X152521904Y-88995039D01*
X152399915Y-88773000D01*
X151257000Y-88773000D01*
X151003000Y-88773000D01*
X149860085Y-88773000D01*
X149738096Y-88995039D01*
X149201514Y-88995039D01*
X149358982Y-88837571D01*
X149547000Y-88383657D01*
X149547000Y-88296961D01*
X149738096Y-88296961D01*
X149860085Y-88519000D01*
X151003000Y-88519000D01*
X151003000Y-87375371D01*
X151257000Y-87375371D01*
X151257000Y-88519000D01*
X152399915Y-88519000D01*
X152521904Y-88296961D01*
X152361041Y-87908577D01*
X151985134Y-87493611D01*
X151479041Y-87254086D01*
X151257000Y-87375371D01*
X151003000Y-87375371D01*
X150780959Y-87254086D01*
X150274866Y-87493611D01*
X149898959Y-87908577D01*
X149738096Y-88296961D01*
X149547000Y-88296961D01*
X149547000Y-87892343D01*
X149358982Y-87438429D01*
X149011571Y-87091018D01*
X148557657Y-86903000D01*
X148066343Y-86903000D01*
X147781317Y-87021062D01*
X147659765Y-86939843D01*
X147412000Y-86890560D01*
X146212000Y-86890560D01*
X145964235Y-86939843D01*
X145754191Y-87080191D01*
X145613843Y-87290235D01*
X145564560Y-87538000D01*
X144220000Y-87538000D01*
X144220000Y-85693039D01*
X149738096Y-85693039D01*
X149898959Y-86081423D01*
X150274866Y-86496389D01*
X150780959Y-86735914D01*
X151003000Y-86614629D01*
X151003000Y-85471000D01*
X151257000Y-85471000D01*
X151257000Y-86614629D01*
X151479041Y-86735914D01*
X151985134Y-86496389D01*
X152361041Y-86081423D01*
X152521904Y-85693039D01*
X152399915Y-85471000D01*
X151257000Y-85471000D01*
X151003000Y-85471000D01*
X149860085Y-85471000D01*
X149738096Y-85693039D01*
X144220000Y-85693039D01*
X144220000Y-84994961D01*
X149738096Y-84994961D01*
X149860085Y-85217000D01*
X151003000Y-85217000D01*
X151003000Y-84073371D01*
X151257000Y-84073371D01*
X151257000Y-85217000D01*
X152399915Y-85217000D01*
X152486961Y-85058561D01*
X159855000Y-85058561D01*
X159855000Y-85629439D01*
X160073466Y-86156862D01*
X160477138Y-86560534D01*
X161004561Y-86779000D01*
X161575439Y-86779000D01*
X162102862Y-86560534D01*
X162438642Y-86224754D01*
X162541423Y-86378577D01*
X163016091Y-86695740D01*
X163434667Y-86779000D01*
X163717333Y-86779000D01*
X164135909Y-86695740D01*
X164610577Y-86378577D01*
X164927740Y-85903909D01*
X165039113Y-85344000D01*
X164927740Y-84784091D01*
X164610577Y-84309423D01*
X164135909Y-83992260D01*
X163717333Y-83909000D01*
X163434667Y-83909000D01*
X163016091Y-83992260D01*
X162541423Y-84309423D01*
X162438642Y-84463246D01*
X162102862Y-84127466D01*
X161575439Y-83909000D01*
X161004561Y-83909000D01*
X160477138Y-84127466D01*
X160073466Y-84531138D01*
X159855000Y-85058561D01*
X152486961Y-85058561D01*
X152521904Y-84994961D01*
X152361041Y-84606577D01*
X151985134Y-84191611D01*
X151479041Y-83952086D01*
X151257000Y-84073371D01*
X151003000Y-84073371D01*
X150780959Y-83952086D01*
X150274866Y-84191611D01*
X149898959Y-84606577D01*
X149738096Y-84994961D01*
X144220000Y-84994961D01*
X144220000Y-83599613D01*
X184109218Y-83599613D01*
X184912000Y-84402395D01*
X185714782Y-83599613D01*
X185644949Y-83357117D01*
X185120414Y-83169868D01*
X184564150Y-83197604D01*
X184179051Y-83357117D01*
X184109218Y-83599613D01*
X144220000Y-83599613D01*
X144220000Y-83363273D01*
X144494561Y-83477000D01*
X145065439Y-83477000D01*
X145592862Y-83258534D01*
X145996534Y-82854862D01*
X146215000Y-82327439D01*
X146215000Y-81756561D01*
X145996534Y-81229138D01*
X145627396Y-80860000D01*
X154126057Y-80860000D01*
X153905423Y-81007423D01*
X153905423Y-81007423D01*
G37*
X153905423Y-81007423D02*
X153588260Y-81482091D01*
X153476887Y-82042000D01*
X153588260Y-82601909D01*
X153905423Y-83076577D01*
X154380091Y-83393740D01*
X154798667Y-83477000D01*
X155081333Y-83477000D01*
X155499909Y-83393740D01*
X155974577Y-83076577D01*
X156291740Y-82601909D01*
X156403113Y-82042000D01*
X156291740Y-81482091D01*
X155974577Y-81007423D01*
X155753943Y-80860000D01*
X157140604Y-80860000D01*
X156771466Y-81229138D01*
X156553000Y-81756561D01*
X156553000Y-82327439D01*
X156771466Y-82854862D01*
X157175138Y-83258534D01*
X157702561Y-83477000D01*
X158273439Y-83477000D01*
X158800862Y-83258534D01*
X159204534Y-82854862D01*
X159396655Y-82391039D01*
X166756096Y-82391039D01*
X166916959Y-82779423D01*
X167292866Y-83194389D01*
X167798959Y-83433914D01*
X168021000Y-83312629D01*
X168021000Y-82169000D01*
X168275000Y-82169000D01*
X168275000Y-83312629D01*
X168497041Y-83433914D01*
X169003134Y-83194389D01*
X169379041Y-82779423D01*
X169539904Y-82391039D01*
X169417915Y-82169000D01*
X168275000Y-82169000D01*
X168021000Y-82169000D01*
X166878085Y-82169000D01*
X166756096Y-82391039D01*
X159396655Y-82391039D01*
X159423000Y-82327439D01*
X159423000Y-81756561D01*
X159204534Y-81229138D01*
X158835396Y-80860000D01*
X167355431Y-80860000D01*
X167292866Y-80889611D01*
X166916959Y-81304577D01*
X166756096Y-81692961D01*
X166878085Y-81915000D01*
X168021000Y-81915000D01*
X168021000Y-81895000D01*
X168275000Y-81895000D01*
X168275000Y-81915000D01*
X169417915Y-81915000D01*
X169539904Y-81692961D01*
X169379041Y-81304577D01*
X169003134Y-80889611D01*
X168940569Y-80860000D01*
X199513890Y-80860000D01*
X200025000Y-82177449D01*
X200025000Y-103322055D01*
X199759183Y-103430043D01*
X189587508Y-103431844D01*
X189919171Y-103100180D01*
X190346070Y-103100180D01*
X190860630Y-102887043D01*
X191254456Y-102493217D01*
X191467593Y-101978657D01*
X191467593Y-101938354D01*
X191716161Y-102186922D01*
X192230721Y-102400059D01*
X192787675Y-102400059D01*
X193302235Y-102186922D01*
X193696061Y-101793096D01*
X193909198Y-101278536D01*
X193909198Y-101238237D01*
X194157765Y-101486804D01*
X194672325Y-101699941D01*
X195229279Y-101699941D01*
X195743839Y-101486804D01*
X196137665Y-101092978D01*
X196273340Y-100765428D01*
X196891506Y-100765428D01*
X197025475Y-100979281D01*
X197581303Y-101014695D01*
X198108373Y-100834707D01*
X198434586Y-100575225D01*
X198434873Y-100322874D01*
X197441913Y-99772468D01*
X196891506Y-100765428D01*
X196273340Y-100765428D01*
X196350802Y-100578418D01*
X196350802Y-100558774D01*
X196417002Y-100641999D01*
X196669353Y-100642286D01*
X197219759Y-99649326D01*
X197041137Y-99550314D01*
X197565055Y-99550314D01*
X198558015Y-100100721D01*
X198771868Y-99966752D01*
X198807282Y-99410924D01*
X198627294Y-98883854D01*
X198367812Y-98557641D01*
X198115461Y-98557354D01*
X197565055Y-99550314D01*
X197041137Y-99550314D01*
X196226799Y-99098919D01*
X196012946Y-99232888D01*
X196004003Y-99373242D01*
X195743839Y-99113078D01*
X195229279Y-98899941D01*
X194672325Y-98899941D01*
X194157765Y-99113078D01*
X193763939Y-99506904D01*
X193550802Y-100021464D01*
X193550802Y-100061763D01*
X193302235Y-99813196D01*
X192787675Y-99600059D01*
X192230721Y-99600059D01*
X191716161Y-99813196D01*
X191322335Y-100207022D01*
X191109198Y-100721582D01*
X191109198Y-100761885D01*
X190952593Y-100605280D01*
X190952593Y-99350985D01*
X191426812Y-98876766D01*
X196349941Y-98876766D01*
X197342901Y-99427172D01*
X197893308Y-98434212D01*
X197759339Y-98220359D01*
X197203511Y-98184945D01*
X196676441Y-98364933D01*
X196350228Y-98624415D01*
X196349941Y-98876766D01*
X191426812Y-98876766D01*
X194345040Y-95958538D01*
X194417744Y-95973000D01*
X194710256Y-95973000D01*
X195143418Y-95886839D01*
X195634625Y-95558625D01*
X195962839Y-95067418D01*
X196078092Y-94488000D01*
X195962839Y-93908582D01*
X195634625Y-93417375D01*
X195616381Y-93405184D01*
X195661765Y-93396157D01*
X195871809Y-93255809D01*
X196012157Y-93045765D01*
X196061440Y-92798000D01*
X196061440Y-91098000D01*
X196012157Y-90850235D01*
X195871809Y-90640191D01*
X195661765Y-90499843D01*
X195449000Y-90457522D01*
X195449000Y-86701161D01*
X195466337Y-86614000D01*
X195449000Y-86526839D01*
X195449000Y-86526835D01*
X195397652Y-86268690D01*
X195202049Y-85975951D01*
X195128156Y-85926577D01*
X193932000Y-84730422D01*
X193932000Y-84303523D01*
X193718863Y-83788963D01*
X193325037Y-83395137D01*
X192810477Y-83182000D01*
X192253523Y-83182000D01*
X191738963Y-83395137D01*
X191345137Y-83788963D01*
X191262000Y-83989674D01*
X191178863Y-83788963D01*
X190785037Y-83395137D01*
X190270477Y-83182000D01*
X189713523Y-83182000D01*
X189198963Y-83395137D01*
X188805137Y-83788963D01*
X188722000Y-83989674D01*
X188638863Y-83788963D01*
X188245037Y-83395137D01*
X187730477Y-83182000D01*
X187173523Y-83182000D01*
X186658963Y-83395137D01*
X186265137Y-83788963D01*
X186188565Y-83973824D01*
X186136883Y-83849051D01*
X185894387Y-83779218D01*
X185091605Y-84582000D01*
X185894387Y-85384782D01*
X186136883Y-85314949D01*
X186184730Y-85180917D01*
X186265137Y-85375037D01*
X186658963Y-85768863D01*
X187173523Y-85982000D01*
X187730477Y-85982000D01*
X188245037Y-85768863D01*
X188638863Y-85375037D01*
X188722000Y-85174326D01*
X188805137Y-85375037D01*
X189198963Y-85768863D01*
X189713523Y-85982000D01*
X189880421Y-85982000D01*
X188101422Y-87761000D01*
X181566449Y-87761000D01*
X181290855Y-87576854D01*
X180959783Y-87511000D01*
X180736217Y-87511000D01*
X180405145Y-87576854D01*
X180401915Y-87579012D01*
X180303788Y-87432155D01*
X180265424Y-87374739D01*
X180265423Y-87374738D01*
X180216049Y-87300845D01*
X180142156Y-87251471D01*
X179194531Y-86303847D01*
X179145155Y-86229951D01*
X178852416Y-86034348D01*
X178594271Y-85983000D01*
X178594267Y-85983000D01*
X178507106Y-85965663D01*
X178419945Y-85983000D01*
X175024550Y-85983000D01*
X175171000Y-85629439D01*
X175171000Y-85564387D01*
X184109218Y-85564387D01*
X184179051Y-85806883D01*
X184703586Y-85994132D01*
X185259850Y-85966396D01*
X185644949Y-85806883D01*
X185714782Y-85564387D01*
X184912000Y-84761605D01*
X184109218Y-85564387D01*
X175171000Y-85564387D01*
X175171000Y-85058561D01*
X174952534Y-84531138D01*
X174794982Y-84373586D01*
X183499868Y-84373586D01*
X183527604Y-84929850D01*
X183687117Y-85314949D01*
X183929613Y-85384782D01*
X184732395Y-84582000D01*
X183929613Y-83779218D01*
X183687117Y-83849051D01*
X183499868Y-84373586D01*
X174794982Y-84373586D01*
X174548862Y-84127466D01*
X174021439Y-83909000D01*
X173450561Y-83909000D01*
X172923138Y-84127466D01*
X172519466Y-84531138D01*
X172301000Y-85058561D01*
X172301000Y-85629439D01*
X172447450Y-85983000D01*
X165949161Y-85983000D01*
X165862000Y-85965663D01*
X165774839Y-85983000D01*
X165774835Y-85983000D01*
X165516690Y-86034348D01*
X165297845Y-86180576D01*
X165297844Y-86180577D01*
X165223951Y-86229951D01*
X165174577Y-86303844D01*
X164260439Y-87217983D01*
X164225333Y-87211000D01*
X163942667Y-87211000D01*
X163524091Y-87294260D01*
X163049423Y-87611423D01*
X162732260Y-88086091D01*
X162693021Y-88283357D01*
X162506534Y-87833138D01*
X162102862Y-87429466D01*
X161575439Y-87211000D01*
X161004561Y-87211000D01*
X160477138Y-87429466D01*
X160073466Y-87833138D01*
X159855000Y-88360561D01*
X159855000Y-88931439D01*
X160073466Y-89458862D01*
X160477138Y-89862534D01*
X161004561Y-90081000D01*
X161575439Y-90081000D01*
X162102862Y-89862534D01*
X162506534Y-89458862D01*
X162693021Y-89008643D01*
X162732260Y-89205909D01*
X163049423Y-89680577D01*
X163524091Y-89997740D01*
X163942667Y-90081000D01*
X164225333Y-90081000D01*
X164643909Y-89997740D01*
X165118577Y-89680577D01*
X165435740Y-89205909D01*
X165547113Y-88646000D01*
X165512017Y-88469561D01*
X166228579Y-87753000D01*
X173107604Y-87753000D01*
X173027466Y-87833138D01*
X172809000Y-88360561D01*
X172809000Y-88931439D01*
X173027466Y-89458862D01*
X173431138Y-89862534D01*
X173958561Y-90081000D01*
X174427421Y-90081000D01*
X174479844Y-90133423D01*
X174479847Y-90133425D01*
X174506576Y-90160154D01*
X174555952Y-90234050D01*
X174848691Y-90429653D01*
X175106836Y-90481001D01*
X175106840Y-90481001D01*
X175194001Y-90498338D01*
X175281162Y-90481001D01*
X176547247Y-90481001D01*
X176204582Y-90549161D01*
X175713375Y-90877375D01*
X175514000Y-91175761D01*
X175314625Y-90877375D01*
X174823418Y-90549161D01*
X174390256Y-90463000D01*
X174097744Y-90463000D01*
X173664582Y-90549161D01*
X173173375Y-90877375D01*
X172974000Y-91175761D01*
X172774625Y-90877375D01*
X172283418Y-90549161D01*
X171850256Y-90463000D01*
X171557744Y-90463000D01*
X171124582Y-90549161D01*
X170633375Y-90877375D01*
X170434000Y-91175761D01*
X170234625Y-90877375D01*
X169743418Y-90549161D01*
X169310256Y-90463000D01*
X169017744Y-90463000D01*
X168584582Y-90549161D01*
X168093375Y-90877375D01*
X167894000Y-91175761D01*
X167694625Y-90877375D01*
X167203418Y-90549161D01*
X166770256Y-90463000D01*
X166477744Y-90463000D01*
X166044582Y-90549161D01*
X165553375Y-90877375D01*
X165354000Y-91175761D01*
X165154625Y-90877375D01*
X164663418Y-90549161D01*
X164230256Y-90463000D01*
X163937744Y-90463000D01*
X163504582Y-90549161D01*
X163013375Y-90877375D01*
X162814000Y-91175761D01*
X162614625Y-90877375D01*
X162123418Y-90549161D01*
X161690256Y-90463000D01*
X161397744Y-90463000D01*
X160964582Y-90549161D01*
X160473375Y-90877375D01*
X160274000Y-91175761D01*
X160074625Y-90877375D01*
X159583418Y-90549161D01*
X159150256Y-90463000D01*
X158857744Y-90463000D01*
X158424582Y-90549161D01*
X157933375Y-90877375D01*
X157734000Y-91175761D01*
X157534625Y-90877375D01*
X157043418Y-90549161D01*
X156610256Y-90463000D01*
X156317744Y-90463000D01*
X155884582Y-90549161D01*
X155393375Y-90877375D01*
X155194000Y-91175761D01*
X154994625Y-90877375D01*
X154503418Y-90549161D01*
X154070256Y-90463000D01*
X153777744Y-90463000D01*
X153344582Y-90549161D01*
X152853375Y-90877375D01*
X152654000Y-91175761D01*
X152454625Y-90877375D01*
X151963418Y-90549161D01*
X151530256Y-90463000D01*
X151237744Y-90463000D01*
X150804582Y-90549161D01*
X150313375Y-90877375D01*
X150114000Y-91175761D01*
X149914625Y-90877375D01*
X149423418Y-90549161D01*
X148990256Y-90463000D01*
X148697744Y-90463000D01*
X148264582Y-90549161D01*
X147773375Y-90877375D01*
X147560157Y-91196478D01*
X147499183Y-91066642D01*
X147070924Y-90676355D01*
X146660890Y-90506524D01*
X146431000Y-90627845D01*
X146431000Y-91821000D01*
X146451000Y-91821000D01*
X146451000Y-92075000D01*
X146431000Y-92075000D01*
X146431000Y-92095000D01*
X146177000Y-92095000D01*
X146177000Y-92075000D01*
X144983181Y-92075000D01*
X144862514Y-92304892D01*
X145108817Y-92829358D01*
X145533786Y-93216647D01*
X145233375Y-93417375D01*
X144905161Y-93908582D01*
X144789908Y-94488000D01*
X144905161Y-95067418D01*
X145233375Y-95558625D01*
X145724582Y-95886839D01*
X146157744Y-95973000D01*
X146450256Y-95973000D01*
X146883418Y-95886839D01*
X147374625Y-95558625D01*
X147574000Y-95260239D01*
X147773375Y-95558625D01*
X148264582Y-95886839D01*
X148697744Y-95973000D01*
X148990256Y-95973000D01*
X149423418Y-95886839D01*
X149914625Y-95558625D01*
X150114000Y-95260239D01*
X150313375Y-95558625D01*
X150804582Y-95886839D01*
X151237744Y-95973000D01*
X151530256Y-95973000D01*
X151963418Y-95886839D01*
X152454625Y-95558625D01*
X152667843Y-95239522D01*
X152728817Y-95369358D01*
X153157076Y-95759645D01*
X153567110Y-95929476D01*
X153797000Y-95808155D01*
X153797000Y-94615000D01*
X153777000Y-94615000D01*
X153777000Y-94361000D01*
X153797000Y-94361000D01*
X153797000Y-94341000D01*
X154051000Y-94341000D01*
X154051000Y-94361000D01*
X154071000Y-94361000D01*
X154071000Y-94615000D01*
X154051000Y-94615000D01*
X154051000Y-95808155D01*
X154280890Y-95929476D01*
X154690924Y-95759645D01*
X155119183Y-95369358D01*
X155180157Y-95239522D01*
X155393375Y-95558625D01*
X155884582Y-95886839D01*
X156317744Y-95973000D01*
X156610256Y-95973000D01*
X157043418Y-95886839D01*
X157534625Y-95558625D01*
X157734000Y-95260239D01*
X157933375Y-95558625D01*
X158424582Y-95886839D01*
X158857744Y-95973000D01*
X159150256Y-95973000D01*
X159583418Y-95886839D01*
X160074625Y-95558625D01*
X160274000Y-95260239D01*
X160473375Y-95558625D01*
X160964582Y-95886839D01*
X161397744Y-95973000D01*
X161690256Y-95973000D01*
X162123418Y-95886839D01*
X162614625Y-95558625D01*
X162814000Y-95260239D01*
X163013375Y-95558625D01*
X163504582Y-95886839D01*
X163937744Y-95973000D01*
X164230256Y-95973000D01*
X164663418Y-95886839D01*
X165154625Y-95558625D01*
X165354000Y-95260239D01*
X165553375Y-95558625D01*
X166044582Y-95886839D01*
X166477744Y-95973000D01*
X166770256Y-95973000D01*
X167203418Y-95886839D01*
X167694625Y-95558625D01*
X167894000Y-95260239D01*
X168093375Y-95558625D01*
X168584582Y-95886839D01*
X169017744Y-95973000D01*
X169310256Y-95973000D01*
X169743418Y-95886839D01*
X170234625Y-95558625D01*
X170434000Y-95260239D01*
X170633375Y-95558625D01*
X171124582Y-95886839D01*
X171557744Y-95973000D01*
X171850256Y-95973000D01*
X172283418Y-95886839D01*
X172774625Y-95558625D01*
X172974000Y-95260239D01*
X173173375Y-95558625D01*
X173664582Y-95886839D01*
X174097744Y-95973000D01*
X174390256Y-95973000D01*
X174823418Y-95886839D01*
X175314625Y-95558625D01*
X175514000Y-95260239D01*
X175713375Y-95558625D01*
X176204582Y-95886839D01*
X176637744Y-95973000D01*
X176930256Y-95973000D01*
X177363418Y-95886839D01*
X177854625Y-95558625D01*
X178054000Y-95260239D01*
X178253375Y-95558625D01*
X178744582Y-95886839D01*
X179177744Y-95973000D01*
X179470256Y-95973000D01*
X179903418Y-95886839D01*
X180394625Y-95558625D01*
X180594000Y-95260239D01*
X180793375Y-95558625D01*
X181284582Y-95886839D01*
X181717744Y-95973000D01*
X182010256Y-95973000D01*
X182443418Y-95886839D01*
X182934625Y-95558625D01*
X183134000Y-95260239D01*
X183333375Y-95558625D01*
X183824582Y-95886839D01*
X184257744Y-95973000D01*
X184550256Y-95973000D01*
X184983418Y-95886839D01*
X185474625Y-95558625D01*
X185674000Y-95260239D01*
X185873375Y-95558625D01*
X186364582Y-95886839D01*
X186797744Y-95973000D01*
X187090256Y-95973000D01*
X187523418Y-95886839D01*
X188014625Y-95558625D01*
X188227843Y-95239522D01*
X188288817Y-95369358D01*
X188717076Y-95759645D01*
X189127110Y-95929476D01*
X189357000Y-95808155D01*
X189357000Y-94615000D01*
X189337000Y-94615000D01*
X189337000Y-94361000D01*
X189357000Y-94361000D01*
X189357000Y-94341000D01*
X189611000Y-94341000D01*
X189611000Y-94361000D01*
X189631000Y-94361000D01*
X189631000Y-94615000D01*
X189611000Y-94615000D01*
X189611000Y-95808155D01*
X189840890Y-95929476D01*
X190250924Y-95759645D01*
X190679183Y-95369358D01*
X190740157Y-95239522D01*
X190953375Y-95558625D01*
X191444582Y-95886839D01*
X191835770Y-95964651D01*
X189503440Y-98296982D01*
X189429544Y-98346358D01*
X189233941Y-98639098D01*
X189182593Y-98897243D01*
X189182593Y-98897246D01*
X189165256Y-98984407D01*
X189182593Y-99071568D01*
X189182594Y-100605279D01*
X188880730Y-100907143D01*
X188667593Y-101421703D01*
X188667593Y-101848602D01*
X188277195Y-102239000D01*
X168515176Y-102239000D01*
X168737740Y-101905909D01*
X168849113Y-101346000D01*
X168737740Y-100786091D01*
X168420577Y-100311423D01*
X167945909Y-99994260D01*
X167527333Y-99911000D01*
X167244667Y-99911000D01*
X166826091Y-99994260D01*
X166351423Y-100311423D01*
X166034260Y-100786091D01*
X165922887Y-101346000D01*
X166034260Y-101905909D01*
X166256824Y-102239000D01*
X160902396Y-102239000D01*
X160982534Y-102158862D01*
X161201000Y-101631439D01*
X161201000Y-101060561D01*
X160982534Y-100533138D01*
X160578862Y-100129466D01*
X160051439Y-99911000D01*
X159480561Y-99911000D01*
X158953138Y-100129466D01*
X158549466Y-100533138D01*
X158331000Y-101060561D01*
X158331000Y-101631439D01*
X158549466Y-102158862D01*
X158629604Y-102239000D01*
X153704243Y-102239000D01*
X153819055Y-101747396D01*
X153771868Y-101333247D01*
X153558015Y-101199278D01*
X152601384Y-101729548D01*
X152586156Y-101714320D01*
X152406548Y-101893928D01*
X152751620Y-102239000D01*
X152545874Y-102239000D01*
X152363038Y-101909156D01*
X152378266Y-101893928D01*
X152198658Y-101714320D01*
X151673978Y-102239000D01*
X150618111Y-102239000D01*
X150743839Y-102186922D01*
X150997676Y-101933085D01*
X151012946Y-102067111D01*
X151226799Y-102201080D01*
X152219759Y-101650673D01*
X151669353Y-100657713D01*
X151417002Y-100658000D01*
X151350802Y-100750312D01*
X151350802Y-100721582D01*
X151273340Y-100534571D01*
X151891506Y-100534571D01*
X152441913Y-101527531D01*
X153434873Y-100977125D01*
X153434586Y-100724774D01*
X152981984Y-100400197D01*
X152439624Y-100273531D01*
X152025475Y-100320718D01*
X151891506Y-100534571D01*
X151273340Y-100534571D01*
X151137665Y-100207022D01*
X150743839Y-99813196D01*
X150620726Y-99762201D01*
X155503242Y-99762201D01*
X155614615Y-100322110D01*
X155931778Y-100796778D01*
X156406446Y-101113941D01*
X156825022Y-101197201D01*
X157107688Y-101197201D01*
X157526264Y-101113941D01*
X158000932Y-100796778D01*
X158318095Y-100322110D01*
X158429468Y-99762201D01*
X158380629Y-99516670D01*
X168899000Y-99516670D01*
X168899000Y-100127330D01*
X169132690Y-100691507D01*
X169564493Y-101123310D01*
X170128670Y-101357000D01*
X170739330Y-101357000D01*
X171303507Y-101123310D01*
X171479861Y-100946956D01*
X171535673Y-101081699D01*
X171714302Y-101260327D01*
X171947691Y-101357000D01*
X172688250Y-101357000D01*
X172847000Y-101198250D01*
X172847000Y-99949000D01*
X173101000Y-99949000D01*
X173101000Y-101198250D01*
X173259750Y-101357000D01*
X174000309Y-101357000D01*
X174233698Y-101260327D01*
X174412327Y-101081699D01*
X174509000Y-100848310D01*
X174509000Y-100107750D01*
X174350250Y-99949000D01*
X173101000Y-99949000D01*
X172847000Y-99949000D01*
X172827000Y-99949000D01*
X172827000Y-99695000D01*
X172847000Y-99695000D01*
X172847000Y-98445750D01*
X173101000Y-98445750D01*
X173101000Y-99695000D01*
X174350250Y-99695000D01*
X174509000Y-99536250D01*
X174509000Y-99516670D01*
X175503000Y-99516670D01*
X175503000Y-100127330D01*
X175736690Y-100691507D01*
X176168493Y-101123310D01*
X176732670Y-101357000D01*
X177343330Y-101357000D01*
X177907507Y-101123310D01*
X178083861Y-100946956D01*
X178139673Y-101081699D01*
X178318302Y-101260327D01*
X178551691Y-101357000D01*
X179292250Y-101357000D01*
X179451000Y-101198250D01*
X179451000Y-99949000D01*
X179705000Y-99949000D01*
X179705000Y-101198250D01*
X179863750Y-101357000D01*
X180604309Y-101357000D01*
X180837698Y-101260327D01*
X181016327Y-101081699D01*
X181113000Y-100848310D01*
X181113000Y-100107750D01*
X180954250Y-99949000D01*
X179705000Y-99949000D01*
X179451000Y-99949000D01*
X179431000Y-99949000D01*
X179431000Y-99695000D01*
X179451000Y-99695000D01*
X179451000Y-98445750D01*
X179705000Y-98445750D01*
X179705000Y-99695000D01*
X180954250Y-99695000D01*
X181113000Y-99536250D01*
X181113000Y-99516670D01*
X182107000Y-99516670D01*
X182107000Y-100127330D01*
X182340690Y-100691507D01*
X182772493Y-101123310D01*
X183336670Y-101357000D01*
X183947330Y-101357000D01*
X184511507Y-101123310D01*
X184687861Y-100946956D01*
X184743673Y-101081699D01*
X184922302Y-101260327D01*
X185155691Y-101357000D01*
X185896250Y-101357000D01*
X186055000Y-101198250D01*
X186055000Y-99949000D01*
X186309000Y-99949000D01*
X186309000Y-101198250D01*
X186467750Y-101357000D01*
X187208309Y-101357000D01*
X187441698Y-101260327D01*
X187620327Y-101081699D01*
X187717000Y-100848310D01*
X187717000Y-100107750D01*
X187558250Y-99949000D01*
X186309000Y-99949000D01*
X186055000Y-99949000D01*
X186035000Y-99949000D01*
X186035000Y-99695000D01*
X186055000Y-99695000D01*
X186055000Y-98445750D01*
X186309000Y-98445750D01*
X186309000Y-99695000D01*
X187558250Y-99695000D01*
X187717000Y-99536250D01*
X187717000Y-98795690D01*
X187620327Y-98562301D01*
X187441698Y-98383673D01*
X187208309Y-98287000D01*
X186467750Y-98287000D01*
X186309000Y-98445750D01*
X186055000Y-98445750D01*
X185896250Y-98287000D01*
X185155691Y-98287000D01*
X184922302Y-98383673D01*
X184743673Y-98562301D01*
X184687861Y-98697044D01*
X184511507Y-98520690D01*
X183947330Y-98287000D01*
X183336670Y-98287000D01*
X182772493Y-98520690D01*
X182340690Y-98952493D01*
X182107000Y-99516670D01*
X181113000Y-99516670D01*
X181113000Y-98795690D01*
X181016327Y-98562301D01*
X180837698Y-98383673D01*
X180604309Y-98287000D01*
X179863750Y-98287000D01*
X179705000Y-98445750D01*
X179451000Y-98445750D01*
X179292250Y-98287000D01*
X178551691Y-98287000D01*
X178318302Y-98383673D01*
X178139673Y-98562301D01*
X178083861Y-98697044D01*
X177907507Y-98520690D01*
X177343330Y-98287000D01*
X176732670Y-98287000D01*
X176168493Y-98520690D01*
X175736690Y-98952493D01*
X175503000Y-99516670D01*
X174509000Y-99516670D01*
X174509000Y-98795690D01*
X174412327Y-98562301D01*
X174233698Y-98383673D01*
X174000309Y-98287000D01*
X173259750Y-98287000D01*
X173101000Y-98445750D01*
X172847000Y-98445750D01*
X172688250Y-98287000D01*
X171947691Y-98287000D01*
X171714302Y-98383673D01*
X171535673Y-98562301D01*
X171479861Y-98697044D01*
X171303507Y-98520690D01*
X170739330Y-98287000D01*
X170128670Y-98287000D01*
X169564493Y-98520690D01*
X169132690Y-98952493D01*
X168899000Y-99516670D01*
X158380629Y-99516670D01*
X158318095Y-99202292D01*
X158000932Y-98727624D01*
X157526264Y-98410461D01*
X157107688Y-98327201D01*
X156825022Y-98327201D01*
X156406446Y-98410461D01*
X155931778Y-98727624D01*
X155614615Y-99202292D01*
X155503242Y-99762201D01*
X150620726Y-99762201D01*
X150229279Y-99600059D01*
X149672325Y-99600059D01*
X149157765Y-99813196D01*
X148909198Y-100061763D01*
X148909198Y-100021464D01*
X148696061Y-99506904D01*
X148302235Y-99113078D01*
X147787675Y-98899941D01*
X147230721Y-98899941D01*
X146716161Y-99113078D01*
X146467593Y-99361646D01*
X146467593Y-99321344D01*
X146254456Y-98806784D01*
X145860630Y-98412958D01*
X145346070Y-98199821D01*
X144789116Y-98199821D01*
X144274556Y-98412958D01*
X144220000Y-98467514D01*
X144220000Y-97504561D01*
X148171000Y-97504561D01*
X148171000Y-98075439D01*
X148389466Y-98602862D01*
X148793138Y-99006534D01*
X149320561Y-99225000D01*
X149891439Y-99225000D01*
X150418862Y-99006534D01*
X150822534Y-98602862D01*
X151041000Y-98075439D01*
X151041000Y-97504561D01*
X158331000Y-97504561D01*
X158331000Y-98075439D01*
X158549466Y-98602862D01*
X158953138Y-99006534D01*
X159480561Y-99225000D01*
X160051439Y-99225000D01*
X160578862Y-99006534D01*
X160982534Y-98602862D01*
X161201000Y-98075439D01*
X161201000Y-97790000D01*
X165922887Y-97790000D01*
X166034260Y-98349909D01*
X166351423Y-98824577D01*
X166826091Y-99141740D01*
X167244667Y-99225000D01*
X167527333Y-99225000D01*
X167945909Y-99141740D01*
X168420577Y-98824577D01*
X168737740Y-98349909D01*
X168849113Y-97790000D01*
X168737740Y-97230091D01*
X168420577Y-96755423D01*
X167945909Y-96438260D01*
X167527333Y-96355000D01*
X167244667Y-96355000D01*
X166826091Y-96438260D01*
X166351423Y-96755423D01*
X166034260Y-97230091D01*
X165922887Y-97790000D01*
X161201000Y-97790000D01*
X161201000Y-97504561D01*
X160982534Y-96977138D01*
X160578862Y-96573466D01*
X160051439Y-96355000D01*
X159480561Y-96355000D01*
X158953138Y-96573466D01*
X158549466Y-96977138D01*
X158331000Y-97504561D01*
X151041000Y-97504561D01*
X150822534Y-96977138D01*
X150418862Y-96573466D01*
X149891439Y-96355000D01*
X149320561Y-96355000D01*
X148793138Y-96573466D01*
X148389466Y-96977138D01*
X148171000Y-97504561D01*
X144220000Y-97504561D01*
X144220000Y-91591108D01*
X144862514Y-91591108D01*
X144983181Y-91821000D01*
X146177000Y-91821000D01*
X146177000Y-90627845D01*
X145947110Y-90506524D01*
X145537076Y-90676355D01*
X145108817Y-91066642D01*
X144862514Y-91591108D01*
X144220000Y-91591108D01*
X144220000Y-87538000D01*
X145564560Y-87538000D01*
X145564560Y-88738000D01*
X145613843Y-88985765D01*
X145754191Y-89195809D01*
X145964235Y-89336157D01*
X146212000Y-89385440D01*
X147412000Y-89385440D01*
X147659765Y-89336157D01*
X147781317Y-89254938D01*
X148066343Y-89373000D01*
X148557657Y-89373000D01*
X149011571Y-89184982D01*
X149201514Y-88995039D01*
X149738096Y-88995039D01*
X149898959Y-89383423D01*
X150274866Y-89798389D01*
X150780959Y-90037914D01*
X151003000Y-89916629D01*
X151003000Y-88773000D01*
X151257000Y-88773000D01*
X151257000Y-89916629D01*
X151479041Y-90037914D01*
X151985134Y-89798389D01*
X152361041Y-89383423D01*
X152521904Y-88995039D01*
X152399915Y-88773000D01*
X151257000Y-88773000D01*
X151003000Y-88773000D01*
X149860085Y-88773000D01*
X149738096Y-88995039D01*
X149201514Y-88995039D01*
X149358982Y-88837571D01*
X149547000Y-88383657D01*
X149547000Y-88296961D01*
X149738096Y-88296961D01*
X149860085Y-88519000D01*
X151003000Y-88519000D01*
X151003000Y-87375371D01*
X151257000Y-87375371D01*
X151257000Y-88519000D01*
X152399915Y-88519000D01*
X152521904Y-88296961D01*
X152361041Y-87908577D01*
X151985134Y-87493611D01*
X151479041Y-87254086D01*
X151257000Y-87375371D01*
X151003000Y-87375371D01*
X150780959Y-87254086D01*
X150274866Y-87493611D01*
X149898959Y-87908577D01*
X149738096Y-88296961D01*
X149547000Y-88296961D01*
X149547000Y-87892343D01*
X149358982Y-87438429D01*
X149011571Y-87091018D01*
X148557657Y-86903000D01*
X148066343Y-86903000D01*
X147781317Y-87021062D01*
X147659765Y-86939843D01*
X147412000Y-86890560D01*
X146212000Y-86890560D01*
X145964235Y-86939843D01*
X145754191Y-87080191D01*
X145613843Y-87290235D01*
X145564560Y-87538000D01*
X144220000Y-87538000D01*
X144220000Y-85693039D01*
X149738096Y-85693039D01*
X149898959Y-86081423D01*
X150274866Y-86496389D01*
X150780959Y-86735914D01*
X151003000Y-86614629D01*
X151003000Y-85471000D01*
X151257000Y-85471000D01*
X151257000Y-86614629D01*
X151479041Y-86735914D01*
X151985134Y-86496389D01*
X152361041Y-86081423D01*
X152521904Y-85693039D01*
X152399915Y-85471000D01*
X151257000Y-85471000D01*
X151003000Y-85471000D01*
X149860085Y-85471000D01*
X149738096Y-85693039D01*
X144220000Y-85693039D01*
X144220000Y-84994961D01*
X149738096Y-84994961D01*
X149860085Y-85217000D01*
X151003000Y-85217000D01*
X151003000Y-84073371D01*
X151257000Y-84073371D01*
X151257000Y-85217000D01*
X152399915Y-85217000D01*
X152486961Y-85058561D01*
X159855000Y-85058561D01*
X159855000Y-85629439D01*
X160073466Y-86156862D01*
X160477138Y-86560534D01*
X161004561Y-86779000D01*
X161575439Y-86779000D01*
X162102862Y-86560534D01*
X162438642Y-86224754D01*
X162541423Y-86378577D01*
X163016091Y-86695740D01*
X163434667Y-86779000D01*
X163717333Y-86779000D01*
X164135909Y-86695740D01*
X164610577Y-86378577D01*
X164927740Y-85903909D01*
X165039113Y-85344000D01*
X164927740Y-84784091D01*
X164610577Y-84309423D01*
X164135909Y-83992260D01*
X163717333Y-83909000D01*
X163434667Y-83909000D01*
X163016091Y-83992260D01*
X162541423Y-84309423D01*
X162438642Y-84463246D01*
X162102862Y-84127466D01*
X161575439Y-83909000D01*
X161004561Y-83909000D01*
X160477138Y-84127466D01*
X160073466Y-84531138D01*
X159855000Y-85058561D01*
X152486961Y-85058561D01*
X152521904Y-84994961D01*
X152361041Y-84606577D01*
X151985134Y-84191611D01*
X151479041Y-83952086D01*
X151257000Y-84073371D01*
X151003000Y-84073371D01*
X150780959Y-83952086D01*
X150274866Y-84191611D01*
X149898959Y-84606577D01*
X149738096Y-84994961D01*
X144220000Y-84994961D01*
X144220000Y-83599613D01*
X184109218Y-83599613D01*
X184912000Y-84402395D01*
X185714782Y-83599613D01*
X185644949Y-83357117D01*
X185120414Y-83169868D01*
X184564150Y-83197604D01*
X184179051Y-83357117D01*
X184109218Y-83599613D01*
X144220000Y-83599613D01*
X144220000Y-83363273D01*
X144494561Y-83477000D01*
X145065439Y-83477000D01*
X145592862Y-83258534D01*
X145996534Y-82854862D01*
X146215000Y-82327439D01*
X146215000Y-81756561D01*
X145996534Y-81229138D01*
X145627396Y-80860000D01*
X154126057Y-80860000D01*
X153905423Y-81007423D01*
G36*
X177269673Y-87786302D02*
X177173000Y-88019691D01*
X177173000Y-88360250D01*
X177331750Y-88519000D01*
X178181000Y-88519000D01*
X178181000Y-88499000D01*
X178435000Y-88499000D01*
X178435000Y-88519000D01*
X178446027Y-88519000D01*
X178420765Y-88646000D01*
X178433694Y-88711001D01*
X175679000Y-88711001D01*
X175679000Y-88360561D01*
X175460534Y-87833138D01*
X175380396Y-87753000D01*
X177302975Y-87753000D01*
X177269673Y-87786302D01*
X177269673Y-87786302D01*
G37*
X177269673Y-87786302D02*
X177173000Y-88019691D01*
X177173000Y-88360250D01*
X177331750Y-88519000D01*
X178181000Y-88519000D01*
X178181000Y-88499000D01*
X178435000Y-88499000D01*
X178435000Y-88519000D01*
X178446027Y-88519000D01*
X178420765Y-88646000D01*
X178433694Y-88711001D01*
X175679000Y-88711001D01*
X175679000Y-88360561D01*
X175460534Y-87833138D01*
X175380396Y-87753000D01*
X177302975Y-87753000D01*
X177269673Y-87786302D01*
G04 #@! TD*
M02*
