G04 #@! TF.GenerationSoftware,KiCad,Pcbnew,(5.0.2)-1*
G04 #@! TF.CreationDate,2021-01-03T19:43:26+01:00*
G04 #@! TF.ProjectId,Radmesser,5261646d-6573-4736-9572-2e6b69636164,rev?*
G04 #@! TF.SameCoordinates,Original*
G04 #@! TF.FileFunction,Paste,Bot*
G04 #@! TF.FilePolarity,Positive*
%FSLAX46Y46*%
G04 Gerber Fmt 4.6, Leading zero omitted, Abs format (unit mm)*
G04 Created by KiCad (PCBNEW (5.0.2)-1) date 03.01.2021 19:43:26*
%MOMM*%
%LPD*%
G01*
G04 APERTURE LIST*
%ADD10C,0.300000*%
G04 APERTURE END LIST*
D10*
X185099428Y-103548571D02*
X185099428Y-102048571D01*
X185956571Y-103548571D02*
X185313714Y-102691428D01*
X185956571Y-102048571D02*
X185099428Y-102905714D01*
X187170857Y-103477142D02*
X187028000Y-103548571D01*
X186742285Y-103548571D01*
X186599428Y-103477142D01*
X186528000Y-103334285D01*
X186528000Y-102762857D01*
X186599428Y-102620000D01*
X186742285Y-102548571D01*
X187028000Y-102548571D01*
X187170857Y-102620000D01*
X187242285Y-102762857D01*
X187242285Y-102905714D01*
X186528000Y-103048571D01*
X187813714Y-103477142D02*
X187956571Y-103548571D01*
X188242285Y-103548571D01*
X188385142Y-103477142D01*
X188456571Y-103334285D01*
X188456571Y-103262857D01*
X188385142Y-103120000D01*
X188242285Y-103048571D01*
X188028000Y-103048571D01*
X187885142Y-102977142D01*
X187813714Y-102834285D01*
X187813714Y-102762857D01*
X187885142Y-102620000D01*
X188028000Y-102548571D01*
X188242285Y-102548571D01*
X188385142Y-102620000D01*
X189028000Y-103477142D02*
X189170857Y-103548571D01*
X189456571Y-103548571D01*
X189599428Y-103477142D01*
X189670857Y-103334285D01*
X189670857Y-103262857D01*
X189599428Y-103120000D01*
X189456571Y-103048571D01*
X189242285Y-103048571D01*
X189099428Y-102977142D01*
X189028000Y-102834285D01*
X189028000Y-102762857D01*
X189099428Y-102620000D01*
X189242285Y-102548571D01*
X189456571Y-102548571D01*
X189599428Y-102620000D01*
X190885142Y-103477142D02*
X190742285Y-103548571D01*
X190456571Y-103548571D01*
X190313714Y-103477142D01*
X190242285Y-103334285D01*
X190242285Y-102762857D01*
X190313714Y-102620000D01*
X190456571Y-102548571D01*
X190742285Y-102548571D01*
X190885142Y-102620000D01*
X190956571Y-102762857D01*
X190956571Y-102905714D01*
X190242285Y-103048571D01*
X191813714Y-103548571D02*
X191670857Y-103477142D01*
X191599428Y-103334285D01*
X191599428Y-102048571D01*
X192385142Y-103548571D02*
X192385142Y-102048571D01*
X192385142Y-102620000D02*
X192528000Y-102548571D01*
X192813714Y-102548571D01*
X192956571Y-102620000D01*
X193028000Y-102691428D01*
X193099428Y-102834285D01*
X193099428Y-103262857D01*
X193028000Y-103405714D01*
X192956571Y-103477142D01*
X192813714Y-103548571D01*
X192528000Y-103548571D01*
X192385142Y-103477142D01*
X193956571Y-103548571D02*
X193813714Y-103477142D01*
X193742285Y-103405714D01*
X193670857Y-103262857D01*
X193670857Y-102834285D01*
X193742285Y-102691428D01*
X193813714Y-102620000D01*
X193956571Y-102548571D01*
X194170857Y-102548571D01*
X194313714Y-102620000D01*
X194385142Y-102691428D01*
X194456571Y-102834285D01*
X194456571Y-103262857D01*
X194385142Y-103405714D01*
X194313714Y-103477142D01*
X194170857Y-103548571D01*
X193956571Y-103548571D01*
X194956571Y-103548571D02*
X195742285Y-102548571D01*
X194956571Y-102548571D02*
X195742285Y-103548571D01*
X197242285Y-102048571D02*
X197742285Y-103548571D01*
X198242285Y-102048571D01*
X199385142Y-102048571D02*
X199099428Y-102048571D01*
X198956571Y-102120000D01*
X198885142Y-102191428D01*
X198742285Y-102405714D01*
X198670857Y-102691428D01*
X198670857Y-103262857D01*
X198742285Y-103405714D01*
X198813714Y-103477142D01*
X198956571Y-103548571D01*
X199242285Y-103548571D01*
X199385142Y-103477142D01*
X199456571Y-103405714D01*
X199528000Y-103262857D01*
X199528000Y-102905714D01*
X199456571Y-102762857D01*
X199385142Y-102691428D01*
X199242285Y-102620000D01*
X198956571Y-102620000D01*
X198813714Y-102691428D01*
X198742285Y-102762857D01*
X198670857Y-102905714D01*
M02*
