G04 #@! TF.GenerationSoftware,KiCad,Pcbnew,(5.0.2)-1*
G04 #@! TF.CreationDate,2021-01-03T19:43:26+01:00*
G04 #@! TF.ProjectId,Radmesser,5261646d-6573-4736-9572-2e6b69636164,rev?*
G04 #@! TF.SameCoordinates,Original*
G04 #@! TF.FileFunction,Legend,Top*
G04 #@! TF.FilePolarity,Positive*
%FSLAX46Y46*%
G04 Gerber Fmt 4.6, Leading zero omitted, Abs format (unit mm)*
G04 Created by KiCad (PCBNEW (5.0.2)-1) date 03.01.2021 19:43:26*
%MOMM*%
%LPD*%
G01*
G04 APERTURE LIST*
%ADD10C,0.120000*%
%ADD11C,0.127000*%
%ADD12C,0.150000*%
%ADD13C,0.015000*%
G04 APERTURE END LIST*
D10*
G04 #@! TO.C,R6*
X150439198Y-96998684D02*
X150524608Y-96679929D01*
X150524608Y-96679929D02*
X156725852Y-98341547D01*
X156725852Y-98341547D02*
X156640442Y-98660302D01*
X149931913Y-98891899D02*
X149846503Y-99210654D01*
X149846503Y-99210654D02*
X156047746Y-100872273D01*
X156047746Y-100872273D02*
X156133157Y-100553517D01*
D11*
G04 #@! TO.C,Uvorne1*
X122751342Y-113247310D02*
X138131529Y-117657507D01*
X148705408Y-120689519D02*
X164085595Y-125099716D01*
X168850652Y-112109942D02*
X167889390Y-111834305D01*
X167889390Y-111834305D02*
X152509203Y-107424107D01*
X152509203Y-107424107D02*
X141935324Y-104392096D01*
X141935324Y-104392096D02*
X126555137Y-99981898D01*
X126555137Y-99981898D02*
X125593876Y-99706261D01*
X125593876Y-99706261D02*
X125924640Y-98552747D01*
X125924640Y-98552747D02*
X169181417Y-110956428D01*
X169181417Y-110956428D02*
X168850652Y-112109942D01*
X126555137Y-99981898D02*
X122751342Y-113247310D01*
X167889390Y-111834305D02*
X164085595Y-125099716D01*
X141935324Y-104392096D02*
X138131529Y-117657507D01*
X152509203Y-107424107D02*
X148705408Y-120689519D01*
G04 #@! TO.C,Uhinten2*
X200524676Y-104392096D02*
X204328471Y-117657507D01*
X189950797Y-107424107D02*
X193754593Y-120689518D01*
X215904863Y-99981898D02*
X219708658Y-113247310D01*
X174570610Y-111834305D02*
X178374405Y-125099716D01*
X216535360Y-98552747D02*
X216866124Y-99706261D01*
X173278583Y-110956428D02*
X216535360Y-98552747D01*
X173609348Y-112109942D02*
X173278583Y-110956428D01*
X174570610Y-111834305D02*
X173609348Y-112109942D01*
X189950797Y-107424107D02*
X174570610Y-111834305D01*
X200524676Y-104392096D02*
X189950797Y-107424107D01*
X215904863Y-99981898D02*
X200524676Y-104392096D01*
X216866124Y-99706261D02*
X215904863Y-99981898D01*
X204328471Y-117657507D02*
X219708658Y-113247310D01*
X178374405Y-125099716D02*
X193754593Y-120689518D01*
D10*
G04 #@! TO.C,Drot2*
X181922000Y-99821538D02*
G75*
G03X187472000Y-101366830I2990000J-462D01*
G01*
X181922000Y-99822462D02*
G75*
G02X187472000Y-98277170I2990000J462D01*
G01*
X187412000Y-99822000D02*
G75*
G03X187412000Y-99822000I-2500000J0D01*
G01*
X187472000Y-101367000D02*
X187472000Y-98277000D01*
G04 #@! TO.C,Dgrun1*
X180868000Y-101367000D02*
X180868000Y-98277000D01*
X180808000Y-99822000D02*
G75*
G03X180808000Y-99822000I-2500000J0D01*
G01*
X175318000Y-99822462D02*
G75*
G02X180868000Y-98277170I2990000J462D01*
G01*
X175318000Y-99821538D02*
G75*
G03X180868000Y-101366830I2990000J-462D01*
G01*
D11*
G04 #@! TO.C,GPS1*
X200722000Y-80312000D02*
X176722000Y-80312000D01*
X200722000Y-54312000D02*
X176722000Y-54312000D01*
X200722000Y-80312000D02*
X200722000Y-54312000D01*
X176722000Y-80312000D02*
X176722000Y-54312000D01*
D10*
G04 #@! TO.C,U3*
X177548000Y-89756000D02*
X177548000Y-88646000D01*
X178308000Y-89756000D02*
X177548000Y-89756000D01*
X179068000Y-88082529D02*
X179068000Y-87536000D01*
X179068000Y-89756000D02*
X179068000Y-89209471D01*
X179068000Y-87536000D02*
X181543000Y-87536000D01*
X179068000Y-89756000D02*
X181543000Y-89756000D01*
X181543000Y-88338470D02*
X181543000Y-87536000D01*
X181543000Y-89756000D02*
X181543000Y-88953530D01*
G04 #@! TO.C,SW1*
X145562000Y-87688000D02*
X145562000Y-88588000D01*
X145112000Y-88138000D02*
X146012000Y-88138000D01*
X149643000Y-87973000D02*
X149643000Y-88303000D01*
X149603000Y-87723000D02*
X149603000Y-88553000D01*
X149563000Y-87571000D02*
X149563000Y-88705000D01*
X149523000Y-87452000D02*
X149523000Y-88824000D01*
X149483000Y-87352000D02*
X149483000Y-88924000D01*
X149443000Y-87264000D02*
X149443000Y-89012000D01*
X149403000Y-87186000D02*
X149403000Y-89090000D01*
X149363000Y-87115000D02*
X149363000Y-89161000D01*
X149323000Y-87050000D02*
X149323000Y-89226000D01*
X149283000Y-86990000D02*
X149283000Y-89286000D01*
X149243000Y-86934000D02*
X149243000Y-89342000D01*
X149203000Y-86882000D02*
X149203000Y-89394000D01*
X149163000Y-86833000D02*
X149163000Y-89443000D01*
X149123000Y-86787000D02*
X149123000Y-89489000D01*
X149083000Y-88918000D02*
X149083000Y-89533000D01*
X149083000Y-86743000D02*
X149083000Y-87358000D01*
X149043000Y-88918000D02*
X149043000Y-89574000D01*
X149043000Y-86702000D02*
X149043000Y-87358000D01*
X149003000Y-88918000D02*
X149003000Y-89613000D01*
X149003000Y-86663000D02*
X149003000Y-87358000D01*
X148963000Y-88918000D02*
X148963000Y-89650000D01*
X148963000Y-86626000D02*
X148963000Y-87358000D01*
X148923000Y-88918000D02*
X148923000Y-89685000D01*
X148923000Y-86591000D02*
X148923000Y-87358000D01*
X148883000Y-88918000D02*
X148883000Y-89719000D01*
X148883000Y-86557000D02*
X148883000Y-87358000D01*
X148843000Y-88918000D02*
X148843000Y-89751000D01*
X148843000Y-86525000D02*
X148843000Y-87358000D01*
X148803000Y-88918000D02*
X148803000Y-89781000D01*
X148803000Y-86495000D02*
X148803000Y-87358000D01*
X148763000Y-88918000D02*
X148763000Y-89810000D01*
X148763000Y-86466000D02*
X148763000Y-87358000D01*
X148723000Y-88918000D02*
X148723000Y-89837000D01*
X148723000Y-86439000D02*
X148723000Y-87358000D01*
X148683000Y-88918000D02*
X148683000Y-89863000D01*
X148683000Y-86413000D02*
X148683000Y-87358000D01*
X148643000Y-88918000D02*
X148643000Y-89888000D01*
X148643000Y-86388000D02*
X148643000Y-87358000D01*
X148603000Y-88918000D02*
X148603000Y-89911000D01*
X148603000Y-86365000D02*
X148603000Y-87358000D01*
X148563000Y-88918000D02*
X148563000Y-89934000D01*
X148563000Y-86342000D02*
X148563000Y-87358000D01*
X148523000Y-88918000D02*
X148523000Y-89955000D01*
X148523000Y-86321000D02*
X148523000Y-87358000D01*
X148483000Y-88918000D02*
X148483000Y-89975000D01*
X148483000Y-86301000D02*
X148483000Y-87358000D01*
X148443000Y-88918000D02*
X148443000Y-89994000D01*
X148443000Y-86282000D02*
X148443000Y-87358000D01*
X148403000Y-88918000D02*
X148403000Y-90012000D01*
X148403000Y-86264000D02*
X148403000Y-87358000D01*
X148363000Y-88918000D02*
X148363000Y-90029000D01*
X148363000Y-86247000D02*
X148363000Y-87358000D01*
X148323000Y-88918000D02*
X148323000Y-90045000D01*
X148323000Y-86231000D02*
X148323000Y-87358000D01*
X148283000Y-88918000D02*
X148283000Y-90061000D01*
X148283000Y-86215000D02*
X148283000Y-87358000D01*
X148242000Y-88918000D02*
X148242000Y-90075000D01*
X148242000Y-86201000D02*
X148242000Y-87358000D01*
X148202000Y-88918000D02*
X148202000Y-90088000D01*
X148202000Y-86188000D02*
X148202000Y-87358000D01*
X148162000Y-88918000D02*
X148162000Y-90101000D01*
X148162000Y-86175000D02*
X148162000Y-87358000D01*
X148122000Y-88918000D02*
X148122000Y-90112000D01*
X148122000Y-86164000D02*
X148122000Y-87358000D01*
X148082000Y-88918000D02*
X148082000Y-90123000D01*
X148082000Y-86153000D02*
X148082000Y-87358000D01*
X148042000Y-88918000D02*
X148042000Y-90133000D01*
X148042000Y-86143000D02*
X148042000Y-87358000D01*
X148002000Y-88918000D02*
X148002000Y-90142000D01*
X148002000Y-86134000D02*
X148002000Y-87358000D01*
X147962000Y-88918000D02*
X147962000Y-90150000D01*
X147962000Y-86126000D02*
X147962000Y-87358000D01*
X147922000Y-88918000D02*
X147922000Y-90157000D01*
X147922000Y-86119000D02*
X147922000Y-87358000D01*
X147882000Y-88918000D02*
X147882000Y-90164000D01*
X147882000Y-86112000D02*
X147882000Y-87358000D01*
X147842000Y-88918000D02*
X147842000Y-90170000D01*
X147842000Y-86106000D02*
X147842000Y-87358000D01*
X147802000Y-88918000D02*
X147802000Y-90175000D01*
X147802000Y-86101000D02*
X147802000Y-87358000D01*
X147762000Y-88918000D02*
X147762000Y-90179000D01*
X147762000Y-86097000D02*
X147762000Y-87358000D01*
X147722000Y-88918000D02*
X147722000Y-90182000D01*
X147722000Y-86094000D02*
X147722000Y-87358000D01*
X147682000Y-88918000D02*
X147682000Y-90185000D01*
X147682000Y-86091000D02*
X147682000Y-87358000D01*
X147642000Y-88918000D02*
X147642000Y-90187000D01*
X147642000Y-86089000D02*
X147642000Y-87358000D01*
X147602000Y-88918000D02*
X147602000Y-90188000D01*
X147602000Y-86088000D02*
X147602000Y-87358000D01*
X147562000Y-86088000D02*
X147562000Y-87358000D01*
X147562000Y-88918000D02*
X147562000Y-90188000D01*
X149408436Y-89117170D02*
G75*
G03X149407996Y-87158000I-1846436J979170D01*
G01*
X149408436Y-89117170D02*
G75*
G02X145716004Y-89118000I-1846436J979170D01*
G01*
X149408436Y-87158830D02*
G75*
G03X145716004Y-87158000I-1846436J-979170D01*
G01*
G04 #@! TO.C,R1*
X152110000Y-85344000D02*
X153000000Y-85344000D01*
X160310000Y-85344000D02*
X159420000Y-85344000D01*
X153000000Y-86654000D02*
X159420000Y-86654000D01*
X153000000Y-84034000D02*
X153000000Y-86654000D01*
X159420000Y-84034000D02*
X153000000Y-84034000D01*
X159420000Y-86654000D02*
X159420000Y-84034000D01*
G04 #@! TO.C,R2*
X171866000Y-86654000D02*
X171866000Y-84034000D01*
X171866000Y-84034000D02*
X165446000Y-84034000D01*
X165446000Y-84034000D02*
X165446000Y-86654000D01*
X165446000Y-86654000D02*
X171866000Y-86654000D01*
X172756000Y-85344000D02*
X171866000Y-85344000D01*
X164556000Y-85344000D02*
X165446000Y-85344000D01*
G04 #@! TO.C,R3*
X167168000Y-82042000D02*
X166278000Y-82042000D01*
X158968000Y-82042000D02*
X159858000Y-82042000D01*
X166278000Y-80732000D02*
X159858000Y-80732000D01*
X166278000Y-83352000D02*
X166278000Y-80732000D01*
X159858000Y-83352000D02*
X166278000Y-83352000D01*
X159858000Y-80732000D02*
X159858000Y-83352000D01*
G04 #@! TO.C,R4*
X146650000Y-80732000D02*
X146650000Y-83352000D01*
X146650000Y-83352000D02*
X153070000Y-83352000D01*
X153070000Y-83352000D02*
X153070000Y-80732000D01*
X153070000Y-80732000D02*
X146650000Y-80732000D01*
X145760000Y-82042000D02*
X146650000Y-82042000D01*
X153960000Y-82042000D02*
X153070000Y-82042000D01*
G04 #@! TO.C,R7*
X165064000Y-88646000D02*
X165954000Y-88646000D01*
X173264000Y-88646000D02*
X172374000Y-88646000D01*
X165954000Y-89956000D02*
X172374000Y-89956000D01*
X165954000Y-87336000D02*
X165954000Y-89956000D01*
X172374000Y-87336000D02*
X165954000Y-87336000D01*
X172374000Y-89956000D02*
X172374000Y-87336000D01*
G04 #@! TO.C,R8*
X159420000Y-89956000D02*
X159420000Y-87336000D01*
X159420000Y-87336000D02*
X153000000Y-87336000D01*
X153000000Y-87336000D02*
X153000000Y-89956000D01*
X153000000Y-89956000D02*
X159420000Y-89956000D01*
X160310000Y-88646000D02*
X159420000Y-88646000D01*
X152110000Y-88646000D02*
X153000000Y-88646000D01*
G04 #@! TO.C,Dgelb3*
X174264000Y-101367000D02*
X174264000Y-98277000D01*
X174204000Y-99822000D02*
G75*
G03X174204000Y-99822000I-2500000J0D01*
G01*
X168714000Y-99822462D02*
G75*
G02X174264000Y-98277170I2990000J462D01*
G01*
X168714000Y-99821538D02*
G75*
G03X174264000Y-101366830I2990000J-462D01*
G01*
G04 #@! TO.C,R5*
X166786000Y-102656000D02*
X166786000Y-102326000D01*
X160366000Y-102656000D02*
X166786000Y-102656000D01*
X160366000Y-102326000D02*
X160366000Y-102656000D01*
X166786000Y-100036000D02*
X166786000Y-100366000D01*
X160366000Y-100036000D02*
X166786000Y-100036000D01*
X160366000Y-100366000D02*
X160366000Y-100036000D01*
G04 #@! TO.C,R9*
X166786000Y-99100000D02*
X166786000Y-98770000D01*
X160366000Y-99100000D02*
X166786000Y-99100000D01*
X160366000Y-98770000D02*
X160366000Y-99100000D01*
X166786000Y-96480000D02*
X166786000Y-96810000D01*
X160366000Y-96480000D02*
X166786000Y-96480000D01*
X160366000Y-96810000D02*
X160366000Y-96480000D01*
G04 #@! TO.C,R6*
D12*
X153137927Y-99453829D02*
X152939199Y-98907592D01*
X152585969Y-99305933D02*
X152844788Y-98340007D01*
X153212760Y-98438605D01*
X153292428Y-98509251D01*
X153326100Y-98567572D01*
X153347447Y-98671889D01*
X153310473Y-98809879D01*
X153239827Y-98889547D01*
X153181506Y-98923219D01*
X153077188Y-98944566D01*
X152709217Y-98845968D01*
X154224683Y-98709749D02*
X154040697Y-98660450D01*
X153936379Y-98681797D01*
X153878058Y-98715468D01*
X153749091Y-98828808D01*
X153653795Y-99000470D01*
X153555198Y-99368441D01*
X153576545Y-99472759D01*
X153610216Y-99531080D01*
X153689885Y-99601726D01*
X153873871Y-99651025D01*
X153978188Y-99629678D01*
X154036509Y-99596006D01*
X154107155Y-99516338D01*
X154168779Y-99286356D01*
X154147432Y-99182038D01*
X154113760Y-99123717D01*
X154034092Y-99053071D01*
X153850106Y-99003772D01*
X153745788Y-99025119D01*
X153687467Y-99058791D01*
X153616821Y-99138459D01*
G04 #@! TO.C,Uvorne1*
D13*
X126557388Y-97172493D02*
X126334137Y-97951062D01*
X126353671Y-98055791D01*
X126386336Y-98114722D01*
X126464800Y-98186785D01*
X126647993Y-98239314D01*
X126752722Y-98219781D01*
X126811652Y-98187115D01*
X126883715Y-98108651D01*
X127106966Y-97330082D01*
X127381425Y-97755729D02*
X127426562Y-98462565D01*
X127839407Y-97887053D01*
X128159333Y-98672684D02*
X128080869Y-98600621D01*
X128048203Y-98541690D01*
X128028670Y-98436962D01*
X128107464Y-98162173D01*
X128179527Y-98083709D01*
X128238458Y-98051043D01*
X128343186Y-98031509D01*
X128480581Y-98070907D01*
X128559045Y-98142970D01*
X128591711Y-98201900D01*
X128611244Y-98306629D01*
X128532449Y-98581418D01*
X128460386Y-98659882D01*
X128401456Y-98692548D01*
X128296727Y-98712081D01*
X128159333Y-98672684D01*
X128892103Y-98882802D02*
X129075957Y-98241628D01*
X129023427Y-98424821D02*
X129095490Y-98346357D01*
X129154421Y-98313691D01*
X129259150Y-98294158D01*
X129350746Y-98320423D01*
X129671333Y-98412349D02*
X129487480Y-99053524D01*
X129645068Y-98503946D02*
X129703999Y-98471280D01*
X129808728Y-98451747D01*
X129946122Y-98491144D01*
X130024586Y-98563207D01*
X130044120Y-98667936D01*
X129899663Y-99171716D01*
X130737162Y-99362301D02*
X130632434Y-99381834D01*
X130449241Y-99329305D01*
X130370777Y-99257242D01*
X130351244Y-99152513D01*
X130456303Y-98786127D01*
X130528366Y-98707664D01*
X130633095Y-98688130D01*
X130816288Y-98740660D01*
X130894751Y-98812723D01*
X130914285Y-98917452D01*
X130888020Y-99009048D01*
X130403773Y-98969320D01*
X131685792Y-99683880D02*
X131136214Y-99526291D01*
X131411003Y-99605085D02*
X131686783Y-98643324D01*
X131555790Y-98754453D01*
X131437929Y-98819785D01*
X131333200Y-98839318D01*
G04 #@! TO.C,Uhinten2*
X172808972Y-109529395D02*
X173032223Y-110307964D01*
X173104286Y-110386428D01*
X173163216Y-110419094D01*
X173267945Y-110438627D01*
X173451138Y-110386097D01*
X173529602Y-110314034D01*
X173562268Y-110255104D01*
X173581801Y-110150375D01*
X173358550Y-109371806D01*
X174092312Y-110202244D02*
X173816532Y-109240482D01*
X174504496Y-110084052D02*
X174360039Y-109580272D01*
X174287976Y-109501808D01*
X174183247Y-109482275D01*
X174045853Y-109521672D01*
X173967389Y-109593735D01*
X173934723Y-109652666D01*
X174962477Y-109952728D02*
X174778624Y-109311553D01*
X174686697Y-108990966D02*
X174654031Y-109049897D01*
X174712962Y-109082563D01*
X174745627Y-109023632D01*
X174686697Y-108990966D01*
X174712962Y-109082563D01*
X175236605Y-109180229D02*
X175420459Y-109821404D01*
X175262870Y-109271826D02*
X175295536Y-109212895D01*
X175374000Y-109140832D01*
X175511394Y-109101435D01*
X175616123Y-109120968D01*
X175688186Y-109199432D01*
X175832643Y-109703212D01*
X175969376Y-108970111D02*
X176335761Y-108865051D01*
X176014844Y-108610126D02*
X176251227Y-109434493D01*
X176323290Y-109512957D01*
X176428019Y-109532491D01*
X176519615Y-109506226D01*
X177193455Y-109263441D02*
X177114991Y-109335504D01*
X176931799Y-109388034D01*
X176827070Y-109368501D01*
X176755007Y-109290037D01*
X176649948Y-108923651D01*
X176669481Y-108818923D01*
X176747945Y-108746860D01*
X176931138Y-108694330D01*
X177035866Y-108713863D01*
X177107929Y-108792327D01*
X177134194Y-108883924D01*
X176702477Y-109106844D01*
X177480716Y-108536741D02*
X177664569Y-109177915D01*
X177506980Y-108628337D02*
X177539646Y-108569407D01*
X177618110Y-108497344D01*
X177755505Y-108457947D01*
X177860233Y-108477480D01*
X177932296Y-108555944D01*
X178076753Y-109059724D01*
X178239421Y-108071367D02*
X178272086Y-108012436D01*
X178350550Y-107940373D01*
X178579541Y-107874711D01*
X178684270Y-107894244D01*
X178743200Y-107926910D01*
X178815263Y-108005374D01*
X178841528Y-108096970D01*
X178835127Y-108247497D01*
X178443138Y-108954664D01*
X179038515Y-108783943D01*
G04 #@! TO.C,Drot2*
D12*
X183380285Y-102052380D02*
X183380285Y-101052380D01*
X183618380Y-101052380D01*
X183761238Y-101100000D01*
X183856476Y-101195238D01*
X183904095Y-101290476D01*
X183951714Y-101480952D01*
X183951714Y-101623809D01*
X183904095Y-101814285D01*
X183856476Y-101909523D01*
X183761238Y-102004761D01*
X183618380Y-102052380D01*
X183380285Y-102052380D01*
X184380285Y-102052380D02*
X184380285Y-101385714D01*
X184380285Y-101576190D02*
X184427904Y-101480952D01*
X184475523Y-101433333D01*
X184570761Y-101385714D01*
X184666000Y-101385714D01*
X185142190Y-102052380D02*
X185046952Y-102004761D01*
X184999333Y-101957142D01*
X184951714Y-101861904D01*
X184951714Y-101576190D01*
X184999333Y-101480952D01*
X185046952Y-101433333D01*
X185142190Y-101385714D01*
X185285047Y-101385714D01*
X185380285Y-101433333D01*
X185427904Y-101480952D01*
X185475523Y-101576190D01*
X185475523Y-101861904D01*
X185427904Y-101957142D01*
X185380285Y-102004761D01*
X185285047Y-102052380D01*
X185142190Y-102052380D01*
X185761238Y-101385714D02*
X186142190Y-101385714D01*
X185904095Y-101052380D02*
X185904095Y-101909523D01*
X185951714Y-102004761D01*
X186046952Y-102052380D01*
X186142190Y-102052380D01*
X186427904Y-101147619D02*
X186475523Y-101100000D01*
X186570761Y-101052380D01*
X186808857Y-101052380D01*
X186904095Y-101100000D01*
X186951714Y-101147619D01*
X186999333Y-101242857D01*
X186999333Y-101338095D01*
X186951714Y-101480952D01*
X186380285Y-102052380D01*
X186999333Y-102052380D01*
G04 #@! TO.C,Dgrun1*
X176157238Y-102306380D02*
X176157238Y-101306380D01*
X176395333Y-101306380D01*
X176538190Y-101354000D01*
X176633428Y-101449238D01*
X176681047Y-101544476D01*
X176728666Y-101734952D01*
X176728666Y-101877809D01*
X176681047Y-102068285D01*
X176633428Y-102163523D01*
X176538190Y-102258761D01*
X176395333Y-102306380D01*
X176157238Y-102306380D01*
X177585809Y-101639714D02*
X177585809Y-102449238D01*
X177538190Y-102544476D01*
X177490571Y-102592095D01*
X177395333Y-102639714D01*
X177252476Y-102639714D01*
X177157238Y-102592095D01*
X177585809Y-102258761D02*
X177490571Y-102306380D01*
X177300095Y-102306380D01*
X177204857Y-102258761D01*
X177157238Y-102211142D01*
X177109619Y-102115904D01*
X177109619Y-101830190D01*
X177157238Y-101734952D01*
X177204857Y-101687333D01*
X177300095Y-101639714D01*
X177490571Y-101639714D01*
X177585809Y-101687333D01*
X178062000Y-102306380D02*
X178062000Y-101639714D01*
X178062000Y-101830190D02*
X178109619Y-101734952D01*
X178157238Y-101687333D01*
X178252476Y-101639714D01*
X178347714Y-101639714D01*
X179109619Y-101639714D02*
X179109619Y-102306380D01*
X178681047Y-101639714D02*
X178681047Y-102163523D01*
X178728666Y-102258761D01*
X178823904Y-102306380D01*
X178966761Y-102306380D01*
X179062000Y-102258761D01*
X179109619Y-102211142D01*
X179585809Y-101639714D02*
X179585809Y-102306380D01*
X179585809Y-101734952D02*
X179633428Y-101687333D01*
X179728666Y-101639714D01*
X179871523Y-101639714D01*
X179966761Y-101687333D01*
X180014380Y-101782571D01*
X180014380Y-102306380D01*
X181014380Y-102306380D02*
X180442952Y-102306380D01*
X180728666Y-102306380D02*
X180728666Y-101306380D01*
X180633428Y-101449238D01*
X180538190Y-101544476D01*
X180442952Y-101592095D01*
G04 #@! TO.C,GPS1*
D13*
X197530904Y-80765030D02*
X197435617Y-80717386D01*
X197292685Y-80717386D01*
X197149754Y-80765030D01*
X197054466Y-80860317D01*
X197006822Y-80955605D01*
X196959179Y-81146180D01*
X196959179Y-81289111D01*
X197006822Y-81479687D01*
X197054466Y-81574974D01*
X197149754Y-81670262D01*
X197292685Y-81717906D01*
X197387973Y-81717906D01*
X197530904Y-81670262D01*
X197578548Y-81622618D01*
X197578548Y-81289111D01*
X197387973Y-81289111D01*
X198007342Y-81717906D02*
X198007342Y-80717386D01*
X198388493Y-80717386D01*
X198483780Y-80765030D01*
X198531424Y-80812673D01*
X198579068Y-80907961D01*
X198579068Y-81050892D01*
X198531424Y-81146180D01*
X198483780Y-81193824D01*
X198388493Y-81241468D01*
X198007342Y-81241468D01*
X198960219Y-81670262D02*
X199103150Y-81717906D01*
X199341369Y-81717906D01*
X199436657Y-81670262D01*
X199484300Y-81622618D01*
X199531944Y-81527330D01*
X199531944Y-81432043D01*
X199484300Y-81336755D01*
X199436657Y-81289111D01*
X199341369Y-81241468D01*
X199150794Y-81193824D01*
X199055506Y-81146180D01*
X199007862Y-81098536D01*
X198960219Y-81003249D01*
X198960219Y-80907961D01*
X199007862Y-80812673D01*
X199055506Y-80765030D01*
X199150794Y-80717386D01*
X199389013Y-80717386D01*
X199531944Y-80765030D01*
X200484820Y-81717906D02*
X199913095Y-81717906D01*
X200198958Y-81717906D02*
X200198958Y-80717386D01*
X200103670Y-80860317D01*
X200008382Y-80955605D01*
X199913095Y-81003249D01*
G04 #@! TO.C,U3*
D12*
X176065380Y-89407904D02*
X176874904Y-89407904D01*
X176970142Y-89360285D01*
X177017761Y-89312666D01*
X177065380Y-89217428D01*
X177065380Y-89026952D01*
X177017761Y-88931714D01*
X176970142Y-88884095D01*
X176874904Y-88836476D01*
X176065380Y-88836476D01*
X176065380Y-88455523D02*
X176065380Y-87836476D01*
X176446333Y-88169809D01*
X176446333Y-88026952D01*
X176493952Y-87931714D01*
X176541571Y-87884095D01*
X176636809Y-87836476D01*
X176874904Y-87836476D01*
X176970142Y-87884095D01*
X177017761Y-87931714D01*
X177065380Y-88026952D01*
X177065380Y-88312666D01*
X177017761Y-88407904D01*
X176970142Y-88455523D01*
G04 #@! TO.C,SW1*
X146228666Y-85232761D02*
X146371523Y-85280380D01*
X146609619Y-85280380D01*
X146704857Y-85232761D01*
X146752476Y-85185142D01*
X146800095Y-85089904D01*
X146800095Y-84994666D01*
X146752476Y-84899428D01*
X146704857Y-84851809D01*
X146609619Y-84804190D01*
X146419142Y-84756571D01*
X146323904Y-84708952D01*
X146276285Y-84661333D01*
X146228666Y-84566095D01*
X146228666Y-84470857D01*
X146276285Y-84375619D01*
X146323904Y-84328000D01*
X146419142Y-84280380D01*
X146657238Y-84280380D01*
X146800095Y-84328000D01*
X147133428Y-84280380D02*
X147371523Y-85280380D01*
X147562000Y-84566095D01*
X147752476Y-85280380D01*
X147990571Y-84280380D01*
X148895333Y-85280380D02*
X148323904Y-85280380D01*
X148609619Y-85280380D02*
X148609619Y-84280380D01*
X148514380Y-84423238D01*
X148419142Y-84518476D01*
X148323904Y-84566095D01*
G04 #@! TO.C,R1*
X156043333Y-85796380D02*
X155710000Y-85320190D01*
X155471904Y-85796380D02*
X155471904Y-84796380D01*
X155852857Y-84796380D01*
X155948095Y-84844000D01*
X155995714Y-84891619D01*
X156043333Y-84986857D01*
X156043333Y-85129714D01*
X155995714Y-85224952D01*
X155948095Y-85272571D01*
X155852857Y-85320190D01*
X155471904Y-85320190D01*
X156995714Y-85796380D02*
X156424285Y-85796380D01*
X156710000Y-85796380D02*
X156710000Y-84796380D01*
X156614761Y-84939238D01*
X156519523Y-85034476D01*
X156424285Y-85082095D01*
G04 #@! TO.C,R2*
X168235333Y-85796380D02*
X167902000Y-85320190D01*
X167663904Y-85796380D02*
X167663904Y-84796380D01*
X168044857Y-84796380D01*
X168140095Y-84844000D01*
X168187714Y-84891619D01*
X168235333Y-84986857D01*
X168235333Y-85129714D01*
X168187714Y-85224952D01*
X168140095Y-85272571D01*
X168044857Y-85320190D01*
X167663904Y-85320190D01*
X168616285Y-84891619D02*
X168663904Y-84844000D01*
X168759142Y-84796380D01*
X168997238Y-84796380D01*
X169092476Y-84844000D01*
X169140095Y-84891619D01*
X169187714Y-84986857D01*
X169187714Y-85082095D01*
X169140095Y-85224952D01*
X168568666Y-85796380D01*
X169187714Y-85796380D01*
G04 #@! TO.C,R3*
X162393333Y-82494380D02*
X162060000Y-82018190D01*
X161821904Y-82494380D02*
X161821904Y-81494380D01*
X162202857Y-81494380D01*
X162298095Y-81542000D01*
X162345714Y-81589619D01*
X162393333Y-81684857D01*
X162393333Y-81827714D01*
X162345714Y-81922952D01*
X162298095Y-81970571D01*
X162202857Y-82018190D01*
X161821904Y-82018190D01*
X162726666Y-81494380D02*
X163345714Y-81494380D01*
X163012380Y-81875333D01*
X163155238Y-81875333D01*
X163250476Y-81922952D01*
X163298095Y-81970571D01*
X163345714Y-82065809D01*
X163345714Y-82303904D01*
X163298095Y-82399142D01*
X163250476Y-82446761D01*
X163155238Y-82494380D01*
X162869523Y-82494380D01*
X162774285Y-82446761D01*
X162726666Y-82399142D01*
G04 #@! TO.C,R4*
X149947333Y-82494380D02*
X149614000Y-82018190D01*
X149375904Y-82494380D02*
X149375904Y-81494380D01*
X149756857Y-81494380D01*
X149852095Y-81542000D01*
X149899714Y-81589619D01*
X149947333Y-81684857D01*
X149947333Y-81827714D01*
X149899714Y-81922952D01*
X149852095Y-81970571D01*
X149756857Y-82018190D01*
X149375904Y-82018190D01*
X150804476Y-81827714D02*
X150804476Y-82494380D01*
X150566380Y-81446761D02*
X150328285Y-82161047D01*
X150947333Y-82161047D01*
G04 #@! TO.C,R7*
X168997333Y-89098380D02*
X168664000Y-88622190D01*
X168425904Y-89098380D02*
X168425904Y-88098380D01*
X168806857Y-88098380D01*
X168902095Y-88146000D01*
X168949714Y-88193619D01*
X168997333Y-88288857D01*
X168997333Y-88431714D01*
X168949714Y-88526952D01*
X168902095Y-88574571D01*
X168806857Y-88622190D01*
X168425904Y-88622190D01*
X169330666Y-88098380D02*
X169997333Y-88098380D01*
X169568761Y-89098380D01*
G04 #@! TO.C,R8*
X155789333Y-89098380D02*
X155456000Y-88622190D01*
X155217904Y-89098380D02*
X155217904Y-88098380D01*
X155598857Y-88098380D01*
X155694095Y-88146000D01*
X155741714Y-88193619D01*
X155789333Y-88288857D01*
X155789333Y-88431714D01*
X155741714Y-88526952D01*
X155694095Y-88574571D01*
X155598857Y-88622190D01*
X155217904Y-88622190D01*
X156360761Y-88526952D02*
X156265523Y-88479333D01*
X156217904Y-88431714D01*
X156170285Y-88336476D01*
X156170285Y-88288857D01*
X156217904Y-88193619D01*
X156265523Y-88146000D01*
X156360761Y-88098380D01*
X156551238Y-88098380D01*
X156646476Y-88146000D01*
X156694095Y-88193619D01*
X156741714Y-88288857D01*
X156741714Y-88336476D01*
X156694095Y-88431714D01*
X156646476Y-88479333D01*
X156551238Y-88526952D01*
X156360761Y-88526952D01*
X156265523Y-88574571D01*
X156217904Y-88622190D01*
X156170285Y-88717428D01*
X156170285Y-88907904D01*
X156217904Y-89003142D01*
X156265523Y-89050761D01*
X156360761Y-89098380D01*
X156551238Y-89098380D01*
X156646476Y-89050761D01*
X156694095Y-89003142D01*
X156741714Y-88907904D01*
X156741714Y-88717428D01*
X156694095Y-88622190D01*
X156646476Y-88574571D01*
X156551238Y-88526952D01*
G04 #@! TO.C,Dgelb3*
X169116666Y-102560380D02*
X169116666Y-101560380D01*
X169354761Y-101560380D01*
X169497619Y-101608000D01*
X169592857Y-101703238D01*
X169640476Y-101798476D01*
X169688095Y-101988952D01*
X169688095Y-102131809D01*
X169640476Y-102322285D01*
X169592857Y-102417523D01*
X169497619Y-102512761D01*
X169354761Y-102560380D01*
X169116666Y-102560380D01*
X170545238Y-101893714D02*
X170545238Y-102703238D01*
X170497619Y-102798476D01*
X170450000Y-102846095D01*
X170354761Y-102893714D01*
X170211904Y-102893714D01*
X170116666Y-102846095D01*
X170545238Y-102512761D02*
X170450000Y-102560380D01*
X170259523Y-102560380D01*
X170164285Y-102512761D01*
X170116666Y-102465142D01*
X170069047Y-102369904D01*
X170069047Y-102084190D01*
X170116666Y-101988952D01*
X170164285Y-101941333D01*
X170259523Y-101893714D01*
X170450000Y-101893714D01*
X170545238Y-101941333D01*
X171402380Y-102512761D02*
X171307142Y-102560380D01*
X171116666Y-102560380D01*
X171021428Y-102512761D01*
X170973809Y-102417523D01*
X170973809Y-102036571D01*
X171021428Y-101941333D01*
X171116666Y-101893714D01*
X171307142Y-101893714D01*
X171402380Y-101941333D01*
X171450000Y-102036571D01*
X171450000Y-102131809D01*
X170973809Y-102227047D01*
X172021428Y-102560380D02*
X171926190Y-102512761D01*
X171878571Y-102417523D01*
X171878571Y-101560380D01*
X172402380Y-102560380D02*
X172402380Y-101560380D01*
X172402380Y-101941333D02*
X172497619Y-101893714D01*
X172688095Y-101893714D01*
X172783333Y-101941333D01*
X172830952Y-101988952D01*
X172878571Y-102084190D01*
X172878571Y-102369904D01*
X172830952Y-102465142D01*
X172783333Y-102512761D01*
X172688095Y-102560380D01*
X172497619Y-102560380D01*
X172402380Y-102512761D01*
X173211904Y-101560380D02*
X173830952Y-101560380D01*
X173497619Y-101941333D01*
X173640476Y-101941333D01*
X173735714Y-101988952D01*
X173783333Y-102036571D01*
X173830952Y-102131809D01*
X173830952Y-102369904D01*
X173783333Y-102465142D01*
X173735714Y-102512761D01*
X173640476Y-102560380D01*
X173354761Y-102560380D01*
X173259523Y-102512761D01*
X173211904Y-102465142D01*
G04 #@! TO.C,R5*
X163663333Y-101798380D02*
X163330000Y-101322190D01*
X163091904Y-101798380D02*
X163091904Y-100798380D01*
X163472857Y-100798380D01*
X163568095Y-100846000D01*
X163615714Y-100893619D01*
X163663333Y-100988857D01*
X163663333Y-101131714D01*
X163615714Y-101226952D01*
X163568095Y-101274571D01*
X163472857Y-101322190D01*
X163091904Y-101322190D01*
X164568095Y-100798380D02*
X164091904Y-100798380D01*
X164044285Y-101274571D01*
X164091904Y-101226952D01*
X164187142Y-101179333D01*
X164425238Y-101179333D01*
X164520476Y-101226952D01*
X164568095Y-101274571D01*
X164615714Y-101369809D01*
X164615714Y-101607904D01*
X164568095Y-101703142D01*
X164520476Y-101750761D01*
X164425238Y-101798380D01*
X164187142Y-101798380D01*
X164091904Y-101750761D01*
X164044285Y-101703142D01*
G04 #@! TO.C,R9*
X163409333Y-98242380D02*
X163076000Y-97766190D01*
X162837904Y-98242380D02*
X162837904Y-97242380D01*
X163218857Y-97242380D01*
X163314095Y-97290000D01*
X163361714Y-97337619D01*
X163409333Y-97432857D01*
X163409333Y-97575714D01*
X163361714Y-97670952D01*
X163314095Y-97718571D01*
X163218857Y-97766190D01*
X162837904Y-97766190D01*
X163885523Y-98242380D02*
X164076000Y-98242380D01*
X164171238Y-98194761D01*
X164218857Y-98147142D01*
X164314095Y-98004285D01*
X164361714Y-97813809D01*
X164361714Y-97432857D01*
X164314095Y-97337619D01*
X164266476Y-97290000D01*
X164171238Y-97242380D01*
X163980761Y-97242380D01*
X163885523Y-97290000D01*
X163837904Y-97337619D01*
X163790285Y-97432857D01*
X163790285Y-97670952D01*
X163837904Y-97766190D01*
X163885523Y-97813809D01*
X163980761Y-97861428D01*
X164171238Y-97861428D01*
X164266476Y-97813809D01*
X164314095Y-97766190D01*
X164361714Y-97670952D01*
G04 #@! TD*
M02*
