G04 #@! TF.GenerationSoftware,KiCad,Pcbnew,(5.0.2)-1*
G04 #@! TF.CreationDate,2020-10-18T11:15:27+02:00*
G04 #@! TF.ProjectId,Radmesser,5261646d-6573-4736-9572-2e6b69636164,rev?*
G04 #@! TF.SameCoordinates,Original*
G04 #@! TF.FileFunction,Copper,L1,Top*
G04 #@! TF.FilePolarity,Positive*
%FSLAX46Y46*%
G04 Gerber Fmt 4.6, Leading zero omitted, Abs format (unit mm)*
G04 Created by KiCad (PCBNEW (5.0.2)-1) date 18.10.2020 11:15:27*
%MOMM*%
%LPD*%
G01*
G04 APERTURE LIST*
G04 #@! TA.AperFunction,ComponentPad*
%ADD10C,1.530000*%
G04 #@! TD*
G04 #@! TA.AperFunction,ComponentPad*
%ADD11R,1.800000X1.800000*%
G04 #@! TD*
G04 #@! TA.AperFunction,ComponentPad*
%ADD12C,1.800000*%
G04 #@! TD*
G04 #@! TA.AperFunction,ComponentPad*
%ADD13O,1.700000X1.700000*%
G04 #@! TD*
G04 #@! TA.AperFunction,ComponentPad*
%ADD14R,1.700000X1.700000*%
G04 #@! TD*
G04 #@! TA.AperFunction,ComponentPad*
%ADD15O,1.600000X1.600000*%
G04 #@! TD*
G04 #@! TA.AperFunction,ComponentPad*
%ADD16C,1.600000*%
G04 #@! TD*
G04 #@! TA.AperFunction,ComponentPad*
%ADD17O,1.800000X1.800000*%
G04 #@! TD*
G04 #@! TA.AperFunction,ComponentPad*
%ADD18C,2.000000*%
G04 #@! TD*
G04 #@! TA.AperFunction,Conductor*
%ADD19C,0.500000*%
G04 #@! TD*
G04 #@! TA.AperFunction,Conductor*
%ADD20C,0.600000*%
G04 #@! TD*
G04 APERTURE END LIST*
D10*
G04 #@! TO.P,Uvorne1,2*
G04 #@! TO.N,Net-(J1-Pad35)*
X147509198Y-106649941D03*
G04 #@! TO.P,Uvorne1,3*
G04 #@! TO.N,Net-(R4-Pad1)*
X149950802Y-107350059D03*
G04 #@! TO.P,Uvorne1,4*
G04 #@! TO.N,GND*
X152392407Y-108050179D03*
G04 #@! TO.P,Uvorne1,1*
G04 #@! TO.N,Net-(J1-Pad2)*
X145067593Y-105949821D03*
G04 #@! TD*
G04 #@! TO.P,Uhinten2,1*
G04 #@! TO.N,Net-(J1-Pad2)*
X190067593Y-108050180D03*
G04 #@! TO.P,Uhinten2,4*
G04 #@! TO.N,GND*
X197392407Y-105949820D03*
G04 #@! TO.P,Uhinten2,3*
G04 #@! TO.N,Net-(R2-Pad1)*
X194950802Y-106649941D03*
G04 #@! TO.P,Uhinten2,2*
G04 #@! TO.N,Net-(J1-Pad35)*
X192509198Y-107350059D03*
G04 #@! TD*
D11*
G04 #@! TO.P,Drot2,1*
G04 #@! TO.N,Net-(Drot2-Pad1)*
X178308000Y-90424000D03*
D12*
G04 #@! TO.P,Drot2,2*
G04 #@! TO.N,Net-(Drot2-Pad2)*
X175768000Y-90424000D03*
G04 #@! TD*
G04 #@! TO.P,Dgrun1,2*
G04 #@! TO.N,Net-(Dgrun1-Pad2)*
X168656000Y-90424000D03*
D11*
G04 #@! TO.P,Dgrun1,1*
G04 #@! TO.N,Net-(Dgrun1-Pad1)*
X171196000Y-90424000D03*
G04 #@! TD*
D10*
G04 #@! TO.P,GPS1,2*
G04 #@! TO.N,Net-(GPS1-Pad2)*
X201930000Y-90678000D03*
G04 #@! TO.P,GPS1,3*
G04 #@! TO.N,Net-(GPS1-Pad3)*
X201930000Y-88138000D03*
G04 #@! TO.P,GPS1,4*
G04 #@! TO.N,GND*
X201930000Y-85598000D03*
G04 #@! TO.P,GPS1,1*
G04 #@! TO.N,Net-(GPS1-Pad1)*
X201930000Y-93218000D03*
G04 #@! TD*
D13*
G04 #@! TO.P,J1,40*
G04 #@! TO.N,Net-(Dgrun1-Pad2)*
X147320000Y-85090000D03*
G04 #@! TO.P,J1,39*
G04 #@! TO.N,GND*
X147320000Y-82550000D03*
G04 #@! TO.P,J1,38*
G04 #@! TO.N,Net-(Drot2-Pad2)*
X149860000Y-85090000D03*
G04 #@! TO.P,J1,37*
G04 #@! TO.N,Net-(J1-Pad37)*
X149860000Y-82550000D03*
G04 #@! TO.P,J1,36*
G04 #@! TO.N,Net-(J1-Pad36)*
X152400000Y-85090000D03*
G04 #@! TO.P,J1,35*
G04 #@! TO.N,Net-(J1-Pad35)*
X152400000Y-82550000D03*
G04 #@! TO.P,J1,34*
G04 #@! TO.N,GND*
X154940000Y-85090000D03*
G04 #@! TO.P,J1,33*
G04 #@! TO.N,Net-(J1-Pad33)*
X154940000Y-82550000D03*
G04 #@! TO.P,J1,32*
G04 #@! TO.N,Net-(J1-Pad32)*
X157480000Y-85090000D03*
G04 #@! TO.P,J1,31*
G04 #@! TO.N,Net-(J1-Pad31)*
X157480000Y-82550000D03*
G04 #@! TO.P,J1,30*
G04 #@! TO.N,Net-(J1-Pad30)*
X160020000Y-85090000D03*
G04 #@! TO.P,J1,29*
G04 #@! TO.N,Net-(J1-Pad29)*
X160020000Y-82550000D03*
G04 #@! TO.P,J1,28*
G04 #@! TO.N,Net-(J1-Pad28)*
X162560000Y-85090000D03*
G04 #@! TO.P,J1,27*
G04 #@! TO.N,Net-(J1-Pad27)*
X162560000Y-82550000D03*
G04 #@! TO.P,J1,26*
G04 #@! TO.N,Net-(J1-Pad26)*
X165100000Y-85090000D03*
G04 #@! TO.P,J1,25*
G04 #@! TO.N,Net-(J1-Pad25)*
X165100000Y-82550000D03*
G04 #@! TO.P,J1,24*
G04 #@! TO.N,Net-(J1-Pad24)*
X167640000Y-85090000D03*
G04 #@! TO.P,J1,23*
G04 #@! TO.N,Net-(J1-Pad23)*
X167640000Y-82550000D03*
G04 #@! TO.P,J1,22*
G04 #@! TO.N,Net-(J1-Pad22)*
X170180000Y-85090000D03*
G04 #@! TO.P,J1,21*
G04 #@! TO.N,Net-(J1-Pad21)*
X170180000Y-82550000D03*
G04 #@! TO.P,J1,20*
G04 #@! TO.N,Net-(J1-Pad20)*
X172720000Y-85090000D03*
G04 #@! TO.P,J1,19*
G04 #@! TO.N,Net-(J1-Pad19)*
X172720000Y-82550000D03*
G04 #@! TO.P,J1,18*
G04 #@! TO.N,Net-(J1-Pad18)*
X175260000Y-85090000D03*
G04 #@! TO.P,J1,17*
G04 #@! TO.N,Net-(J1-Pad17)*
X175260000Y-82550000D03*
G04 #@! TO.P,J1,16*
G04 #@! TO.N,Net-(J1-Pad16)*
X177800000Y-85090000D03*
G04 #@! TO.P,J1,15*
G04 #@! TO.N,Net-(J1-Pad15)*
X177800000Y-82550000D03*
G04 #@! TO.P,J1,14*
G04 #@! TO.N,Net-(J1-Pad14)*
X180340000Y-85090000D03*
G04 #@! TO.P,J1,13*
G04 #@! TO.N,Net-(J1-Pad13)*
X180340000Y-82550000D03*
G04 #@! TO.P,J1,12*
G04 #@! TO.N,Net-(J1-Pad12)*
X182880000Y-85090000D03*
G04 #@! TO.P,J1,11*
G04 #@! TO.N,Net-(J1-Pad11)*
X182880000Y-82550000D03*
G04 #@! TO.P,J1,10*
G04 #@! TO.N,Net-(GPS1-Pad3)*
X185420000Y-85090000D03*
G04 #@! TO.P,J1,9*
G04 #@! TO.N,Net-(J1-Pad9)*
X185420000Y-82550000D03*
G04 #@! TO.P,J1,8*
G04 #@! TO.N,Net-(GPS1-Pad2)*
X187960000Y-85090000D03*
G04 #@! TO.P,J1,7*
G04 #@! TO.N,Net-(J1-Pad7)*
X187960000Y-82550000D03*
G04 #@! TO.P,J1,6*
G04 #@! TO.N,GND*
X190500000Y-85090000D03*
G04 #@! TO.P,J1,5*
G04 #@! TO.N,Net-(J1-Pad5)*
X190500000Y-82550000D03*
G04 #@! TO.P,J1,4*
G04 #@! TO.N,Net-(J1-Pad4)*
X193040000Y-85090000D03*
G04 #@! TO.P,J1,3*
G04 #@! TO.N,Net-(J1-Pad3)*
X193040000Y-82550000D03*
G04 #@! TO.P,J1,2*
G04 #@! TO.N,Net-(J1-Pad2)*
X195580000Y-85090000D03*
D14*
G04 #@! TO.P,J1,1*
G04 #@! TO.N,Net-(GPS1-Pad1)*
X195580000Y-82550000D03*
G04 #@! TD*
D15*
G04 #@! TO.P,R1,2*
G04 #@! TO.N,GND*
X154940000Y-100330000D03*
D16*
G04 #@! TO.P,R1,1*
G04 #@! TO.N,Net-(J1-Pad16)*
X170180000Y-100330000D03*
G04 #@! TD*
G04 #@! TO.P,R2,1*
G04 #@! TO.N,Net-(R2-Pad1)*
X189230000Y-100330000D03*
D15*
G04 #@! TO.P,R2,2*
G04 #@! TO.N,Net-(J1-Pad16)*
X173990000Y-100330000D03*
G04 #@! TD*
G04 #@! TO.P,R3,2*
G04 #@! TO.N,GND*
X186690000Y-104140000D03*
D16*
G04 #@! TO.P,R3,1*
G04 #@! TO.N,Net-(J1-Pad18)*
X171450000Y-104140000D03*
G04 #@! TD*
G04 #@! TO.P,R4,1*
G04 #@! TO.N,Net-(R4-Pad1)*
X152400000Y-104140000D03*
D15*
G04 #@! TO.P,R4,2*
G04 #@! TO.N,Net-(J1-Pad18)*
X167640000Y-104140000D03*
G04 #@! TD*
G04 #@! TO.P,R5,2*
G04 #@! TO.N,GND*
X197612000Y-90170000D03*
D16*
G04 #@! TO.P,R5,1*
G04 #@! TO.N,Net-(Drot2-Pad1)*
X182372000Y-90170000D03*
G04 #@! TD*
G04 #@! TO.P,R6,1*
G04 #@! TO.N,Net-(Dgrun1-Pad1)*
X182372000Y-93726000D03*
D15*
G04 #@! TO.P,R6,2*
G04 #@! TO.N,GND*
X197612000Y-93726000D03*
G04 #@! TD*
G04 #@! TO.P,R7,2*
G04 #@! TO.N,Net-(J1-Pad26)*
X175514000Y-96774000D03*
D16*
G04 #@! TO.P,R7,1*
G04 #@! TO.N,Net-(GPS1-Pad1)*
X160274000Y-96774000D03*
G04 #@! TD*
D17*
G04 #@! TO.P,U3,3*
G04 #@! TO.N,Net-(GPS1-Pad1)*
X158242000Y-91186000D03*
G04 #@! TO.P,U3,2*
G04 #@! TO.N,Net-(J1-Pad26)*
X160782000Y-91186000D03*
D11*
G04 #@! TO.P,U3,1*
G04 #@! TO.N,GND*
X163322000Y-91186000D03*
G04 #@! TD*
D18*
G04 #@! TO.P,SW1,1*
G04 #@! TO.N,Net-(J1-Pad31)*
X153058000Y-90678000D03*
G04 #@! TO.P,SW1,2*
G04 #@! TO.N,Net-(J1-Pad17)*
X153058000Y-95178000D03*
G04 #@! TO.P,SW1,1*
G04 #@! TO.N,Net-(J1-Pad31)*
X146558000Y-90678000D03*
G04 #@! TO.P,SW1,2*
G04 #@! TO.N,Net-(J1-Pad17)*
X146558000Y-95178000D03*
G04 #@! TD*
D19*
G04 #@! TO.N,Net-(Dgrun1-Pad2)*
X148169999Y-85939999D02*
X147320000Y-85090000D01*
X150560010Y-88330010D02*
X148169999Y-85939999D01*
X166562010Y-88330010D02*
X150560010Y-88330010D01*
X168656000Y-90424000D02*
X166562010Y-88330010D01*
G04 #@! TO.N,Net-(Dgrun1-Pad1)*
X181240630Y-93726000D02*
X182372000Y-93726000D01*
X175898000Y-93726000D02*
X181240630Y-93726000D01*
X172596000Y-90424000D02*
X175898000Y-93726000D01*
X171196000Y-90424000D02*
X172596000Y-90424000D01*
G04 #@! TO.N,Net-(Drot2-Pad1)*
X182118000Y-90424000D02*
X182372000Y-90170000D01*
X178308000Y-90424000D02*
X182118000Y-90424000D01*
G04 #@! TO.N,Net-(Drot2-Pad2)*
X152400000Y-87630000D02*
X149860000Y-85090000D01*
X175768000Y-90424000D02*
X172974000Y-87630000D01*
X172974000Y-87630000D02*
X152400000Y-87630000D01*
G04 #@! TO.N,Net-(GPS1-Pad2)*
X190307990Y-87437990D02*
X187960000Y-85090000D01*
X201930000Y-90678000D02*
X203145001Y-89462999D01*
X203145001Y-89462999D02*
X203145001Y-87554799D01*
X203145001Y-87554799D02*
X202458202Y-86868000D01*
X202458202Y-86868000D02*
X199434674Y-86868000D01*
X199434674Y-86868000D02*
X198864684Y-87437990D01*
X198864684Y-87437990D02*
X190307990Y-87437990D01*
D20*
G04 #@! TO.N,GND*
X191850001Y-86440001D02*
X198801999Y-86440001D01*
X190500000Y-85090000D02*
X191850001Y-86440001D01*
X196627408Y-105184821D02*
X197392407Y-105949820D01*
X188605999Y-99029999D02*
X190472586Y-99029999D01*
X186690000Y-100945998D02*
X188605999Y-99029999D01*
X186690000Y-104140000D02*
X186690000Y-100945998D01*
X190472586Y-99029999D02*
X191008000Y-99565413D01*
X191008000Y-99565413D02*
X196627408Y-105184821D01*
D19*
X198801999Y-86186001D02*
X198801999Y-86440001D01*
X201930000Y-85598000D02*
X199390000Y-85598000D01*
X199390000Y-85598000D02*
X198801999Y-86186001D01*
X163322000Y-91948000D02*
X154940000Y-100330000D01*
X163322000Y-91186000D02*
X163322000Y-91948000D01*
G04 #@! TO.N,Net-(J1-Pad35)*
X152400000Y-80535010D02*
X144254990Y-80535010D01*
X152400000Y-82550000D02*
X152400000Y-80535010D01*
X144254990Y-80535010D02*
X144254990Y-103503189D01*
X144362446Y-103503189D02*
X147509198Y-106649941D01*
X144254990Y-103503189D02*
X144362446Y-103503189D01*
X192509198Y-107350059D02*
X191044081Y-105884942D01*
X191044081Y-105884942D02*
X183167058Y-105884942D01*
X183167058Y-105884942D02*
X181356000Y-107696000D01*
X152217569Y-106077139D02*
X148082000Y-106077139D01*
X153836430Y-107696000D02*
X152217569Y-106077139D01*
X181356000Y-107696000D02*
X153836430Y-107696000D01*
X148274197Y-105884942D02*
X148082000Y-106077139D01*
X148082000Y-106077139D02*
X147509198Y-106649941D01*
G04 #@! TO.N,Net-(J1-Pad18)*
X167640000Y-104140000D02*
X171450000Y-104140000D01*
G04 #@! TO.N,Net-(J1-Pad16)*
X170180000Y-100330000D02*
X173990000Y-100330000D01*
G04 #@! TO.N,Net-(R2-Pad1)*
X194950802Y-106050802D02*
X194950802Y-106649941D01*
X189230000Y-100330000D02*
X194950802Y-106050802D01*
G04 #@! TO.N,Net-(R4-Pad1)*
X152400000Y-104140000D02*
X152400000Y-104836295D01*
G04 #@! TO.N,Net-(GPS1-Pad3)*
X186035998Y-85090000D02*
X185420000Y-85090000D01*
X188036009Y-87090011D02*
X186035998Y-85090000D01*
X188182011Y-87090011D02*
X188036009Y-87090011D01*
X201930000Y-88138000D02*
X189230000Y-88138000D01*
X189230000Y-88138000D02*
X188182011Y-87090011D01*
G04 #@! TO.N,Net-(J1-Pad2)*
X145067593Y-107031694D02*
X145034000Y-107065287D01*
X145067593Y-105949821D02*
X145067593Y-107031694D01*
X189302594Y-108815179D02*
X190067593Y-108050180D01*
X188142783Y-109974990D02*
X189302594Y-108815179D01*
X147943703Y-109974990D02*
X188142783Y-109974990D01*
X145034000Y-107065287D02*
X147943703Y-109974990D01*
G04 #@! TD*
M02*
