G04 #@! TF.GenerationSoftware,KiCad,Pcbnew,(5.0.2)-1*
G04 #@! TF.CreationDate,2021-02-20T21:55:20+01:00*
G04 #@! TF.ProjectId,Radmesser,5261646d-6573-4736-9572-2e6b69636164,rev?*
G04 #@! TF.SameCoordinates,Original*
G04 #@! TF.FileFunction,Legend,Bot*
G04 #@! TF.FilePolarity,Positive*
%FSLAX46Y46*%
G04 Gerber Fmt 4.6, Leading zero omitted, Abs format (unit mm)*
G04 Created by KiCad (PCBNEW (5.0.2)-1) date 20.02.2021 21:55:20*
%MOMM*%
%LPD*%
G01*
G04 APERTURE LIST*
%ADD10C,0.120000*%
%ADD11C,0.150000*%
G04 APERTURE END LIST*
D10*
G04 #@! TO.C,J1*
X196656000Y-116840000D02*
X196656000Y-115510000D01*
X196656000Y-115510000D02*
X195326000Y-115510000D01*
X196656000Y-118110000D02*
X194056000Y-118110000D01*
X194056000Y-118110000D02*
X194056000Y-115510000D01*
X194056000Y-115510000D02*
X145736000Y-115510000D01*
X145736000Y-120710000D02*
X145736000Y-115510000D01*
X196656000Y-120710000D02*
X145736000Y-120710000D01*
X196656000Y-120710000D02*
X196656000Y-118110000D01*
G04 #@! TO.C,J4*
X139270000Y-89730000D02*
X138000000Y-89730000D01*
X139270000Y-91000000D02*
X139270000Y-89730000D01*
X136957071Y-101540000D02*
X136560000Y-101540000D01*
X136957071Y-100780000D02*
X136560000Y-100780000D01*
X127900000Y-101540000D02*
X133900000Y-101540000D01*
X127900000Y-100780000D02*
X127900000Y-101540000D01*
X133900000Y-100780000D02*
X127900000Y-100780000D01*
X136560000Y-99890000D02*
X133900000Y-99890000D01*
X136957071Y-99000000D02*
X136560000Y-99000000D01*
X136957071Y-98240000D02*
X136560000Y-98240000D01*
X127900000Y-99000000D02*
X133900000Y-99000000D01*
X127900000Y-98240000D02*
X127900000Y-99000000D01*
X133900000Y-98240000D02*
X127900000Y-98240000D01*
X136560000Y-97350000D02*
X133900000Y-97350000D01*
X136957071Y-96460000D02*
X136560000Y-96460000D01*
X136957071Y-95700000D02*
X136560000Y-95700000D01*
X127900000Y-96460000D02*
X133900000Y-96460000D01*
X127900000Y-95700000D02*
X127900000Y-96460000D01*
X133900000Y-95700000D02*
X127900000Y-95700000D01*
X136560000Y-94810000D02*
X133900000Y-94810000D01*
X136957071Y-93920000D02*
X136560000Y-93920000D01*
X136957071Y-93160000D02*
X136560000Y-93160000D01*
X127900000Y-93920000D02*
X133900000Y-93920000D01*
X127900000Y-93160000D02*
X127900000Y-93920000D01*
X133900000Y-93160000D02*
X127900000Y-93160000D01*
X136560000Y-92270000D02*
X133900000Y-92270000D01*
X136890000Y-91380000D02*
X136560000Y-91380000D01*
X136890000Y-90620000D02*
X136560000Y-90620000D01*
X133900000Y-91280000D02*
X127900000Y-91280000D01*
X133900000Y-91160000D02*
X127900000Y-91160000D01*
X133900000Y-91040000D02*
X127900000Y-91040000D01*
X133900000Y-90920000D02*
X127900000Y-90920000D01*
X133900000Y-90800000D02*
X127900000Y-90800000D01*
X133900000Y-90680000D02*
X127900000Y-90680000D01*
X127900000Y-91380000D02*
X133900000Y-91380000D01*
X127900000Y-90620000D02*
X127900000Y-91380000D01*
X133900000Y-90620000D02*
X127900000Y-90620000D01*
X133900000Y-89670000D02*
X136560000Y-89670000D01*
X133900000Y-102490000D02*
X133900000Y-89670000D01*
X136560000Y-102490000D02*
X133900000Y-102490000D01*
X136560000Y-89670000D02*
X136560000Y-102490000D01*
G04 #@! TO.C,J1*
D11*
X197171333Y-114084380D02*
X197171333Y-114798666D01*
X197218952Y-114941523D01*
X197314190Y-115036761D01*
X197457047Y-115084380D01*
X197552285Y-115084380D01*
X196171333Y-115084380D02*
X196742761Y-115084380D01*
X196457047Y-115084380D02*
X196457047Y-114084380D01*
X196552285Y-114227238D01*
X196647523Y-114322476D01*
X196742761Y-114370095D01*
G04 #@! TO.C,J4*
X133948333Y-88182380D02*
X133948333Y-88896666D01*
X133995952Y-89039523D01*
X134091190Y-89134761D01*
X134234047Y-89182380D01*
X134329285Y-89182380D01*
X133043571Y-88515714D02*
X133043571Y-89182380D01*
X133281666Y-88134761D02*
X133519761Y-88849047D01*
X132900714Y-88849047D01*
G04 #@! TD*
M02*
