G04 #@! TF.GenerationSoftware,KiCad,Pcbnew,(5.0.2)-1*
G04 #@! TF.CreationDate,2021-03-21T08:53:34+01:00*
G04 #@! TF.ProjectId,Radmesser,5261646d-6573-4736-9572-2e6b69636164,rev?*
G04 #@! TF.SameCoordinates,Original*
G04 #@! TF.FileFunction,Paste,Bot*
G04 #@! TF.FilePolarity,Positive*
%FSLAX46Y46*%
G04 Gerber Fmt 4.6, Leading zero omitted, Abs format (unit mm)*
G04 Created by KiCad (PCBNEW (5.0.2)-1) date 21.03.2021 08:53:34*
%MOMM*%
%LPD*%
G01*
G04 APERTURE LIST*
%ADD10C,0.300000*%
G04 APERTURE END LIST*
D10*
X139681142Y-127409571D02*
X139681142Y-125909571D01*
X140538285Y-127409571D02*
X139895428Y-126552428D01*
X140538285Y-125909571D02*
X139681142Y-126766714D01*
X141752571Y-127338142D02*
X141609714Y-127409571D01*
X141324000Y-127409571D01*
X141181142Y-127338142D01*
X141109714Y-127195285D01*
X141109714Y-126623857D01*
X141181142Y-126481000D01*
X141324000Y-126409571D01*
X141609714Y-126409571D01*
X141752571Y-126481000D01*
X141824000Y-126623857D01*
X141824000Y-126766714D01*
X141109714Y-126909571D01*
X142395428Y-127338142D02*
X142538285Y-127409571D01*
X142824000Y-127409571D01*
X142966857Y-127338142D01*
X143038285Y-127195285D01*
X143038285Y-127123857D01*
X142966857Y-126981000D01*
X142824000Y-126909571D01*
X142609714Y-126909571D01*
X142466857Y-126838142D01*
X142395428Y-126695285D01*
X142395428Y-126623857D01*
X142466857Y-126481000D01*
X142609714Y-126409571D01*
X142824000Y-126409571D01*
X142966857Y-126481000D01*
X143609714Y-127338142D02*
X143752571Y-127409571D01*
X144038285Y-127409571D01*
X144181142Y-127338142D01*
X144252571Y-127195285D01*
X144252571Y-127123857D01*
X144181142Y-126981000D01*
X144038285Y-126909571D01*
X143824000Y-126909571D01*
X143681142Y-126838142D01*
X143609714Y-126695285D01*
X143609714Y-126623857D01*
X143681142Y-126481000D01*
X143824000Y-126409571D01*
X144038285Y-126409571D01*
X144181142Y-126481000D01*
X145466857Y-127338142D02*
X145324000Y-127409571D01*
X145038285Y-127409571D01*
X144895428Y-127338142D01*
X144824000Y-127195285D01*
X144824000Y-126623857D01*
X144895428Y-126481000D01*
X145038285Y-126409571D01*
X145324000Y-126409571D01*
X145466857Y-126481000D01*
X145538285Y-126623857D01*
X145538285Y-126766714D01*
X144824000Y-126909571D01*
X146395428Y-127409571D02*
X146252571Y-127338142D01*
X146181142Y-127195285D01*
X146181142Y-125909571D01*
X146966857Y-127409571D02*
X146966857Y-125909571D01*
X146966857Y-126481000D02*
X147109714Y-126409571D01*
X147395428Y-126409571D01*
X147538285Y-126481000D01*
X147609714Y-126552428D01*
X147681142Y-126695285D01*
X147681142Y-127123857D01*
X147609714Y-127266714D01*
X147538285Y-127338142D01*
X147395428Y-127409571D01*
X147109714Y-127409571D01*
X146966857Y-127338142D01*
X148538285Y-127409571D02*
X148395428Y-127338142D01*
X148324000Y-127266714D01*
X148252571Y-127123857D01*
X148252571Y-126695285D01*
X148324000Y-126552428D01*
X148395428Y-126481000D01*
X148538285Y-126409571D01*
X148752571Y-126409571D01*
X148895428Y-126481000D01*
X148966857Y-126552428D01*
X149038285Y-126695285D01*
X149038285Y-127123857D01*
X148966857Y-127266714D01*
X148895428Y-127338142D01*
X148752571Y-127409571D01*
X148538285Y-127409571D01*
X149538285Y-127409571D02*
X150324000Y-126409571D01*
X149538285Y-126409571D02*
X150324000Y-127409571D01*
X151824000Y-125909571D02*
X152324000Y-127409571D01*
X152824000Y-125909571D01*
X154109714Y-127409571D02*
X153252571Y-127409571D01*
X153681142Y-127409571D02*
X153681142Y-125909571D01*
X153538285Y-126123857D01*
X153395428Y-126266714D01*
X153252571Y-126338142D01*
X155038285Y-125909571D02*
X155181142Y-125909571D01*
X155324000Y-125981000D01*
X155395428Y-126052428D01*
X155466857Y-126195285D01*
X155538285Y-126481000D01*
X155538285Y-126838142D01*
X155466857Y-127123857D01*
X155395428Y-127266714D01*
X155324000Y-127338142D01*
X155181142Y-127409571D01*
X155038285Y-127409571D01*
X154895428Y-127338142D01*
X154824000Y-127266714D01*
X154752571Y-127123857D01*
X154681142Y-126838142D01*
X154681142Y-126481000D01*
X154752571Y-126195285D01*
X154824000Y-126052428D01*
X154895428Y-125981000D01*
X155038285Y-125909571D01*
M02*
