G04 #@! TF.GenerationSoftware,KiCad,Pcbnew,(5.0.2)-1*
G04 #@! TF.CreationDate,2021-03-21T08:53:35+01:00*
G04 #@! TF.ProjectId,Radmesser,5261646d-6573-4736-9572-2e6b69636164,rev?*
G04 #@! TF.SameCoordinates,Original*
G04 #@! TF.FileFunction,Legend,Bot*
G04 #@! TF.FilePolarity,Positive*
%FSLAX46Y46*%
G04 Gerber Fmt 4.6, Leading zero omitted, Abs format (unit mm)*
G04 Created by KiCad (PCBNEW (5.0.2)-1) date 21.03.2021 08:53:35*
%MOMM*%
%LPD*%
G01*
G04 APERTURE LIST*
%ADD10C,0.120000*%
%ADD11C,0.150000*%
G04 APERTURE END LIST*
D10*
G04 #@! TO.C,J1*
X196656000Y-116840000D02*
X196656000Y-115510000D01*
X196656000Y-115510000D02*
X195326000Y-115510000D01*
X196656000Y-118110000D02*
X194056000Y-118110000D01*
X194056000Y-118110000D02*
X194056000Y-115510000D01*
X194056000Y-115510000D02*
X145736000Y-115510000D01*
X145736000Y-120710000D02*
X145736000Y-115510000D01*
X196656000Y-120710000D02*
X145736000Y-120710000D01*
X196656000Y-120710000D02*
X196656000Y-118110000D01*
G04 #@! TO.C,J4*
X139446000Y-91694000D02*
X138176000Y-91694000D01*
X139446000Y-92964000D02*
X139446000Y-91694000D01*
X137133071Y-103504000D02*
X136736000Y-103504000D01*
X137133071Y-102744000D02*
X136736000Y-102744000D01*
X128076000Y-103504000D02*
X134076000Y-103504000D01*
X128076000Y-102744000D02*
X128076000Y-103504000D01*
X134076000Y-102744000D02*
X128076000Y-102744000D01*
X136736000Y-101854000D02*
X134076000Y-101854000D01*
X137133071Y-100964000D02*
X136736000Y-100964000D01*
X137133071Y-100204000D02*
X136736000Y-100204000D01*
X128076000Y-100964000D02*
X134076000Y-100964000D01*
X128076000Y-100204000D02*
X128076000Y-100964000D01*
X134076000Y-100204000D02*
X128076000Y-100204000D01*
X136736000Y-99314000D02*
X134076000Y-99314000D01*
X137133071Y-98424000D02*
X136736000Y-98424000D01*
X137133071Y-97664000D02*
X136736000Y-97664000D01*
X128076000Y-98424000D02*
X134076000Y-98424000D01*
X128076000Y-97664000D02*
X128076000Y-98424000D01*
X134076000Y-97664000D02*
X128076000Y-97664000D01*
X136736000Y-96774000D02*
X134076000Y-96774000D01*
X137133071Y-95884000D02*
X136736000Y-95884000D01*
X137133071Y-95124000D02*
X136736000Y-95124000D01*
X128076000Y-95884000D02*
X134076000Y-95884000D01*
X128076000Y-95124000D02*
X128076000Y-95884000D01*
X134076000Y-95124000D02*
X128076000Y-95124000D01*
X136736000Y-94234000D02*
X134076000Y-94234000D01*
X137066000Y-93344000D02*
X136736000Y-93344000D01*
X137066000Y-92584000D02*
X136736000Y-92584000D01*
X134076000Y-93244000D02*
X128076000Y-93244000D01*
X134076000Y-93124000D02*
X128076000Y-93124000D01*
X134076000Y-93004000D02*
X128076000Y-93004000D01*
X134076000Y-92884000D02*
X128076000Y-92884000D01*
X134076000Y-92764000D02*
X128076000Y-92764000D01*
X134076000Y-92644000D02*
X128076000Y-92644000D01*
X128076000Y-93344000D02*
X134076000Y-93344000D01*
X128076000Y-92584000D02*
X128076000Y-93344000D01*
X134076000Y-92584000D02*
X128076000Y-92584000D01*
X134076000Y-91634000D02*
X136736000Y-91634000D01*
X134076000Y-104454000D02*
X134076000Y-91634000D01*
X136736000Y-104454000D02*
X134076000Y-104454000D01*
X136736000Y-91634000D02*
X136736000Y-104454000D01*
G04 #@! TO.C,J1*
D11*
X197171333Y-114084380D02*
X197171333Y-114798666D01*
X197218952Y-114941523D01*
X197314190Y-115036761D01*
X197457047Y-115084380D01*
X197552285Y-115084380D01*
X196171333Y-115084380D02*
X196742761Y-115084380D01*
X196457047Y-115084380D02*
X196457047Y-114084380D01*
X196552285Y-114227238D01*
X196647523Y-114322476D01*
X196742761Y-114370095D01*
G04 #@! TO.C,J4*
X134124333Y-90146380D02*
X134124333Y-90860666D01*
X134171952Y-91003523D01*
X134267190Y-91098761D01*
X134410047Y-91146380D01*
X134505285Y-91146380D01*
X133219571Y-90479714D02*
X133219571Y-91146380D01*
X133457666Y-90098761D02*
X133695761Y-90813047D01*
X133076714Y-90813047D01*
G04 #@! TD*
M02*
