G04 #@! TF.GenerationSoftware,KiCad,Pcbnew,(5.0.2)-1*
G04 #@! TF.CreationDate,2020-12-29T21:20:42+01:00*
G04 #@! TF.ProjectId,Radmesser,5261646d-6573-4736-9572-2e6b69636164,rev?*
G04 #@! TF.SameCoordinates,Original*
G04 #@! TF.FileFunction,Soldermask,Bot*
G04 #@! TF.FilePolarity,Negative*
%FSLAX46Y46*%
G04 Gerber Fmt 4.6, Leading zero omitted, Abs format (unit mm)*
G04 Created by KiCad (PCBNEW (5.0.2)-1) date 29.12.2020 21:20:42*
%MOMM*%
%LPD*%
G01*
G04 APERTURE LIST*
%ADD10C,0.100000*%
G04 APERTURE END LIST*
D10*
G36*
X190305609Y-107265538D02*
X190305612Y-107265539D01*
X190305611Y-107265539D01*
X190454114Y-107327050D01*
X190587763Y-107416352D01*
X190701421Y-107530010D01*
X190790723Y-107663659D01*
X190820927Y-107736580D01*
X190852235Y-107812164D01*
X190883593Y-107969810D01*
X190883593Y-108130550D01*
X190852235Y-108288196D01*
X190852234Y-108288198D01*
X190790723Y-108436701D01*
X190701421Y-108570350D01*
X190587763Y-108684008D01*
X190454114Y-108773310D01*
X190331090Y-108824267D01*
X190305609Y-108834822D01*
X190147963Y-108866180D01*
X189987223Y-108866180D01*
X189829577Y-108834822D01*
X189804096Y-108824267D01*
X189681072Y-108773310D01*
X189547423Y-108684008D01*
X189433765Y-108570350D01*
X189344463Y-108436701D01*
X189282952Y-108288198D01*
X189282951Y-108288196D01*
X189251593Y-108130550D01*
X189251593Y-107969810D01*
X189282951Y-107812164D01*
X189314259Y-107736580D01*
X189344463Y-107663659D01*
X189433765Y-107530010D01*
X189547423Y-107416352D01*
X189681072Y-107327050D01*
X189829575Y-107265539D01*
X189829574Y-107265539D01*
X189829577Y-107265538D01*
X189987223Y-107234180D01*
X190147963Y-107234180D01*
X190305609Y-107265538D01*
X190305609Y-107265538D01*
G37*
G36*
X152630423Y-107265537D02*
X152640447Y-107269689D01*
X152778928Y-107327049D01*
X152912577Y-107416351D01*
X153026235Y-107530009D01*
X153115537Y-107663658D01*
X153166494Y-107786682D01*
X153177049Y-107812163D01*
X153208407Y-107969809D01*
X153208407Y-108130549D01*
X153177049Y-108288195D01*
X153177048Y-108288197D01*
X153115537Y-108436700D01*
X153026235Y-108570349D01*
X152912577Y-108684007D01*
X152778928Y-108773309D01*
X152655904Y-108824266D01*
X152630423Y-108834821D01*
X152472777Y-108866179D01*
X152312037Y-108866179D01*
X152154391Y-108834821D01*
X152128910Y-108824266D01*
X152005886Y-108773309D01*
X151872237Y-108684007D01*
X151758579Y-108570349D01*
X151669277Y-108436700D01*
X151607766Y-108288197D01*
X151607765Y-108288195D01*
X151576407Y-108130549D01*
X151576407Y-107969809D01*
X151607765Y-107812163D01*
X151618320Y-107786682D01*
X151669277Y-107663658D01*
X151758579Y-107530009D01*
X151872237Y-107416351D01*
X152005886Y-107327049D01*
X152144367Y-107269689D01*
X152154391Y-107265537D01*
X152312037Y-107234179D01*
X152472777Y-107234179D01*
X152630423Y-107265537D01*
X152630423Y-107265537D01*
G37*
G36*
X192747214Y-106565417D02*
X192757245Y-106569572D01*
X192895719Y-106626929D01*
X193029368Y-106716231D01*
X193143026Y-106829889D01*
X193232328Y-106963538D01*
X193283285Y-107086562D01*
X193293840Y-107112043D01*
X193325198Y-107269689D01*
X193325198Y-107430429D01*
X193293840Y-107588075D01*
X193293839Y-107588077D01*
X193232328Y-107736580D01*
X193143026Y-107870229D01*
X193029368Y-107983887D01*
X192895719Y-108073189D01*
X192772695Y-108124146D01*
X192747214Y-108134701D01*
X192589568Y-108166059D01*
X192428828Y-108166059D01*
X192271182Y-108134701D01*
X192245701Y-108124146D01*
X192122677Y-108073189D01*
X191989028Y-107983887D01*
X191875370Y-107870229D01*
X191786068Y-107736580D01*
X191724557Y-107588077D01*
X191724556Y-107588075D01*
X191693198Y-107430429D01*
X191693198Y-107269689D01*
X191724556Y-107112043D01*
X191735111Y-107086562D01*
X191786068Y-106963538D01*
X191875370Y-106829889D01*
X191989028Y-106716231D01*
X192122677Y-106626929D01*
X192261151Y-106569572D01*
X192271182Y-106565417D01*
X192428828Y-106534059D01*
X192589568Y-106534059D01*
X192747214Y-106565417D01*
X192747214Y-106565417D01*
G37*
G36*
X150188818Y-106565417D02*
X150198849Y-106569572D01*
X150337323Y-106626929D01*
X150470972Y-106716231D01*
X150584630Y-106829889D01*
X150673932Y-106963538D01*
X150724889Y-107086562D01*
X150735444Y-107112043D01*
X150766802Y-107269689D01*
X150766802Y-107430429D01*
X150735444Y-107588075D01*
X150735443Y-107588077D01*
X150673932Y-107736580D01*
X150584630Y-107870229D01*
X150470972Y-107983887D01*
X150337323Y-108073189D01*
X150214299Y-108124146D01*
X150188818Y-108134701D01*
X150031172Y-108166059D01*
X149870432Y-108166059D01*
X149712786Y-108134701D01*
X149687305Y-108124146D01*
X149564281Y-108073189D01*
X149430632Y-107983887D01*
X149316974Y-107870229D01*
X149227672Y-107736580D01*
X149166161Y-107588077D01*
X149166160Y-107588075D01*
X149134802Y-107430429D01*
X149134802Y-107269689D01*
X149166160Y-107112043D01*
X149176715Y-107086562D01*
X149227672Y-106963538D01*
X149316974Y-106829889D01*
X149430632Y-106716231D01*
X149564281Y-106626929D01*
X149702755Y-106569572D01*
X149712786Y-106565417D01*
X149870432Y-106534059D01*
X150031172Y-106534059D01*
X150188818Y-106565417D01*
X150188818Y-106565417D01*
G37*
G36*
X147747214Y-105865299D02*
X147747217Y-105865300D01*
X147747216Y-105865300D01*
X147895719Y-105926811D01*
X148029368Y-106016113D01*
X148143026Y-106129771D01*
X148232328Y-106263420D01*
X148283285Y-106386444D01*
X148293840Y-106411925D01*
X148325198Y-106569571D01*
X148325198Y-106730311D01*
X148293840Y-106887957D01*
X148293839Y-106887959D01*
X148232328Y-107036462D01*
X148143026Y-107170111D01*
X148029368Y-107283769D01*
X147895719Y-107373071D01*
X147772695Y-107424028D01*
X147747214Y-107434583D01*
X147589568Y-107465941D01*
X147428828Y-107465941D01*
X147271182Y-107434583D01*
X147245701Y-107424028D01*
X147122677Y-107373071D01*
X146989028Y-107283769D01*
X146875370Y-107170111D01*
X146786068Y-107036462D01*
X146724557Y-106887959D01*
X146724556Y-106887957D01*
X146693198Y-106730311D01*
X146693198Y-106569571D01*
X146724556Y-106411925D01*
X146735111Y-106386444D01*
X146786068Y-106263420D01*
X146875370Y-106129771D01*
X146989028Y-106016113D01*
X147122677Y-105926811D01*
X147271180Y-105865300D01*
X147271179Y-105865300D01*
X147271182Y-105865299D01*
X147428828Y-105833941D01*
X147589568Y-105833941D01*
X147747214Y-105865299D01*
X147747214Y-105865299D01*
G37*
G36*
X195188818Y-105865299D02*
X195188821Y-105865300D01*
X195188820Y-105865300D01*
X195337323Y-105926811D01*
X195470972Y-106016113D01*
X195584630Y-106129771D01*
X195673932Y-106263420D01*
X195724889Y-106386444D01*
X195735444Y-106411925D01*
X195766802Y-106569571D01*
X195766802Y-106730311D01*
X195735444Y-106887957D01*
X195735443Y-106887959D01*
X195673932Y-107036462D01*
X195584630Y-107170111D01*
X195470972Y-107283769D01*
X195337323Y-107373071D01*
X195214299Y-107424028D01*
X195188818Y-107434583D01*
X195031172Y-107465941D01*
X194870432Y-107465941D01*
X194712786Y-107434583D01*
X194687305Y-107424028D01*
X194564281Y-107373071D01*
X194430632Y-107283769D01*
X194316974Y-107170111D01*
X194227672Y-107036462D01*
X194166161Y-106887959D01*
X194166160Y-106887957D01*
X194134802Y-106730311D01*
X194134802Y-106569571D01*
X194166160Y-106411925D01*
X194176715Y-106386444D01*
X194227672Y-106263420D01*
X194316974Y-106129771D01*
X194430632Y-106016113D01*
X194564281Y-105926811D01*
X194712784Y-105865300D01*
X194712783Y-105865300D01*
X194712786Y-105865299D01*
X194870432Y-105833941D01*
X195031172Y-105833941D01*
X195188818Y-105865299D01*
X195188818Y-105865299D01*
G37*
G36*
X145305609Y-105165179D02*
X145305612Y-105165180D01*
X145305611Y-105165180D01*
X145454114Y-105226691D01*
X145587763Y-105315993D01*
X145701421Y-105429651D01*
X145790723Y-105563300D01*
X145841680Y-105686324D01*
X145852235Y-105711805D01*
X145883593Y-105869451D01*
X145883593Y-106030191D01*
X145852235Y-106187837D01*
X145852234Y-106187839D01*
X145790723Y-106336342D01*
X145701421Y-106469991D01*
X145587763Y-106583649D01*
X145454114Y-106672951D01*
X145349625Y-106716231D01*
X145305609Y-106734463D01*
X145147963Y-106765821D01*
X144987223Y-106765821D01*
X144829577Y-106734463D01*
X144785561Y-106716231D01*
X144681072Y-106672951D01*
X144547423Y-106583649D01*
X144433765Y-106469991D01*
X144344463Y-106336342D01*
X144282952Y-106187839D01*
X144282951Y-106187837D01*
X144251593Y-106030191D01*
X144251593Y-105869451D01*
X144282951Y-105711805D01*
X144293506Y-105686324D01*
X144344463Y-105563300D01*
X144433765Y-105429651D01*
X144547423Y-105315993D01*
X144681072Y-105226691D01*
X144829575Y-105165180D01*
X144829574Y-105165180D01*
X144829577Y-105165179D01*
X144987223Y-105133821D01*
X145147963Y-105133821D01*
X145305609Y-105165179D01*
X145305609Y-105165179D01*
G37*
G36*
X197630423Y-105165178D02*
X197655904Y-105175733D01*
X197778928Y-105226690D01*
X197912577Y-105315992D01*
X198026235Y-105429650D01*
X198115537Y-105563299D01*
X198166494Y-105686323D01*
X198177049Y-105711804D01*
X198208407Y-105869450D01*
X198208407Y-106030190D01*
X198177049Y-106187836D01*
X198177048Y-106187838D01*
X198115537Y-106336341D01*
X198026235Y-106469990D01*
X197912577Y-106583648D01*
X197778928Y-106672950D01*
X197655904Y-106723907D01*
X197630423Y-106734462D01*
X197472777Y-106765820D01*
X197312037Y-106765820D01*
X197154391Y-106734462D01*
X197128910Y-106723907D01*
X197005886Y-106672950D01*
X196872237Y-106583648D01*
X196758579Y-106469990D01*
X196669277Y-106336341D01*
X196607766Y-106187838D01*
X196607765Y-106187836D01*
X196576407Y-106030190D01*
X196576407Y-105869450D01*
X196607765Y-105711804D01*
X196618320Y-105686323D01*
X196669277Y-105563299D01*
X196758579Y-105429650D01*
X196872237Y-105315992D01*
X197005886Y-105226690D01*
X197128910Y-105175733D01*
X197154391Y-105165178D01*
X197312037Y-105133820D01*
X197472777Y-105133820D01*
X197630423Y-105165178D01*
X197630423Y-105165178D01*
G37*
G36*
X152648228Y-103321703D02*
X152803100Y-103385853D01*
X152942481Y-103478985D01*
X153061015Y-103597519D01*
X153154147Y-103736900D01*
X153218297Y-103891772D01*
X153251000Y-104056184D01*
X153251000Y-104223816D01*
X153218297Y-104388228D01*
X153154147Y-104543100D01*
X153061015Y-104682481D01*
X152942481Y-104801015D01*
X152803100Y-104894147D01*
X152648228Y-104958297D01*
X152483816Y-104991000D01*
X152316184Y-104991000D01*
X152151772Y-104958297D01*
X151996900Y-104894147D01*
X151857519Y-104801015D01*
X151738985Y-104682481D01*
X151645853Y-104543100D01*
X151581703Y-104388228D01*
X151549000Y-104223816D01*
X151549000Y-104056184D01*
X151581703Y-103891772D01*
X151645853Y-103736900D01*
X151738985Y-103597519D01*
X151857519Y-103478985D01*
X151996900Y-103385853D01*
X152151772Y-103321703D01*
X152316184Y-103289000D01*
X152483816Y-103289000D01*
X152648228Y-103321703D01*
X152648228Y-103321703D01*
G37*
G36*
X167806821Y-103301313D02*
X167806824Y-103301314D01*
X167806825Y-103301314D01*
X167967239Y-103349975D01*
X167967241Y-103349976D01*
X167967244Y-103349977D01*
X168115078Y-103428995D01*
X168244659Y-103535341D01*
X168351005Y-103664922D01*
X168430023Y-103812756D01*
X168430024Y-103812759D01*
X168430025Y-103812761D01*
X168478686Y-103973175D01*
X168478687Y-103973179D01*
X168495117Y-104140000D01*
X168478687Y-104306821D01*
X168478686Y-104306824D01*
X168478686Y-104306825D01*
X168453993Y-104388228D01*
X168430023Y-104467244D01*
X168351005Y-104615078D01*
X168244659Y-104744659D01*
X168115078Y-104851005D01*
X167967244Y-104930023D01*
X167967241Y-104930024D01*
X167967239Y-104930025D01*
X167806825Y-104978686D01*
X167806824Y-104978686D01*
X167806821Y-104978687D01*
X167681804Y-104991000D01*
X167598196Y-104991000D01*
X167473179Y-104978687D01*
X167473176Y-104978686D01*
X167473175Y-104978686D01*
X167312761Y-104930025D01*
X167312759Y-104930024D01*
X167312756Y-104930023D01*
X167164922Y-104851005D01*
X167035341Y-104744659D01*
X166928995Y-104615078D01*
X166849977Y-104467244D01*
X166826008Y-104388228D01*
X166801314Y-104306825D01*
X166801314Y-104306824D01*
X166801313Y-104306821D01*
X166784883Y-104140000D01*
X166801313Y-103973179D01*
X166801314Y-103973175D01*
X166849975Y-103812761D01*
X166849976Y-103812759D01*
X166849977Y-103812756D01*
X166928995Y-103664922D01*
X167035341Y-103535341D01*
X167164922Y-103428995D01*
X167312756Y-103349977D01*
X167312759Y-103349976D01*
X167312761Y-103349975D01*
X167473175Y-103301314D01*
X167473176Y-103301314D01*
X167473179Y-103301313D01*
X167598196Y-103289000D01*
X167681804Y-103289000D01*
X167806821Y-103301313D01*
X167806821Y-103301313D01*
G37*
G36*
X171698228Y-103321703D02*
X171853100Y-103385853D01*
X171992481Y-103478985D01*
X172111015Y-103597519D01*
X172204147Y-103736900D01*
X172268297Y-103891772D01*
X172301000Y-104056184D01*
X172301000Y-104223816D01*
X172268297Y-104388228D01*
X172204147Y-104543100D01*
X172111015Y-104682481D01*
X171992481Y-104801015D01*
X171853100Y-104894147D01*
X171698228Y-104958297D01*
X171533816Y-104991000D01*
X171366184Y-104991000D01*
X171201772Y-104958297D01*
X171046900Y-104894147D01*
X170907519Y-104801015D01*
X170788985Y-104682481D01*
X170695853Y-104543100D01*
X170631703Y-104388228D01*
X170599000Y-104223816D01*
X170599000Y-104056184D01*
X170631703Y-103891772D01*
X170695853Y-103736900D01*
X170788985Y-103597519D01*
X170907519Y-103478985D01*
X171046900Y-103385853D01*
X171201772Y-103321703D01*
X171366184Y-103289000D01*
X171533816Y-103289000D01*
X171698228Y-103321703D01*
X171698228Y-103321703D01*
G37*
G36*
X186856821Y-103301313D02*
X186856824Y-103301314D01*
X186856825Y-103301314D01*
X187017239Y-103349975D01*
X187017241Y-103349976D01*
X187017244Y-103349977D01*
X187165078Y-103428995D01*
X187294659Y-103535341D01*
X187401005Y-103664922D01*
X187480023Y-103812756D01*
X187480024Y-103812759D01*
X187480025Y-103812761D01*
X187528686Y-103973175D01*
X187528687Y-103973179D01*
X187545117Y-104140000D01*
X187528687Y-104306821D01*
X187528686Y-104306824D01*
X187528686Y-104306825D01*
X187503993Y-104388228D01*
X187480023Y-104467244D01*
X187401005Y-104615078D01*
X187294659Y-104744659D01*
X187165078Y-104851005D01*
X187017244Y-104930023D01*
X187017241Y-104930024D01*
X187017239Y-104930025D01*
X186856825Y-104978686D01*
X186856824Y-104978686D01*
X186856821Y-104978687D01*
X186731804Y-104991000D01*
X186648196Y-104991000D01*
X186523179Y-104978687D01*
X186523176Y-104978686D01*
X186523175Y-104978686D01*
X186362761Y-104930025D01*
X186362759Y-104930024D01*
X186362756Y-104930023D01*
X186214922Y-104851005D01*
X186085341Y-104744659D01*
X185978995Y-104615078D01*
X185899977Y-104467244D01*
X185876008Y-104388228D01*
X185851314Y-104306825D01*
X185851314Y-104306824D01*
X185851313Y-104306821D01*
X185834883Y-104140000D01*
X185851313Y-103973179D01*
X185851314Y-103973175D01*
X185899975Y-103812761D01*
X185899976Y-103812759D01*
X185899977Y-103812756D01*
X185978995Y-103664922D01*
X186085341Y-103535341D01*
X186214922Y-103428995D01*
X186362756Y-103349977D01*
X186362759Y-103349976D01*
X186362761Y-103349975D01*
X186523175Y-103301314D01*
X186523176Y-103301314D01*
X186523179Y-103301313D01*
X186648196Y-103289000D01*
X186731804Y-103289000D01*
X186856821Y-103301313D01*
X186856821Y-103301313D01*
G37*
G36*
X155106821Y-99491313D02*
X155106824Y-99491314D01*
X155106825Y-99491314D01*
X155267239Y-99539975D01*
X155267241Y-99539976D01*
X155267244Y-99539977D01*
X155415078Y-99618995D01*
X155544659Y-99725341D01*
X155651005Y-99854922D01*
X155730023Y-100002756D01*
X155730024Y-100002759D01*
X155730025Y-100002761D01*
X155778686Y-100163175D01*
X155778687Y-100163179D01*
X155795117Y-100330000D01*
X155778687Y-100496821D01*
X155778686Y-100496824D01*
X155778686Y-100496825D01*
X155753993Y-100578228D01*
X155730023Y-100657244D01*
X155651005Y-100805078D01*
X155544659Y-100934659D01*
X155415078Y-101041005D01*
X155267244Y-101120023D01*
X155267241Y-101120024D01*
X155267239Y-101120025D01*
X155106825Y-101168686D01*
X155106824Y-101168686D01*
X155106821Y-101168687D01*
X154981804Y-101181000D01*
X154898196Y-101181000D01*
X154773179Y-101168687D01*
X154773176Y-101168686D01*
X154773175Y-101168686D01*
X154612761Y-101120025D01*
X154612759Y-101120024D01*
X154612756Y-101120023D01*
X154464922Y-101041005D01*
X154335341Y-100934659D01*
X154228995Y-100805078D01*
X154149977Y-100657244D01*
X154126008Y-100578228D01*
X154101314Y-100496825D01*
X154101314Y-100496824D01*
X154101313Y-100496821D01*
X154084883Y-100330000D01*
X154101313Y-100163179D01*
X154101314Y-100163175D01*
X154149975Y-100002761D01*
X154149976Y-100002759D01*
X154149977Y-100002756D01*
X154228995Y-99854922D01*
X154335341Y-99725341D01*
X154464922Y-99618995D01*
X154612756Y-99539977D01*
X154612759Y-99539976D01*
X154612761Y-99539975D01*
X154773175Y-99491314D01*
X154773176Y-99491314D01*
X154773179Y-99491313D01*
X154898196Y-99479000D01*
X154981804Y-99479000D01*
X155106821Y-99491313D01*
X155106821Y-99491313D01*
G37*
G36*
X174156821Y-99491313D02*
X174156824Y-99491314D01*
X174156825Y-99491314D01*
X174317239Y-99539975D01*
X174317241Y-99539976D01*
X174317244Y-99539977D01*
X174465078Y-99618995D01*
X174594659Y-99725341D01*
X174701005Y-99854922D01*
X174780023Y-100002756D01*
X174780024Y-100002759D01*
X174780025Y-100002761D01*
X174828686Y-100163175D01*
X174828687Y-100163179D01*
X174845117Y-100330000D01*
X174828687Y-100496821D01*
X174828686Y-100496824D01*
X174828686Y-100496825D01*
X174803993Y-100578228D01*
X174780023Y-100657244D01*
X174701005Y-100805078D01*
X174594659Y-100934659D01*
X174465078Y-101041005D01*
X174317244Y-101120023D01*
X174317241Y-101120024D01*
X174317239Y-101120025D01*
X174156825Y-101168686D01*
X174156824Y-101168686D01*
X174156821Y-101168687D01*
X174031804Y-101181000D01*
X173948196Y-101181000D01*
X173823179Y-101168687D01*
X173823176Y-101168686D01*
X173823175Y-101168686D01*
X173662761Y-101120025D01*
X173662759Y-101120024D01*
X173662756Y-101120023D01*
X173514922Y-101041005D01*
X173385341Y-100934659D01*
X173278995Y-100805078D01*
X173199977Y-100657244D01*
X173176008Y-100578228D01*
X173151314Y-100496825D01*
X173151314Y-100496824D01*
X173151313Y-100496821D01*
X173134883Y-100330000D01*
X173151313Y-100163179D01*
X173151314Y-100163175D01*
X173199975Y-100002761D01*
X173199976Y-100002759D01*
X173199977Y-100002756D01*
X173278995Y-99854922D01*
X173385341Y-99725341D01*
X173514922Y-99618995D01*
X173662756Y-99539977D01*
X173662759Y-99539976D01*
X173662761Y-99539975D01*
X173823175Y-99491314D01*
X173823176Y-99491314D01*
X173823179Y-99491313D01*
X173948196Y-99479000D01*
X174031804Y-99479000D01*
X174156821Y-99491313D01*
X174156821Y-99491313D01*
G37*
G36*
X189478228Y-99511703D02*
X189633100Y-99575853D01*
X189772481Y-99668985D01*
X189891015Y-99787519D01*
X189984147Y-99926900D01*
X190048297Y-100081772D01*
X190081000Y-100246184D01*
X190081000Y-100413816D01*
X190048297Y-100578228D01*
X189984147Y-100733100D01*
X189891015Y-100872481D01*
X189772481Y-100991015D01*
X189633100Y-101084147D01*
X189478228Y-101148297D01*
X189313816Y-101181000D01*
X189146184Y-101181000D01*
X188981772Y-101148297D01*
X188826900Y-101084147D01*
X188687519Y-100991015D01*
X188568985Y-100872481D01*
X188475853Y-100733100D01*
X188411703Y-100578228D01*
X188379000Y-100413816D01*
X188379000Y-100246184D01*
X188411703Y-100081772D01*
X188475853Y-99926900D01*
X188568985Y-99787519D01*
X188687519Y-99668985D01*
X188826900Y-99575853D01*
X188981772Y-99511703D01*
X189146184Y-99479000D01*
X189313816Y-99479000D01*
X189478228Y-99511703D01*
X189478228Y-99511703D01*
G37*
G36*
X170428228Y-99511703D02*
X170583100Y-99575853D01*
X170722481Y-99668985D01*
X170841015Y-99787519D01*
X170934147Y-99926900D01*
X170998297Y-100081772D01*
X171031000Y-100246184D01*
X171031000Y-100413816D01*
X170998297Y-100578228D01*
X170934147Y-100733100D01*
X170841015Y-100872481D01*
X170722481Y-100991015D01*
X170583100Y-101084147D01*
X170428228Y-101148297D01*
X170263816Y-101181000D01*
X170096184Y-101181000D01*
X169931772Y-101148297D01*
X169776900Y-101084147D01*
X169637519Y-100991015D01*
X169518985Y-100872481D01*
X169425853Y-100733100D01*
X169361703Y-100578228D01*
X169329000Y-100413816D01*
X169329000Y-100246184D01*
X169361703Y-100081772D01*
X169425853Y-99926900D01*
X169518985Y-99787519D01*
X169637519Y-99668985D01*
X169776900Y-99575853D01*
X169931772Y-99511703D01*
X170096184Y-99479000D01*
X170263816Y-99479000D01*
X170428228Y-99511703D01*
X170428228Y-99511703D01*
G37*
G36*
X160522228Y-95955703D02*
X160677100Y-96019853D01*
X160816481Y-96112985D01*
X160935015Y-96231519D01*
X161028147Y-96370900D01*
X161092297Y-96525772D01*
X161125000Y-96690184D01*
X161125000Y-96857816D01*
X161092297Y-97022228D01*
X161028147Y-97177100D01*
X160935015Y-97316481D01*
X160816481Y-97435015D01*
X160677100Y-97528147D01*
X160522228Y-97592297D01*
X160357816Y-97625000D01*
X160190184Y-97625000D01*
X160025772Y-97592297D01*
X159870900Y-97528147D01*
X159731519Y-97435015D01*
X159612985Y-97316481D01*
X159519853Y-97177100D01*
X159455703Y-97022228D01*
X159423000Y-96857816D01*
X159423000Y-96690184D01*
X159455703Y-96525772D01*
X159519853Y-96370900D01*
X159612985Y-96231519D01*
X159731519Y-96112985D01*
X159870900Y-96019853D01*
X160025772Y-95955703D01*
X160190184Y-95923000D01*
X160357816Y-95923000D01*
X160522228Y-95955703D01*
X160522228Y-95955703D01*
G37*
G36*
X175680821Y-95935313D02*
X175680824Y-95935314D01*
X175680825Y-95935314D01*
X175841239Y-95983975D01*
X175841241Y-95983976D01*
X175841244Y-95983977D01*
X175989078Y-96062995D01*
X176118659Y-96169341D01*
X176225005Y-96298922D01*
X176304023Y-96446756D01*
X176304024Y-96446759D01*
X176304025Y-96446761D01*
X176352686Y-96607175D01*
X176352687Y-96607179D01*
X176369117Y-96774000D01*
X176352687Y-96940821D01*
X176352686Y-96940824D01*
X176352686Y-96940825D01*
X176327993Y-97022228D01*
X176304023Y-97101244D01*
X176225005Y-97249078D01*
X176118659Y-97378659D01*
X175989078Y-97485005D01*
X175841244Y-97564023D01*
X175841241Y-97564024D01*
X175841239Y-97564025D01*
X175680825Y-97612686D01*
X175680824Y-97612686D01*
X175680821Y-97612687D01*
X175555804Y-97625000D01*
X175472196Y-97625000D01*
X175347179Y-97612687D01*
X175347176Y-97612686D01*
X175347175Y-97612686D01*
X175186761Y-97564025D01*
X175186759Y-97564024D01*
X175186756Y-97564023D01*
X175038922Y-97485005D01*
X174909341Y-97378659D01*
X174802995Y-97249078D01*
X174723977Y-97101244D01*
X174700008Y-97022228D01*
X174675314Y-96940825D01*
X174675314Y-96940824D01*
X174675313Y-96940821D01*
X174658883Y-96774000D01*
X174675313Y-96607179D01*
X174675314Y-96607175D01*
X174723975Y-96446761D01*
X174723976Y-96446759D01*
X174723977Y-96446756D01*
X174802995Y-96298922D01*
X174909341Y-96169341D01*
X175038922Y-96062995D01*
X175186756Y-95983977D01*
X175186759Y-95983976D01*
X175186761Y-95983975D01*
X175347175Y-95935314D01*
X175347176Y-95935314D01*
X175347179Y-95935313D01*
X175472196Y-95923000D01*
X175555804Y-95923000D01*
X175680821Y-95935313D01*
X175680821Y-95935313D01*
G37*
G36*
X146864565Y-94167389D02*
X147055834Y-94246615D01*
X147227976Y-94361637D01*
X147374363Y-94508024D01*
X147489385Y-94680166D01*
X147568611Y-94871435D01*
X147609000Y-95074484D01*
X147609000Y-95281516D01*
X147568611Y-95484565D01*
X147489385Y-95675834D01*
X147374363Y-95847976D01*
X147227976Y-95994363D01*
X147055834Y-96109385D01*
X146864565Y-96188611D01*
X146661516Y-96229000D01*
X146454484Y-96229000D01*
X146251435Y-96188611D01*
X146060166Y-96109385D01*
X145888024Y-95994363D01*
X145741637Y-95847976D01*
X145626615Y-95675834D01*
X145547389Y-95484565D01*
X145507000Y-95281516D01*
X145507000Y-95074484D01*
X145547389Y-94871435D01*
X145626615Y-94680166D01*
X145741637Y-94508024D01*
X145888024Y-94361637D01*
X146060166Y-94246615D01*
X146251435Y-94167389D01*
X146454484Y-94127000D01*
X146661516Y-94127000D01*
X146864565Y-94167389D01*
X146864565Y-94167389D01*
G37*
G36*
X153364565Y-94167389D02*
X153555834Y-94246615D01*
X153727976Y-94361637D01*
X153874363Y-94508024D01*
X153989385Y-94680166D01*
X154068611Y-94871435D01*
X154109000Y-95074484D01*
X154109000Y-95281516D01*
X154068611Y-95484565D01*
X153989385Y-95675834D01*
X153874363Y-95847976D01*
X153727976Y-95994363D01*
X153555834Y-96109385D01*
X153364565Y-96188611D01*
X153161516Y-96229000D01*
X152954484Y-96229000D01*
X152751435Y-96188611D01*
X152560166Y-96109385D01*
X152388024Y-95994363D01*
X152241637Y-95847976D01*
X152126615Y-95675834D01*
X152047389Y-95484565D01*
X152007000Y-95281516D01*
X152007000Y-95074484D01*
X152047389Y-94871435D01*
X152126615Y-94680166D01*
X152241637Y-94508024D01*
X152388024Y-94361637D01*
X152560166Y-94246615D01*
X152751435Y-94167389D01*
X152954484Y-94127000D01*
X153161516Y-94127000D01*
X153364565Y-94167389D01*
X153364565Y-94167389D01*
G37*
G36*
X182620228Y-92907703D02*
X182775100Y-92971853D01*
X182914481Y-93064985D01*
X183033015Y-93183519D01*
X183126147Y-93322900D01*
X183190297Y-93477772D01*
X183223000Y-93642184D01*
X183223000Y-93809816D01*
X183190297Y-93974228D01*
X183126147Y-94129100D01*
X183033015Y-94268481D01*
X182914481Y-94387015D01*
X182775100Y-94480147D01*
X182620228Y-94544297D01*
X182455816Y-94577000D01*
X182288184Y-94577000D01*
X182123772Y-94544297D01*
X181968900Y-94480147D01*
X181829519Y-94387015D01*
X181710985Y-94268481D01*
X181617853Y-94129100D01*
X181553703Y-93974228D01*
X181521000Y-93809816D01*
X181521000Y-93642184D01*
X181553703Y-93477772D01*
X181617853Y-93322900D01*
X181710985Y-93183519D01*
X181829519Y-93064985D01*
X181968900Y-92971853D01*
X182123772Y-92907703D01*
X182288184Y-92875000D01*
X182455816Y-92875000D01*
X182620228Y-92907703D01*
X182620228Y-92907703D01*
G37*
G36*
X197778821Y-92887313D02*
X197778824Y-92887314D01*
X197778825Y-92887314D01*
X197939239Y-92935975D01*
X197939241Y-92935976D01*
X197939244Y-92935977D01*
X198087078Y-93014995D01*
X198216659Y-93121341D01*
X198323005Y-93250922D01*
X198402023Y-93398756D01*
X198402024Y-93398759D01*
X198402025Y-93398761D01*
X198450686Y-93559175D01*
X198450687Y-93559179D01*
X198467117Y-93726000D01*
X198450687Y-93892821D01*
X198450686Y-93892824D01*
X198450686Y-93892825D01*
X198417374Y-94002641D01*
X198402023Y-94053244D01*
X198323005Y-94201078D01*
X198216659Y-94330659D01*
X198087078Y-94437005D01*
X197939244Y-94516023D01*
X197939241Y-94516024D01*
X197939239Y-94516025D01*
X197778825Y-94564686D01*
X197778824Y-94564686D01*
X197778821Y-94564687D01*
X197653804Y-94577000D01*
X197570196Y-94577000D01*
X197445179Y-94564687D01*
X197445176Y-94564686D01*
X197445175Y-94564686D01*
X197284761Y-94516025D01*
X197284759Y-94516024D01*
X197284756Y-94516023D01*
X197136922Y-94437005D01*
X197007341Y-94330659D01*
X196900995Y-94201078D01*
X196821977Y-94053244D01*
X196806627Y-94002641D01*
X196773314Y-93892825D01*
X196773314Y-93892824D01*
X196773313Y-93892821D01*
X196756883Y-93726000D01*
X196773313Y-93559179D01*
X196773314Y-93559175D01*
X196821975Y-93398761D01*
X196821976Y-93398759D01*
X196821977Y-93398756D01*
X196900995Y-93250922D01*
X197007341Y-93121341D01*
X197136922Y-93014995D01*
X197284756Y-92935977D01*
X197284759Y-92935976D01*
X197284761Y-92935975D01*
X197445175Y-92887314D01*
X197445176Y-92887314D01*
X197445179Y-92887313D01*
X197570196Y-92875000D01*
X197653804Y-92875000D01*
X197778821Y-92887313D01*
X197778821Y-92887313D01*
G37*
G36*
X202168016Y-92433358D02*
X202168019Y-92433359D01*
X202168018Y-92433359D01*
X202316521Y-92494870D01*
X202450170Y-92584172D01*
X202563828Y-92697830D01*
X202653130Y-92831479D01*
X202684703Y-92907704D01*
X202714642Y-92979984D01*
X202746000Y-93137630D01*
X202746000Y-93298370D01*
X202714642Y-93456016D01*
X202714641Y-93456018D01*
X202653130Y-93604521D01*
X202563828Y-93738170D01*
X202450170Y-93851828D01*
X202316521Y-93941130D01*
X202193497Y-93992087D01*
X202168016Y-94002642D01*
X202010370Y-94034000D01*
X201849630Y-94034000D01*
X201691984Y-94002642D01*
X201666503Y-93992087D01*
X201543479Y-93941130D01*
X201409830Y-93851828D01*
X201296172Y-93738170D01*
X201206870Y-93604521D01*
X201145359Y-93456018D01*
X201145358Y-93456016D01*
X201114000Y-93298370D01*
X201114000Y-93137630D01*
X201145358Y-92979984D01*
X201175297Y-92907704D01*
X201206870Y-92831479D01*
X201296172Y-92697830D01*
X201409830Y-92584172D01*
X201543479Y-92494870D01*
X201691982Y-92433359D01*
X201691981Y-92433359D01*
X201691984Y-92433358D01*
X201849630Y-92402000D01*
X202010370Y-92402000D01*
X202168016Y-92433358D01*
X202168016Y-92433358D01*
G37*
G36*
X158428425Y-90248760D02*
X158428428Y-90248761D01*
X158428429Y-90248761D01*
X158607693Y-90303140D01*
X158607695Y-90303141D01*
X158772905Y-90391448D01*
X158917712Y-90510288D01*
X159036552Y-90655095D01*
X159067226Y-90712481D01*
X159124860Y-90820307D01*
X159156359Y-90924146D01*
X159179240Y-90999575D01*
X159197601Y-91186000D01*
X159179240Y-91372425D01*
X159179239Y-91372428D01*
X159179239Y-91372429D01*
X159142251Y-91494363D01*
X159124859Y-91551695D01*
X159036552Y-91716905D01*
X158917712Y-91861712D01*
X158772905Y-91980552D01*
X158772903Y-91980553D01*
X158607693Y-92068860D01*
X158428429Y-92123239D01*
X158428428Y-92123239D01*
X158428425Y-92123240D01*
X158288718Y-92137000D01*
X158195282Y-92137000D01*
X158055575Y-92123240D01*
X158055572Y-92123239D01*
X158055571Y-92123239D01*
X157876307Y-92068860D01*
X157711097Y-91980553D01*
X157711095Y-91980552D01*
X157566288Y-91861712D01*
X157447448Y-91716905D01*
X157359141Y-91551695D01*
X157341750Y-91494363D01*
X157304761Y-91372429D01*
X157304761Y-91372428D01*
X157304760Y-91372425D01*
X157286399Y-91186000D01*
X157304760Y-90999575D01*
X157327641Y-90924146D01*
X157359140Y-90820307D01*
X157416774Y-90712481D01*
X157447448Y-90655095D01*
X157566288Y-90510288D01*
X157711095Y-90391448D01*
X157876305Y-90303141D01*
X157876307Y-90303140D01*
X158055571Y-90248761D01*
X158055572Y-90248761D01*
X158055575Y-90248760D01*
X158195282Y-90235000D01*
X158288718Y-90235000D01*
X158428425Y-90248760D01*
X158428425Y-90248760D01*
G37*
G36*
X164273000Y-92137000D02*
X162371000Y-92137000D01*
X162371000Y-90235000D01*
X164273000Y-90235000D01*
X164273000Y-92137000D01*
X164273000Y-92137000D01*
G37*
G36*
X160968425Y-90248760D02*
X160968428Y-90248761D01*
X160968429Y-90248761D01*
X161147693Y-90303140D01*
X161147695Y-90303141D01*
X161312905Y-90391448D01*
X161457712Y-90510288D01*
X161576552Y-90655095D01*
X161607226Y-90712481D01*
X161664860Y-90820307D01*
X161696359Y-90924146D01*
X161719240Y-90999575D01*
X161737601Y-91186000D01*
X161719240Y-91372425D01*
X161719239Y-91372428D01*
X161719239Y-91372429D01*
X161682251Y-91494363D01*
X161664859Y-91551695D01*
X161576552Y-91716905D01*
X161457712Y-91861712D01*
X161312905Y-91980552D01*
X161312903Y-91980553D01*
X161147693Y-92068860D01*
X160968429Y-92123239D01*
X160968428Y-92123239D01*
X160968425Y-92123240D01*
X160828718Y-92137000D01*
X160735282Y-92137000D01*
X160595575Y-92123240D01*
X160595572Y-92123239D01*
X160595571Y-92123239D01*
X160416307Y-92068860D01*
X160251097Y-91980553D01*
X160251095Y-91980552D01*
X160106288Y-91861712D01*
X159987448Y-91716905D01*
X159899141Y-91551695D01*
X159881750Y-91494363D01*
X159844761Y-91372429D01*
X159844761Y-91372428D01*
X159844760Y-91372425D01*
X159826399Y-91186000D01*
X159844760Y-90999575D01*
X159867641Y-90924146D01*
X159899140Y-90820307D01*
X159956774Y-90712481D01*
X159987448Y-90655095D01*
X160106288Y-90510288D01*
X160251095Y-90391448D01*
X160416305Y-90303141D01*
X160416307Y-90303140D01*
X160595571Y-90248761D01*
X160595572Y-90248761D01*
X160595575Y-90248760D01*
X160735282Y-90235000D01*
X160828718Y-90235000D01*
X160968425Y-90248760D01*
X160968425Y-90248760D01*
G37*
G36*
X146864565Y-89667389D02*
X147055834Y-89746615D01*
X147227976Y-89861637D01*
X147374363Y-90008024D01*
X147489385Y-90180166D01*
X147568611Y-90371435D01*
X147609000Y-90574484D01*
X147609000Y-90781516D01*
X147568611Y-90984565D01*
X147489385Y-91175834D01*
X147374363Y-91347976D01*
X147227976Y-91494363D01*
X147055834Y-91609385D01*
X146864565Y-91688611D01*
X146661516Y-91729000D01*
X146454484Y-91729000D01*
X146251435Y-91688611D01*
X146060166Y-91609385D01*
X145888024Y-91494363D01*
X145741637Y-91347976D01*
X145626615Y-91175834D01*
X145547389Y-90984565D01*
X145507000Y-90781516D01*
X145507000Y-90574484D01*
X145547389Y-90371435D01*
X145626615Y-90180166D01*
X145741637Y-90008024D01*
X145888024Y-89861637D01*
X146060166Y-89746615D01*
X146251435Y-89667389D01*
X146454484Y-89627000D01*
X146661516Y-89627000D01*
X146864565Y-89667389D01*
X146864565Y-89667389D01*
G37*
G36*
X153364565Y-89667389D02*
X153555834Y-89746615D01*
X153727976Y-89861637D01*
X153874363Y-90008024D01*
X153989385Y-90180166D01*
X154068611Y-90371435D01*
X154109000Y-90574484D01*
X154109000Y-90781516D01*
X154068611Y-90984565D01*
X153989385Y-91175834D01*
X153874363Y-91347976D01*
X153727976Y-91494363D01*
X153555834Y-91609385D01*
X153364565Y-91688611D01*
X153161516Y-91729000D01*
X152954484Y-91729000D01*
X152751435Y-91688611D01*
X152560166Y-91609385D01*
X152388024Y-91494363D01*
X152241637Y-91347976D01*
X152126615Y-91175834D01*
X152047389Y-90984565D01*
X152007000Y-90781516D01*
X152007000Y-90574484D01*
X152047389Y-90371435D01*
X152126615Y-90180166D01*
X152241637Y-90008024D01*
X152388024Y-89861637D01*
X152560166Y-89746615D01*
X152751435Y-89667389D01*
X152954484Y-89627000D01*
X153161516Y-89627000D01*
X153364565Y-89667389D01*
X153364565Y-89667389D01*
G37*
G36*
X202168016Y-89893358D02*
X202168019Y-89893359D01*
X202168018Y-89893359D01*
X202316521Y-89954870D01*
X202450170Y-90044172D01*
X202563828Y-90157830D01*
X202653130Y-90291479D01*
X202686248Y-90371435D01*
X202714642Y-90439984D01*
X202746000Y-90597630D01*
X202746000Y-90758370D01*
X202714642Y-90916016D01*
X202714641Y-90916018D01*
X202653130Y-91064521D01*
X202563828Y-91198170D01*
X202450170Y-91311828D01*
X202316521Y-91401130D01*
X202193497Y-91452087D01*
X202168016Y-91462642D01*
X202010370Y-91494000D01*
X201849630Y-91494000D01*
X201691984Y-91462642D01*
X201666503Y-91452087D01*
X201543479Y-91401130D01*
X201409830Y-91311828D01*
X201296172Y-91198170D01*
X201206870Y-91064521D01*
X201145359Y-90916018D01*
X201145358Y-90916016D01*
X201114000Y-90758370D01*
X201114000Y-90597630D01*
X201145358Y-90439984D01*
X201173752Y-90371435D01*
X201206870Y-90291479D01*
X201296172Y-90157830D01*
X201409830Y-90044172D01*
X201543479Y-89954870D01*
X201691982Y-89893359D01*
X201691981Y-89893359D01*
X201691984Y-89893358D01*
X201849630Y-89862000D01*
X202010370Y-89862000D01*
X202168016Y-89893358D01*
X202168016Y-89893358D01*
G37*
G36*
X168933396Y-89509546D02*
X169106466Y-89581234D01*
X169262230Y-89685312D01*
X169394688Y-89817770D01*
X169498766Y-89973534D01*
X169570454Y-90146604D01*
X169607000Y-90330333D01*
X169607000Y-90517667D01*
X169570454Y-90701396D01*
X169498766Y-90874466D01*
X169394688Y-91030230D01*
X169262230Y-91162688D01*
X169106466Y-91266766D01*
X168933396Y-91338454D01*
X168749667Y-91375000D01*
X168562333Y-91375000D01*
X168378604Y-91338454D01*
X168205534Y-91266766D01*
X168049770Y-91162688D01*
X167917312Y-91030230D01*
X167813234Y-90874466D01*
X167741546Y-90701396D01*
X167705000Y-90517667D01*
X167705000Y-90330333D01*
X167741546Y-90146604D01*
X167813234Y-89973534D01*
X167917312Y-89817770D01*
X168049770Y-89685312D01*
X168205534Y-89581234D01*
X168378604Y-89509546D01*
X168562333Y-89473000D01*
X168749667Y-89473000D01*
X168933396Y-89509546D01*
X168933396Y-89509546D01*
G37*
G36*
X172147000Y-91375000D02*
X170245000Y-91375000D01*
X170245000Y-89473000D01*
X172147000Y-89473000D01*
X172147000Y-91375000D01*
X172147000Y-91375000D01*
G37*
G36*
X176045396Y-89509546D02*
X176218466Y-89581234D01*
X176374230Y-89685312D01*
X176506688Y-89817770D01*
X176610766Y-89973534D01*
X176682454Y-90146604D01*
X176719000Y-90330333D01*
X176719000Y-90517667D01*
X176682454Y-90701396D01*
X176610766Y-90874466D01*
X176506688Y-91030230D01*
X176374230Y-91162688D01*
X176218466Y-91266766D01*
X176045396Y-91338454D01*
X175861667Y-91375000D01*
X175674333Y-91375000D01*
X175490604Y-91338454D01*
X175317534Y-91266766D01*
X175161770Y-91162688D01*
X175029312Y-91030230D01*
X174925234Y-90874466D01*
X174853546Y-90701396D01*
X174817000Y-90517667D01*
X174817000Y-90330333D01*
X174853546Y-90146604D01*
X174925234Y-89973534D01*
X175029312Y-89817770D01*
X175161770Y-89685312D01*
X175317534Y-89581234D01*
X175490604Y-89509546D01*
X175674333Y-89473000D01*
X175861667Y-89473000D01*
X176045396Y-89509546D01*
X176045396Y-89509546D01*
G37*
G36*
X179259000Y-91375000D02*
X177357000Y-91375000D01*
X177357000Y-89473000D01*
X179259000Y-89473000D01*
X179259000Y-91375000D01*
X179259000Y-91375000D01*
G37*
G36*
X197778821Y-89331313D02*
X197778824Y-89331314D01*
X197778825Y-89331314D01*
X197939239Y-89379975D01*
X197939241Y-89379976D01*
X197939244Y-89379977D01*
X198087078Y-89458995D01*
X198216659Y-89565341D01*
X198323005Y-89694922D01*
X198402023Y-89842756D01*
X198402024Y-89842759D01*
X198402025Y-89842761D01*
X198450686Y-90003175D01*
X198450687Y-90003179D01*
X198467117Y-90170000D01*
X198450687Y-90336821D01*
X198450686Y-90336824D01*
X198450686Y-90336825D01*
X198419394Y-90439982D01*
X198402023Y-90497244D01*
X198323005Y-90645078D01*
X198216659Y-90774659D01*
X198087078Y-90881005D01*
X197939244Y-90960023D01*
X197939241Y-90960024D01*
X197939239Y-90960025D01*
X197778825Y-91008686D01*
X197778824Y-91008686D01*
X197778821Y-91008687D01*
X197653804Y-91021000D01*
X197570196Y-91021000D01*
X197445179Y-91008687D01*
X197445176Y-91008686D01*
X197445175Y-91008686D01*
X197284761Y-90960025D01*
X197284759Y-90960024D01*
X197284756Y-90960023D01*
X197136922Y-90881005D01*
X197007341Y-90774659D01*
X196900995Y-90645078D01*
X196821977Y-90497244D01*
X196804607Y-90439982D01*
X196773314Y-90336825D01*
X196773314Y-90336824D01*
X196773313Y-90336821D01*
X196756883Y-90170000D01*
X196773313Y-90003179D01*
X196773314Y-90003175D01*
X196821975Y-89842761D01*
X196821976Y-89842759D01*
X196821977Y-89842756D01*
X196900995Y-89694922D01*
X197007341Y-89565341D01*
X197136922Y-89458995D01*
X197284756Y-89379977D01*
X197284759Y-89379976D01*
X197284761Y-89379975D01*
X197445175Y-89331314D01*
X197445176Y-89331314D01*
X197445179Y-89331313D01*
X197570196Y-89319000D01*
X197653804Y-89319000D01*
X197778821Y-89331313D01*
X197778821Y-89331313D01*
G37*
G36*
X182620228Y-89351703D02*
X182775100Y-89415853D01*
X182914481Y-89508985D01*
X183033015Y-89627519D01*
X183126147Y-89766900D01*
X183190297Y-89921772D01*
X183223000Y-90086184D01*
X183223000Y-90253816D01*
X183190297Y-90418228D01*
X183126147Y-90573100D01*
X183033015Y-90712481D01*
X182914481Y-90831015D01*
X182775100Y-90924147D01*
X182620228Y-90988297D01*
X182455816Y-91021000D01*
X182288184Y-91021000D01*
X182123772Y-90988297D01*
X181968900Y-90924147D01*
X181829519Y-90831015D01*
X181710985Y-90712481D01*
X181617853Y-90573100D01*
X181553703Y-90418228D01*
X181521000Y-90253816D01*
X181521000Y-90086184D01*
X181553703Y-89921772D01*
X181617853Y-89766900D01*
X181710985Y-89627519D01*
X181829519Y-89508985D01*
X181968900Y-89415853D01*
X182123772Y-89351703D01*
X182288184Y-89319000D01*
X182455816Y-89319000D01*
X182620228Y-89351703D01*
X182620228Y-89351703D01*
G37*
G36*
X202168016Y-87353358D02*
X202168019Y-87353359D01*
X202168018Y-87353359D01*
X202316521Y-87414870D01*
X202450170Y-87504172D01*
X202563828Y-87617830D01*
X202653130Y-87751479D01*
X202704087Y-87874503D01*
X202714642Y-87899984D01*
X202746000Y-88057630D01*
X202746000Y-88218370D01*
X202714642Y-88376016D01*
X202714641Y-88376018D01*
X202653130Y-88524521D01*
X202563828Y-88658170D01*
X202450170Y-88771828D01*
X202316521Y-88861130D01*
X202193497Y-88912087D01*
X202168016Y-88922642D01*
X202010370Y-88954000D01*
X201849630Y-88954000D01*
X201691984Y-88922642D01*
X201666503Y-88912087D01*
X201543479Y-88861130D01*
X201409830Y-88771828D01*
X201296172Y-88658170D01*
X201206870Y-88524521D01*
X201145359Y-88376018D01*
X201145358Y-88376016D01*
X201114000Y-88218370D01*
X201114000Y-88057630D01*
X201145358Y-87899984D01*
X201155913Y-87874503D01*
X201206870Y-87751479D01*
X201296172Y-87617830D01*
X201409830Y-87504172D01*
X201543479Y-87414870D01*
X201691982Y-87353359D01*
X201691981Y-87353359D01*
X201691984Y-87353358D01*
X201849630Y-87322000D01*
X202010370Y-87322000D01*
X202168016Y-87353358D01*
X202168016Y-87353358D01*
G37*
G36*
X202168016Y-84813358D02*
X202168019Y-84813359D01*
X202168018Y-84813359D01*
X202316521Y-84874870D01*
X202450170Y-84964172D01*
X202563828Y-85077830D01*
X202653130Y-85211479D01*
X202704087Y-85334503D01*
X202714642Y-85359984D01*
X202746000Y-85517630D01*
X202746000Y-85678370D01*
X202714642Y-85836016D01*
X202714641Y-85836018D01*
X202653130Y-85984521D01*
X202563828Y-86118170D01*
X202450170Y-86231828D01*
X202316521Y-86321130D01*
X202193497Y-86372087D01*
X202168016Y-86382642D01*
X202010370Y-86414000D01*
X201849630Y-86414000D01*
X201691984Y-86382642D01*
X201666503Y-86372087D01*
X201543479Y-86321130D01*
X201409830Y-86231828D01*
X201296172Y-86118170D01*
X201206870Y-85984521D01*
X201145359Y-85836018D01*
X201145358Y-85836016D01*
X201114000Y-85678370D01*
X201114000Y-85517630D01*
X201145358Y-85359984D01*
X201155913Y-85334503D01*
X201206870Y-85211479D01*
X201296172Y-85077830D01*
X201409830Y-84964172D01*
X201543479Y-84874870D01*
X201691982Y-84813359D01*
X201691981Y-84813359D01*
X201691984Y-84813358D01*
X201849630Y-84782000D01*
X202010370Y-84782000D01*
X202168016Y-84813358D01*
X202168016Y-84813358D01*
G37*
G36*
X149970442Y-84195518D02*
X150036627Y-84202037D01*
X150149853Y-84236384D01*
X150206467Y-84253557D01*
X150345087Y-84327652D01*
X150362991Y-84337222D01*
X150398729Y-84366552D01*
X150500186Y-84449814D01*
X150583448Y-84551271D01*
X150612778Y-84587009D01*
X150612779Y-84587011D01*
X150696443Y-84743533D01*
X150696443Y-84743534D01*
X150747963Y-84913373D01*
X150765359Y-85090000D01*
X150747963Y-85266627D01*
X150713616Y-85379853D01*
X150696443Y-85436467D01*
X150653060Y-85517630D01*
X150612778Y-85592991D01*
X150583448Y-85628729D01*
X150500186Y-85730186D01*
X150398729Y-85813448D01*
X150362991Y-85842778D01*
X150362989Y-85842779D01*
X150206467Y-85926443D01*
X150149853Y-85943616D01*
X150036627Y-85977963D01*
X149970442Y-85984482D01*
X149904260Y-85991000D01*
X149815740Y-85991000D01*
X149749558Y-85984482D01*
X149683373Y-85977963D01*
X149570147Y-85943616D01*
X149513533Y-85926443D01*
X149357011Y-85842779D01*
X149357009Y-85842778D01*
X149321271Y-85813448D01*
X149219814Y-85730186D01*
X149136552Y-85628729D01*
X149107222Y-85592991D01*
X149066940Y-85517630D01*
X149023557Y-85436467D01*
X149006384Y-85379853D01*
X148972037Y-85266627D01*
X148954641Y-85090000D01*
X148972037Y-84913373D01*
X149023557Y-84743534D01*
X149023557Y-84743533D01*
X149107221Y-84587011D01*
X149107222Y-84587009D01*
X149136552Y-84551271D01*
X149219814Y-84449814D01*
X149321271Y-84366552D01*
X149357009Y-84337222D01*
X149374913Y-84327652D01*
X149513533Y-84253557D01*
X149570147Y-84236384D01*
X149683373Y-84202037D01*
X149749558Y-84195518D01*
X149815740Y-84189000D01*
X149904260Y-84189000D01*
X149970442Y-84195518D01*
X149970442Y-84195518D01*
G37*
G36*
X160130442Y-84195518D02*
X160196627Y-84202037D01*
X160309853Y-84236384D01*
X160366467Y-84253557D01*
X160505087Y-84327652D01*
X160522991Y-84337222D01*
X160558729Y-84366552D01*
X160660186Y-84449814D01*
X160743448Y-84551271D01*
X160772778Y-84587009D01*
X160772779Y-84587011D01*
X160856443Y-84743533D01*
X160856443Y-84743534D01*
X160907963Y-84913373D01*
X160925359Y-85090000D01*
X160907963Y-85266627D01*
X160873616Y-85379853D01*
X160856443Y-85436467D01*
X160813060Y-85517630D01*
X160772778Y-85592991D01*
X160743448Y-85628729D01*
X160660186Y-85730186D01*
X160558729Y-85813448D01*
X160522991Y-85842778D01*
X160522989Y-85842779D01*
X160366467Y-85926443D01*
X160309853Y-85943616D01*
X160196627Y-85977963D01*
X160130442Y-85984482D01*
X160064260Y-85991000D01*
X159975740Y-85991000D01*
X159909558Y-85984482D01*
X159843373Y-85977963D01*
X159730147Y-85943616D01*
X159673533Y-85926443D01*
X159517011Y-85842779D01*
X159517009Y-85842778D01*
X159481271Y-85813448D01*
X159379814Y-85730186D01*
X159296552Y-85628729D01*
X159267222Y-85592991D01*
X159226940Y-85517630D01*
X159183557Y-85436467D01*
X159166384Y-85379853D01*
X159132037Y-85266627D01*
X159114641Y-85090000D01*
X159132037Y-84913373D01*
X159183557Y-84743534D01*
X159183557Y-84743533D01*
X159267221Y-84587011D01*
X159267222Y-84587009D01*
X159296552Y-84551271D01*
X159379814Y-84449814D01*
X159481271Y-84366552D01*
X159517009Y-84337222D01*
X159534913Y-84327652D01*
X159673533Y-84253557D01*
X159730147Y-84236384D01*
X159843373Y-84202037D01*
X159909558Y-84195518D01*
X159975740Y-84189000D01*
X160064260Y-84189000D01*
X160130442Y-84195518D01*
X160130442Y-84195518D01*
G37*
G36*
X147430442Y-84195518D02*
X147496627Y-84202037D01*
X147609853Y-84236384D01*
X147666467Y-84253557D01*
X147805087Y-84327652D01*
X147822991Y-84337222D01*
X147858729Y-84366552D01*
X147960186Y-84449814D01*
X148043448Y-84551271D01*
X148072778Y-84587009D01*
X148072779Y-84587011D01*
X148156443Y-84743533D01*
X148156443Y-84743534D01*
X148207963Y-84913373D01*
X148225359Y-85090000D01*
X148207963Y-85266627D01*
X148173616Y-85379853D01*
X148156443Y-85436467D01*
X148113060Y-85517630D01*
X148072778Y-85592991D01*
X148043448Y-85628729D01*
X147960186Y-85730186D01*
X147858729Y-85813448D01*
X147822991Y-85842778D01*
X147822989Y-85842779D01*
X147666467Y-85926443D01*
X147609853Y-85943616D01*
X147496627Y-85977963D01*
X147430442Y-85984482D01*
X147364260Y-85991000D01*
X147275740Y-85991000D01*
X147209558Y-85984482D01*
X147143373Y-85977963D01*
X147030147Y-85943616D01*
X146973533Y-85926443D01*
X146817011Y-85842779D01*
X146817009Y-85842778D01*
X146781271Y-85813448D01*
X146679814Y-85730186D01*
X146596552Y-85628729D01*
X146567222Y-85592991D01*
X146526940Y-85517630D01*
X146483557Y-85436467D01*
X146466384Y-85379853D01*
X146432037Y-85266627D01*
X146414641Y-85090000D01*
X146432037Y-84913373D01*
X146483557Y-84743534D01*
X146483557Y-84743533D01*
X146567221Y-84587011D01*
X146567222Y-84587009D01*
X146596552Y-84551271D01*
X146679814Y-84449814D01*
X146781271Y-84366552D01*
X146817009Y-84337222D01*
X146834913Y-84327652D01*
X146973533Y-84253557D01*
X147030147Y-84236384D01*
X147143373Y-84202037D01*
X147209558Y-84195518D01*
X147275740Y-84189000D01*
X147364260Y-84189000D01*
X147430442Y-84195518D01*
X147430442Y-84195518D01*
G37*
G36*
X195690442Y-84195518D02*
X195756627Y-84202037D01*
X195869853Y-84236384D01*
X195926467Y-84253557D01*
X196065087Y-84327652D01*
X196082991Y-84337222D01*
X196118729Y-84366552D01*
X196220186Y-84449814D01*
X196303448Y-84551271D01*
X196332778Y-84587009D01*
X196332779Y-84587011D01*
X196416443Y-84743533D01*
X196416443Y-84743534D01*
X196467963Y-84913373D01*
X196485359Y-85090000D01*
X196467963Y-85266627D01*
X196433616Y-85379853D01*
X196416443Y-85436467D01*
X196373060Y-85517630D01*
X196332778Y-85592991D01*
X196303448Y-85628729D01*
X196220186Y-85730186D01*
X196118729Y-85813448D01*
X196082991Y-85842778D01*
X196082989Y-85842779D01*
X195926467Y-85926443D01*
X195869853Y-85943616D01*
X195756627Y-85977963D01*
X195690442Y-85984482D01*
X195624260Y-85991000D01*
X195535740Y-85991000D01*
X195469558Y-85984482D01*
X195403373Y-85977963D01*
X195290147Y-85943616D01*
X195233533Y-85926443D01*
X195077011Y-85842779D01*
X195077009Y-85842778D01*
X195041271Y-85813448D01*
X194939814Y-85730186D01*
X194856552Y-85628729D01*
X194827222Y-85592991D01*
X194786940Y-85517630D01*
X194743557Y-85436467D01*
X194726384Y-85379853D01*
X194692037Y-85266627D01*
X194674641Y-85090000D01*
X194692037Y-84913373D01*
X194743557Y-84743534D01*
X194743557Y-84743533D01*
X194827221Y-84587011D01*
X194827222Y-84587009D01*
X194856552Y-84551271D01*
X194939814Y-84449814D01*
X195041271Y-84366552D01*
X195077009Y-84337222D01*
X195094913Y-84327652D01*
X195233533Y-84253557D01*
X195290147Y-84236384D01*
X195403373Y-84202037D01*
X195469558Y-84195518D01*
X195535740Y-84189000D01*
X195624260Y-84189000D01*
X195690442Y-84195518D01*
X195690442Y-84195518D01*
G37*
G36*
X193150442Y-84195518D02*
X193216627Y-84202037D01*
X193329853Y-84236384D01*
X193386467Y-84253557D01*
X193525087Y-84327652D01*
X193542991Y-84337222D01*
X193578729Y-84366552D01*
X193680186Y-84449814D01*
X193763448Y-84551271D01*
X193792778Y-84587009D01*
X193792779Y-84587011D01*
X193876443Y-84743533D01*
X193876443Y-84743534D01*
X193927963Y-84913373D01*
X193945359Y-85090000D01*
X193927963Y-85266627D01*
X193893616Y-85379853D01*
X193876443Y-85436467D01*
X193833060Y-85517630D01*
X193792778Y-85592991D01*
X193763448Y-85628729D01*
X193680186Y-85730186D01*
X193578729Y-85813448D01*
X193542991Y-85842778D01*
X193542989Y-85842779D01*
X193386467Y-85926443D01*
X193329853Y-85943616D01*
X193216627Y-85977963D01*
X193150442Y-85984482D01*
X193084260Y-85991000D01*
X192995740Y-85991000D01*
X192929558Y-85984482D01*
X192863373Y-85977963D01*
X192750147Y-85943616D01*
X192693533Y-85926443D01*
X192537011Y-85842779D01*
X192537009Y-85842778D01*
X192501271Y-85813448D01*
X192399814Y-85730186D01*
X192316552Y-85628729D01*
X192287222Y-85592991D01*
X192246940Y-85517630D01*
X192203557Y-85436467D01*
X192186384Y-85379853D01*
X192152037Y-85266627D01*
X192134641Y-85090000D01*
X192152037Y-84913373D01*
X192203557Y-84743534D01*
X192203557Y-84743533D01*
X192287221Y-84587011D01*
X192287222Y-84587009D01*
X192316552Y-84551271D01*
X192399814Y-84449814D01*
X192501271Y-84366552D01*
X192537009Y-84337222D01*
X192554913Y-84327652D01*
X192693533Y-84253557D01*
X192750147Y-84236384D01*
X192863373Y-84202037D01*
X192929558Y-84195518D01*
X192995740Y-84189000D01*
X193084260Y-84189000D01*
X193150442Y-84195518D01*
X193150442Y-84195518D01*
G37*
G36*
X190610442Y-84195518D02*
X190676627Y-84202037D01*
X190789853Y-84236384D01*
X190846467Y-84253557D01*
X190985087Y-84327652D01*
X191002991Y-84337222D01*
X191038729Y-84366552D01*
X191140186Y-84449814D01*
X191223448Y-84551271D01*
X191252778Y-84587009D01*
X191252779Y-84587011D01*
X191336443Y-84743533D01*
X191336443Y-84743534D01*
X191387963Y-84913373D01*
X191405359Y-85090000D01*
X191387963Y-85266627D01*
X191353616Y-85379853D01*
X191336443Y-85436467D01*
X191293060Y-85517630D01*
X191252778Y-85592991D01*
X191223448Y-85628729D01*
X191140186Y-85730186D01*
X191038729Y-85813448D01*
X191002991Y-85842778D01*
X191002989Y-85842779D01*
X190846467Y-85926443D01*
X190789853Y-85943616D01*
X190676627Y-85977963D01*
X190610442Y-85984482D01*
X190544260Y-85991000D01*
X190455740Y-85991000D01*
X190389558Y-85984482D01*
X190323373Y-85977963D01*
X190210147Y-85943616D01*
X190153533Y-85926443D01*
X189997011Y-85842779D01*
X189997009Y-85842778D01*
X189961271Y-85813448D01*
X189859814Y-85730186D01*
X189776552Y-85628729D01*
X189747222Y-85592991D01*
X189706940Y-85517630D01*
X189663557Y-85436467D01*
X189646384Y-85379853D01*
X189612037Y-85266627D01*
X189594641Y-85090000D01*
X189612037Y-84913373D01*
X189663557Y-84743534D01*
X189663557Y-84743533D01*
X189747221Y-84587011D01*
X189747222Y-84587009D01*
X189776552Y-84551271D01*
X189859814Y-84449814D01*
X189961271Y-84366552D01*
X189997009Y-84337222D01*
X190014913Y-84327652D01*
X190153533Y-84253557D01*
X190210147Y-84236384D01*
X190323373Y-84202037D01*
X190389558Y-84195518D01*
X190455740Y-84189000D01*
X190544260Y-84189000D01*
X190610442Y-84195518D01*
X190610442Y-84195518D01*
G37*
G36*
X188070442Y-84195518D02*
X188136627Y-84202037D01*
X188249853Y-84236384D01*
X188306467Y-84253557D01*
X188445087Y-84327652D01*
X188462991Y-84337222D01*
X188498729Y-84366552D01*
X188600186Y-84449814D01*
X188683448Y-84551271D01*
X188712778Y-84587009D01*
X188712779Y-84587011D01*
X188796443Y-84743533D01*
X188796443Y-84743534D01*
X188847963Y-84913373D01*
X188865359Y-85090000D01*
X188847963Y-85266627D01*
X188813616Y-85379853D01*
X188796443Y-85436467D01*
X188753060Y-85517630D01*
X188712778Y-85592991D01*
X188683448Y-85628729D01*
X188600186Y-85730186D01*
X188498729Y-85813448D01*
X188462991Y-85842778D01*
X188462989Y-85842779D01*
X188306467Y-85926443D01*
X188249853Y-85943616D01*
X188136627Y-85977963D01*
X188070442Y-85984482D01*
X188004260Y-85991000D01*
X187915740Y-85991000D01*
X187849558Y-85984482D01*
X187783373Y-85977963D01*
X187670147Y-85943616D01*
X187613533Y-85926443D01*
X187457011Y-85842779D01*
X187457009Y-85842778D01*
X187421271Y-85813448D01*
X187319814Y-85730186D01*
X187236552Y-85628729D01*
X187207222Y-85592991D01*
X187166940Y-85517630D01*
X187123557Y-85436467D01*
X187106384Y-85379853D01*
X187072037Y-85266627D01*
X187054641Y-85090000D01*
X187072037Y-84913373D01*
X187123557Y-84743534D01*
X187123557Y-84743533D01*
X187207221Y-84587011D01*
X187207222Y-84587009D01*
X187236552Y-84551271D01*
X187319814Y-84449814D01*
X187421271Y-84366552D01*
X187457009Y-84337222D01*
X187474913Y-84327652D01*
X187613533Y-84253557D01*
X187670147Y-84236384D01*
X187783373Y-84202037D01*
X187849558Y-84195518D01*
X187915740Y-84189000D01*
X188004260Y-84189000D01*
X188070442Y-84195518D01*
X188070442Y-84195518D01*
G37*
G36*
X185530442Y-84195518D02*
X185596627Y-84202037D01*
X185709853Y-84236384D01*
X185766467Y-84253557D01*
X185905087Y-84327652D01*
X185922991Y-84337222D01*
X185958729Y-84366552D01*
X186060186Y-84449814D01*
X186143448Y-84551271D01*
X186172778Y-84587009D01*
X186172779Y-84587011D01*
X186256443Y-84743533D01*
X186256443Y-84743534D01*
X186307963Y-84913373D01*
X186325359Y-85090000D01*
X186307963Y-85266627D01*
X186273616Y-85379853D01*
X186256443Y-85436467D01*
X186213060Y-85517630D01*
X186172778Y-85592991D01*
X186143448Y-85628729D01*
X186060186Y-85730186D01*
X185958729Y-85813448D01*
X185922991Y-85842778D01*
X185922989Y-85842779D01*
X185766467Y-85926443D01*
X185709853Y-85943616D01*
X185596627Y-85977963D01*
X185530442Y-85984482D01*
X185464260Y-85991000D01*
X185375740Y-85991000D01*
X185309558Y-85984482D01*
X185243373Y-85977963D01*
X185130147Y-85943616D01*
X185073533Y-85926443D01*
X184917011Y-85842779D01*
X184917009Y-85842778D01*
X184881271Y-85813448D01*
X184779814Y-85730186D01*
X184696552Y-85628729D01*
X184667222Y-85592991D01*
X184626940Y-85517630D01*
X184583557Y-85436467D01*
X184566384Y-85379853D01*
X184532037Y-85266627D01*
X184514641Y-85090000D01*
X184532037Y-84913373D01*
X184583557Y-84743534D01*
X184583557Y-84743533D01*
X184667221Y-84587011D01*
X184667222Y-84587009D01*
X184696552Y-84551271D01*
X184779814Y-84449814D01*
X184881271Y-84366552D01*
X184917009Y-84337222D01*
X184934913Y-84327652D01*
X185073533Y-84253557D01*
X185130147Y-84236384D01*
X185243373Y-84202037D01*
X185309558Y-84195518D01*
X185375740Y-84189000D01*
X185464260Y-84189000D01*
X185530442Y-84195518D01*
X185530442Y-84195518D01*
G37*
G36*
X182990442Y-84195518D02*
X183056627Y-84202037D01*
X183169853Y-84236384D01*
X183226467Y-84253557D01*
X183365087Y-84327652D01*
X183382991Y-84337222D01*
X183418729Y-84366552D01*
X183520186Y-84449814D01*
X183603448Y-84551271D01*
X183632778Y-84587009D01*
X183632779Y-84587011D01*
X183716443Y-84743533D01*
X183716443Y-84743534D01*
X183767963Y-84913373D01*
X183785359Y-85090000D01*
X183767963Y-85266627D01*
X183733616Y-85379853D01*
X183716443Y-85436467D01*
X183673060Y-85517630D01*
X183632778Y-85592991D01*
X183603448Y-85628729D01*
X183520186Y-85730186D01*
X183418729Y-85813448D01*
X183382991Y-85842778D01*
X183382989Y-85842779D01*
X183226467Y-85926443D01*
X183169853Y-85943616D01*
X183056627Y-85977963D01*
X182990442Y-85984482D01*
X182924260Y-85991000D01*
X182835740Y-85991000D01*
X182769558Y-85984482D01*
X182703373Y-85977963D01*
X182590147Y-85943616D01*
X182533533Y-85926443D01*
X182377011Y-85842779D01*
X182377009Y-85842778D01*
X182341271Y-85813448D01*
X182239814Y-85730186D01*
X182156552Y-85628729D01*
X182127222Y-85592991D01*
X182086940Y-85517630D01*
X182043557Y-85436467D01*
X182026384Y-85379853D01*
X181992037Y-85266627D01*
X181974641Y-85090000D01*
X181992037Y-84913373D01*
X182043557Y-84743534D01*
X182043557Y-84743533D01*
X182127221Y-84587011D01*
X182127222Y-84587009D01*
X182156552Y-84551271D01*
X182239814Y-84449814D01*
X182341271Y-84366552D01*
X182377009Y-84337222D01*
X182394913Y-84327652D01*
X182533533Y-84253557D01*
X182590147Y-84236384D01*
X182703373Y-84202037D01*
X182769558Y-84195518D01*
X182835740Y-84189000D01*
X182924260Y-84189000D01*
X182990442Y-84195518D01*
X182990442Y-84195518D01*
G37*
G36*
X180450442Y-84195518D02*
X180516627Y-84202037D01*
X180629853Y-84236384D01*
X180686467Y-84253557D01*
X180825087Y-84327652D01*
X180842991Y-84337222D01*
X180878729Y-84366552D01*
X180980186Y-84449814D01*
X181063448Y-84551271D01*
X181092778Y-84587009D01*
X181092779Y-84587011D01*
X181176443Y-84743533D01*
X181176443Y-84743534D01*
X181227963Y-84913373D01*
X181245359Y-85090000D01*
X181227963Y-85266627D01*
X181193616Y-85379853D01*
X181176443Y-85436467D01*
X181133060Y-85517630D01*
X181092778Y-85592991D01*
X181063448Y-85628729D01*
X180980186Y-85730186D01*
X180878729Y-85813448D01*
X180842991Y-85842778D01*
X180842989Y-85842779D01*
X180686467Y-85926443D01*
X180629853Y-85943616D01*
X180516627Y-85977963D01*
X180450442Y-85984482D01*
X180384260Y-85991000D01*
X180295740Y-85991000D01*
X180229558Y-85984482D01*
X180163373Y-85977963D01*
X180050147Y-85943616D01*
X179993533Y-85926443D01*
X179837011Y-85842779D01*
X179837009Y-85842778D01*
X179801271Y-85813448D01*
X179699814Y-85730186D01*
X179616552Y-85628729D01*
X179587222Y-85592991D01*
X179546940Y-85517630D01*
X179503557Y-85436467D01*
X179486384Y-85379853D01*
X179452037Y-85266627D01*
X179434641Y-85090000D01*
X179452037Y-84913373D01*
X179503557Y-84743534D01*
X179503557Y-84743533D01*
X179587221Y-84587011D01*
X179587222Y-84587009D01*
X179616552Y-84551271D01*
X179699814Y-84449814D01*
X179801271Y-84366552D01*
X179837009Y-84337222D01*
X179854913Y-84327652D01*
X179993533Y-84253557D01*
X180050147Y-84236384D01*
X180163373Y-84202037D01*
X180229558Y-84195518D01*
X180295740Y-84189000D01*
X180384260Y-84189000D01*
X180450442Y-84195518D01*
X180450442Y-84195518D01*
G37*
G36*
X175370442Y-84195518D02*
X175436627Y-84202037D01*
X175549853Y-84236384D01*
X175606467Y-84253557D01*
X175745087Y-84327652D01*
X175762991Y-84337222D01*
X175798729Y-84366552D01*
X175900186Y-84449814D01*
X175983448Y-84551271D01*
X176012778Y-84587009D01*
X176012779Y-84587011D01*
X176096443Y-84743533D01*
X176096443Y-84743534D01*
X176147963Y-84913373D01*
X176165359Y-85090000D01*
X176147963Y-85266627D01*
X176113616Y-85379853D01*
X176096443Y-85436467D01*
X176053060Y-85517630D01*
X176012778Y-85592991D01*
X175983448Y-85628729D01*
X175900186Y-85730186D01*
X175798729Y-85813448D01*
X175762991Y-85842778D01*
X175762989Y-85842779D01*
X175606467Y-85926443D01*
X175549853Y-85943616D01*
X175436627Y-85977963D01*
X175370442Y-85984482D01*
X175304260Y-85991000D01*
X175215740Y-85991000D01*
X175149558Y-85984482D01*
X175083373Y-85977963D01*
X174970147Y-85943616D01*
X174913533Y-85926443D01*
X174757011Y-85842779D01*
X174757009Y-85842778D01*
X174721271Y-85813448D01*
X174619814Y-85730186D01*
X174536552Y-85628729D01*
X174507222Y-85592991D01*
X174466940Y-85517630D01*
X174423557Y-85436467D01*
X174406384Y-85379853D01*
X174372037Y-85266627D01*
X174354641Y-85090000D01*
X174372037Y-84913373D01*
X174423557Y-84743534D01*
X174423557Y-84743533D01*
X174507221Y-84587011D01*
X174507222Y-84587009D01*
X174536552Y-84551271D01*
X174619814Y-84449814D01*
X174721271Y-84366552D01*
X174757009Y-84337222D01*
X174774913Y-84327652D01*
X174913533Y-84253557D01*
X174970147Y-84236384D01*
X175083373Y-84202037D01*
X175149558Y-84195518D01*
X175215740Y-84189000D01*
X175304260Y-84189000D01*
X175370442Y-84195518D01*
X175370442Y-84195518D01*
G37*
G36*
X177910442Y-84195518D02*
X177976627Y-84202037D01*
X178089853Y-84236384D01*
X178146467Y-84253557D01*
X178285087Y-84327652D01*
X178302991Y-84337222D01*
X178338729Y-84366552D01*
X178440186Y-84449814D01*
X178523448Y-84551271D01*
X178552778Y-84587009D01*
X178552779Y-84587011D01*
X178636443Y-84743533D01*
X178636443Y-84743534D01*
X178687963Y-84913373D01*
X178705359Y-85090000D01*
X178687963Y-85266627D01*
X178653616Y-85379853D01*
X178636443Y-85436467D01*
X178593060Y-85517630D01*
X178552778Y-85592991D01*
X178523448Y-85628729D01*
X178440186Y-85730186D01*
X178338729Y-85813448D01*
X178302991Y-85842778D01*
X178302989Y-85842779D01*
X178146467Y-85926443D01*
X178089853Y-85943616D01*
X177976627Y-85977963D01*
X177910442Y-85984482D01*
X177844260Y-85991000D01*
X177755740Y-85991000D01*
X177689558Y-85984482D01*
X177623373Y-85977963D01*
X177510147Y-85943616D01*
X177453533Y-85926443D01*
X177297011Y-85842779D01*
X177297009Y-85842778D01*
X177261271Y-85813448D01*
X177159814Y-85730186D01*
X177076552Y-85628729D01*
X177047222Y-85592991D01*
X177006940Y-85517630D01*
X176963557Y-85436467D01*
X176946384Y-85379853D01*
X176912037Y-85266627D01*
X176894641Y-85090000D01*
X176912037Y-84913373D01*
X176963557Y-84743534D01*
X176963557Y-84743533D01*
X177047221Y-84587011D01*
X177047222Y-84587009D01*
X177076552Y-84551271D01*
X177159814Y-84449814D01*
X177261271Y-84366552D01*
X177297009Y-84337222D01*
X177314913Y-84327652D01*
X177453533Y-84253557D01*
X177510147Y-84236384D01*
X177623373Y-84202037D01*
X177689558Y-84195518D01*
X177755740Y-84189000D01*
X177844260Y-84189000D01*
X177910442Y-84195518D01*
X177910442Y-84195518D01*
G37*
G36*
X162670442Y-84195518D02*
X162736627Y-84202037D01*
X162849853Y-84236384D01*
X162906467Y-84253557D01*
X163045087Y-84327652D01*
X163062991Y-84337222D01*
X163098729Y-84366552D01*
X163200186Y-84449814D01*
X163283448Y-84551271D01*
X163312778Y-84587009D01*
X163312779Y-84587011D01*
X163396443Y-84743533D01*
X163396443Y-84743534D01*
X163447963Y-84913373D01*
X163465359Y-85090000D01*
X163447963Y-85266627D01*
X163413616Y-85379853D01*
X163396443Y-85436467D01*
X163353060Y-85517630D01*
X163312778Y-85592991D01*
X163283448Y-85628729D01*
X163200186Y-85730186D01*
X163098729Y-85813448D01*
X163062991Y-85842778D01*
X163062989Y-85842779D01*
X162906467Y-85926443D01*
X162849853Y-85943616D01*
X162736627Y-85977963D01*
X162670442Y-85984482D01*
X162604260Y-85991000D01*
X162515740Y-85991000D01*
X162449558Y-85984482D01*
X162383373Y-85977963D01*
X162270147Y-85943616D01*
X162213533Y-85926443D01*
X162057011Y-85842779D01*
X162057009Y-85842778D01*
X162021271Y-85813448D01*
X161919814Y-85730186D01*
X161836552Y-85628729D01*
X161807222Y-85592991D01*
X161766940Y-85517630D01*
X161723557Y-85436467D01*
X161706384Y-85379853D01*
X161672037Y-85266627D01*
X161654641Y-85090000D01*
X161672037Y-84913373D01*
X161723557Y-84743534D01*
X161723557Y-84743533D01*
X161807221Y-84587011D01*
X161807222Y-84587009D01*
X161836552Y-84551271D01*
X161919814Y-84449814D01*
X162021271Y-84366552D01*
X162057009Y-84337222D01*
X162074913Y-84327652D01*
X162213533Y-84253557D01*
X162270147Y-84236384D01*
X162383373Y-84202037D01*
X162449558Y-84195518D01*
X162515740Y-84189000D01*
X162604260Y-84189000D01*
X162670442Y-84195518D01*
X162670442Y-84195518D01*
G37*
G36*
X157590442Y-84195518D02*
X157656627Y-84202037D01*
X157769853Y-84236384D01*
X157826467Y-84253557D01*
X157965087Y-84327652D01*
X157982991Y-84337222D01*
X158018729Y-84366552D01*
X158120186Y-84449814D01*
X158203448Y-84551271D01*
X158232778Y-84587009D01*
X158232779Y-84587011D01*
X158316443Y-84743533D01*
X158316443Y-84743534D01*
X158367963Y-84913373D01*
X158385359Y-85090000D01*
X158367963Y-85266627D01*
X158333616Y-85379853D01*
X158316443Y-85436467D01*
X158273060Y-85517630D01*
X158232778Y-85592991D01*
X158203448Y-85628729D01*
X158120186Y-85730186D01*
X158018729Y-85813448D01*
X157982991Y-85842778D01*
X157982989Y-85842779D01*
X157826467Y-85926443D01*
X157769853Y-85943616D01*
X157656627Y-85977963D01*
X157590442Y-85984482D01*
X157524260Y-85991000D01*
X157435740Y-85991000D01*
X157369558Y-85984482D01*
X157303373Y-85977963D01*
X157190147Y-85943616D01*
X157133533Y-85926443D01*
X156977011Y-85842779D01*
X156977009Y-85842778D01*
X156941271Y-85813448D01*
X156839814Y-85730186D01*
X156756552Y-85628729D01*
X156727222Y-85592991D01*
X156686940Y-85517630D01*
X156643557Y-85436467D01*
X156626384Y-85379853D01*
X156592037Y-85266627D01*
X156574641Y-85090000D01*
X156592037Y-84913373D01*
X156643557Y-84743534D01*
X156643557Y-84743533D01*
X156727221Y-84587011D01*
X156727222Y-84587009D01*
X156756552Y-84551271D01*
X156839814Y-84449814D01*
X156941271Y-84366552D01*
X156977009Y-84337222D01*
X156994913Y-84327652D01*
X157133533Y-84253557D01*
X157190147Y-84236384D01*
X157303373Y-84202037D01*
X157369558Y-84195518D01*
X157435740Y-84189000D01*
X157524260Y-84189000D01*
X157590442Y-84195518D01*
X157590442Y-84195518D01*
G37*
G36*
X155050442Y-84195518D02*
X155116627Y-84202037D01*
X155229853Y-84236384D01*
X155286467Y-84253557D01*
X155425087Y-84327652D01*
X155442991Y-84337222D01*
X155478729Y-84366552D01*
X155580186Y-84449814D01*
X155663448Y-84551271D01*
X155692778Y-84587009D01*
X155692779Y-84587011D01*
X155776443Y-84743533D01*
X155776443Y-84743534D01*
X155827963Y-84913373D01*
X155845359Y-85090000D01*
X155827963Y-85266627D01*
X155793616Y-85379853D01*
X155776443Y-85436467D01*
X155733060Y-85517630D01*
X155692778Y-85592991D01*
X155663448Y-85628729D01*
X155580186Y-85730186D01*
X155478729Y-85813448D01*
X155442991Y-85842778D01*
X155442989Y-85842779D01*
X155286467Y-85926443D01*
X155229853Y-85943616D01*
X155116627Y-85977963D01*
X155050442Y-85984482D01*
X154984260Y-85991000D01*
X154895740Y-85991000D01*
X154829558Y-85984482D01*
X154763373Y-85977963D01*
X154650147Y-85943616D01*
X154593533Y-85926443D01*
X154437011Y-85842779D01*
X154437009Y-85842778D01*
X154401271Y-85813448D01*
X154299814Y-85730186D01*
X154216552Y-85628729D01*
X154187222Y-85592991D01*
X154146940Y-85517630D01*
X154103557Y-85436467D01*
X154086384Y-85379853D01*
X154052037Y-85266627D01*
X154034641Y-85090000D01*
X154052037Y-84913373D01*
X154103557Y-84743534D01*
X154103557Y-84743533D01*
X154187221Y-84587011D01*
X154187222Y-84587009D01*
X154216552Y-84551271D01*
X154299814Y-84449814D01*
X154401271Y-84366552D01*
X154437009Y-84337222D01*
X154454913Y-84327652D01*
X154593533Y-84253557D01*
X154650147Y-84236384D01*
X154763373Y-84202037D01*
X154829558Y-84195518D01*
X154895740Y-84189000D01*
X154984260Y-84189000D01*
X155050442Y-84195518D01*
X155050442Y-84195518D01*
G37*
G36*
X152510442Y-84195518D02*
X152576627Y-84202037D01*
X152689853Y-84236384D01*
X152746467Y-84253557D01*
X152885087Y-84327652D01*
X152902991Y-84337222D01*
X152938729Y-84366552D01*
X153040186Y-84449814D01*
X153123448Y-84551271D01*
X153152778Y-84587009D01*
X153152779Y-84587011D01*
X153236443Y-84743533D01*
X153236443Y-84743534D01*
X153287963Y-84913373D01*
X153305359Y-85090000D01*
X153287963Y-85266627D01*
X153253616Y-85379853D01*
X153236443Y-85436467D01*
X153193060Y-85517630D01*
X153152778Y-85592991D01*
X153123448Y-85628729D01*
X153040186Y-85730186D01*
X152938729Y-85813448D01*
X152902991Y-85842778D01*
X152902989Y-85842779D01*
X152746467Y-85926443D01*
X152689853Y-85943616D01*
X152576627Y-85977963D01*
X152510442Y-85984482D01*
X152444260Y-85991000D01*
X152355740Y-85991000D01*
X152289558Y-85984482D01*
X152223373Y-85977963D01*
X152110147Y-85943616D01*
X152053533Y-85926443D01*
X151897011Y-85842779D01*
X151897009Y-85842778D01*
X151861271Y-85813448D01*
X151759814Y-85730186D01*
X151676552Y-85628729D01*
X151647222Y-85592991D01*
X151606940Y-85517630D01*
X151563557Y-85436467D01*
X151546384Y-85379853D01*
X151512037Y-85266627D01*
X151494641Y-85090000D01*
X151512037Y-84913373D01*
X151563557Y-84743534D01*
X151563557Y-84743533D01*
X151647221Y-84587011D01*
X151647222Y-84587009D01*
X151676552Y-84551271D01*
X151759814Y-84449814D01*
X151861271Y-84366552D01*
X151897009Y-84337222D01*
X151914913Y-84327652D01*
X152053533Y-84253557D01*
X152110147Y-84236384D01*
X152223373Y-84202037D01*
X152289558Y-84195518D01*
X152355740Y-84189000D01*
X152444260Y-84189000D01*
X152510442Y-84195518D01*
X152510442Y-84195518D01*
G37*
G36*
X165210442Y-84195518D02*
X165276627Y-84202037D01*
X165389853Y-84236384D01*
X165446467Y-84253557D01*
X165585087Y-84327652D01*
X165602991Y-84337222D01*
X165638729Y-84366552D01*
X165740186Y-84449814D01*
X165823448Y-84551271D01*
X165852778Y-84587009D01*
X165852779Y-84587011D01*
X165936443Y-84743533D01*
X165936443Y-84743534D01*
X165987963Y-84913373D01*
X166005359Y-85090000D01*
X165987963Y-85266627D01*
X165953616Y-85379853D01*
X165936443Y-85436467D01*
X165893060Y-85517630D01*
X165852778Y-85592991D01*
X165823448Y-85628729D01*
X165740186Y-85730186D01*
X165638729Y-85813448D01*
X165602991Y-85842778D01*
X165602989Y-85842779D01*
X165446467Y-85926443D01*
X165389853Y-85943616D01*
X165276627Y-85977963D01*
X165210442Y-85984482D01*
X165144260Y-85991000D01*
X165055740Y-85991000D01*
X164989558Y-85984482D01*
X164923373Y-85977963D01*
X164810147Y-85943616D01*
X164753533Y-85926443D01*
X164597011Y-85842779D01*
X164597009Y-85842778D01*
X164561271Y-85813448D01*
X164459814Y-85730186D01*
X164376552Y-85628729D01*
X164347222Y-85592991D01*
X164306940Y-85517630D01*
X164263557Y-85436467D01*
X164246384Y-85379853D01*
X164212037Y-85266627D01*
X164194641Y-85090000D01*
X164212037Y-84913373D01*
X164263557Y-84743534D01*
X164263557Y-84743533D01*
X164347221Y-84587011D01*
X164347222Y-84587009D01*
X164376552Y-84551271D01*
X164459814Y-84449814D01*
X164561271Y-84366552D01*
X164597009Y-84337222D01*
X164614913Y-84327652D01*
X164753533Y-84253557D01*
X164810147Y-84236384D01*
X164923373Y-84202037D01*
X164989558Y-84195518D01*
X165055740Y-84189000D01*
X165144260Y-84189000D01*
X165210442Y-84195518D01*
X165210442Y-84195518D01*
G37*
G36*
X167750442Y-84195518D02*
X167816627Y-84202037D01*
X167929853Y-84236384D01*
X167986467Y-84253557D01*
X168125087Y-84327652D01*
X168142991Y-84337222D01*
X168178729Y-84366552D01*
X168280186Y-84449814D01*
X168363448Y-84551271D01*
X168392778Y-84587009D01*
X168392779Y-84587011D01*
X168476443Y-84743533D01*
X168476443Y-84743534D01*
X168527963Y-84913373D01*
X168545359Y-85090000D01*
X168527963Y-85266627D01*
X168493616Y-85379853D01*
X168476443Y-85436467D01*
X168433060Y-85517630D01*
X168392778Y-85592991D01*
X168363448Y-85628729D01*
X168280186Y-85730186D01*
X168178729Y-85813448D01*
X168142991Y-85842778D01*
X168142989Y-85842779D01*
X167986467Y-85926443D01*
X167929853Y-85943616D01*
X167816627Y-85977963D01*
X167750442Y-85984482D01*
X167684260Y-85991000D01*
X167595740Y-85991000D01*
X167529558Y-85984482D01*
X167463373Y-85977963D01*
X167350147Y-85943616D01*
X167293533Y-85926443D01*
X167137011Y-85842779D01*
X167137009Y-85842778D01*
X167101271Y-85813448D01*
X166999814Y-85730186D01*
X166916552Y-85628729D01*
X166887222Y-85592991D01*
X166846940Y-85517630D01*
X166803557Y-85436467D01*
X166786384Y-85379853D01*
X166752037Y-85266627D01*
X166734641Y-85090000D01*
X166752037Y-84913373D01*
X166803557Y-84743534D01*
X166803557Y-84743533D01*
X166887221Y-84587011D01*
X166887222Y-84587009D01*
X166916552Y-84551271D01*
X166999814Y-84449814D01*
X167101271Y-84366552D01*
X167137009Y-84337222D01*
X167154913Y-84327652D01*
X167293533Y-84253557D01*
X167350147Y-84236384D01*
X167463373Y-84202037D01*
X167529558Y-84195518D01*
X167595740Y-84189000D01*
X167684260Y-84189000D01*
X167750442Y-84195518D01*
X167750442Y-84195518D01*
G37*
G36*
X170290442Y-84195518D02*
X170356627Y-84202037D01*
X170469853Y-84236384D01*
X170526467Y-84253557D01*
X170665087Y-84327652D01*
X170682991Y-84337222D01*
X170718729Y-84366552D01*
X170820186Y-84449814D01*
X170903448Y-84551271D01*
X170932778Y-84587009D01*
X170932779Y-84587011D01*
X171016443Y-84743533D01*
X171016443Y-84743534D01*
X171067963Y-84913373D01*
X171085359Y-85090000D01*
X171067963Y-85266627D01*
X171033616Y-85379853D01*
X171016443Y-85436467D01*
X170973060Y-85517630D01*
X170932778Y-85592991D01*
X170903448Y-85628729D01*
X170820186Y-85730186D01*
X170718729Y-85813448D01*
X170682991Y-85842778D01*
X170682989Y-85842779D01*
X170526467Y-85926443D01*
X170469853Y-85943616D01*
X170356627Y-85977963D01*
X170290442Y-85984482D01*
X170224260Y-85991000D01*
X170135740Y-85991000D01*
X170069558Y-85984482D01*
X170003373Y-85977963D01*
X169890147Y-85943616D01*
X169833533Y-85926443D01*
X169677011Y-85842779D01*
X169677009Y-85842778D01*
X169641271Y-85813448D01*
X169539814Y-85730186D01*
X169456552Y-85628729D01*
X169427222Y-85592991D01*
X169386940Y-85517630D01*
X169343557Y-85436467D01*
X169326384Y-85379853D01*
X169292037Y-85266627D01*
X169274641Y-85090000D01*
X169292037Y-84913373D01*
X169343557Y-84743534D01*
X169343557Y-84743533D01*
X169427221Y-84587011D01*
X169427222Y-84587009D01*
X169456552Y-84551271D01*
X169539814Y-84449814D01*
X169641271Y-84366552D01*
X169677009Y-84337222D01*
X169694913Y-84327652D01*
X169833533Y-84253557D01*
X169890147Y-84236384D01*
X170003373Y-84202037D01*
X170069558Y-84195518D01*
X170135740Y-84189000D01*
X170224260Y-84189000D01*
X170290442Y-84195518D01*
X170290442Y-84195518D01*
G37*
G36*
X172830442Y-84195518D02*
X172896627Y-84202037D01*
X173009853Y-84236384D01*
X173066467Y-84253557D01*
X173205087Y-84327652D01*
X173222991Y-84337222D01*
X173258729Y-84366552D01*
X173360186Y-84449814D01*
X173443448Y-84551271D01*
X173472778Y-84587009D01*
X173472779Y-84587011D01*
X173556443Y-84743533D01*
X173556443Y-84743534D01*
X173607963Y-84913373D01*
X173625359Y-85090000D01*
X173607963Y-85266627D01*
X173573616Y-85379853D01*
X173556443Y-85436467D01*
X173513060Y-85517630D01*
X173472778Y-85592991D01*
X173443448Y-85628729D01*
X173360186Y-85730186D01*
X173258729Y-85813448D01*
X173222991Y-85842778D01*
X173222989Y-85842779D01*
X173066467Y-85926443D01*
X173009853Y-85943616D01*
X172896627Y-85977963D01*
X172830442Y-85984482D01*
X172764260Y-85991000D01*
X172675740Y-85991000D01*
X172609558Y-85984482D01*
X172543373Y-85977963D01*
X172430147Y-85943616D01*
X172373533Y-85926443D01*
X172217011Y-85842779D01*
X172217009Y-85842778D01*
X172181271Y-85813448D01*
X172079814Y-85730186D01*
X171996552Y-85628729D01*
X171967222Y-85592991D01*
X171926940Y-85517630D01*
X171883557Y-85436467D01*
X171866384Y-85379853D01*
X171832037Y-85266627D01*
X171814641Y-85090000D01*
X171832037Y-84913373D01*
X171883557Y-84743534D01*
X171883557Y-84743533D01*
X171967221Y-84587011D01*
X171967222Y-84587009D01*
X171996552Y-84551271D01*
X172079814Y-84449814D01*
X172181271Y-84366552D01*
X172217009Y-84337222D01*
X172234913Y-84327652D01*
X172373533Y-84253557D01*
X172430147Y-84236384D01*
X172543373Y-84202037D01*
X172609558Y-84195518D01*
X172675740Y-84189000D01*
X172764260Y-84189000D01*
X172830442Y-84195518D01*
X172830442Y-84195518D01*
G37*
G36*
X157590443Y-81655519D02*
X157656627Y-81662037D01*
X157769853Y-81696384D01*
X157826467Y-81713557D01*
X157965087Y-81787652D01*
X157982991Y-81797222D01*
X158018729Y-81826552D01*
X158120186Y-81909814D01*
X158203448Y-82011271D01*
X158232778Y-82047009D01*
X158232779Y-82047011D01*
X158316443Y-82203533D01*
X158316443Y-82203534D01*
X158367963Y-82373373D01*
X158385359Y-82550000D01*
X158367963Y-82726627D01*
X158333616Y-82839853D01*
X158316443Y-82896467D01*
X158242348Y-83035087D01*
X158232778Y-83052991D01*
X158203448Y-83088729D01*
X158120186Y-83190186D01*
X158018729Y-83273448D01*
X157982991Y-83302778D01*
X157982989Y-83302779D01*
X157826467Y-83386443D01*
X157769853Y-83403616D01*
X157656627Y-83437963D01*
X157590443Y-83444481D01*
X157524260Y-83451000D01*
X157435740Y-83451000D01*
X157369557Y-83444481D01*
X157303373Y-83437963D01*
X157190147Y-83403616D01*
X157133533Y-83386443D01*
X156977011Y-83302779D01*
X156977009Y-83302778D01*
X156941271Y-83273448D01*
X156839814Y-83190186D01*
X156756552Y-83088729D01*
X156727222Y-83052991D01*
X156717652Y-83035087D01*
X156643557Y-82896467D01*
X156626384Y-82839853D01*
X156592037Y-82726627D01*
X156574641Y-82550000D01*
X156592037Y-82373373D01*
X156643557Y-82203534D01*
X156643557Y-82203533D01*
X156727221Y-82047011D01*
X156727222Y-82047009D01*
X156756552Y-82011271D01*
X156839814Y-81909814D01*
X156941271Y-81826552D01*
X156977009Y-81797222D01*
X156994913Y-81787652D01*
X157133533Y-81713557D01*
X157190147Y-81696384D01*
X157303373Y-81662037D01*
X157369557Y-81655519D01*
X157435740Y-81649000D01*
X157524260Y-81649000D01*
X157590443Y-81655519D01*
X157590443Y-81655519D01*
G37*
G36*
X147430443Y-81655519D02*
X147496627Y-81662037D01*
X147609853Y-81696384D01*
X147666467Y-81713557D01*
X147805087Y-81787652D01*
X147822991Y-81797222D01*
X147858729Y-81826552D01*
X147960186Y-81909814D01*
X148043448Y-82011271D01*
X148072778Y-82047009D01*
X148072779Y-82047011D01*
X148156443Y-82203533D01*
X148156443Y-82203534D01*
X148207963Y-82373373D01*
X148225359Y-82550000D01*
X148207963Y-82726627D01*
X148173616Y-82839853D01*
X148156443Y-82896467D01*
X148082348Y-83035087D01*
X148072778Y-83052991D01*
X148043448Y-83088729D01*
X147960186Y-83190186D01*
X147858729Y-83273448D01*
X147822991Y-83302778D01*
X147822989Y-83302779D01*
X147666467Y-83386443D01*
X147609853Y-83403616D01*
X147496627Y-83437963D01*
X147430443Y-83444481D01*
X147364260Y-83451000D01*
X147275740Y-83451000D01*
X147209557Y-83444481D01*
X147143373Y-83437963D01*
X147030147Y-83403616D01*
X146973533Y-83386443D01*
X146817011Y-83302779D01*
X146817009Y-83302778D01*
X146781271Y-83273448D01*
X146679814Y-83190186D01*
X146596552Y-83088729D01*
X146567222Y-83052991D01*
X146557652Y-83035087D01*
X146483557Y-82896467D01*
X146466384Y-82839853D01*
X146432037Y-82726627D01*
X146414641Y-82550000D01*
X146432037Y-82373373D01*
X146483557Y-82203534D01*
X146483557Y-82203533D01*
X146567221Y-82047011D01*
X146567222Y-82047009D01*
X146596552Y-82011271D01*
X146679814Y-81909814D01*
X146781271Y-81826552D01*
X146817009Y-81797222D01*
X146834913Y-81787652D01*
X146973533Y-81713557D01*
X147030147Y-81696384D01*
X147143373Y-81662037D01*
X147209557Y-81655519D01*
X147275740Y-81649000D01*
X147364260Y-81649000D01*
X147430443Y-81655519D01*
X147430443Y-81655519D01*
G37*
G36*
X155050443Y-81655519D02*
X155116627Y-81662037D01*
X155229853Y-81696384D01*
X155286467Y-81713557D01*
X155425087Y-81787652D01*
X155442991Y-81797222D01*
X155478729Y-81826552D01*
X155580186Y-81909814D01*
X155663448Y-82011271D01*
X155692778Y-82047009D01*
X155692779Y-82047011D01*
X155776443Y-82203533D01*
X155776443Y-82203534D01*
X155827963Y-82373373D01*
X155845359Y-82550000D01*
X155827963Y-82726627D01*
X155793616Y-82839853D01*
X155776443Y-82896467D01*
X155702348Y-83035087D01*
X155692778Y-83052991D01*
X155663448Y-83088729D01*
X155580186Y-83190186D01*
X155478729Y-83273448D01*
X155442991Y-83302778D01*
X155442989Y-83302779D01*
X155286467Y-83386443D01*
X155229853Y-83403616D01*
X155116627Y-83437963D01*
X155050443Y-83444481D01*
X154984260Y-83451000D01*
X154895740Y-83451000D01*
X154829557Y-83444481D01*
X154763373Y-83437963D01*
X154650147Y-83403616D01*
X154593533Y-83386443D01*
X154437011Y-83302779D01*
X154437009Y-83302778D01*
X154401271Y-83273448D01*
X154299814Y-83190186D01*
X154216552Y-83088729D01*
X154187222Y-83052991D01*
X154177652Y-83035087D01*
X154103557Y-82896467D01*
X154086384Y-82839853D01*
X154052037Y-82726627D01*
X154034641Y-82550000D01*
X154052037Y-82373373D01*
X154103557Y-82203534D01*
X154103557Y-82203533D01*
X154187221Y-82047011D01*
X154187222Y-82047009D01*
X154216552Y-82011271D01*
X154299814Y-81909814D01*
X154401271Y-81826552D01*
X154437009Y-81797222D01*
X154454913Y-81787652D01*
X154593533Y-81713557D01*
X154650147Y-81696384D01*
X154763373Y-81662037D01*
X154829557Y-81655519D01*
X154895740Y-81649000D01*
X154984260Y-81649000D01*
X155050443Y-81655519D01*
X155050443Y-81655519D01*
G37*
G36*
X152510443Y-81655519D02*
X152576627Y-81662037D01*
X152689853Y-81696384D01*
X152746467Y-81713557D01*
X152885087Y-81787652D01*
X152902991Y-81797222D01*
X152938729Y-81826552D01*
X153040186Y-81909814D01*
X153123448Y-82011271D01*
X153152778Y-82047009D01*
X153152779Y-82047011D01*
X153236443Y-82203533D01*
X153236443Y-82203534D01*
X153287963Y-82373373D01*
X153305359Y-82550000D01*
X153287963Y-82726627D01*
X153253616Y-82839853D01*
X153236443Y-82896467D01*
X153162348Y-83035087D01*
X153152778Y-83052991D01*
X153123448Y-83088729D01*
X153040186Y-83190186D01*
X152938729Y-83273448D01*
X152902991Y-83302778D01*
X152902989Y-83302779D01*
X152746467Y-83386443D01*
X152689853Y-83403616D01*
X152576627Y-83437963D01*
X152510443Y-83444481D01*
X152444260Y-83451000D01*
X152355740Y-83451000D01*
X152289557Y-83444481D01*
X152223373Y-83437963D01*
X152110147Y-83403616D01*
X152053533Y-83386443D01*
X151897011Y-83302779D01*
X151897009Y-83302778D01*
X151861271Y-83273448D01*
X151759814Y-83190186D01*
X151676552Y-83088729D01*
X151647222Y-83052991D01*
X151637652Y-83035087D01*
X151563557Y-82896467D01*
X151546384Y-82839853D01*
X151512037Y-82726627D01*
X151494641Y-82550000D01*
X151512037Y-82373373D01*
X151563557Y-82203534D01*
X151563557Y-82203533D01*
X151647221Y-82047011D01*
X151647222Y-82047009D01*
X151676552Y-82011271D01*
X151759814Y-81909814D01*
X151861271Y-81826552D01*
X151897009Y-81797222D01*
X151914913Y-81787652D01*
X152053533Y-81713557D01*
X152110147Y-81696384D01*
X152223373Y-81662037D01*
X152289557Y-81655519D01*
X152355740Y-81649000D01*
X152444260Y-81649000D01*
X152510443Y-81655519D01*
X152510443Y-81655519D01*
G37*
G36*
X193150443Y-81655519D02*
X193216627Y-81662037D01*
X193329853Y-81696384D01*
X193386467Y-81713557D01*
X193525087Y-81787652D01*
X193542991Y-81797222D01*
X193578729Y-81826552D01*
X193680186Y-81909814D01*
X193763448Y-82011271D01*
X193792778Y-82047009D01*
X193792779Y-82047011D01*
X193876443Y-82203533D01*
X193876443Y-82203534D01*
X193927963Y-82373373D01*
X193945359Y-82550000D01*
X193927963Y-82726627D01*
X193893616Y-82839853D01*
X193876443Y-82896467D01*
X193802348Y-83035087D01*
X193792778Y-83052991D01*
X193763448Y-83088729D01*
X193680186Y-83190186D01*
X193578729Y-83273448D01*
X193542991Y-83302778D01*
X193542989Y-83302779D01*
X193386467Y-83386443D01*
X193329853Y-83403616D01*
X193216627Y-83437963D01*
X193150443Y-83444481D01*
X193084260Y-83451000D01*
X192995740Y-83451000D01*
X192929557Y-83444481D01*
X192863373Y-83437963D01*
X192750147Y-83403616D01*
X192693533Y-83386443D01*
X192537011Y-83302779D01*
X192537009Y-83302778D01*
X192501271Y-83273448D01*
X192399814Y-83190186D01*
X192316552Y-83088729D01*
X192287222Y-83052991D01*
X192277652Y-83035087D01*
X192203557Y-82896467D01*
X192186384Y-82839853D01*
X192152037Y-82726627D01*
X192134641Y-82550000D01*
X192152037Y-82373373D01*
X192203557Y-82203534D01*
X192203557Y-82203533D01*
X192287221Y-82047011D01*
X192287222Y-82047009D01*
X192316552Y-82011271D01*
X192399814Y-81909814D01*
X192501271Y-81826552D01*
X192537009Y-81797222D01*
X192554913Y-81787652D01*
X192693533Y-81713557D01*
X192750147Y-81696384D01*
X192863373Y-81662037D01*
X192929557Y-81655519D01*
X192995740Y-81649000D01*
X193084260Y-81649000D01*
X193150443Y-81655519D01*
X193150443Y-81655519D01*
G37*
G36*
X190610443Y-81655519D02*
X190676627Y-81662037D01*
X190789853Y-81696384D01*
X190846467Y-81713557D01*
X190985087Y-81787652D01*
X191002991Y-81797222D01*
X191038729Y-81826552D01*
X191140186Y-81909814D01*
X191223448Y-82011271D01*
X191252778Y-82047009D01*
X191252779Y-82047011D01*
X191336443Y-82203533D01*
X191336443Y-82203534D01*
X191387963Y-82373373D01*
X191405359Y-82550000D01*
X191387963Y-82726627D01*
X191353616Y-82839853D01*
X191336443Y-82896467D01*
X191262348Y-83035087D01*
X191252778Y-83052991D01*
X191223448Y-83088729D01*
X191140186Y-83190186D01*
X191038729Y-83273448D01*
X191002991Y-83302778D01*
X191002989Y-83302779D01*
X190846467Y-83386443D01*
X190789853Y-83403616D01*
X190676627Y-83437963D01*
X190610443Y-83444481D01*
X190544260Y-83451000D01*
X190455740Y-83451000D01*
X190389557Y-83444481D01*
X190323373Y-83437963D01*
X190210147Y-83403616D01*
X190153533Y-83386443D01*
X189997011Y-83302779D01*
X189997009Y-83302778D01*
X189961271Y-83273448D01*
X189859814Y-83190186D01*
X189776552Y-83088729D01*
X189747222Y-83052991D01*
X189737652Y-83035087D01*
X189663557Y-82896467D01*
X189646384Y-82839853D01*
X189612037Y-82726627D01*
X189594641Y-82550000D01*
X189612037Y-82373373D01*
X189663557Y-82203534D01*
X189663557Y-82203533D01*
X189747221Y-82047011D01*
X189747222Y-82047009D01*
X189776552Y-82011271D01*
X189859814Y-81909814D01*
X189961271Y-81826552D01*
X189997009Y-81797222D01*
X190014913Y-81787652D01*
X190153533Y-81713557D01*
X190210147Y-81696384D01*
X190323373Y-81662037D01*
X190389557Y-81655519D01*
X190455740Y-81649000D01*
X190544260Y-81649000D01*
X190610443Y-81655519D01*
X190610443Y-81655519D01*
G37*
G36*
X188070443Y-81655519D02*
X188136627Y-81662037D01*
X188249853Y-81696384D01*
X188306467Y-81713557D01*
X188445087Y-81787652D01*
X188462991Y-81797222D01*
X188498729Y-81826552D01*
X188600186Y-81909814D01*
X188683448Y-82011271D01*
X188712778Y-82047009D01*
X188712779Y-82047011D01*
X188796443Y-82203533D01*
X188796443Y-82203534D01*
X188847963Y-82373373D01*
X188865359Y-82550000D01*
X188847963Y-82726627D01*
X188813616Y-82839853D01*
X188796443Y-82896467D01*
X188722348Y-83035087D01*
X188712778Y-83052991D01*
X188683448Y-83088729D01*
X188600186Y-83190186D01*
X188498729Y-83273448D01*
X188462991Y-83302778D01*
X188462989Y-83302779D01*
X188306467Y-83386443D01*
X188249853Y-83403616D01*
X188136627Y-83437963D01*
X188070443Y-83444481D01*
X188004260Y-83451000D01*
X187915740Y-83451000D01*
X187849557Y-83444481D01*
X187783373Y-83437963D01*
X187670147Y-83403616D01*
X187613533Y-83386443D01*
X187457011Y-83302779D01*
X187457009Y-83302778D01*
X187421271Y-83273448D01*
X187319814Y-83190186D01*
X187236552Y-83088729D01*
X187207222Y-83052991D01*
X187197652Y-83035087D01*
X187123557Y-82896467D01*
X187106384Y-82839853D01*
X187072037Y-82726627D01*
X187054641Y-82550000D01*
X187072037Y-82373373D01*
X187123557Y-82203534D01*
X187123557Y-82203533D01*
X187207221Y-82047011D01*
X187207222Y-82047009D01*
X187236552Y-82011271D01*
X187319814Y-81909814D01*
X187421271Y-81826552D01*
X187457009Y-81797222D01*
X187474913Y-81787652D01*
X187613533Y-81713557D01*
X187670147Y-81696384D01*
X187783373Y-81662037D01*
X187849557Y-81655519D01*
X187915740Y-81649000D01*
X188004260Y-81649000D01*
X188070443Y-81655519D01*
X188070443Y-81655519D01*
G37*
G36*
X185530443Y-81655519D02*
X185596627Y-81662037D01*
X185709853Y-81696384D01*
X185766467Y-81713557D01*
X185905087Y-81787652D01*
X185922991Y-81797222D01*
X185958729Y-81826552D01*
X186060186Y-81909814D01*
X186143448Y-82011271D01*
X186172778Y-82047009D01*
X186172779Y-82047011D01*
X186256443Y-82203533D01*
X186256443Y-82203534D01*
X186307963Y-82373373D01*
X186325359Y-82550000D01*
X186307963Y-82726627D01*
X186273616Y-82839853D01*
X186256443Y-82896467D01*
X186182348Y-83035087D01*
X186172778Y-83052991D01*
X186143448Y-83088729D01*
X186060186Y-83190186D01*
X185958729Y-83273448D01*
X185922991Y-83302778D01*
X185922989Y-83302779D01*
X185766467Y-83386443D01*
X185709853Y-83403616D01*
X185596627Y-83437963D01*
X185530443Y-83444481D01*
X185464260Y-83451000D01*
X185375740Y-83451000D01*
X185309557Y-83444481D01*
X185243373Y-83437963D01*
X185130147Y-83403616D01*
X185073533Y-83386443D01*
X184917011Y-83302779D01*
X184917009Y-83302778D01*
X184881271Y-83273448D01*
X184779814Y-83190186D01*
X184696552Y-83088729D01*
X184667222Y-83052991D01*
X184657652Y-83035087D01*
X184583557Y-82896467D01*
X184566384Y-82839853D01*
X184532037Y-82726627D01*
X184514641Y-82550000D01*
X184532037Y-82373373D01*
X184583557Y-82203534D01*
X184583557Y-82203533D01*
X184667221Y-82047011D01*
X184667222Y-82047009D01*
X184696552Y-82011271D01*
X184779814Y-81909814D01*
X184881271Y-81826552D01*
X184917009Y-81797222D01*
X184934913Y-81787652D01*
X185073533Y-81713557D01*
X185130147Y-81696384D01*
X185243373Y-81662037D01*
X185309557Y-81655519D01*
X185375740Y-81649000D01*
X185464260Y-81649000D01*
X185530443Y-81655519D01*
X185530443Y-81655519D01*
G37*
G36*
X182990443Y-81655519D02*
X183056627Y-81662037D01*
X183169853Y-81696384D01*
X183226467Y-81713557D01*
X183365087Y-81787652D01*
X183382991Y-81797222D01*
X183418729Y-81826552D01*
X183520186Y-81909814D01*
X183603448Y-82011271D01*
X183632778Y-82047009D01*
X183632779Y-82047011D01*
X183716443Y-82203533D01*
X183716443Y-82203534D01*
X183767963Y-82373373D01*
X183785359Y-82550000D01*
X183767963Y-82726627D01*
X183733616Y-82839853D01*
X183716443Y-82896467D01*
X183642348Y-83035087D01*
X183632778Y-83052991D01*
X183603448Y-83088729D01*
X183520186Y-83190186D01*
X183418729Y-83273448D01*
X183382991Y-83302778D01*
X183382989Y-83302779D01*
X183226467Y-83386443D01*
X183169853Y-83403616D01*
X183056627Y-83437963D01*
X182990443Y-83444481D01*
X182924260Y-83451000D01*
X182835740Y-83451000D01*
X182769557Y-83444481D01*
X182703373Y-83437963D01*
X182590147Y-83403616D01*
X182533533Y-83386443D01*
X182377011Y-83302779D01*
X182377009Y-83302778D01*
X182341271Y-83273448D01*
X182239814Y-83190186D01*
X182156552Y-83088729D01*
X182127222Y-83052991D01*
X182117652Y-83035087D01*
X182043557Y-82896467D01*
X182026384Y-82839853D01*
X181992037Y-82726627D01*
X181974641Y-82550000D01*
X181992037Y-82373373D01*
X182043557Y-82203534D01*
X182043557Y-82203533D01*
X182127221Y-82047011D01*
X182127222Y-82047009D01*
X182156552Y-82011271D01*
X182239814Y-81909814D01*
X182341271Y-81826552D01*
X182377009Y-81797222D01*
X182394913Y-81787652D01*
X182533533Y-81713557D01*
X182590147Y-81696384D01*
X182703373Y-81662037D01*
X182769557Y-81655519D01*
X182835740Y-81649000D01*
X182924260Y-81649000D01*
X182990443Y-81655519D01*
X182990443Y-81655519D01*
G37*
G36*
X180450443Y-81655519D02*
X180516627Y-81662037D01*
X180629853Y-81696384D01*
X180686467Y-81713557D01*
X180825087Y-81787652D01*
X180842991Y-81797222D01*
X180878729Y-81826552D01*
X180980186Y-81909814D01*
X181063448Y-82011271D01*
X181092778Y-82047009D01*
X181092779Y-82047011D01*
X181176443Y-82203533D01*
X181176443Y-82203534D01*
X181227963Y-82373373D01*
X181245359Y-82550000D01*
X181227963Y-82726627D01*
X181193616Y-82839853D01*
X181176443Y-82896467D01*
X181102348Y-83035087D01*
X181092778Y-83052991D01*
X181063448Y-83088729D01*
X180980186Y-83190186D01*
X180878729Y-83273448D01*
X180842991Y-83302778D01*
X180842989Y-83302779D01*
X180686467Y-83386443D01*
X180629853Y-83403616D01*
X180516627Y-83437963D01*
X180450443Y-83444481D01*
X180384260Y-83451000D01*
X180295740Y-83451000D01*
X180229557Y-83444481D01*
X180163373Y-83437963D01*
X180050147Y-83403616D01*
X179993533Y-83386443D01*
X179837011Y-83302779D01*
X179837009Y-83302778D01*
X179801271Y-83273448D01*
X179699814Y-83190186D01*
X179616552Y-83088729D01*
X179587222Y-83052991D01*
X179577652Y-83035087D01*
X179503557Y-82896467D01*
X179486384Y-82839853D01*
X179452037Y-82726627D01*
X179434641Y-82550000D01*
X179452037Y-82373373D01*
X179503557Y-82203534D01*
X179503557Y-82203533D01*
X179587221Y-82047011D01*
X179587222Y-82047009D01*
X179616552Y-82011271D01*
X179699814Y-81909814D01*
X179801271Y-81826552D01*
X179837009Y-81797222D01*
X179854913Y-81787652D01*
X179993533Y-81713557D01*
X180050147Y-81696384D01*
X180163373Y-81662037D01*
X180229557Y-81655519D01*
X180295740Y-81649000D01*
X180384260Y-81649000D01*
X180450443Y-81655519D01*
X180450443Y-81655519D01*
G37*
G36*
X177910443Y-81655519D02*
X177976627Y-81662037D01*
X178089853Y-81696384D01*
X178146467Y-81713557D01*
X178285087Y-81787652D01*
X178302991Y-81797222D01*
X178338729Y-81826552D01*
X178440186Y-81909814D01*
X178523448Y-82011271D01*
X178552778Y-82047009D01*
X178552779Y-82047011D01*
X178636443Y-82203533D01*
X178636443Y-82203534D01*
X178687963Y-82373373D01*
X178705359Y-82550000D01*
X178687963Y-82726627D01*
X178653616Y-82839853D01*
X178636443Y-82896467D01*
X178562348Y-83035087D01*
X178552778Y-83052991D01*
X178523448Y-83088729D01*
X178440186Y-83190186D01*
X178338729Y-83273448D01*
X178302991Y-83302778D01*
X178302989Y-83302779D01*
X178146467Y-83386443D01*
X178089853Y-83403616D01*
X177976627Y-83437963D01*
X177910443Y-83444481D01*
X177844260Y-83451000D01*
X177755740Y-83451000D01*
X177689557Y-83444481D01*
X177623373Y-83437963D01*
X177510147Y-83403616D01*
X177453533Y-83386443D01*
X177297011Y-83302779D01*
X177297009Y-83302778D01*
X177261271Y-83273448D01*
X177159814Y-83190186D01*
X177076552Y-83088729D01*
X177047222Y-83052991D01*
X177037652Y-83035087D01*
X176963557Y-82896467D01*
X176946384Y-82839853D01*
X176912037Y-82726627D01*
X176894641Y-82550000D01*
X176912037Y-82373373D01*
X176963557Y-82203534D01*
X176963557Y-82203533D01*
X177047221Y-82047011D01*
X177047222Y-82047009D01*
X177076552Y-82011271D01*
X177159814Y-81909814D01*
X177261271Y-81826552D01*
X177297009Y-81797222D01*
X177314913Y-81787652D01*
X177453533Y-81713557D01*
X177510147Y-81696384D01*
X177623373Y-81662037D01*
X177689557Y-81655519D01*
X177755740Y-81649000D01*
X177844260Y-81649000D01*
X177910443Y-81655519D01*
X177910443Y-81655519D01*
G37*
G36*
X149970443Y-81655519D02*
X150036627Y-81662037D01*
X150149853Y-81696384D01*
X150206467Y-81713557D01*
X150345087Y-81787652D01*
X150362991Y-81797222D01*
X150398729Y-81826552D01*
X150500186Y-81909814D01*
X150583448Y-82011271D01*
X150612778Y-82047009D01*
X150612779Y-82047011D01*
X150696443Y-82203533D01*
X150696443Y-82203534D01*
X150747963Y-82373373D01*
X150765359Y-82550000D01*
X150747963Y-82726627D01*
X150713616Y-82839853D01*
X150696443Y-82896467D01*
X150622348Y-83035087D01*
X150612778Y-83052991D01*
X150583448Y-83088729D01*
X150500186Y-83190186D01*
X150398729Y-83273448D01*
X150362991Y-83302778D01*
X150362989Y-83302779D01*
X150206467Y-83386443D01*
X150149853Y-83403616D01*
X150036627Y-83437963D01*
X149970443Y-83444481D01*
X149904260Y-83451000D01*
X149815740Y-83451000D01*
X149749557Y-83444481D01*
X149683373Y-83437963D01*
X149570147Y-83403616D01*
X149513533Y-83386443D01*
X149357011Y-83302779D01*
X149357009Y-83302778D01*
X149321271Y-83273448D01*
X149219814Y-83190186D01*
X149136552Y-83088729D01*
X149107222Y-83052991D01*
X149097652Y-83035087D01*
X149023557Y-82896467D01*
X149006384Y-82839853D01*
X148972037Y-82726627D01*
X148954641Y-82550000D01*
X148972037Y-82373373D01*
X149023557Y-82203534D01*
X149023557Y-82203533D01*
X149107221Y-82047011D01*
X149107222Y-82047009D01*
X149136552Y-82011271D01*
X149219814Y-81909814D01*
X149321271Y-81826552D01*
X149357009Y-81797222D01*
X149374913Y-81787652D01*
X149513533Y-81713557D01*
X149570147Y-81696384D01*
X149683373Y-81662037D01*
X149749557Y-81655519D01*
X149815740Y-81649000D01*
X149904260Y-81649000D01*
X149970443Y-81655519D01*
X149970443Y-81655519D01*
G37*
G36*
X160130443Y-81655519D02*
X160196627Y-81662037D01*
X160309853Y-81696384D01*
X160366467Y-81713557D01*
X160505087Y-81787652D01*
X160522991Y-81797222D01*
X160558729Y-81826552D01*
X160660186Y-81909814D01*
X160743448Y-82011271D01*
X160772778Y-82047009D01*
X160772779Y-82047011D01*
X160856443Y-82203533D01*
X160856443Y-82203534D01*
X160907963Y-82373373D01*
X160925359Y-82550000D01*
X160907963Y-82726627D01*
X160873616Y-82839853D01*
X160856443Y-82896467D01*
X160782348Y-83035087D01*
X160772778Y-83052991D01*
X160743448Y-83088729D01*
X160660186Y-83190186D01*
X160558729Y-83273448D01*
X160522991Y-83302778D01*
X160522989Y-83302779D01*
X160366467Y-83386443D01*
X160309853Y-83403616D01*
X160196627Y-83437963D01*
X160130443Y-83444481D01*
X160064260Y-83451000D01*
X159975740Y-83451000D01*
X159909557Y-83444481D01*
X159843373Y-83437963D01*
X159730147Y-83403616D01*
X159673533Y-83386443D01*
X159517011Y-83302779D01*
X159517009Y-83302778D01*
X159481271Y-83273448D01*
X159379814Y-83190186D01*
X159296552Y-83088729D01*
X159267222Y-83052991D01*
X159257652Y-83035087D01*
X159183557Y-82896467D01*
X159166384Y-82839853D01*
X159132037Y-82726627D01*
X159114641Y-82550000D01*
X159132037Y-82373373D01*
X159183557Y-82203534D01*
X159183557Y-82203533D01*
X159267221Y-82047011D01*
X159267222Y-82047009D01*
X159296552Y-82011271D01*
X159379814Y-81909814D01*
X159481271Y-81826552D01*
X159517009Y-81797222D01*
X159534913Y-81787652D01*
X159673533Y-81713557D01*
X159730147Y-81696384D01*
X159843373Y-81662037D01*
X159909557Y-81655519D01*
X159975740Y-81649000D01*
X160064260Y-81649000D01*
X160130443Y-81655519D01*
X160130443Y-81655519D01*
G37*
G36*
X162670443Y-81655519D02*
X162736627Y-81662037D01*
X162849853Y-81696384D01*
X162906467Y-81713557D01*
X163045087Y-81787652D01*
X163062991Y-81797222D01*
X163098729Y-81826552D01*
X163200186Y-81909814D01*
X163283448Y-82011271D01*
X163312778Y-82047009D01*
X163312779Y-82047011D01*
X163396443Y-82203533D01*
X163396443Y-82203534D01*
X163447963Y-82373373D01*
X163465359Y-82550000D01*
X163447963Y-82726627D01*
X163413616Y-82839853D01*
X163396443Y-82896467D01*
X163322348Y-83035087D01*
X163312778Y-83052991D01*
X163283448Y-83088729D01*
X163200186Y-83190186D01*
X163098729Y-83273448D01*
X163062991Y-83302778D01*
X163062989Y-83302779D01*
X162906467Y-83386443D01*
X162849853Y-83403616D01*
X162736627Y-83437963D01*
X162670443Y-83444481D01*
X162604260Y-83451000D01*
X162515740Y-83451000D01*
X162449557Y-83444481D01*
X162383373Y-83437963D01*
X162270147Y-83403616D01*
X162213533Y-83386443D01*
X162057011Y-83302779D01*
X162057009Y-83302778D01*
X162021271Y-83273448D01*
X161919814Y-83190186D01*
X161836552Y-83088729D01*
X161807222Y-83052991D01*
X161797652Y-83035087D01*
X161723557Y-82896467D01*
X161706384Y-82839853D01*
X161672037Y-82726627D01*
X161654641Y-82550000D01*
X161672037Y-82373373D01*
X161723557Y-82203534D01*
X161723557Y-82203533D01*
X161807221Y-82047011D01*
X161807222Y-82047009D01*
X161836552Y-82011271D01*
X161919814Y-81909814D01*
X162021271Y-81826552D01*
X162057009Y-81797222D01*
X162074913Y-81787652D01*
X162213533Y-81713557D01*
X162270147Y-81696384D01*
X162383373Y-81662037D01*
X162449557Y-81655519D01*
X162515740Y-81649000D01*
X162604260Y-81649000D01*
X162670443Y-81655519D01*
X162670443Y-81655519D01*
G37*
G36*
X165210443Y-81655519D02*
X165276627Y-81662037D01*
X165389853Y-81696384D01*
X165446467Y-81713557D01*
X165585087Y-81787652D01*
X165602991Y-81797222D01*
X165638729Y-81826552D01*
X165740186Y-81909814D01*
X165823448Y-82011271D01*
X165852778Y-82047009D01*
X165852779Y-82047011D01*
X165936443Y-82203533D01*
X165936443Y-82203534D01*
X165987963Y-82373373D01*
X166005359Y-82550000D01*
X165987963Y-82726627D01*
X165953616Y-82839853D01*
X165936443Y-82896467D01*
X165862348Y-83035087D01*
X165852778Y-83052991D01*
X165823448Y-83088729D01*
X165740186Y-83190186D01*
X165638729Y-83273448D01*
X165602991Y-83302778D01*
X165602989Y-83302779D01*
X165446467Y-83386443D01*
X165389853Y-83403616D01*
X165276627Y-83437963D01*
X165210443Y-83444481D01*
X165144260Y-83451000D01*
X165055740Y-83451000D01*
X164989557Y-83444481D01*
X164923373Y-83437963D01*
X164810147Y-83403616D01*
X164753533Y-83386443D01*
X164597011Y-83302779D01*
X164597009Y-83302778D01*
X164561271Y-83273448D01*
X164459814Y-83190186D01*
X164376552Y-83088729D01*
X164347222Y-83052991D01*
X164337652Y-83035087D01*
X164263557Y-82896467D01*
X164246384Y-82839853D01*
X164212037Y-82726627D01*
X164194641Y-82550000D01*
X164212037Y-82373373D01*
X164263557Y-82203534D01*
X164263557Y-82203533D01*
X164347221Y-82047011D01*
X164347222Y-82047009D01*
X164376552Y-82011271D01*
X164459814Y-81909814D01*
X164561271Y-81826552D01*
X164597009Y-81797222D01*
X164614913Y-81787652D01*
X164753533Y-81713557D01*
X164810147Y-81696384D01*
X164923373Y-81662037D01*
X164989557Y-81655519D01*
X165055740Y-81649000D01*
X165144260Y-81649000D01*
X165210443Y-81655519D01*
X165210443Y-81655519D01*
G37*
G36*
X167750443Y-81655519D02*
X167816627Y-81662037D01*
X167929853Y-81696384D01*
X167986467Y-81713557D01*
X168125087Y-81787652D01*
X168142991Y-81797222D01*
X168178729Y-81826552D01*
X168280186Y-81909814D01*
X168363448Y-82011271D01*
X168392778Y-82047009D01*
X168392779Y-82047011D01*
X168476443Y-82203533D01*
X168476443Y-82203534D01*
X168527963Y-82373373D01*
X168545359Y-82550000D01*
X168527963Y-82726627D01*
X168493616Y-82839853D01*
X168476443Y-82896467D01*
X168402348Y-83035087D01*
X168392778Y-83052991D01*
X168363448Y-83088729D01*
X168280186Y-83190186D01*
X168178729Y-83273448D01*
X168142991Y-83302778D01*
X168142989Y-83302779D01*
X167986467Y-83386443D01*
X167929853Y-83403616D01*
X167816627Y-83437963D01*
X167750443Y-83444481D01*
X167684260Y-83451000D01*
X167595740Y-83451000D01*
X167529557Y-83444481D01*
X167463373Y-83437963D01*
X167350147Y-83403616D01*
X167293533Y-83386443D01*
X167137011Y-83302779D01*
X167137009Y-83302778D01*
X167101271Y-83273448D01*
X166999814Y-83190186D01*
X166916552Y-83088729D01*
X166887222Y-83052991D01*
X166877652Y-83035087D01*
X166803557Y-82896467D01*
X166786384Y-82839853D01*
X166752037Y-82726627D01*
X166734641Y-82550000D01*
X166752037Y-82373373D01*
X166803557Y-82203534D01*
X166803557Y-82203533D01*
X166887221Y-82047011D01*
X166887222Y-82047009D01*
X166916552Y-82011271D01*
X166999814Y-81909814D01*
X167101271Y-81826552D01*
X167137009Y-81797222D01*
X167154913Y-81787652D01*
X167293533Y-81713557D01*
X167350147Y-81696384D01*
X167463373Y-81662037D01*
X167529557Y-81655519D01*
X167595740Y-81649000D01*
X167684260Y-81649000D01*
X167750443Y-81655519D01*
X167750443Y-81655519D01*
G37*
G36*
X170290443Y-81655519D02*
X170356627Y-81662037D01*
X170469853Y-81696384D01*
X170526467Y-81713557D01*
X170665087Y-81787652D01*
X170682991Y-81797222D01*
X170718729Y-81826552D01*
X170820186Y-81909814D01*
X170903448Y-82011271D01*
X170932778Y-82047009D01*
X170932779Y-82047011D01*
X171016443Y-82203533D01*
X171016443Y-82203534D01*
X171067963Y-82373373D01*
X171085359Y-82550000D01*
X171067963Y-82726627D01*
X171033616Y-82839853D01*
X171016443Y-82896467D01*
X170942348Y-83035087D01*
X170932778Y-83052991D01*
X170903448Y-83088729D01*
X170820186Y-83190186D01*
X170718729Y-83273448D01*
X170682991Y-83302778D01*
X170682989Y-83302779D01*
X170526467Y-83386443D01*
X170469853Y-83403616D01*
X170356627Y-83437963D01*
X170290443Y-83444481D01*
X170224260Y-83451000D01*
X170135740Y-83451000D01*
X170069557Y-83444481D01*
X170003373Y-83437963D01*
X169890147Y-83403616D01*
X169833533Y-83386443D01*
X169677011Y-83302779D01*
X169677009Y-83302778D01*
X169641271Y-83273448D01*
X169539814Y-83190186D01*
X169456552Y-83088729D01*
X169427222Y-83052991D01*
X169417652Y-83035087D01*
X169343557Y-82896467D01*
X169326384Y-82839853D01*
X169292037Y-82726627D01*
X169274641Y-82550000D01*
X169292037Y-82373373D01*
X169343557Y-82203534D01*
X169343557Y-82203533D01*
X169427221Y-82047011D01*
X169427222Y-82047009D01*
X169456552Y-82011271D01*
X169539814Y-81909814D01*
X169641271Y-81826552D01*
X169677009Y-81797222D01*
X169694913Y-81787652D01*
X169833533Y-81713557D01*
X169890147Y-81696384D01*
X170003373Y-81662037D01*
X170069557Y-81655519D01*
X170135740Y-81649000D01*
X170224260Y-81649000D01*
X170290443Y-81655519D01*
X170290443Y-81655519D01*
G37*
G36*
X172830443Y-81655519D02*
X172896627Y-81662037D01*
X173009853Y-81696384D01*
X173066467Y-81713557D01*
X173205087Y-81787652D01*
X173222991Y-81797222D01*
X173258729Y-81826552D01*
X173360186Y-81909814D01*
X173443448Y-82011271D01*
X173472778Y-82047009D01*
X173472779Y-82047011D01*
X173556443Y-82203533D01*
X173556443Y-82203534D01*
X173607963Y-82373373D01*
X173625359Y-82550000D01*
X173607963Y-82726627D01*
X173573616Y-82839853D01*
X173556443Y-82896467D01*
X173482348Y-83035087D01*
X173472778Y-83052991D01*
X173443448Y-83088729D01*
X173360186Y-83190186D01*
X173258729Y-83273448D01*
X173222991Y-83302778D01*
X173222989Y-83302779D01*
X173066467Y-83386443D01*
X173009853Y-83403616D01*
X172896627Y-83437963D01*
X172830443Y-83444481D01*
X172764260Y-83451000D01*
X172675740Y-83451000D01*
X172609557Y-83444481D01*
X172543373Y-83437963D01*
X172430147Y-83403616D01*
X172373533Y-83386443D01*
X172217011Y-83302779D01*
X172217009Y-83302778D01*
X172181271Y-83273448D01*
X172079814Y-83190186D01*
X171996552Y-83088729D01*
X171967222Y-83052991D01*
X171957652Y-83035087D01*
X171883557Y-82896467D01*
X171866384Y-82839853D01*
X171832037Y-82726627D01*
X171814641Y-82550000D01*
X171832037Y-82373373D01*
X171883557Y-82203534D01*
X171883557Y-82203533D01*
X171967221Y-82047011D01*
X171967222Y-82047009D01*
X171996552Y-82011271D01*
X172079814Y-81909814D01*
X172181271Y-81826552D01*
X172217009Y-81797222D01*
X172234913Y-81787652D01*
X172373533Y-81713557D01*
X172430147Y-81696384D01*
X172543373Y-81662037D01*
X172609557Y-81655519D01*
X172675740Y-81649000D01*
X172764260Y-81649000D01*
X172830443Y-81655519D01*
X172830443Y-81655519D01*
G37*
G36*
X196481000Y-83451000D02*
X194679000Y-83451000D01*
X194679000Y-81649000D01*
X196481000Y-81649000D01*
X196481000Y-83451000D01*
X196481000Y-83451000D01*
G37*
G36*
X175370443Y-81655519D02*
X175436627Y-81662037D01*
X175549853Y-81696384D01*
X175606467Y-81713557D01*
X175745087Y-81787652D01*
X175762991Y-81797222D01*
X175798729Y-81826552D01*
X175900186Y-81909814D01*
X175983448Y-82011271D01*
X176012778Y-82047009D01*
X176012779Y-82047011D01*
X176096443Y-82203533D01*
X176096443Y-82203534D01*
X176147963Y-82373373D01*
X176165359Y-82550000D01*
X176147963Y-82726627D01*
X176113616Y-82839853D01*
X176096443Y-82896467D01*
X176022348Y-83035087D01*
X176012778Y-83052991D01*
X175983448Y-83088729D01*
X175900186Y-83190186D01*
X175798729Y-83273448D01*
X175762991Y-83302778D01*
X175762989Y-83302779D01*
X175606467Y-83386443D01*
X175549853Y-83403616D01*
X175436627Y-83437963D01*
X175370443Y-83444481D01*
X175304260Y-83451000D01*
X175215740Y-83451000D01*
X175149557Y-83444481D01*
X175083373Y-83437963D01*
X174970147Y-83403616D01*
X174913533Y-83386443D01*
X174757011Y-83302779D01*
X174757009Y-83302778D01*
X174721271Y-83273448D01*
X174619814Y-83190186D01*
X174536552Y-83088729D01*
X174507222Y-83052991D01*
X174497652Y-83035087D01*
X174423557Y-82896467D01*
X174406384Y-82839853D01*
X174372037Y-82726627D01*
X174354641Y-82550000D01*
X174372037Y-82373373D01*
X174423557Y-82203534D01*
X174423557Y-82203533D01*
X174507221Y-82047011D01*
X174507222Y-82047009D01*
X174536552Y-82011271D01*
X174619814Y-81909814D01*
X174721271Y-81826552D01*
X174757009Y-81797222D01*
X174774913Y-81787652D01*
X174913533Y-81713557D01*
X174970147Y-81696384D01*
X175083373Y-81662037D01*
X175149557Y-81655519D01*
X175215740Y-81649000D01*
X175304260Y-81649000D01*
X175370443Y-81655519D01*
X175370443Y-81655519D01*
G37*
M02*
